<?xml version="1.0" encoding="UTF-8"?>
<svg width="254px" height="340px" viewBox="0 0 254 340" version="1.1" xmlns="http://www.w3.org/2000/svg" xmlns:xlink="http://www.w3.org/1999/xlink">
    <!-- Generator: Sketch 49.3 (51167) - http://www.bohemiancoding.com/sketch -->
    <title>aeropress</title>
    <desc>Created with Sketch.</desc>
    <defs></defs>
    <g id="Page-1" stroke="none" stroke-width="1" fill="none" fill-rule="evenodd">
        <g id="aeropress" fill-rule="nonzero">
            <path d="M178,333.8 L34.8,333.8 C27.1,333.8 20.9,327.6 20.9,319.9 L20.9,242.4 L192,242.4 L192,319.9 C191.9,327.6 185.7,333.8 178,333.8 Z" id="Shape" fill="#FFFFFF"></path>
            <path d="M224,307.6 L191.9,307.6 L191.9,287.5 L224,287.5 C226.3,287.5 227.8,286.2 227.8,285.3 L227.8,264.6 C227.8,263.7 226.3,262.4 224,262.4 L191.9,262.4 L191.9,242.3 L224,242.3 C237.2,242.3 247.8,252.3 247.8,264.6 L247.8,285.3 C247.9,297.6 237.2,307.6 224,307.6 Z" id="Shape" fill="#FFFFFF"></path>
            <rect id="Rectangle-path" fill="#CDCCCC" x="42.8" y="59.7" width="131.4" height="149.4"></rect>
            <path d="M139.9,145.7 C139.9,133.8 139.9,29.7 139.9,29.7 L118.3,29.7 L96.3,29.7 L74.7,29.7 C74.7,29.7 74.7,133.8 74.7,145.7 C74.7,157.6 58.6,161.4 58.6,161.4 L58.6,173.7 L96.3,173.7 L118.3,173.7 L156,173.7 L156,161.4 C156,161.3 139.9,157.5 139.9,145.7 Z" id="Shape" fill="#CDCCCC"></path>
            <polygon id="Shape" fill="#CDCCCC" points="107.5 6.2 58.6 6.2 58.6 20.3 74.7 29.7 107.5 29.7 140.3 29.7 156.4 20.3 156.4 6.2"></polygon>
            <path d="M191.9,281.6 L191.9,308.4 C191.9,322.4 180.5,333.8 166.5,333.8 L46.2,333.8 C32.2,333.8 20.8,322.4 20.8,308.4 L20.8,281.6 L191.9,281.6 Z" id="Shape" fill="#CD9E5D"></path>
            <path d="M166.5,339.3 L46.2,339.3 C29.2,339.3 15.4,325.5 15.4,308.5 L15.4,237 L197.4,237 L197.4,308.5 C197.4,325.5 183.5,339.3 166.5,339.3 Z M26.3,247.8 L26.3,308.4 C26.3,319.4 35.2,328.3 46.2,328.3 L166.5,328.3 C177.5,328.3 186.4,319.4 186.4,308.4 L186.4,247.8 L26.3,247.8 Z" id="Shape" fill="#3A3033"></path>
            <rect id="Rectangle-path" fill="#3A3033" x="0.7" y="219.4" width="214.1" height="10.9"></rect>
            <path d="M224,313 L186.4,313 L186.4,282 L222.3,282 L222.3,267.8 L186.4,267.8 L186.4,236.8 L224,236.8 C240.2,236.8 253.3,249.3 253.3,264.6 L253.3,285.3 C253.3,300.6 240.2,313 224,313 Z M197.4,302.1 L224,302.1 C234.1,302.1 242.4,294.6 242.4,285.3 L242.4,264.6 C242.4,255.3 234.2,247.8 224,247.8 L197.4,247.8 L197.4,256.9 L224,256.9 C229.1,256.9 233.3,260.4 233.3,264.6 L233.3,285.3 C233.3,289.5 229.1,293 224,293 L197.4,293 L197.4,302.1 Z" id="Shape" fill="#3A3033"></path>
            <path d="M179.7,214.6 L37.4,214.6 L37.4,54.2 L179.7,54.2 L179.7,214.6 Z M48.3,203.6 L168.7,203.6 L168.7,65.2 L48.3,65.2 L48.3,203.6 Z" id="Shape" fill="#3A3033"></path>
            <path d="M161.4,179.1 L53.1,179.1 L53.1,157 L57.3,156 C57.4,156 69.2,152.9 69.2,145.7 L69.2,24.2 L145.3,24.2 L145.3,145.7 C145.3,152.9 157.1,156 157.2,156 L161.4,157 L161.4,179.1 Z M64.1,168.1 L150.5,168.1 L150.5,165.3 C143.2,162.5 134.4,156.2 134.4,145.6 L134.4,35.1 L80.1,35.1 L80.1,145.6 C80.1,156.2 71.3,162.4 64,165.3 L64,168.1 L64.1,168.1 Z" id="Shape" fill="#3A3033"></path>
            <rect id="Rectangle-path" fill="#3A3033" x="53.1" y="184.9" width="108.4" height="10.9"></rect>
            <path d="M141.8,35.1 L73.2,35.1 L53.1,23.4 L53.1,0.7 L161.9,0.7 L161.9,23.4 L141.8,35.1 Z M76.2,24.2 L138.9,24.2 L151,17.1 L151,11.6 L64.1,11.6 L64.1,17.1 L76.2,24.2 Z" id="Shape" fill="#3A3033"></path>
            <circle id="Oval" fill="#3A3033" cx="106.4" cy="142.8" r="6.2"></circle>
            <circle id="Oval" fill="#3A3033" cx="106.4" cy="112.3" r="6.2"></circle>
            <circle id="Oval" fill="#3A3033" cx="106.4" cy="81.9" r="6.2"></circle>
        </g>
    </g>
</svg>