<?xml version="1.0" encoding="UTF-8"?>
<svg width="294px" height="298px" viewBox="0 0 294 298" version="1.1" xmlns="http://www.w3.org/2000/svg" xmlns:xlink="http://www.w3.org/1999/xlink">
    <!-- Generator: Sketch 51 (57462) - http://www.bohemiancoding.com/sketch -->
    <title>biscuit</title>
    <desc>Created with Sketch.</desc>
    <defs></defs>
    <g id="Page-1" stroke="none" stroke-width="1" fill="none" fill-rule="evenodd">
        <g id="biscuit" fill-rule="nonzero">
            <path d="M286.1,127.6 C284.2,128.1 282.3,128.5 280.3,128.8 C263.9,131.4 248.2,126.1 236.8,115.7 C228.2,107.9 222.1,97.3 220.2,84.9 C219.3,79 219.4,73.2 220.3,67.7 C219.4,67.9 218.5,68.1 217.5,68.2 C206.3,69.9 195.4,68 185.9,63.3 C173.1,57 163.1,45.5 158.8,31.1 C158.1,28.9 157.6,26.6 157.3,24.3 C156.6,19.6 156.5,15 157,10.5 C153.7,10.3 150.3,10.1 147,10.1 C139.9,10.1 132.9,10.6 126.1,11.6 C58.1,21.7 6,80.3 6,151.1 C6,229 69.1,292.2 147.1,292.2 C225,292.2 288.2,229 288.2,151.1 C288.1,143.2 287.4,135.3 286.1,127.6 Z M147,204 C117.9,204 94.2,180.4 94.2,151.2 C94.2,122 117.8,98.4 147,98.4 C176.1,98.4 199.8,122 199.8,151.2 C199.8,180.4 176.1,204 147,204 Z" id="Shape" fill="#CD9E5D"></path>
            <g id="Group" transform="translate(0.000000, 4.000000)" fill="#3A3033">
                <path d="M147,293.8 C66.2,293.8 0.5,228.1 0.5,147.3 C0.5,112 13.3,77.8 36.4,51.2 C59.3,24.8 90.9,7.5 125.3,2.4 C135.8,0.8 146.6,0.4 157.5,1.2 L163.2,1.6 L162.6,7.2 C162.2,11.3 162.3,15.4 162.9,19.6 C163.2,21.7 163.7,23.8 164.3,25.7 C168,38.2 176.8,48.7 188.6,54.6 C197.3,58.9 207.2,60.5 216.9,59 C217.7,58.9 218.5,58.7 219.3,58.6 L227.3,56.8 L225.9,64.9 C225,69.9 225,75.1 225.8,80.3 C227.5,90.9 232.8,100.7 240.7,107.9 C249.4,115.8 260.7,120.2 272.4,120.2 C274.8,120.2 277.3,120 279.7,119.6 C281.4,119.3 283.2,119 284.9,118.5 L290.7,116.9 L291.7,122.9 C293.1,130.9 293.8,139.2 293.8,147.5 C293.5,228.1 227.8,293.8 147,293.8 Z M147,11.7 C140.3,11.7 133.5,12.2 126.9,13.2 C95.1,17.9 65.9,34 44.7,58.4 C23.3,83 11.5,114.6 11.5,147.3 C11.5,222.1 72.3,282.9 147.1,282.9 C221.9,282.9 282.7,222.1 282.7,147.3 C282.7,141.6 282.3,135.8 281.6,130.2 C281.5,130.2 281.4,130.2 281.2,130.3 C278.2,130.8 275.2,131 272.2,131 C257.8,131 243.9,125.6 233.2,115.9 C223.4,107.1 216.9,95 214.8,81.9 C214.2,78 214,74.1 214.2,70.3 C203.7,71.2 193,69.1 183.6,64.4 C169.2,57.2 158.3,44.3 153.7,28.9 C153,26.6 152.4,24 152,21.4 C151.5,18.2 151.3,15.1 151.3,11.9 C149.8,11.7 148.4,11.7 147,11.7 Z" id="Shape"></path>
                <path d="M147,205.5 C114.9,205.5 88.8,179.4 88.8,147.3 C88.8,115.2 114.9,89 147,89 C179.1,89 205.2,115.1 205.2,147.2 C205.2,179.3 179.1,205.5 147,205.5 Z M147,100 C120.9,100 99.7,121.2 99.7,147.3 C99.7,173.4 120.9,194.6 147,194.6 C173.1,194.6 194.3,173.4 194.3,147.3 C194.3,121.2 173.1,100 147,100 Z" id="Shape"></path>
                <path d="M155.5,31.5 C139.5,18.5 124.4,13 124.3,12.9 L128,2.6 C128.7,2.8 145.1,8.8 162.5,23 L155.5,31.5 Z" id="Shape"></path>
                <path d="M201.6,129 L196.3,128.1 L190.8,128.1 L190.9,127.2 C194.9,102.9 191.6,81 181.3,62 L190.9,56.8 C202.3,77.9 205.9,102.2 201.6,129 Z" id="Shape"></path>
                <path d="M124.6,264.7 C105.5,246.5 84.4,214.4 92.5,164.8 L103.3,166.6 C97.4,202.6 107.1,233 132.1,256.8 L124.6,264.7 Z" id="Shape"></path>
                <path d="M195.6,203 L194.7,192.1 C258.1,187.1 280.9,124.9 281.1,124.2 L291.4,127.9 C291.2,128.6 266,197.5 195.6,203 Z" id="Shape"></path>
                <path d="M27.9,143.3 L19.1,136.8 C37.9,111.5 72.2,83.2 129.3,92.5 L127.5,103.3 C75.9,94.9 44.8,120.4 27.9,143.3 Z" id="Shape"></path>
                <path d="M198.2,172.9 L192.1,163.8 L195.1,168.4 L192,163.9 L192.2,163.8 C212.2,149.3 225.5,131.3 231.5,110.3 L242,113.3 C235.3,136.7 220.7,156.6 198.6,172.6 L198.2,172.9 Z" id="Shape"></path>
                <path d="M58.5,262.7 C57.6,260.7 35.9,214.1 57.2,166.9 L67.2,171.4 C48,214.1 68.2,257.6 68.4,258 L58.5,262.7 Z" id="Shape"></path>
                <path d="M211.4,246.2 C185.6,246.2 149.6,237.7 121.2,198.3 L130.1,191.9 C151.1,221 178.8,235.6 212.6,235.2 C238.2,234.9 257.8,225.7 258,225.7 L262.7,235.6 C261.8,236 241,245.8 213.1,246.2 C212.5,246.2 212,246.2 211.4,246.2 Z" id="Shape"></path>
                <path d="M164.1,102.3 C156.7,92 148.4,83.5 139.2,76.8 L145.6,68 C155.7,75.3 164.8,84.7 172.9,95.9 L164.1,102.3 Z" id="Shape"></path>
                <path d="M36,68.3 L31.3,58.4 C32.8,57.7 68.8,41 109.6,51 L107,61.6 C70.1,52.6 36.4,68.2 36,68.3 Z" id="Shape"></path>
            </g>
            <circle id="Oval" fill="#3A3033" cx="208.7" cy="24" r="7.3"></circle>
            <path d="M286.3,88.6 C282,96.9 271.8,100.1 263.6,95.8 C255.3,91.5 252.1,81.3 256.4,73.1 L286.3,88.6 Z" id="Shape" fill="#3A3033"></path>
            <polygon id="Shape" fill="#3A3033" points="257.3 35.7 250.6 0.2 279 7"></polygon>
        </g>
    </g>
</svg>