<?xml version="1.0" encoding="utf-8"?>
<!-- Generator: Adobe Illustrator 18.0.0, SVG Export Plug-In . SVG Version: 6.00 Build 0)  -->
<!DOCTYPE svg PUBLIC "-//W3C//DTD SVG 1.1//EN" "http://www.w3.org/Graphics/SVG/1.1/DTD/svg11.dtd">
<svg version="1.1" id="Layer_1" xmlns="http://www.w3.org/2000/svg" xmlns:xlink="http://www.w3.org/1999/xlink" x="0px" y="0px"
	 width="512px" height="512px" viewBox="0 0 512 512" enable-background="new 0 0 512 512" xml:space="preserve">
<g>
	<g>
		<path fill="#CD9E5D" d="M395.1,234.6c-1.9,0.5-3.8,0.9-5.8,1.2c-16.4,2.6-32.1-2.7-43.5-13.1c-8.6-7.8-14.7-18.4-16.6-30.8
			c-0.9-5.9-0.8-11.7,0.1-17.2c-0.9,0.2-1.8,0.4-2.8,0.5c-11.2,1.7-22.1-0.2-31.6-4.9c-12.8-6.3-22.8-17.8-27.1-32.2
			c-0.7-2.2-1.2-4.5-1.5-6.8c-0.7-4.7-0.8-9.3-0.3-13.8c-3.3-0.2-6.7-0.4-10-0.4c-7.1,0-14.1,0.5-20.9,1.5
			c-68,10.1-120.1,68.7-120.1,139.5c0,77.9,63.1,141.1,141.1,141.1c77.9,0,141.1-63.2,141.1-141.1
			C397.1,250.2,396.4,242.3,395.1,234.6z M256,311c-29.1,0-52.8-23.6-52.8-52.8s23.6-52.8,52.8-52.8c29.1,0,52.8,23.6,52.8,52.8
			S285.1,311,256,311z"/>
	</g>
	<g>
		<g>
			<path fill="#3A3033" d="M256,404.8c-80.8,0-146.5-65.7-146.5-146.5c0-35.3,12.8-69.5,35.9-96.1c22.9-26.4,54.5-43.7,88.9-48.8
				c10.5-1.6,21.3-2,32.2-1.2l5.7,0.4l-0.6,5.6c-0.4,4.1-0.3,8.2,0.3,12.4c0.3,2.1,0.8,4.2,1.4,6.1c3.7,12.5,12.5,23,24.3,28.9
				c8.7,4.3,18.6,5.9,28.3,4.4c0.8-0.1,1.6-0.3,2.4-0.4l8-1.8l-1.4,8.1c-0.9,5-0.9,10.2-0.1,15.4c1.7,10.6,7,20.4,14.9,27.6
				c8.7,7.9,20,12.3,31.7,12.3c2.4,0,4.9-0.2,7.3-0.6c1.7-0.3,3.5-0.6,5.2-1.1l5.8-1.6l1,6c1.4,8,2.1,16.3,2.1,24.6
				C402.5,339.1,336.8,404.8,256,404.8z M256,122.7c-6.7,0-13.5,0.5-20.1,1.5c-31.8,4.7-61,20.8-82.2,45.2
				c-21.4,24.6-33.2,56.2-33.2,88.9c0,74.8,60.8,135.6,135.6,135.6c74.8,0,135.6-60.8,135.6-135.6c0-5.7-0.4-11.5-1.1-17.1
				c-0.1,0-0.2,0-0.4,0.1c-3,0.5-6,0.7-9,0.7c-14.4,0-28.3-5.4-39-15.1c-9.8-8.8-16.3-20.9-18.4-34c-0.6-3.9-0.8-7.8-0.6-11.6
				c-10.5,0.9-21.2-1.2-30.6-5.9c-14.4-7.2-25.3-20.1-29.9-35.5c-0.7-2.3-1.3-4.9-1.7-7.5c-0.5-3.2-0.7-6.3-0.7-9.5
				C258.8,122.7,257.4,122.7,256,122.7z"/>
		</g>
		<g>
			<path fill="#3A3033" d="M256,316.5c-32.1,0-58.2-26.1-58.2-58.2S223.9,200,256,200s58.2,26.1,58.2,58.2S288.1,316.5,256,316.5z
				 M256,211c-26.1,0-47.3,21.2-47.3,47.3s21.2,47.3,47.3,47.3c26.1,0,47.3-21.2,47.3-47.3S282.1,211,256,211z"/>
		</g>
		<g>
			<path fill="#3A3033" d="M264.5,142.5c-16-13-31.1-18.5-31.2-18.6l3.7-10.3c0.7,0.2,17.1,6.2,34.5,20.4L264.5,142.5z"/>
		</g>
		<g>
			<path fill="#3A3033" d="M310.6,240l-5.3-0.9l-5.5,0l0.1-0.9c4-24.3,0.7-46.2-9.6-65.2l9.6-5.2C311.3,188.9,314.9,213.2,310.6,240
				z"/>
		</g>
		<g>
			<path fill="#3A3033" d="M233.6,375.7c-19.1-18.2-40.2-50.3-32.1-99.9l10.8,1.8c-5.9,36,3.8,66.4,28.8,90.2L233.6,375.7z"/>
		</g>
		<g>
			<path fill="#3A3033" d="M304.6,314l-0.9-10.9c63.4-5,86.2-67.2,86.4-67.9l10.3,3.7C400.2,239.6,375,308.5,304.6,314z"/>
		</g>
		<g>
			<path fill="#3A3033" d="M136.9,254.3l-8.8-6.5c18.8-25.3,53.1-53.6,110.2-44.3l-1.8,10.8C184.9,205.9,153.8,231.4,136.9,254.3z"
				/>
		</g>
		<g>
			<path fill="#3A3033" d="M307.2,283.9l-6.1-9.1l3,4.6l-3.1-4.5l0.2-0.1h0c20-14.5,33.3-32.5,39.3-53.5l10.5,3
				c-6.7,23.4-21.3,43.3-43.4,59.3L307.2,283.9z"/>
		</g>
		<g>
			<path fill="#3A3033" d="M167.5,373.7c-0.9-2-22.6-48.6-1.3-95.8l10,4.5c-19.2,42.7,1,86.2,1.2,86.6L167.5,373.7z"/>
		</g>
		<g>
			<path fill="#3A3033" d="M320.4,357.2c-25.8,0-61.8-8.5-90.2-47.9l8.9-6.4c21,29.1,48.7,43.7,82.5,43.3
				c25.6-0.3,45.2-9.5,45.4-9.5l4.7,9.9c-0.9,0.4-21.7,10.2-49.6,10.6C321.5,357.2,321,357.2,320.4,357.2z"/>
		</g>
		<g>
			<path fill="#3A3033" d="M273.1,213.3c-7.4-10.3-15.7-18.8-24.9-25.5l6.4-8.8c10.1,7.3,19.2,16.7,27.3,27.9L273.1,213.3z"/>
		</g>
		<g>
			<path fill="#3A3033" d="M145,179.3l-4.7-9.9c1.5-0.7,37.5-17.4,78.3-7.4l-2.6,10.6C179.1,163.6,145.4,179.2,145,179.3z"/>
		</g>
	</g>
	<g>
		<circle fill="#3A3033" cx="317.7" cy="131" r="7.3"/>
	</g>
	<g>
		<path fill="#3A3033" d="M395.3,195.6c-4.3,8.3-14.5,11.5-22.7,7.2c-8.3-4.3-11.5-14.5-7.2-22.7L395.3,195.6z"/>
	</g>
	<g>
		<polygon fill="#3A3033" points="366.3,142.7 359.6,107.2 388,114 		"/>
	</g>
</g>
</svg>
