<?xml version="1.0" encoding="utf-8"?>
<!-- Generator: Adobe Illustrator 18.0.0, SVG Export Plug-In . SVG Version: 6.00 Build 0)  -->
<!DOCTYPE svg PUBLIC "-//W3C//DTD SVG 1.1//EN" "http://www.w3.org/Graphics/SVG/1.1/DTD/svg11.dtd">
<svg version="1.1" id="Layer_1" xmlns="http://www.w3.org/2000/svg" xmlns:xlink="http://www.w3.org/1999/xlink" x="0px" y="0px"
	 width="512px" height="512px" viewBox="0 0 512 512" enable-background="new 0 0 512 512" xml:space="preserve">
<g>
	<g>
		<g>
			<path fill="#CD9E5D" d="M212.7,83.2c-4.4-7.8-12.7-12.7-21.7-12.7h-1.9h-1.9c-9,0-17.2,4.9-21.7,12.7
				c-10.9,19.3-19.2,40.7-23.6,53.2c-1.8,5.2,2,10.6,7.5,10.6h39.7h39.7c5.5,0,9.3-5.4,7.5-10.6C231.9,123.9,223.6,102.4,212.7,83.2
				z"/>
		</g>
		<g>
			<path fill="#3A3033" d="M228.8,152.4h-79.3c-4.4,0-8.5-2.1-11-5.7c-2.5-3.6-3.1-8.1-1.7-12.2c4.1-11.6,12.7-34.1,24-54
				c5.4-9.5,15.5-15.5,26.4-15.5h3.7c10.9,0,21,5.9,26.4,15.5c11.3,20,19.9,42.4,24,54.1c1.5,4.1,0.8,8.7-1.7,12.2
				C237.3,150.3,233.2,152.4,228.8,152.4z M187.3,76c-7,0-13.4,3.8-16.9,9.9c-10.9,19.3-19.3,41-23.2,52.3c-0.4,1,0,1.9,0.3,2.2
				c0.3,0.4,0.9,1.1,2,1.1h79.3c1.1,0,1.8-0.7,2-1.1c0.3-0.4,0.7-1.2,0.3-2.2c-4-11.3-12.3-33-23.2-52.3C204.4,79.8,198,76,191,76
				H187.3z"/>
		</g>
		<g>
			<path fill="#CDCCCC" d="M244.3,411.8c-0.1-2.1-0.3-4.1-0.6-6.2c-0.3-2-0.6-4.1-1-6.1c-0.4-2-0.9-4-1.4-6
				c-4.9-17.9-13.5-53.3-13.5-80.8c0-24,4-43.7,8-63.3c1.9-9.3,3.9-18.6,5.5-28.4c0.4-2.2-0.4-4.6-2.1-6c-0.1-0.1-0.3-0.3-0.4-0.4
				c-1.1-1.1-1.7-2.7-1.7-4.4c0-1.3,0.8-2.3,1.9-3.8c0.2-0.2,0.4-0.4,0.7-0.5c2.5-1.9,4.2-4.8,4.4-7.9c0.1-1.7,0.2-3.4,0.3-5.1
				c0-0.1,0-0.1,0-0.2c0.1-2.3-1-4.5-3-5.7c-0.2-0.1-0.4-0.2-0.5-0.4c0,0-0.1-0.1-0.1-0.1c-0.2-0.1-0.3-0.3-0.5-0.4
				c0,0-0.1-0.1-0.1-0.1c-0.2-0.2-0.3-0.3-0.4-0.5c0,0-0.1-0.1-0.1-0.1c-0.1-0.2-0.3-0.4-0.4-0.6c0,0,0-0.1-0.1-0.1
				c-0.1-0.2-0.2-0.4-0.3-0.6c0,0,0-0.1-0.1-0.1c-0.1-0.2-0.1-0.4-0.2-0.6c0-0.1,0-0.1-0.1-0.2c-0.1-0.2-0.1-0.4-0.1-0.6
				c0-0.1,0-0.1,0-0.2c0-0.2,0-0.5,0-0.7c0,0,0-0.1,0-0.1c0-1.7,0.6-3.2,1.7-4.3c0,0,0,0,0,0c0.3-0.3,0.6-0.6,1-0.8
				c0.1,0,0.1-0.1,0.2-0.1c0.5-0.3,1-0.7,1.4-1.2c0.6-0.6,1-1.4,1.3-2.2c0.3-0.9,0.5-1.8,0.4-2.8c0-0.1,0-0.1,0-0.2
				c-0.5-6-1.4-11.6-2.5-16.8c-0.8-3.7-4-6.3-7.8-6.3h0h-89h0c-3.7,0-7,2.6-7.8,6.3c-1.1,5.2-2,10.8-2.5,16.8c0,0.1,0,0.1,0,0.2
				c-0.1,1,0.1,1.9,0.4,2.8c0.3,0.8,0.7,1.5,1.3,2.2c0.4,0.4,0.9,0.8,1.4,1.2c0.1,0,0.1,0.1,0.2,0.1c0.3,0.2,0.7,0.5,1,0.8
				c0,0,0,0,0,0c1,1.1,1.7,2.6,1.7,4.3c0,0,0,0.1,0,0.1c0,0.3,0,0.5,0,0.7c0,0.1,0,0.1,0,0.2c0,0.2-0.1,0.4-0.1,0.6
				c0,0.1,0,0.1-0.1,0.2c-0.1,0.2-0.1,0.4-0.2,0.6c0,0,0,0.1-0.1,0.1c-0.1,0.2-0.2,0.4-0.3,0.6c0,0,0,0.1-0.1,0.1
				c-0.1,0.2-0.2,0.4-0.4,0.6c0,0-0.1,0.1-0.1,0.1c-0.1,0.2-0.3,0.4-0.4,0.5c0,0-0.1,0.1-0.1,0.1c-0.2,0.2-0.3,0.3-0.5,0.4
				c0,0-0.1,0.1-0.1,0.1c-0.2,0.1-0.4,0.3-0.5,0.4c-2,1.2-3.1,3.4-3,5.7c0,0.1,0,0.1,0,0.2c0.1,1.7,0.2,3.4,0.3,5.1
				c0.2,3.2,1.9,6,4.4,7.9c0.2,0.2,0.4,0.4,0.7,0.5c1.1,1.4,1.9,2.4,1.9,3.8c0,1.7-0.7,3.2-1.7,4.4c-0.1,0.1-0.3,0.3-0.4,0.4
				c-1.7,1.4-2.5,3.8-2.1,6c1.6,9.8,3.5,19.1,5.5,28.4c4.1,19.7,8,39.4,8,63.3c0,27.5-8.6,62.9-13.5,80.8c-0.5,2-1,4-1.4,6
				c-0.2,1-0.4,2-0.6,3c-0.7,4.1-1.1,8.2-1.2,12.3c0,1-0.1,2.1-0.1,3.1v7.1v0c0,7.4,6,13.5,13.5,13.5h0H231h0
				c7.4,0,13.5-6,13.5-13.5v0V418C244.5,415.9,244.4,413.8,244.3,411.8z"/>
		</g>
		<g>
			<path fill="#3A3033" d="M231,444h-83.5c-10.5,0-18.9-8.5-18.9-18.9V418c0-1.1,0-2.2,0.1-3.3c0.1-4.4,0.6-8.7,1.3-13
				c0.2-1.1,0.4-2.2,0.6-3.2c0.4-2.1,0.9-4.3,1.5-6.4c5-18.2,13.4-52.6,13.4-79.3c0-24-4.2-44.3-7.9-62.2l-0.3-1.5
				c-1.8-8.7-3.7-17.8-5.2-27.1c-0.7-4.2,0.9-8.5,4-11.1c0,0,0,0,0-0.1c-0.1-0.1-0.2-0.3-0.3-0.4c0,0,0,0,0,0
				c-3.8-2.9-6.2-7.2-6.5-11.9c-0.1-1.7-0.2-3.5-0.3-5.2v-0.2c-0.2-4.3,1.9-8.3,5.6-10.6l0.5-0.8c0-0.3-0.1-0.4-0.2-0.6l0,0
				c0,0-0.1-0.1-0.2-0.1l-0.1-0.1c-0.8-0.6-1.6-1.2-2.3-2c-1-1.1-1.8-2.5-2.4-3.9c-0.6-1.7-0.9-3.4-0.7-5.1l0-0.2
				c0.5-5.9,1.4-11.8,2.6-17.4c1.4-6.2,6.8-10.6,13.1-10.6h89c6.4,0,11.8,4.3,13.1,10.5c1.2,5.7,2.1,11.5,2.6,17.5l0,0.2
				c0.1,1.7-0.1,3.4-0.7,5.1c-0.5,1.4-1.3,2.8-2.4,3.9c-0.7,0.8-1.4,1.4-2.3,2l-0.2,0.1c0,0-0.1,0.1-0.1,0.1
				c-0.1,0.2-0.2,0.3-0.2,0.5l0,0.3c0,0,0,0,0,0.1l0,0l0,0l0,0l0.1,0.2c0,0-0.1-0.1-0.1-0.2l0,0l0.2,0.2l0,0l0,0l-0.1,0l0,0l0.3,0.2
				c3.7,2.2,5.8,6.3,5.6,10.5l0,0.2c-0.1,1.8-0.2,3.5-0.3,5.2c-0.3,4.6-2.7,9-6.6,11.9c0,0,0,0,0,0c-0.1,0.1-0.2,0.3-0.3,0.4
				c0,0,0,0.1,0.1,0.1c3.2,2.7,4.7,6.9,4,11.1c-1.5,9.4-3.4,18.4-5.2,27.1l-0.3,1.5c-3.7,17.9-7.9,38.2-7.9,62.2
				c0,26.7,8.4,61.2,13.4,79.3c0.6,2.1,1.1,4.3,1.5,6.4c0.4,2.1,0.8,4.3,1.1,6.5c0.3,2.2,0.5,4.4,0.7,6.5c0.1,2.2,0.2,4.4,0.2,6.6
				v7.1C250,435.5,241.5,444,231,444z M139.8,192.8c0.1,1.6,0.2,3.2,0.3,4.8c0.1,1.5,0.9,2.9,2.3,3.9c0.3,0.2,0.6,0.5,0.9,0.8
				l0.7,0.8c1.4,1.8,3.1,4,3.1,7.1c0,3-1.1,5.9-3.2,8.1l-0.2,0.2c-0.3,0.2-0.5,0.5-0.8,0.7c-0.1,0.1-0.2,0.5-0.2,0.9
				c1.5,9.1,3.3,18,5.1,26.6l0.3,1.5c3.8,18.4,8.2,39.3,8.2,64.4c0,28-8.6,63.5-13.7,82.2c-0.5,1.9-1,3.8-1.4,5.7
				c-0.2,1-0.4,1.9-0.5,2.9c-0.6,3.8-1,7.7-1.2,11.6c0,1,0,1.9,0,2.9v7.1c0,4.4,3.6,8,8,8H231c4.4,0,8-3.6,8-8V418
				c0-1.9-0.1-3.9-0.2-5.8c-0.1-1.9-0.3-3.9-0.6-5.8c-0.3-1.9-0.6-3.8-1-5.7c-0.4-1.9-0.8-3.8-1.4-5.7
				c-5.1-18.7-13.7-54.2-13.7-82.2c0-25.1,4.3-46,8.2-64.4l0.3-1.5c1.8-8.6,3.6-17.5,5.1-26.6c0.1-0.4-0.1-0.8-0.2-0.9
				c-0.3-0.2-0.5-0.5-0.8-0.7l-0.1-0.2c-2.1-2.2-3.2-5.1-3.2-8.1c0-3.2,1.7-5.3,3.1-7.1l0.8-0.8c0.3-0.3,0.6-0.5,0.9-0.8
				c1.3-1,2.2-2.5,2.3-4c0.1-1.6,0.2-3.2,0.3-4.9l0-0.2c0-0.4-0.1-0.7-0.4-0.9c-0.3-0.2-0.7-0.4-1-0.7l-0.2-0.2
				c-0.4-0.3-0.7-0.6-0.9-0.8l0,0l-0.2-0.2c-0.3-0.3-0.6-0.6-0.8-1l0,0l-0.1-0.2c-0.3-0.3-0.5-0.7-0.7-1h0l-0.1-0.2
				c-0.2-0.4-0.4-0.8-0.6-1.2h0l-0.1-0.2c-0.2-0.4-0.3-0.7-0.4-1c0-0.1-0.1-0.3-0.1-0.4c-0.1-0.4-0.2-0.7-0.2-1
				c0-0.2-0.1-0.3-0.1-0.5c-0.1-0.5-0.1-0.9-0.1-1.4h0l0-0.2c0-3,1.1-5.8,3.1-8l0,0h0c0.5-0.6,1.1-1.1,1.8-1.5
				c0.1-0.1,0.2-0.2,0.4-0.3c0.1-0.1,0.2-0.2,0.3-0.3c0.1-0.1,0.2-0.3,0.3-0.4c0.1-0.1,0.1-0.3,0.1-0.4l0-0.2
				c-0.5-5.4-1.3-10.8-2.4-16c-0.3-1.1-1.3-1.9-2.4-1.9h-89c-1.2,0-2.2,0.8-2.5,2c-1.1,5.2-1.9,10.6-2.4,16l0,0.2
				c0,0.1,0,0.2,0.1,0.3c0.1,0.2,0.1,0.3,0.3,0.4c0.1,0.1,0.2,0.2,0.3,0.3l0.5,0.3c0.5,0.4,1.1,0.9,1.6,1.4l0.1,0.1
				c2,2.2,3.1,5,3.1,8l0,0.2h0c0,0.4,0,0.9-0.1,1.3l-0.1,0.6c0,0.2-0.1,0.6-0.2,1l-0.1,0.3h0c-0.1,0.4-0.2,0.8-0.4,1.1l-0.1,0.3l0,0
				c-0.2,0.3-0.3,0.7-0.5,1.1l-0.1,0.2l0,0c-0.2,0.3-0.4,0.7-0.7,1l-0.1,0.1h0c-0.3,0.3-0.5,0.7-0.8,1l-0.2,0.2l0,0
				c-0.3,0.3-0.6,0.5-0.9,0.8l-0.4,0.3c-0.2,0.2-0.5,0.4-0.9,0.6c-0.2,0.1-0.4,0.4-0.4,0.7l0,0.2L139.8,192.8z"/>
		</g>
		<g>
			<rect x="140.4" y="176.1" fill="#3A3033" width="75.2" height="10.9"/>
		</g>
		<g>
			<rect x="140.4" y="204.7" fill="#3A3033" width="75.2" height="10.9"/>
		</g>
		<g>
			<path fill="#3A3033" d="M176.1,440.7l-10.1-4.3c0.3-0.7,7.7-17.7,23.2-17.7c15.6,0,22.7,17,23,17.7l-10.1,4.1
				c0-0.1-4.6-10.9-12.8-10.9C181,429.7,176.2,440.6,176.1,440.7z"/>
		</g>
	</g>
	<g>
		<g>
			<rect x="312.3" y="223.8" fill="#CDCCCC" width="44.8" height="18.4"/>
		</g>
		<g>
			<rect x="320.3" y="206.6" fill="#CDCCCC" width="29.3" height="17.2"/>
		</g>
		<g>
			<path fill="#CDCCCC" d="M375.7,275.3l-18.2-33h-22.8H312l-18.2,33c-1.5,3.1-2.3,6.5-2.3,9.9v71.6c0,5,0.8,10,2.7,14.6
				c0.8,1.9,1.2,4.2,0.3,6.6c-1.8,4.7-3,9.6-3,14.6v32.6c0,9.1,7.4,16.4,16.4,16.4h26.8h26.8c9.1,0,16.4-7.4,16.4-16.4v-32.6
				c0-5-1.2-9.9-3-14.6c-0.9-2.4-0.5-4.7,0.3-6.6c1.9-4.6,2.7-9.6,2.7-14.6v-71.6C378,281.7,377.2,278.3,375.7,275.3z"/>
		</g>
		<g>
			<rect x="316.5" y="181.5" fill="#CD9E5D" width="36.4" height="25"/>
		</g>
		<g>
			<path fill="#3A3033" d="M361.5,447h-53.6c-12.1,0-21.9-9.8-21.9-21.9v-32.6c0-5.3,1.1-10.7,3.4-16.6c0.1-0.3,0.4-1-0.2-2.5
				c-2.1-4.9-3.2-10.6-3.2-16.7v-71.6c0-4.3,1-8.5,2.9-12.3l0.1-0.2l19.7-35.8h52l19.8,36c1.9,3.8,2.9,8.1,2.9,12.3v71.6
				c0,6.1-1.1,11.8-3.2,16.7c-0.6,1.5-0.3,2.2-0.2,2.5c2.3,5.9,3.4,11.3,3.4,16.6v32.6C383.4,437.2,373.6,447,361.5,447z
				 M298.7,277.8c-1.1,2.3-1.7,4.8-1.7,7.4v71.6c0,4.7,0.8,8.9,2.3,12.4c1.5,3.6,1.7,7.3,0.4,10.7c-1.8,4.6-2.6,8.7-2.6,12.6v32.6
				c0,6,4.9,11,11,11h53.6c6,0,11-4.9,11-11v-32.6c0-3.9-0.9-8-2.6-12.6c-1.3-3.4-1.2-7.1,0.4-10.7c1.5-3.6,2.3-7.8,2.3-12.4v-71.6
				c0-2.5-0.6-5.1-1.7-7.4l-16.5-30.1h-39L298.7,277.8z"/>
		</g>
		<g>
			<path fill="#3A3033" d="M362.6,247.7h-55.7v-29.4h55.7V247.7z M317.8,236.8h33.9v-7.5h-33.9V236.8z"/>
		</g>
		<g>
			<path fill="#3A3033" d="M358.4,212h-47.3v-36h47.3V212z M322,201.1h25.5V187H322V201.1z"/>
		</g>
		<g>
			<path fill="#3A3033" d="M355,229.3h-40.2v-28.2H355V229.3z M325.7,218.4h18.3V212h-18.3V218.4z"/>
		</g>
		<g>
			<rect x="295" y="369.1" fill="#3A3033" width="62.1" height="10.9"/>
		</g>
		<g>
			<rect x="291.5" y="274.5" fill="#3A3033" width="61.4" height="10.9"/>
		</g>
	</g>
</g>
</svg>
