<?xml version="1.0" encoding="UTF-8"?>
<svg width="256px" height="382px" viewBox="0 0 256 382" version="1.1" xmlns="http://www.w3.org/2000/svg" xmlns:xlink="http://www.w3.org/1999/xlink">
    <!-- Generator: Sketch 51 (57462) - http://www.bohemiancoding.com/sketch -->
    <title>bottle of water</title>
    <desc>Created with Sketch.</desc>
    <defs></defs>
    <g id="Page-1" stroke="none" stroke-width="1" fill="none" fill-rule="evenodd">
        <g id="bottle-of-water" fill-rule="nonzero">
            <g id="Group">
                <path d="M84.7,18.2 C80.3,10.4 72,5.5 63,5.5 L61.1,5.5 L59.2,5.5 C50.2,5.5 42,10.4 37.5,18.2 C26.6,37.5 18.3,58.9 13.9,71.4 C12.1,76.6 15.9,82 21.4,82 L61.1,82 L100.8,82 C106.3,82 110.1,76.6 108.3,71.4 C103.9,58.9 95.6,37.4 84.7,18.2 Z" id="Shape" fill="#CD9E5D"></path>
                <path d="M100.8,87.4 L21.5,87.4 C17.1,87.4 13,85.3 10.5,81.7 C8,78.1 7.4,73.6 8.8,69.5 C12.9,57.9 21.5,35.4 32.8,15.5 C38.2,6 48.3,2.84217094e-14 59.2,2.84217094e-14 L62.9,2.84217094e-14 C73.8,2.84217094e-14 83.9,5.9 89.3,15.5 C100.6,35.5 109.2,57.9 113.3,69.6 C114.8,73.7 114.1,78.3 111.6,81.8 C109.3,85.3 105.2,87.4 100.8,87.4 Z M59.3,11 C52.3,11 45.9,14.8 42.4,20.9 C31.5,40.2 23.1,61.9 19.2,73.2 C18.8,74.2 19.2,75.1 19.5,75.4 C19.8,75.8 20.4,76.5 21.5,76.5 L100.8,76.5 C101.9,76.5 102.6,75.8 102.8,75.4 C103.1,75 103.5,74.2 103.1,73.2 C99.1,61.9 90.8,40.2 79.9,20.9 C76.4,14.8 70,11 63,11 L59.3,11 Z" id="Shape" fill="#3A3033"></path>
                <path d="M116.3,346.8 C116.2,344.7 116,342.7 115.7,340.6 C115.4,338.6 115.1,336.5 114.7,334.5 C114.3,332.5 113.8,330.5 113.3,328.5 C108.4,310.6 99.8,275.2 99.8,247.7 C99.8,223.7 103.8,204 107.8,184.4 C109.7,175.1 111.7,165.8 113.3,156 C113.7,153.8 112.9,151.4 111.2,150 C111.1,149.9 110.9,149.7 110.8,149.6 C109.7,148.5 109.1,146.9 109.1,145.2 C109.1,143.9 109.9,142.9 111,141.4 C111.2,141.2 111.4,141 111.7,140.9 C114.2,139 115.9,136.1 116.1,133 C116.2,131.3 116.3,129.6 116.4,127.9 C116.4,127.8 116.4,127.8 116.4,127.7 C116.5,125.4 115.4,123.2 113.4,122 C113.2,121.9 113,121.8 112.9,121.6 C112.9,121.6 112.8,121.5 112.8,121.5 C112.6,121.4 112.5,121.2 112.3,121.1 C112.3,121.1 112.2,121 112.2,121 C112,120.8 111.9,120.7 111.8,120.5 C111.8,120.5 111.7,120.4 111.7,120.4 C111.6,120.2 111.4,120 111.3,119.8 C111.3,119.8 111.3,119.7 111.2,119.7 C111.1,119.5 111,119.3 110.9,119.1 C110.9,119.1 110.9,119 110.8,119 C110.7,118.8 110.7,118.6 110.6,118.4 C110.6,118.3 110.6,118.3 110.5,118.2 C110.4,118 110.4,117.8 110.4,117.6 C110.4,117.5 110.4,117.5 110.4,117.4 C110.4,117.2 110.4,116.9 110.4,116.7 C110.4,116.7 110.4,116.6 110.4,116.6 C110.4,114.9 111,113.4 112.1,112.3 C112.1,112.3 112.1,112.3 112.1,112.3 C112.4,112 112.7,111.7 113.1,111.5 C113.2,111.5 113.2,111.4 113.3,111.4 C113.8,111.1 114.3,110.7 114.7,110.2 C115.3,109.6 115.7,108.8 116,108 C116.3,107.1 116.5,106.2 116.4,105.2 C116.4,105.1 116.4,105.1 116.4,105 C115.9,99 115,93.4 113.9,88.2 C113.1,84.5 109.9,81.9 106.1,81.9 L17.1,81.9 C13.4,81.9 10.1,84.5 9.3,88.2 C8.2,93.4 7.3,99 6.8,105 C6.8,105.1 6.8,105.1 6.8,105.2 C6.7,106.2 6.9,107.1 7.2,108 C7.5,108.8 7.9,109.5 8.5,110.2 C8.9,110.6 9.4,111 9.9,111.4 C10,111.4 10,111.5 10.1,111.5 C10.4,111.7 10.8,112 11.1,112.3 C11.1,112.3 11.1,112.3 11.1,112.3 C12.1,113.4 12.8,114.9 12.8,116.6 C12.8,116.6 12.8,116.7 12.8,116.7 C12.8,117 12.8,117.2 12.8,117.4 C12.8,117.5 12.8,117.5 12.8,117.6 C12.8,117.8 12.7,118 12.7,118.2 C12.7,118.3 12.7,118.3 12.6,118.4 C12.5,118.6 12.5,118.8 12.4,119 C12.4,119 12.4,119.1 12.3,119.1 C12.2,119.3 12.1,119.5 12,119.7 C12,119.7 12,119.8 11.9,119.8 C11.8,120 11.7,120.2 11.5,120.4 C11.5,120.4 11.4,120.5 11.4,120.5 C11.3,120.7 11.1,120.9 11,121 C11,121 10.9,121.1 10.9,121.1 C10.7,121.3 10.6,121.4 10.4,121.5 C10.4,121.5 10.3,121.6 10.3,121.6 C10.1,121.7 9.9,121.9 9.8,122 C7.8,123.2 6.7,125.4 6.8,127.7 C6.8,127.8 6.8,127.8 6.8,127.9 C6.9,129.6 7,131.3 7.1,133 C7.3,136.2 9,139 11.5,140.9 C11.7,141.1 11.9,141.3 12.2,141.4 C13.3,142.8 14.1,143.8 14.1,145.2 C14.1,146.9 13.4,148.4 12.4,149.6 C12.3,149.7 12.1,149.9 12,150 C10.3,151.4 9.5,153.8 9.9,156 C11.5,165.8 13.4,175.1 15.4,184.4 C19.5,204.1 23.4,223.8 23.4,247.7 C23.4,275.2 14.8,310.6 9.9,328.5 C9.4,330.5 8.9,332.5 8.5,334.5 C8.3,335.5 8.1,336.5 7.9,337.5 C7.2,341.6 6.8,345.7 6.7,349.8 C6.7,350.8 6.6,351.9 6.6,352.9 L6.6,360 C6.6,367.4 12.6,373.5 20.1,373.5 L103,373.5 C110.4,373.5 116.5,367.5 116.5,360 L116.5,353 C116.5,350.9 116.4,348.8 116.3,346.8 Z" id="Shape" fill="#CDCCCC"></path>
                <path d="M103,379 L19.5,379 C9,379 0.6,370.5 0.6,360.1 L0.6,353 C0.6,351.9 0.6,350.8 0.7,349.7 C0.8,345.3 1.3,341 2,336.7 C2.2,335.6 2.4,334.5 2.6,333.5 C3,331.4 3.5,329.2 4.1,327.1 C9.1,308.9 17.5,274.5 17.5,247.8 C17.5,223.8 13.3,203.5 9.6,185.6 L9.3,184.1 C7.5,175.4 5.6,166.3 4.1,157 C3.4,152.8 5,148.5 8.1,145.9 C8.1,145.9 8.1,145.9 8.1,145.8 C8,145.7 7.9,145.5 7.8,145.4 C7.8,145.4 7.8,145.4 7.8,145.4 C4,142.5 1.6,138.2 1.3,133.5 C1.2,131.8 1.1,130 1,128.3 L1,128.1 C0.8,123.8 2.9,119.8 6.6,117.5 L7.1,116.7 C7.1,116.4 7,116.3 6.9,116.1 C6.9,116.1 6.8,116 6.7,116 L6.6,115.9 C5.8,115.3 5,114.7 4.3,113.9 C3.3,112.8 2.5,111.4 1.9,110 C1.3,108.3 1,106.6 1.2,104.9 L1.2,104.7 C1.7,98.8 2.6,92.9 3.8,87.3 C5.2,81.1 10.6,76.7 16.9,76.7 L105.9,76.7 C112.3,76.7 117.7,81 119,87.2 C120.2,92.9 121.1,98.7 121.6,104.7 L121.6,104.9 C121.7,106.6 121.5,108.3 120.9,110 C120.4,111.4 119.6,112.8 118.5,113.9 C117.8,114.7 117.1,115.3 116.2,115.9 L116,116 C116,116 115.9,116.1 115.9,116.1 C115.8,116.3 115.7,116.4 115.7,116.6 L115.7,116.9 C115.7,116.9 115.7,116.9 115.7,117 L115.8,117.2 C115.8,117.2 115.7,117.1 115.7,117 L115.9,117.2 L115.8,117.2 L116.1,117.4 C119.8,119.6 121.9,123.7 121.7,127.9 L121.7,128.1 C121.6,129.9 121.5,131.6 121.4,133.3 C121.1,137.9 118.7,142.3 114.8,145.2 C114.8,145.2 114.8,145.2 114.8,145.2 C114.7,145.3 114.6,145.5 114.5,145.6 C114.5,145.6 114.5,145.7 114.6,145.7 C117.8,148.4 119.3,152.6 118.6,156.8 C117.1,166.2 115.2,175.2 113.4,183.9 L113.1,185.4 C109.4,203.3 105.2,223.6 105.2,247.6 C105.2,274.3 113.6,308.8 118.6,326.9 C119.2,329 119.7,331.2 120.1,333.3 C120.5,335.4 120.9,337.6 121.2,339.8 C121.5,342 121.7,344.2 121.9,346.3 C122,348.5 122.1,350.7 122.1,352.9 L122.1,360 C122,370.5 113.5,379 103,379 Z M11.8,127.8 C11.9,129.4 12,131 12.1,132.6 C12.2,134.1 13,135.5 14.4,136.5 C14.7,136.7 15,137 15.3,137.3 L16,138.1 C17.4,139.9 19.1,142.1 19.1,145.2 C19.1,148.2 18,151.1 15.9,153.3 L15.7,153.5 C15.4,153.7 15.2,154 14.9,154.2 C14.8,154.3 14.7,154.7 14.7,155.1 C16.2,164.2 18,173.1 19.8,181.7 L20.1,183.2 C23.9,201.6 28.3,222.5 28.3,247.6 C28.3,275.6 19.7,311.1 14.6,329.8 C14.1,331.7 13.6,333.6 13.2,335.5 C13,336.5 12.8,337.4 12.7,338.4 C12.1,342.2 11.7,346.1 11.5,350 C11.5,351 11.5,351.9 11.5,352.9 L11.5,360 C11.5,364.4 15.1,368 19.5,368 L103,368 C107.4,368 111,364.4 111,360 L111,353 C111,351.1 110.9,349.1 110.8,347.2 C110.7,345.3 110.5,343.3 110.2,341.4 C109.9,339.5 109.6,337.6 109.2,335.7 C108.8,333.8 108.4,331.9 107.8,330 C102.7,311.3 94.1,275.8 94.1,247.8 C94.1,222.7 98.4,201.8 102.3,183.4 L102.6,181.9 C104.4,173.3 106.2,164.4 107.7,155.3 C107.8,154.9 107.6,154.5 107.5,154.4 C107.2,154.2 107,153.9 106.7,153.7 L106.6,153.5 C104.5,151.3 103.4,148.4 103.4,145.4 C103.4,142.2 105.1,140.1 106.5,138.3 L107.3,137.5 C107.6,137.2 107.9,137 108.2,136.7 C109.5,135.7 110.4,134.2 110.5,132.7 C110.6,131.1 110.7,129.5 110.8,127.8 L110.8,127.6 C110.8,127.2 110.7,126.9 110.4,126.7 C110.1,126.5 109.7,126.3 109.4,126 L109.2,125.8 C108.8,125.5 108.5,125.2 108.3,125 L108.1,124.8 C107.8,124.5 107.5,124.2 107.3,123.8 L107.2,123.6 C106.9,123.3 106.7,122.9 106.5,122.6 L106.4,122.4 C106.2,122 106,121.6 105.8,121.2 L105.7,121 C105.5,120.6 105.4,120.3 105.3,120 C105.3,119.9 105.2,119.7 105.2,119.6 C105.1,119.2 105,118.9 105,118.6 C105,118.4 104.9,118.3 104.9,118.1 C104.8,117.6 104.8,117.2 104.8,116.7 L104.8,116.5 C104.8,113.5 105.9,110.7 107.9,108.5 C108.4,107.9 109,107.4 109.7,107 C109.8,106.9 109.9,106.8 110.1,106.7 C110.2,106.6 110.3,106.5 110.4,106.4 C110.5,106.3 110.6,106.1 110.7,106 C110.8,105.9 110.8,105.7 110.8,105.6 L110.8,105.4 C110.3,100 109.5,94.6 108.4,89.4 C108.1,88.3 107.1,87.5 106,87.5 L17,87.5 C15.8,87.5 14.8,88.3 14.5,89.5 C13.4,94.7 12.6,100.1 12.1,105.5 L12.1,105.7 C12.1,105.8 12.1,105.9 12.2,106 C12.3,106.2 12.3,106.3 12.5,106.4 C12.6,106.5 12.7,106.6 12.8,106.7 L13.3,107 C13.8,107.4 14.4,107.9 14.9,108.4 L15,108.5 C17,110.7 18.1,113.5 18.1,116.5 L18.1,116.7 C18.1,117.1 18.1,117.6 18,118 L17.9,118.6 C17.9,118.8 17.8,119.2 17.7,119.6 L17.6,119.9 C17.5,120.3 17.4,120.7 17.2,121 L17.1,121.3 C16.9,121.6 16.8,122 16.6,122.4 L16.5,122.6 C16.3,122.9 16.1,123.3 15.8,123.6 L15.7,123.7 C15.4,124 15.2,124.4 14.9,124.7 L14.7,124.9 C14.4,125.2 14.1,125.4 13.8,125.7 L13.4,126 C13.2,126.2 12.9,126.4 12.5,126.6 C12.3,126.7 12.1,127 12.1,127.3 L12.1,127.5 L11.8,127.8 Z" id="Shape" fill="#3A3033"></path>
                <rect id="Rectangle-path" fill="#3A3033" x="12.4" y="111.1" width="75.2" height="10.9"></rect>
                <rect id="Rectangle-path" fill="#3A3033" x="12.4" y="139.7" width="75.2" height="10.9"></rect>
                <path d="M48.1,375.7 L38,371.4 C38.3,370.7 45.7,353.7 61.2,353.7 C76.8,353.7 83.9,370.7 84.2,371.4 L74.1,375.5 C74.1,375.4 69.5,364.6 61.3,364.6 C53,364.7 48.2,375.6 48.1,375.7 Z" id="Shape" fill="#3A3033"></path>
            </g>
            <g id="Group" transform="translate(158.000000, 111.000000)">
                <rect id="Rectangle-path" fill="#CDCCCC" x="26.3" y="47.8" width="44.8" height="18.4"></rect>
                <rect id="Rectangle-path" fill="#CDCCCC" x="34.3" y="30.6" width="29.3" height="17.2"></rect>
                <path d="M89.7,99.3 L71.5,66.3 L48.7,66.3 L26,66.3 L7.8,99.3 C6.3,102.4 5.5,105.8 5.5,109.2 L5.5,180.8 C5.5,185.8 6.3,190.8 8.2,195.4 C9,197.3 9.4,199.6 8.5,202 C6.7,206.7 5.5,211.6 5.5,216.6 L5.5,249.2 C5.5,258.3 12.9,265.6 21.9,265.6 L48.7,265.6 L75.5,265.6 C84.6,265.6 91.9,258.2 91.9,249.2 L91.9,216.6 C91.9,211.6 90.7,206.7 88.9,202 C88,199.6 88.4,197.3 89.2,195.4 C91.1,190.8 91.9,185.8 91.9,180.8 L91.9,109.2 C92,105.7 91.2,102.3 89.7,99.3 Z" id="Shape" fill="#CDCCCC"></path>
                <rect id="Rectangle-path" fill="#CD9E5D" x="30.5" y="5.5" width="36.4" height="25"></rect>
                <path d="M75.5,271 L21.9,271 C9.8,271 0,261.2 0,249.1 L0,216.5 C0,211.2 1.1,205.8 3.4,199.9 C3.5,199.6 3.8,198.9 3.2,197.4 C1.1,192.5 0,186.8 0,180.7 L0,109.1 C0,104.8 1,100.6 2.9,96.8 L3,96.6 L22.7,60.8 L74.7,60.8 L94.5,96.8 C96.4,100.6 97.4,104.9 97.4,109.1 L97.4,180.7 C97.4,186.8 96.3,192.5 94.2,197.4 C93.6,198.9 93.9,199.6 94,199.9 C96.3,205.8 97.4,211.2 97.4,216.5 L97.4,249.1 C97.4,261.2 87.6,271 75.5,271 Z M12.7,101.8 C11.6,104.1 11,106.6 11,109.2 L11,180.8 C11,185.5 11.8,189.7 13.3,193.2 C14.8,196.8 15,200.5 13.7,203.9 C11.9,208.5 11.1,212.6 11.1,216.5 L11.1,249.1 C11.1,255.1 16,260.1 22.1,260.1 L75.7,260.1 C81.7,260.1 86.7,255.2 86.7,249.1 L86.7,216.5 C86.7,212.6 85.8,208.5 84.1,203.9 C82.8,200.5 82.9,196.8 84.5,193.2 C86,189.6 86.8,185.4 86.8,180.8 L86.8,109.2 C86.8,106.7 86.2,104.1 85.1,101.8 L68.6,71.7 L29.6,71.7 L12.7,101.8 Z" id="Shape" fill="#3A3033"></path>
                <path d="M76.6,71.7 L20.9,71.7 L20.9,42.3 L76.6,42.3 L76.6,71.7 Z M31.8,60.8 L65.7,60.8 L65.7,53.3 L31.8,53.3 L31.8,60.8 Z" id="Shape" fill="#3A3033"></path>
                <path d="M72.4,36 L25.1,36 L25.1,0 L72.4,0 L72.4,36 Z M36,25.1 L61.5,25.1 L61.5,11 L36,11 L36,25.1 Z" id="Shape" fill="#3A3033"></path>
                <path d="M69,53.3 L28.8,53.3 L28.8,25.1 L69,25.1 L69,53.3 Z M39.7,42.4 L58,42.4 L58,36 L39.7,36 L39.7,42.4 Z" id="Shape" fill="#3A3033"></path>
                <rect id="Rectangle-path" fill="#3A3033" x="9" y="193.1" width="62.1" height="10.9"></rect>
                <rect id="Rectangle-path" fill="#3A3033" x="5.5" y="98.5" width="61.4" height="10.9"></rect>
            </g>
        </g>
    </g>
</svg>