<?xml version="1.0" encoding="UTF-8"?>
<svg width="188px" height="340px" viewBox="0 0 188 340" version="1.1" xmlns="http://www.w3.org/2000/svg" xmlns:xlink="http://www.w3.org/1999/xlink">
    <!-- Generator: Sketch 49.3 (51167) - http://www.bohemiancoding.com/sketch -->
    <title>chemex</title>
    <desc>Created with Sketch.</desc>
    <defs></defs>
    <g id="Page-1" stroke="none" stroke-width="1" fill="none" fill-rule="evenodd">
        <g id="chemex" fill-rule="nonzero">
            <path d="M174.4,241.5 L140.5,137.1 L171,51.4 L94,51.4 L17,51.4 L47.5,137.1 L13.5,241.5 C8.8,252.3 6.1,264.2 6.1,276.7 C6.1,282.6 6.7,288.4 7.8,294 C12.4,317.1 32.8,333.7 56.4,333.7 L131.2,333.7 C154.1,333.7 174.5,318.1 179.4,295.7 C180.8,289.6 181.5,283.2 181.5,276.7 C181.7,264.1 179.1,252.2 174.4,241.5 Z" id="Shape" fill="#FFFFFF"></path>
            <polygon id="Shape" fill="#CDCCCC" points="140.5 136.9 171 51.4 17 51.4 47.5 136.9"></polygon>
            <polygon id="Shape" fill="#95BDA6" points="17 51.4 64.2 13.4 111.4 51.4"></polygon>
            <path d="M174.4,241.5 L172.8,236.6 L15.2,236.6 L13.6,241.5 C8.9,252.3 6.2,264.2 6.2,276.7 C6.2,282.6 6.8,288.4 7.9,294 C12.5,317.1 32.9,333.7 56.5,333.7 L131.3,333.7 C154.2,333.7 174.6,318.1 179.5,295.7 C180.9,289.6 181.6,283.2 181.6,276.7 C181.7,264.1 179.1,252.2 174.4,241.5 Z" id="Shape" fill="#CD9E5D"></path>
            <path d="M131.4,339.1 L56.6,339.1 C30.4,339.1 7.7,320.5 2.6,295 C1.4,289 0.8,282.8 0.8,276.6 C0.8,263.8 3.4,251.4 8.4,239.7 L41.8,137.2 L9.3,45.9 L178.7,45.9 L146.2,137.2 L179.6,240 C184.6,251.7 187.1,264 187.1,276.7 C187.1,283.5 186.4,290.3 184.9,296.9 C179.6,321.4 157,339.1 131.4,339.1 Z M21.1,236 L21.9,236 L18.6,243.7 C14,254.2 11.7,265.3 11.7,276.7 C11.7,282.2 12.2,287.6 13.3,292.9 C17.4,313.4 35.6,328.2 56.6,328.2 L131.4,328.2 C151.9,328.2 170,314 174.3,294.5 C175.6,288.7 176.2,282.7 176.2,276.7 C176.2,265.3 173.9,254.1 169.3,243.7 L166,236 L166.9,236 L136.5,142.6 L132.7,142.6 L135.3,135.3 L163.2,56.9 L24.8,56.9 L53.4,137.1 L21.1,236 Z" id="Shape" fill="#3A3033"></path>
            <path d="M111.4,56.8 L17,56.8 L13.6,47.1 L60.8,9.1 L67.7,9.1 L114.9,47.1 L111.4,56.8 Z M32.6,45.9 L95.9,45.9 L64.2,20.4 L32.6,45.9 Z" id="Shape" fill="#3A3033"></path>
            <polygon id="Shape" fill="#95BDA6" points="160.4 100.1 94 100.1 27.6 100.1 39.2 136.1 27.6 172.4 94 172.4 160.4 172.4 148.8 136.1"></polygon>
            <path d="M167.9,177.9 L20.1,177.9 L33.4,136.2 L20,94.7 L167.8,94.7 L154.4,136.2 L167.9,177.9 Z M35.1,166.9 L152.9,166.9 L143.1,136.1 L152.9,105.6 L35.1,105.6 L44.9,136.1 L35.1,166.9 Z" id="Shape" fill="#3A3033"></path>
            <rect id="Rectangle-path" fill="#3A3033" x="39.2" y="130.7" width="109.6" height="10.9"></rect>
            <path d="M94,150.5 C86.1,150.5 79.7,144.1 79.7,136.2 C79.7,128.3 86.1,121.9 94,121.9 C101.9,121.9 108.3,128.3 108.3,136.2 C108.3,144 101.9,150.5 94,150.5 Z M94,132.7 C92.1,132.7 90.6,134.2 90.6,136.1 C90.6,138 92.1,139.5 94,139.5 C95.9,139.5 97.4,138 97.4,136.1 C97.4,134.3 95.9,132.7 94,132.7 Z" id="Shape" fill="#3A3033"></path>
            <path d="M82.4,159.9 L71.5,159.9 C71.5,145.8 83.8,137.7 84.3,137.4 L90.3,146.6 C90.2,146.6 82.4,151.8 82.4,159.9 Z" id="Shape" fill="#3A3033"></path>
            <path d="M115.2,159.9 L104.3,159.9 C104.3,151.8 96.5,146.6 96.4,146.5 L102.4,137.3 C102.9,137.7 115.2,145.8 115.2,159.9 Z" id="Shape" fill="#3A3033"></path>
            <polygon id="Shape" fill="#95BDA6" points="171 51.4 120 5.1 64.2 51.4"></polygon>
            <path d="M171,56.8 L64.2,56.8 L60.7,47.1 L116.5,0.8 L123.7,1 L174.7,47.3 L171,56.8 Z M79.4,45.9 L156.8,45.9 L119.8,12.3 L79.4,45.9 Z" id="Shape" fill="#3A3033"></path>
        </g>
    </g>
</svg>