<?xml version="1.0" encoding="UTF-8"?>
<svg width="224px" height="394px" viewBox="0 0 224 394" version="1.1" xmlns="http://www.w3.org/2000/svg" xmlns:xlink="http://www.w3.org/1999/xlink">
    <!-- Generator: Sketch 51 (57462) - http://www.bohemiancoding.com/sketch -->
    <title>chocolate</title>
    <desc>Created with Sketch.</desc>
    <defs></defs>
    <g id="Page-1" stroke="none" stroke-width="1" fill="none" fill-rule="evenodd">
        <g id="chocolate" fill-rule="nonzero">
            <polygon id="Shape" fill="#9D705C" points="112.8 5.9 22.8 5.9 22.8 83.2 22.8 160.2 22.8 160.2 22.8 187.2 112.8 187.2 115.9 187.2 136.5 203.3 136.5 203.3 148.1 212.5 180.4 237.9 202.7 237.9 202.7 235.1 202.7 235.1 202.7 160.2 202.7 83.2 202.7 80.4 202.7 5.9"></polygon>
            <polygon id="Shape" fill="#CDCCCC" points="216.5 266.3 218.1 356.6 7.4 356.6 5.8 187.2 115.9 187.2"></polygon>
            <rect id="Rectangle-path" fill="#CDCCCC" x="7.4" y="356.6" width="210.7" height="31.6"></rect>
            <path d="M223.7,362.1 L2,362.1 L0.3,181.7 L117.8,181.7 L221.9,263.6 L223.7,362.1 Z M12.9,351.1 L212.6,351.1 L211.2,268.9 L114,192.6 L11.4,192.6 L12.9,351.1 Z" id="Shape" fill="#3A3033"></path>
            <path d="M216.5,271.7 L115.9,271.7 L110.4,266.2 L110.4,187.1 L119.2,182.8 L219.9,262 L216.5,271.7 Z M121.4,260.8 L200.7,260.8 L121.4,198.4 L121.4,260.8 Z" id="Shape" fill="#3A3033"></path>
            <path d="M208.2,266.7 L114,192.7 L17.3,192.7 L17.3,0.4 L208.2,0.4 L208.2,266.7 Z M28.3,181.7 L117.8,181.7 L197.3,244.2 L197.3,11.3 L28.3,11.3 L28.3,181.7 Z" id="Shape" fill="#3A3033"></path>
            <path d="M118.2,88.7 L17.3,88.7 L17.3,0.4 L118.2,0.4 L118.2,88.7 Z M28.3,77.7 L107.3,77.7 L107.3,11.3 L28.3,11.3 L28.3,77.7 Z" id="Shape" fill="#3A3033"></path>
            <path d="M94.5,63.2 L41.9,63.2 L41.9,25.8 L94.5,25.8 L94.5,63.2 Z M52.8,52.3 L83.6,52.3 L83.6,36.7 L52.8,36.7 L52.8,52.3 Z" id="Shape" fill="#3A3033"></path>
            <polygon id="Shape" fill="#3A3033" points="26.7 87 18.9 79.4 41.9 55.6 41.9 33.5 18.9 9.7 26.7 2.1 52.8 29.1 52.8 60"></polygon>
            <polygon id="Shape" fill="#3A3033" points="109 84.4 83.6 60.1 83.6 29.1 108.8 2.1 116.8 9.6 94.5 33.4 94.5 55.4 116.6 76.5"></polygon>
            <path d="M208.2,88.7 L107.3,88.7 L107.3,0.4 L208.2,0.4 L208.2,88.7 Z M118.2,77.7 L197.2,77.7 L197.2,11.3 L118.2,11.3 L118.2,77.7 Z" id="Shape" fill="#3A3033"></path>
            <path d="M184.5,63.2 L131,63.2 L131,25.8 L184.5,25.8 L184.5,63.2 Z M142,52.3 L173.6,52.3 L173.6,36.7 L142,36.7 L142,52.3 Z" id="Shape" fill="#3A3033"></path>
            <polygon id="Shape" fill="#3A3033" points="116.8 86.9 108.8 79.5 131 55.6 131 33.4 108.8 9.6 116.8 2.1 142 29.1 142 59.9"></polygon>
            <polygon id="Shape" fill="#3A3033" points="199 84.4 173.6 60.1 173.6 29.1 198.7 2.1 206.7 9.6 184.5 33.4 184.5 55.4 206.5 76.5"></polygon>
            <path d="M118.2,166 L17.3,166 L17.3,77.7 L118.2,77.7 L118.2,166 Z M28.3,155.1 L107.3,155.1 L107.3,88.7 L28.3,88.7 L28.3,155.1 Z" id="Shape" fill="#3A3033"></path>
            <path d="M94.5,140.6 L41.9,140.6 L41.9,103.2 L94.5,103.2 L94.5,140.6 Z M52.8,129.6 L83.6,129.6 L83.6,114 L52.8,114 L52.8,129.6 Z" id="Shape" fill="#3A3033"></path>
            <polygon id="Shape" fill="#3A3033" points="26.7 164.3 18.9 156.7 41.9 132.9 41.9 110.8 18.9 87 26.7 79.4 52.8 106.4 52.8 137.3"></polygon>
            <polygon id="Shape" fill="#3A3033" points="109 161.7 83.6 137.4 83.6 106.5 108.8 79.5 116.8 86.9 94.5 110.8 94.5 132.8 116.6 153.8"></polygon>
            <path d="M208.2,166 L107.3,166 L107.3,77.7 L208.2,77.7 L208.2,166 Z M118.2,155.1 L197.2,155.1 L197.2,88.7 L118.2,88.7 L118.2,155.1 Z" id="Shape" fill="#3A3033"></path>
            <path d="M184.5,140.6 L131,140.6 L131,103.2 L184.5,103.2 L184.5,140.6 Z M142,129.6 L173.6,129.6 L173.6,114 L142,114 L142,129.6 Z" id="Shape" fill="#3A3033"></path>
            <polygon id="Shape" fill="#3A3033" points="116.8 164.3 108.8 156.8 131 133 131 110.8 108.8 86.9 116.8 79.5 142 106.5 142 137.3"></polygon>
            <polygon id="Shape" fill="#3A3033" points="199 161.7 173.6 137.4 173.6 106.5 198.7 79.5 206.7 86.9 184.5 110.8 184.5 132.8 206.5 153.8"></polygon>
            <path d="M112.8,192.6 L22.8,192.6 L17.3,187.1 L17.3,160.5 L22.8,155 L112.8,155 L118.3,160.5 L118.3,187.1 L112.8,192.6 Z M28.3,181.7 L107.3,181.7 L107.3,166 L28.3,166 L28.3,181.7 Z" id="Shape" fill="#3A3033"></path>
            <polygon id="Shape" fill="#3A3033" points="89.1 192.6 47.3 192.6 41.9 187.2 41.9 185.9 47.3 180.5 89.1 180.5 94.5 185.9 94.5 187.2"></polygon>
            <polygon id="Shape" fill="#3A3033" points="43.4 189.7 18.9 164.3 26.7 156.7 51.3 182.1 52.8 185.9 52.8 187.2 46.1 187.2"></polygon>
            <polygon id="Shape" fill="#3A3033" points="93.1 189.7 90.4 187.2 83.6 187.2 83.6 185.9 85.1 182.2 108.8 156.8 116.8 164.3"></polygon>
            <path d="M202.7,243.3 L180.4,243.3 L177,242.1 L114,192.6 L112.8,192.6 L107.3,187.1 L107.3,160.5 L112.8,155 L202.8,155 L208.3,160.5 L208.3,237.8 L202.7,243.3 Z M182.3,232.4 L197.3,232.4 L197.3,166 L118.3,166 L118.3,182.5 L119.3,182.9 L182.3,232.4 Z" id="Shape" fill="#3A3033"></path>
            <path d="M179,217.9 L148.1,217.9 L144.7,216.7 L133.1,207.6 L131,203.3 L131,185.9 L136.5,180.4 L179,180.4 L184.5,185.9 L184.5,212.4 L179,217.9 Z M150,207 L173.6,207 L173.6,191.4 L142,191.4 L142,200.7 L150,207 Z" id="Shape" fill="#3A3033"></path>
            <polygon id="Shape" fill="#3A3033" points="142 203.3 131 203.3 131 188.1 108.8 164.3 116.8 156.8 140.5 182.2 142 185.9"></polygon>
            <polygon id="Shape" fill="#3A3033" points="199 239.1 175.2 216.4 173.6 212.4 173.6 185.9 175 182.2 198.7 156.8 206.7 164.3 184.5 188.1 184.5 210.1 206.5 231.2"></polygon>
            <path d="M223.6,393.6 L2,393.6 L2,351.1 L223.6,351.1 L223.6,393.6 Z M12.9,382.7 L212.6,382.7 L212.6,362.1 L12.9,362.1 L12.9,382.7 Z" id="Shape" fill="#3A3033"></path>
        </g>
    </g>
</svg>