<?xml version="1.0" encoding="utf-8"?>
<!-- Generator: Adobe Illustrator 18.0.0, SVG Export Plug-In . SVG Version: 6.00 Build 0)  -->
<!DOCTYPE svg PUBLIC "-//W3C//DTD SVG 1.1//EN" "http://www.w3.org/Graphics/SVG/1.1/DTD/svg11.dtd">
<svg version="1.1" id="Layer_1" xmlns="http://www.w3.org/2000/svg" xmlns:xlink="http://www.w3.org/1999/xlink" x="0px" y="0px"
	 width="512px" height="512px" viewBox="0 0 512 512" enable-background="new 0 0 512 512" xml:space="preserve">
<g>
	<g>
		<polygon fill="#9D705C" points="256.8,64.9 166.8,64.9 166.8,142.2 166.8,219.2 166.8,219.2 166.8,246.2 256.8,246.2 259.9,246.2 
			280.5,262.3 280.5,262.3 292.1,271.5 324.4,296.9 346.7,296.9 346.7,294.1 346.7,294.1 346.7,219.2 346.7,142.2 346.7,139.4 
			346.7,64.9 		"/>
	</g>
	<g>
		<polygon fill="#CDCCCC" points="360.5,325.3 362.1,415.6 151.4,415.6 149.8,246.2 259.9,246.2 		"/>
	</g>
	<g>
		<rect x="151.4" y="415.6" fill="#CDCCCC" width="210.7" height="31.6"/>
	</g>
	<g>
		<path fill="#3A3033" d="M367.7,421.1H146l-1.7-180.4h117.5l104.1,81.9L367.7,421.1z M156.9,410.1h199.7l-1.4-82.2L258,251.6H155.4
			L156.9,410.1z"/>
	</g>
	<g>
		<path fill="#3A3033" d="M360.5,330.7H259.9l-5.5-5.5v-79.1l8.8-4.3L363.9,321L360.5,330.7z M265.4,319.8h79.3l-79.3-62.4V319.8z"
			/>
	</g>
	<g>
		<path fill="#3A3033" d="M352.2,325.7l-94.2-74h-96.7V59.4h190.9V325.7z M172.3,240.7h89.5l79.5,62.5V70.3h-169V240.7z"/>
	</g>
	<g>
		<path fill="#3A3033" d="M262.2,147.7H161.3V59.4h100.9V147.7z M172.3,136.7h79V70.3h-79V136.7z"/>
	</g>
	<g>
		<path fill="#3A3033" d="M238.5,122.2h-52.6V84.8h52.6V122.2z M196.8,111.3h30.8V95.7h-30.8V111.3z"/>
	</g>
	<g>
		<polygon fill="#3A3033" points="170.7,146 162.9,138.4 185.9,114.6 185.9,92.5 162.9,68.7 170.7,61.1 196.8,88.1 196.8,119 		"/>
	</g>
	<g>
		<polygon fill="#3A3033" points="253,143.4 227.6,119.1 227.6,88.1 252.8,61.1 260.8,68.6 238.5,92.4 238.5,114.4 260.6,135.5 		
			"/>
	</g>
	<g>
		<path fill="#3A3033" d="M352.2,147.7H251.3V59.4h100.9V147.7z M262.2,136.7h79V70.3h-79V136.7z"/>
	</g>
	<g>
		<path fill="#3A3033" d="M328.5,122.2H275V84.8h53.5V122.2z M286,111.3h31.6V95.7H286V111.3z"/>
	</g>
	<g>
		<polygon fill="#3A3033" points="260.8,145.9 252.8,138.5 275,114.6 275,92.4 252.8,68.6 260.8,61.1 286,88.1 286,118.9 		"/>
	</g>
	<g>
		<polygon fill="#3A3033" points="343,143.4 317.6,119.1 317.6,88.1 342.7,61.1 350.7,68.6 328.5,92.4 328.5,114.4 350.5,135.5 		
			"/>
	</g>
	<g>
		<path fill="#3A3033" d="M262.2,225H161.3v-88.3h100.9V225z M172.3,214.1h79v-66.4h-79V214.1z"/>
	</g>
	<g>
		<path fill="#3A3033" d="M238.5,199.6h-52.6v-37.4h52.6V199.6z M196.8,188.6h30.8v-15.6h-30.8V188.6z"/>
	</g>
	<g>
		<polygon fill="#3A3033" points="170.7,223.3 162.9,215.7 185.9,191.9 185.9,169.8 162.9,146 170.7,138.4 196.8,165.4 196.8,196.3 
					"/>
	</g>
	<g>
		<polygon fill="#3A3033" points="253,220.7 227.6,196.4 227.6,165.5 252.8,138.5 260.8,145.9 238.5,169.8 238.5,191.8 260.6,212.8 
					"/>
	</g>
	<g>
		<path fill="#3A3033" d="M352.2,225H251.3v-88.3h100.9V225z M262.2,214.1h79v-66.4h-79V214.1z"/>
	</g>
	<g>
		<path fill="#3A3033" d="M328.5,199.6H275v-37.4h53.5V199.6z M286,188.6h31.6v-15.6H286V188.6z"/>
	</g>
	<g>
		<polygon fill="#3A3033" points="260.8,223.3 252.8,215.8 275,192 275,169.8 252.8,145.9 260.8,138.5 286,165.5 286,196.3 		"/>
	</g>
	<g>
		<polygon fill="#3A3033" points="343,220.7 317.6,196.4 317.6,165.5 342.7,138.5 350.7,145.9 328.5,169.8 328.5,191.8 350.5,212.8 
					"/>
	</g>
	<g>
		<path fill="#3A3033" d="M256.8,251.6h-90l-5.5-5.5v-26.6l5.5-5.5h90l5.5,5.5v26.6L256.8,251.6z M172.3,240.7h79V225h-79V240.7z"/>
	</g>
	<g>
		<polygon fill="#3A3033" points="233.1,251.6 191.3,251.6 185.9,246.2 185.9,244.9 191.3,239.5 233.1,239.5 238.5,244.9 
			238.5,246.2 		"/>
	</g>
	<g>
		<polygon fill="#3A3033" points="187.4,248.7 162.9,223.3 170.7,215.7 195.3,241.1 196.8,244.9 196.8,246.2 190.1,246.2 		"/>
	</g>
	<g>
		<polygon fill="#3A3033" points="237.1,248.7 234.4,246.2 227.6,246.2 227.6,244.9 229.1,241.2 252.8,215.8 260.8,223.3 		"/>
	</g>
	<g>
		<path fill="#3A3033" d="M346.7,302.3h-22.3l-3.4-1.2l-63-49.5h-1.2l-5.5-5.5v-26.6l5.5-5.5h90l5.5,5.5v77.3L346.7,302.3z
			 M326.3,291.4h15V225h-79v16.5l1,0.4L326.3,291.4z"/>
	</g>
	<g>
		<path fill="#3A3033" d="M323,276.9h-30.9l-3.4-1.2l-11.6-9.1l-2.1-4.3v-17.4l5.5-5.5H323l5.5,5.5v26.5L323,276.9z M294,266h23.6
			v-15.6H286v9.3L294,266z"/>
	</g>
	<g>
		<polygon fill="#3A3033" points="286,262.3 275,262.3 275,247.1 252.8,223.3 260.8,215.8 284.5,241.2 286,244.9 		"/>
	</g>
	<g>
		<polygon fill="#3A3033" points="343,298.1 319.2,275.4 317.6,271.4 317.6,244.9 319,241.2 342.7,215.8 350.7,223.3 328.5,247.1 
			328.5,269.1 350.5,290.2 		"/>
	</g>
	<g>
		<path fill="#3A3033" d="M367.6,452.6H146v-42.5h221.6V452.6z M156.9,441.7h199.7v-20.6H156.9V441.7z"/>
	</g>
</g>
</svg>
