<?xml version="1.0" encoding="UTF-8"?>
<svg width="326px" height="284px" viewBox="0 0 326 284" version="1.1" xmlns="http://www.w3.org/2000/svg" xmlns:xlink="http://www.w3.org/1999/xlink">
    <!-- Generator: Sketch 51 (57462) - http://www.bohemiancoding.com/sketch -->
    <title>cinnamon</title>
    <desc>Created with Sketch.</desc>
    <defs></defs>
    <g id="Page-1" stroke="none" stroke-width="1" fill="none" fill-rule="evenodd">
        <g id="cinnamon" fill-rule="nonzero">
            <g id="Group" transform="translate(0.000000, 9.000000)">
                <g transform="translate(5.000000, 5.000000)" fill="#9D705C" id="Shape">
                    <path d="M79,208.4 C82.9,208.4 79,208.4 79,208.4 L79,230.6 C79,230.6 78.8,246.3 64.1,244.8 C49.5,243.3 45.4,218 64.1,210.5 C80.5,204 106.4,211.1 101.5,238.2 C96.8,264.2 66.3,264.2 51.5,264.2 C34.4,264.2 6.3,265.6 1.5,238.2 C-3.7,208 22.5,204 38.9,210.5 C57.6,218 53.5,243.3 38.9,244.8 C24.3,246.3 24,230.6 24,230.6 L24,207.8"></path>
                    <path d="M2.2,222.1 C7.2,206.8 26.1,205.4 39,210.5 C46.9,213.7 50.8,220 51.4,226.4 C51.5,227.1 51.5,227.8 51.5,228.5"></path>
                    <path d="M51.5,228.5 C51.5,227.8 51.5,227.1 51.6,226.4 C52.3,220 56.1,213.6 64.1,210.5 C79,204.6 101.5,209.9 102.1,230.9"></path>
                    <path d="M102.1,47.6 L102.1,230.9 C101.5,209.9 79,204.6 64.1,210.5 C56.2,213.7 52.3,220.1 51.6,226.4 C51.5,226.4 51.4,226.4 51.4,226.4 C50.7,220 46.9,213.6 39,210.5 C26.1,205.4 7.3,206.7 2.2,222.1 C2.2,222.1 2.2,222.1 2.2,222.1 C2.1,222.1 2.2,213.6 2.2,213.1 L2.2,51.6 C2.2,45.7 2.2,39.8 2.2,33.9 C2.2,22.6 1.9,8.8 13.7,3.1 C21.7,-0.8 31.8,-0.1 39.9,3.2 C49.5,7 51.5,15.1 51.5,23.1 C51.5,15 55.8,6.5 64.7,3.2 C74.3,-0.3 86.5,0.2 94.5,6.8 C98.8,10.4 101.5,15.6 102,21.2 C102.7,29.9 102.1,38.9 102.1,47.6 Z"></path>
                    <path d="M51.4,23 L51.4,226.9"></path>
                </g>
                <g fill="#3A3033">
                    <path d="M51.8,274.7 C34.7,274.7 6.2,273.5 1.1,244.1 C-1.8,227.2 4.2,218.3 9.8,213.7 C19.9,205.5 35.2,206.1 45.9,210.4 C50.4,212.2 53.9,214.9 56.4,218 C58.9,214.9 62.4,212.2 66.9,210.4 C72.5,208.2 78.7,207.4 84.7,207.9 L85.6,207.9 L85.6,208 C92,208.7 98,211.1 102.6,214.8 C110.7,221.4 114,231.8 111.8,244.1 C106.3,274.6 71.4,274.6 56.5,274.6 L54.1,274.6 C53.4,274.7 52.7,274.7 51.8,274.7 Z M23.6,219 C21.1,219.6 18.7,220.7 16.8,222.3 C12,226.2 10.3,232.9 12,242.3 C15.5,262.3 33.1,263.9 54.2,263.8 L56.6,263.8 C77.8,263.8 97.8,261.2 101.2,242.3 C102.7,233.9 100.9,227.5 95.9,223.4 C94.1,221.9 91.9,220.8 89.5,220 L89.5,235.7 C89.5,236.8 89.2,245.6 82.9,251.2 C80.3,253.5 75.8,256 68.6,255.3 C63.9,254.8 59.7,252.5 56.6,249 C53.5,252.5 49.3,254.9 44.6,255.3 C37.4,256.1 32.9,253.5 30.3,251.2 C24,245.6 23.7,236.8 23.7,235.8 L23.6,219 Z M78.5,218.8 C76,219 73.5,219.6 71.1,220.5 C63.4,223.6 61.4,230.2 62.1,235.4 C62.7,239.5 65.2,243.8 69.6,244.3 C72.2,244.6 74.1,244.1 75.5,242.9 C77.8,240.9 78.4,236.8 78.5,235.4 L78.5,218.8 Z M34.5,218.6 L34.5,235.6 C34.5,236.9 35.2,240.9 37.5,243 C38.9,244.2 40.8,244.6 43.4,244.4 C47.8,243.9 50.4,239.6 50.9,235.5 C51.6,230.3 49.6,223.7 41.9,220.6 C39.7,219.7 37.2,219 34.5,218.6 Z" id="Shape"></path>
                    <path d="M62,233.5 L51,233.5 C51,233 51,232.5 50.9,232.1 C50.6,228.9 49,223.4 41.9,220.6 C34.5,217.7 25.8,217.5 19.9,220.3 C16.1,222.1 13.6,224.9 12.3,228.8 L2,225.4 C4.2,218.6 8.8,213.5 15.3,210.4 C23.9,206.4 35.7,206.4 46,210.4 C55,214 60.9,221.6 61.9,230.8 C61.9,231.6 62,232.5 62,233.5 Z" id="Shape"></path>
                    <path d="M101.6,236.1 C101.4,230 99,225.4 94.4,222.3 C88.3,218.3 78.7,217.6 71.1,220.6 C64,223.4 62.4,229 62.1,232 C62,232.5 62,233 62,233.5 L51,233.5 C51,232.6 51,231.7 51.1,230.9 C52.1,221.6 58,214 67,210.4 C77.9,206.1 91.3,207.2 100.3,213.1 C107.9,218.1 112.2,226.1 112.4,235.7 L101.6,236.1 Z" id="Shape"></path>
                    <path d="M61.4,238.3 L55.5,236.8 C55.3,236.8 55.2,236.7 55.1,236.7 L51.4,235.8 L51,232 C50.7,229 49.1,223.4 42,220.6 C38.3,219.1 34,218.3 30,218.3 C24.7,218.3 15.5,219.7 12.5,228.8 L11.3,232.6 L6.4,232.5 C1.8,231.7 1.8,227.7 1.8,223.9 C1.8,222.1 1.8,220.1 1.8,219 L1.8,218.2 L1.8,50.8 C1.8,46.9 1.8,42.9 1.8,39 L1.8,38.3 C1.8,26.5 1.7,10.3 16.4,3.2 C20.8,1.1 25.7,-1.42108547e-14 31.1,-1.42108547e-14 C36.4,-1.42108547e-14 41.9,1.1 47,3.1 C51.3,4.8 54.7,7.3 57.1,10.7 C59.9,7.3 63.6,4.6 67.9,3.1 C72.4,1.5 77.2,0.6 82,0.6 C90.1,0.6 97.6,3.1 103.1,7.6 C108.5,12 111.9,18.6 112.5,25.7 C113.1,32 112.9,38.4 112.8,44.6 C112.7,47.3 112.7,50 112.7,52.6 L112.7,235.9 L101.8,236.1 C101.3,219.6 84.8,218.8 81.4,218.8 C77.8,218.8 74.3,219.4 71.3,220.7 C64.2,223.5 62.6,229.1 62.3,232.1 L61.4,238.3 Z M29.9,207.4 C35.4,207.4 40.9,208.5 46,210.5 C50.3,212.2 53.9,214.8 56.5,218.1 C59.2,214.8 62.8,212.2 67.1,210.5 C71.5,208.8 76.4,207.9 81.3,207.9 C89.9,207.9 96.7,210.3 101.7,214 L101.7,52.6 C101.7,49.9 101.8,47.1 101.8,44.4 C101.9,38.5 102.1,32.4 101.6,26.7 C101.2,22.5 99.2,18.6 96.1,16 C92.6,13.1 87.6,11.5 82,11.5 C78.5,11.5 74.9,12.1 71.7,13.3 C64.6,15.9 62.1,22.6 62.1,28 L51.2,28 C51.2,19.8 48.8,15.5 43.1,13.2 C39.3,11.7 35.2,10.9 31.3,10.9 C27.6,10.9 24.2,11.6 21.4,13 C13.5,16.8 13,25.8 13,38.2 L13,38.9 C13,42.8 13,46.8 13,50.7 L13,56.6 L13,211.8 C17.3,209 23.2,207.4 29.9,207.4 Z" id="Shape"></path>
                    <rect id="Rectangle-path" x="50.9" y="28" width="10.9" height="203.8"></rect>
                </g>
            </g>
            <g id="Group" transform="translate(126.000000, 0.000000)">
                <g transform="translate(12.000000, 11.000000)" fill="#9D705C" id="Shape">
                    <path d="M88.2,84.3 C88.2,84.3 113.1,42.3 89.5,0.3 C64.7,42.3 88.2,84.3 88.2,84.3 Z"></path>
                    <path d="M86.9,168.3 C86.9,168.3 111.8,126.3 88.2,84.3 C63.3,126.3 86.9,168.3 86.9,168.3 Z"></path>
                    <path d="M88.2,84.3 C88.2,84.3 131.7,107.5 175.9,84.3 C132.5,61 88.2,84.3 88.2,84.3 Z"></path>
                    <path d="M0.6,84.3 C0.6,84.3 44.1,107.5 88.3,84.3 C44.8,61 0.6,84.3 0.6,84.3 Z"></path>
                    <path d="M88.2,84.3 C88.2,84.3 136.6,71 151.1,24.9 C102.8,38.1 88.2,84.3 88.2,84.3 Z"></path>
                    <path d="M25.3,143.7 C25.3,143.7 73.7,130.4 88.2,84.3 C39.9,97.5 25.3,143.7 25.3,143.7 Z"></path>
                    <path d="M88.2,84.3 C88.2,84.3 101.3,130.4 149.3,143.7 C136.2,97.5 88.2,84.3 88.2,84.3 Z"></path>
                    <path d="M27.2,24.9 C27.2,24.9 40.3,71 88.3,84.3 C75.1,38.1 27.2,24.9 27.2,24.9 Z"></path>
                </g>
                <g fill="#3A3033" id="Shape">
                    <path d="M100.1,106.2 L95.5,97.9 C94.5,96.1 70.7,52.6 96.9,8.4 L101.7,0.2 L106.3,8.5 C131.1,52.8 106,96.2 104.9,98 L100.1,106.2 Z M101.4,23.8 C91.9,46.8 96.2,68.8 100.4,81.6 C105.1,68.8 110.1,46.7 101.4,23.8 Z"></path>
                    <path d="M98.8,190.2 L94.2,181.9 C93.2,180.1 69.4,136.6 95.6,92.4 L100.4,84.2 L105,92.5 C129.8,136.8 104.7,180.2 103.6,182 L98.8,190.2 Z M100.1,107.8 C90.6,130.8 94.9,152.8 99.1,165.6 C103.7,152.9 108.8,130.8 100.1,107.8 Z"></path>
                    <path d="M145.6,111.1 C145.5,111.1 145.5,111.1 145.6,111.1 C118.6,111.1 98.6,100.6 97.7,100.1 L88.6,95.2 L97.7,90.4 C98.6,90 118.9,79.4 145.9,79.4 C161.9,79.4 176.9,83.1 190.5,90.4 L199.6,95.3 L190.5,100.1 C176.6,107.4 161.5,111.1 145.6,111.1 Z M115.1,95.3 C122.7,97.7 133.4,100.1 145.5,100.1 C145.5,100.1 145.5,100.1 145.5,100.1 C155.6,100.1 165.2,98.5 174.3,95.2 C165.3,92 155.8,90.4 145.8,90.4 C133.7,90.4 122.8,92.9 115.1,95.3 Z"></path>
                    <path d="M57.9,111.1 C57.9,111.1 57.9,111.1 57.9,111.1 C30.9,111.1 10.9,100.6 10,100.1 L0.9,95.2 L10,90.4 C10.9,90 31.2,79.4 58.2,79.4 C74.2,79.4 89.2,83.1 102.8,90.4 L111.9,95.3 L102.8,100.1 C89,107.4 73.8,111.1 57.9,111.1 Z M27.4,95.3 C35,97.7 45.7,100.1 57.9,100.1 C57.9,100.1 57.9,100.1 57.9,100.1 C68,100.1 77.6,98.5 86.7,95.2 C77.7,92 68.2,90.4 58.2,90.4 C45.9,90.4 35.1,92.9 27.4,95.3 Z"></path>
                    <path d="M92,103.2 L95,93.6 C95.6,91.6 111.1,44.5 161.7,30.6 L171.4,27.9 L168.4,37.5 C153.1,85.9 103.8,100 101.7,100.5 L92,103.2 Z M153.6,45 C130.5,55 117.3,73.2 110.8,85.2 C123.4,79.2 142.8,66.9 153.6,45 Z"></path>
                    <path d="M29.1,162.6 L32.1,153 C32.7,151 48.2,103.9 98.8,90 L108.5,87.3 L105.5,96.9 C90.2,145.3 40.9,159.4 38.8,159.9 L29.1,162.6 Z M90.7,104.4 C67.5,114.4 54.3,132.7 47.8,144.7 C60.4,138.6 79.8,126.4 90.7,104.4 Z"></path>
                    <path d="M169.2,162.5 L159.8,159.9 C109.5,146 95.5,98.7 94.9,96.7 L92.2,87.3 L101.6,89.9 C103.7,90.5 152.7,104.6 166.5,153.1 L169.2,162.5 Z M110.3,105.2 C116.4,117.2 129.1,135.7 152.2,145.7 C142,123.5 122.7,111.1 110.3,105.2 Z"></path>
                    <path d="M108.2,103.1 L98.8,100.5 C48.5,86.6 34.5,39.3 33.9,37.3 L31.2,27.9 L40.6,30.5 C42.7,31.1 91.7,45.2 105.5,93.7 L108.2,103.1 Z M49.3,45.8 C55.4,57.8 68.1,76.3 91.2,86.3 C80.9,64.1 61.6,51.7 49.3,45.8 Z"></path>
                </g>
            </g>
            <g id="Group" transform="translate(162.000000, 196.000000)">
                <g fill="#CD9E5D">
                    <ellipse id="Oval" transform="translate(45.871460, 44.875640) rotate(46.604640) translate(-45.871460, -44.875640) " cx="45.87146" cy="44.87564" rx="26.0989111" ry="37.198448"></ellipse>
                    <path d="M72.9,19.3 C72.9,19.3 45.7,16.3 44.9,45.8 C44.1,75.3 17.9,69.3 17.9,69.3" id="Shape"></path>
                </g>
                <g transform="translate(8.000000, 7.000000)" fill="#3A3033" id="Shape">
                    <path d="M26.8,75.1 C18.7,75.1 11.8,72.3 6.9,67.1 C0.9,60.7 -1.3,51.6 0.8,41.4 C2.7,31.9 8.2,22.5 16.3,14.9 C26,5.8 37.9,0.5 49,0.5 C57.1,0.5 64,3.3 68.9,8.5 C80.8,21.1 76.7,44.6 59.6,60.7 C49.9,69.9 38,75.1 26.8,75.1 Z M49,11.5 C40.7,11.5 31.3,15.8 23.8,22.9 C17.4,29 13,36.3 11.5,43.6 C10.1,50.2 11.3,55.9 14.9,59.6 C18.4,63.4 23.4,64.1 26.9,64.1 C35.2,64.1 44.6,59.8 52.1,52.7 C64.6,40.9 68.7,24.1 61,16 C57.4,12.3 52.5,11.5 49,11.5 Z"></path>
                    <path d="M15.2,68.3 C11.5,68.3 9,67.7 8.7,67.7 L11.1,57 C11.2,57 19.7,58.8 25.4,54.3 C29.2,51.4 31.2,46.1 31.4,38.7 C31.7,28 35.1,19.8 41.5,14.2 C51.5,5.5 64.9,6.9 65.5,7 L64.3,17.9 C64.2,17.9 54.9,17 48.6,22.6 C44.6,26.1 42.5,31.7 42.3,39.1 C42,50 38.6,58.1 32.1,63.1 C26.5,67.3 19.9,68.3 15.2,68.3 Z"></path>
                </g>
            </g>
        </g>
    </g>
</svg>