<?xml version="1.0" encoding="utf-8"?>
<!-- Generator: Adobe Illustrator 18.0.0, SVG Export Plug-In . SVG Version: 6.00 Build 0)  -->
<!DOCTYPE svg PUBLIC "-//W3C//DTD SVG 1.1//EN" "http://www.w3.org/Graphics/SVG/1.1/DTD/svg11.dtd">
<svg version="1.1" id="Layer_1" xmlns="http://www.w3.org/2000/svg" xmlns:xlink="http://www.w3.org/1999/xlink" x="0px" y="0px"
	 width="512px" height="512px" viewBox="0 0 512 512" enable-background="new 0 0 512 512" xml:space="preserve">
<g>
	<g>
		<g>
			<g>
				<path fill="#9D705C" d="M177,336.4C180.9,336.4,177,336.4,177,336.4v22.2c0,0-0.2,15.7-14.9,14.2c-14.6-1.5-18.7-26.8,0-34.3
					c16.4-6.5,42.3,0.6,37.4,27.7c-4.7,26-35.2,26-50,26c-17.1,0-45.2,1.4-50-26c-5.2-30.2,21-34.2,37.4-27.7
					c18.7,7.5,14.6,32.8,0,34.3c-14.6,1.5-14.9-14.2-14.9-14.2v-22.8"/>
			</g>
			<g>
				<path fill="#9D705C" d="M100.2,350.1c5-15.3,23.9-16.7,36.8-11.6c7.9,3.2,11.8,9.5,12.4,15.9c0.1,0.7,0.1,1.4,0.1,2.1"/>
			</g>
			<g>
				<path fill="#9D705C" d="M149.5,356.5c0-0.7,0-1.4,0.1-2.1c0.7-6.4,4.5-12.8,12.5-15.9c14.9-5.9,37.4-0.6,38,20.4"/>
			</g>
			<g>
				<path fill="#9D705C" d="M200.1,175.6v183.3c-0.6-21-23.1-26.3-38-20.4c-7.9,3.2-11.8,9.6-12.5,15.9c-0.1,0-0.2,0-0.2,0
					c-0.7-6.4-4.5-12.8-12.4-15.9c-12.9-5.1-31.7-3.8-36.8,11.6c0,0,0,0,0,0c-0.1,0,0-8.5,0-9V179.6c0-5.9,0-11.8,0-17.7
					c0-11.3-0.3-25.1,11.5-30.8c8-3.9,18.1-3.2,26.2,0.1c9.6,3.8,11.6,11.9,11.6,19.9l0,0c0-8.1,4.3-16.6,13.2-19.9
					c9.6-3.5,21.8-3,29.8,3.6c4.3,3.6,7,8.8,7.5,14.4C200.7,157.9,200.1,166.9,200.1,175.6z"/>
			</g>
			<g>
				<path fill="#9D705C" d="M149.4,354.4"/>
			</g>
			<g>
				<line fill="#9D705C" x1="149.4" y1="151" x2="149.4" y2="354.9"/>
			</g>
		</g>
		<g>
			<g>
				<path fill="#3A3033" d="M144.8,397.7c-17.1,0-45.6-1.2-50.7-30.6c-2.9-16.9,3.1-25.8,8.7-30.4c10.1-8.2,25.4-7.6,36.1-3.3
					c4.5,1.8,8,4.5,10.5,7.6c2.5-3.1,6-5.8,10.5-7.6c5.6-2.2,11.8-3,17.8-2.5h0.9v0.1c6.4,0.7,12.4,3.1,17,6.8
					c8.1,6.6,11.4,17,9.2,29.3c-5.5,30.5-40.4,30.5-55.3,30.5h0l-2.4,0C146.4,397.7,145.7,397.7,144.8,397.7z M116.6,342
					c-2.5,0.6-4.9,1.7-6.8,3.3c-4.8,3.9-6.5,10.6-4.8,20c3.5,20,21.1,21.6,42.2,21.5l2.4,0c21.2,0,41.2-2.6,44.6-21.5
					c1.5-8.4-0.3-14.8-5.3-18.9c-1.8-1.5-4-2.6-6.4-3.4v15.7c0,1.1-0.3,9.9-6.6,15.5c-2.6,2.3-7.1,4.8-14.3,4.1
					c-4.7-0.5-8.9-2.8-12-6.3c-3.1,3.5-7.3,5.9-12,6.3c-7.2,0.8-11.7-1.8-14.3-4.1c-6.3-5.6-6.6-14.4-6.6-15.4L116.6,342z
					 M171.5,341.8c-2.5,0.2-5,0.8-7.4,1.7c-7.7,3.1-9.7,9.7-9,14.9c0.6,4.1,3.1,8.4,7.5,8.9c2.6,0.3,4.5-0.2,5.9-1.4
					c2.3-2,2.9-6.1,3-7.5L171.5,341.8z M127.5,341.6v17c0,1.3,0.7,5.3,3,7.4c1.4,1.2,3.3,1.6,5.9,1.4c4.4-0.5,7-4.8,7.5-8.9
					c0.7-5.2-1.3-11.8-9-14.9C132.7,342.7,130.2,342,127.5,341.6z"/>
			</g>
			<g>
				<path fill="#3A3033" d="M155,356.5H144c0-0.5,0-1-0.1-1.4c-0.3-3.2-1.9-8.7-9-11.5c-7.4-2.9-16.1-3.1-22-0.3
					c-3.8,1.8-6.3,4.6-7.6,8.5L95,348.4c2.2-6.8,6.8-11.9,13.3-15c8.6-4,20.4-4,30.7,0c9,3.6,14.9,11.2,15.9,20.4
					C154.9,354.6,155,355.5,155,356.5z"/>
			</g>
			<g>
				<path fill="#3A3033" d="M194.6,359.1c-0.2-6.1-2.6-10.7-7.2-13.8c-6.1-4-15.7-4.7-23.3-1.7c-7.1,2.8-8.7,8.4-9,11.4
					c-0.1,0.5-0.1,1-0.1,1.5H144c0-0.9,0-1.8,0.1-2.6c1-9.3,6.9-16.9,15.9-20.5c10.9-4.3,24.3-3.2,33.3,2.7c7.6,5,11.9,13,12.1,22.6
					L194.6,359.1z"/>
			</g>
			<g>
				<path fill="#3A3033" d="M154.4,361.3l-5.9-1.5c-0.2,0-0.3-0.1-0.4-0.1l-3.7-0.9l-0.4-3.8c-0.3-3-1.9-8.6-9-11.4
					c-3.7-1.5-8-2.3-12-2.3c-5.3,0-14.5,1.4-17.5,10.5l-1.2,3.8l-4.9-0.1c-4.6-0.8-4.6-4.8-4.6-8.6c0-1.8,0-3.8,0-4.9l0-0.8l0-167.4
					c0-3.9,0-7.9,0-11.8l0-0.7c0-11.8-0.1-28,14.6-35.1c4.4-2.1,9.3-3.2,14.7-3.2c5.3,0,10.8,1.1,15.9,3.1c4.3,1.7,7.7,4.2,10.1,7.6
					c2.8-3.4,6.5-6.1,10.8-7.6c4.5-1.6,9.3-2.5,14.1-2.5c8.1,0,15.6,2.5,21.1,7c5.4,4.4,8.8,11,9.4,18.1c0.6,6.3,0.4,12.7,0.3,18.9
					c-0.1,2.7-0.1,5.4-0.1,8v183.3l-10.9,0.2c-0.5-16.5-17-17.3-20.4-17.3c-3.6,0-7.1,0.6-10.1,1.9c-7.1,2.8-8.7,8.4-9,11.4
					L154.4,361.3z M122.9,330.4c5.5,0,11,1.1,16.1,3.1c4.3,1.7,7.9,4.3,10.5,7.6c2.7-3.3,6.3-5.9,10.6-7.6c4.4-1.7,9.3-2.6,14.2-2.6
					c8.6,0,15.4,2.4,20.4,6.1V175.6c0-2.7,0.1-5.5,0.1-8.2c0.1-5.9,0.3-12-0.2-17.7c-0.4-4.2-2.4-8.1-5.5-10.7
					c-3.5-2.9-8.5-4.5-14.1-4.5c-3.5,0-7.1,0.6-10.3,1.8c-7.1,2.6-9.6,9.3-9.6,14.7h-10.9c0-8.2-2.4-12.5-8.1-14.8
					c-3.8-1.5-7.9-2.3-11.8-2.3c-3.7,0-7.1,0.7-9.9,2.1c-7.9,3.8-8.4,12.8-8.4,25.2l0,0.7c0,3.9,0,7.9,0,11.8l0,5.9v155.2
					C110.3,332,116.2,330.4,122.9,330.4z"/>
			</g>
			<g>
				<rect x="143.9" y="151" fill="#3A3033" width="10.9" height="203.8"/>
			</g>
		</g>
	</g>
	<g>
		<g>
			<g>
				<path fill="#9D705C" d="M319.2,209.3c0,0,24.9-42,1.3-84C295.7,167.3,319.2,209.3,319.2,209.3z"/>
			</g>
			<g>
				<path fill="#9D705C" d="M317.9,293.3c0,0,24.9-42,1.3-84C294.3,251.3,317.9,293.3,317.9,293.3z"/>
			</g>
			<g>
				<path fill="#9D705C" d="M319.2,209.3c0,0,43.5,23.2,87.7,0C363.5,186,319.2,209.3,319.2,209.3z"/>
			</g>
			<g>
				<path fill="#9D705C" d="M231.6,209.3c0,0,43.5,23.2,87.7,0C275.8,186,231.6,209.3,231.6,209.3z"/>
			</g>
			<g>
				<path fill="#9D705C" d="M319.2,209.3c0,0,48.4-13.3,62.9-59.4C333.8,163.1,319.2,209.3,319.2,209.3z"/>
			</g>
			<g>
				<path fill="#9D705C" d="M256.3,268.7c0,0,48.4-13.3,62.9-59.4C270.9,222.5,256.3,268.7,256.3,268.7z"/>
			</g>
			<g>
				<path fill="#9D705C" d="M319.2,209.3c0,0,13.1,46.1,61.1,59.4C367.2,222.5,319.2,209.3,319.2,209.3z"/>
			</g>
			<g>
				<path fill="#9D705C" d="M258.2,149.9c0,0,13.1,46.1,61.1,59.4C306.1,163.1,258.2,149.9,258.2,149.9z"/>
			</g>
		</g>
		<g>
			<g>
				<path fill="#3A3033" d="M319.1,220.2l-4.6-8.3c-1-1.8-24.8-45.3,1.4-89.5l4.8-8.2l4.6,8.3c24.8,44.3-0.3,87.7-1.4,89.5
					L319.1,220.2z M320.4,137.8c-9.5,23-5.2,45-1,57.8C324.1,182.8,329.1,160.7,320.4,137.8z"/>
			</g>
			<g>
				<path fill="#3A3033" d="M317.8,304.2l-4.6-8.3c-1-1.8-24.8-45.3,1.4-89.5l4.8-8.2l4.6,8.3c24.8,44.3-0.3,87.7-1.4,89.5
					L317.8,304.2z M319.1,221.8c-9.5,23-5.2,45-1,57.8C322.7,266.9,327.8,244.8,319.1,221.8z"/>
			</g>
			<g>
				<path fill="#3A3033" d="M364.6,225.1C364.5,225.1,364.5,225.1,364.6,225.1c-27,0-47-10.5-47.9-11l-9.1-4.9l9.1-4.8
					c0.9-0.4,21.2-11,48.2-11c16,0,31,3.7,44.6,11l9.1,4.9l-9.1,4.8C395.6,221.4,380.5,225.1,364.6,225.1z M334.1,209.3
					c7.6,2.4,18.3,4.8,30.4,4.8c0,0,0,0,0,0c10.1,0,19.7-1.6,28.8-4.9c-9-3.2-18.5-4.8-28.5-4.8
					C352.7,204.4,341.8,206.9,334.1,209.3z"/>
			</g>
			<g>
				<path fill="#3A3033" d="M276.9,225.1C276.9,225.1,276.9,225.1,276.9,225.1c-27,0-47-10.5-47.9-11l-9.1-4.9l9.1-4.8
					c0.9-0.4,21.2-11,48.2-11c16,0,31,3.7,44.6,11l9.1,4.9l-9.1,4.8C308,221.4,292.8,225.1,276.9,225.1z M246.4,209.3
					c7.6,2.4,18.3,4.8,30.5,4.8c0,0,0,0,0,0c10.1,0,19.7-1.6,28.8-4.9c-9-3.2-18.5-4.8-28.5-4.8
					C264.9,204.4,254.1,206.9,246.4,209.3z"/>
			</g>
			<g>
				<path fill="#3A3033" d="M311,217.2l3-9.6c0.6-2,16.1-49.1,66.7-63l9.7-2.7l-3,9.6c-15.3,48.4-64.6,62.5-66.7,63L311,217.2z
					 M372.6,159c-23.1,10-36.3,28.2-42.8,40.2C342.4,193.2,361.8,180.9,372.6,159z"/>
			</g>
			<g>
				<path fill="#3A3033" d="M248.1,276.6l3-9.6c0.6-2,16.1-49.1,66.7-63l9.7-2.7l-3,9.6c-15.3,48.4-64.6,62.5-66.7,63L248.1,276.6z
					 M309.7,218.4c-23.2,10-36.4,28.3-42.9,40.3C279.4,252.6,298.8,240.4,309.7,218.4z"/>
			</g>
			<g>
				<path fill="#3A3033" d="M388.2,276.5l-9.4-2.6c-50.3-13.9-64.3-61.2-64.9-63.2l-2.7-9.4l9.4,2.6c2.1,0.6,51.1,14.7,64.9,63.2
					L388.2,276.5z M329.3,219.2c6.1,12,18.8,30.5,41.9,40.5C361,237.5,341.7,225.1,329.3,219.2z"/>
			</g>
			<g>
				<path fill="#3A3033" d="M327.2,217.1l-9.4-2.6c-50.3-13.9-64.3-61.2-64.9-63.2l-2.7-9.4l9.4,2.6c2.1,0.6,51.1,14.7,64.9,63.2
					L327.2,217.1z M268.3,159.8c6.1,12,18.8,30.5,41.9,40.5C299.9,178.1,280.6,165.7,268.3,159.8z"/>
			</g>
		</g>
	</g>
	<g>
		<g>
			<g>
				
					<ellipse transform="matrix(0.687 0.7266 -0.7266 0.687 352.0235 -107.5746)" fill="#CD9E5D" cx="300.9" cy="354.9" rx="26.1" ry="37.2"/>
			</g>
			<g>
				<path fill="#CD9E5D" d="M327.9,329.3c0,0-27.2-3-28,26.5c-0.8,29.5-27,23.5-27,23.5"/>
			</g>
		</g>
		<g>
			<g>
				<path fill="#3A3033" d="M289.8,392.1c-8.1,0-15-2.8-19.9-8c-6-6.4-8.2-15.5-6.1-25.7c1.9-9.5,7.4-18.9,15.5-26.5
					c9.7-9.1,21.6-14.4,32.7-14.4c8.1,0,15,2.8,19.9,8c11.9,12.6,7.8,36.1-9.3,52.2C312.9,386.9,301,392.1,289.8,392.1z M312,328.5
					c-8.3,0-17.7,4.3-25.2,11.4c-6.4,6.1-10.8,13.4-12.3,20.7c-1.4,6.6-0.2,12.3,3.4,16c3.5,3.8,8.5,4.5,12,4.5
					c8.3,0,17.7-4.3,25.2-11.4c12.5-11.8,16.6-28.6,8.9-36.7C320.4,329.3,315.5,328.5,312,328.5z"/>
			</g>
			<g>
				<path fill="#3A3033" d="M278.2,385.3c-3.7,0-6.2-0.6-6.5-0.6l2.4-10.7c0.1,0,8.6,1.8,14.3-2.7c3.8-2.9,5.8-8.2,6-15.6
					c0.3-10.7,3.7-18.9,10.1-24.5c10-8.7,23.4-7.3,24-7.2l-1.2,10.9c-0.1,0-9.4-0.9-15.7,4.7c-4,3.5-6.1,9.1-6.3,16.5
					c-0.3,10.9-3.7,19-10.2,24C289.5,384.3,282.9,385.3,278.2,385.3z"/>
			</g>
		</g>
	</g>
</g>
</svg>
