<?xml version="1.0" encoding="UTF-8"?>
<svg width="326px" height="330px" viewBox="0 0 326 330" version="1.1" xmlns="http://www.w3.org/2000/svg" xmlns:xlink="http://www.w3.org/1999/xlink">
    <!-- Generator: Sketch 49.3 (51167) - http://www.bohemiancoding.com/sketch -->
    <title>clover</title>
    <desc>Created with Sketch.</desc>
    <defs></defs>
    <g id="Page-1" stroke="none" stroke-width="1" fill="none" fill-rule="evenodd">
        <g id="clover" fill-rule="nonzero">
            <rect id="Rectangle-path" fill="#FFFFFF" x="33.6" y="101.7" width="261" height="156.6"></rect>
            <rect id="Rectangle-path" fill="#FFFFFF" x="136.1" y="118.6" width="51.4" height="18.5"></rect>
            <rect id="Rectangle-path" fill="#FFFFFF" x="123.7" y="137.1" width="74.9" height="29.3"></rect>
            <rect id="Rectangle-path" fill="#FFFFFF" x="102.5" y="101.7" width="117.8" height="16.9"></rect>
            <rect id="Rectangle-path" fill="#FFFFFF" x="249.3" y="101.7" width="15.8" height="21.5"></rect>
            <rect id="Rectangle-path" fill="#9D705C" x="51" y="141.3" width="72.7" height="18.1"></rect>
            <rect id="Rectangle-path" fill="#9D705C" x="6.3" y="304.4" width="31.3" height="19.2"></rect>
            <rect id="Rectangle-path" fill="#9D705C" x="288.4" y="304.4" width="31.3" height="19.2"></rect>
            <rect id="Rectangle-path" fill="#9D705C" x="144.1" y="304.4" width="31.3" height="19.2"></rect>
            <path d="M304.7,101.7 L21.3,101.7 C13,101.7 6.3,95 6.3,86.7 L6.3,21.4 C6.3,13.1 13,6.4 21.3,6.4 L304.8,6.4 C313.1,6.4 319.8,13.1 319.8,21.4 L319.8,86.7 C319.7,95 313,101.7 304.7,101.7 Z" id="Shape" fill="#9D705C"></path>
            <path d="M62.8,79.2 C48.9,79.2 37.6,67.9 37.6,54 C37.6,40.1 48.9,28.8 62.8,28.8 C76.7,28.8 88,40.1 88,54 C87.9,68 76.7,79.2 62.8,79.2 Z" id="Shape" fill="#CDCCCC"></path>
            <g id="Group" transform="translate(133.000000, 28.000000)" fill="#CD9E5D">
                <rect id="Rectangle-path" x="0.1" y="0.9" width="54.4" height="32"></rect>
                <path d="M0.1,51.2 L13,51.2" id="Shape"></path>
                <path d="M20.3,51.2 L33.2,51.2" id="Shape"></path>
                <path d="M40.6,51.2 L53.4,51.2" id="Shape"></path>
            </g>
            <path d="M6.3,304.4 L6.3,285.6 C6.3,270.5 18.5,258.3 33.6,258.3 L292.5,258.3 C307.6,258.3 319.8,270.5 319.8,285.6 L319.8,304.4 L6.3,304.4 Z" id="Shape" fill="#9D705C"></path>
            <path d="M292.4,107.1 L33.6,107.1 C15.5,107.1 0.8,92.4 0.8,74.3 L0.8,33.6 C0.8,15.5 15.5,0.8 33.6,0.8 L292.5,0.8 C310.6,0.8 325.3,15.5 325.3,33.6 L325.3,74.3 C325.2,92.5 310.5,107.1 292.4,107.1 Z M33.6,11.9 C21.6,11.9 11.8,21.7 11.8,33.7 L11.8,74.4 C11.8,86.4 21.6,96.2 33.6,96.2 L292.5,96.2 C304.5,96.2 314.3,86.4 314.3,74.4 L314.3,33.7 C314.3,21.7 304.5,11.9 292.5,11.9 L33.6,11.9 Z" id="Shape" fill="#3A3033"></path>
            <path d="M319.7,309.8 L6.3,309.8 L0.8,304.3 L0.8,285.5 C0.8,267.4 15.5,252.7 33.6,252.7 L292.5,252.7 C310.6,252.7 325.3,267.4 325.3,285.5 L325.3,304.3 L319.7,309.8 Z M11.8,298.9 L314.3,298.9 L314.3,285.6 C314.3,273.6 304.5,263.8 292.5,263.8 L33.6,263.8 C21.6,263.8 11.8,273.6 11.8,285.6 L11.8,298.9 Z" id="Shape" fill="#3A3033"></path>
            <path d="M294.6,263.8 L33.6,263.8 L28.1,258.3 L28.1,101.7 L33.6,96.2 L294.6,96.2 L300.1,101.7 L300.1,258.3 L294.6,263.8 Z M39,252.8 L289.1,252.8 L289.1,107.1 L39,107.1 L39,252.8 Z" id="Shape" fill="#3A3033"></path>
            <path d="M62.8,84.7 C45.9,84.7 32.1,70.9 32.1,54 C32.1,37.1 45.9,23.3 62.8,23.3 C79.7,23.3 93.5,37.1 93.5,54 C93.5,70.9 79.7,84.7 62.8,84.7 Z M62.8,34.3 C51.9,34.3 43.1,43.1 43.1,54 C43.1,64.9 51.9,73.7 62.8,73.7 C73.7,73.7 82.5,64.9 82.5,54 C82.5,43.2 73.6,34.3 62.8,34.3 Z" id="Shape" fill="#3A3033"></path>
            <path d="M223.1,56.4 C215.5,56.4 209.2,50.2 209.2,42.5 C209.2,34.9 215.4,28.6 223.1,28.6 C230.7,28.6 237,34.8 237,42.5 C237,50.1 230.8,56.4 223.1,56.4 Z M223.1,39.6 C221.5,39.6 220.2,40.9 220.2,42.5 C220.2,44.1 221.5,45.4 223.1,45.4 C224.7,45.4 226,44.1 226,42.5 C226.1,40.9 224.8,39.6 223.1,39.6 Z" id="Shape" fill="#3A3033"></path>
            <path d="M253.8,56.4 C246.2,56.4 239.9,50.2 239.9,42.5 C239.9,34.9 246.1,28.6 253.8,28.6 C261.4,28.6 267.7,34.8 267.7,42.5 C267.7,50.1 261.5,56.4 253.8,56.4 Z M253.8,39.6 C252.2,39.6 250.9,40.9 250.9,42.5 C250.9,44.1 252.2,45.4 253.8,45.4 C255.4,45.4 256.7,44.1 256.7,42.5 C256.7,40.9 255.4,39.6 253.8,39.6 Z" id="Shape" fill="#3A3033"></path>
            <path d="M284.5,56.4 C276.9,56.4 270.6,50.2 270.6,42.5 C270.6,34.9 276.8,28.6 284.5,28.6 C292.1,28.6 298.4,34.8 298.4,42.5 C298.3,50.1 292.1,56.4 284.5,56.4 Z M284.5,39.6 C282.9,39.6 281.6,40.9 281.6,42.5 C281.6,44.1 282.9,45.4 284.5,45.4 C286.1,45.4 287.4,44.1 287.4,42.5 C287.4,40.9 286.1,39.6 284.5,39.6 Z" id="Shape" fill="#3A3033"></path>
            <g id="Group" transform="translate(127.000000, 23.000000)" fill="#3A3033">
                <path d="M66,43.3 L0.7,43.3 L0.7,0.4 L66,0.4 L66,43.3 Z M11.6,32.4 L55.1,32.4 L55.1,11.3 L11.6,11.3 L11.6,32.4 Z" id="Shape"></path>
                <rect id="Rectangle-path" x="6.1" y="50.8" width="12.9" height="10.9"></rect>
                <rect id="Rectangle-path" x="26.3" y="50.8" width="12.9" height="10.9"></rect>
                <rect id="Rectangle-path" x="46.6" y="50.8" width="12.9" height="10.9"></rect>
            </g>
            <path d="M173.6,263.8 L144.1,263.8 L141.7,263.2 C113.7,249.5 111.8,217.2 111.7,215.8 L117.2,210.1 L200.6,210.1 L206.1,215.8 C206,217.2 204.1,249.5 176.1,263.2 L173.6,263.8 Z M145.4,252.8 L172.2,252.8 C187.2,244.8 192.4,229.4 194.1,221 L123.4,221 C125.2,229.4 130.4,244.9 145.4,252.8 Z" id="Shape" fill="#3A3033"></path>
            <path d="M210,248.1 L192.5,248.1 L192.5,237.2 L210,237.2 C213.4,237.2 216.4,235.1 217.6,231.9 C218.5,229.4 218.2,226.7 216.6,224.5 C215.1,222.3 212.7,221.1 210,221.1 L200.5,221.1 L200.5,210 L210,210 C216.2,210 222,213 225.6,218.1 C229.2,223.2 230,229.7 227.9,235.5 C225.2,243.1 218,248.1 210,248.1 Z" id="Shape" fill="#3A3033"></path>
            <path d="M187.6,142.5 L136.2,142.5 L130.7,137 L130.7,118.5 L136.2,113 L187.6,113 L193.1,118.5 L193.1,137 L187.6,142.5 Z M141.6,131.6 L182.1,131.6 L182.1,124.1 L141.6,124.1 L141.6,131.6 Z" id="Shape" fill="#3A3033"></path>
            <path d="M198.6,171.8 L123.7,171.8 L118.2,166.3 L118.2,137 L123.7,131.5 L198.6,131.5 L204.1,137 L204.1,166.3 L198.6,171.8 Z M129.2,160.9 L193.2,160.9 L193.2,142.5 L129.2,142.5 L129.2,160.9 Z" id="Shape" fill="#3A3033"></path>
            <path d="M123.7,164.9 L51,164.9 L45.5,159.4 L45.5,141.3 L51,135.8 L123.7,135.8 L129.2,141.3 L129.2,159.4 L123.7,164.9 Z M56.5,154 L118.2,154 L118.2,146.8 L56.5,146.8 L56.5,154 Z" id="Shape" fill="#3A3033"></path>
            <path d="M220.3,124.1 L102.5,124.1 L97,118.6 L97,101.7 L102.5,96.2 L220.3,96.2 L225.8,101.7 L225.8,118.6 L220.3,124.1 Z M107.9,113.1 L214.8,113.1 L214.8,107.1 L107.9,107.1 L107.9,113.1 Z" id="Shape" fill="#3A3033"></path>
            <path d="M265.1,128.6 L249.3,128.6 L243.8,123.1 L243.8,101.6 L249.3,96.1 L265.1,96.1 L270.6,101.6 L270.6,123.1 L265.1,128.6 Z M254.8,117.7 L259.6,117.7 L259.6,107.2 L254.8,107.2 L254.8,117.7 Z" id="Shape" fill="#3A3033"></path>
            <rect id="Rectangle-path" fill="#3A3033" x="251.7" y="123.1" width="10.9" height="46.7"></rect>
            <path d="M37.6,329.1 L6.3,329.1 L0.8,323.6 L0.8,304.4 L6.3,298.9 L37.6,298.9 L43.1,304.4 L43.1,323.6 L37.6,329.1 Z M11.8,318.1 L32.1,318.1 L32.1,309.8 L11.8,309.8 L11.8,318.1 Z" id="Shape" fill="#3A3033"></path>
            <path d="M319.7,329.1 L288.4,329.1 L282.9,323.6 L282.9,304.4 L288.4,298.9 L319.7,298.9 L325.2,304.4 L325.2,323.6 L319.7,329.1 Z M293.9,318.1 L314.2,318.1 L314.2,309.8 L293.9,309.8 L293.9,318.1 Z" id="Shape" fill="#3A3033"></path>
            <path d="M175.4,329.1 L144.1,329.1 L138.6,323.6 L138.6,304.4 L144.1,298.9 L175.4,298.9 L180.9,304.4 L180.9,323.6 L175.4,329.1 Z M149.6,318.1 L170,318.1 L170,309.8 L149.7,309.8 L149.7,318.1 L149.6,318.1 Z" id="Shape" fill="#3A3033"></path>
        </g>
    </g>
</svg>