<?xml version="1.0" encoding="utf-8"?>
<!-- Generator: Adobe Illustrator 18.0.0, SVG Export Plug-In . SVG Version: 6.00 Build 0)  -->
<!DOCTYPE svg PUBLIC "-//W3C//DTD SVG 1.1//EN" "http://www.w3.org/Graphics/SVG/1.1/DTD/svg11.dtd">
<svg version="1.1" id="Layer_1" xmlns="http://www.w3.org/2000/svg" xmlns:xlink="http://www.w3.org/1999/xlink" x="0px" y="0px"
	 width="512px" height="512px" viewBox="0 0 512 512" enable-background="new 0 0 512 512" xml:space="preserve">
<g>
	<g>
		<g>
			<circle fill="#FFFFFF" cx="180.3" cy="287.9" r="126.4"/>
		</g>
		<g>
			<circle fill="#95BDA6" cx="180.3" cy="287.9" r="70.9"/>
		</g>
		<g>
			<path fill="#3A3033" d="M180.3,419.8c-72.7,0-131.9-59.2-131.9-131.9S107.5,156,180.3,156s131.9,59.2,131.9,131.9
				S253,419.8,180.3,419.8z M180.3,166.9c-66.7,0-121,54.3-121,121s54.3,121,121,121c66.7,0,121-54.3,121-121S247,166.9,180.3,166.9
				z"/>
		</g>
		<g>
			<path fill="#3A3033" d="M180.3,382.7c-52.3,0-94.9-42.6-94.9-94.9S128,193,180.3,193s94.9,42.6,94.9,94.9
				S232.6,382.7,180.3,382.7z M180.3,204c-46.3,0-83.9,37.6-83.9,83.9s37.6,83.9,83.9,83.9s83.9-37.6,83.9-83.9S226.5,204,180.3,204
				z"/>
		</g>
		<g>
			<path fill="#3A3033" d="M180.3,364.2c-42.1,0-76.4-34.3-76.4-76.4c0-42.1,34.3-76.4,76.4-76.4c42.1,0,76.4,34.3,76.4,76.4
				C256.6,330,222.4,364.2,180.3,364.2z M180.3,222.5c-36.1,0-65.4,29.3-65.4,65.4c0,36.1,29.3,65.4,65.4,65.4
				c36.1,0,65.4-29.3,65.4-65.4C245.7,251.8,216.3,222.5,180.3,222.5z"/>
		</g>
	</g>
	<g>
		<g>
			<path fill="#FFFFFF" d="M458.2,287.9c0,69.8-56.6,126.4-126.4,126.4c-28.4,0-54.6-9.4-75.7-25.2c8-6,15.3-13,21.7-20.7
				c3.4-4.1,6.6-8.5,9.5-13.1c12.4-19.5,19.5-42.7,19.5-67.5c0-24.8-7.2-48-19.5-67.5c-2.9-4.6-6.1-8.9-9.5-13.1
				c-6.4-7.7-13.7-14.6-21.7-20.7c11.6-8.7,24.7-15.4,38.9-19.7v-34.7c0-19,15.4-34.5,34.5-34.5h4.8c19,0,34.5,15.4,34.5,34.5v34.7
				C420.4,182.7,458.2,230.9,458.2,287.9z"/>
		</g>
	</g>
	<g>
		<g>
			<path fill="#3A3033" d="M331.7,419.8c-28.7,0-56.1-9.1-79-26.3l-5.8-4.4l5.8-4.4c7.7-5.8,14.7-12.4,20.8-19.8
				c3.3-4,6.3-8.2,9-12.5c12.2-19.3,18.7-41.6,18.7-64.6c0-23-6.5-45.3-18.7-64.6c-2.8-4.3-5.8-8.6-9.1-12.5
				c-6.1-7.3-13.1-14-20.8-19.8l-5.8-4.4l5.8-4.4c11.2-8.4,23.5-14.9,36.7-19.3v-30.7c0-22,17.9-39.9,39.9-39.9h4.8
				c22,0,39.9,17.9,39.9,39.9v30.7c24.9,8.5,47.2,24.6,63.1,45.7c17.3,23,26.4,50.4,26.4,79.2C463.6,360.6,404.5,419.8,331.7,419.8z
				 M265.1,388.9c19.8,13.1,42.7,20,66.6,20c66.7,0,121-54.3,121-121c0-53.6-34.4-100.1-85.7-115.7l-3.9-1.2v-38.8c0-16-13-29-29-29
				h-4.8c-16,0-29,13-29,29V171l-3.9,1.2c-11.2,3.4-21.7,8.3-31.4,14.8c6.1,5.1,11.7,10.8,16.8,16.9c3.6,4.3,6.9,8.9,9.9,13.6
				c13.3,21,20.4,45.4,20.4,70.4c0,25-7,49.4-20.4,70.4c-2.9,4.7-6.3,9.3-9.9,13.6C276.8,378.1,271.2,383.7,265.1,388.9z"/>
		</g>
	</g>
	<g>
		<path fill="#3A3033" d="M332.8,382.7c-19,0-37.4-5.6-53.1-16.3l-4.7-3.2l3.3-4.6c3.5-4.8,6.6-9.9,9.3-15.1
			c8.9-17.1,13.6-36.4,13.6-55.8c0-19.4-4.7-38.7-13.6-55.8c-2.7-5.1-5.8-10.2-9.3-15.1l-3.3-4.6l4.7-3.2
			c15.7-10.6,34.1-16.3,53.1-16.3c52.3,0,94.8,42.5,94.8,94.8C427.6,340.2,385.1,382.7,332.8,382.7z M290.5,360.4
			c12.8,7.5,27.3,11.4,42.3,11.4c46.3,0,83.9-37.6,83.9-83.9c0-46.3-37.6-83.9-83.9-83.9c-15,0-29.5,3.9-42.3,11.4
			c2.5,3.8,4.8,7.7,6.8,11.7c9.7,18.6,14.8,39.7,14.8,60.8c0,21.2-5.1,42.2-14.9,60.8C295.3,352.7,293,356.6,290.5,360.4z"/>
	</g>
	<g>
		<path fill="#95BDA6" d="M403.7,287.9c0,39.2-31.8,70.9-70.9,70.9c-15,0-28.9-4.6-40.3-12.6c9.1-17.4,14.2-37.3,14.2-58.3
			c0-21-5.1-40.9-14.2-58.3c11.4-7.9,25.3-12.6,40.3-12.6C371.9,217,403.7,248.7,403.7,287.9z"/>
	</g>
	<g>
		<path fill="#3A3033" d="M332.8,364.2c-15.6,0-30.6-4.7-43.4-13.6l-4-2.7l2.2-4.3c8.9-17.1,13.6-36.4,13.6-55.8
			c0-19.4-4.7-38.7-13.6-55.8l-2.2-4.3l4-2.7c12.8-8.9,27.8-13.6,43.4-13.6c42.1,0,76.4,34.3,76.4,76.4
			C409.1,330,374.9,364.2,332.8,364.2z M299.5,344.2c10,5.9,21.4,9.1,33.2,9.1c36.1,0,65.4-29.3,65.4-65.4
			c0-36.1-29.3-65.4-65.4-65.4c-11.8,0-23.2,3.1-33.2,9.1c8.3,17.5,12.6,36.9,12.6,56.4S307.8,326.7,299.5,344.2z"/>
	</g>
</g>
</svg>
