<?xml version="1.0" encoding="utf-8"?>
<!-- Generator: Adobe Illustrator 18.0.0, SVG Export Plug-In . SVG Version: 6.00 Build 0)  -->
<!DOCTYPE svg PUBLIC "-//W3C//DTD SVG 1.1//EN" "http://www.w3.org/Graphics/SVG/1.1/DTD/svg11.dtd">
<svg version="1.1" id="Layer_1" xmlns="http://www.w3.org/2000/svg" xmlns:xlink="http://www.w3.org/1999/xlink" x="0px" y="0px"
	 width="512px" height="512px" viewBox="0 0 512 512" enable-background="new 0 0 512 512" xml:space="preserve">
<g>
	<g>
		<path fill="#FFFFFF" d="M147.2,179.5c0,0-9-19.8,27.8-31.9c36.8-12.1,77.3-25.8,69.9-58.2c0,0,124.7,42.3,115.4,89.5L147.2,179.5z
			"/>
	</g>
	<g>
		<path fill="#FFFFFF" d="M279.7,286.3l103.9-106.8H256H128.4l103.9,106.8c8.9,9.2,14,21.5,14,34.4v51.9c0,14.2-7.8,27.3-20.3,34
			l-35.1,18.9H256h65.2l-35.1-18.9c-12.5-6.7-20.3-19.8-20.3-34v-51.9C265.8,307.9,270.8,295.5,279.7,286.3z"/>
	</g>
	<g>
		<g>
			<path fill="#CD9E5D" d="M238.6,292.9c9.5,9.8,25.3,9.8,34.9,0l64.3-66.2H174.3L238.6,292.9z"/>
		</g>
		<g>
			<polygon fill="#95BDA6" points="128.4,179.5 174.3,226.7 337.7,226.7 383.6,179.5 			"/>
		</g>
	</g>
	<g>
		<path fill="#3A3033" d="M342.9,430.9H169.1l54.2-29.1c10.8-5.8,17.5-17,17.5-29.2v-51.9c0-11.5-4.4-22.3-12.4-30.6L115.5,174h281
			L283.6,290.1c-8,8.2-12.4,19.1-12.4,30.6v51.9c0,12.2,6.7,23.4,17.5,29.2L342.9,430.9z M212.5,420h86.9l-15.9-8.6
			c-14.3-7.7-23.2-22.6-23.2-38.9v-51.9c0-14.3,5.5-27.9,15.5-38.2l94.8-97.6H141.4l94.8,97.6c10,10.3,15.5,23.8,15.5,38.2v51.9
			c0,16.3-8.9,31.2-23.2,38.9L212.5,420z"/>
	</g>
	<g>
		<path fill="#3A3033" d="M143.7,185l-1.5-3.2c-0.4-0.8-3.4-8,0.5-17c4.2-9.5,14.5-17.1,30.6-22.3c41.2-13.5,72.2-25.9,66.3-51.8
			l-2.2-9.5l9.3,3.1c1.3,0.4,32,10.9,62.1,27.4c42.2,23.2,61.3,46.1,56.9,68.4l-0.9,4.4L143.7,185z M251.3,97.5
			c-0.4,30.9-41.2,44.3-74.6,55.3c-16.2,5.3-22,11.8-24,16.4c-0.8,1.8-1.1,3.5-1.1,4.9l203.6-0.5c-0.3-19.7-27.8-39.1-51.8-52.2
			C283.3,110.2,262.5,101.7,251.3,97.5z"/>
	</g>
	<g>
		<path fill="#3A3033" d="M222.3,167l-3.7-10.3c18.3-6.6,29.2-15.7,32.4-27.2c4.9-17.9-10.1-36.4-10.2-36.6l8.4-7
			c0.8,0.9,18.8,23.1,12.4,46.4C257.4,147.5,244.2,159.1,222.3,167z"/>
	</g>
	<g>
		<path fill="#3A3033" d="M296.8,163.5l-10.9-0.7c3.9-58.2-38.9-65.2-40.7-65.5l1.6-10.8C247.3,86.6,301.3,95.4,296.8,163.5z"/>
	</g>
</g>
</svg>
