<?xml version="1.0" encoding="utf-8"?>
<!-- Generator: Adobe Illustrator 18.0.0, SVG Export Plug-In . SVG Version: 6.00 Build 0)  -->
<!DOCTYPE svg PUBLIC "-//W3C//DTD SVG 1.1//EN" "http://www.w3.org/Graphics/SVG/1.1/DTD/svg11.dtd">
<svg version="1.1" id="Layer_1" xmlns="http://www.w3.org/2000/svg" xmlns:xlink="http://www.w3.org/1999/xlink" x="0px" y="0px"
	 width="512px" height="512px" viewBox="0 0 512 512" enable-background="new 0 0 512 512" xml:space="preserve">
<g>
	<g>
		<path fill="#FFFFFF" d="M265.3,361.1l53.6-159.2V159H244l0,0h-74.9v42.9l53.6,159.2c2.4,5.2,3.6,10.9,3.6,16.6l0,0
			c0,36.5-44.8,50.2-44.8,50.2v10.7H244l0,0h62.5V428c0,0-44.8-13.7-44.8-50.2l0,0C261.8,372,263,366.4,265.3,361.1z"/>
	</g>
	<g>
		<path fill="#FFFFFF" d="M179.3,159c0,0-1.3-12.9,17.6-19.6c18.9-6.8,20.6-10.2,25.8-21.1c4-8.4,18.7-20.8,18.7-20.8
			s13.1,4.9,21,17.4c8.4,13.4,8.4,13.4,23.3,19.1s19.3,16.1,21.4,25H179.3z"/>
	</g>
	<g>
		<rect x="169.1" y="159" fill="#FFFFFF" width="149.8" height="24.5"/>
	</g>
	<g>
		<path fill="#CD9E5D" d="M318.9,183.5v18.5l-53.6,159.2c-2.4,5.2-3.6,10.9-3.6,16.6c0,1.7,0.1,3.4,0.3,5h-36c0.2-1.6,0.3-3.3,0.3-5
			c0-5.7-1.2-11.4-3.6-16.6l-53.6-159.2v-18.5H318.9z"/>
	</g>
	<g>
		<path fill="#3A3033" d="M312,444.2H176.1v-20.2l3.9-1.2c0.1,0,10.7-3.4,21-10.8c13.2-9.5,19.9-21,19.9-34.2c0-5-1-9.8-3.1-14.3
			l-0.2-0.5l-53.9-160.1v-49.3h160.8v49.3l-54.1,160.6c-2,4.5-3.1,9.4-3.1,14.3c0,13.2,6.7,24.7,19.9,34.2
			c10.3,7.5,20.9,10.8,21,10.8l3.9,1.2L312,444.2z M187,433.2h114v-1.4c-4.5-1.8-12.3-5.2-20.1-10.8c-16.1-11.5-24.7-26.5-24.7-43.3
			c0-6.4,1.3-12.7,3.9-18.6l53.2-158.1v-36.6H174.6v36.6l53.2,158.1c2.6,5.9,3.9,12.1,3.9,18.6c0,16.8-8.5,31.7-24.7,43.3
			c-7.8,5.6-15.6,9.1-20.1,10.8V433.2z"/>
	</g>
	<g>
		<path fill="#3A3033" d="M244,384.8c-17.6,0-25.1-14.8-26.7-22.6l10.7-2.1l-5.4,1.1l5.4-1.1c0.3,1.4,3.2,13.8,15.9,13.8
			c13.1,0,15.8-13.2,15.9-13.8l10.7,2.1C269.2,370,261.6,384.8,244,384.8z"/>
	</g>
	<g>
		<path fill="#3A3033" d="M314.1,164.5H174.4l-0.5-4.9c-0.1-0.7-1.4-17.2,21.2-25.3c16.9-6,17.9-8.1,22.7-18.3
			c4.4-9.2,18.5-21.3,20.1-22.6l2.4-2.1l3,1.1c0.6,0.2,14.9,5.7,23.7,19.6c7.5,11.8,7.5,11.8,20.7,16.9
			c17.6,6.8,22.6,19.7,24.8,28.8L314.1,164.5z M186.3,153.5h113.4c-2.5-5.7-6.8-11-15.9-14.4c-16-6.1-16.9-6.9-26-21.3
			c-4.7-7.5-11.6-11.9-15.4-13.9c-4.8,4.3-12.3,11.8-14.7,16.7c-5.9,12.4-8.7,16.6-28.9,23.8C191.5,147.1,188,150.7,186.3,153.5z"/>
	</g>
	<g>
		
			<rect x="228.5" y="95.1" transform="matrix(0.3477 0.9376 -0.9376 0.3477 270.2709 -137.5561)" fill="#3A3033" width="10.9" height="60.7"/>
	</g>
	<g>
		
			<rect x="247.1" y="108.1" transform="matrix(0.2917 0.9565 -0.9565 0.2917 320.0143 -137.1393)" fill="#3A3033" width="10.9" height="78.8"/>
	</g>
	<g>
		<polygon fill="#3A3033" points="282.8,133.6 273.3,128.3 296.7,86 344.5,67.8 348.3,78.1 304.4,94.8 		"/>
	</g>
</g>
</svg>
