<?xml version="1.0" encoding="UTF-8"?>
<svg width="286px" height="406px" viewBox="0 0 286 406" version="1.1" xmlns="http://www.w3.org/2000/svg" xmlns:xlink="http://www.w3.org/1999/xlink">
    <!-- Generator: Sketch 51 (57462) - http://www.bohemiancoding.com/sketch -->
    <title>coffee is love</title>
    <desc>Created with Sketch.</desc>
    <defs></defs>
    <g id="Page-1" stroke="none" stroke-width="1" fill="none" fill-rule="evenodd">
        <g id="coffee-is-love" fill-rule="nonzero">
            <rect id="Rectangle-path" fill="#FFFFFF" x="29.3" y="167.7" width="187" height="232.8"></rect>
            <path d="M244.4,356.4 C236.6,356.4 228.8,354.2 222.6,350.1 L216.4,346.1 L216.4,325.7 L233.5,336.8 C236.7,338.8 240.5,339.9 244.4,339.9 C254,339.9 261.9,333.6 261.9,325.8 L261.9,239 C261.9,231.3 254.1,224.9 244.4,224.9 C240.4,224.9 236.6,226 233.5,228 L216.4,239.1 L216.4,218.7 L222.7,214.6 C228.9,210.6 236.7,208.4 244.5,208.4 C264.4,208.4 280.5,222.1 280.5,239 L280.5,325.8 C280.5,342.7 264.3,356.4 244.4,356.4 Z" id="Shape" fill="#FFFFFF"></path>
            <path d="M176.7,264.7 C176.7,250.7 165.4,239.4 151.4,239.4 C137.4,239.4 126.1,250.7 126.1,264.7 C126.1,250.7 114.8,239.4 100.8,239.4 C86.8,239.4 75.5,250.7 75.5,264.7 C75.5,270.9 77.8,276.6 81.5,281 L126.1,333.8 L170.7,281 C174.5,276.7 176.7,271 176.7,264.7 Z" id="Shape" fill="#9D705C"></path>
            <path d="M221.9,406 L23.9,406 L23.9,162.3 L221.9,162.3 L221.9,406 Z M34.8,395.1 L210.9,395.1 L210.9,173.2 L34.8,173.2 L34.8,395.1 Z" id="Shape" fill="#3A3033"></path>
            <path d="M244.4,361.9 C235.5,361.9 226.7,359.4 219.6,354.8 L210.9,349.1 L210.9,315.7 L236.5,332.2 C238.7,333.6 241.6,334.4 244.5,334.4 C251,334.4 256.5,330.5 256.5,325.8 L256.5,239 C256.5,234.3 251,230.4 244.5,230.4 C241.6,230.4 238.8,231.2 236.5,232.6 L210.9,249.1 L210.9,215.7 L219.6,210 C226.7,205.4 235.5,202.9 244.4,202.9 C267.3,202.9 285.9,219.1 285.9,239 L285.9,325.8 C285.9,345.7 267.3,361.9 244.4,361.9 Z M221.9,343.1 L225.7,345.5 C231.1,349 237.7,350.9 244.5,350.9 C261.4,350.9 275.1,339.6 275.1,325.8 L275.1,239 C275.1,225.1 261.4,213.9 244.5,213.9 C237.7,213.9 231,215.8 225.7,219.3 L221.9,221.7 L221.9,229.1 L230.6,223.5 C234.6,220.9 239.5,219.5 244.5,219.5 C257.1,219.5 267.4,228.3 267.4,239 L267.4,325.8 C267.4,336.6 257.1,345.3 244.5,345.3 C239.6,345.3 234.6,343.9 230.6,341.3 L221.9,335.7 L221.9,343.1 Z" id="Shape" fill="#3A3033"></path>
            <path d="M126.2,342.4 L74.2,280.8 L74.5,280.5 C71.7,275.8 70.2,270.3 70.2,264.8 C70.2,247.8 84,234 101,234 C111.5,234 120.7,239.3 126.3,247.3 C131.9,239.3 141.1,234 151.6,234 C168.6,234 182.4,247.8 182.4,264.8 C182.4,270.1 181,275.3 178.4,279.9 L178.8,280.2 L175.1,284.6 L126.2,342.4 Z M89,281.4 L126.2,325.4 L162.9,282 L166.6,277.6 C169.6,274 171.3,269.5 171.3,264.8 C171.3,253.9 162.4,245 151.5,245 C140.6,245 131.7,253.9 131.7,264.8 L120.8,264.8 C120.8,253.9 111.9,245 101,245 C90.1,245 81.2,253.9 81.2,264.8 C81.2,269.5 82.9,274 85.9,277.6 L89,281.4 Z" id="Shape" fill="#3A3033"></path>
            <rect id="Rectangle-path" fill="#3A3033" x="0.1" y="395.1" width="243" height="10.9"></rect>
            <path d="M124.3,71.8 L115.9,64.8 C141.8,33.9 117.3,8.8 116.2,7.7 L124,0 C135.4,11.4 150.1,41 124.3,71.8 Z" id="Shape" fill="#3A3033"></path>
            <path d="M90.8,117 C65,86.2 79.7,56.6 91.1,45.2 L98.8,52.9 C97.7,54 73.4,79.3 99.1,110 L90.8,117 Z" id="Shape" fill="#3A3033"></path>
            <path d="M159,145.8 L150.6,138.8 C176.5,107.9 152,82.8 150.9,81.7 L158.6,74 C170.1,85.4 184.8,115.1 159,145.8 Z" id="Shape" fill="#3A3033"></path>
        </g>
    </g>
</svg>