<?xml version="1.0" encoding="utf-8"?>
<!-- Generator: Adobe Illustrator 18.0.0, SVG Export Plug-In . SVG Version: 6.00 Build 0)  -->
<!DOCTYPE svg PUBLIC "-//W3C//DTD SVG 1.1//EN" "http://www.w3.org/Graphics/SVG/1.1/DTD/svg11.dtd">
<svg version="1.1" id="Layer_1" xmlns="http://www.w3.org/2000/svg" xmlns:xlink="http://www.w3.org/1999/xlink" x="0px" y="0px"
	 width="512px" height="512px" viewBox="0 0 512 512" enable-background="new 0 0 512 512" xml:space="preserve">
<g>
	<path fill="#CD9E5D" d="M368.5,293.4L368.5,293.4c22.3-17.9,29.7-57.9,16.1-98.1c-16.1-47.2-55.2-76.7-87.3-65.7l0,0v0c0,0,0,0,0,0
		c-32.2,11-45.2,58.1-29.2,105.3c3.2,9.3,7.2,17.9,12,25.7c0.3,0,0.6,0,0.9,0c-2.7,0.1-5.4,0.2-8,0.5c-0.5-14-5.3-26.3-14.7-35l0,0
		h0c0,0,0,0,0,0c-24.9-23.1-72.6-12.2-106.5,24.4c-33.9,36.6-41.2,85-16.3,108.1c19.8,18.4,54.1,15.2,84.3-5.3
		c14.8,15.5,38.6,27.1,66.4,30.4c49.5,6,93-16.5,97.1-50.3C384.8,319.2,379.2,305.2,368.5,293.4
		C368.5,293.4,368.5,293.4,368.5,293.4z"/>
</g>
<g>
	<g>
		<path fill="#3A3033" d="M301.9,390.1c-5.5,0-11-0.3-16.5-1c-52.4-6.3-91.5-41.3-87.1-78c3.9-32.5,40.4-56,86.6-56
			c5.5,0,11,0.3,16.5,1c52.4,6.3,91.5,41.3,87.1,78C384.6,366.6,348.2,390.1,301.9,390.1z M284.9,266c-40.7,0-72.5,19.5-75.8,46.4
			c-3.7,30.7,31.1,60.2,77.5,65.8c5.1,0.6,10.2,0.9,15.2,0.9c40.7,0,72.5-19.5,75.8-46.4c3.7-30.7-31.1-60.2-77.5-65.8
			C295.1,266.3,290,266,284.9,266z"/>
	</g>
	<g>
		<path fill="#3A3033" d="M301.9,390.1c-5.5,0-11-0.3-16.5-1c-52.4-6.3-91.5-41.3-87.1-78c3.9-32.5,40.4-56,86.6-56
			c5.5,0,11,0.3,16.5,1c52.4,6.3,91.5,41.3,87.1,78C384.6,366.6,348.2,390.1,301.9,390.1z M284.9,266c-40.7,0-72.5,19.5-75.8,46.4
			c-3.7,30.7,31.1,60.2,77.5,65.8c5.1,0.6,10.2,0.9,15.2,0.9c40.7,0,72.5-19.5,75.8-46.4c3.7-30.7-31.1-60.2-77.5-65.8
			C295.1,266.3,290,266,284.9,266z"/>
	</g>
	<g>
		<path fill="#3A3033" d="M252.3,341.3c-33.5,0-52.7-25.9-53-26.3l8.9-6.4c1.2,1.7,31,41.3,82.4,9.4c60.1-37.3,96.6,11.8,97,12.3
			l-8.9,6.4c-1.2-1.7-31-41.3-82.4-9.4C279.8,337.5,265,341.3,252.3,341.3z"/>
	</g>
	<g>
		<path fill="#3A3033" d="M370.1,299.2l-4.3-0.6l-1.3-1.5c-2.2-2.5-4.7-4.9-7.5-7.2c-14.6-12.1-34.8-20.3-56.8-23
			c-6.6-0.8-13.4-1.1-19.9-0.8l-3.2,0.1l-1.7-2.7c-5.1-8.3-9.3-17.3-12.5-26.8c-16.8-49.5-2.6-99.4,31.6-111.9l0,0l1-0.3
			c5-1.7,10.3-2.6,15.7-2.6c31.9,0,64.2,29.5,78.6,71.7c14.1,41.6,6.8,84.4-17.8,104.1L370.1,299.2z M284.9,255.1
			c5.5,0,11.1,0.3,16.6,1c24.1,2.9,46.3,11.9,62.5,25.4c1.7,1.4,3.3,2.9,4.8,4.3c17.8-18.1,22.3-54.3,10.6-88.7
			c-12.7-37.3-41.4-64.3-68.2-64.3c-4,0-7.9,0.6-11.7,1.8l-0.5,0.2c-29.3,10-40.8,54.1-25.8,98.4c2.6,7.7,5.9,15.1,9.9,21.9
			C283.7,255.1,284.3,255.1,284.9,255.1z"/>
	</g>
	<g>
		<path fill="#3A3033" d="M370.1,299.2l-4.3-0.6l-1.3-1.5c-2.2-2.5-4.7-4.9-7.5-7.2c-14.6-12.1-34.8-20.3-56.8-23
			c-6.6-0.8-13.4-1.1-19.9-0.8l-3.2,0.1l-1.7-2.7c-5.1-8.3-9.3-17.3-12.5-26.8c-16.8-49.5-2.6-99.4,31.6-111.9l0,0l1-0.3
			c5-1.7,10.3-2.6,15.7-2.6c31.9,0,64.2,29.5,78.6,71.7c14.1,41.6,6.8,84.4-17.8,104.1L370.1,299.2z M284.9,255.1
			c5.5,0,11.1,0.3,16.6,1c24.1,2.9,46.3,11.9,62.5,25.4c1.7,1.4,3.3,2.9,4.8,4.3c17.8-18.1,22.3-54.3,10.6-88.7
			c-12.7-37.3-41.4-64.3-68.2-64.3c-4,0-7.9,0.6-11.7,1.8l-0.5,0.2c-29.3,10-40.8,54.1-25.8,98.4c2.6,7.7,5.9,15.1,9.9,21.9
			C283.7,255.1,284.3,255.1,284.9,255.1z"/>
	</g>
	<g>
		<path fill="#3A3033" d="M365.8,286.8l-10.7-2.2c3.8-18,1.3-43.8-31.8-64.8c-59.2-37.7-32.2-90.5-31-92.7l0.5-1l0.9-0.7l3.5,4.2
			l4.8,2.5c-1,1.9-23.6,46,27.2,78.4C369.6,236.2,369.5,269.4,365.8,286.8z"/>
	</g>
	<g>
		<path fill="#3A3033" d="M168.9,376.2c-14.8,0-27.7-4.7-37.2-13.6c-13.4-12.4-19-31.6-15.6-53.8c3.2-21.5,14.5-43.5,31.6-62
			c22.2-24,51-38.3,77-38.3c14.8,0,27.7,4.7,37.2,13.6c10.2,9.5,15.9,22.9,16.5,38.9l0.2,5.2l-5.1,0.5
			c-35.6,3.4-61.4,21.8-64.3,45.9c-1.5,12.6,3.6,25.7,14.5,37.1l4.5,4.7l-5.4,3.6C205.3,369.6,186.2,376.2,168.9,376.2z
			 M224.7,219.4c-23,0-48.8,13-69,34.8c-15.7,16.9-25.9,36.8-28.8,56.2c-2.8,18.6,1.5,34.3,12.2,44.2c7.5,7,17.8,10.7,29.8,10.7
			c13.5,0,28.4-4.6,42.5-13.1c-10.1-12.6-14.8-27-13.1-41c3.4-28,30.7-49.6,68.8-54.8c-1.3-10.8-5.6-19.8-12.6-26.2
			C247,223.1,236.7,219.4,224.7,219.4z"/>
	</g>
	<g>
		<path fill="#3A3033" d="M135.4,364C135.4,364,135.4,364,135.4,364l0-10.9c2.1,0,51.6-0.9,56-61.2c2.7-36.7,20.7-54.2,35.3-62.4
			c15.7-8.8,30.8-8.9,31.6-8.9c0,0,0,0,0,0l0,5.5l0,5.5c-2.1,0-51.6,0.9-56,61.2c-2.7,36.7-20.7,54.2-35.3,62.4
			C151.2,363.9,136.2,364,135.4,364z"/>
	</g>
</g>
</svg>
