<?xml version="1.0" encoding="utf-8"?>
<!-- Generator: Adobe Illustrator 18.0.0, SVG Export Plug-In . SVG Version: 6.00 Build 0)  -->
<!DOCTYPE svg PUBLIC "-//W3C//DTD SVG 1.1//EN" "http://www.w3.org/Graphics/SVG/1.1/DTD/svg11.dtd">
<svg version="1.1" id="Layer_1" xmlns="http://www.w3.org/2000/svg" xmlns:xlink="http://www.w3.org/1999/xlink" x="0px" y="0px"
	 width="512px" height="512px" viewBox="0 0 512 512" enable-background="new 0 0 512 512" xml:space="preserve">
<g>
	<g>
		<path fill="#CDCCCC" d="M336.7,330.9c20.5-6.6,41.3-7.9,70.9-9.7c6.5-0.4,9.2-8.4,4.3-12.7c-21.2-18.3-42-27.5-71.9-33.6
			c-2.5-0.5-3.9-3.3-2.7-5.5c3.3-6.5,5.4-13.5,6.2-20.7c0.4-3.3-3.1-5.5-5.9-3.8c-16.8,10.3-36.7,19.9-54.4,26.9l0,0
			c4.4-5.6,8.4-11.4,11.8-17.1c10.4-17.3,18.2-38.9,13.2-58.8c-0.1-0.2-0.1-0.4-0.2-0.6c-0.8-3.1-4.8-4-6.8-1.5
			c-0.9,1.1-1.8,2.2-2.7,3.3c-2.3,2.8-6.9,1.2-6.9-2.5c0-11.1-3.1-21.9-8.3-32.9c-1.6-3.4-6.7-2.8-7.4,0.9c-0.3,1.6-0.6,3.2-0.9,4.7
			c-0.6,3.4-4.9,4.4-6.9,1.7c-14.4-19.6-38.1-41.7-62.4-55.4c-3.2-1.8-6.9,1.4-5.5,4.8c7.1,17.9,9.7,32.6,11,59.7
			c0.2,3.4-3.8,5.4-6.4,3.2c-1.6-1.4-3.3-2.7-5-4c-3.3-2.5-7.7,1.2-5.8,4.9c5.5,10.9,11.9,23.2,16.7,34.7c1.5,3.5-2.5,6.8-5.7,4.8
			c-0.1-0.1-0.2-0.1-0.3-0.2c-3.6-2.3-7.7,2-5.3,5.5c7.9,11.3,14.6,23.1,18.3,44.3c0.1,0.7,0.4,1.4,0.9,1.9l20.2,23.2
			c0.2,0.2,0.3,0.4,0.5,0.7l22.5,40.7c0.3,0.5,0.6,0.9,1.1,1.2c13.8,10.3,27.5,20.6,41.3,30.9c4.4,3.3,6.5,4.8,11.1,7.7
			c3.2,2,7-1.2,5.7-4.7c-1.9-5.1-3.9-10.2-5.9-15.2c-1.2-3.1,1.8-6.3,5-5.1c4.1,1.5,8,2.8,12.7,4.7c3.6,1.5,6.2,2.8,13.4,4.3
			c3.8,0.8,6.3-3.7,3.6-6.5c-5.4-5.7-10.4-11.8-15-18.2C333.2,334.7,334.2,331.7,336.7,330.9z"/>
	</g>
	<g>
		<path fill="#3A3033" d="M92.9,404.4l-0.8-10.9c0.7,0,67.3-5.7,122.1-74.6c57.8-72.7,21.8-145.3,21.5-146l9.7-5
			c0.4,0.8,10.2,20.2,12.3,49.5c2,26.9-2.5,67.6-35,108.4C164.9,398.5,95.8,404.2,92.9,404.4z"/>
	</g>
	<g>
		<path fill="#3A3033" d="M248.6,309.6l-5.3-9.6c17.1-9.4,34.1-26.9,46.9-48.1c8.1-13.5,16.8-33.3,13.1-52.2l-0.6,0.8
			c-2.5,3.1-6.6,4.2-10.4,2.9c-3.8-1.4-6.2-4.8-6.2-8.8c0-8.2-1.9-16.8-5.8-26.1c-0.7,3.6-3.5,6.4-7,7.2c-3.6,0.9-7.4-0.5-9.6-3.6
			c-14-19.1-36-39-56.8-51.6c6.1,16.7,8.6,31.5,9.8,57.3c0.2,3.7-1.9,7.2-5.2,8.8c-3,1.5-6.6,1.2-9.4-0.6
			c4.6,9.1,9.7,19.2,13.7,28.7c1.6,3.8,0.5,8.1-2.6,10.7c-1.9,1.6-4.3,2.4-6.6,2.2c7.9,12,13.5,24.2,16.8,43.7l-10.8,1.8
			c-3.6-21.7-10.6-33.2-17.5-43.1c-2.6-3.7-2.2-8.5,0.9-11.8c2.2-2.3,5.3-3.3,8.3-2.8c-3.8-8.8-8.4-17.8-12.9-26.6l-2.2-4.3
			c-2-3.9-1-8.6,2.4-11.4c3.4-2.8,8.2-2.9,11.6-0.3c0.8,0.6,1.6,1.3,2.5,1.9c-1.3-24.4-3.9-38-10.4-54.5c-1.5-3.7-0.5-7.9,2.6-10.5
			c3-2.6,7.2-3.1,10.7-1.1c22.5,12.7,45.9,33.2,61.9,53.9c0.1-0.4,0.2-0.8,0.2-1.3c0.8-4,3.9-7,8-7.5c4.1-0.5,8,1.6,9.7,5.3
			c5.2,11,8.1,21.2,8.7,31l0,0c2.3-2.7,5.8-4,9.3-3.2c3.5,0.8,6.2,3.4,7,6.8l0.2,0.7c5.8,23.2-4.3,47.1-13.8,62.9
			C285.9,280.3,267.3,299.3,248.6,309.6z"/>
	</g>
	<g>
		<path fill="#3A3033" d="M317.2,383.6c-1.7,0-3.4-0.5-5-1.4c-4.8-3-7-4.6-11.4-7.9l-41.9-31.4l6.6-8.8l41.9,31.4
			c2.8,2.1,4.6,3.4,6.8,4.9c-1.4-3.6-2.8-7.2-4.2-10.7c-1.4-3.5-0.6-7.3,2-10c2.6-2.7,6.5-3.5,10-2.3c1.2,0.4,2.4,0.9,3.6,1.3
			c2.9,1,5.8,2.1,9.2,3.5c0.6,0.2,1.1,0.4,1.6,0.7c1.8,0.7,3.4,1.4,5.8,2.1c-4.2-4.7-8.2-9.7-11.9-14.9c-1.8-2.5-2.2-5.6-1.3-8.5
			c0.9-2.9,3.2-5.1,6.1-6c21.5-6.9,43.8-8.2,72.1-9.9c1-0.1,1.4-0.7,1.5-1.2c0.1-0.4,0.3-1.2-0.5-1.9
			c-19.9-17.1-39.3-26.2-69.3-32.3c-2.9-0.6-5.3-2.5-6.6-5.2c-1.3-2.7-1.3-5.7,0.1-8.3c2.5-4.9,4.2-10.2,5.1-15.6
			c-15.8,9.4-34.8,18.6-52.4,25.6l-4-10.2c18.1-7.1,37.6-16.7,53.4-26.3c3.1-1.9,6.9-1.9,10,0.1c3.1,2,4.7,5.4,4.3,9.1
			c-0.8,7.1-2.8,14-5.8,20.5c30.5,6.5,51.6,16.5,72.4,34.4c3.9,3.4,5.4,8.8,3.8,13.7c-1.7,4.9-6.1,8.3-11.3,8.6
			c-26.6,1.6-47.8,2.9-67.5,8.8c4.1,5.5,8.5,10.8,13.2,15.8c2.9,3,3.4,7.5,1.4,11.1c-2,3.6-6.1,5.5-10.2,4.6
			c-6.6-1.4-9.7-2.7-12.7-3.9l-1.5-0.6c-3.2-1.3-6.1-2.3-8.8-3.3c-0.2-0.1-0.3-0.1-0.5-0.2c1.6,4,3.1,8,4.6,12
			c1.4,3.8,0.3,8-2.9,10.6C321.4,382.9,319.3,383.6,317.2,383.6z"/>
	</g>
	<g>
		<path fill="#3A3033" d="M265.9,321.5l-4.4-10c1.9-0.8,47.9-20.6,101.8-14.1l-1.3,10.9C311.2,302.1,266.4,321.3,265.9,321.5z"/>
	</g>
	<g>
		<path fill="#9D705C" d="M240.6,260.6c11,10.9,8.8,29-4.5,36.9c-9,5.4-20.9,4-28.4-3.5c-11-10.9-8.8-29,4.5-36.9
			C221.2,251.7,233.1,253.2,240.6,260.6z"/>
	</g>
	<g>
		<path fill="#9D705C" d="M225.9,309.3c10.9,10.8,8.7,28.8-4.5,36.7c-9,5.4-20.8,3.9-28.2-3.4c-10.9-10.8-8.7-28.8,4.5-36.7
			C206.7,300.5,218.4,301.9,225.9,309.3z"/>
	</g>
	<g>
		<path fill="#9D705C" d="M264.7,341.9c10.6,10.6,8.5,28.1-4.4,35.8c-8.8,5.2-20.2,3.8-27.5-3.4c-10.6-10.6-8.5-28.1,4.4-35.8
			C246,333.3,257.4,334.7,264.7,341.9z"/>
	</g>
	<g>
		
			<ellipse transform="matrix(0.7877 -0.616 0.616 0.7877 -136.8001 224.008)" fill="#9D705C" cx="256.6" cy="310.5" rx="23.3" ry="22.7"/>
	</g>
	<g>
		<path fill="#9D705C" d="M193.7,274.8c10.9,10.8,8.7,28.8-4.5,36.7c-9,5.4-20.8,3.9-28.2-3.4c-10.9-10.8-8.7-28.8,4.5-36.7
			C174.5,266,186.3,267.5,193.7,274.8z"/>
	</g>
	<g>
		<path fill="#9D705C" d="M177.8,321.4c10.9,10.8,8.7,28.8-4.5,36.7c-9,5.4-20.8,3.9-28.2-3.4c-10.9-10.8-8.7-28.8,4.5-36.7
			C158.6,312.6,170.3,314,177.8,321.4z"/>
	</g>
	<g>
		<path fill="#9D705C" d="M220.5,359c10.9,10.8,8.7,28.8-4.5,36.7c-9,5.4-20.8,3.9-28.2-3.4c-10.9-10.8-8.7-28.8,4.5-36.7
			C201.3,350.2,213,351.6,220.5,359z"/>
	</g>
	<g>
		<path fill="#3A3033" d="M224.2,306.2c-7.6,0-15-3-20.3-8.3c-6.4-6.4-9.5-15.2-8.4-24.1c1.1-8.9,6.2-16.7,14-21.4
			c4.4-2.6,9.5-4,14.7-4c7.6,0,15,3,20.3,8.3c6.4,6.4,9.5,15.2,8.4,24.1c-1.1,8.9-6.2,16.7-14,21.4
			C234.4,304.9,229.4,306.2,224.2,306.2z M224.1,259.3c-3.2,0-6.4,0.9-9.1,2.5c-4.9,2.9-8.1,7.8-8.7,13.3c-0.7,5.6,1.2,11,5.3,15
			c3.3,3.3,7.9,5.1,12.6,5.1c3.2,0,6.4-0.9,9.1-2.5c4.9-2.9,8.1-7.8,8.7-13.3c0.7-5.6-1.2-11-5.3-15
			C233.4,261.2,228.8,259.3,224.1,259.3z"/>
	</g>
	<g>
		<path fill="#3A3033" d="M248.8,386.3c-7.4,0-14.6-3-19.8-8.1c-6.3-6.2-9.3-14.8-8.2-23.5c1.1-8.7,6-16.3,13.6-20.8
			c4.3-2.6,9.2-3.9,14.3-3.9c7.4,0,14.6,3,19.8,8.1c6.3,6.2,9.3,14.8,8.2,23.5c-1.1,8.7-6,16.3-13.6,20.8
			C258.8,384.9,253.9,386.3,248.8,386.3z M248.7,340.8c-3.1,0-6.1,0.8-8.7,2.4c-4.7,2.8-7.7,7.4-8.4,12.8c-0.7,5.3,1.2,10.6,5,14.4
			c3.1,3.1,7.6,4.9,12.1,4.9c3.1,0,6.1-0.8,8.7-2.4c4.7-2.8,7.7-7.4,8.4-12.8c0.7-5.3-1.2-10.6-5-14.4
			C257.7,342.6,253.3,340.8,248.7,340.8z"/>
	</g>
	<g>
		<path fill="#3A3033" d="M256.1,338.9c-8.7,0-16.8-3.9-22.1-10.7c-9.6-12.2-7.2-30.2,5.3-39.9c5.1-4,11.5-6.2,17.9-6.2
			c8.7,0,16.8,3.9,22.1,10.7c9.6,12.2,7.2,30.1-5.3,39.9C268.9,336.7,262.5,338.9,256.1,338.9z M257.2,293c-4.1,0-7.9,1.3-11.2,3.9
			c-7.7,6.1-9.3,17.1-3.4,24.6c3.2,4.1,8.1,6.5,13.5,6.5c4.1,0,7.9-1.3,11.2-3.9c7.7-6.1,9.3-17.1,3.4-24.6
			C267.5,295.4,262.5,293,257.2,293z"/>
	</g>
	<g>
		<path fill="#3A3033" d="M209.6,354.7c-7.6,0-14.9-3-20.2-8.3c-6.4-6.4-9.5-15.1-8.4-24c1.1-8.9,6.2-16.6,13.9-21.3
			c4.4-2.6,9.4-4,14.6-4c7.6,0,14.9,3,20.2,8.3c6.4,6.4,9.5,15.1,8.4,24c-1.1,8.9-6.2,16.6-13.9,21.3
			C219.8,353.3,214.7,354.7,209.6,354.7z M209.5,308.1c-3.2,0-6.3,0.8-9,2.5c-4.8,2.9-8,7.7-8.7,13.2c-0.7,5.5,1.2,10.9,5.2,14.9
			c3.3,3.2,7.8,5.1,12.5,5.1c3.2,0,6.3-0.8,9-2.5c4.8-2.9,8-7.7,8.7-13.2c0.7-5.5-1.2-10.9-5.2-14.9
			C218.8,309.9,214.2,308.1,209.5,308.1z"/>
	</g>
	<g>
		<path fill="#3A3033" d="M177.4,320.2c-7.6,0-14.9-3-20.2-8.3c-6.4-6.4-9.5-15.1-8.4-24c1.1-8.9,6.2-16.6,13.9-21.3
			c4.4-2.6,9.4-4,14.6-4c7.6,0,14.9,3,20.2,8.3c6.4,6.4,9.5,15.1,8.4,24c-1.1,8.9-6.2,16.6-13.9,21.3
			C187.6,318.8,182.6,320.2,177.4,320.2z M177.3,273.6c-3.2,0-6.3,0.8-9,2.5c-4.8,2.9-8,7.7-8.7,13.2c-0.7,5.5,1.2,10.9,5.2,14.9
			c3.3,3.2,7.8,5.1,12.5,5.1c3.2,0,6.3-0.8,9-2.5c4.8-2.9,8-7.7,8.7-13.2c0.7-5.5-1.2-10.9-5.2-14.9
			C186.6,275.5,182,273.6,177.3,273.6z"/>
	</g>
	<g>
		<path fill="#3A3033" d="M161.5,366.8c-7.6,0-14.9-3-20.2-8.3c-6.4-6.4-9.5-15.1-8.4-24c1.1-8.9,6.2-16.6,13.9-21.3
			c4.4-2.6,9.4-4,14.6-4c7.6,0,14.9,3,20.2,8.3c6.4,6.4,9.5,15.1,8.4,24c-1.1,8.9-6.2,16.6-13.9,21.3
			C171.7,365.4,166.6,366.8,161.5,366.8z M161.4,320.2c-3.2,0-6.3,0.8-9,2.5c-4.8,2.9-8,7.7-8.7,13.2c-0.7,5.5,1.2,10.9,5.2,14.9
			c3.3,3.2,7.8,5.1,12.5,5.1c3.2,0,6.3-0.8,9-2.5c4.8-2.9,8-7.7,8.7-13.2c0.7-5.5-1.2-10.9-5.2-14.9
			C170.6,322.1,166.1,320.2,161.4,320.2z"/>
	</g>
	<g>
		<path fill="#3A3033" d="M204.2,404.4c-7.6,0-14.9-3-20.2-8.3c-6.4-6.4-9.5-15.1-8.4-24c1.1-8.9,6.2-16.6,13.9-21.3
			c4.4-2.6,9.4-4,14.6-4c7.6,0,14.9,3,20.2,8.3c6.4,6.4,9.5,15.1,8.4,24c-1.1,8.9-6.2,16.6-13.9,21.3
			C214.4,403,209.3,404.4,204.2,404.4z M204.1,357.8c-3.2,0-6.3,0.8-9,2.5c-4.8,2.9-8,7.7-8.7,13.2c-0.7,5.5,1.2,10.9,5.2,14.9
			c3.3,3.2,7.8,5.1,12.5,5.1c3.2,0,6.3-0.8,9-2.5c4.8-2.9,8-7.7,8.7-13.2c0.7-5.5-1.2-10.9-5.2-14.9
			C213.3,359.7,208.8,357.8,204.1,357.8z"/>
	</g>
</g>
</svg>
