<?xml version="1.0" encoding="UTF-8"?>
<svg width="238px" height="326px" viewBox="0 0 238 326" version="1.1" xmlns="http://www.w3.org/2000/svg" xmlns:xlink="http://www.w3.org/1999/xlink">
    <!-- Generator: Sketch 51 (57462) - http://www.bohemiancoding.com/sketch -->
    <title>coffee shop sign</title>
    <desc>Created with Sketch.</desc>
    <defs></defs>
    <g id="Page-1" stroke="none" stroke-width="1" fill="none" fill-rule="evenodd">
        <g id="coffee-shop-sign" fill-rule="nonzero">
            <rect id="Rectangle-path" fill="#FFFFFF" x="5.6" y="158" width="196.1" height="161.6"></rect>
            <rect id="Rectangle-path" fill="#9D705C" x="5.6" y="95.6" width="226.9" height="25.4"></rect>
            <rect id="Rectangle-path" fill="#9D705C" x="28.6" y="121" width="25.4" height="37"></rect>
            <rect id="Rectangle-path" fill="#9D705C" x="154.1" y="121" width="25.4" height="37"></rect>
            <rect id="Rectangle-path" fill="#3A3033" x="227" y="0.9" width="10.9" height="153.6"></rect>
            <path d="M232.4,126.5 L5.6,126.5 L0.1,121 L0.1,95.6 L5.6,90.1 L232.5,90.1 L238,95.6 L238,121 L232.4,126.5 Z M11,115.5 L227,115.5 L227,101.1 L11,101.1 L11,115.5 Z" id="Shape" fill="#3A3033"></path>
            <path d="M54,163.5 L28.6,163.5 L23.1,158 L23.1,121 L28.6,115.5 L54,115.5 L59.5,121 L59.5,158 L54,163.5 Z M34.1,152.5 L48.5,152.5 L48.5,126.5 L34.1,126.5 L34.1,152.5 Z" id="Shape" fill="#3A3033"></path>
            <path d="M179.5,163.5 L154.1,163.5 L148.6,158 L148.6,121 L154.1,115.5 L179.5,115.5 L185,121 L185,158 L179.5,163.5 Z M159.6,152.5 L174,152.5 L174,126.5 L159.6,126.5 L159.6,152.5 Z" id="Shape" fill="#3A3033"></path>
            <rect id="Rectangle-path" fill="#3A3033" transform="translate(118.975530, 63.527965) rotate(74.227757) translate(-118.975530, -63.527965) " x="113.525812" y="-54.3659353" width="10.8994361" height="235.787801"></rect>
            <path d="M201.6,325.1 L5.6,325.1 L0.1,319.6 L0.1,158 L5.6,152.5 L201.7,152.5 L207.2,158 L207.2,319.6 L201.6,325.1 Z M11,314.1 L196.1,314.1 L196.1,163.5 L11,163.5 L11,314.1 Z" id="Shape" fill="#3A3033"></path>
            <rect id="Rectangle-path" fill="#3A3033" x="86.7" y="288.7" width="31.4" height="10.9"></rect>
            <path d="M116.5,284.3 L86,284.3 L85.1,284 C56.9,274.4 52.3,245.7 53.8,231.9 L54.3,227 L148.1,227 L148.6,231.9 C150.1,245.7 145.5,274.4 117.3,284 L116.5,284.3 Z M87.8,273.4 L114.6,273.4 C125.3,269.5 132.4,261.8 135.8,250.5 C137.2,245.8 137.7,241.3 137.8,238 L64.5,238 C64.8,247 67.9,266.1 87.8,273.4 Z" id="Shape" fill="#3A3033"></path>
            <path d="M149.3,275 L130.8,275 L130.8,264.1 L149.3,264.1 C154.5,264.1 158.6,259.9 158.6,254.8 C158.6,249.6 154.4,245.5 149.3,245.5 L143.3,245.5 L143.3,234.6 L149.3,234.6 C160.5,234.6 169.6,243.7 169.6,254.9 C169.6,265.9 160.5,275 149.3,275 Z" id="Shape" fill="#3A3033"></path>
            <path d="M130.9,218.6 L76.5,218.6 C69.3,218.6 63.5,212.8 63.5,205.6 L63.5,204 C63.5,196.8 69.3,191 76.5,191 L118.6,191 C119.7,191 120.7,190.1 120.7,188.9 C120.7,187.8 119.8,186.8 118.6,186.8 L100,186.8 L100,175.9 L118.6,175.9 C125.8,175.9 131.6,181.7 131.6,188.9 C131.6,196.1 125.8,201.9 118.6,201.9 L76.5,201.9 C75.4,201.9 74.4,202.8 74.4,204 L74.4,205.6 C74.4,206.7 75.3,207.7 76.5,207.7 L130.9,207.7 L130.9,218.6 Z" id="Shape" fill="#3A3033"></path>
        </g>
    </g>
</svg>