<?xml version="1.0" encoding="UTF-8"?>
<svg width="296px" height="295px" viewBox="0 0 296 295" version="1.1" xmlns="http://www.w3.org/2000/svg" xmlns:xlink="http://www.w3.org/1999/xlink">
    <!-- Generator: Sketch 51 (57462) - http://www.bohemiancoding.com/sketch -->
    <title>coffee shop</title>
    <desc>Created with Sketch.</desc>
    <defs></defs>
    <g id="Page-1" stroke="none" stroke-width="1" fill="none" fill-rule="evenodd">
        <g id="coffee-shop" fill-rule="nonzero">
            <g id="Group" transform="translate(14.000000, 113.000000)">
                <rect id="Rectangle-path" fill="#FFFFFF" x="5.7" y="5.5" width="256.5" height="171.1"></rect>
                <path d="M267.7,182 L0.3,182 L0.3,0 L267.8,0 L267.8,182 L267.7,182 Z M11.2,171.1 L256.8,171.1 L256.8,11 L11.2,11 L11.2,171.1 Z" id="Shape" fill="#3A3033"></path>
            </g>
            <rect id="Rectangle-path" fill="#CD9E5D" x="119.3" y="177.7" width="57.3" height="111.9"></rect>
            <circle id="Oval" fill="#CDCCCC" cx="226" cy="216.7" r="20.5"></circle>
            <circle id="Oval" fill="#CDCCCC" cx="68.1" cy="216.7" r="20.5"></circle>
            <g id="Group">
                <path d="M112.4,150.7 C92.8,150.7 76.8,134.8 76.8,115.1 L76.8,87.4 L148,87.4 L148,115.1 C148,134.8 132.1,150.7 112.4,150.7 Z" id="Shape" fill="#9D705C"></path>
                <path d="M254.7,150.7 C235.1,150.7 219.1,134.8 219.1,115.1 L219.1,87.4 L290.200469,87.4 L290.2,115.1 C290.3,134.8 274.4,150.7 254.7,150.7 Z" id="Shape" fill="#9D705C"></path>
                <path d="M60.1,150.7 L22.5,150.7 C13.2,150.7 5.7,143.2 5.7,133.9 L5.7,87.4 L76.8,87.4 L76.8,133.9 C76.9,143.2 69.3,150.7 60.1,150.7 Z" id="Shape" fill="#9D705C"></path>
                <path d="M183.6,150.7 C164,150.7 148,134.8 148,115.1 L148,87.4 L219.1,87.4 L219.1,115.1 C219.1,134.8 203.2,150.7 183.6,150.7 Z" id="Shape" fill="#9D705C"></path>
                <path d="M183.6,156.1 C161,156.1 142.6,137.7 142.6,115.1 L142.6,81.9 L224.7,81.9 L224.7,115.1 C224.6,137.7 206.2,156.1 183.6,156.1 Z M153.5,92.9 L153.5,115.1 C153.5,131.7 167,145.2 183.6,145.2 C200.2,145.2 213.7,131.7 213.7,115.1 L213.7,92.9 L153.5,92.9 Z" id="Shape" fill="#3A3033"></path>
                <path d="M254.7,156.1 C232.1,156.1 213.7,137.7 213.7,115.1 L213.7,81.9 L295.8,81.9 L295.8,115.1 C295.8,137.7 277.4,156.1 254.7,156.1 Z M224.6,92.9 L224.6,115.1 C224.6,131.7 238.1,145.2 254.7,145.2 C271.3,145.2 284.8,131.7 284.8,115.1 L284.8,92.9 L224.6,92.9 Z" id="Shape" fill="#3A3033"></path>
                <path d="M112.4,156.1 C89.8,156.1 71.4,137.7 71.4,115.1 L71.4,81.9 L153.5,81.9 L153.5,115.1 C153.5,137.7 135.1,156.1 112.4,156.1 Z M82.3,92.9 L82.3,115.1 C82.3,131.7 95.8,145.2 112.4,145.2 C129,145.2 142.5,131.7 142.5,115.1 L142.5,92.9 L82.3,92.9 Z" id="Shape" fill="#3A3033"></path>
                <path d="M41.3,156.1 C18.7,156.1 0.3,137.7 0.3,115.1 L0.3,81.9 L82.4,81.9 L82.4,115.1 C82.3,137.7 63.9,156.1 41.3,156.1 Z M11.2,92.9 L11.2,115.1 C11.2,131.7 24.7,145.2 41.3,145.2 C57.9,145.2 71.4,131.7 71.4,115.1 L71.4,92.9 L11.2,92.9 Z" id="Shape" fill="#3A3033"></path>
                <g transform="translate(1.000000, 0.000000)" id="Shape">
                    <polygon fill="#CD9E5D" points="147 87.4 147 6.4 111.4 6.4 75.9 87.4"></polygon>
                    <polygon fill="#CD9E5D" points="4.7 87.4 75.9 6.4 111.4 6.4 75.9 87.4"></polygon>
                    <polygon fill="#CD9E5D" points="147 87.4 147 6.4 182.6 6.4 218.1 87.4"></polygon>
                    <polygon fill="#CD9E5D" points="289.3 87.4 218.1 6.4 182.6 6.4 218.1 87.4"></polygon>
                    <path d="M152.5,92.9 L67.5,92.9 L107.9,1 L152.5,1 L152.5,92.9 Z M84.2,81.9 L141.5,81.9 L141.5,11.9 L115,11.9 L84.2,81.9 Z" fill="#3A3033"></path>
                    <path d="M75.9,92.9 L4.8,92.9 L0.7,83.8 L71.8,2.8 L75.9,0.9 L111.5,0.9 L116.5,8.6 L80.9,89.6 L75.9,92.9 Z M16.8,81.9 L72.3,81.9 L103.1,11.9 L78.4,11.9 L16.8,81.9 Z" fill="#3A3033"></path>
                    <path d="M226.5,92.9 L141.5,92.9 L141.5,1 L186.1,1 L226.5,92.9 Z M152.5,81.9 L209.8,81.9 L179,11.9 L152.5,11.9 L152.5,81.9 Z" fill="#3A3033"></path>
                    <path d="M289.3,92.9 L218.2,92.9 L213.2,89.6 L177.6,8.6 L182.6,0.9 L218.2,0.9 L222.3,2.8 L293.4,83.8 L289.3,92.9 Z M221.7,81.9 L277.2,81.9 L215.7,11.9 L191,11.9 L221.7,81.9 Z" fill="#3A3033"></path>
                </g>
            </g>
            <path d="M182.1,295 L113.8,295 L113.8,172.2 L182.1,172.2 L182.1,295 Z M124.8,284.1 L171.2,284.1 L171.2,183.1 L124.8,183.1 L124.8,284.1 Z" id="Shape" fill="#3A3033"></path>
            <path d="M226,242.6 C211.7,242.6 200.1,231 200.1,216.7 C200.1,202.4 211.7,190.8 226,190.8 C240.3,190.8 251.9,202.4 251.9,216.7 C252,231 240.3,242.6 226,242.6 Z M226,201.7 C217.7,201.7 211,208.4 211,216.7 C211,225 217.7,231.7 226,231.7 C234.3,231.7 241,225 241,216.7 C241,208.4 234.3,201.7 226,201.7 Z" id="Shape" fill="#3A3033"></path>
            <path d="M68.1,242.6 C53.8,242.6 42.2,231 42.2,216.7 C42.2,202.4 53.8,190.8 68.1,190.8 C82.4,190.8 94,202.4 94,216.7 C94,231 82.4,242.6 68.1,242.6 Z M68.1,201.7 C59.8,201.7 53.1,208.4 53.1,216.7 C53.1,225 59.8,231.7 68.1,231.7 C76.4,231.7 83.1,225 83.1,216.7 C83.1,208.4 76.4,201.7 68.1,201.7 Z" id="Shape" fill="#3A3033"></path>
            <rect id="Rectangle-path" fill="#3A3033" x="124.8" y="229.9" width="10.9" height="16.9"></rect>
            <rect id="Rectangle-path" fill="#3A3033" x="119.3" y="190.6" width="57.3" height="10.9"></rect>
            <rect id="Rectangle-path" fill="#3A3033" x="119.3" y="265.4" width="57.3" height="10.9"></rect>
            <g id="Group" transform="translate(71.000000, 26.000000)">
                <path d="M105.7,90.6 L48.2,90.6 C24.8,90.6 5.8,71.6 5.8,48.2 C5.8,24.8 24.8,5.8 48.2,5.8 L105.7,5.8 C129.1,5.8 148.1,24.8 148.1,48.2 C148.1,71.7 129.2,90.6 105.7,90.6 Z" id="Shape" fill="#FFFFFF"></path>
                <path d="M105.7,96.1 L48.2,96.1 C21.8,96.1 0.3,74.6 0.3,48.2 C0.3,21.8 21.8,0.3 48.2,0.3 L105.7,0.3 C132.1,0.3 153.6,21.8 153.6,48.2 C153.6,74.6 132.1,96.1 105.7,96.1 Z M48.3,11.3 C27.9,11.3 11.4,27.9 11.4,48.2 C11.4,68.6 28,85.1 48.3,85.1 L105.8,85.1 C126.2,85.1 142.7,68.5 142.7,48.2 C142.7,27.8 126.1,11.3 105.8,11.3 L48.3,11.3 Z" id="Shape" fill="#3A3033"></path>
                <g transform="translate(43.000000, 24.000000)" fill="#CD9E5D">
                    <ellipse id="Oval" cx="34" cy="24.6" rx="33.8" ry="24.3"></ellipse>
                    <path d="M67.8,26.4 C67.8,26.4 50.9,9.3 31.9,24.7 C15.1,38.3 0.3,22.2 0.3,22.2" id="Shape"></path>
                </g>
                <g transform="translate(37.000000, 18.000000)" fill="#3A3033" id="Shape">
                    <path d="M40,60.4 C18.4,60.4 0.8,47.1 0.8,30.6 C0.8,14.2 18.4,0.9 40,0.9 C61.6,0.9 79.2,14.2 79.2,30.6 C79.2,47 61.6,60.4 40,60.4 Z M40,11.8 C24.7,11.8 11.7,20.4 11.7,30.6 C11.7,40.8 24.7,49.4 40,49.4 C55.3,49.4 68.3,40.8 68.3,30.6 C68.3,20.4 55.3,11.8 40,11.8 Z"></path>
                    <path d="M23.7,41.6 C14.2,41.6 6.2,36.2 2.2,31.9 L10.2,24.5 C11.4,25.7 22,36.4 34.3,26.4 C52.4,11.8 70.5,21.4 77.6,28.5 L69.8,36.2 L73.7,32.4 L69.8,36.3 C68.4,34.9 55.8,23.2 41.2,35 C35.2,39.8 29.2,41.6 23.7,41.6 Z"></path>
                </g>
            </g>
        </g>
    </g>
</svg>