<?xml version="1.0" encoding="UTF-8"?>
<svg width="338px" height="352px" viewBox="0 0 338 352" version="1.1" xmlns="http://www.w3.org/2000/svg" xmlns:xlink="http://www.w3.org/1999/xlink">
    <!-- Generator: Sketch 51 (57462) - http://www.bohemiancoding.com/sketch -->
    <title>coffee app</title>
    <desc>Created with Sketch.</desc>
    <defs></defs>
    <g id="Page-1" stroke="none" stroke-width="1" fill="none" fill-rule="evenodd">
        <g id="coffee-app" fill-rule="nonzero">
            <path d="M119.3,141.4 L119.3,324.8 C119.3,336.7 109.6,346.4 97.7,346.4 L299.5,346.4 C317.6,346.4 332.2,331.7 332.2,313.7 L332.2,38.3 C332.2,20.2 317.5,5.6 299.5,5.6 L95.6,5.6 C77.5,5.6 62.9,20.3 62.9,38.3 L62.9,119.7 L94.3,119.7 C94.2,119.8 117.3,117.2 119.3,141.4 Z" id="Shape" fill="#FFFFFF"></path>
            <path d="M300.9,43.4 L300.9,281.4 L119.3,281.4 L119.3,141.4 C119.3,129.7 109.6,119.8 97.7,119.8 L94.2,119.8 L94.2,43.4 L300.9,43.4 Z" id="Shape" fill="#CD9E5D"></path>
            <path d="M210.5,212.8 C241.9,202 238.1,166.5 238.1,166.5 L154.3,166.5 C154.3,166.5 150.5,202 181.9,212.8 L210.5,212.8 Z" id="Shape" fill="#FFFFFF"></path>
            <path d="M147.6,213.8 L159.1,223.9 C165.6,229.6 172.7,232.6 179.9,232.6 L184.5,232.6 L211,232.6 L215.6,232.6 C222.8,232.6 230,229.6 236.4,223.9 L247.9,213.8 L147.6,213.8 Z" id="Shape" fill="#FFFFFF"></path>
            <rect id="Rectangle-path" fill="#FFFFFF" x="26.6" y="146.3" width="74" height="135.1"></rect>
            <path d="M107.4,346.4 L17.6,346.4 C11.1,346.4 5.8,341.1 5.8,334.6 L5.8,131.6 C5.8,125.1 11.1,119.8 17.6,119.8 L107.4,119.8 C113.9,119.8 119.2,125.1 119.2,131.6 L119.2,334.5 C119.3,341.1 114,346.4 107.4,346.4 Z" id="Shape" fill="#FFFFFF"></path>
            <rect id="Rectangle-path" fill="#CD9E5D" x="26.6" y="146.3" width="74" height="135.1"></rect>
            <circle id="Oval" fill="#FFFFFF" cx="62.5" cy="315.7" r="13.6"></circle>
            <circle id="Oval" fill="#FFFFFF" cx="199.2" cy="313.7" r="13.6"></circle>
            <path d="M97.7,351.8 L27.4,351.8 C12.5,351.8 0.3,339.7 0.3,324.7 L0.3,141.4 C0.3,126.5 12.4,114.3 27.4,114.3 L97.7,114.3 C112.6,114.3 124.8,126.4 124.8,141.4 L124.8,324.8 C124.7,339.7 112.6,351.8 97.7,351.8 Z M27.4,125.3 C18.5,125.3 11.3,132.5 11.3,141.4 L11.3,324.8 C11.3,333.7 18.5,340.9 27.4,340.9 L97.7,340.9 C106.6,340.9 113.8,333.7 113.8,324.8 L113.8,141.4 C113.8,132.5 106.6,125.3 97.7,125.3 L27.4,125.3 Z" id="Shape" fill="#3A3033"></path>
            <path d="M106.1,286.9 L21.2,286.9 L21.2,140.8 L106.1,140.8 L106.1,286.9 Z M32.1,275.9 L95.2,275.9 L95.2,151.8 L32.1,151.8 L32.1,275.9 Z" id="Shape" fill="#3A3033"></path>
            <path d="M62.5,334.8 C52,334.8 43.4,326.2 43.4,315.7 C43.4,305.2 52,296.6 62.5,296.6 C73,296.6 81.6,305.2 81.6,315.7 C81.6,326.2 73,334.8 62.5,334.8 Z M62.5,307.5 C58,307.5 54.4,311.2 54.4,315.6 C54.4,320.1 58.1,323.7 62.5,323.7 C67,323.7 70.6,320 70.6,315.6 C70.7,311.2 67,307.5 62.5,307.5 Z" id="Shape" fill="#3A3033"></path>
            <path d="M299.5,351.8 L97.7,351.8 L97.7,340.9 C106.6,340.9 113.8,333.7 113.8,324.8 L113.8,141.6 C112.6,128 103.6,125.2 96.1,125.2 C95.3,125.2 94.9,125.2 94.7,125.3 L94.1,125.3 L57.3,125.3 L57.3,38.4 C57.3,17.3 74.4,0.2 95.5,0.2 L299.4,0.2 C320.5,0.2 337.6,17.3 337.6,38.4 L337.6,313.7 C337.7,334.7 320.6,351.8 299.5,351.8 Z M119.4,340.9 L299.5,340.9 C314.5,340.9 326.8,328.7 326.8,313.6 L326.8,38.3 C326.8,23.3 314.6,11 299.5,11 L95.6,11 C80.6,11 68.3,23.2 68.3,38.3 L68.3,114.3 L93.9,114.3 C94.3,114.3 95.1,114.2 96.1,114.2 C108.9,114.2 123.1,121.2 124.7,140.9 L124.7,141.3 L124.7,324.7 C124.7,330.8 122.7,336.4 119.4,340.9 Z" id="Shape" fill="#3A3033"></path>
            <path d="M306.3,286.9 L113.8,286.9 L113.8,141.4 C113.8,132.7 106.4,125.3 97.7,125.3 L88.8,125.3 L88.8,38 L306.4,38 L306.4,286.9 L306.3,286.9 Z M124.7,275.9 L295.4,275.9 L295.4,48.9 L99.7,48.9 L99.7,114.4 C113.7,115.4 124.8,127.1 124.8,141.4 L124.8,275.9 L124.7,275.9 Z" id="Shape" fill="#3A3033"></path>
            <path d="M199.2,332.8 C188.7,332.8 180.1,324.2 180.1,313.7 C180.1,303.2 188.7,294.6 199.2,294.6 C209.7,294.6 218.3,303.2 218.3,313.7 C218.3,324.3 209.8,332.8 199.2,332.8 Z M199.2,305.6 C194.7,305.6 191.1,309.3 191.1,313.7 C191.1,318.2 194.8,321.8 199.2,321.8 C203.7,321.8 207.3,318.1 207.3,313.7 C207.4,309.3 203.7,305.6 199.2,305.6 Z" id="Shape" fill="#3A3033"></path>
            <path d="M215.7,238.2 L179.9,238.2 C171.4,238.2 162.9,234.7 155.4,228.1 L133.1,208.4 L262.4,208.4 L240.1,228.1 C232.7,234.7 224.3,238.2 215.7,238.2 Z M162,219.3 L162.6,219.9 C168.1,224.8 173.9,227.3 179.8,227.3 L215.6,227.3 C221.5,227.3 227.3,224.8 232.8,219.9 L233.4,219.3 L162,219.3 Z" id="Shape" fill="#3A3033"></path>
            <path d="M211.4,218.3 L181,218.3 L180.1,218 C152,208.4 147.3,179.8 148.8,166 L149.3,161.1 L243,161.1 L243.5,166 C245,179.8 240.4,208.4 212.2,218 L211.4,218.3 Z M182.8,207.4 L209.5,207.4 C229.2,200.2 232.3,181.1 232.7,172.1 L159.6,172.1 C159.9,181.1 163,200.1 182.8,207.4 Z" id="Shape" fill="#3A3033"></path>
            <path d="M226.6,208.3 L213.8,208.3 L222.6,199.1 C224.4,197.2 226,195 227.4,192.6 L233.9,196.2 C234.6,196 235.3,195.7 236,195.5 C244.5,192.3 250.3,186.3 252.5,178.5 C252.9,177.1 252.5,175.6 251.5,174.5 C250.4,173.4 248.9,173 247.5,173.4 L243.6,174.4 C243.5,175.6 243.4,176.8 243.3,178 L232.4,176.6 C232.7,174.4 232.8,172.3 232.8,170.1 L232.8,165.9 L244.7,162.7 C250,161.3 255.5,162.8 259.3,166.7 C263.1,170.6 264.5,176.1 263,181.3 C259.9,192.3 251.4,201.1 239.8,205.5 C235.2,207.4 230.9,208.3 226.6,208.3 Z" id="Shape" fill="#3A3033"></path>
            <path d="M211.4,218.3 L181,218.3 L180.1,218 C152,208.4 147.3,179.8 148.8,166 L149.3,161.1 L243,161.1 L243.5,166 C245,179.8 240.4,208.4 212.2,218 L211.4,218.3 Z M182.8,207.4 L209.5,207.4 C229.2,200.2 232.3,181.1 232.7,172.1 L159.6,172.1 C159.9,181.1 163,200.1 182.8,207.4 Z" id="Shape" fill="#3A3033"></path>
            <path d="M226.6,208.3 L226.6,197.4 C229.7,197.4 232.6,196.8 236,195.5 C244.5,192.3 250.3,186.3 252.5,178.5 C252.9,177.1 252.5,175.6 251.5,174.5 C250.4,173.4 248.9,173 247.5,173.4 L239.7,175.5 L236.9,164.9 L244.7,162.8 C250,161.4 255.5,162.9 259.3,166.8 C263.1,170.7 264.5,176.2 263,181.4 C259.9,192.4 251.4,201.2 239.8,205.6 C235.2,207.4 230.9,208.3 226.6,208.3 Z" id="Shape" fill="#3A3033"></path>
            <path d="M205.2,151.8 L185.8,151.8 C175.5,151.8 167.1,143.4 167.1,133.1 C167.1,122.8 175.5,114.4 185.8,114.4 L218,114.4 C226.2,114.4 232.9,107.7 232.9,99.5 C232.9,91.3 226.2,84.6 218,84.6 L159.5,84.6 L159.5,73.7 L218,73.7 C232.3,73.7 243.9,85.3 243.9,99.6 C243.9,113.9 232.3,125.5 218,125.5 L185.8,125.5 C181.5,125.5 178,129 178,133.3 C178,137.6 181.5,141.1 185.8,141.1 L205.2,141.1 L205.2,151.8 Z" id="Shape" fill="#3A3033"></path>
        </g>
    </g>
</svg>