<?xml version="1.0" encoding="utf-8"?>
<!-- Generator: Adobe Illustrator 18.0.0, SVG Export Plug-In . SVG Version: 6.00 Build 0)  -->
<!DOCTYPE svg PUBLIC "-//W3C//DTD SVG 1.1//EN" "http://www.w3.org/Graphics/SVG/1.1/DTD/svg11.dtd">
<svg version="1.1" id="Layer_1" xmlns="http://www.w3.org/2000/svg" xmlns:xlink="http://www.w3.org/1999/xlink" x="0px" y="0px"
	 width="512px" height="512px" viewBox="0 0 512 512" enable-background="new 0 0 512 512" xml:space="preserve">
<g>
	<g>
		<g>
			<path fill="#FFFFFF" d="M112.6,256.6v30.6c0,40.1,21.1,75.3,52.9,95.1h118.1c31.7-19.8,52.9-54.9,52.9-95.1v-30.6H112.6z"/>
		</g>
		<g>
			<path fill="#FFFFFF" d="M224.5,382.3H104.7l0,0c6.9,13.6,20.8,22.3,36.1,22.3h83.7h83.7c15.3,0,29.2-8.6,36.1-22.3l0,0H224.5z"/>
		</g>
		<g>
			<polygon fill="#FFFFFF" points="259.6,419.6 187.5,419.6 167.9,404.6 279.5,404.6 			"/>
		</g>
		<g>
			<g>
				<path fill="#FFFFFF" d="M410.7,301.5c0,24.7-20.1,44.8-44.8,44.8h-46.4c4.9-7.9,8.9-16.5,11.7-25.5h34.6
					c10.7,0,19.3-8.7,19.3-19.3c0-10.7-8.7-19.3-19.3-19.3h-29.5v-25.5h29.5C390.6,256.6,410.7,276.7,410.7,301.5z"/>
			</g>
		</g>
	</g>
	<g>
		<path fill="#95BDA6" d="M112.6,256.6c0,0,37.8-47.3,111.9-47.3c74.9,0,111.9,47.3,111.9,47.3"/>
	</g>
	<g>
		<g>
			<path fill="#3A3033" d="M285.1,387.8H163.9l-1.3-0.8c-34.7-21.6-55.4-58.9-55.4-99.7v-36.1h234.8v36.1
				c0,40.8-20.7,78.1-55.4,99.7L285.1,387.8z M167,376.8H282c30.7-19.7,49-53.1,49-89.6v-25.2H118v25.2
				C118,323.7,136.3,357.1,167,376.8z"/>
		</g>
		<g>
			<path fill="#3A3033" d="M308.2,410H140.7c-17.4,0-33.1-9.7-41-25.3l-4-7.9h257.4l-4,7.9C341.4,400.4,325.7,410,308.2,410z
				 M115,387.8c6.5,7.1,15.8,11.3,25.8,11.3h167.5c10,0,19.3-4.2,25.8-11.3H115z"/>
		</g>
		<g>
			<path fill="#3A3033" d="M261.4,425.1h-75.8l-33.9-26h144.1L261.4,425.1z M189.4,414.1h68.4l5.4-4.1H184L189.4,414.1z"/>
		</g>
		<g>
			<g>
				<path fill="#3A3033" d="M365.9,351.7h-56.2l5.2-8.4c4.7-7.6,8.5-15.7,11.1-24.2l1.2-3.8h38.7c7.6,0,13.9-6.2,13.9-13.8
					c0-7.6-6.2-13.9-13.9-13.9h-35v-36.5h35c27.7,0,50.3,22.6,50.3,50.3C416.2,329.2,393.6,351.7,365.9,351.7z M328.9,340.8h37
					c21.7,0,39.4-17.7,39.4-39.4c0-21.7-17.7-39.4-39.4-39.4h-24v14.6h24c13.7,0,24.8,11.1,24.8,24.8c0,13.7-11.1,24.8-24.8,24.8
					h-30.7C333.5,331.2,331.4,336.1,328.9,340.8z"/>
			</g>
		</g>
	</g>
	<g>
		<path fill="#3A3033" d="M116.8,260l-8.5-6.8c1.6-2,40.3-49.4,116.2-49.4c76.7,0,114.6,47.4,116.2,49.4l-8.6,6.7
			c-0.4-0.4-36.4-45.2-107.6-45.2C153.8,214.8,117.2,259.6,116.8,260z"/>
	</g>
	<g>
		
			<rect x="203.4" y="224.7" transform="matrix(0.7695 0.6387 -0.6387 0.7695 195.2385 -80.3309)" fill="#3A3033" width="10.9" height="11.3"/>
	</g>
	<g>
		
			<rect x="223.9" y="223.8" transform="matrix(0.7414 0.6711 -0.6711 0.7414 213.4205 -95.3106)" fill="#3A3033" width="13" height="10.9"/>
	</g>
	<g>
		
			<rect x="245.6" y="226.5" transform="matrix(0.1445 0.9895 -0.9895 0.1445 443.2959 -50.8606)" fill="#3A3033" width="10.9" height="8.9"/>
	</g>
	<g>
		<path fill="#3A3033" d="M194.9,185.5c-29.2-31.6-0.1-60.2,0.2-60.5l7.6,7.9c-2.2,2.2-21.3,22,0.2,45.2L194.9,185.5z"/>
	</g>
	<g>
		<path fill="#3A3033" d="M274,185.5c-29.2-31.6-0.1-60.2,0.2-60.5l7.6,7.9c-2.2,2.2-21.3,22,0.2,45.2L274,185.5z"/>
	</g>
	<g>
		<path fill="#3A3033" d="M234.9,186c-8.9-7.2-21.4-27.4-4.8-52.5c14.9-22.6-0.8-36.5-2.6-38l6.9-8.5c8.9,7.2,21.4,27.4,4.8,52.5
			c-15.3,23.2,1.8,37.4,2.6,38L234.9,186z"/>
	</g>
</g>
</svg>
