<?xml version="1.0" encoding="utf-8"?>
<!-- Generator: Adobe Illustrator 18.0.0, SVG Export Plug-In . SVG Version: 6.00 Build 0)  -->
<!DOCTYPE svg PUBLIC "-//W3C//DTD SVG 1.1//EN" "http://www.w3.org/Graphics/SVG/1.1/DTD/svg11.dtd">
<svg version="1.1" id="Layer_1" xmlns="http://www.w3.org/2000/svg" xmlns:xlink="http://www.w3.org/1999/xlink" x="0px" y="0px"
	 width="512px" height="512px" viewBox="0 0 512 512" enable-background="new 0 0 512 512" xml:space="preserve">
<g>
	<g>
		<polygon fill="#FFFFFF" points="300,195.8 232.6,195.8 246.8,228.9 300,228.9 353.2,228.9 367.4,195.8 		"/>
	</g>
	<g>
		<path fill="#FFFFFF" d="M358.4,285.6H239.3V260c0-2.2,1.8-4,4-4h111.2c2.2,0,4,1.8,4,4V285.6z"/>
	</g>
	<g>
		<path fill="#FFFFFF" d="M350.1,400.1H247.6c-4.6,0-8.3-3.7-8.3-8.3V285.6h119.1v106.2C358.4,396.4,354.7,400.1,350.1,400.1z"/>
	</g>
	<g>
		<polygon fill="#FFFFFF" points="239.3,266.6 222.2,266.6 214.4,276.1 239.3,285.6 		"/>
	</g>
	<g>
		<polygon fill="#FFFFFF" points="300.6,228.9 268.2,228.9 278.1,256 300.6,256 323.2,256 333.1,228.9 		"/>
	</g>
	<g>
		<path fill="#CD9E5D" d="M239.3,334.6V385c0,8.3,6.8,15.1,15.1,15.1h88.9c8.3,0,15.1-6.8,15.1-15.1v-50.4H239.3z"/>
	</g>
	<g>
		<g>
			<path fill="#9D705C" d="M371.3,382.2h-12.9v-17.1h12.9c3.4,0,6.6-1.6,7.6-3.9l16.9-37.6c0.8-1.8-0.1-3.2-1-4.1l-5.1-5.2
				c-1.5-1.5-4-2.5-6.6-2.5h-24.6v-17.1H383c7.2,0,14,2.8,18.7,7.6l5.1,5.2c6.2,6.4,7.9,15.2,4.4,23l-16.9,37.6
				C390.6,376.7,381.5,382.2,371.3,382.2z"/>
		</g>
	</g>
	<g>
		<path fill="#95BDA6" d="M379.7,195.8V82H98.9V430h280.9v-29.9H229.7c-18.6,0-33.7-15.1-33.7-33.7V229.6
			c0-18.6,15.1-33.7,33.7-33.7H379.7z"/>
	</g>
	<g>
		<path fill="#FFFFFF" d="M131,252.1L131,252.1c-4,0-7.3-3.3-7.3-7.3V115.7c0-4,3.3-7.3,7.3-7.3l0,0c4,0,7.3,3.3,7.3,7.3v129.1
			C138.3,248.9,135,252.1,131,252.1z"/>
	</g>
	<g>
		<rect x="112.5" y="65.1" fill="#9D705C" width="252.2" height="16.9"/>
	</g>
	<g>
		<rect x="112.5" y="430" fill="#9D705C" width="39.9" height="16.9"/>
	</g>
	<g>
		<rect x="324.7" y="430" fill="#9D705C" width="39.9" height="16.9"/>
	</g>
	<g>
		<path fill="#3A3033" d="M385.2,435.4H93.4V76.6h291.8v124.7H229.7c-15.6,0-28.3,12.7-28.3,28.3v136.8c0,15.6,12.7,28.3,28.3,28.3
			h155.5V435.4z M104.3,424.5h269.9v-18.9H229.7c-21.6,0-39.2-17.6-39.2-39.2V229.6c0-21.6,17.6-39.2,39.2-39.2h144.6V87.5H104.3
			V424.5z"/>
	</g>
	<g>
		<path fill="#3A3033" d="M370.1,87.5H107V59.6h263.1V87.5z M117.9,76.6h241.2v-6H117.9V76.6z"/>
	</g>
	<g>
		<path fill="#3A3033" d="M157.9,452.4H107v-27.9h50.9V452.4z M117.9,441.4h29v-6h-29V441.4z"/>
	</g>
	<g>
		<path fill="#3A3033" d="M370.1,452.4h-50.9v-27.9h50.9V452.4z M330.2,441.4h29v-6h-29V441.4z"/>
	</g>
	<g>
		<path fill="#3A3033" d="M131,257.6c-7,0-12.8-5.7-12.8-12.8V115.7c0-7,5.7-12.8,12.8-12.8c7,0,12.8,5.7,12.8,12.8v129.1
			C143.7,251.9,138,257.6,131,257.6z M131,113.8c-1,0-1.8,0.8-1.8,1.8v129.1c0,1,0.8,1.8,1.8,1.8c1,0,1.8-0.8,1.8-1.8V115.7
			C132.8,114.7,132,113.8,131,113.8z"/>
	</g>
	<g>
		<rect x="154.5" y="108.1" fill="#3A3033" width="17.5" height="10.9"/>
	</g>
	<g>
		<rect x="154.5" y="134.5" fill="#3A3033" width="10.9" height="10.9"/>
	</g>
	<g>
		<rect x="154.5" y="160.9" fill="#3A3033" width="10.9" height="10.9"/>
	</g>
	<g>
		<rect x="154.5" y="160.9" fill="#3A3033" width="17.5" height="10.9"/>
	</g>
	<g>
		<rect x="154.5" y="187.3" fill="#3A3033" width="10.9" height="10.9"/>
	</g>
	<g>
		<rect x="154.5" y="213.7" fill="#3A3033" width="10.9" height="10.9"/>
	</g>
	<g>
		<rect x="154.5" y="213.7" fill="#3A3033" width="17.5" height="10.9"/>
	</g>
	<g>
		<rect x="154.5" y="240.1" fill="#3A3033" width="10.9" height="10.9"/>
	</g>
	<g>
		<path fill="#3A3033" d="M356.8,234.3H243.2l-18.9-44h151.5L356.8,234.3z M250.4,223.4h99.2l9.5-22.1H240.9L250.4,223.4z"/>
	</g>
	<g>
		<path fill="#3A3033" d="M363.9,291H233.8v-27.8c0-7,5.7-12.7,12.7-12.7h104.7c7,0,12.7,5.7,12.7,12.7V291z M244.8,280.1h108.2
			v-16.9c0-1-0.8-1.7-1.7-1.7H246.5c-1,0-1.7,0.8-1.7,1.7V280.1z"/>
	</g>
	<g>
		<path fill="#3A3033" d="M343.3,405.6h-88.9c-11.3,0-20.6-9.2-20.6-20.6V280.1h130.1V385C363.9,396.3,354.6,405.6,343.3,405.6z
			 M244.8,291v94c0,5.3,4.3,9.6,9.6,9.6h88.9c5.3,0,9.6-4.3,9.6-9.6v-94H244.8z"/>
	</g>
	<g>
		<path fill="#3A3033" d="M244.8,293.5l-39.4-15l14.3-17.4h25.1V293.5z M223.4,273.7l10.4,4V272h-9L223.4,273.7z"/>
	</g>
	<g>
		<path fill="#3A3033" d="M327,261.5h-52.7l-13.9-38.1h80.4L327,261.5z M281.9,250.5h37.4l5.9-16.2H276L281.9,250.5z"/>
	</g>
	<g>
		<g>
			<path fill="#3A3033" d="M371.3,387.6h-18.4v-28h18.4c1.3,0,2.3-0.5,2.6-0.8l16.2-36.2l-4.5-4.5c-0.3-0.3-1.3-0.8-2.7-0.8h-30.1
				v-28H383c8.7,0,16.9,3.4,22.6,9.2l5.1,5.2c7.8,8,9.9,19.2,5.5,29.1l-16.9,37.6C394.7,380.9,383.7,387.6,371.3,387.6z
				 M363.9,376.7h7.4c8.1,0,15.2-4.2,18.1-10.7l16.9-37.6c2.6-5.8,1.4-12.2-3.3-17l-5.1-5.2c-3.7-3.8-9.1-5.9-14.8-5.9h-19.2v6.1
				H383c4.1,0,7.9,1.5,10.5,4.1l5.1,5.2c2.9,2.9,3.6,6.7,2.1,10.2l-16.9,37.6c-1.9,4.2-6.9,7.1-12.5,7.1h-7.4V376.7z"/>
		</g>
	</g>
</g>
</svg>
