<?xml version="1.0" encoding="UTF-8"?>
<svg width="322px" height="339px" viewBox="0 0 322 339" version="1.1" xmlns="http://www.w3.org/2000/svg" xmlns:xlink="http://www.w3.org/1999/xlink">
    <!-- Generator: Sketch 51 (57462) - http://www.bohemiancoding.com/sketch -->
    <title>coffee with cream</title>
    <desc>Created with Sketch.</desc>
    <defs></defs>
    <g id="Page-1" stroke="none" stroke-width="1" fill="none" fill-rule="evenodd">
        <g id="coffee-with-cream" fill-rule="nonzero">
            <g id="Group" transform="translate(9.000000, 169.000000)" fill="#FFFFFF">
                <path d="M8.6,0.6 L8.6,31.2 C8.6,71.3 29.7,106.5 61.5,126.3 L179.6,126.3 C211.3,106.5 232.5,71.4 232.5,31.2 L232.5,0.6 L8.6,0.6 Z" id="Shape"></path>
                <path d="M120.5,126.3 L0.7,126.3 C7.6,139.9 21.5,148.6 36.8,148.6 L120.5,148.6 L204.2,148.6 C219.5,148.6 233.4,140 240.3,126.3 L120.5,126.3 Z" id="Shape"></path>
                <polygon id="Shape" points="155.6 163.6 83.5 163.6 63.9 148.6 175.5 148.6"></polygon>
                <path d="M306.7,45.5 C306.7,70.2 286.6,90.3 261.9,90.3 L215.5,90.3 C220.4,82.4 224.4,73.8 227.2,64.8 L261.8,64.8 C272.5,64.8 281.1,56.1 281.1,45.5 C281.1,34.8 272.4,26.2 261.8,26.2 L232.3,26.2 L232.3,0.7 L261.8,0.7 C286.6,0.6 306.7,20.7 306.7,45.5 Z" id="Shape"></path>
            </g>
            <path d="M17.6,169.6 C17.6,169.6 55.4,122.3 129.5,122.3 C204.4,122.3 241.4,169.6 241.4,169.6" id="Shape" fill="#95BDA6"></path>
            <g id="Group" transform="translate(0.000000, 164.000000)" fill="#3A3033">
                <path d="M190.1,136.8 L68.9,136.8 L67.6,136 C32.9,114.4 12.2,77.1 12.2,36.3 L12.2,0.2 L247,0.2 L247,36.3 C247,77.1 226.3,114.4 191.6,136 L190.1,136.8 Z M72,125.8 L187,125.8 C217.7,106.1 236,72.7 236,36.2 L236,11 L23,11 L23,36.2 C23,72.7 41.3,106.1 72,125.8 Z" id="Shape"></path>
                <path d="M213.2,159 L45.7,159 C28.3,159 12.6,149.3 4.7,133.7 L0.7,125.8 L258.1,125.8 L254.1,133.7 C246.4,149.4 230.7,159 213.2,159 Z M20,136.8 C26.5,143.9 35.8,148.1 45.8,148.1 L213.3,148.1 C223.3,148.1 232.6,143.9 239.1,136.8 L20,136.8 Z" id="Shape"></path>
                <path d="M166.4,174.1 L90.6,174.1 L56.7,148.1 L200.8,148.1 L166.4,174.1 Z M94.4,163.1 L162.8,163.1 L168.2,159 L89,159 L94.4,163.1 Z" id="Shape"></path>
                <path d="M270.9,100.7 L214.7,100.7 L219.9,92.3 C224.6,84.7 228.4,76.6 231,68.1 L232.2,64.3 L270.9,64.3 C278.5,64.3 284.8,58.1 284.8,50.5 C284.8,42.9 278.6,36.6 270.9,36.6 L235.9,36.6 L235.9,0.1 L270.9,0.1 C298.6,0.1 321.2,22.7 321.2,50.4 C321.2,78.2 298.6,100.7 270.9,100.7 Z M233.9,89.8 L270.9,89.8 C292.6,89.8 310.3,72.1 310.3,50.4 C310.3,28.7 292.6,11 270.9,11 L246.9,11 L246.9,25.6 L270.9,25.6 C284.6,25.6 295.7,36.7 295.7,50.4 C295.7,64.1 284.6,75.2 270.9,75.2 L240.2,75.2 C238.5,80.2 236.4,85.1 233.9,89.8 Z" id="Shape"></path>
            </g>
            <path d="M21.8,173 L13.3,166.2 C14.9,164.2 53.6,116.8 129.5,116.8 C206.2,116.8 244.1,164.2 245.7,166.2 L237.1,172.9 C236.7,172.5 200.7,127.7 129.5,127.7 C58.8,127.8 22.2,172.6 21.8,173 Z" id="Shape" fill="#3A3033"></path>
            <rect id="Rectangle-path" fill="#3A3033" transform="translate(113.824030, 143.315920) rotate(39.693334) translate(-113.824030, -143.315920) " x="108.373845" y="137.665728" width="10.9003703" height="11.3003839"></rect>
            <rect id="Rectangle-path" fill="#3A3033" transform="translate(135.389385, 142.276790) rotate(42.150745) translate(-135.389385, -142.276790) " x="128.889225" y="136.826656" width="13.0003196" height="10.900268"></rect>
            <rect id="Rectangle-path" fill="#3A3033" transform="translate(156.047600, 143.925650) rotate(81.691634) translate(-156.047600, -143.925650) " x="150.597626" y="139.475671" width="10.8999482" height="8.89995772"></rect>
            <path d="M99.9,98.5 C70.7,66.9 99.8,38.3 100.1,38 L107.7,45.9 C105.5,48.1 86.4,67.9 107.9,91.1 L99.9,98.5 Z" id="Shape" fill="#3A3033"></path>
            <path d="M179,98.5 C149.8,66.9 178.9,38.3 179.2,38 L186.8,45.9 C184.6,48.1 165.5,67.9 187,91.1 L179,98.5 Z" id="Shape" fill="#3A3033"></path>
            <path d="M139.9,99 C131,91.8 118.5,71.6 135.1,46.5 C150,23.9 134.3,10 132.5,8.5 L139.4,0 C148.3,7.2 160.8,27.4 144.2,52.5 C128.9,75.7 146,89.9 146.8,90.5 L139.9,99 Z" id="Shape" fill="#3A3033"></path>
        </g>
    </g>
</svg>