<?xml version="1.0" encoding="utf-8"?>
<!-- Generator: Adobe Illustrator 18.0.0, SVG Export Plug-In . SVG Version: 6.00 Build 0)  -->
<!DOCTYPE svg PUBLIC "-//W3C//DTD SVG 1.1//EN" "http://www.w3.org/Graphics/SVG/1.1/DTD/svg11.dtd">
<svg version="1.1" id="Layer_1" xmlns="http://www.w3.org/2000/svg" xmlns:xlink="http://www.w3.org/1999/xlink" x="0px" y="0px"
	 width="512px" height="512px" viewBox="0 0 512 512" enable-background="new 0 0 512 512" xml:space="preserve">
<g>
	<g>
		<path fill="#FFFFFF" d="M206.3,221.4v183.4c0,11.9-9.7,21.6-21.6,21.6h201.8c18.1,0,32.7-14.7,32.7-32.7V118.3
			c0-18.1-14.7-32.7-32.7-32.7H182.6c-18.1,0-32.7,14.7-32.7,32.7v81.4h31.4C181.2,199.8,204.3,197.2,206.3,221.4z"/>
	</g>
	<g>
		<path fill="#CD9E5D" d="M387.9,123.4v238H206.3v-140c0-11.7-9.7-21.6-21.6-21.6h-3.5v-76.4H387.9z"/>
	</g>
	<g>
		<path fill="#FFFFFF" d="M297.5,292.8c31.4-10.8,27.6-46.3,27.6-46.3h-83.8c0,0-3.8,35.5,27.6,46.3H297.5z"/>
	</g>
	<g>
		<path fill="#FFFFFF" d="M234.6,293.8l11.5,10.1c6.5,5.7,13.6,8.7,20.8,8.7h4.6h26.5h4.6c7.2,0,14.4-3,20.8-8.7l11.5-10.1H234.6z"
			/>
	</g>
	<g>
		<rect x="113.6" y="226.3" fill="#FFFFFF" width="74" height="135.1"/>
	</g>
	<g>
		<path fill="#FFFFFF" d="M194.4,426.4h-89.8c-6.5,0-11.8-5.3-11.8-11.8V211.6c0-6.5,5.3-11.8,11.8-11.8h89.8
			c6.5,0,11.8,5.3,11.8,11.8v202.9C206.3,421.1,201,426.4,194.4,426.4z"/>
	</g>
	<g>
		<rect x="113.6" y="226.3" fill="#CD9E5D" width="74" height="135.1"/>
	</g>
	<g>
		<circle fill="#FFFFFF" cx="149.5" cy="395.7" r="13.6"/>
	</g>
	<g>
		<circle fill="#FFFFFF" cx="286.2" cy="393.7" r="13.6"/>
	</g>
	<g>
		<path fill="#3A3033" d="M184.7,431.8h-70.3c-14.9,0-27.1-12.1-27.1-27.1V221.4c0-14.9,12.1-27.1,27.1-27.1h70.3
			c14.9,0,27.1,12.1,27.1,27.1v183.4C211.7,419.7,199.6,431.8,184.7,431.8z M114.4,205.3c-8.9,0-16.1,7.2-16.1,16.1v183.4
			c0,8.9,7.2,16.1,16.1,16.1h70.3c8.9,0,16.1-7.2,16.1-16.1V221.4c0-8.9-7.2-16.1-16.1-16.1H114.4z"/>
	</g>
	<g>
		<path fill="#3A3033" d="M193.1,366.9h-84.9V220.8h84.9V366.9z M119.1,355.9h63.1V231.8h-63.1V355.9z"/>
	</g>
	<g>
		<path fill="#3A3033" d="M149.5,414.8c-10.5,0-19.1-8.6-19.1-19.1c0-10.5,8.6-19.1,19.1-19.1c10.5,0,19.1,8.6,19.1,19.1
			C168.6,406.2,160,414.8,149.5,414.8z M149.5,387.5c-4.5,0-8.1,3.7-8.1,8.1c0,4.5,3.7,8.1,8.1,8.1c4.5,0,8.1-3.7,8.1-8.1
			C157.7,391.2,154,387.5,149.5,387.5z"/>
	</g>
	<g>
		<path fill="#3A3033" d="M386.5,431.8H184.7v-10.9c8.9,0,16.1-7.2,16.1-16.1V221.6c-1.2-13.6-10.2-16.4-17.7-16.4
			c-0.8,0-1.2,0-1.4,0.1l-0.6,0h-36.8v-86.9c0-21.1,17.1-38.2,38.2-38.2h203.9c21.1,0,38.2,17.1,38.2,38.2v275.3
			C424.7,414.7,407.6,431.8,386.5,431.8z M206.4,420.9h180.1c15,0,27.3-12.2,27.3-27.3V118.3c0-15-12.2-27.3-27.3-27.3H182.6
			c-15,0-27.3,12.2-27.3,27.3v76h25.6c0.4,0,1.2-0.1,2.2-0.1c12.8,0,27,7,28.6,26.7l0,0.4v183.4
			C211.7,410.8,209.7,416.4,206.4,420.9z"/>
	</g>
	<g>
		<path fill="#3A3033" d="M393.3,366.9H200.8V221.4c0-8.7-7.4-16.1-16.1-16.1h-8.9v-87.3h217.6V366.9z M211.7,355.9h170.7V128.9
			H186.7v65.5c14,1,25.1,12.7,25.1,27V355.9z"/>
	</g>
	<g>
		<path fill="#3A3033" d="M286.2,412.8c-10.5,0-19.1-8.6-19.1-19.1c0-10.5,8.6-19.1,19.1-19.1c10.5,0,19.1,8.6,19.1,19.1
			C305.3,404.3,296.8,412.8,286.2,412.8z M286.2,385.6c-4.5,0-8.1,3.7-8.1,8.1c0,4.5,3.7,8.1,8.1,8.1c4.5,0,8.1-3.7,8.1-8.1
			C294.4,389.3,290.7,385.6,286.2,385.6z"/>
	</g>
	<g>
		<path fill="#3A3033" d="M302.7,318.2h-35.8c-8.5,0-17-3.5-24.5-10.1l-22.3-19.7h129.3l-22.3,19.7
			C319.7,314.7,311.3,318.2,302.7,318.2z M249,299.3l0.6,0.6c5.5,4.9,11.3,7.4,17.2,7.4h35.8c5.9,0,11.7-2.5,17.2-7.4l0.6-0.6H249z"
			/>
	</g>
	<g>
		<path fill="#3A3033" d="M298.4,298.3H268l-0.9-0.3c-28.1-9.6-32.8-38.2-31.3-52l0.5-4.9H330l0.5,4.9c1.5,13.8-3.1,42.4-31.3,52
			L298.4,298.3z M269.8,287.4h26.7c19.7-7.2,22.8-26.3,23.2-35.3h-73.1C246.9,261.1,250,280.1,269.8,287.4z"/>
	</g>
	<g>
		<g>
			<path fill="#3A3033" d="M313.6,288.3h-12.8l8.8-9.2c1.8-1.9,3.4-4.1,4.8-6.5l6.5,3.6c0.7-0.2,1.4-0.5,2.1-0.7
				c8.5-3.2,14.3-9.2,16.5-17c0.4-1.4,0-2.9-1-4c-1.1-1.1-2.6-1.5-4-1.1l-3.9,1c-0.1,1.2-0.2,2.4-0.3,3.6l-10.9-1.4
				c0.3-2.2,0.4-4.3,0.4-6.5v-4.2l11.9-3.2c5.3-1.4,10.8,0.1,14.6,4c3.8,3.9,5.2,9.4,3.7,14.6c-3.1,11-11.6,19.8-23.2,24.2
				C322.2,287.4,317.9,288.3,313.6,288.3z"/>
		</g>
	</g>
	<g>
		<path fill="#3A3033" d="M298.4,298.3H268l-0.9-0.3c-28.1-9.6-32.8-38.2-31.3-52l0.5-4.9H330l0.5,4.9c1.5,13.8-3.1,42.4-31.3,52
			L298.4,298.3z M269.8,287.4h26.7c19.7-7.2,22.8-26.3,23.2-35.3h-73.1C246.9,261.1,250,280.1,269.8,287.4z"/>
	</g>
	<g>
		<g>
			<path fill="#3A3033" d="M313.6,288.3v-10.9c3.1,0,6-0.6,9.4-1.9c8.5-3.2,14.3-9.2,16.5-17c0.4-1.4,0-2.9-1-4
				c-1.1-1.1-2.6-1.5-4-1.1l-7.8,2.1l-2.8-10.6l7.8-2.1c5.3-1.4,10.8,0.1,14.6,4c3.8,3.9,5.2,9.4,3.7,14.6
				c-3.1,11-11.6,19.8-23.2,24.2C322.2,287.4,317.9,288.3,313.6,288.3z"/>
		</g>
	</g>
	<g>
		<path fill="#3A3033" d="M292.2,231.8h-19.4c-10.3,0-18.7-8.4-18.7-18.7c0-10.3,8.4-18.7,18.7-18.7h32.2c8.2,0,14.9-6.7,14.9-14.9
			s-6.7-14.9-14.9-14.9h-58.5v-10.9h58.5c14.3,0,25.9,11.6,25.9,25.9c0,14.3-11.6,25.9-25.9,25.9h-32.2c-4.3,0-7.8,3.5-7.8,7.8
			c0,4.3,3.5,7.8,7.8,7.8h19.4V231.8z"/>
	</g>
</g>
</svg>
