<?xml version="1.0" encoding="utf-8"?>
<!-- Generator: Adobe Illustrator 18.0.0, SVG Export Plug-In . SVG Version: 6.00 Build 0)  -->
<!DOCTYPE svg PUBLIC "-//W3C//DTD SVG 1.1//EN" "http://www.w3.org/Graphics/SVG/1.1/DTD/svg11.dtd">
<svg version="1.1" id="Layer_1" xmlns="http://www.w3.org/2000/svg" xmlns:xlink="http://www.w3.org/1999/xlink" x="0px" y="0px"
	 width="512px" height="512px" viewBox="0 0 512 512" enable-background="new 0 0 512 512" xml:space="preserve">
<g>
	<g>
		<rect x="142.3" y="220.7" fill="#FFFFFF" width="187" height="232.8"/>
	</g>
	<g>
		<g>
			<path fill="#FFFFFF" d="M357.4,409.4c-7.8,0-15.6-2.2-21.8-6.3l-6.2-4v-20.4l17.1,11.1c3.2,2,7,3.1,10.9,3.1
				c9.6,0,17.5-6.3,17.5-14.1V292c0-7.7-7.8-14.1-17.5-14.1c-4,0-7.8,1.1-10.9,3.1l-17.1,11.1v-20.4l6.3-4.1c6.2-4,14-6.2,21.8-6.2
				c19.9,0,36,13.7,36,30.6v86.8C393.5,395.7,377.3,409.4,357.4,409.4z"/>
		</g>
	</g>
	<g>
		<path fill="#9D705C" d="M289.7,317.7c0-14-11.3-25.3-25.3-25.3c-14,0-25.3,11.3-25.3,25.3c0-14-11.3-25.3-25.3-25.3
			c-14,0-25.3,11.3-25.3,25.3c0,6.2,2.3,11.9,6,16.3l0,0l44.6,52.8l44.6-52.8l0,0C287.5,329.7,289.7,324,289.7,317.7z"/>
	</g>
	<g>
		<path fill="#3A3033" d="M334.9,459h-198V215.3h198V459z M147.8,448.1h176.1V226.2H147.8V448.1z"/>
	</g>
	<g>
		<g>
			<path fill="#3A3033" d="M357.4,414.9c-8.9,0-17.7-2.5-24.8-7.1l-8.7-5.7v-33.4l25.6,16.5c2.2,1.4,5.1,2.2,8,2.2
				c6.5,0,12-3.9,12-8.6V292c0-4.7-5.5-8.6-12-8.6c-2.9,0-5.7,0.8-8,2.2l-25.6,16.5v-33.4l8.7-5.7c7.1-4.6,15.9-7.1,24.8-7.1
				c22.9,0,41.5,16.2,41.5,36.1v86.8C398.9,398.7,380.3,414.9,357.4,414.9z M334.9,396.1l3.8,2.4c5.4,3.5,12,5.4,18.8,5.4
				c16.9,0,30.6-11.3,30.6-25.1V292c0-13.9-13.7-25.1-30.6-25.1c-6.8,0-13.5,1.9-18.8,5.4l-3.8,2.4v7.4l8.7-5.6c4-2.6,8.9-4,13.9-4
				c12.6,0,22.9,8.8,22.9,19.5v86.8c0,10.8-10.3,19.5-22.9,19.5c-4.9,0-9.9-1.4-13.9-4l-8.7-5.6V396.1z"/>
		</g>
	</g>
	<g>
		<path fill="#3A3033" d="M239.2,395.4l-52-61.6l0.3-0.3c-2.8-4.7-4.3-10.2-4.3-15.7c0-17,13.8-30.8,30.8-30.8
			c10.5,0,19.7,5.3,25.3,13.3c5.6-8,14.8-13.3,25.3-13.3c17,0,30.8,13.8,30.8,30.8c0,5.3-1.4,10.5-4,15.1l0.4,0.3l-3.7,4.4
			L239.2,395.4z M202,334.4l37.2,44l36.7-43.4l0,0l3.7-4.4c3-3.6,4.7-8.1,4.7-12.8c0-10.9-8.9-19.8-19.8-19.8
			c-10.9,0-19.8,8.9-19.8,19.8h-10.9c0-10.9-8.9-19.8-19.8-19.8c-10.9,0-19.8,8.9-19.8,19.8c0,4.7,1.7,9.2,4.7,12.8L202,334.4
			L202,334.4z"/>
	</g>
	<g>
		<rect x="113.1" y="448.1" fill="#3A3033" width="243" height="10.9"/>
	</g>
	<g>
		<path fill="#3A3033" d="M237.3,124.8l-8.4-7c25.9-30.9,1.4-56,0.3-57.1L237,53C248.4,64.4,263.1,94,237.3,124.8z"/>
	</g>
	<g>
		<path fill="#3A3033" d="M203.8,170c-25.8-30.8-11.1-60.4,0.3-71.8l7.7,7.7c-1.1,1.1-25.4,26.4,0.3,57.1L203.8,170z"/>
	</g>
	<g>
		<path fill="#3A3033" d="M272,198.8l-8.4-7c25.9-30.9,1.4-56,0.3-57.1l7.7-7.7C283.1,138.4,297.8,168.1,272,198.8z"/>
	</g>
</g>
</svg>
