<?xml version="1.0" encoding="utf-8"?>
<!-- Generator: Adobe Illustrator 18.0.0, SVG Export Plug-In . SVG Version: 6.00 Build 0)  -->
<!DOCTYPE svg PUBLIC "-//W3C//DTD SVG 1.1//EN" "http://www.w3.org/Graphics/SVG/1.1/DTD/svg11.dtd">
<svg version="1.1" id="Layer_1" xmlns="http://www.w3.org/2000/svg" xmlns:xlink="http://www.w3.org/1999/xlink" x="0px" y="0px"
	 width="512px" height="512px" viewBox="0 0 512 512" enable-background="new 0 0 512 512" xml:space="preserve">
<g>
	<g>
		<rect x="142.6" y="251" fill="#FFFFFF" width="196.1" height="161.6"/>
	</g>
	<g>
		<rect x="142.6" y="188.6" fill="#9D705C" width="226.9" height="25.4"/>
	</g>
	<g>
		<rect x="165.6" y="214" fill="#9D705C" width="25.4" height="37"/>
	</g>
	<g>
		<rect x="291.1" y="214" fill="#9D705C" width="25.4" height="37"/>
	</g>
	<g>
		<rect x="364" y="93.9" fill="#3A3033" width="10.9" height="153.6"/>
	</g>
	<g>
		<path fill="#3A3033" d="M369.4,219.5H142.6l-5.5-5.5v-25.4l5.5-5.5h226.9l5.5,5.5V214L369.4,219.5z M148,208.5h216v-14.4H148
			V208.5z"/>
	</g>
	<g>
		<path fill="#3A3033" d="M191,256.5h-25.4l-5.5-5.5v-37l5.5-5.5H191l5.5,5.5v37L191,256.5z M171.1,245.5h14.4v-26h-14.4V245.5z"/>
	</g>
	<g>
		<path fill="#3A3033" d="M316.5,256.5h-25.4l-5.5-5.5v-37l5.5-5.5h25.4l5.5,5.5l0,37L316.5,256.5z M296.6,245.5H311l0-26h-14.4
			V245.5z"/>
	</g>
	<g>
		
			<rect x="250.5" y="38.7" transform="matrix(0.2718 0.9623 -0.9623 0.2718 337.1045 -132.3366)" fill="#3A3033" width="10.9" height="235.8"/>
	</g>
	<g>
		<path fill="#3A3033" d="M338.6,418.1H142.6l-5.5-5.5V251l5.5-5.5h196.1l5.5,5.5v161.6L338.6,418.1z M148,407.1h185.1V256.5H148
			V407.1z"/>
	</g>
	<g>
		<g>
			<rect x="223.7" y="381.7" fill="#3A3033" width="31.4" height="10.9"/>
		</g>
	</g>
	<g>
		<g>
			<path fill="#3A3033" d="M253.5,377.3H223l-0.9-0.3c-28.2-9.6-32.8-38.3-31.3-52.1l0.5-4.9h93.8l0.5,4.9
				c1.5,13.8-3.1,42.5-31.3,52.1L253.5,377.3z M224.8,366.4h26.8c10.7-3.9,17.8-11.6,21.2-22.9c1.4-4.7,1.9-9.2,2-12.5h-73.3
				C201.8,340,204.9,359.1,224.8,366.4z"/>
		</g>
	</g>
	<g>
		<path fill="#3A3033" d="M286.3,368h-18.5v-10.9h18.5c5.2,0,9.3-4.2,9.3-9.3c0-5.2-4.2-9.3-9.3-9.3h-6v-10.9h6
			c11.2,0,20.3,9.1,20.3,20.3C306.6,358.9,297.5,368,286.3,368z"/>
	</g>
	<g>
		<path fill="#3A3033" d="M267.9,311.6h-54.4c-7.2,0-13-5.8-13-13V297c0-7.2,5.8-13,13-13h42.1c1.1,0,2.1-0.9,2.1-2.1
			c0-1.1-0.9-2.1-2.1-2.1h-18.6v-10.9h18.6c7.2,0,13,5.8,13,13c0,7.2-5.8,13-13,13h-42.1c-1.1,0-2.1,0.9-2.1,2.1v1.6
			c0,1.1,0.9,2.1,2.1,2.1h54.4V311.6z"/>
	</g>
</g>
</svg>
