<?xml version="1.0" encoding="utf-8"?>
<!-- Generator: Adobe Illustrator 18.0.0, SVG Export Plug-In . SVG Version: 6.00 Build 0)  -->
<!DOCTYPE svg PUBLIC "-//W3C//DTD SVG 1.1//EN" "http://www.w3.org/Graphics/SVG/1.1/DTD/svg11.dtd">
<svg version="1.1" id="Layer_1" xmlns="http://www.w3.org/2000/svg" xmlns:xlink="http://www.w3.org/1999/xlink" x="0px" y="0px"
	 width="512px" height="512px" viewBox="0 0 512 512" enable-background="new 0 0 512 512" xml:space="preserve">
<g>
	<g>
		<path fill="#FFFFFF" d="M70.1,369.7l42.4,20.8c24,11.8,50.4,17.9,77.2,17.9h17.2h98.1h17.2c26.8,0,53.2-6.1,77.2-17.9l42.4-20.8
			H70.1z"/>
	</g>
	<g>
		<g>
			<path fill="#FFFFFF" d="M297.6,369.7c95.2-32.6,83.6-140,83.6-140l-253.8,0c0,0-11.6,107.5,83.6,140L297.6,369.7z"/>
		</g>
		<g>
			<g>
				<path fill="#FFFFFF" d="M440.8,270.1c-8.5,29.9-31.5,51.4-60.1,62.3c-11.4,4.3-22.4,6.9-34.5,6.9c6.9-7.3,12.5-15.1,17-23.1
					c23.1-6.6,48.8-21,57.6-51.9c1.1-4-1-6.8-2-7.8c-1-1-3.8-3.3-8-2.2l-30.4,7.8c1.1-8.6,1.4-16.1,1.4-21.7l23.7-6.3
					c10.3-2.7,20.8,0.2,28.3,7.8C441,249.4,443.7,259.9,440.8,270.1z"/>
			</g>
		</g>
	</g>
	<g>
		<g>
			<path fill="#FFFFFF" d="M297.6,369.7c95.2-32.6,83.6-140,83.6-140l-253.8,0c0,0-11.6,107.5,83.6,140L297.6,369.7z"/>
		</g>
		<g>
			<g>
				<path fill="#FFFFFF" d="M440.8,270.1c-8.5,29.9-31.5,51.4-60.1,62.3c-11.4,4.3-22.4,6.9-34.5,6.9c6.9-7.3,12.5-15.1,17-23.1
					c23.1-6.6,48.8-21,57.6-51.9c1.1-4-1-6.8-2-7.8c-1-1-3.8-3.3-8-2.2l-30.4,7.8c1.1-8.6,1.4-16.1,1.4-21.7l23.7-6.3
					c10.3-2.7,20.8,0.2,28.3,7.8C441,249.4,443.7,259.9,440.8,270.1z"/>
			</g>
		</g>
	</g>
	<g>
		<g>
			<path fill="#3A3033" d="M322.3,413.8H189.7c-27.4,0-55-6.4-79.6-18.5l-63.6-31.2h419l-63.6,31.2
				C377.2,407.5,349.7,413.8,322.3,413.8z M93.7,375.2l21.3,10.4c23.2,11.3,49,17.3,74.8,17.3h132.6c25.8,0,51.6-6,74.8-17.3
				l21.3-10.4H93.7z"/>
		</g>
		<g>
			<rect x="183.4" y="422.3" fill="#3A3033" width="145.1" height="10.9"/>
		</g>
	</g>
	<g>
		<g>
			<path fill="#3A3033" d="M298.5,375.2H210l-0.9-0.3c-40.7-13.9-68.7-43.6-81-85.9c-9.2-31.6-6.4-58.8-6.3-59.9l0.5-4.9l263.6,0
				l0.5,4.9c0.1,1.1,2.9,28.3-6.3,59.9c-12.3,42.3-40.3,72-81,85.9L298.5,375.2z M211.9,364.2h84.8c37.1-13,61.7-39.2,73-77.9
				c6.5-22,6.6-42.2,6.3-51.2l-243.5,0c-0.3,9-0.2,29.1,6.3,51.2C150.2,325,174.8,351.3,211.9,364.2z"/>
		</g>
		<g>
			<g>
				<path fill="#3A3033" d="M346.2,344.8h-12.8l8.8-9.2c6.2-6.5,11.6-13.9,16.2-22l1.1-2l2.2-0.6c29-8.3,47.1-24.5,53.8-48.1
					c0.1-0.3,0.4-1.4-0.7-2.5c-0.3-0.3-1.3-1.1-2.7-0.8l-38.2,9.8l1-8c0.9-7,1.3-14,1.3-21v-4.2l27.7-7.4c3-0.8,6-1.2,9-1.2
					c9.3,0,18,3.7,24.6,10.4c8.8,8.9,12,21.5,8.6,33.5c-8.5,29.8-31.6,53.9-63.4,66C369.6,342.5,358.1,344.8,346.2,344.8z
					 M366.8,320.8c-2.4,4.2-5.1,8.2-8,12c6.4-1,12.9-2.8,19.9-5.5c28.5-10.9,49.3-32.3,56.8-58.7c2.3-8.2,0.2-16.7-5.8-22.8
					c-4.5-4.6-10.5-7.1-16.8-7.1c-2.1,0-4.2,0.3-6.2,0.8l-19.6,5.2c-0.1,3.4-0.3,6.8-0.5,10.2l22.8-5.9c4.6-1.2,9.8,0.2,13.3,3.7
					c3.5,3.5,4.7,8.4,3.4,13.2C418.4,292.3,398,311.3,366.8,320.8z"/>
			</g>
		</g>
	</g>
	<g>
		<g>
			<path fill="#3A3033" d="M298.5,375.2H210l-0.9-0.3c-40.7-13.9-68.7-43.6-81-85.9c-9.2-31.6-6.4-58.8-6.3-59.9l0.5-4.9l263.6,0
				l0.5,4.9c0.1,1.1,2.9,28.3-6.3,59.9c-12.3,42.3-40.3,72-81,85.9L298.5,375.2z M211.9,364.2h84.8c37.1-13,61.7-39.2,73-77.9
				c6.5-22,6.6-42.2,6.3-51.2l-243.5,0c-0.3,9-0.2,29.1,6.3,51.2C150.2,325,174.8,351.3,211.9,364.2z"/>
		</g>
		<g>
			<g>
				<path fill="#3A3033" d="M346.2,344.8h-12.8l8.8-9.2c6.2-6.5,11.6-13.9,16.2-22l1.1-2l2.2-0.6c29-8.3,47.1-24.5,53.8-48.1
					c0.1-0.3,0.4-1.4-0.7-2.5c-0.3-0.3-1.3-1.1-2.7-0.8l-38.2,9.8l1-8c0.9-7,1.3-14,1.3-21v-4.2l27.7-7.4c3-0.8,6-1.2,9-1.2
					c9.3,0,18,3.7,24.6,10.4c8.8,8.9,12,21.5,8.6,33.5c-8.5,29.8-31.6,53.9-63.4,66C369.6,342.5,358.1,344.8,346.2,344.8z
					 M366.8,320.8c-2.4,4.2-5.1,8.2-8,12c6.4-1,12.9-2.8,19.9-5.5c28.5-10.9,49.3-32.3,56.8-58.7c2.3-8.2,0.2-16.7-5.8-22.8
					c-4.5-4.6-10.5-7.1-16.8-7.1c-2.1,0-4.2,0.3-6.2,0.8l-19.6,5.2c-0.1,3.4-0.3,6.8-0.5,10.2l22.8-5.9c4.6-1.2,9.8,0.2,13.3,3.7
					c3.5,3.5,4.7,8.4,3.4,13.2C418.4,292.3,398,311.3,366.8,320.8z"/>
			</g>
		</g>
	</g>
	<g>
		<path fill="#3A3033" d="M254.8,150.6c-25.8-30.8-11.1-60.4,0.3-71.8l7.7,7.7l-3.9-3.9l3.9,3.9c-1,1.1-25.4,26.4,0.3,57.1
			L254.8,150.6z"/>
	</g>
	<g>
		<path fill="#3A3033" d="M284.7,187.6l-8.4-7c25.9-30.9,1.4-56,0.3-57.1l7.7-7.7C295.7,127.1,310.5,156.8,284.7,187.6z"/>
	</g>
	<g>
		<path fill="#3A3033" d="M223.9,210.1c-25.8-30.8-11.1-60.4,0.3-71.8l7.7,7.7l-3.9-3.9l3.9,3.9c-1,1.1-25.4,26.4,0.3,57.1
			L223.9,210.1z"/>
	</g>
</g>
</svg>
