<?xml version="1.0" encoding="utf-8"?>
<!-- Generator: Adobe Illustrator 18.0.0, SVG Export Plug-In . SVG Version: 6.00 Build 0)  -->
<!DOCTYPE svg PUBLIC "-//W3C//DTD SVG 1.1//EN" "http://www.w3.org/Graphics/SVG/1.1/DTD/svg11.dtd">
<svg version="1.1" id="Layer_1" xmlns="http://www.w3.org/2000/svg" xmlns:xlink="http://www.w3.org/1999/xlink" x="0px" y="0px"
	 width="512px" height="512px" viewBox="0 0 512 512" enable-background="new 0 0 512 512" xml:space="preserve">
<g>
	<g>
		<path fill="#FFFFFF" d="M309.9,193.6H238h-71.9c0,0-47.4,89.6-47.4,191.2l0,0c0,17.1,13.9,31,31,31H238h88.3c17.1,0,31-13.9,31-31
			l0,0C357.3,283.1,309.9,193.6,309.9,193.6z"/>
	</g>
	<g>
		<path fill="#9D705C" d="M305,143.6h-0.7v-20.3h-38.6c0-15-12.1-27.1-27.1-27.1c-15,0-27.1,12.1-27.1,27.1h-38.6v20.3h-19.1h-41
			l16.3,16.3c30.3,0,37,33.7,37,33.7h143.8c0-0.5,0-1,0-1.4c1-14.4,20.6-18.2,27.5-5.5c7.1,13.1,26.1,59.6,31.4,78.1
			c9.8,34,37.5,33.3,37.5,33.3c-3.2-31.6-29.5-94.9-43.5-120.3C351.3,156.7,329.1,143.6,305,143.6z"/>
	</g>
	<g>
		<path fill="#CD9E5D" d="M126.8,308.4c-4.8,23.7-8.1,49.6-8.1,76.3c0,17.1,13.9,31,31,31h176.5c17.1,0,31-13.9,31-31
			c0-26.8-3.3-52.7-8.1-76.3H126.8z"/>
	</g>
	<g>
		<path fill="#3A3033" d="M326.3,421.3H149.7c-20.1,0-36.5-16.4-36.5-36.5c0-101.8,47.5-192.8,48-193.8l1.5-2.9h150.4l1.5,2.9
			c0.5,0.9,48,91.9,48,193.8C362.8,404.9,346.4,421.3,326.3,421.3z M169.5,199c-7.9,16.1-45.3,96.8-45.3,185.7
			c0,14.1,11.5,25.6,25.6,25.6h176.5c14.1,0,25.6-11.5,25.6-25.6c0-89-37.3-169.6-45.3-185.7H169.5z"/>
	</g>
	<g>
		<path fill="#3A3033" d="M406.3,303.5c-1.5,0-9.5-0.2-18.5-5.1c-8-4.3-18.7-13.4-24.1-32.2c-5.3-18.3-24-64.1-31-77
			c-2.4-4.4-6.5-4.9-8.2-4.9c-4.1,0-8.7,2.5-9.1,8.1c0,0.3,0,0.7,0,1.1v5.5H161.6l-0.9-4.4c-0.2-1.2-6.2-29.3-31.6-29.3h-2.3
			l-27.3-27.3H305c26.1,0,50.1,14.2,62.7,37.1c13.2,24,40.7,88.9,44.1,122.4l0.6,5.9L406.3,303.5z M324.5,173.5
			c7.5,0,14.2,4,17.8,10.6c7.2,13.2,26.4,60.4,31.8,79.2c5.8,20.1,18.2,26.5,25.8,28.5c-5.8-32.5-29.4-88.7-41.8-111.3
			c-10.7-19.4-31-31.4-53.1-31.4H126l5.5,5.5c13.3,0.7,24.4,7.3,32.1,19.3c3.5,5.4,5.6,10.7,6.7,14.3h134.8
			C307.3,179.5,315.1,173.5,324.5,173.5z"/>
	</g>
	<g>
		<rect x="219.4" y="221" fill="#3A3033" width="43.4" height="10.9"/>
	</g>
	<g>
		<rect x="230.8" y="248.5" fill="#3A3033" width="20.8" height="10.9"/>
	</g>
	<g>
		<rect x="230.8" y="275.9" fill="#3A3033" width="20.8" height="10.9"/>
	</g>
	<g>
		<rect x="219.4" y="275.9" fill="#3A3033" width="43.4" height="10.9"/>
	</g>
	<g>
		<rect x="230.8" y="303.4" fill="#3A3033" width="20.8" height="10.9"/>
	</g>
	<g>
		<rect x="230.8" y="330.8" fill="#3A3033" width="20.8" height="10.9"/>
	</g>
	<g>
		<rect x="219.4" y="330.8" fill="#3A3033" width="43.4" height="10.9"/>
	</g>
	<g>
		<rect x="230.8" y="358.3" fill="#3A3033" width="20.8" height="10.9"/>
	</g>
	<g>
		<rect x="230.8" y="385.8" fill="#3A3033" width="20.8" height="10.9"/>
	</g>
	<g>
		<rect x="219.4" y="385.8" fill="#3A3033" width="43.4" height="10.9"/>
	</g>
	<g>
		<g>
			<path fill="#3A3033" d="M309.8,149H167.4v-31.2h142.4V149z M178.3,138.1h120.5v-9.3H178.3V138.1z"/>
		</g>
	</g>
	<g>
		<path fill="#3A3033" d="M271.2,128.8H206v-5.5c0-18,14.6-32.6,32.6-32.6s32.6,14.6,32.6,32.6V128.8z M217.6,117.8h41.9
			c-2.4-9.3-10.9-16.2-20.9-16.2S220.1,108.5,217.6,117.8z"/>
	</g>
</g>
</svg>
