<?xml version="1.0" encoding="utf-8"?>
<!-- Generator: Adobe Illustrator 18.0.0, SVG Export Plug-In . SVG Version: 6.00 Build 0)  -->
<!DOCTYPE svg PUBLIC "-//W3C//DTD SVG 1.1//EN" "http://www.w3.org/Graphics/SVG/1.1/DTD/svg11.dtd">
<svg version="1.1" id="Layer_1" xmlns="http://www.w3.org/2000/svg" xmlns:xlink="http://www.w3.org/1999/xlink" x="0px" y="0px"
	 width="512px" height="512px" viewBox="0 0 512 512" enable-background="new 0 0 512 512" xml:space="preserve">
<g>
	<g>
		<polygon fill="#FFFFFF" points="225.9,401.7 226,402.4 229.1,420.8 324.7,420.8 327.8,402.4 327.9,401.7 		"/>
	</g>
	<g>
		<path fill="#FFFFFF" d="M212.9,196.7c0,0-14.2-24.2,23.2-33.5c37.4-9.3,41.7-39,41.7-39s67.5,30.5,60.9,72.5H212.9z"/>
	</g>
	<g>
		<polygon fill="#95BDA6" points="191.7,196.7 197.5,231.6 356.3,231.6 362.1,196.7 		"/>
	</g>
	<g>
		<polygon fill="#CD9E5D" points="356.3,231.6 327.8,402.4 226,402.4 197.5,231.6 		"/>
	</g>
	<g>
		<path fill="#3A3033" d="M329.3,426.2H224.4l-39.2-235h183.3L329.3,426.2z M233.7,415.3h86.4l35.5-213.2H198.2L233.7,415.3z"/>
	</g>
	<g>
		<path fill="#3A3033" d="M329.3,426.2H224.4l-39.2-235h183.3L329.3,426.2z M233.7,415.3h86.4l35.5-213.2H198.2L233.7,415.3z"/>
	</g>
	<g>
		<rect x="225.5" y="396.9" fill="#3A3033" width="102.8" height="10.9"/>
	</g>
	<g>
		<path fill="#3A3033" d="M208.2,199.4c-0.3-0.4-6.3-11-1.6-22.3c3.8-9.1,13.3-15.6,28.2-19.3c33.4-8.3,37.5-34.2,37.6-34.5l7.7-4.2
			c2.9,1.3,71.2,32.8,64,78.3l-10.8-1.7c3-19.1-12.5-36-26-46.9c-9.8-7.8-19.9-13.7-26-16.9c-3.8,10.4-14.5,29.2-43.8,36.5
			c-11.2,2.8-18.3,7.2-20.7,12.9c-2.6,6.2,0.9,12.4,1,12.5L208.2,199.4z"/>
	</g>
	<g>
		<path fill="#3A3033" d="M260.2,199.2c-0.3-0.7-8.3-16.8,11-32.4c15.9-12.9,1.8-39.7,1.7-40l9.7-5.1c0.2,0.3,4.6,8.6,6.4,19.1
			c2.5,14.8-1.2,26.7-10.8,34.5c-11.9,9.7-8.5,18.1-8.1,19L260.2,199.2z"/>
	</g>
	<g>
		<path fill="#3A3033" d="M307.3,178.7l-10.9-0.6c1.7-30-21.5-45.2-22.5-45.8l5.8-9.2C281,123.8,309.4,142.2,307.3,178.7z"/>
	</g>
	<g>
		<polygon fill="#3A3033" points="221.8,167.6 205.9,113.6 143.5,96.3 146.4,85.8 211.7,103.9 215.5,107.6 232.3,164.5 		"/>
	</g>
</g>
</svg>
