<?xml version="1.0" encoding="UTF-8"?>
<svg width="420px" height="356px" viewBox="0 0 420 356" version="1.1" xmlns="http://www.w3.org/2000/svg" xmlns:xlink="http://www.w3.org/1999/xlink">
    <!-- Generator: Sketch 51 (57462) - http://www.bohemiancoding.com/sketch -->
    <title>coffee cup</title>
    <desc>Created with Sketch.</desc>
    <defs></defs>
    <g id="Page-1" stroke="none" stroke-width="1" fill="none" fill-rule="evenodd">
        <g id="coffee-cup" fill-rule="nonzero">
            <path d="M24.1,291.7 L66.5,312.5 C90.5,324.3 116.9,330.4 143.7,330.4 L160.9,330.4 L259,330.4 L276.2,330.4 C303,330.4 329.4,324.3 353.4,312.5 L395.8,291.7 L24.1,291.7 Z" id="Shape" fill="#FFFFFF"></path>
            <g id="Group" transform="translate(80.000000, 151.000000)" fill="#FFFFFF">
                <path d="M171.6,140.7 C266.8,108.1 255.2,0.7 255.2,0.7 L1.4,0.7 C1.4,0.7 -10.2,108.2 85,140.7 L171.6,140.7 Z" id="Shape"></path>
                <path d="M314.8,41.1 C306.3,71 283.3,92.5 254.7,103.4 C243.3,107.7 232.3,110.3 220.2,110.3 C227.1,103 232.7,95.2 237.2,87.2 C260.3,80.6 286,66.2 294.8,35.3 C295.9,31.3 293.8,28.5 292.8,27.5 C291.8,26.5 289,24.2 284.8,25.3 L254.4,33.1 C255.5,24.5 255.8,17 255.8,11.4 L279.5,5.1 C289.8,2.4 300.3,5.3 307.8,12.9 C315,20.4 317.7,30.9 314.8,41.1 Z" id="Shape"></path>
            </g>
            <g id="Group" transform="translate(80.000000, 151.000000)" fill="#FFFFFF">
                <path d="M171.6,140.7 C266.8,108.1 255.2,0.7 255.2,0.7 L1.4,0.7 C1.4,0.7 -10.2,108.2 85,140.7 L171.6,140.7 Z" id="Shape"></path>
                <path d="M314.8,41.1 C306.3,71 283.3,92.5 254.7,103.4 C243.3,107.7 232.3,110.3 220.2,110.3 C227.1,103 232.7,95.2 237.2,87.2 C260.3,80.6 286,66.2 294.8,35.3 C295.9,31.3 293.8,28.5 292.8,27.5 C291.8,26.5 289,24.2 284.8,25.3 L254.4,33.1 C255.5,24.5 255.8,17 255.8,11.4 L279.5,5.1 C289.8,2.4 300.3,5.3 307.8,12.9 C315,20.4 317.7,30.9 314.8,41.1 Z" id="Shape"></path>
            </g>
            <g id="Group" transform="translate(0.000000, 286.000000)" fill="#3A3033">
                <path d="M276.3,49.8 L143.7,49.8 C116.3,49.8 88.7,43.4 64.1,31.3 L0.5,0.1 L419.5,0.1 L355.9,31.3 C331.2,43.5 303.7,49.8 276.3,49.8 Z M47.7,11.2 L69,21.6 C92.2,32.9 118,38.9 143.8,38.9 L276.4,38.9 C302.2,38.9 328,32.9 351.2,21.6 L372.5,11.2 L47.7,11.2 Z" id="Shape"></path>
                <rect id="Rectangle-path" x="137.4" y="58.3" width="145.1" height="10.9"></rect>
            </g>
            <g id="Group" transform="translate(75.000000, 146.000000)" fill="#3A3033">
                <path d="M177.5,151.2 L89,151.2 L88.1,150.9 C47.4,137 19.4,107.3 7.1,65 C-2.1,33.4 0.7,6.2 0.8,5.1 L1.3,0.2 L264.9,0.2 L265.4,5.1 C265.5,6.2 268.3,33.4 259.1,65 C246.8,107.3 218.8,137 178.1,150.9 L177.5,151.2 Z M90.9,140.2 L175.7,140.2 C212.8,127.2 237.4,101 248.7,62.3 C255.2,40.3 255.3,20.1 255,11.1 L11.5,11.1 C11.2,20.1 11.3,40.2 17.8,62.3 C29.2,101 53.8,127.3 90.9,140.2 Z" id="Shape"></path>
                <path d="M225.2,120.8 L212.4,120.8 L221.2,111.6 C227.4,105.1 232.8,97.7 237.4,89.6 L238.5,87.6 L240.7,87 C269.7,78.7 287.8,62.5 294.5,38.9 C294.6,38.6 294.9,37.5 293.8,36.4 C293.5,36.1 292.5,35.3 291.1,35.6 L252.9,45.4 L253.9,37.4 C254.8,30.4 255.2,23.4 255.2,16.4 L255.2,12.2 L282.9,4.8 C285.9,4 288.9,3.6 291.9,3.6 C301.2,3.6 309.9,7.3 316.5,14 C325.3,22.9 328.5,35.5 325.1,47.5 C316.6,77.3 293.5,101.4 261.7,113.5 C248.6,118.5 237.1,120.8 225.2,120.8 Z M245.8,96.8 C243.4,101 240.7,105 237.8,108.8 C244.2,107.8 250.7,106 257.7,103.3 C286.2,92.4 307,71 314.5,44.6 C316.8,36.4 314.7,27.9 308.7,21.8 C304.2,17.2 298.2,14.7 291.9,14.7 C289.8,14.7 287.7,15 285.7,15.5 L266.1,20.7 C266,24.1 265.8,27.5 265.6,30.9 L288.4,25 C293,23.8 298.2,25.2 301.7,28.7 C305.2,32.2 306.4,37.1 305.1,41.9 C297.4,68.3 277,87.3 245.8,96.8 Z" id="Shape"></path>
            </g>
            <g id="Group" transform="translate(75.000000, 146.000000)" fill="#3A3033">
                <path d="M177.5,151.2 L89,151.2 L88.1,150.9 C47.4,137 19.4,107.3 7.1,65 C-2.1,33.4 0.7,6.2 0.8,5.1 L1.3,0.2 L264.9,0.2 L265.4,5.1 C265.5,6.2 268.3,33.4 259.1,65 C246.8,107.3 218.8,137 178.1,150.9 L177.5,151.2 Z M90.9,140.2 L175.7,140.2 C212.8,127.2 237.4,101 248.7,62.3 C255.2,40.3 255.3,20.1 255,11.1 L11.5,11.1 C11.2,20.1 11.3,40.2 17.8,62.3 C29.2,101 53.8,127.3 90.9,140.2 Z" id="Shape"></path>
                <path d="M225.2,120.8 L212.4,120.8 L221.2,111.6 C227.4,105.1 232.8,97.7 237.4,89.6 L238.5,87.6 L240.7,87 C269.7,78.7 287.8,62.5 294.5,38.9 C294.6,38.6 294.9,37.5 293.8,36.4 C293.5,36.1 292.5,35.3 291.1,35.6 L252.9,45.4 L253.9,37.4 C254.8,30.4 255.2,23.4 255.2,16.4 L255.2,12.2 L282.9,4.8 C285.9,4 288.9,3.6 291.9,3.6 C301.2,3.6 309.9,7.3 316.5,14 C325.3,22.9 328.5,35.5 325.1,47.5 C316.6,77.3 293.5,101.4 261.7,113.5 C248.6,118.5 237.1,120.8 225.2,120.8 Z M245.8,96.8 C243.4,101 240.7,105 237.8,108.8 C244.2,107.8 250.7,106 257.7,103.3 C286.2,92.4 307,71 314.5,44.6 C316.8,36.4 314.7,27.9 308.7,21.8 C304.2,17.2 298.2,14.7 291.9,14.7 C289.8,14.7 287.7,15 285.7,15.5 L266.1,20.7 C266,24.1 265.8,27.5 265.6,30.9 L288.4,25 C293,23.8 298.2,25.2 301.7,28.7 C305.2,32.2 306.4,37.1 305.1,41.9 C297.4,68.3 277,87.3 245.8,96.8 Z" id="Shape"></path>
            </g>
            <path d="M208.8,72.6 C183,41.8 197.7,12.2 209.1,0.8 L216.8,8.5 L212.9,4.6 L216.8,8.5 C215.8,9.6 191.4,34.9 217.1,65.6 L208.8,72.6 Z" id="Shape" fill="#3A3033"></path>
            <path d="M238.7,109.6 L230.3,102.6 C256.2,71.7 231.7,46.6 230.6,45.5 L238.3,37.8 C249.7,49.1 264.5,78.8 238.7,109.6 Z" id="Shape" fill="#3A3033"></path>
            <path d="M177.9,132.1 C152.1,101.3 166.8,71.7 178.2,60.3 L185.9,68 L182,64.1 L185.9,68 C184.9,69.1 160.5,94.4 186.2,125.1 L177.9,132.1 Z" id="Shape" fill="#3A3033"></path>
        </g>
    </g>
</svg>