<?xml version="1.0" encoding="utf-8"?>
<!-- Generator: Adobe Illustrator 18.0.0, SVG Export Plug-In . SVG Version: 6.00 Build 0)  -->
<!DOCTYPE svg PUBLIC "-//W3C//DTD SVG 1.1//EN" "http://www.w3.org/Graphics/SVG/1.1/DTD/svg11.dtd">
<svg version="1.1" id="Layer_1" xmlns="http://www.w3.org/2000/svg" xmlns:xlink="http://www.w3.org/1999/xlink" x="0px" y="0px"
	 width="512px" height="512px" viewBox="0 0 512 512" enable-background="new 0 0 512 512" xml:space="preserve">
<g>
	<g>
		<polygon fill="#CDCCCC" points="302.3,229.6 270.7,246.7 239.6,246.7 210.5,229.6 195.9,138.2 316.9,138.2 		"/>
	</g>
	<g>
		<polygon fill="#95BDA6" points="212.7,356.6 181.1,373.8 150,373.8 120.9,356.6 106.3,265.3 227.3,265.3 		"/>
	</g>
	<g>
		<polygon fill="#CD9E5D" points="391.1,356.6 359.5,373.8 328.4,373.8 299.3,356.6 284.7,265.3 405.7,265.3 		"/>
	</g>
	<g>
		<rect x="86.5" y="259.8" fill="#3A3033" width="160.7" height="10.9"/>
	</g>
	<g>
		<path fill="#3A3033" d="M182.5,379.2h-34L115.9,360l-16-100.2h133.8l-16,100.3L182.5,379.2z M151.4,368.3h28.2l28-15.2l13.2-82.4
			H112.7l13.2,82.5L151.4,368.3z"/>
	</g>
	<g>
		<rect x="176.1" y="132.8" fill="#3A3033" width="160.7" height="10.9"/>
	</g>
	<g>
		<path fill="#3A3033" d="M272.1,252.2h-34L205.5,233l-16-100.2l133.8,0l-16,100.3L272.1,252.2z M241.1,241.2h28.2l28-15.2
			l13.2-82.3l-108.2,0l13.2,82.5L241.1,241.2z"/>
	</g>
	<g>
		<rect x="264.9" y="259.8" fill="#3A3033" width="160.7" height="10.9"/>
	</g>
	<g>
		<path fill="#3A3033" d="M360.9,379.2h-34L294.3,360l-16-100.2h133.8l-16,100.3L360.9,379.2z M329.9,368.3h28.2l28-15.2l13.2-82.4
			H291.1l13.2,82.5L329.9,368.3z"/>
	</g>
	<g>
		<g>
			
				<rect x="113.6" y="298.4" transform="matrix(0.1632 0.9866 -0.9866 0.1632 414.0267 119.5817)" fill="#3A3033" width="45.8" height="10.9"/>
		</g>
		<g>
			
				<rect x="136.5" y="336.2" transform="matrix(0.1632 0.9866 -0.9866 0.1632 456.5418 145.0469)" fill="#3A3033" width="12.5" height="10.9"/>
		</g>
	</g>
	<g>
		<g>
			
				<rect x="292.2" y="298.4" transform="matrix(0.1633 0.9866 -0.9866 0.1633 563.4709 -56.6491)" fill="#3A3033" width="45.8" height="10.9"/>
		</g>
		<g>
			
				<rect x="315.1" y="336.2" transform="matrix(0.1633 0.9866 -0.9866 0.1633 605.9657 -31.2131)" fill="#3A3033" width="12.5" height="10.9"/>
		</g>
	</g>
	<g>
		<g>
			
				<rect x="202.6" y="167" transform="matrix(0.1632 0.9866 -0.9866 0.1632 358.8688 -78.1744)" fill="#3A3033" width="45.8" height="10.9"/>
		</g>
		<g>
			
				<rect x="225.5" y="204.8" transform="matrix(0.1633 0.9866 -0.9866 0.1633 401.3505 -52.7441)" fill="#3A3033" width="12.5" height="10.9"/>
		</g>
	</g>
</g>
</svg>
