<?xml version="1.0" encoding="utf-8"?>
<!-- Generator: Adobe Illustrator 18.0.0, SVG Export Plug-In . SVG Version: 6.00 Build 0)  -->
<!DOCTYPE svg PUBLIC "-//W3C//DTD SVG 1.1//EN" "http://www.w3.org/Graphics/SVG/1.1/DTD/svg11.dtd">
<svg version="1.1" id="Layer_1" xmlns="http://www.w3.org/2000/svg" xmlns:xlink="http://www.w3.org/1999/xlink" x="0px" y="0px"
	 width="512px" height="512px" viewBox="0 0 512 512" enable-background="new 0 0 512 512" xml:space="preserve">
<g>
	<g>
		<path fill="#FFFFFF" d="M296.9,266.2c-6.2-14.5-20.4-23.8-36.1-23.8H256h-4.8c-15.7,0-29.9,9.4-36.1,23.8l-38.6,90.5
			c-5.7,13.4-3.5,28.9,5.7,40.2l4.6,5.6c7.5,9.1,18.6,14.4,30.4,14.4H256h38.9c11.8,0,22.9-5.3,30.4-14.4l4.6-5.6
			c9.2-11.3,11.4-26.8,5.7-40.2L296.9,266.2z"/>
	</g>
	<g>
		<path fill="#FFFFFF" d="M335.5,356.7l-38.6-90.5c0-0.1,0-0.1-0.1-0.2c-6.1-14-8.6-29.3-6.6-44.5l10.1-75.8
			c1.4-10.7-1.1-21.6-7.3-30.6l-0.7-1c-8.2-12-21.8-19.2-36.3-19.2c-7.3,0-14.3,1.8-20.5,5.1c-6.3,3.3-11.7,8.1-15.8,14.1l-0.7,1
			c-6.1,9-8.7,19.8-7.3,30.6l10.1,75.8c2,15.2-0.5,30.5-6.6,44.5c0,0.1-0.1,0.1-0.1,0.2l-38.7,90.5c-5.7,13.4-3.5,28.9,5.7,40.2
			l4.6,5.6c7.5,9.1,18.6,14.4,30.4,14.4h77.7c11.8,0,22.9-5.3,30.4-14.4l4.6-5.6C339.1,385.7,341.3,370.2,335.5,356.7z M256,150.5
			c-8.2,0-14.8-6.6-14.8-14.8c0-8.2,6.6-14.8,14.8-14.8c8.2,0,14.8,6.6,14.8,14.8C270.8,143.9,264.2,150.5,256,150.5z"/>
	</g>
	<g>
		<g>
			<path fill="#CD9E5D" d="M236.8,320.4L236.8,320.4C236.8,320.4,236.8,320.4,236.8,320.4c-3-1-6.2-1.3-9.3-0.7
				c-12.9,2.6-20.4,19.8-16.6,38.4c3.4,17,15.1,29.3,26.9,29.2l0,0c0,0,0,0,0,0c1.1,0,2.2-0.1,3.3-0.3c12.9-2.6,20.4-19.8,16.6-38.4
				C254.9,334.5,246.4,323.7,236.8,320.4z"/>
		</g>
		<g>
			<path fill="#CD9E5D" d="M292.1,327.9L292.1,327.9C292.1,327.9,292.1,327.9,292.1,327.9c-2-1.7-4.4-2.8-7-3.2
				c-10.7-1.7-21.4,9.4-23.9,24.8c-2.3,14.1,3.2,26.9,12.3,30.3l0,0c0,0,0,0,0,0c0.8,0.3,1.7,0.6,2.6,0.7
				c10.7,1.7,21.4-9.4,23.9-24.8C301.9,344,298.5,333.2,292.1,327.9z"/>
		</g>
		<g>
			<path fill="#CD9E5D" d="M276,308.5c-0.2-12.7-7.5-22.9-16.3-22.8c-8.8,0.1-15.7,10.5-15.4,23.3c0.2,12.7,7.5,22.9,16.3,22.8
				C269.3,331.6,276.2,321.2,276,308.5z"/>
		</g>
	</g>
	<g>
		<path fill="#3A3033" d="M294.9,422.5h-77.7c-13.5,0-26.1-6-34.6-16.4l-4.6-5.6c-10.6-12.9-13-30.5-6.5-45.8l38.6-90.5
			c7-16.5,23.2-27.2,41.1-27.2h9.6c17.9,0,34.1,10.7,41.1,27.2l38.6,90.5c6.6,15.4,4.1,32.9-6.5,45.8l-4.6,5.6
			C321,416.5,308.3,422.5,294.9,422.5z M251.2,247.9c-13.6,0-25.7,8.1-31.1,20.5l-38.6,90.5c-5,11.6-3.1,24.9,4.9,34.6l4.6,5.6
			c6.4,7.9,16,12.4,26.2,12.4h77.7c10.2,0,19.7-4.5,26.2-12.4l4.6-5.6c8-9.8,9.9-23,4.9-34.6l-38.6-90.5
			c-5.3-12.5-17.5-20.5-31.1-20.5H251.2z"/>
	</g>
	<g>
		<path fill="#3A3033" d="M294.9,422.5h-77.7c-13.5,0-26.1-6-34.6-16.4l-4.6-5.6c-10.6-12.9-13-30.5-6.5-45.9l38.6-90.3
			c0-0.1,0.1-0.3,0.2-0.6c5.8-13.6,8-27.9,6.1-41.5l-10.1-75.8c-1.6-12.1,1.3-24.3,8.2-34.4l0.7-1c4.5-6.6,10.6-12.1,17.7-15.9
			c7.1-3.7,15.1-5.7,23.1-5.7c16.4,0,31.6,8.1,40.8,21.6l0.7,1c6.9,10.1,9.8,22.3,8.2,34.4l-10.1,75.8c-1.8,13.6,0.3,28,6.2,41.6
			l-0.1,0l0.1,0.2l0,0l38.6,90.5c6.6,15.4,4.1,32.9-6.5,45.9l-4.6,5.6C321,416.5,308.3,422.5,294.9,422.5z M220.2,268.2l0,0.1
			l-38.7,90.5c-4.9,11.6-3.1,24.9,4.9,34.6l4.6,5.6c6.4,7.9,16,12.4,26.2,12.4h77.7c10.2,0,19.7-4.5,26.2-12.4l4.6-5.6
			c8-9.8,9.8-23,4.9-34.6l-38.7-90.7c-6.7-15.4-9.1-31.8-7-47.4l10.1-75.8c1.2-9.4-1-18.9-6.4-26.8l-0.7-1
			c-7.2-10.5-19.1-16.8-31.8-16.8c-6.2,0-12.4,1.5-18,4.5c-5.5,2.9-10.3,7.2-13.8,12.3l-0.7,1c-5.3,7.8-7.6,17.3-6.3,26.7l10.1,75.8
			C229.3,236.4,226.9,252.8,220.2,268.2L220.2,268.2z M256,156c-11.2,0-20.3-9.1-20.3-20.3c0-11.2,9.1-20.3,20.3-20.3
			c11.2,0,20.3,9.1,20.3,20.3C276.3,146.9,267.2,156,256,156z M256,126.4c-5.1,0-9.3,4.2-9.3,9.3c0,5.1,4.2,9.3,9.3,9.3
			c5.1,0,9.3-4.2,9.3-9.3C265.3,130.6,261.1,126.4,256,126.4z"/>
	</g>
	<g>
		<g>
			<path fill="#3A3033" d="M237.8,392.9c-14.7,0-28.3-14.2-32.2-33.7c-4.4-21.9,4.7-41.6,20.9-44.9c1.5-0.3,3-0.4,4.4-0.4
				c14.7,0,28.3,14.2,32.2,33.7c2,10.1,1.2,20.2-2.4,28.5c-3.9,8.9-10.4,14.8-18.5,16.4C240.8,392.7,239.3,392.9,237.8,392.9z
				 M230.9,324.9c-0.8,0-1.5,0.1-2.3,0.2c-9.8,2-15.4,16.6-12.3,32c2.8,14,12.3,24.9,21.5,24.9c0.8,0,1.5-0.1,2.3-0.2
				c4.4-0.9,8.2-4.5,10.6-10c2.7-6.2,3.3-14,1.7-21.9C249.5,335.8,240.1,324.9,230.9,324.9z"/>
		</g>
		<g>
			<path fill="#3A3033" d="M242.6,390.2l-9.4-5.5c0.2-0.4,6.3-11.8-3.9-26c-13.1-18.3-3.3-35.6,3.8-42.2l7.5,8l-3.7-4l3.8,4
				c-1.4,1.3-13,13.2-2.4,27.9C252.6,372.5,243,389.5,242.6,390.2z"/>
		</g>
	</g>
	<g>
		<g>
			<path fill="#3A3033" d="M278.4,386.2c-1,0-2.1-0.1-3.1-0.2c-7-1.1-12.9-5.9-16.5-13.4c-3.3-6.9-4.4-15.3-3-23.9
				c2.7-16.9,14.3-29.6,27.1-29.6c1,0,2.1,0.1,3.1,0.2c7,1.1,12.9,5.9,16.5,13.4c3.3,6.9,4.4,15.3,3,23.9
				C302.8,373.5,291.1,386.2,278.4,386.2z M282.9,330c-7.3,0-14.4,9-16.3,20.4c-1,6.3-0.3,12.6,2,17.4c1.2,2.4,3.8,6.6,8.3,7.3
				c7.7,1.2,15.7-8.2,17.6-20.3c1-6.3,0.3-12.6-2-17.4c-1.2-2.4-3.8-6.6-8.3-7.3C283.8,330,283.4,330,282.9,330z"/>
		</g>
		<g>
			<path fill="#3A3033" d="M277,384.1l-6.9-8.5c0.3-0.2,7.8-6.9,4.2-20.1c-5-18.5,8.1-29.4,15.7-32.6l4.2,10.1l-2.1-5l2.1,5
				c-1.3,0.6-13,6.1-9.4,19.7C290.4,372.9,277.6,383.6,277,384.1z"/>
		</g>
	</g>
	<g>
		<path fill="#3A3033" d="M260.4,337.2c-11.8,0-21.3-12.4-21.6-28.2c-0.2-9.1,2.8-17.5,8.1-23c3.6-3.8,8-5.8,12.8-5.8l0.2,0
			c11.8,0,21.3,12.4,21.6,28.2c0.2,9.1-2.8,17.5-8.1,23c-3.6,3.8-8,5.8-12.8,5.8L260.4,337.2z M259.9,291.1c-2.3,0-4,1.4-5.1,2.5
			c-3.2,3.3-5.1,9.1-5,15.2c0.2,10.3,5.8,17.4,10.6,17.4v5.5l0.1-5.5c2.2,0,4-1.4,5.1-2.5c3.2-3.3,5.1-9.1,5-15.2
			C270.3,298.3,264.8,291.1,259.9,291.1z"/>
	</g>
</g>
</svg>
