<?xml version="1.0" encoding="UTF-8"?>
<svg width="282px" height="350px" viewBox="0 0 282 350" version="1.1" xmlns="http://www.w3.org/2000/svg" xmlns:xlink="http://www.w3.org/1999/xlink">
    <!-- Generator: Sketch 51 (57462) - http://www.bohemiancoding.com/sketch -->
    <title>coffee cocktail</title>
    <desc>Created with Sketch.</desc>
    <defs></defs>
    <g id="Page-1" stroke="none" stroke-width="1" fill="none" fill-rule="evenodd">
        <g id="coffee-cocktail" fill-rule="nonzero">
            <path d="M32.2,98.5 C32.2,98.5 23.2,78.7 60,66.6 C96.8,54.5 137.3,40.8 129.9,8.4 C129.9,8.4 254.6,50.7 245.3,97.9 L32.2,98.5 Z" id="Shape" fill="#FFFFFF"></path>
            <path d="M164.7,205.3 L268.6,98.5 L141,98.5 L13.4,98.5 L117.3,205.3 C126.2,214.5 131.3,226.8 131.3,239.7 L131.3,291.6 C131.3,305.8 123.5,318.9 111,325.6 L75.9,344.5 L141,344.5 L206.2,344.5 L171.1,325.6 C158.6,318.9 150.8,305.8 150.8,291.6 L150.8,239.7 C150.8,226.9 155.8,214.5 164.7,205.3 Z" id="Shape" fill="#FFFFFF"></path>
            <g id="Group" transform="translate(13.000000, 98.000000)">
                <path d="M110.6,113.9 C120.1,123.7 135.9,123.7 145.5,113.9 L209.8,47.7 L46.3,47.7 L110.6,113.9 Z" id="Shape" fill="#CD9E5D"></path>
                <polygon id="Shape" fill="#95BDA6" points="0.4 0.5 46.3 47.7 209.7 47.7 255.6 0.5"></polygon>
            </g>
            <path d="M227.9,349.9 L54.1,349.9 L108.3,320.8 C119.1,315 125.8,303.8 125.8,291.6 L125.8,239.7 C125.8,228.2 121.4,217.4 113.4,209.1 L0.5,93 L281.5,93 L168.6,209.1 C160.6,217.3 156.2,228.2 156.2,239.7 L156.2,291.6 C156.2,303.8 162.9,315 173.7,320.8 L227.9,349.9 Z M97.5,339 L184.4,339 L168.5,330.4 C154.2,322.7 145.3,307.8 145.3,291.5 L145.3,239.6 C145.3,225.3 150.8,211.7 160.8,201.4 L255.6,103.8 L26.4,103.8 L121.2,201.4 C131.2,211.7 136.7,225.2 136.7,239.6 L136.7,291.5 C136.7,307.8 127.8,322.7 113.5,330.4 L97.5,339 Z" id="Shape" fill="#3A3033"></path>
            <path d="M28.7,104 L27.2,100.8 C26.8,100 23.8,92.8 27.7,83.8 C31.9,74.3 42.2,66.7 58.3,61.5 C99.5,48 130.5,35.6 124.6,9.7 L122.4,0.2 L131.7,3.3 C133,3.7 163.7,14.2 193.8,30.7 C236,53.9 255.1,76.8 250.7,99.1 L249.8,103.5 L28.7,104 Z M136.3,16.5 C135.9,47.4 95.1,60.8 61.7,71.8 C45.5,77.1 39.7,83.6 37.7,88.2 C36.9,90 36.6,91.7 36.6,93.1 L240.2,92.6 C239.9,72.9 212.4,53.5 188.4,40.4 C168.3,29.2 147.5,20.7 136.3,16.5 Z" id="Shape" fill="#3A3033"></path>
            <path d="M107.3,86 L103.6,75.7 C121.9,69.1 132.8,60 136,48.5 C140.9,30.6 125.9,12.1 125.8,11.9 L134.2,4.9 C135,5.8 153,28 146.6,51.3 C142.4,66.5 129.2,78.1 107.3,86 Z" id="Shape" fill="#3A3033"></path>
            <path d="M181.8,82.5 L170.9,81.8 C174.8,23.6 132,16.6 130.2,16.3 L131.8,5.5 C132.3,5.6 186.3,14.4 181.8,82.5 Z" id="Shape" fill="#3A3033"></path>
        </g>
    </g>
</svg>