<?xml version="1.0" encoding="utf-8"?>
<!-- Generator: Adobe Illustrator 18.0.0, SVG Export Plug-In . SVG Version: 6.00 Build 0)  -->
<!DOCTYPE svg PUBLIC "-//W3C//DTD SVG 1.1//EN" "http://www.w3.org/Graphics/SVG/1.1/DTD/svg11.dtd">
<svg version="1.1" id="Layer_1" xmlns="http://www.w3.org/2000/svg" xmlns:xlink="http://www.w3.org/1999/xlink" x="0px" y="0px"
	 width="512px" height="512px" viewBox="0 0 512 512" enable-background="new 0 0 512 512" xml:space="preserve">
<g>
	<g>
		<path fill="#CDCCCC" d="M256,184h-91.8l18.4,36.3c0,0,11,24.4,33.9,24.4H256h39.6c22.9,0,33.9-24.4,33.9-24.4l18.4-36.3H256z"/>
	</g>
	<g>
		<polyline fill="#FFFFFF" points="267.2,170.6 267.2,110.7 244.8,110.7 244.8,170.6 		"/>
	</g>
	<g>
		<path fill="#9D705C" d="M366.5,108c0.7-2,1-4.1,1-6.3c0-10.9-8.8-19.7-19.7-19.7s-19.7,8.8-19.7,19.7c0,2.2,0.4,4.3,1,6.3H366.5z"
			/>
	</g>
	<g>
		<rect x="143.5" y="265.3" fill="#95BDA6" width="225" height="144.2"/>
	</g>
	<g>
		<path fill="#9D705C" d="M291.4,328.2h-70.9c-17.4,0-31.6,14.1-31.6,31.6v49.6H323v-49.6C323,342.4,308.9,328.2,291.4,328.2z"/>
	</g>
	<g>
		<rect x="123" y="244.7" fill="#95BDA6" width="266.1" height="20.5"/>
	</g>
	<g>
		<rect x="123" y="409.4" fill="#95BDA6" width="266.1" height="20.5"/>
	</g>
	<g>
		<path fill="#3A3033" d="M295.6,250.2h-79.1c-25.5,0-37.8-25.2-38.8-27.5l-22.3-44.2h201.5l-22.3,44.2
			C333.3,225,321,250.2,295.6,250.2z M173.1,189.4l14.5,28.6c0.1,0.2,9.9,21.2,28.9,21.2h79.1c19,0,28.8-21,28.9-21.2l0.1-0.2
			l14.4-28.4H173.1z"/>
	</g>
	<g>
		<polygon fill="#3A3033" points="272.7,170.6 261.7,170.6 261.7,116.1 250.3,116.1 250.3,170.6 239.3,170.6 239.3,105.2 
			272.7,105.2 		"/>
	</g>
	<g>
		<path fill="#3A3033" d="M374,414.9H138V259.8H374V414.9z M149,404h214V270.7H149V404z"/>
	</g>
	<g>
		<path fill="#3A3033" d="M394.5,270.7h-277v-31.5h277V270.7z M128.4,259.8h255.1v-9.6H128.4V259.8z"/>
	</g>
	<g>
		<path fill="#3A3033" d="M394.5,435.4h-277V404h277V435.4z M128.4,424.5h255.1v-9.6H128.4V424.5z"/>
	</g>
	<g>
		<path fill="#3A3033" d="M328.5,414.9h-145v-19.7c0-40,32.5-72.5,72.5-72.5c40,0,72.5,32.5,72.5,72.5V414.9z M194.4,404h123.1v-8.7
			c0-33.9-27.6-61.6-61.6-61.6c-33.9,0-61.6,27.6-61.6,61.6V404z"/>
	</g>
	<g>
		<rect x="267.2" y="117.7" fill="#3A3033" width="71.8" height="10.9"/>
	</g>
	<g>
		<path fill="#3A3033" d="M362.9,128.7h-30.1v-26.2h30.1V128.7z M343.7,117.7h8.2v-4.3h-8.2V117.7z"/>
	</g>
	<g>
		<path fill="#3A3033" d="M370.5,113.5h-45.2l-1.2-3.7c-0.9-2.6-1.3-5.3-1.3-8c0-13.9,11.3-25.2,25.2-25.2
			c13.9,0,25.2,11.3,25.2,25.2c0,2.7-0.4,5.4-1.3,8L370.5,113.5z M333.6,102.5h28.4c0-0.3,0-0.5,0-0.8c0-7.9-6.4-14.2-14.2-14.2
			c-7.9,0-14.2,6.4-14.2,14.2C333.6,102,333.6,102.3,333.6,102.5z"/>
	</g>
	<g>
		<path fill="#3A3033" d="M256,390.3c-9.2,0-16.7-7.5-16.7-16.7S246.8,357,256,357s16.7,7.5,16.7,16.7S265.2,390.3,256,390.3z
			 M256,367.9c-3.2,0-5.7,2.6-5.7,5.7c0,3.2,2.6,5.7,5.7,5.7c3.2,0,5.7-2.6,5.7-5.7C261.7,370.5,259.2,367.9,256,367.9z"/>
	</g>
</g>
</svg>
