<?xml version="1.0" encoding="UTF-8"?>
<svg width="278px" height="360px" viewBox="0 0 278 360" version="1.1" xmlns="http://www.w3.org/2000/svg" xmlns:xlink="http://www.w3.org/1999/xlink">
    <!-- Generator: Sketch 51 (57462) - http://www.bohemiancoding.com/sketch -->
    <title>coffee mill</title>
    <desc>Created with Sketch.</desc>
    <defs></defs>
    <g id="Page-1" stroke="none" stroke-width="1" fill="none" fill-rule="evenodd">
        <g id="coffee-mill" fill-rule="nonzero">
            <path d="M139,108 L47.2,108 L65.6,144.3 C65.6,144.3 76.6,168.7 99.5,168.7 L139,168.7 L178.6,168.7 C201.5,168.7 212.5,144.3 212.5,144.3 L230.9,108 L139,108 Z" id="Shape" fill="#CDCCCC"></path>
            <polyline id="Shape" fill="#FFFFFF" points="150.2 94.6 150.2 34.7 127.8 34.7 127.8 94.6"></polyline>
            <path d="M249.5,32 C250.2,30 250.5,27.9 250.5,25.7 C250.5,14.8 241.7,6 230.8,6 C219.9,6 211.1,14.8 211.1,25.7 C211.1,27.9 211.5,30 212.1,32 L249.5,32 Z" id="Shape" fill="#9D705C"></path>
            <rect id="Rectangle-path" fill="#95BDA6" x="26.5" y="189.3" width="225" height="144.2"></rect>
            <path d="M174.4,252.2 L103.5,252.2 C86.1,252.2 71.9,266.3 71.9,283.8 L71.9,333.4 L206,333.4 L206,283.8 C206,266.4 191.9,252.2 174.4,252.2 Z" id="Shape" fill="#9D705C"></path>
            <rect id="Rectangle-path" fill="#95BDA6" x="6" y="168.7" width="266.1" height="20.5"></rect>
            <rect id="Rectangle-path" fill="#95BDA6" x="6" y="333.4" width="266.1" height="20.5"></rect>
            <path d="M178.6,174.2 L99.5,174.2 C74,174.2 61.7,149 60.7,146.7 L38.4,102.5 L239.9,102.5 L217.6,146.7 C216.3,149 204,174.2 178.6,174.2 Z M56.1,113.4 L70.6,142 C70.7,142.2 80.5,163.2 99.5,163.2 L178.6,163.2 C197.6,163.2 207.4,142.2 207.5,142 L207.6,141.8 L222,113.4 L56.1,113.4 Z" id="Shape" fill="#3A3033"></path>
            <polygon id="Shape" fill="#3A3033" points="155.7 94.6 144.7 94.6 144.7 40.1 133.3 40.1 133.3 94.6 122.3 94.6 122.3 29.2 155.7 29.2"></polygon>
            <path d="M257,338.9 L21,338.9 L21,183.8 L257,183.8 L257,338.9 Z M32,328 L246,328 L246,194.7 L32,194.7 L32,328 Z" id="Shape" fill="#3A3033"></path>
            <path d="M277.5,194.7 L0.5,194.7 L0.5,163.2 L277.5,163.2 L277.5,194.7 Z M11.4,183.8 L266.5,183.8 L266.5,174.2 L11.4,174.2 L11.4,183.8 Z" id="Shape" fill="#3A3033"></path>
            <path d="M277.5,359.4 L0.5,359.4 L0.5,328 L277.5,328 L277.5,359.4 Z M11.4,348.5 L266.5,348.5 L266.5,338.9 L11.4,338.9 L11.4,348.5 Z" id="Shape" fill="#3A3033"></path>
            <path d="M211.5,338.9 L66.5,338.9 L66.5,319.2 C66.5,279.2 99,246.7 139,246.7 C179,246.7 211.5,279.2 211.5,319.2 L211.5,338.9 Z M77.4,328 L200.5,328 L200.5,319.3 C200.5,285.4 172.9,257.7 138.9,257.7 C105,257.7 77.3,285.3 77.3,319.3 L77.3,328 L77.4,328 Z" id="Shape" fill="#3A3033"></path>
            <rect id="Rectangle-path" fill="#3A3033" x="150.2" y="41.7" width="71.8" height="10.9"></rect>
            <path d="M245.9,52.7 L215.8,52.7 L215.8,26.5 L245.9,26.5 L245.9,52.7 Z M226.7,41.7 L234.9,41.7 L234.9,37.4 L226.7,37.4 L226.7,41.7 Z" id="Shape" fill="#3A3033"></path>
            <path d="M253.5,37.5 L208.3,37.5 L207.1,33.8 C206.2,31.2 205.8,28.5 205.8,25.8 C205.8,11.9 217.1,0.6 231,0.6 C244.9,0.6 256.2,11.9 256.2,25.8 C256.2,28.5 255.8,31.2 254.9,33.8 L253.5,37.5 Z M216.6,26.5 L245,26.5 C245,26.2 245,26 245,25.7 C245,17.8 238.6,11.5 230.8,11.5 C222.9,11.5 216.6,17.9 216.6,25.7 C216.6,26 216.6,26.3 216.6,26.5 Z" id="Shape" fill="#3A3033"></path>
            <path d="M139,314.3 C129.8,314.3 122.3,306.8 122.3,297.6 C122.3,288.4 129.8,281 139,281 C148.2,281 155.7,288.5 155.7,297.7 C155.7,306.9 148.2,314.3 139,314.3 Z M139,291.9 C135.8,291.9 133.3,294.5 133.3,297.6 C133.3,300.8 135.9,303.3 139,303.3 C142.2,303.3 144.7,300.7 144.7,297.6 C144.7,294.5 142.2,291.9 139,291.9 Z" id="Shape" fill="#3A3033"></path>
        </g>
    </g>
</svg>