<?xml version="1.0" encoding="utf-8"?>
<!-- Generator: Adobe Illustrator 18.0.0, SVG Export Plug-In . SVG Version: 6.00 Build 0)  -->
<!DOCTYPE svg PUBLIC "-//W3C//DTD SVG 1.1//EN" "http://www.w3.org/Graphics/SVG/1.1/DTD/svg11.dtd">
<svg version="1.1" id="Layer_1" xmlns="http://www.w3.org/2000/svg" xmlns:xlink="http://www.w3.org/1999/xlink" x="0px" y="0px"
	 width="512px" height="512px" viewBox="0 0 512 512" enable-background="new 0 0 512 512" xml:space="preserve">
<g>
	<g>
		<polygon fill="#FFFFFF" points="262.2,86.6 234.6,86.6 188.3,86.6 188.3,155.5 150.5,238.4 150.5,425.4 234.6,425.4 262.2,425.4 
			286,425.4 286,238.4 323.7,155.5 323.7,86.6 		"/>
	</g>
	<g>
		<polygon fill="#CDCCCC" points="361.5,238.4 361.5,425.4 286,425.4 286,238.4 323.7,155.5 		"/>
	</g>
	<g>
		<path fill="#3A3033" d="M291.5,430.9H145.1V237.3l37.7-82.9V81.1h146.4v75.6l-37.7,82.9V430.9z M156,420h124.5V237.3l37.7-82.9V92
			H193.7v64.7L156,239.6V420z"/>
	</g>
	<g>
		<path fill="#3A3033" d="M366.9,430.9h-86.4V237.3l43.2-94.9l43.2,94.9V430.9z M291.5,420H356V239.6l-32.2-70.9l-32.2,70.9V420z"/>
	</g>
	<g>
		<polyline fill="#FFFFFF" points="323.7,86.6 301.6,86.6 301.6,115.1 319.9,115.1 171.1,115.1 171.1,86.6 301.6,86.6 		"/>
	</g>
	<g>
		<path fill="#3A3033" d="M319.9,120.5H165.6V81.1h158.2V92h-16.7v17.6h12.8V120.5z M176.5,109.6h119.6V92H176.5V109.6z"/>
	</g>
	<g>
		<polygon fill="#3A3033" points="329.2,425.4 318.3,425.4 318.3,161 188.3,161 188.3,150.1 329.2,150.1 		"/>
	</g>
	<g>
		<rect x="150.5" y="233" fill="#3A3033" width="135.5" height="10.9"/>
	</g>
	<g>
		<circle fill="#CD9E5D" cx="215.2" cy="340.9" r="50.5"/>
	</g>
	<g>
		<g>
			<path fill="#3A3033" d="M215.2,373c-14.1,0-25.6-14.4-25.6-32.1c0-17.7,11.5-32.1,25.6-32.1c14.1,0,25.6,14.4,25.6,32.1
				C240.8,358.6,229.3,373,215.2,373z M215.2,319.8c-8,0-14.7,9.7-14.7,21.1c0,11.4,6.7,21.1,14.7,21.1s14.7-9.7,14.7-21.1
				C229.9,329.5,223.1,319.8,215.2,319.8z"/>
		</g>
		<g>
			<path fill="#3A3033" d="M216.9,371.1l-8.2-7.2c0.4-0.5,9.8-11.6,2.6-19.2c-11.1-11.7-5.1-27-0.5-33.5l8.9,6.4l-4.4-3.2l4.5,3.2
				c-0.3,0.5-8.1,11.7-0.5,19.6C230.4,349.1,222.6,364.6,216.9,371.1z"/>
		</g>
	</g>
</g>
</svg>
