<?xml version="1.0" encoding="utf-8"?>
<!-- Generator: Adobe Illustrator 18.0.0, SVG Export Plug-In . SVG Version: 6.00 Build 0)  -->
<!DOCTYPE svg PUBLIC "-//W3C//DTD SVG 1.1//EN" "http://www.w3.org/Graphics/SVG/1.1/DTD/svg11.dtd">
<svg version="1.1" id="Layer_1" xmlns="http://www.w3.org/2000/svg" xmlns:xlink="http://www.w3.org/1999/xlink" x="0px" y="0px"
	 width="512px" height="512px" viewBox="0 0 512 512" enable-background="new 0 0 512 512" xml:space="preserve">
<g>
	<g>
		<g>
			<polygon fill="#FFFFFF" points="350,125 338.9,97.1 262.4,97.1 173.1,97.1 162,125 140.4,146.9 140.4,172.4 262.4,172.4 
				371.6,172.4 371.6,146.9 			"/>
		</g>
		<g>
			<polygon fill="#FFFFFF" points="276.5,172.4 235.5,172.4 160.3,172.4 180.8,388 235.5,388 276.5,388 331.2,388 351.7,172.4 			
				"/>
		</g>
		<g>
			<rect x="180.8" y="388" fill="#FFFFFF" width="150.5" height="27"/>
		</g>
		<g>
			<path fill="#3A3033" d="M336.2,393.4H175.8l-21.6-226.5h203.4L336.2,393.4z M185.8,382.5h140.4l19.5-204.6H166.3L185.8,382.5z"/>
		</g>
		<g>
			<path fill="#3A3033" d="M336.8,420.4H175.3v-37.9h161.4V420.4z M186.3,409.5h139.5v-16H186.3V409.5z"/>
		</g>
		<g>
			<path fill="#3A3033" d="M377,177.9H135v-33.2l22.4-22.7l12.1-30.3h173.1l12.1,30.3l22.4,22.7V177.9z M145.9,166.9h220.2v-17.8
				L345.3,128l-10.2-25.5H176.9L166.7,128l-20.8,21.1V166.9z"/>
		</g>
		<g>
			<rect x="162" y="119.5" fill="#3A3033" width="188" height="10.9"/>
		</g>
		<g>
			<rect x="140.4" y="141.4" fill="#3A3033" width="231.1" height="10.9"/>
		</g>
	</g>
	<g>
		<polygon fill="#9D705C" points="264.6,215.5 251.1,215.5 148.5,215.5 160.8,341 251.1,341 264.6,341 351.2,341 363.5,215.5 		"/>
	</g>
	<g>
		<path fill="#3A3033" d="M356.1,346.4H155.9L142.4,210h227.1L356.1,346.4z M165.8,335.5h180.4l11.3-114.6h-203L165.8,335.5z"/>
	</g>
</g>
</svg>
