<?xml version="1.0" encoding="UTF-8"?>
<svg width="178px" height="334px" viewBox="0 0 178 334" version="1.1" xmlns="http://www.w3.org/2000/svg" xmlns:xlink="http://www.w3.org/1999/xlink">
    <!-- Generator: Sketch 51 (57462) - http://www.bohemiancoding.com/sketch -->
    <title>coffee scoop</title>
    <desc>Created with Sketch.</desc>
    <defs></defs>
    <g id="Page-1" stroke="none" stroke-width="1" fill="none" fill-rule="evenodd">
        <g id="coffee-scoop" fill-rule="nonzero">
            <path d="M129.9,177.2 C123.7,162.7 109.5,153.4 93.8,153.4 L89,153.4 L84.2,153.4 C68.5,153.4 54.3,162.8 48.1,177.2 L9.5,267.7 C3.8,281.1 6,296.6 15.2,307.9 L19.8,313.5 C27.3,322.6 38.4,327.9 50.2,327.9 L89,327.9 L127.9,327.9 C139.7,327.9 150.8,322.6 158.3,313.5 L162.9,307.9 C172.1,296.6 174.3,281.1 168.6,267.7 L129.9,177.2 Z" id="Shape" fill="#FFFFFF"></path>
            <path d="M168.5,267.7 L129.9,177.2 C129.9,177.1 129.9,177.1 129.8,177 C123.7,163 121.2,147.7 123.2,132.5 L133.3,56.7 C134.7,46 132.2,35.1 126,26.1 L125.3,25.1 C117.1,13.1 103.5,5.9 89,5.9 C81.7,5.9 74.7,7.7 68.5,11 C62.2,14.3 56.8,19.1 52.7,25.1 L52,26.1 C45.9,35.1 43.3,45.9 44.7,56.7 L54.8,132.5 C56.8,147.7 54.3,163 48.2,177 C48.2,177.1 48.1,177.1 48.1,177.2 L9.4,267.7 C3.7,281.1 5.9,296.6 15.1,307.9 L19.7,313.5 C27.2,322.6 38.3,327.9 50.1,327.9 L127.8,327.9 C139.6,327.9 150.7,322.6 158.2,313.5 L162.8,307.9 C172.1,296.7 174.3,281.2 168.5,267.7 Z M89,61.5 C80.8,61.5 74.2,54.9 74.2,46.7 C74.2,38.5 80.8,31.9 89,31.9 C97.2,31.9 103.8,38.5 103.8,46.7 C103.8,54.9 97.2,61.5 89,61.5 Z" id="Shape" fill="#FFFFFF"></path>
            <g id="Group" transform="translate(42.000000, 196.000000)" fill="#CD9E5D">
                <path d="M27.8,35.4 C27.8,35.4 27.8,35.4 27.8,35.4 C24.8,34.4 21.6,34.1 18.5,34.7 C5.6,37.3 -1.9,54.5 1.9,73.1 C5.3,90.1 17,102.4 28.8,102.3 C28.8,102.3 28.8,102.3 28.8,102.3 C29.9,102.3 31,102.2 32.1,102 C45,99.4 52.5,82.2 48.7,63.6 C45.9,49.5 37.4,38.7 27.8,35.4 Z" id="Shape"></path>
                <path d="M83.1,42.9 C83.1,42.9 83.1,42.9 83.1,42.9 C81.1,41.2 78.7,40.1 76.1,39.7 C65.4,38 54.7,49.1 52.2,64.5 C49.9,78.6 55.4,91.4 64.5,94.8 C64.5,94.8 64.5,94.8 64.5,94.8 C65.3,95.1 66.2,95.4 67.1,95.5 C77.8,97.2 88.5,86.1 91,70.7 C92.9,59 89.5,48.2 83.1,42.9 Z" id="Shape"></path>
                <path d="M67,23.5 C66.8,10.8 59.5,0.6 50.7,0.7 C41.9,0.8 35,11.2 35.3,24 C35.5,36.7 42.8,46.9 51.6,46.8 C60.3,46.6 67.2,36.2 67,23.5 Z" id="Shape"></path>
            </g>
            <path d="M127.9,333.5 L50.2,333.5 C36.7,333.5 24.1,327.5 15.6,317.1 L11,311.5 C0.4,298.6 -2,281 4.5,265.7 L43.1,175.2 C50.1,158.7 66.3,148 84.2,148 L93.8,148 C111.7,148 127.9,158.7 134.9,175.2 L173.5,265.7 C180.1,281.1 177.6,298.6 167,311.5 L162.4,317.1 C154,327.5 141.3,333.5 127.9,333.5 Z M84.2,158.9 C70.6,158.9 58.5,167 53.1,179.4 L14.5,269.9 C9.5,281.5 11.4,294.8 19.4,304.5 L24,310.1 C30.4,318 40,322.5 50.2,322.5 L127.9,322.5 C138.1,322.5 147.6,318 154.1,310.1 L158.7,304.5 C166.7,294.7 168.6,281.5 163.6,269.9 L125,179.4 C119.7,166.9 107.5,158.9 93.9,158.9 L84.2,158.9 Z" id="Shape" fill="#3A3033"></path>
            <path d="M127.9,333.5 L50.2,333.5 C36.7,333.5 24.1,327.5 15.6,317.1 L11,311.5 C0.4,298.6 -2,281 4.5,265.6 L43.1,175.3 C43.1,175.2 43.2,175 43.3,174.7 C49.1,161.1 51.3,146.8 49.4,133.2 L39.3,57.4 C37.7,45.3 40.6,33.1 47.5,23 L48.2,22 C52.7,15.4 58.8,9.9 65.9,6.1 C73,2.4 81,0.4 89,0.4 C105.4,0.4 120.6,8.5 129.8,22 L130.5,23 C137.4,33.1 140.3,45.3 138.7,57.4 L128.6,133.2 C126.8,146.8 128.9,161.2 134.8,174.8 L134.7,174.8 L134.8,175 L173.4,265.5 C180,280.9 177.5,298.4 166.9,311.4 L162.3,317 C154,327.5 141.3,333.5 127.9,333.5 Z M53.2,179.2 L53.2,179.3 L14.5,269.8 C9.6,281.4 11.4,294.7 19.4,304.4 L24,310 C30.4,317.9 40,322.4 50.2,322.4 L127.9,322.4 C138.1,322.4 147.6,317.9 154.1,310 L158.7,304.4 C166.7,294.6 168.5,281.4 163.6,269.8 L124.9,179.1 C118.2,163.7 115.8,147.3 117.9,131.7 L128,55.9 C129.2,46.5 127,37 121.6,29.1 L120.9,28.1 C113.7,17.6 101.8,11.3 89.1,11.3 C82.9,11.3 76.7,12.8 71.1,15.8 C65.6,18.7 60.8,23 57.3,28.1 L56.6,29.1 C51.3,36.9 49,46.4 50.3,55.8 L60.4,131.6 C62.3,147.4 59.9,163.8 53.2,179.2 Z M89,67 C77.8,67 68.7,57.9 68.7,46.7 C68.7,35.5 77.8,26.4 89,26.4 C100.2,26.4 109.3,35.5 109.3,46.7 C109.3,57.9 100.2,67 89,67 Z M89,37.4 C83.9,37.4 79.7,41.6 79.7,46.7 C79.7,51.8 83.9,56 89,56 C94.1,56 98.3,51.8 98.3,46.7 C98.3,41.6 94.1,37.4 89,37.4 Z" id="Shape" fill="#3A3033"></path>
            <g id="Group" transform="translate(37.000000, 224.000000)" fill="#3A3033">
                <path d="M33.8,79.9 C19.1,79.9 5.5,65.7 1.6,46.2 C-2.8,24.3 6.3,4.6 22.5,1.3 C24,1 25.5,0.9 26.9,0.9 C41.6,0.9 55.2,15.1 59.1,34.6 C61.1,44.7 60.3,54.8 56.7,63.1 C52.8,72 46.3,77.9 38.2,79.5 C36.8,79.7 35.3,79.9 33.8,79.9 Z M26.9,11.9 C26.1,11.9 25.4,12 24.6,12.1 C14.8,14.1 9.2,28.7 12.3,44.1 C15.1,58.1 24.6,69 33.8,69 C34.6,69 35.3,68.9 36.1,68.8 C40.5,67.9 44.3,64.3 46.7,58.8 C49.4,52.6 50,44.8 48.4,36.9 C45.5,22.8 36.1,11.9 26.9,11.9 Z" id="Shape"></path>
                <path d="M38.6,77.2 L29.2,71.7 C29.4,71.3 35.5,59.9 25.3,45.7 C12.2,27.4 22,10.1 29.1,3.5 L36.6,11.5 L32.9,7.5 L36.7,11.5 C35.3,12.8 23.7,24.7 34.3,39.4 C48.6,59.5 39,76.5 38.6,77.2 Z" id="Shape"></path>
            </g>
            <g id="Group" transform="translate(88.000000, 230.000000)" fill="#3A3033">
                <path d="M23.4,67.2 C22.4,67.2 21.3,67.1 20.3,67 C13.3,65.9 7.4,61.1 3.8,53.6 C0.5,46.7 -0.6,38.3 0.8,29.7 C3.5,12.8 15.1,0.1 27.9,0.1 C28.9,0.1 30,0.2 31,0.3 C38,1.4 43.9,6.2 47.5,13.7 C50.8,20.6 51.9,29 50.5,37.6 C47.8,54.5 36.1,67.2 23.4,67.2 Z M27.9,11 C20.6,11 13.5,20 11.6,31.4 C10.6,37.7 11.3,44 13.6,48.8 C14.8,51.2 17.4,55.4 21.9,56.1 C29.6,57.3 37.6,47.9 39.5,35.8 C40.5,29.5 39.8,23.2 37.5,18.4 C36.3,16 33.7,11.8 29.2,11.1 C28.8,11 28.4,11 27.9,11 Z" id="Shape"></path>
                <path d="M22,65.1 L15.1,56.6 C15.4,56.4 22.9,49.7 19.3,36.5 C14.3,18 27.4,7.1 35,3.9 L39.2,14 L37.1,9 L39.2,14 C37.9,14.6 26.2,20.1 29.8,33.7 C35.4,53.9 22.6,64.6 22,65.1 Z" id="Shape"></path>
            </g>
            <path d="M93.4,248.2 C81.6,248.2 72.1,235.8 71.8,220 C71.6,210.9 74.6,202.5 79.9,197 C83.5,193.2 87.9,191.2 92.7,191.2 L92.9,191.2 C104.7,191.2 114.2,203.6 114.5,219.4 C114.7,228.5 111.7,236.9 106.4,242.4 C102.8,246.2 98.4,248.2 93.6,248.2 L93.4,248.2 Z M92.9,202.1 C90.6,202.1 88.9,203.5 87.8,204.6 C84.6,207.9 82.7,213.7 82.8,219.8 C83,230.1 88.6,237.2 93.4,237.2 L93.4,242.7 L93.5,237.2 C95.7,237.2 97.5,235.8 98.6,234.7 C101.8,231.4 103.7,225.6 103.6,219.5 C103.3,209.3 97.8,202.1 92.9,202.1 Z" id="Shape" fill="#3A3033"></path>
        </g>
    </g>
</svg>