<?xml version="1.0" encoding="UTF-8"?>
<svg width="186px" height="378px" viewBox="0 0 186 378" version="1.1" xmlns="http://www.w3.org/2000/svg" xmlns:xlink="http://www.w3.org/1999/xlink">
    <!-- Generator: Sketch 51 (57462) - http://www.bohemiancoding.com/sketch -->
    <title>coffee with ice cream</title>
    <desc>Created with Sketch.</desc>
    <defs></defs>
    <g id="Page-1" stroke="none" stroke-width="1" fill="none" fill-rule="evenodd">
        <g id="coffee-with-ice-cream" fill-rule="nonzero">
            <path d="M102.3,294.1 L155.9,134.9 L155.9,92 L81,92 L6.1,92 L6.1,134.9 L59.7,294.1 C62.1,299.3 63.3,305 63.3,310.7 C63.3,347.2 18.5,360.9 18.5,360.9 L18.5,371.6 L81,371.6 L143.5,371.6 L143.5,361 C143.5,361 98.7,347.3 98.7,310.8 C98.8,305 100,299.4 102.3,294.1 Z" id="Shape" fill="#FFFFFF"></path>
            <path d="M16.3,92 C16.3,92 15,79.1 33.9,72.4 C52.8,65.6 54.5,62.2 59.7,51.3 C63.7,42.9 78.4,30.5 78.4,30.5 C78.4,30.5 91.5,35.4 99.4,47.9 C107.8,61.3 107.8,61.3 122.7,67 C137.6,72.7 142,83.1 144.1,92 L16.3,92 Z" id="Shape" fill="#FFFFFF"></path>
            <rect id="Rectangle-path" fill="#FFFFFF" x="6.1" y="92" width="149.8" height="24.5"></rect>
            <path d="M155.9,116.5 L155.9,135 L102.3,294.2 C99.9,299.4 98.7,305.1 98.7,310.8 C98.7,312.5 98.8,314.2 99,315.8 L63,315.8 C63.2,314.2 63.3,312.5 63.3,310.8 C63.3,305.1 62.1,299.4 59.7,294.2 L6.1,135 L6.1,116.5 L155.9,116.5 Z" id="Shape" fill="#CD9E5D"></path>
            <path d="M149,377.2 L13.1,377.2 L13.1,357 L17,355.8 C17.1,355.8 27.7,352.4 38,345 C51.2,335.5 57.9,324 57.9,310.8 C57.9,305.8 56.9,301 54.8,296.5 L54.6,296 L0.7,135.9 L0.7,86.6 L161.5,86.6 L161.5,135.9 L107.4,296.5 C105.4,301 104.3,305.9 104.3,310.8 C104.3,324 111,335.5 124.2,345 C134.5,352.5 145.1,355.8 145.2,355.8 L149.1,357 L149,377.2 Z M24,366.2 L138,366.2 L138,364.8 C133.5,363 125.7,359.6 117.9,354 C101.8,342.5 93.2,327.5 93.2,310.7 C93.2,304.3 94.5,298 97.1,292.1 L150.3,134 L150.3,97.4 L11.6,97.4 L11.6,134 L64.8,292.1 C67.4,298 68.7,304.2 68.7,310.7 C68.7,327.5 60.2,342.4 44,354 C36.2,359.6 28.4,363.1 23.9,364.8 L23.9,366.2 L24,366.2 Z" id="Shape" fill="#3A3033"></path>
            <path d="M81,317.8 C63.4,317.8 55.9,303 54.3,295.2 L65,293.1 L59.6,294.2 L65,293.1 C65.3,294.5 68.2,306.9 80.9,306.9 C94,306.9 96.7,293.7 96.8,293.1 L107.5,295.2 C106.2,303 98.6,317.8 81,317.8 Z" id="Shape" fill="#3A3033"></path>
            <path d="M151.1,97.5 L11.4,97.5 L10.9,92.6 C10.8,91.9 9.5,75.4 32.1,67.3 C49,61.3 50,59.2 54.8,49 C59.2,39.8 73.3,27.7 74.9,26.4 L77.3,24.3 L80.3,25.4 C80.9,25.6 95.2,31.1 104,45 C111.5,56.8 111.5,56.8 124.7,61.9 C142.3,68.7 147.3,81.6 149.5,90.7 L151.1,97.5 Z M23.3,86.5 L136.7,86.5 C134.2,80.8 129.9,75.5 120.8,72.1 C104.8,66 103.9,65.2 94.8,50.8 C90.1,43.3 83.2,38.9 79.4,36.9 C74.6,41.2 67.1,48.7 64.7,53.6 C58.8,66 56,70.2 35.8,77.4 C28.5,80.1 25,83.7 23.3,86.5 Z" id="Shape" fill="#3A3033"></path>
            <rect id="Rectangle-path" fill="#3A3033" transform="translate(70.993395, 58.414385) rotate(69.653182) translate(-70.993395, -58.414385) " x="65.5434248" y="28.0645512" width="10.8999403" height="60.6996677"></rect>
            <rect id="Rectangle-path" fill="#3A3033" transform="translate(89.599385, 80.450525) rotate(73.040075) translate(-89.599385, -80.450525) " x="84.1494364" y="41.0508965" width="10.8998972" height="78.7992569"></rect>
            <polygon id="Shape" fill="#3A3033" points="119.8 66.6 110.3 61.3 133.7 19 181.5 0.8 185.3 11.1 141.4 27.8"></polygon>
        </g>
    </g>
</svg>