<?xml version="1.0" encoding="UTF-8"?>
<svg width="314px" height="332px" viewBox="0 0 314 332" version="1.1" xmlns="http://www.w3.org/2000/svg" xmlns:xlink="http://www.w3.org/1999/xlink">
    <!-- Generator: Sketch 51 (57462) - http://www.bohemiancoding.com/sketch -->
    <title>coffee pot</title>
    <desc>Created with Sketch.</desc>
    <defs></defs>
    <g id="Page-1" stroke="none" stroke-width="1" fill="none" fill-rule="evenodd">
        <g id="coffee-pot" fill-rule="nonzero">
            <path d="M210.9,103.6 L139,103.6 L67.1,103.6 C67.1,103.6 19.7,193.2 19.7,294.8 C19.7,311.9 33.6,325.8 50.7,325.8 L139,325.8 L227.3,325.8 C244.4,325.8 258.3,311.9 258.3,294.8 C258.3,193.1 210.9,103.6 210.9,103.6 Z" id="Shape" fill="#FFFFFF"></path>
            <path d="M206,53.6 L205.3,53.6 L205.3,33.3 L166.7,33.3 C166.7,18.3 154.6,6.2 139.6,6.2 C124.6,6.2 112.5,18.3 112.5,33.3 L73.9,33.3 L73.9,53.6 L54.8,53.6 L13.8,53.6 L30.1,69.9 C60.4,69.9 67.1,103.6 67.1,103.6 L210.9,103.6 C210.9,103.1 210.9,102.6 210.9,102.2 C211.9,87.8 231.5,84 238.4,96.7 C245.5,109.8 264.5,156.3 269.8,174.8 C279.6,208.8 307.3,208.101095 307.3,208.101095 C304.1,176.5 277.8,113.2 263.8,87.8 C252.3,66.7 230.1,53.6 206,53.6 Z" id="Shape" fill="#9D705C"></path>
            <path d="M27.8,218.4 C23,242.1 19.7,268 19.7,294.7 C19.7,311.8 33.6,325.7 50.7,325.7 L227.2,325.7 C244.3,325.7 258.2,311.8 258.2,294.7 C258.2,267.9 254.9,242 250.1,218.4 L27.8,218.4 Z" id="Shape" fill="#CD9E5D"></path>
            <path d="M227.3,331.3 L50.7,331.3 C30.6,331.3 14.2,314.9 14.2,294.8 C14.2,193 61.7,102 62.2,101 L63.7,98.1 L214.1,98.1 L215.6,101 C216.1,101.9 263.6,192.9 263.6,294.8 C263.8,314.9 247.4,331.3 227.3,331.3 Z M70.5,109 C62.6,125.1 25.2,205.8 25.2,294.7 C25.2,308.8 36.7,320.3 50.8,320.3 L227.3,320.3 C241.4,320.3 252.9,308.8 252.9,294.7 C252.9,205.7 215.6,125.1 207.6,109 L70.5,109 Z" id="Shape" fill="#3A3033"></path>
            <path d="M307.3,213.5 C305.8,213.5 297.8,213.3 288.8,208.4 C280.8,204.1 270.1,195 264.7,176.2 C259.4,157.9 240.7,112.1 233.7,99.2 C231.3,94.8 227.2,94.3 225.5,94.3 C221.4,94.3 216.8,96.8 216.4,102.4 C216.4,102.7 216.4,103.1 216.4,103.5 L216.4,109 L62.6,109 L61.7,104.6 C61.5,103.4 55.5,75.3 30.1,75.3 L27.8,75.3 L0.5,48 L206,48 C232.1,48 256.1,62.2 268.7,85.1 C281.9,109.1 309.4,174 312.8,207.5 L313.4,213.4 L307.3,213.5 Z M225.5,83.5 C233,83.5 239.7,87.5 243.3,94.1 C250.5,107.3 269.7,154.5 275.1,173.3 C280.9,193.4 293.3,199.8 300.9,201.8 C295.1,169.3 271.5,113.1 259.1,90.5 C248.4,71.1 228.1,59.1 206,59.1 L27,59.1 L32.5,64.6 C45.8,65.3 56.9,71.9 64.6,83.9 C68.1,89.3 70.2,94.6 71.3,98.2 L206.1,98.2 C208.3,89.5 216.1,83.5 225.5,83.5 Z" id="Shape" fill="#3A3033"></path>
            <rect id="Rectangle-path" fill="#3A3033" x="120.4" y="131" width="43.4" height="10.9"></rect>
            <rect id="Rectangle-path" fill="#3A3033" x="131.8" y="158.5" width="20.8" height="10.9"></rect>
            <rect id="Rectangle-path" fill="#3A3033" x="131.8" y="185.9" width="20.8" height="10.9"></rect>
            <rect id="Rectangle-path" fill="#3A3033" x="120.4" y="185.9" width="43.4" height="10.9"></rect>
            <rect id="Rectangle-path" fill="#3A3033" x="131.8" y="213.4" width="20.8" height="10.9"></rect>
            <rect id="Rectangle-path" fill="#3A3033" x="131.8" y="240.8" width="20.8" height="10.9"></rect>
            <rect id="Rectangle-path" fill="#3A3033" x="120.4" y="240.8" width="43.4" height="10.9"></rect>
            <rect id="Rectangle-path" fill="#3A3033" x="131.8" y="268.3" width="20.8" height="10.9"></rect>
            <rect id="Rectangle-path" fill="#3A3033" x="131.8" y="295.8" width="20.8" height="10.9"></rect>
            <rect id="Rectangle-path" fill="#3A3033" x="120.4" y="295.8" width="43.4" height="10.9"></rect>
            <path d="M210.8,59 L68.4,59 L68.4,27.8 L210.8,27.8 L210.8,59 Z M79.3,48.1 L199.8,48.1 L199.8,38.8 L79.3,38.8 L79.3,48.1 Z" id="Shape" fill="#3A3033"></path>
            <path d="M172.2,38.8 L107,38.8 L107,33.3 C107,15.3 121.6,0.7 139.6,0.7 C157.6,0.7 172.2,15.3 172.2,33.3 L172.2,38.8 Z M118.6,27.8 L160.5,27.8 C158.1,18.5 149.6,11.6 139.6,11.6 C129.6,11.6 121.1,18.5 118.6,27.8 Z" id="Shape" fill="#3A3033"></path>
        </g>
    </g>
</svg>