<?xml version="1.0" encoding="UTF-8"?>
<svg width="416px" height="328px" viewBox="0 0 416 328" version="1.1" xmlns="http://www.w3.org/2000/svg" xmlns:xlink="http://www.w3.org/1999/xlink">
    <!-- Generator: Sketch 51 (57462) - http://www.bohemiancoding.com/sketch -->
    <title>coffee pods</title>
    <desc>Created with Sketch.</desc>
    <defs></defs>
    <g id="Page-1" stroke="none" stroke-width="1" fill="none" fill-rule="evenodd">
        <g id="coffee-pods" fill-rule="nonzero">
            <g id="Group" transform="translate(0.000000, 64.000000)">
                <circle id="Oval" fill="#FFFFFF" cx="132.3" cy="131.9" r="126.4"></circle>
                <circle id="Oval" fill="#95BDA6" cx="132.3" cy="131.9" r="70.9"></circle>
                <path d="M132.3,263.8 C59.6,263.8 0.4,204.6 0.4,131.9 C0.4,59.2 59.5,0 132.3,0 C205.1,0 264.2,59.2 264.2,131.9 C264.2,204.6 205,263.8 132.3,263.8 Z M132.3,10.9 C65.6,10.9 11.3,65.2 11.3,131.9 C11.3,198.6 65.6,252.9 132.3,252.9 C199,252.9 253.3,198.6 253.3,131.9 C253.3,65.2 199,10.9 132.3,10.9 Z" id="Shape" fill="#3A3033"></path>
                <path d="M132.3,226.7 C80,226.7 37.4,184.1 37.4,131.8 C37.4,79.5 80,37 132.3,37 C184.6,37 227.2,79.6 227.2,131.9 C227.2,184.2 184.6,226.7 132.3,226.7 Z M132.3,48 C86,48 48.4,85.6 48.4,131.9 C48.4,178.2 86,215.8 132.3,215.8 C178.6,215.8 216.2,178.2 216.2,131.9 C216.2,85.6 178.5,48 132.3,48 Z" id="Shape" fill="#3A3033"></path>
                <path d="M132.3,208.2 C90.2,208.2 55.9,173.9 55.9,131.8 C55.9,89.7 90.2,55.4 132.3,55.4 C174.4,55.4 208.7,89.7 208.7,131.8 C208.6,174 174.4,208.2 132.3,208.2 Z M132.3,66.5 C96.2,66.5 66.9,95.8 66.9,131.9 C66.9,168 96.2,197.3 132.3,197.3 C168.4,197.3 197.7,168 197.7,131.9 C197.7,95.8 168.3,66.5 132.3,66.5 Z" id="Shape" fill="#3A3033"></path>
            </g>
            <path d="M410.2,195.9 C410.2,265.7 353.6,322.3 283.8,322.3 C255.4,322.3 229.2,312.9 208.1,297.1 C216.1,291.1 223.4,284.1 229.8,276.4 C233.2,272.3 236.4,267.9 239.3,263.3 C251.7,243.8 258.8,220.6 258.8,195.8 C258.8,171 251.6,147.8 239.3,128.3 C236.4,123.7 233.2,119.4 229.8,115.2 C223.4,107.5 216.1,100.6 208.1,94.5 C219.7,85.8 232.8,79.1 247,74.8 L247,40.1 C247,21.1 262.4,5.6 281.5,5.6 L286.3,5.6 C305.3,5.6 320.8,21 320.8,40.1 L320.8,74.8 C372.4,90.7 410.2,138.9 410.2,195.9 Z" id="Shape" fill="#FFFFFF"></path>
            <path d="M283.7,327.8 C255,327.8 227.6,318.7 204.7,301.5 L198.9,297.1 L204.7,292.7 C212.4,286.9 219.4,280.3 225.5,272.9 C228.8,268.9 231.8,264.7 234.5,260.4 C246.7,241.1 253.2,218.8 253.2,195.8 C253.2,172.8 246.7,150.5 234.5,131.2 C231.7,126.9 228.7,122.6 225.4,118.7 C219.3,111.4 212.3,104.7 204.6,98.9 L198.8,94.5 L204.6,90.1 C215.8,81.7 228.1,75.2 241.3,70.8 L241.3,40.1 C241.3,18.1 259.2,0.2 281.2,0.2 L286,0.2 C308,0.2 325.9,18.1 325.9,40.1 L325.9,70.8 C350.8,79.3 373.1,95.4 389,116.5 C406.3,139.5 415.4,166.9 415.4,195.7 C415.6,268.6 356.5,327.8 283.7,327.8 Z M217.1,296.9 C236.9,310 259.8,316.9 283.7,316.9 C350.4,316.9 404.7,262.6 404.7,195.9 C404.7,142.3 370.3,95.8 319,80.2 L315.1,79 L315.1,40.2 C315.1,24.2 302.1,11.2 286.1,11.2 L281.3,11.2 C265.3,11.2 252.3,24.2 252.3,40.2 L252.3,79 L248.4,80.2 C237.2,83.6 226.7,88.5 217,95 C223.1,100.1 228.7,105.8 233.8,111.9 C237.4,116.2 240.7,120.8 243.7,125.5 C257,146.5 264.1,170.9 264.1,195.9 C264.1,220.9 257.1,245.3 243.7,266.3 C240.8,271 237.4,275.6 233.8,279.9 C228.8,286.1 223.2,291.7 217.1,296.9 Z" id="Shape" fill="#3A3033"></path>
            <path d="M284.8,290.7 C265.8,290.7 247.4,285.1 231.7,274.4 L227,271.2 L230.3,266.6 C233.8,261.8 236.9,256.7 239.6,251.5 C248.5,234.4 253.2,215.1 253.2,195.7 C253.2,176.3 248.5,157 239.6,139.9 C236.9,134.8 233.8,129.7 230.3,124.8 L227,120.2 L231.7,117 C247.4,106.4 265.8,100.7 284.8,100.7 C337.1,100.7 379.6,143.2 379.6,195.5 C379.6,248.2 337.1,290.7 284.8,290.7 Z M242.5,268.4 C255.3,275.9 269.8,279.8 284.8,279.8 C331.1,279.8 368.7,242.2 368.7,195.9 C368.7,149.6 331.1,112 284.8,112 C269.8,112 255.3,115.9 242.5,123.4 C245,127.2 247.3,131.1 249.3,135.1 C259,153.7 264.1,174.8 264.1,195.9 C264.1,217.1 259,238.1 249.2,256.7 C247.3,260.7 245,264.6 242.5,268.4 Z" id="Shape" fill="#3A3033"></path>
            <path d="M355.7,195.9 C355.7,235.1 323.9,266.8 284.8,266.8 C269.8,266.8 255.9,262.2 244.5,254.2 C253.6,236.8 258.7,216.9 258.7,195.9 C258.7,174.9 253.6,155 244.5,137.6 C255.9,129.7 269.8,125 284.8,125 C323.9,125 355.7,156.7 355.7,195.9 Z" id="Shape" fill="#95BDA6"></path>
            <path d="M284.8,272.2 C269.2,272.2 254.2,267.5 241.4,258.6 L237.4,255.9 L239.6,251.6 C248.5,234.5 253.2,215.2 253.2,195.8 C253.2,176.4 248.5,157.1 239.6,140 L237.4,135.7 L241.4,133 C254.2,124.1 269.2,119.4 284.8,119.4 C326.9,119.4 361.2,153.7 361.2,195.8 C361.1,238 326.9,272.2 284.8,272.2 Z M251.5,252.2 C261.5,258.1 272.9,261.3 284.7,261.3 C320.8,261.3 350.1,232 350.1,195.9 C350.1,159.8 320.8,130.5 284.7,130.5 C272.9,130.5 261.5,133.6 251.5,139.6 C259.8,157.1 264.1,176.5 264.1,196 C264.1,215.5 259.8,234.7 251.5,252.2 Z" id="Shape" fill="#3A3033"></path>
        </g>
    </g>
</svg>