<?xml version="1.0" encoding="UTF-8"?>
<svg width="282px" height="270px" viewBox="0 0 282 270" version="1.1" xmlns="http://www.w3.org/2000/svg" xmlns:xlink="http://www.w3.org/1999/xlink">
    <!-- Generator: Sketch 51 (57462) - http://www.bohemiancoding.com/sketch -->
    <title>coffee beans</title>
    <desc>Created with Sketch.</desc>
    <defs></defs>
    <g id="Page-1" stroke="none" stroke-width="1" fill="none" fill-rule="evenodd">
        <g id="coffee-beans" fill-rule="nonzero">
            <path d="M253.5,172.4 C275.8,154.5 283.2,114.5 269.6,74.3 C253.5,27.1 214.4,-2.4 182.3,8.6 C182.3,8.6 182.3,8.6 182.3,8.6 C150.1,19.6 137.1,66.7 153.1,113.9 C156.3,123.2 160.3,131.8 165.1,139.6 C165.4,139.6 165.7,139.6 166,139.6 C163.3,139.7 160.6,139.8 158,140.1 C157.5,126.1 152.7,113.8 143.3,105.1 C143.3,105.1 143.3,105.1 143.3,105.1 C118.4,82 70.7,92.9 36.8,129.5 C2.9,166.1 -4.4,214.5 20.5,237.6 C40.3,256 74.6,252.8 104.8,232.3 C119.6,247.8 143.4,259.4 171.2,262.7 C220.7,268.7 264.2,246.2 268.3,212.4 C269.8,198.2 264.2,184.2 253.5,172.4 C253.5,172.4 253.5,172.4 253.5,172.4 Z" id="Shape" fill="#CD9E5D"></path>
            <g id="Group" fill="#3A3033">
                <path d="M186.9,269.1 C181.4,269.1 175.9,268.8 170.4,268.1 C118,261.8 78.9,226.8 83.3,190.1 C87.2,157.6 123.7,134.1 169.9,134.1 C175.4,134.1 180.9,134.4 186.4,135.1 C238.8,141.4 277.9,176.4 273.5,213.1 C269.6,245.6 233.2,269.1 186.9,269.1 Z M169.9,145 C129.2,145 97.4,164.5 94.1,191.4 C90.4,222.1 125.2,251.6 171.6,257.2 C176.7,257.8 181.8,258.1 186.8,258.1 C227.5,258.1 259.3,238.6 262.6,211.7 C266.3,181 231.5,151.5 185.1,145.9 C180.1,145.3 175,145 169.9,145 Z" id="Shape"></path>
                <path d="M186.9,269.1 C181.4,269.1 175.9,268.8 170.4,268.1 C118,261.8 78.9,226.8 83.3,190.1 C87.2,157.6 123.7,134.1 169.9,134.1 C175.4,134.1 180.9,134.4 186.4,135.1 C238.8,141.4 277.9,176.4 273.5,213.1 C269.6,245.6 233.2,269.1 186.9,269.1 Z M169.9,145 C129.2,145 97.4,164.5 94.1,191.4 C90.4,222.1 125.2,251.6 171.6,257.2 C176.7,257.8 181.8,258.1 186.8,258.1 C227.5,258.1 259.3,238.6 262.6,211.7 C266.3,181 231.5,151.5 185.1,145.9 C180.1,145.3 175,145 169.9,145 Z" id="Shape"></path>
                <path d="M137.3,220.3 C103.8,220.3 84.6,194.4 84.3,194 L93.2,187.6 C94.4,189.3 124.2,228.9 175.6,197 C235.7,159.7 272.2,208.8 272.6,209.3 L263.7,215.7 C262.5,214 232.7,174.4 181.3,206.3 C164.8,216.5 150,220.3 137.3,220.3 Z" id="Shape"></path>
                <path d="M255.1,178.2 L250.8,177.6 L249.5,176.1 C247.3,173.6 244.8,171.2 242,168.9 C227.4,156.8 207.2,148.6 185.2,145.9 C178.6,145.1 171.8,144.8 165.3,145.1 L162.1,145.2 L160.4,142.5 C155.3,134.2 151.1,125.2 147.9,115.7 C131.1,66.2 145.3,16.3 179.5,3.8 L180.5,3.5 C185.5,1.8 190.8,0.9 196.2,0.9 C228.1,0.9 260.4,30.4 274.8,72.6 C288.9,114.2 281.6,157 257,176.7 L255.1,178.2 Z M169.9,134.1 C175.4,134.1 181,134.4 186.5,135.1 C210.6,138 232.8,147 249,160.5 C250.7,161.9 252.3,163.4 253.8,164.8 C271.6,146.7 276.1,110.5 264.4,76.1 C251.7,38.8 223,11.8 196.2,11.8 C192.2,11.8 188.3,12.4 184.5,13.6 L184,13.8 C154.7,23.8 143.2,67.9 158.2,112.2 C160.8,119.9 164.1,127.3 168.1,134.1 C168.7,134.1 169.3,134.1 169.9,134.1 Z" id="Shape"></path>
                <path d="M255.1,178.2 L250.8,177.6 L249.5,176.1 C247.3,173.6 244.8,171.2 242,168.9 C227.4,156.8 207.2,148.6 185.2,145.9 C178.6,145.1 171.8,144.8 165.3,145.1 L162.1,145.2 L160.4,142.5 C155.3,134.2 151.1,125.2 147.9,115.7 C131.1,66.2 145.3,16.3 179.5,3.8 L180.5,3.5 C185.5,1.8 190.8,0.9 196.2,0.9 C228.1,0.9 260.4,30.4 274.8,72.6 C288.9,114.2 281.6,157 257,176.7 L255.1,178.2 Z M169.9,134.1 C175.4,134.1 181,134.4 186.5,135.1 C210.6,138 232.8,147 249,160.5 C250.7,161.9 252.3,163.4 253.8,164.8 C271.6,146.7 276.1,110.5 264.4,76.1 C251.7,38.8 223,11.8 196.2,11.8 C192.2,11.8 188.3,12.4 184.5,13.6 L184,13.8 C154.7,23.8 143.2,67.9 158.2,112.2 C160.8,119.9 164.1,127.3 168.1,134.1 C168.7,134.1 169.3,134.1 169.9,134.1 Z" id="Shape"></path>
                <path d="M250.8,165.8 L240.1,163.6 C243.9,145.6 241.4,119.8 208.3,98.8 C149.1,61.1 176.1,8.3 177.3,6.1 L177.8,5.1 L178.7,4.4 L182.2,8.6 L187,11.1 C186,13 163.4,57.1 214.2,89.5 C254.6,115.2 254.5,148.4 250.8,165.8 Z" id="Shape"></path>
                <path d="M53.9,255.2 C39.1,255.2 26.2,250.5 16.7,241.6 C3.3,229.2 -2.3,210 1.1,187.8 C4.3,166.3 15.6,144.3 32.7,125.8 C54.9,101.8 83.7,87.5 109.7,87.5 C124.5,87.5 137.4,92.2 146.9,101.1 C157.1,110.6 162.8,124 163.4,140 L163.6,145.2 L158.5,145.7 C122.9,149.1 97.1,167.5 94.2,191.6 C92.7,204.2 97.8,217.3 108.7,228.7 L113.2,233.4 L107.8,237 C90.3,248.6 71.2,255.2 53.9,255.2 Z M109.7,98.4 C86.7,98.4 60.9,111.4 40.7,133.2 C25,150.1 14.8,170 11.9,189.4 C9.1,208 13.4,223.7 24.1,233.6 C31.6,240.6 41.9,244.3 53.9,244.3 C67.4,244.3 82.3,239.7 96.4,231.2 C86.3,218.6 81.6,204.2 83.3,190.2 C86.7,162.2 114,140.6 152.1,135.4 C150.8,124.6 146.5,115.6 139.5,109.2 C132,102.1 121.7,98.4 109.7,98.4 Z" id="Shape"></path>
                <path d="M20.4,243 C20.4,243 20.4,243 20.4,243 L20.4,232.1 C22.5,232.1 72,231.2 76.4,170.9 C79.1,134.2 97.1,116.7 111.7,108.5 C127.4,99.7 142.5,99.6 143.3,99.6 C143.3,99.6 143.3,99.6 143.3,99.6 L143.3,105.1 L143.3,110.6 C141.2,110.6 91.7,111.5 87.3,171.8 C84.6,208.5 66.6,226 52,234.2 C36.2,242.9 21.2,243 20.4,243 Z" id="Shape"></path>
            </g>
        </g>
    </g>
</svg>