<?xml version="1.0" encoding="UTF-8"?>
<svg width="328px" height="298px" viewBox="0 0 328 298" version="1.1" xmlns="http://www.w3.org/2000/svg" xmlns:xlink="http://www.w3.org/1999/xlink">
    <!-- Generator: Sketch 51 (57462) - http://www.bohemiancoding.com/sketch -->
    <title>coffee tree</title>
    <desc>Created with Sketch.</desc>
    <defs></defs>
    <g id="Page-1" stroke="none" stroke-width="1" fill="none" fill-rule="evenodd">
        <g id="coffee-tree" fill-rule="nonzero">
            <path d="M244.7,223.9 C265.2,217.3 286,216 315.6,214.2 C322.1,213.8 324.8,205.8 319.9,201.5 C298.7,183.2 277.9,174 248,167.9 C245.5,167.4 244.1,164.6 245.3,162.4 C248.6,155.9 250.7,148.9 251.5,141.7 C251.9,138.4 248.4,136.2 245.6,137.9 C228.8,148.2 208.9,157.8 191.2,164.8 C195.6,159.2 199.6,153.4 203,147.7 C213.4,130.4 221.2,108.8 216.2,88.9 C216.1,88.7 216.1,88.5 216,88.3 C215.2,85.2 211.2,84.3 209.2,86.8 C208.3,87.9 207.4,89 206.5,90.1 C204.2,92.9 199.6,91.3 199.6,87.6 C199.6,76.5 196.5,65.7 191.3,54.7 C189.7,51.3 184.6,51.9 183.9,55.6 C183.6,57.2 183.3,58.8 183,60.3 C182.4,63.7 178.1,64.7 176.1,62 C161.7,42.4 138,20.3 113.7,6.6 C110.5,4.8 106.8,8 108.2,11.4 C115.3,29.3 117.9,44 119.2,71.1 C119.4,74.5 115.4,76.5 112.8,74.3 C111.2,72.9 109.5,71.6 107.8,70.3 C104.5,67.8 100.1,71.5 102,75.2 C107.5,86.1 113.9,98.4 118.7,109.9 C120.2,113.4 116.2,116.7 113,114.7 C112.9,114.6 112.8,114.6 112.7,114.5 C109.1,112.2 105,116.5 107.4,120 C115.3,131.3 122,143.1 125.7,164.3 C125.8,165 126.1,165.7 126.6,166.2 L146.8,189.4 C147,189.6 147.1,189.8 147.3,190.1 L169.8,230.8 C170.1,231.3 170.4,231.7 170.9,232 C184.7,242.3 198.4,252.6 212.2,262.9 C216.6,266.2 218.7,267.7 223.3,270.6 C226.5,272.6 230.3,269.4 229,265.9 C227.1,260.8 225.1,255.7 223.1,250.7 C221.9,247.6 224.9,244.4 228.1,245.6 C232.2,247.1 236.1,248.4 240.8,250.3 C244.4,251.8 247,253.1 254.2,254.6 C258,255.4 260.5,250.9 257.8,248.1 C252.4,242.4 247.4,236.3 242.8,229.9 C241.2,227.7 242.2,224.7 244.7,223.9 Z" id="Shape" fill="#CDCCCC"></path>
            <path d="M0.9,297.4 L0.1,286.5 C0.8,286.5 67.4,280.8 122.2,211.9 C180,139.2 144,66.6 143.7,65.9 L153.4,60.9 C153.8,61.7 163.6,81.1 165.7,110.4 C167.7,137.3 163.2,178 130.7,218.8 C72.9,291.5 3.8,297.2 0.9,297.4 Z" id="Shape" fill="#3A3033"></path>
            <path d="M156.6,202.6 L151.3,193 C168.4,183.6 185.4,166.1 198.2,144.9 C206.3,131.4 215,111.6 211.3,92.7 L210.7,93.5 C208.2,96.6 204.1,97.7 200.3,96.4 C196.5,95 194.1,91.6 194.1,87.6 C194.1,79.4 192.2,70.8 188.3,61.5 C187.6,65.1 184.8,67.9 181.3,68.7 C177.7,69.6 173.9,68.2 171.7,65.1 C157.7,46 135.7,26.1 114.9,13.5 C121,30.2 123.5,45 124.7,70.8 C124.9,74.5 122.8,78 119.5,79.6 C116.5,81.1 112.9,80.8 110.1,79 C114.7,88.1 119.8,98.2 123.8,107.7 C125.4,111.5 124.3,115.8 121.2,118.4 C119.3,120 116.9,120.8 114.6,120.6 C122.5,132.6 128.1,144.8 131.4,164.3 L120.6,166.1 C117,144.4 110,132.9 103.1,123 C100.5,119.3 100.9,114.5 104,111.2 C106.2,108.9 109.3,107.9 112.3,108.4 C108.5,99.6 103.9,90.6 99.4,81.8 L97.2,77.5 C95.2,73.6 96.2,68.9 99.6,66.1 C103,63.3 107.8,63.2 111.2,65.8 C112,66.4 112.8,67.1 113.7,67.7 C112.4,43.3 109.8,29.7 103.3,13.2 C101.8,9.5 102.8,5.3 105.9,2.7 C108.9,0.1 113.1,-0.4 116.6,1.6 C139.1,14.3 162.5,34.8 178.5,55.5 C178.6,55.1 178.7,54.7 178.7,54.2 C179.5,50.2 182.6,47.2 186.7,46.7 C190.8,46.2 194.7,48.3 196.4,52 C201.6,63 204.5,73.2 205.1,83 C207.4,80.3 210.9,79 214.4,79.8 C217.9,80.6 220.6,83.2 221.4,86.6 L221.6,87.3 C227.4,110.5 217.3,134.4 207.8,150.2 C193.9,173.3 175.3,192.3 156.6,202.6 Z" id="Shape" fill="#3A3033"></path>
            <path d="M225.2,276.6 C223.5,276.6 221.8,276.1 220.2,275.2 C215.4,272.2 213.2,270.6 208.8,267.3 L166.9,235.9 L173.5,227.1 L215.4,258.5 C218.2,260.6 220,261.9 222.2,263.4 C220.8,259.8 219.4,256.2 218,252.7 C216.6,249.2 217.4,245.4 220,242.7 C222.6,240 226.5,239.2 230,240.4 C231.2,240.8 232.4,241.3 233.6,241.7 C236.5,242.7 239.4,243.8 242.8,245.2 C243.4,245.4 243.9,245.6 244.4,245.9 C246.2,246.6 247.8,247.3 250.2,248 C246,243.3 242,238.3 238.3,233.1 C236.5,230.6 236.1,227.5 237,224.6 C237.9,221.7 240.2,219.5 243.1,218.6 C264.6,211.7 286.9,210.4 315.2,208.7 C316.2,208.6 316.6,208 316.7,207.5 C316.8,207.1 317,206.3 316.2,205.6 C296.3,188.5 276.9,179.4 246.9,173.3 C244,172.7 241.6,170.8 240.3,168.1 C239,165.4 239,162.4 240.4,159.8 C242.9,154.9 244.6,149.6 245.5,144.2 C229.7,153.6 210.7,162.8 193.1,169.8 L189.1,159.6 C207.2,152.5 226.7,142.9 242.5,133.3 C245.6,131.4 249.4,131.4 252.5,133.4 C255.6,135.4 257.2,138.8 256.8,142.5 C256,149.6 254,156.5 251,163 C281.5,169.5 302.6,179.5 323.4,197.4 C327.3,200.8 328.8,206.2 327.2,211.1 C325.5,216 321.1,219.4 315.9,219.7 C289.3,221.3 268.1,222.6 248.4,228.5 C252.5,234 256.9,239.3 261.6,244.3 C264.5,247.3 265,251.8 263,255.4 C261,259 256.9,260.9 252.8,260 C246.2,258.6 243.1,257.3 240.1,256.1 L238.6,255.5 C235.4,254.2 232.5,253.2 229.8,252.2 C229.6,252.1 229.5,252.1 229.3,252 C230.9,256 232.4,260 233.9,264 C235.3,267.8 234.2,272 231,274.6 C229.4,275.9 227.3,276.6 225.2,276.6 Z" id="Shape" fill="#3A3033"></path>
            <path d="M173.9,214.5 L169.5,204.5 C171.4,203.7 217.4,183.9 271.3,190.4 L270,201.3 C219.2,195.1 174.4,214.3 173.9,214.5 Z" id="Shape" fill="#3A3033"></path>
            <path d="M148.6,153.6 C159.6,164.5 157.4,182.6 144.1,190.5 C135.1,195.9 123.2,194.5 115.7,187 C104.7,176.1 106.9,158 120.2,150.1 C129.2,144.7 141.1,146.2 148.6,153.6 Z" id="Shape" fill="#9D705C"></path>
            <path d="M133.9,202.3 C144.8,213.1 142.6,231.1 129.4,239 C120.4,244.4 108.6,242.9 101.2,235.6 C90.3,224.8 92.5,206.8 105.7,198.9 C114.7,193.5 126.4,194.9 133.9,202.3 Z" id="Shape" fill="#9D705C"></path>
            <path d="M172.7,234.9 C183.3,245.5 181.2,263 168.3,270.7 C159.5,275.9 148.1,274.5 140.8,267.3 C130.2,256.7 132.3,239.2 145.2,231.5 C154,226.3 165.4,227.7 172.7,234.9 Z" id="Shape" fill="#9D705C"></path>
            <ellipse id="Oval" fill="#9D705C" transform="translate(164.591720, 203.523250) rotate(-38.026247) translate(-164.591720, -203.523250) " cx="164.59172" cy="203.52325" rx="23.2991529" ry="22.6991747"></ellipse>
            <path d="M101.7,167.8 C112.6,178.6 110.4,196.6 97.2,204.5 C88.2,209.9 76.4,208.4 69,201.1 C58.1,190.3 60.3,172.3 73.5,164.4 C82.5,159 94.3,160.5 101.7,167.8 Z" id="Shape" fill="#9D705C"></path>
            <path d="M85.8,214.4 C96.7,225.2 94.5,243.2 81.3,251.1 C72.3,256.5 60.5,255 53.1,247.7 C42.2,236.9 44.4,218.9 57.6,211 C66.6,205.6 78.3,207 85.8,214.4 Z" id="Shape" fill="#9D705C"></path>
            <path d="M128.5,252 C139.4,262.8 137.2,280.8 124,288.7 C115,294.1 103.2,292.6 95.8,285.3 C84.9,274.5 87.1,256.5 100.3,248.6 C109.3,243.2 121,244.6 128.5,252 Z" id="Shape" fill="#9D705C"></path>
            <path d="M132.2,199.2 C124.6,199.2 117.2,196.2 111.9,190.9 C105.5,184.5 102.4,175.7 103.5,166.8 C104.6,157.9 109.7,150.1 117.5,145.4 C121.9,142.8 127,141.4 132.2,141.4 C139.8,141.4 147.2,144.4 152.5,149.7 C158.9,156.1 162,164.9 160.9,173.8 C159.8,182.7 154.7,190.5 146.9,195.2 C142.4,197.9 137.4,199.2 132.2,199.2 Z M132.1,152.3 C128.9,152.3 125.7,153.2 123,154.8 C118.1,157.7 114.9,162.6 114.3,168.1 C113.6,173.7 115.5,179.1 119.6,183.1 C122.9,186.4 127.5,188.2 132.2,188.2 C135.4,188.2 138.6,187.3 141.3,185.7 C146.2,182.8 149.4,177.9 150,172.4 C150.7,166.8 148.8,161.4 144.7,157.4 C141.4,154.2 136.8,152.3 132.1,152.3 Z" id="Shape" fill="#3A3033"></path>
            <path d="M156.8,279.3 C149.4,279.3 142.2,276.3 137,271.2 C130.7,265 127.7,256.4 128.8,247.7 C129.9,239 134.8,231.4 142.4,226.9 C146.7,224.3 151.6,223 156.7,223 C164.1,223 171.3,226 176.5,231.1 C182.8,237.3 185.8,245.9 184.7,254.6 C183.6,263.3 178.7,270.9 171.1,275.4 C166.8,277.9 161.9,279.3 156.8,279.3 Z M156.7,233.8 C153.6,233.8 150.6,234.6 148,236.2 C143.3,239 140.3,243.6 139.6,249 C138.9,254.3 140.8,259.6 144.6,263.4 C147.7,266.5 152.2,268.3 156.7,268.3 C159.8,268.3 162.8,267.5 165.4,265.9 C170.1,263.1 173.1,258.5 173.8,253.1 C174.5,247.8 172.6,242.5 168.8,238.7 C165.7,235.6 161.3,233.8 156.7,233.8 Z" id="Shape" fill="#3A3033"></path>
            <path d="M164.1,231.9 C155.4,231.9 147.3,228 142,221.2 C132.4,209 134.8,191 147.3,181.3 C152.4,177.3 158.8,175.1 165.2,175.1 C173.9,175.1 182,179 187.3,185.8 C196.9,198 194.5,215.9 182,225.7 C176.9,229.7 170.5,231.9 164.1,231.9 Z M165.2,186 C161.1,186 157.3,187.3 154,189.9 C146.3,196 144.7,207 150.6,214.5 C153.8,218.6 158.7,221 164.1,221 C168.2,221 172,219.7 175.3,217.1 C183,211 184.6,200 178.7,192.5 C175.5,188.4 170.5,186 165.2,186 Z" id="Shape" fill="#3A3033"></path>
            <path d="M117.6,247.7 C110,247.7 102.7,244.7 97.4,239.4 C91,233 87.9,224.3 89,215.4 C90.1,206.5 95.2,198.8 102.9,194.1 C107.3,191.5 112.3,190.1 117.5,190.1 C125.1,190.1 132.4,193.1 137.7,198.4 C144.1,204.8 147.2,213.5 146.1,222.4 C145,231.3 139.9,239 132.2,243.7 C127.8,246.3 122.7,247.7 117.6,247.7 Z M117.5,201.1 C114.3,201.1 111.2,201.9 108.5,203.6 C103.7,206.5 100.5,211.3 99.8,216.8 C99.1,222.3 101,227.7 105,231.7 C108.3,234.9 112.8,236.8 117.5,236.8 C120.7,236.8 123.8,236 126.5,234.3 C131.3,231.4 134.5,226.6 135.2,221.1 C135.9,215.6 134,210.2 130,206.2 C126.8,202.9 122.2,201.1 117.5,201.1 Z" id="Shape" fill="#3A3033"></path>
            <path d="M85.4,213.2 C77.8,213.2 70.5,210.2 65.2,204.9 C58.8,198.5 55.7,189.8 56.8,180.9 C57.9,172 63,164.3 70.7,159.6 C75.1,157 80.1,155.6 85.3,155.6 C92.9,155.6 100.2,158.6 105.5,163.9 C111.9,170.3 115,179 113.9,187.9 C112.8,196.8 107.7,204.5 100,209.2 C95.6,211.8 90.6,213.2 85.4,213.2 Z M85.3,166.6 C82.1,166.6 79,167.4 76.3,169.1 C71.5,172 68.3,176.8 67.6,182.3 C66.9,187.8 68.8,193.2 72.8,197.2 C76.1,200.4 80.6,202.3 85.3,202.3 C88.5,202.3 91.6,201.5 94.3,199.8 C99.1,196.9 102.3,192.1 103,186.6 C103.7,181.1 101.8,175.7 97.8,171.7 C94.6,168.5 90,166.6 85.3,166.6 Z" id="Shape" fill="#3A3033"></path>
            <path d="M69.5,259.8 C61.9,259.8 54.6,256.8 49.3,251.5 C42.9,245.1 39.8,236.4 40.9,227.5 C42,218.6 47.1,210.9 54.8,206.2 C59.2,203.6 64.2,202.2 69.4,202.2 C77,202.2 84.3,205.2 89.6,210.5 C96,216.9 99.1,225.6 98,234.5 C96.9,243.4 91.8,251.1 84.1,255.8 C79.7,258.4 74.6,259.8 69.5,259.8 Z M69.4,213.2 C66.2,213.2 63.1,214 60.4,215.7 C55.6,218.6 52.4,223.4 51.7,228.9 C51,234.4 52.9,239.8 56.9,243.8 C60.2,247 64.7,248.9 69.4,248.9 C72.6,248.9 75.7,248.1 78.4,246.4 C83.2,243.5 86.4,238.7 87.1,233.2 C87.8,227.7 85.9,222.3 81.9,218.3 C78.6,215.1 74.1,213.2 69.4,213.2 Z" id="Shape" fill="#3A3033"></path>
            <path d="M112.2,297.4 C104.6,297.4 97.3,294.4 92,289.1 C85.6,282.7 82.5,274 83.6,265.1 C84.7,256.2 89.8,248.5 97.5,243.8 C101.9,241.2 106.9,239.8 112.1,239.8 C119.7,239.8 127,242.8 132.3,248.1 C138.7,254.5 141.8,263.2 140.7,272.1 C139.6,281 134.5,288.7 126.8,293.4 C122.4,296 117.3,297.4 112.2,297.4 Z M112.1,250.8 C108.9,250.8 105.8,251.6 103.1,253.3 C98.3,256.2 95.1,261 94.4,266.5 C93.7,272 95.6,277.4 99.6,281.4 C102.9,284.6 107.4,286.5 112.1,286.5 C115.3,286.5 118.4,285.7 121.1,284 C125.9,281.1 129.1,276.3 129.8,270.8 C130.5,265.3 128.6,259.9 124.6,255.9 C121.3,252.7 116.8,250.8 112.1,250.8 Z" id="Shape" fill="#3A3033"></path>
        </g>
    </g>
</svg>