<?xml version="1.0" encoding="UTF-8"?>
<svg width="326px" height="394px" viewBox="0 0 326 394" version="1.1" xmlns="http://www.w3.org/2000/svg" xmlns:xlink="http://www.w3.org/1999/xlink">
    <!-- Generator: Sketch 51 (57462) - http://www.bohemiancoding.com/sketch -->
    <title>coffeemaker</title>
    <desc>Created with Sketch.</desc>
    <defs></defs>
    <g id="Page-1" stroke="none" stroke-width="1" fill="none" fill-rule="evenodd">
        <g id="coffeemaker" fill-rule="nonzero">
            <polygon id="Shape" fill="#FFFFFF" points="207 136.8 139.6 136.8 153.8 169.9 207 169.9 260.2 169.9 274.4 136.8"></polygon>
            <path d="M265.4,226.6 L146.3,226.6 L146.3,201 C146.3,198.8 148.1,197 150.3,197 L261.5,197 C263.7,197 265.5,198.8 265.5,201 L265.5,226.6 L265.4,226.6 Z" id="Shape" fill="#FFFFFF"></path>
            <path d="M257.1,341.1 L154.6,341.1 C150,341.1 146.3,337.4 146.3,332.8 L146.3,226.6 L265.4,226.6 L265.4,332.8 C265.4,337.4 261.7,341.1 257.1,341.1 Z" id="Shape" fill="#FFFFFF"></path>
            <polygon id="Shape" fill="#FFFFFF" points="146.3 207.6 129.2 207.6 121.4 217.1 146.3 226.6"></polygon>
            <polygon id="Shape" fill="#FFFFFF" points="207.6 169.9 175.2 169.9 185.1 197 207.6 197 230.2 197 240.1 169.9"></polygon>
            <path d="M146.3,275.6 L146.3,326 C146.3,334.3 153.1,341.1 161.4,341.1 L250.3,341.1 C258.6,341.1 265.4,334.3 265.4,326 L265.4,275.6 L146.3,275.6 Z" id="Shape" fill="#CD9E5D"></path>
            <path d="M278.3,323.2 L265.4,323.2 L265.4,306.1 L278.3,306.1 C281.7,306.1 284.9,304.5 285.9,302.2 L302.8,264.6 C303.6,262.8 302.7,261.4 301.8,260.5 L296.7,255.3 C295.2,253.8 292.7,252.8 290.1,252.8 L265.5,252.8 L265.5,235.7 L290,235.7 C297.2,235.7 304,238.5 308.7,243.3 L313.8,248.5 C320,254.9 321.7,263.7 318.2,271.5 L301.3,309.1 C297.6,317.7 288.5,323.2 278.3,323.2 Z" id="Shape" fill="#9D705C"></path>
            <path d="M286.7,136.8 L286.7,23 L5.9,23 L5.9,371 L286.8,371 L286.8,341.1 L136.7,341.1 C118.1,341.1 103,326 103,307.4 L103,170.6 C103,152 118.1,136.9 136.7,136.9 L286.7,136.9 L286.7,136.8 Z" id="Shape" fill="#95BDA6"></path>
            <path d="M38,193.1 C34,193.1 30.7,189.8 30.7,185.8 L30.7,56.7 C30.7,52.7 34,49.4 38,49.4 C42,49.4 45.3,52.7 45.3,56.7 L45.3,185.8 C45.3,189.9 42,193.1 38,193.1 Z" id="Shape" fill="#FFFFFF"></path>
            <rect id="Rectangle-path" fill="#9D705C" x="19.5" y="6.1" width="252.2" height="16.9"></rect>
            <rect id="Rectangle-path" fill="#9D705C" x="19.5" y="371" width="39.9" height="16.9"></rect>
            <rect id="Rectangle-path" fill="#9D705C" x="231.7" y="371" width="39.9" height="16.9"></rect>
            <path d="M292.2,376.4 L0.4,376.4 L0.4,17.6 L292.2,17.6 L292.2,142.3 L136.7,142.3 C121.1,142.3 108.4,155 108.4,170.6 L108.4,307.4 C108.4,323 121.1,335.7 136.7,335.7 L292.2,335.7 L292.2,376.4 Z M11.3,365.5 L281.2,365.5 L281.2,346.6 L136.7,346.6 C115.1,346.6 97.5,329 97.5,307.4 L97.5,170.6 C97.5,149 115.1,131.4 136.7,131.4 L281.3,131.4 L281.3,28.5 L11.3,28.5 L11.3,365.5 Z" id="Shape" fill="#3A3033"></path>
            <path d="M277.1,28.5 L14,28.5 L14,0.6 L277.1,0.6 L277.1,28.5 Z M24.9,17.6 L266.1,17.6 L266.1,11.6 L24.9,11.6 L24.9,17.6 Z" id="Shape" fill="#3A3033"></path>
            <path d="M64.9,393.4 L14,393.4 L14,365.5 L64.9,365.5 L64.9,393.4 Z M24.9,382.4 L53.9,382.4 L53.9,376.4 L24.9,376.4 L24.9,382.4 Z" id="Shape" fill="#3A3033"></path>
            <path d="M277.1,393.4 L226.2,393.4 L226.2,365.5 L277.1,365.5 L277.1,393.4 Z M237.2,382.4 L266.2,382.4 L266.2,376.4 L237.2,376.4 L237.2,382.4 Z" id="Shape" fill="#3A3033"></path>
            <path d="M38,198.6 C31,198.6 25.2,192.9 25.2,185.8 L25.2,56.7 C25.2,49.7 30.9,43.9 38,43.9 C45,43.9 50.8,49.6 50.8,56.7 L50.8,185.8 C50.7,192.9 45,198.6 38,198.6 Z M38,54.8 C37,54.8 36.2,55.6 36.2,56.6 L36.2,185.7 C36.2,186.7 37,187.5 38,187.5 C39,187.5 39.8,186.7 39.8,185.7 L39.8,56.7 C39.8,55.7 39,54.8 38,54.8 Z" id="Shape" fill="#3A3033"></path>
            <rect id="Rectangle-path" fill="#3A3033" x="61.5" y="49.1" width="17.5" height="10.9"></rect>
            <rect id="Rectangle-path" fill="#3A3033" x="61.5" y="75.5" width="10.9" height="10.9"></rect>
            <rect id="Rectangle-path" fill="#3A3033" x="61.5" y="101.9" width="10.9" height="10.9"></rect>
            <rect id="Rectangle-path" fill="#3A3033" x="61.5" y="101.9" width="17.5" height="10.9"></rect>
            <rect id="Rectangle-path" fill="#3A3033" x="61.5" y="128.3" width="10.9" height="10.9"></rect>
            <rect id="Rectangle-path" fill="#3A3033" x="61.5" y="154.7" width="10.9" height="10.9"></rect>
            <rect id="Rectangle-path" fill="#3A3033" x="61.5" y="154.7" width="17.5" height="10.9"></rect>
            <rect id="Rectangle-path" fill="#3A3033" x="61.5" y="181.1" width="10.9" height="10.9"></rect>
            <path d="M263.8,175.3 L150.2,175.3 L131.3,131.3 L282.8,131.3 L263.8,175.3 Z M157.4,164.4 L256.6,164.4 L266.1,142.3 L147.9,142.3 L157.4,164.4 Z" id="Shape" fill="#3A3033"></path>
            <path d="M270.9,232 L140.8,232 L140.8,204.2 C140.8,197.2 146.5,191.5 153.5,191.5 L258.2,191.5 C265.2,191.5 270.9,197.2 270.9,204.2 L270.9,232 Z M151.8,221.1 L260,221.1 L260,204.2 C260,203.2 259.2,202.5 258.3,202.5 L153.5,202.5 C152.5,202.5 151.8,203.3 151.8,204.2 L151.8,221.1 Z" id="Shape" fill="#3A3033"></path>
            <path d="M250.3,346.6 L161.4,346.6 C150.1,346.6 140.8,337.4 140.8,326 L140.8,221.1 L270.9,221.1 L270.9,326 C270.9,337.3 261.6,346.6 250.3,346.6 Z M151.8,232 L151.8,326 C151.8,331.3 156.1,335.6 161.4,335.6 L250.3,335.6 C255.6,335.6 259.9,331.3 259.9,326 L259.9,232 L151.8,232 Z" id="Shape" fill="#3A3033"></path>
            <path d="M151.8,234.5 L112.4,219.5 L126.7,202.1 L151.8,202.1 L151.8,234.5 Z M130.4,214.7 L140.8,218.7 L140.8,213 L131.8,213 L130.4,214.7 Z" id="Shape" fill="#3A3033"></path>
            <path d="M234,202.5 L181.3,202.5 L167.4,164.4 L247.8,164.4 L234,202.5 Z M188.9,191.5 L226.3,191.5 L232.2,175.3 L183,175.3 L188.9,191.5 Z" id="Shape" fill="#3A3033"></path>
            <path d="M278.3,328.6 L259.9,328.6 L259.9,300.6 L278.3,300.6 C279.6,300.6 280.6,300.1 280.9,299.8 L297.1,263.6 L292.6,259.1 C292.3,258.8 291.3,258.3 289.9,258.3 L259.8,258.3 L259.8,230.3 L290,230.3 C298.7,230.3 306.9,233.7 312.6,239.5 L317.7,244.7 C325.5,252.7 327.6,263.9 323.2,273.8 L306.3,311.4 C301.7,321.9 290.7,328.6 278.3,328.6 Z M270.9,317.7 L278.3,317.7 C286.4,317.7 293.5,313.5 296.4,307 L313.3,269.4 C315.9,263.6 314.7,257.2 310,252.4 L304.9,247.2 C301.2,243.4 295.8,241.3 290.1,241.3 L270.9,241.3 L270.9,247.4 L290,247.4 C294.1,247.4 297.9,248.9 300.5,251.5 L305.6,256.7 C308.5,259.6 309.2,263.4 307.7,266.9 L290.8,304.5 C288.9,308.7 283.9,311.6 278.3,311.6 L270.9,311.6 L270.9,317.7 Z" id="Shape" fill="#3A3033"></path>
        </g>
    </g>
</svg>