<?xml version="1.0" encoding="utf-8"?>
<!-- Generator: Adobe Illustrator 18.0.0, SVG Export Plug-In . SVG Version: 6.00 Build 0)  -->
<!DOCTYPE svg PUBLIC "-//W3C//DTD SVG 1.1//EN" "http://www.w3.org/Graphics/SVG/1.1/DTD/svg11.dtd">
<svg version="1.1" id="Layer_1" xmlns="http://www.w3.org/2000/svg" xmlns:xlink="http://www.w3.org/1999/xlink" x="0px" y="0px"
	 width="512px" height="512px" viewBox="0 0 512 512" enable-background="new 0 0 512 512" xml:space="preserve">
<g>
	<g>
		<g>
			<rect x="127.7" y="226.5" fill="#FFFFFF" width="256.5" height="171.1"/>
		</g>
		<g>
			<path fill="#3A3033" d="M389.7,403H122.3v-182h267.5V403z M133.2,392.1h245.6V232H133.2V392.1z"/>
		</g>
	</g>
	<g>
		<rect x="227.3" y="285.7" fill="#CD9E5D" width="57.3" height="111.9"/>
	</g>
	<g>
		<circle fill="#CDCCCC" cx="334" cy="324.7" r="20.5"/>
	</g>
	<g>
		<circle fill="#CDCCCC" cx="176.1" cy="324.7" r="20.5"/>
	</g>
	<g>
		<g>
			<path fill="#9D705C" d="M220.4,258.7L220.4,258.7c-19.6,0-35.6-15.9-35.6-35.6v-27.7H256v27.7C256,242.8,240.1,258.7,220.4,258.7
				z"/>
		</g>
		<g>
			<path fill="#9D705C" d="M362.7,258.7L362.7,258.7c-19.6,0-35.6-15.9-35.6-35.6v-27.7h71.1v27.7
				C398.3,242.8,382.4,258.7,362.7,258.7z"/>
		</g>
		<g>
			<path fill="#9D705C" d="M168.1,258.7h-37.6c-9.3,0-16.8-7.5-16.8-16.8v-46.5h71.1v46.5C184.9,251.2,177.3,258.7,168.1,258.7z"/>
		</g>
		<g>
			<path fill="#9D705C" d="M291.6,258.7L291.6,258.7c-19.6,0-35.6-15.9-35.6-35.6v-27.7h71.1v27.7
				C327.1,242.8,311.2,258.7,291.6,258.7z"/>
		</g>
		<g>
			<path fill="#3A3033" d="M291.6,264.1c-22.6,0-41-18.4-41-41v-33.2h82.1v33.2C332.6,245.7,314.2,264.1,291.6,264.1z M261.5,200.9
				v22.2c0,16.6,13.5,30.1,30.1,30.1c16.6,0,30.1-13.5,30.1-30.1v-22.2H261.5z"/>
		</g>
		<g>
			<path fill="#3A3033" d="M362.7,264.1c-22.6,0-41-18.4-41-41v-33.2h82.1v33.2C403.8,245.7,385.4,264.1,362.7,264.1z M332.6,200.9
				v22.2c0,16.6,13.5,30.1,30.1,30.1c16.6,0,30.1-13.5,30.1-30.1v-22.2H332.6z"/>
		</g>
		<g>
			<path fill="#3A3033" d="M220.4,264.1c-22.6,0-41-18.4-41-41v-33.2h82.1v33.2C261.5,245.7,243.1,264.1,220.4,264.1z M190.3,200.9
				v22.2c0,16.6,13.5,30.1,30.1,30.1c16.6,0,30.1-13.5,30.1-30.1v-22.2H190.3z"/>
		</g>
		<g>
			<path fill="#3A3033" d="M149.3,264.1c-22.6,0-41-18.4-41-41v-33.2h82.1v33.2C190.3,245.7,171.9,264.1,149.3,264.1z M119.2,200.9
				v22.2c0,16.6,13.5,30.1,30.1,30.1c16.6,0,30.1-13.5,30.1-30.1v-22.2H119.2z"/>
		</g>
		<g>
			<g>
				<polygon fill="#CD9E5D" points="256,195.4 256,114.4 220.4,114.4 184.9,195.4 				"/>
			</g>
			<g>
				<polygon fill="#CD9E5D" points="113.7,195.4 184.9,114.4 220.4,114.4 184.9,195.4 				"/>
			</g>
			<g>
				<polygon fill="#CD9E5D" points="256,195.4 256,114.4 291.6,114.4 327.1,195.4 				"/>
			</g>
			<g>
				<polygon fill="#CD9E5D" points="398.3,195.4 327.1,114.4 291.6,114.4 327.1,195.4 				"/>
			</g>
			<g>
				<path fill="#3A3033" d="M261.5,200.9h-85l40.4-91.9h44.6V200.9z M193.2,189.9h57.3v-70H224L193.2,189.9z"/>
			</g>
			<g>
				<path fill="#3A3033" d="M184.9,200.9h-71.1l-4.1-9.1l71.1-81l4.1-1.9h35.6l5,7.7l-35.6,81L184.9,200.9z M125.8,189.9h55.5
					l30.8-70h-24.7L125.8,189.9z"/>
			</g>
			<g>
				<path fill="#3A3033" d="M335.5,200.9h-85V109h44.6L335.5,200.9z M261.5,189.9h57.3l-30.8-70h-26.5V189.9z"/>
			</g>
			<g>
				<path fill="#3A3033" d="M398.3,200.9h-71.1l-5-3.3l-35.6-81l5-7.7h35.6l4.1,1.9l71.1,81L398.3,200.9z M330.7,189.9h55.5
					l-61.5-70h-24.7L330.7,189.9z"/>
			</g>
		</g>
	</g>
	<g>
		<path fill="#3A3033" d="M290.1,403h-68.3V280.2h68.3V403z M232.8,392.1h46.4v-101h-46.4V392.1z"/>
	</g>
	<g>
		<path fill="#3A3033" d="M334,350.6c-14.3,0-25.9-11.6-25.9-25.9c0-14.3,11.6-25.9,25.9-25.9c14.3,0,25.9,11.6,25.9,25.9
			C360,339,348.3,350.6,334,350.6z M334,309.7c-8.3,0-15,6.7-15,15c0,8.3,6.7,15,15,15c8.3,0,15-6.7,15-15
			C349,316.4,342.3,309.7,334,309.7z"/>
	</g>
	<g>
		<path fill="#3A3033" d="M176.1,350.6c-14.3,0-25.9-11.6-25.9-25.9c0-14.3,11.6-25.9,25.9-25.9c14.3,0,25.9,11.6,25.9,25.9
			C202,339,190.4,350.6,176.1,350.6z M176.1,309.7c-8.3,0-15,6.7-15,15c0,8.3,6.7,15,15,15c8.3,0,15-6.7,15-15
			C191.1,316.4,184.4,309.7,176.1,309.7z"/>
	</g>
	<g>
		<rect x="232.8" y="337.9" fill="#3A3033" width="10.9" height="16.9"/>
	</g>
	<g>
		<rect x="227.3" y="298.6" fill="#3A3033" width="57.3" height="10.9"/>
	</g>
	<g>
		<rect x="227.3" y="373.4" fill="#3A3033" width="57.3" height="10.9"/>
	</g>
	<g>
		<g>
			<path fill="#FFFFFF" d="M284.7,224.6h-57.5c-23.4,0-42.4-19-42.4-42.4l0,0c0-23.4,19-42.4,42.4-42.4h57.5
				c23.4,0,42.4,19,42.4,42.4l0,0C327.1,205.7,308.2,224.6,284.7,224.6z"/>
		</g>
		<g>
			<path fill="#3A3033" d="M284.7,230.1h-57.5c-26.4,0-47.9-21.5-47.9-47.9c0-26.4,21.5-47.9,47.9-47.9h57.5
				c26.4,0,47.9,21.5,47.9,47.9C332.6,208.6,311.1,230.1,284.7,230.1z M227.3,145.3c-20.4,0-36.9,16.6-36.9,36.9
				c0,20.4,16.6,36.9,36.9,36.9h57.5c20.4,0,36.9-16.6,36.9-36.9c0-20.4-16.6-36.9-36.9-36.9H227.3z"/>
		</g>
		<g>
			<g>
				<ellipse fill="#CD9E5D" cx="256" cy="182.6" rx="33.8" ry="24.3"/>
			</g>
			<g>
				<path fill="#CD9E5D" d="M289.8,184.4c0,0-16.9-17.1-35.9-1.7c-16.8,13.6-31.6-2.5-31.6-2.5"/>
			</g>
		</g>
		<g>
			<g>
				<path fill="#3A3033" d="M256,212.4c-21.6,0-39.2-13.3-39.2-29.8c0-16.4,17.6-29.7,39.2-29.7c21.6,0,39.2,13.3,39.2,29.7
					C295.2,199,277.6,212.4,256,212.4z M256,163.8c-15.3,0-28.3,8.6-28.3,18.8c0,10.2,13,18.8,28.3,18.8s28.3-8.6,28.3-18.8
					C284.3,172.4,271.3,163.8,256,163.8z"/>
			</g>
			<g>
				<path fill="#3A3033" d="M239.7,193.6c-9.5,0-17.5-5.4-21.5-9.7l8-7.4c1.2,1.2,11.8,11.9,24.1,1.9c18.1-14.6,36.2-5,43.3,2.1
					l-7.8,7.7l3.9-3.8l-3.9,3.9c-1.4-1.4-14-13.1-28.6-1.3C251.2,191.8,245.2,193.6,239.7,193.6z"/>
			</g>
		</g>
	</g>
</g>
</svg>
