<?xml version="1.0" encoding="UTF-8"?>
<svg width="166px" height="336px" viewBox="0 0 166 336" version="1.1" xmlns="http://www.w3.org/2000/svg" xmlns:xlink="http://www.w3.org/1999/xlink">
    <!-- Generator: Sketch 49.3 (51167) - http://www.bohemiancoding.com/sketch -->
    <title>cold brew</title>
    <desc>Created with Sketch.</desc>
    <defs></defs>
    <g id="Page-1" stroke="none" stroke-width="1" fill="none" fill-rule="evenodd">
        <g id="cold-brew" fill-rule="nonzero">
            <path d="M134.7,228.4 L134.7,173.9 L152.7,158.8 L83,158.8 L13.3,158.8 L31.3,173.9 L31.3,228.4 L8.2,284.2 C6.5,288.2 5.7,292.6 5.7,297 C5.7,315.4 20.6,330.4 39.1,330.4 L83.1,330.4 L127,330.4 C145.4,330.4 160.4,315.5 160.4,297 C160.4,292.6 159.5,288.3 157.9,284.2 L134.7,228.4 Z" id="Shape" fill="#FFFFFF"></path>
            <path d="M150.3,266.2 L15.7,266.2 L8.2,284.2 C6.5,288.3 5.7,292.6 5.7,297 C5.7,306.2 9.4,314.6 15.5,320.6 C21.6,326.6 29.9,330.4 39.1,330.4 L127,330.4 C145.4,330.4 160.4,315.5 160.4,297 C160.4,292.6 159.5,288.3 157.9,284.2 L150.3,266.2 Z" id="Shape" fill="#CD9E5D"></path>
            <rect id="Rectangle-path" fill="#9D705C" x="53.1" y="177.7" width="59.8" height="46.5"></rect>
            <polygon id="Shape" fill="#FFFFFF" points="83 24 20.8 24 41.4 111 83 111 124.6 111 145.2 24"></polygon>
            <rect id="Rectangle-path" fill="#FFFFFF" x="20.8" y="111" width="124.5" height="30.5"></rect>
            <rect id="Rectangle-path" fill="#FFFFFF" x="11.4" y="141.6" width="143.2" height="17.3"></rect>
            <polygon id="Shape" fill="#FFFFFF" points="107.3 5.6 83.4 5.6 82.6 5.6 58.7 5.6 45.5 24 82.6 24 83.4 24 120.5 24"></polygon>
            <path d="M128.9,116.5 L37.1,116.5 L13.8,18.5 L152.1,18.5 L128.9,116.5 Z M45.8,105.6 L120.3,105.6 L138.4,29.5 L27.7,29.5 L45.8,105.6 Z" id="Shape" fill="#3A3033"></path>
            <path d="M150.7,147 L15.3,147 L15.3,105.5 L150.7,105.5 L150.7,147 Z M26.2,136.1 L139.7,136.1 L139.7,116.5 L26.2,116.5 L26.2,136.1 Z" id="Shape" fill="#3A3033"></path>
            <path d="M160.1,164.3 L5.9,164.3 L5.9,136.1 L160,136.1 L160,164.3 L160.1,164.3 Z M16.9,153.4 L149.2,153.4 L149.2,147 L16.9,147 L16.9,153.4 Z" id="Shape" fill="#3A3033"></path>
            <path d="M118.4,229.6 L47.7,229.6 L47.7,176.2 L23.4,153.3 L142.8,153.3 L118.5,176.2 L118.5,229.6 L118.4,229.6 Z M58.6,218.7 L107.4,218.7 L107.4,171.5 L115.1,164.3 L50.9,164.3 L58.6,171.5 L58.6,218.7 Z" id="Shape" fill="#3A3033"></path>
            <path d="M127,335.9 L39,335.9 C17.6,335.9 0.1,318.5 0.1,297 C0.1,291.9 1.1,286.9 3.1,282.1 L25.8,227.3 L25.8,176.4 L9.8,163 L13.3,153.3 L152.7,153.3 L156.2,163 L140.2,176.4 L140.2,227.3 L162.9,282.1 C164.9,286.8 165.9,291.8 165.9,297 C165.8,318.4 148.4,335.9 127,335.9 Z M28.3,164.3 L34.8,169.7 L36.8,173.9 L36.8,228.4 L36.4,230.5 L13.3,286.3 C11.9,289.7 11.2,293.3 11.2,297 C11.2,312.4 23.7,324.9 39.1,324.9 L127,324.9 C142.4,324.9 154.9,312.4 154.9,297 C154.9,293.3 154.2,289.7 152.8,286.3 L129.7,230.5 L129.3,228.4 L129.3,173.9 L131.3,169.7 L137.8,164.3 L28.3,164.3 Z" id="Shape" fill="#3A3033"></path>
            <path d="M131.1,29.4 L34.8,29.4 L55.9,0.1 L110,0.1 L131.1,29.4 Z M56.2,18.5 L109.8,18.5 L104.5,11.1 L61.6,11.1 L56.2,18.5 Z" id="Shape" fill="#3A3033"></path>
            <path d="M62.6,113.4 L56,109.3 L50.2,84.6 L54.3,78 L79,72.2 L85.6,76.3 L91.4,101 L87.3,107.6 L62.6,113.4 Z M62.2,87.5 L65.5,101.6 L79.6,98.3 L76.3,84.2 L62.2,87.5 Z" id="Shape" fill="#3A3033"></path>
            <path d="M103.3,106.6 L84.4,94.9 L82.6,87.4 L94.3,68.5 L101.8,66.7 L120.7,78.4 L122.5,85.9 L110.8,104.8 L103.3,106.6 Z M94.8,88.5 L104.4,94.5 L110.4,84.9 L100.8,78.9 L94.8,88.5 Z" id="Shape" fill="#3A3033"></path>
            <path d="M73.7,76.8 L67.4,72.3 L63.9,50.3 L68.4,44 L90.4,40.5 L96.7,45 L100.2,67 L95.7,73.3 L73.7,76.8 Z M75.6,53.9 L77.4,65.1 L88.6,63.3 L86.8,52.1 L75.6,53.9 Z" id="Shape" fill="#3A3033"></path>
        </g>
    </g>
</svg>