<?xml version="1.0" encoding="utf-8"?>
<!-- Generator: Adobe Illustrator 18.0.0, SVG Export Plug-In . SVG Version: 6.00 Build 0)  -->
<!DOCTYPE svg PUBLIC "-//W3C//DTD SVG 1.1//EN" "http://www.w3.org/Graphics/SVG/1.1/DTD/svg11.dtd">
<svg version="1.1" id="Layer_1" xmlns="http://www.w3.org/2000/svg" xmlns:xlink="http://www.w3.org/1999/xlink" x="0px" y="0px"
	 width="512px" height="512px" viewBox="0 0 512 512" enable-background="new 0 0 512 512" xml:space="preserve">
<g>
	<path fill="#CD9E5D" d="M359.6,153.9c0,0-12.3-29.2-51.3-27.6c-30.5-18.1-68.4,9.6-68.4,9.6c-37.3-6.8-74,29.9-74,29.9
		s-36.7,36.7-29.9,74c0,0-27.7,37.9-9.6,68.4c-1.7,39,27.6,51.3,27.6,51.3s10.4,27.3,43.2,32.2l11.1-11.1l-6.5-22.4l4.8-41
		l19.6-30.1l30.5-30.5l30.5-30.5l30.1-19.6l41-4.8l22.4,6.5l11.1-11.1C386.9,164.3,359.6,153.9,359.6,153.9z"/>
</g>
<g>
	<g>
		<path fill="#3A3033" d="M209.1,323l-86.3-9.7l-1.4-2.3c-8.2-13.9-9.1-31.3-2.4-50.2c4.9-13.9,12-23.7,12.3-24.2l2.8-3.8l99.8,52.3
			L209.1,323z M129.6,303l74.1,8.3l14.5-22.2l-80.5-42.2C131.9,256.5,119,281.8,129.6,303z"/>
	</g>
	<g>
		<path fill="#3A3033" d="M152.7,364.9l-1.1-0.5c-1.3-0.6-32.7-14.3-30.9-56.6l0.3-5.9l91.5,10.3l-6,51.2L152.7,364.9z M131.6,314.2
			c1.2,26.7,18.8,37.4,23.3,39.7l41.8-1.1l3.6-30.8L131.6,314.2z"/>
	</g>
	<g>
		<path fill="#3A3033" d="M198.9,397.4l-2.7-0.4c-35.6-5.3-47.1-34.4-47.6-35.7l-2.7-7.2l59.8-1.6l8.5,29.5L198.9,397.4z
			 M162.8,364.6c4.9,7.2,14.8,17.7,32.3,21.1l6.8-6.8l-4.4-15.2L162.8,364.6z"/>
	</g>
	<g>
		<path fill="#3A3033" d="M227.1,293.8l-96.2-50.4l-0.5-2.6c-7.2-39.7,29.9-77.3,31.5-78.9c1.3-1.3,32.8-32.4,68.5-32.4
			c3.5,0,7,0.3,10.4,0.9l2.6,0.5l50.4,96.2L227.1,293.8z M140.8,236.2l84.3,44.2l55.3-55.3l-44.2-84.3c-1.9-0.2-3.9-0.4-5.9-0.4
			c-31.2,0-60.4,28.9-60.7,29.2C169.3,169.9,136.7,203,140.8,236.2z"/>
	</g>
	<g>
		<path fill="#3A3033" d="M285,233.9l-52.3-99.8l3.8-2.8c0.9-0.7,23.2-16.8,48.4-16.8c9.5,0,18.3,2.3,26,6.9l2.3,1.4l9.7,86.3
			L285,233.9z M246.9,137.6l42.2,80.5l22.2-14.5l-8.3-74.1c-5.4-2.7-11.5-4.1-18.1-4.1C269,125.5,253.8,133.4,246.9,137.6z"/>
	</g>
	<g>
		<path fill="#3A3033" d="M312.3,212.5L302,121l5.9-0.3c42.4-1.8,56,29.6,56.6,30.9l0.5,1.1l-1.4,53.8L312.3,212.5z M314.2,131.6
			l7.7,68.7l30.8-3.6l1.1-41.8C351.6,150.5,341,132.8,314.2,131.6z"/>
	</g>
	<g>
		<path fill="#3A3033" d="M382.1,214.2l-29.5-8.5l1.6-59.8l7.2,2.7c1.2,0.5,30.4,12,35.7,47.5l0.4,2.7L382.1,214.2z M363.7,197.5
			l15.2,4.4l6.8-6.8c-3.4-17.4-13.9-27.3-21.1-32.3L363.7,197.5z"/>
	</g>
</g>
</svg>
