<?xml version="1.0" encoding="UTF-8"?>
<svg width="284px" height="284px" viewBox="0 0 284 284" version="1.1" xmlns="http://www.w3.org/2000/svg" xmlns:xlink="http://www.w3.org/1999/xlink">
    <!-- Generator: Sketch 51 (57462) - http://www.bohemiancoding.com/sketch -->
    <title>croissant</title>
    <desc>Created with Sketch.</desc>
    <defs></defs>
    <g id="Page-1" stroke="none" stroke-width="1" fill="none" fill-rule="evenodd">
        <g id="croissant" fill-rule="nonzero">
            <path d="M245.6,39.9 C245.6,39.9 233.3,10.7 194.3,12.3 C163.8,-5.8 125.9,21.9 125.9,21.9 C88.6,15.1 51.9,51.8 51.9,51.8 C51.9,51.8 15.2,88.5 22,125.8 C22,125.8 -5.7,163.7 12.4,194.2 C10.7,233.2 40,245.5 40,245.5 C40,245.5 50.4,272.8 83.2,277.7 L94.3,266.6 L87.8,244.2 L92.6,203.2 L112.2,173.1 L142.7,142.6 L173.2,112.1 L203.3,92.5 L244.3,87.7 L266.7,94.2 L277.8,83.1 C272.9,50.3 245.6,39.9 245.6,39.9 Z" id="Shape" fill="#CD9E5D"></path>
            <g id="Group" fill="#3A3033">
                <path d="M95.1,209 L8.8,199.3 L7.4,197 C-0.8,183.1 -1.7,165.7 5,146.8 C9.9,132.9 17,123.1 17.3,122.6 L20.1,118.8 L119.9,171.1 L95.1,209 Z M15.6,189 L89.7,197.3 L104.2,175.1 L23.7,132.9 C17.9,142.5 5,167.8 15.6,189 Z" id="Shape"></path>
                <path d="M38.7,250.9 L37.6,250.4 C36.3,249.8 4.9,236.1 6.7,193.8 L7,187.9 L98.5,198.2 L92.5,249.4 L38.7,250.9 Z M17.6,200.2 C18.8,226.9 36.4,237.6 40.9,239.9 L82.7,238.8 L86.3,208 L17.6,200.2 Z" id="Shape"></path>
                <path d="M84.9,283.4 L82.2,283 C46.6,277.7 35.1,248.6 34.6,247.3 L31.9,240.1 L91.7,238.5 L100.2,268 L84.9,283.4 Z M48.8,250.6 C53.7,257.8 63.6,268.3 81.1,271.7 L87.9,264.9 L83.5,249.7 L48.8,250.6 Z" id="Shape"></path>
                <path d="M113.1,179.8 L16.9,129.4 L16.4,126.8 C9.2,87.1 46.3,49.5 47.9,47.9 C49.2,46.6 80.7,15.5 116.4,15.5 C119.9,15.5 123.4,15.8 126.8,16.4 L129.4,16.9 L179.8,113.1 L113.1,179.8 Z M26.8,122.2 L111.1,166.4 L166.4,111.1 L122.2,26.8 C120.3,26.6 118.3,26.4 116.3,26.4 C85.1,26.4 55.9,55.3 55.6,55.6 C55.3,55.9 22.7,89 26.8,122.2 Z" id="Shape"></path>
                <path d="M171,119.9 L118.7,20.1 L122.5,17.3 C123.4,16.6 145.7,0.5 170.9,0.5 C180.4,0.5 189.2,2.8 196.9,7.4 L199.2,8.8 L208.9,95.1 L171,119.9 Z M132.9,23.6 L175.1,104.1 L197.3,89.6 L189,15.5 C183.6,12.8 177.5,11.4 170.9,11.4 C155,11.5 139.8,19.4 132.9,23.6 Z" id="Shape"></path>
                <path d="M198.3,98.5 L188,7 L193.9,6.7 C236.3,4.9 249.9,36.3 250.5,37.6 L251,38.7 L249.6,92.5 L198.3,98.5 Z M200.2,17.6 L207.9,86.3 L238.7,82.7 L239.8,40.9 C237.6,36.5 227,18.8 200.2,17.6 Z" id="Shape"></path>
                <path d="M268.1,100.2 L238.6,91.7 L240.2,31.9 L247.4,34.6 C248.6,35.1 277.8,46.6 283.1,82.1 L283.5,84.8 L268.1,100.2 Z M249.7,83.5 L264.9,87.9 L271.7,81.1 C268.3,63.7 257.8,53.8 250.6,48.8 L249.7,83.5 Z" id="Shape"></path>
            </g>
        </g>
    </g>
</svg>