<?xml version="1.0" encoding="utf-8"?>
<!-- Generator: Adobe Illustrator 18.0.0, SVG Export Plug-In . SVG Version: 6.00 Build 0)  -->
<!DOCTYPE svg PUBLIC "-//W3C//DTD SVG 1.1//EN" "http://www.w3.org/Graphics/SVG/1.1/DTD/svg11.dtd">
<svg version="1.1" id="Layer_1" xmlns="http://www.w3.org/2000/svg" xmlns:xlink="http://www.w3.org/1999/xlink" x="0px" y="0px"
	 width="512px" height="512px" viewBox="0 0 512 512" enable-background="new 0 0 512 512" xml:space="preserve">
<g>
	<g>
		<path fill="#9D705C" d="M255.8,211.6c-79.7,0-117.4,41.5-117.4,41.5l29.8,24.3l7.8-13.1c3.3-5.6,11.1-6.6,15.7-1.9l14.5,15l5.6-11
			c3.2-6.3,11.9-7.3,16.4-1.9l11,12.9l8.4-12.4c3.9-5.8,12.4-5.8,16.4-0.1l8.9,12.6l11.3-13.7c4.3-5.2,12.5-4.7,16.1,1l6.1,9.6
			l15.6-13.5c4.7-4,11.8-2.9,15,2.4l6.4,10.5l29.8-20.6C373.2,253.1,335.6,211.6,255.8,211.6z"/>
	</g>
	<g>
		<g>
			<path fill="#FFFFFF" d="M334.8,227.6c-19-8.5-45.2-16-78.9-16c-35.2,0-62.1,8.1-81.3,17.1c0,0-33-41.9,24.4-64.3
				c57.5-22.4,57.9-58.8,57.9-58.8s-1.6,36.4,55.9,58.8C369.4,186.4,335.7,226.4,334.8,227.6z"/>
		</g>
		<g>
			<path fill="#FFFFFF" d="M343.4,273.6l-6.4-10.5c-3.2-5.3-10.4-6.4-15-2.4l-15.6,13.5l-6.1-9.6c-3.6-5.7-11.8-6.2-16.1-1
				L273,277.4l-8.9-12.6c-4-5.7-12.5-5.6-16.4,0.1l-8.4,12.4l-11-12.9c-4.6-5.4-13.2-4.4-16.4,1.9l-5.6,11l-14.5-15
				c-4.6-4.7-12.4-3.8-15.7,1.9l-7.8,13.1l-29.8-24.3c13.1,22.5,31.7,59.1,31.7,86.2v48.6c0,7.4,5.5,13.4,12.4,13.4h73.3h73.3
				c6.8,0,12.4-6,12.4-13.4v-48.6c0-27.1,18.6-63.7,31.7-86.2L343.4,273.6z"/>
		</g>
		<g>
			<path fill="#3A3033" d="M193.5,401.5c-0.5-12.9-0.5-25.1-0.5-36.9c0-36.9,0-68.8-15.4-104.7l10.1-4.3c16.2,38,16.2,72.5,16.2,109
				c0,11.7,0,23.7,0.5,36.4L193.5,401.5z"/>
		</g>
		<g>
			<path fill="#3A3033" d="M233.6,401.2h-10.9c0-12.5,0.3-24,0.6-35.2c0.9-35.2,1.7-65.5-8-103.8l10.6-2.7
				c10.1,39.7,9.3,70.8,8.3,106.8C233.9,377.4,233.6,388.9,233.6,401.2z"/>
		</g>
		<g>
			<path fill="#3A3033" d="M329.2,406.7H182.5c-9.8,0-17.8-8.5-17.8-18.9v-48.6c0-26.4-19.4-63.6-31-83.4l8.2-7l24.9,20.3l4.5-7.6
				c2.8-4.7,7.8-7.6,13.3-7.6c4.2,0,8.1,1.7,11,4.7l9.2,9.5l2.2-4.2c2.6-5.2,7.9-8.4,13.7-8.4c4.5,0,8.8,2,11.7,5.4l6.3,7.5l4.4-6.5
				c2.9-4.2,7.6-6.8,12.8-6.8c5,0,9.7,2.4,12.6,6.5l4.7,6.7l6.7-8.2c2.9-3.6,7.3-5.6,11.9-5.6c5.3,0,10.2,2.7,13,7.2l2.7,4.2
				l10.8-9.4c2.8-2.4,6.4-3.7,10.1-3.7c5.4,0,10.4,2.8,13.2,7.4l3.4,5.5l25-17.3l7.8,7.3c-11.6,19.8-31,57-31,83.4v48.6
				C347,398.2,339,406.7,329.2,406.7z M156.3,274.7c10.4,21.2,19.3,45,19.3,64.5v48.6c0,4.4,3.1,8,6.9,8h146.6c3.8,0,6.9-3.6,6.9-8
				v-48.6c0-20.8,10-46.4,21.3-68.6l-10.8,7.5l-7.8-1.7l-6.4-10.5c-0.8-1.4-2.3-2.2-3.8-2.2c-0.8,0-1.9,0.2-2.9,1.1L310,278.4
				l-8.2-1.2l-6.1-9.6c-1.2-1.9-3.1-2.1-3.8-2.1c-0.8,0-2.3,0.2-3.5,1.6l-11.3,13.7l-8.7-0.3l-8.9-12.6c-0.9-1.2-2.2-1.9-3.7-1.9
				c-1.5,0-2.9,0.7-3.7,2l-8.4,12.4l-8.7,0.5l-11-12.9c-1.2-1.4-2.6-1.6-3.4-1.6c-1.7,0-3.2,0.9-4,2.4l-5.6,11l-8.8,1.3l-14.5-15
				c-0.9-0.9-2-1.4-3.2-1.4c-1.6,0-3.1,0.8-3.9,2.2l-7.8,13.1l-8.2,1.5L156.3,274.7z"/>
		</g>
		<g>
			<path fill="#3A3033" d="M318.2,401.4l-10.9-0.3c0.3-11.3,0.2-20.5,0.2-29.3c0-17.7-0.1-32.9,2.4-56.4c0.1-18.6,5-40.4,12.9-57.1
				l9.9,4.7c-7.3,15.4-11.8,35.7-11.8,52.8l0,0.6c-2.4,23.1-2.4,37.4-2.4,55.5C318.4,380.3,318.5,389.9,318.2,401.4z"/>
		</g>
		<g>
			<path fill="#3A3033" d="M289,401.2h-10.9c0-12.3-0.3-23.8-0.6-34.9c-1-36-1.8-67,8.3-106.8l10.6,2.7c-9.8,38.3-8.9,68.6-8,103.8
				C288.7,377.2,289,388.8,289,401.2z"/>
		</g>
		<g>
			<path fill="#3A3033" d="M207.7,286.7l-19.9-20.4c-0.9-0.9-2-1.4-3.2-1.4c-1.6,0-3.1,0.8-3.9,2.2l-11,18.6l-39.2-32l3.9-4.3
				c1.6-1.8,40.2-43.3,121.4-43.3c81.2,0,119.8,41.5,121.4,43.3l4.2,4.6l-39.7,27.4l-9.4-15.5c-0.8-1.4-2.3-2.2-3.8-2.2
				c-0.8,0-1.9,0.2-2.9,1.1l-20.4,17.7l-9.5-14.9c-1.2-1.9-3-2.1-3.8-2.1c-0.8,0-2.3,0.2-3.5,1.6l-15.8,19.2l-13-18.4
				c-0.9-1.2-2.2-1.9-3.7-1.9c-1.5,0-2.9,0.7-3.7,2l-12.5,18.4L224.2,268c-1.2-1.4-2.6-1.6-3.4-1.6c-1.7,0-3.2,0.9-4,2.4
				L207.7,286.7z M146.7,252.8l20.1,16.4l4.5-7.6c2.8-4.7,7.8-7.6,13.3-7.6c4.2,0,8.1,1.7,11,4.7l9.2,9.5l2.2-4.2
				c2.6-5.2,7.9-8.4,13.7-8.4c4.5,0,8.8,2,11.7,5.4l6.3,7.5l4.4-6.5c2.9-4.2,7.6-6.8,12.8-6.8c5,0,9.7,2.4,12.6,6.5l4.7,6.7l6.7-8.2
				c2.9-3.6,7.3-5.6,11.9-5.6c5.3,0,10.2,2.7,13,7.2l2.7,4.2l10.8-9.4c2.8-2.4,6.4-3.7,10.1-3.7c5.4,0,10.4,2.8,13.2,7.4l3.4,5.5
				l19.4-13.4c-12.1-10.3-47.9-35.4-108.7-35.4C194.1,217.1,158.4,242.7,146.7,252.8z"/>
		</g>
		<g>
			<rect x="250.4" y="260.6" fill="#3A3033" width="10.9" height="140.6"/>
		</g>
		<g>
			<path fill="#3A3033" d="M170.2,232.1c-0.6-0.8-14.9-19.2-9.3-39.7c3.8-14.1,16-25.3,36.1-33.1c52.3-20.4,54.3-51.8,54.4-53.8
				c0-0.1,0-0.1,0-0.2l10.9,0.3c0,0,0,0.1,0,0.2c0,1.7,0.1,33.1,52.4,53.5c20,7.8,31.9,18.8,35.3,32.7c5,20.3-10.5,38.5-11.2,39.2
				l-8.3-7.2c0.1-0.1,12.5-14.7,8.8-29.5c-2.5-10.2-12.2-18.6-28.7-25c-33.3-13-47.9-30.6-54.4-44.1c-7,13.5-22.2,31.2-55.4,44.1
				c-16.7,6.5-26.6,15.2-29.5,25.8c-4.1,15.2,7.3,29.9,7.4,30.1L170.2,232.1z"/>
		</g>
		<g>
			<path fill="#3A3033" d="M263.3,215.4c-1-1-24.8-26-12.2-48c16.5-28.9,1.3-46.7,0.7-47.4l8.1-7.3c0.9,1,21.3,24.1,0.7,60.2
				c-8.4,14.7,10.4,34.7,10.6,34.9L263.3,215.4z"/>
		</g>
		<g>
			<path fill="#3A3033" d="M214.9,218.8c-0.5-0.4-11.4-11-10.8-26c0.4-10.1,5.8-19.5,16.1-28c30-24.5,30.2-41,30.2-41.2l10.9-0.5
				c0.1,2.2,0.3,22-34.2,50.1c-7.7,6.3-11.8,13-12.1,19.8c-0.4,10,7.4,17.6,7.5,17.7L214.9,218.8z"/>
		</g>
		<g>
			<path fill="#3A3033" d="M314.6,225.7c-17.1-6.2-32.2-25.1-28.1-49c2.9-16.6-20.3-36.8-29.4-43.2l6.2-9c1.6,1.1,38.6,27.2,34,54
				c-3.5,20.1,10.7,33.1,21.1,36.9L314.6,225.7z"/>
		</g>
	</g>
</g>
</svg>
