<?xml version="1.0" encoding="UTF-8"?>
<svg width="252px" height="302px" viewBox="0 0 252 302" version="1.1" xmlns="http://www.w3.org/2000/svg" xmlns:xlink="http://www.w3.org/1999/xlink">
    <!-- Generator: Sketch 51 (57462) - http://www.bohemiancoding.com/sketch -->
    <title>cupcake</title>
    <desc>Created with Sketch.</desc>
    <defs></defs>
    <g id="Page-1" stroke="none" stroke-width="1" fill="none" fill-rule="evenodd">
        <g id="cupcake" fill-rule="nonzero">
            <path d="M125.8,106.6 C46.1,106.6 8.4,148.1 8.4,148.1 L38.2,172.4 L46,159.3 C49.3,153.7 57.1,152.7 61.7,157.4 L76.2,172.4 L81.8,161.4 C85,155.1 93.7,154.1 98.2,159.5 L109.2,172.4 L117.6,160 C121.5,154.2 130,154.2 134,159.9 L142.9,172.5 L154.2,158.8 C158.5,153.6 166.7,154.1 170.3,159.8 L176.4,169.4 L192,155.9 C196.7,151.9 203.8,153 207,158.3 L213.4,168.8 L243.2,148.2 C243.2,148.1 205.6,106.6 125.8,106.6 Z" id="Shape" fill="#9D705C"></path>
            <g id="Group">
                <path d="M204.8,122.6 C185.8,114.1 159.6,106.6 125.9,106.6 C90.7,106.6 63.8,114.7 44.6,123.7 C44.6,123.7 11.6,81.8 69,59.4 C126.5,37 126.9,0.6 126.9,0.6 C126.9,0.6 125.3,37 182.8,59.4 C239.4,81.4 205.7,121.4 204.8,122.6 Z" id="Shape" fill="#FFFFFF"></path>
                <path d="M213.4,168.6 L207,158.1 C203.8,152.8 196.6,151.7 192,155.7 L176.4,169.2 L170.3,159.6 C166.7,153.9 158.5,153.4 154.2,158.6 L143,172.4 L134.1,159.8 C130.1,154.1 121.6,154.2 117.7,159.9 L109.3,172.3 L98.3,159.4 C93.7,154 85.1,155 81.9,161.3 L76.3,172.3 L61.8,157.3 C57.2,152.6 49.4,153.5 46.1,159.2 L38.3,172.3 L8.5,148 C21.6,170.5 40.2,207.1 40.2,234.2 L40.2,282.8 C40.2,290.2 45.7,296.2 52.6,296.2 L125.9,296.2 L199.2,296.2 C206,296.2 211.6,290.2 211.6,282.8 L211.6,234.2 C211.6,207.1 230.2,170.5 243.3,148 L213.4,168.6 Z" id="Shape" fill="#FFFFFF"></path>
                <path d="M63.5,296.5 C63,283.6 63,271.4 63,259.6 C63,222.7 63,190.8 47.6,154.9 L57.7,150.6 C73.9,188.6 73.9,223.1 73.9,259.6 C73.9,271.3 73.9,283.3 74.4,296 L63.5,296.5 Z" id="Shape" fill="#3A3033"></path>
                <path d="M103.6,296.2 L92.7,296.2 C92.7,283.7 93,272.2 93.3,261 C94.2,225.8 95,195.5 85.3,157.2 L95.9,154.5 C106,194.2 105.2,225.3 104.2,261.3 C103.9,272.4 103.6,283.9 103.6,296.2 Z" id="Shape" fill="#3A3033"></path>
                <path d="M199.2,301.7 L52.5,301.7 C42.7,301.7 34.7,293.2 34.7,282.8 L34.7,234.2 C34.7,207.8 15.3,170.6 3.7,150.8 L11.9,143.8 L36.8,164.1 L41.3,156.5 C44.1,151.8 49.1,148.9 54.6,148.9 C58.8,148.9 62.7,150.6 65.6,153.6 L74.8,163.1 L77,158.9 C79.6,153.7 84.9,150.5 90.7,150.5 C95.2,150.5 99.5,152.5 102.4,155.9 L108.7,163.4 L113.1,156.9 C116,152.7 120.7,150.1 125.9,150.1 C130.9,150.1 135.6,152.5 138.5,156.6 L143.2,163.3 L149.9,155.1 C152.8,151.5 157.2,149.5 161.8,149.5 C167.1,149.5 172,152.2 174.8,156.7 L177.5,160.9 L188.3,151.5 C191.1,149.1 194.7,147.8 198.4,147.8 C203.8,147.8 208.8,150.6 211.6,155.2 L215,160.7 L240,143.4 L247.8,150.7 C236.2,170.5 216.8,207.7 216.8,234.1 L216.8,282.7 C217,293.2 209,301.7 199.2,301.7 Z M26.3,169.7 C36.7,190.9 45.6,214.7 45.6,234.2 L45.6,282.8 C45.6,287.2 48.7,290.8 52.5,290.8 L199.1,290.8 C202.9,290.8 206,287.2 206,282.8 L206,234.2 C206,213.4 216,187.8 227.3,165.6 L216.5,173.1 L208.7,171.4 L202.3,160.9 C201.5,159.5 200,158.7 198.5,158.7 C197.7,158.7 196.6,158.9 195.6,159.8 L180,173.4 L171.8,172.2 L165.7,162.6 C164.5,160.7 162.6,160.5 161.9,160.5 C161.1,160.5 159.6,160.7 158.4,162.1 L147.1,175.8 L138.4,175.5 L129.5,162.9 C128.6,161.7 127.3,161 125.8,161 C124.3,161 122.9,161.7 122.1,163 L113.7,175.4 L105,175.9 L94,163 C92.8,161.6 91.4,161.4 90.6,161.4 C88.9,161.4 87.4,162.3 86.6,163.8 L81,174.8 L72.2,176.1 L57.7,161.1 C56.8,160.2 55.7,159.7 54.5,159.7 C52.9,159.7 51.4,160.5 50.6,161.9 L42.8,175 L34.6,176.5 L26.3,169.7 Z" id="Shape" fill="#3A3033"></path>
                <path d="M188.2,296.4 L177.3,296.1 C177.6,284.8 177.5,275.6 177.5,266.8 C177.5,249.1 177.4,233.9 179.9,210.4 C180,191.8 184.9,170 192.8,153.3 L202.7,158 C195.4,173.4 190.9,193.7 190.9,210.8 L190.9,211.4 C188.5,234.5 188.5,248.8 188.5,266.9 C188.4,275.3 188.5,284.9 188.2,296.4 Z" id="Shape" fill="#3A3033"></path>
                <path d="M159,296.2 L148.1,296.2 C148.1,283.9 147.8,272.4 147.5,261.3 C146.5,225.3 145.7,194.3 155.8,154.5 L166.4,157.2 C156.6,195.5 157.5,225.8 158.4,261 C158.7,272.2 159,283.8 159,296.2 Z" id="Shape" fill="#3A3033"></path>
                <path d="M77.7,181.7 L57.8,161.3 C56.9,160.4 55.8,159.9 54.6,159.9 C53,159.9 51.5,160.7 50.7,162.1 L39.7,180.7 L0.5,148.7 L4.4,144.4 C6,142.6 44.6,101.1 125.8,101.1 C207,101.1 245.6,142.6 247.2,144.4 L251.4,149 L211.7,176.4 L202.3,160.9 C201.5,159.5 200,158.7 198.5,158.7 C197.7,158.7 196.6,158.9 195.6,159.8 L175.2,177.5 L165.7,162.6 C164.5,160.7 162.7,160.5 161.9,160.5 C161.1,160.5 159.6,160.7 158.4,162.1 L142.6,181.3 L129.6,162.9 C128.7,161.7 127.4,161 125.9,161 C124.4,161 123,161.7 122.2,163 L109.7,181.4 L94.2,163 C93,161.6 91.6,161.4 90.8,161.4 C89.1,161.4 87.6,162.3 86.8,163.8 L77.7,181.7 Z M16.7,147.8 L36.8,164.2 L41.3,156.6 C44.1,151.9 49.1,149 54.6,149 C58.8,149 62.7,150.7 65.6,153.7 L74.8,163.2 L77,159 C79.6,153.8 84.9,150.6 90.7,150.6 C95.2,150.6 99.5,152.6 102.4,156 L108.7,163.5 L113.1,157 C116,152.8 120.7,150.2 125.9,150.2 C130.9,150.2 135.6,152.6 138.5,156.7 L143.2,163.4 L149.9,155.2 C152.8,151.6 157.2,149.6 161.8,149.6 C167.1,149.6 172,152.3 174.8,156.8 L177.5,161 L188.3,151.6 C191.1,149.2 194.7,147.9 198.4,147.9 C203.8,147.9 208.8,150.7 211.6,155.3 L215,160.8 L234.4,147.4 C222.3,137.1 186.5,112 125.7,112 C64.1,112.1 28.4,137.7 16.7,147.8 Z" id="Shape" fill="#3A3033"></path>
                <rect id="Rectangle-path" fill="#3A3033" x="120.4" y="155.6" width="10.9" height="140.6"></rect>
                <path d="M40.2,127.1 C39.6,126.3 25.3,107.9 30.9,87.4 C34.7,73.3 46.9,62.1 67,54.3 C119.3,33.9 121.3,2.5 121.4,0.5 C121.4,0.4 121.4,0.4 121.4,0.3 L132.3,0.6 C132.3,0.6 132.3,0.7 132.3,0.8 C132.3,2.5 132.4,33.9 184.7,54.3 C204.7,62.1 216.6,73.1 220,87 C225,107.3 209.5,125.5 208.8,126.2 L200.5,119 C200.6,118.9 213,104.3 209.3,89.5 C206.8,79.3 197.1,70.9 180.6,64.5 C147.3,51.5 132.7,33.9 126.2,20.4 C119.2,33.9 104,51.6 70.8,64.5 C54.1,71 44.2,79.7 41.3,90.3 C37.2,105.5 48.6,120.2 48.7,120.4 L40.2,127.1 Z" id="Shape" fill="#3A3033"></path>
                <path d="M133.3,110.4 C132.3,109.4 108.5,84.4 121.1,62.4 C137.6,33.5 122.4,15.7 121.8,15 L129.9,7.7 C130.8,8.7 151.2,31.8 130.6,67.9 C122.2,82.6 141,102.6 141.2,102.8 L133.3,110.4 Z" id="Shape" fill="#3A3033"></path>
                <path d="M84.9,113.8 C84.4,113.4 73.5,102.8 74.1,87.8 C74.5,77.7 79.9,68.3 90.2,59.8 C120.2,35.3 120.4,18.8 120.4,18.6 L131.3,18.1 C131.4,20.3 131.6,40.1 97.1,68.2 C89.4,74.5 85.3,81.2 85,88 C84.6,98 92.4,105.6 92.5,105.7 L84.9,113.8 Z" id="Shape" fill="#3A3033"></path>
                <path d="M184.6,120.7 C167.5,114.5 152.4,95.6 156.5,71.7 C159.4,55.1 136.2,34.9 127.1,28.5 L133.3,19.5 C134.9,20.6 171.9,46.7 167.3,73.5 C163.8,93.6 178,106.6 188.4,110.4 L184.6,120.7 Z" id="Shape" fill="#3A3033"></path>
            </g>
        </g>
    </g>
</svg>