<?xml version="1.0" encoding="UTF-8"?>
<svg width="322px" height="322px" viewBox="0 0 322 322" version="1.1" xmlns="http://www.w3.org/2000/svg" xmlns:xlink="http://www.w3.org/1999/xlink">
    <!-- Generator: Sketch 51 (57462) - http://www.bohemiancoding.com/sketch -->
    <title>donut</title>
    <desc>Created with Sketch.</desc>
    <defs></defs>
    <g id="Page-1" stroke="none" stroke-width="1" fill="none" fill-rule="evenodd">
        <g id="donut" fill-rule="nonzero">
            <path d="M306.2,107.4 C304,101.6 301.6,96 298.8,90.5 C285.7,65 265.8,43.6 241.5,28.8 C218.1,14.5 190.5,6.3 161,6.3 C131.5,6.3 104,14.5 80.5,28.8 C68.9,35.9 58.4,44.4 49.1,54.1 C42.8,60.7 37,67.9 32,75.5 C16.4,99.1 7,127.1 6.4,157.4 C6.4,158.6 6.3,159.8 6.3,161 C6.3,167.3 6.7,173.4 7.4,179.5 C12.4,221.4 34.1,258.1 65.6,282.9 C91.9,303.5 125,315.8 161,315.8 C197,315.8 230.2,303.5 256.4,282.9 C270.9,271.6 283.3,257.7 292.9,242 C298.2,233.4 302.7,224.2 306.2,214.6 C312.3,197.9 315.7,179.9 315.7,161.1 C315.8,142.2 312.4,124.1 306.2,107.4 Z M161,205.6 C136.3,205.6 116.4,185.6 116.4,161 C116.4,136.3 136.4,116.4 161,116.4 C185.7,116.4 205.6,136.4 205.6,161 C205.6,185.7 185.7,205.6 161,205.6 Z" id="Shape" fill="#CD9E5D"></path>
            <path d="M279.8,214.5 L306.2,214.5 C312.3,197.8 315.7,179.8 315.7,161 C315.7,142.2 312.3,124.1 306.2,107.4 L260.8,107.4 C256.1,107.4 252.3,103.6 252.3,99 C252.3,96.7 253.2,94.6 254.8,93 C256.3,91.5 258.4,90.5 260.8,90.5 L298.8,90.5 C285.7,65 265.8,43.6 241.5,28.8 L80.5,28.8 C68.9,35.9 58.4,44.4 49.1,54.1 L100.3,54.1 C106.2,54.1 111,58.9 111,64.8 C111,67.8 109.8,70.4 107.9,72.4 C105.9,74.3 103.3,75.5 100.3,75.5 L31.9,75.5 C16.3,99.1 6.9,127.1 6.3,157.4 L27.8,157.4 C33.7,157.4 38.5,162.2 38.5,168.1 L38.5,168.7 C38.5,174.6 33.7,179.4 27.8,179.4 L7.3,179.4 C12.3,221.3 34,258 65.5,282.8 L256.4,282.8 C270.9,271.5 283.3,257.6 292.9,241.9 L279.8,241.9 C272.2,241.9 266.1,235.8 266.1,228.2 C266.1,224.4 267.6,221 270.1,218.5 C272.6,216 276,214.5 279.8,214.5 Z M161,224.2 C126.1,224.2 97.8,195.9 97.8,161 C97.8,126.1 126.1,97.8 161,97.8 C195.9,97.8 224.2,126.1 224.2,161 C224.2,195.9 195.9,224.2 161,224.2 Z" id="Shape" fill="#95BDA6"></path>
            <path d="M161,321.2 C72.7,321.2 0.8,249.3 0.8,161 C0.8,118.2 17.5,78 47.7,47.7 C78,17.4 118.2,0.8 161,0.8 C161,0.8 161,0.8 161,0.8 C249.3,0.8 321.2,72.7 321.2,161 C321.2,249.3 249.3,321.2 161,321.2 Z M161,11.7 C121.1,11.7 83.6,27.2 55.4,55.4 C27.2,83.6 11.7,121.1 11.7,161 C11.7,243.3 78.7,310.3 161,310.3 C243.3,310.3 310.3,243.3 310.3,161 C310.3,78.7 243.3,11.7 161,11.7 Z" id="Shape" fill="#3A3033"></path>
            <rect id="Rectangle-path" fill="#FFFEFE" transform="translate(69.269405, 158.215780) rotate(67.381457) translate(-69.269405, -158.215780) " x="55.5691942" y="152.765696" width="27.4004215" height="10.9001677"></rect>
            <rect id="Rectangle-path" fill="#FFFEFE" transform="translate(186.827449, 63.769622) rotate(87.276947) translate(-186.827449, -63.769622) " x="181.37729" y="50.0692218" width="10.9003182" height="27.4007999"></rect>
            <rect id="Rectangle-path" fill="#FFFEFE" transform="translate(270.737975, 181.567925) rotate(27.807909) translate(-270.737975, -181.567925) " x="257.038232" y="176.118027" width="27.3994862" height="10.8997956"></rect>
            <rect id="Rectangle-path" fill="#FFFEFE" transform="translate(143.044850, 63.218045) rotate(12.104361) translate(-143.044850, -63.218045) " x="137.594668" y="49.5175865" width="10.9003648" height="27.4009169"></rect>
            <rect id="Rectangle-path" fill="#FFFEFE" transform="translate(224.752230, 74.219825) rotate(40.624289) translate(-224.752230, -74.219825) " x="219.302197" y="60.5197414" width="10.9000665" height="27.4001673"></rect>
            <rect id="Rectangle-path" fill="#FFFEFE" transform="translate(62.549313, 230.902595) rotate(3.152669) translate(-62.549313, -230.902595) " x="57.0992391" y="217.20241" width="10.900147" height="27.4003694"></rect>
            <rect id="Rectangle-path" fill="#FFFEFE" transform="translate(173.900485, 254.955930) rotate(19.542055) translate(-173.900485, -254.955930) " x="160.20043" y="249.505908" width="27.4001097" height="10.9000437"></rect>
            <rect id="Rectangle-path" fill="#FFFEFE" transform="translate(113.612020, 246.681190) rotate(55.750564) translate(-113.612020, -246.681190) " x="108.161989" y="232.981112" width="10.9000621" height="27.4001562"></rect>
            <rect id="Rectangle-path" fill="#FFFEFE" transform="translate(224.723230, 233.255340) rotate(10.148038) translate(-224.723230, -233.255340) " x="211.022615" y="227.805095" width="27.4012302" height="10.9004894"></rect>
            <rect id="Rectangle-path" fill="#FFFEFE" transform="translate(260.917035, 141.404820) rotate(52.864247) translate(-260.917035, -141.404820) " x="255.467085" y="127.704947" width="10.8998993" height="27.399747"></rect>
            <rect id="Rectangle-path" fill="#FFFEFE" transform="translate(62.527045, 112.271640) rotate(52.765713) translate(-62.527045, -112.271640) " x="57.0768258" y="98.5710889" width="10.9004384" height="27.4011021"></rect>
            <path d="M161,321.2 C124.8,321.2 90.6,309.4 62.2,287.1 C28.4,260.6 7,222.6 1.9,180.1 C1.1,173.9 0.8,167.4 0.8,161 C0.8,159.7 0.8,158.5 0.9,157.3 C1.6,127.1 10.8,97.8 27.5,72.6 C32.7,64.8 38.7,57.3 45.2,50.4 C54.8,40.3 65.8,31.5 77.7,24.2 C102.7,8.9 131.6,0.9 161,0.9 C190.5,0.9 219.3,9 244.3,24.2 C269.6,39.7 290.2,61.7 303.6,88.1 C306.5,93.7 309.1,99.6 311.3,105.6 C317.9,123.4 321.2,142 321.2,161.1 C321.2,180.1 317.9,198.7 311.4,216.5 C307.7,226.5 303.1,236 297.6,244.9 C287.6,261.2 274.9,275.4 259.8,287.3 C231.4,309.4 197.2,321.2 161,321.2 Z M161,11.7 C133.5,11.7 106.7,19.2 83.4,33.4 C72.3,40.2 62.1,48.4 53.1,57.8 C47,64.2 41.4,71.2 36.6,78.5 C21,102 12.5,129.3 11.9,157.5 C11.9,158.7 11.8,159.8 11.8,160.9 C11.8,166.9 12.2,172.9 12.9,178.7 C17.6,218.3 37.5,253.7 69.1,278.4 C95.6,299.2 127.4,310.2 161.2,310.2 C195,310.2 226.8,299.2 253.3,278.4 C267.4,267.4 279.2,254.1 288.5,238.9 C293.6,230.6 297.9,221.7 301.4,212.4 C307.5,195.9 310.5,178.6 310.5,160.8 C310.5,143 307.4,125.6 301.3,109.1 C299.2,103.6 296.8,98.1 294.1,92.8 C281.5,68.2 262.4,47.7 238.8,33.3 C215.3,19.2 188.5,11.7 161,11.7 Z M161,211.1 C133.4,211.1 110.9,188.6 110.9,161 C110.9,133.4 133.4,110.9 161,110.9 C188.6,110.9 211.1,133.4 211.1,161 C211.1,188.6 188.6,211.1 161,211.1 Z M161,121.8 C139.4,121.8 121.8,139.4 121.8,161 C121.8,182.6 139.4,200.2 161,200.2 C182.6,200.2 200.2,182.6 200.2,161 C200.2,139.4 182.6,121.8 161,121.8 Z" id="Shape" fill="#3A3033"></path>
            <path d="M256.4,288.3 L65.5,288.3 L62.1,287.1 C28.3,260.6 6.9,222.6 1.8,180.1 L7.2,174 L27.7,174 C30.6,174 32.9,171.6 32.9,168.8 L32.9,168.2 C32.9,165.3 30.5,163 27.7,163 L6.2,163 L0.7,157.4 C1.4,127.1 10.6,97.8 27.3,72.6 L31.9,70.2 L100.3,70.2 C101.7,70.2 103,69.6 104,68.6 C105,67.6 105.5,66.3 105.5,64.9 C105.5,62 103.1,59.7 100.3,59.7 L49.1,59.7 L45.1,50.5 C54.7,40.4 65.7,31.6 77.6,24.3 L80.4,23.5 L241.4,23.5 L244.2,24.3 C269.5,39.8 290.1,61.8 303.5,88.2 L298.6,96.2 L260.6,96.2 C259.5,96.2 258.8,96.8 258.5,97.1 C258,97.6 257.6,98.4 257.6,99.2 C257.6,100.8 258.9,102.2 260.6,102.2 L306,102.2 L311.1,105.8 C317.7,123.6 321,142.2 321,161.3 C321,180.3 317.7,198.9 311.2,216.7 L306.1,220.3 L279.7,220.3 C277.5,220.3 275.4,221.2 273.9,222.7 C272.4,224.3 271.5,226.3 271.5,228.5 C271.5,233.1 275.2,236.8 279.7,236.8 L292.8,236.8 L297.5,245.1 C287.5,261.4 274.8,275.7 259.7,287.5 L256.4,288.3 Z M67.4,277.4 L254.5,277.4 C265.3,268.7 274.8,258.7 282.7,247.4 L279.8,247.4 C269.2,247.4 260.6,238.8 260.6,228.2 C260.6,223.1 262.6,218.3 266.2,214.6 C269.8,211 274.7,209 279.8,209 L302.3,209 C307.5,193.6 310.2,177.4 310.2,161 C310.2,144.5 307.5,128.3 302.3,112.9 L260.7,112.9 C253,112.9 246.8,106.7 246.8,99 C246.8,95.3 248.2,91.8 250.9,89.2 C253.6,86.6 257.1,85.1 260.7,85.1 L289.5,85.1 C277.3,64.5 260.3,47.1 239.9,34.3 L82,34.3 C75.2,38.6 68.7,43.4 62.6,48.7 L100.2,48.7 C109.1,48.7 116.4,56 116.4,64.9 C116.4,69.2 114.7,73.3 111.7,76.3 C108.6,79.4 104.5,81.1 100.2,81.1 L34.8,81.1 C21.2,102.4 13.4,126.8 11.9,152 L27.8,152 C36.7,152 44,159.3 44,168.2 L44,168.8 C44,177.7 36.7,185 27.8,185 L13.6,185 C19.4,221.4 38.4,254 67.4,277.4 Z M161,229.7 C123.1,229.7 92.3,198.9 92.3,161 C92.3,123.1 123.1,92.3 161,92.3 C198.9,92.3 229.7,123.1 229.7,161 C229.7,198.9 198.8,229.7 161,229.7 Z M161,103.2 C129.2,103.2 103.3,129.1 103.3,161 C103.3,192.8 129.2,218.7 161,218.7 C192.8,218.7 218.8,192.8 218.8,161 C218.7,129.2 192.8,103.2 161,103.2 Z" id="Shape" fill="#3A3033"></path>
        </g>
    </g>
</svg>