<?xml version="1.0" encoding="utf-8"?>
<!-- Generator: Adobe Illustrator 18.0.0, SVG Export Plug-In . SVG Version: 6.00 Build 0)  -->
<!DOCTYPE svg PUBLIC "-//W3C//DTD SVG 1.1//EN" "http://www.w3.org/Graphics/SVG/1.1/DTD/svg11.dtd">
<svg version="1.1" id="Layer_1" xmlns="http://www.w3.org/2000/svg" xmlns:xlink="http://www.w3.org/1999/xlink" x="0px" y="0px"
	 width="512px" height="512px" viewBox="0 0 512 512" enable-background="new 0 0 512 512" xml:space="preserve">
<g>
	<g>
		<path fill="#CD9E5D" d="M401.2,202.4c-2.2-5.8-4.6-11.4-7.4-16.9c-13.1-25.5-33-46.9-57.3-61.7c-23.4-14.3-51-22.5-80.5-22.5
			c-29.5,0-57,8.2-80.5,22.5c-11.6,7.1-22.1,15.6-31.4,25.3c-6.3,6.6-12.1,13.8-17.1,21.4c-15.6,23.6-25,51.6-25.6,81.9
			c0,1.2-0.1,2.4-0.1,3.6c0,6.3,0.4,12.4,1.1,18.5c5,41.9,26.7,78.6,58.2,103.4c26.3,20.6,59.4,32.9,95.4,32.9
			c36,0,69.2-12.3,95.4-32.9c14.5-11.3,26.9-25.2,36.5-40.9c5.3-8.6,9.8-17.8,13.3-27.4c6.1-16.7,9.5-34.7,9.5-53.5
			C410.8,237.2,407.4,219.1,401.2,202.4z M256,300.6c-24.7,0-44.6-20-44.6-44.6c0-24.7,20-44.6,44.6-44.6c24.7,0,44.6,20,44.6,44.6
			C300.6,280.7,280.7,300.6,256,300.6z"/>
	</g>
	<g>
		<path fill="#95BDA6" d="M374.8,309.5h26.4c6.1-16.7,9.5-34.7,9.5-53.5c0-18.8-3.4-36.9-9.5-53.6h-45.4c-4.7,0-8.5-3.8-8.5-8.4
			c0-2.3,0.9-4.4,2.5-6c1.5-1.5,3.6-2.5,6-2.5h38c-13.1-25.5-33-46.9-57.3-61.7h-161c-11.6,7.1-22.1,15.6-31.4,25.3h51.2
			c5.9,0,10.7,4.8,10.7,10.7c0,3-1.2,5.6-3.1,7.6c-2,1.9-4.6,3.1-7.6,3.1h-68.4c-15.6,23.6-25,51.6-25.6,81.9h21.5
			c5.9,0,10.7,4.8,10.7,10.7v0.6c0,5.9-4.8,10.7-10.7,10.7h-20.5c5,41.9,26.7,78.6,58.2,103.4h190.9c14.5-11.3,26.9-25.2,36.5-40.9
			h-13.1c-7.6,0-13.7-6.1-13.7-13.7c0-3.8,1.5-7.2,4-9.7C367.6,311,371,309.5,374.8,309.5z M256,319.2c-34.9,0-63.2-28.3-63.2-63.2
			s28.3-63.2,63.2-63.2c34.9,0,63.2,28.3,63.2,63.2S290.9,319.2,256,319.2z"/>
	</g>
	<g>
		<path fill="#3A3033" d="M256,416.2c-88.3,0-160.2-71.9-160.2-160.2c0-42.8,16.7-83,46.9-113.3C173,112.4,213.2,95.8,256,95.8
			c0,0,0,0,0,0c88.3,0,160.2,71.9,160.2,160.2S344.3,416.2,256,416.2z M256,106.7c-39.9,0-77.4,15.5-105.6,43.7
			c-28.2,28.2-43.7,65.7-43.7,105.6c0,82.3,67,149.3,149.3,149.3s149.3-67,149.3-149.3S338.3,106.7,256,106.7z"/>
	</g>
	<g>
		
			<rect x="150.6" y="247.8" transform="matrix(0.3846 0.9231 -0.9231 0.3846 334.8547 4.1505)" fill="#FFFEFE" width="27.4" height="10.9"/>
	</g>
	<g>
		
			<rect x="276.3" y="145.1" transform="matrix(4.750974e-02 0.9989 -0.9989 4.750974e-02 427.0669 -130.215)" fill="#FFFEFE" width="10.9" height="27.4"/>
	</g>
	<g>
		
			<rect x="352" y="271.1" transform="matrix(0.8845 0.4665 -0.4665 0.8845 171.2869 -138.6396)" fill="#FFFEFE" width="27.4" height="10.9"/>
	</g>
	<g>
		
			<rect x="232.6" y="144.5" transform="matrix(0.9778 0.2097 -0.2097 0.9778 38.4541 -46.389)" fill="#FFFEFE" width="10.9" height="27.4"/>
	</g>
	<g>
		
			<rect x="314.3" y="155.5" transform="matrix(0.759 0.6511 -0.6511 0.759 187.2281 -167.3922)" fill="#FFFEFE" width="10.9" height="27.4"/>
	</g>
	<g>
		
			<rect x="152.1" y="312.2" transform="matrix(0.9985 5.499743e-02 -5.499743e-02 0.9985 18.1593 -8.1734)" fill="#FFFEFE" width="10.9" height="27.4"/>
	</g>
	<g>
		
			<rect x="255.2" y="344.5" transform="matrix(0.9424 0.3345 -0.3345 0.9424 132.5474 -69.784)" fill="#FFFEFE" width="27.4" height="10.9"/>
	</g>
	<g>
		
			<rect x="203.1" y="328" transform="matrix(0.5628 0.8266 -0.8266 0.5628 373.6893 -23.015)" fill="#FFFEFE" width="10.9" height="27.4"/>
	</g>
	<g>
		
			<rect x="306" y="322.8" transform="matrix(0.9844 0.1762 -0.1762 0.9844 62.8482 -51.2051)" fill="#FFFEFE" width="27.4" height="10.9"/>
	</g>
	<g>
		
			<rect x="350.5" y="222.7" transform="matrix(0.6037 0.7972 -0.7972 0.6037 329.4881 -190.0732)" fill="#FFFEFE" width="10.9" height="27.4"/>
	</g>
	<g>
		
			<rect x="152.1" y="193.6" transform="matrix(0.6051 0.7962 -0.7962 0.6051 227.2458 -43.6069)" fill="#FFFEFE" width="10.9" height="27.4"/>
	</g>
	<g>
		<path fill="#3A3033" d="M256,416.2c-36.2,0-70.4-11.8-98.8-34.1c-33.8-26.5-55.2-64.5-60.3-107c-0.8-6.2-1.1-12.7-1.1-19.1
			c0-1.3,0-2.5,0.1-3.7c0.7-30.2,9.9-59.5,26.6-84.7c5.2-7.8,11.2-15.3,17.7-22.2c9.6-10.1,20.6-18.9,32.5-26.2
			c25-15.3,53.9-23.3,83.3-23.3c29.5,0,58.3,8.1,83.3,23.3c25.3,15.5,45.9,37.5,59.3,63.9c2.9,5.6,5.5,11.5,7.7,17.5
			c6.6,17.8,9.9,36.4,9.9,55.5c0,19-3.3,37.6-9.8,55.4c-3.7,10-8.3,19.5-13.8,28.4c-10,16.3-22.7,30.5-37.8,42.4
			C326.4,404.4,292.2,416.2,256,416.2z M256,106.7c-27.5,0-54.3,7.5-77.6,21.7c-11.1,6.8-21.3,15-30.3,24.4
			c-6.1,6.4-11.7,13.4-16.5,20.7c-15.6,23.5-24.1,50.8-24.7,79c0,1.2-0.1,2.3-0.1,3.4c0,6,0.4,12,1.1,17.8
			c4.7,39.6,24.6,75,56.2,99.7c26.5,20.8,58.3,31.8,92.1,31.8c33.8,0,65.6-11,92.1-31.8c14.1-11,25.9-24.3,35.2-39.5
			c5.1-8.3,9.4-17.2,12.9-26.5c6.1-16.5,9.1-33.8,9.1-51.6c0-17.8-3.1-35.2-9.2-51.7c-2.1-5.5-4.5-11-7.2-16.3
			c-12.6-24.6-31.7-45.1-55.3-59.5C310.3,114.2,283.5,106.7,256,106.7z M256,306.1c-27.6,0-50.1-22.5-50.1-50.1s22.5-50.1,50.1-50.1
			c27.6,0,50.1,22.5,50.1,50.1S283.6,306.1,256,306.1z M256,216.8c-21.6,0-39.2,17.6-39.2,39.2s17.6,39.2,39.2,39.2
			s39.2-17.6,39.2-39.2S277.6,216.8,256,216.8z"/>
	</g>
	<g>
		<path fill="#3A3033" d="M351.4,383.3H160.5l-3.4-1.2c-33.8-26.5-55.2-64.5-60.3-107l5.4-6.1h20.5c2.9,0,5.2-2.4,5.2-5.2v-0.6
			c0-2.9-2.4-5.2-5.2-5.2h-21.5l-5.5-5.6c0.7-30.3,9.9-59.6,26.6-84.8l4.6-2.4h68.4c1.4,0,2.7-0.6,3.7-1.6c1-1,1.5-2.3,1.5-3.7
			c0-2.9-2.4-5.2-5.2-5.2h-51.2l-4-9.2c9.6-10.1,20.6-18.9,32.5-26.2l2.8-0.8h161l2.8,0.8c25.3,15.5,45.9,37.5,59.3,63.9l-4.9,8h-38
			c-1.1,0-1.8,0.6-2.1,0.9c-0.5,0.5-0.9,1.3-0.9,2.1c0,1.6,1.3,3,3,3h45.4l5.1,3.6c6.6,17.8,9.9,36.4,9.9,55.5
			c0,19-3.3,37.6-9.8,55.4l-5.1,3.6h-26.4c-2.2,0-4.3,0.9-5.8,2.4c-1.5,1.6-2.4,3.6-2.4,5.8c0,4.6,3.7,8.3,8.2,8.3h13.1l4.7,8.3
			c-10,16.3-22.7,30.6-37.8,42.4L351.4,383.3z M162.4,372.4h187.1c10.8-8.7,20.3-18.7,28.2-30h-2.9c-10.6,0-19.2-8.6-19.2-19.2
			c0-5.1,2-9.9,5.6-13.6c3.6-3.6,8.5-5.6,13.6-5.6h22.5c5.2-15.4,7.9-31.6,7.9-48c0-16.5-2.7-32.7-7.9-48.1h-41.6
			c-7.7,0-13.9-6.2-13.9-13.9c0-3.7,1.4-7.2,4.1-9.8c2.7-2.6,6.2-4.1,9.8-4.1h28.8c-12.2-20.6-29.2-38-49.6-50.8H177
			c-6.8,4.3-13.3,9.1-19.4,14.4h37.6c8.9,0,16.2,7.3,16.2,16.2c0,4.3-1.7,8.4-4.7,11.4c-3.1,3.1-7.2,4.8-11.5,4.8h-65.4
			c-13.6,21.3-21.4,45.7-22.9,70.9h15.9c8.9,0,16.2,7.3,16.2,16.2v0.6c0,8.9-7.3,16.2-16.2,16.2h-14.2
			C114.4,316.4,133.4,349,162.4,372.4z M256,324.7c-37.9,0-68.7-30.8-68.7-68.7c0-37.9,30.8-68.7,68.7-68.7
			c37.9,0,68.7,30.8,68.7,68.7C324.7,293.9,293.8,324.7,256,324.7z M256,198.2c-31.8,0-57.7,25.9-57.7,57.8
			c0,31.8,25.9,57.7,57.7,57.7c31.8,0,57.8-25.9,57.8-57.7C313.7,224.2,287.8,198.2,256,198.2z"/>
	</g>
</g>
</svg>
