<?xml version="1.0" encoding="UTF-8"?>
<svg width="452px" height="310px" viewBox="0 0 452 310" version="1.1" xmlns="http://www.w3.org/2000/svg" xmlns:xlink="http://www.w3.org/1999/xlink">
    <!-- Generator: Sketch 51 (57462) - http://www.bohemiancoding.com/sketch -->
    <title>drip kettle</title>
    <desc>Created with Sketch.</desc>
    <defs></defs>
    <g id="Page-1" stroke="none" stroke-width="1" fill="none" fill-rule="evenodd">
        <g id="drip-kettle" fill-rule="nonzero">
            <path d="M300.4,77.9 C300.4,77.9 300.3,59.6 284.4,59.6 C268.5,59.6 236.8,59.6 236.8,59.6 C236.8,59.6 205.2,59.6 189.2,59.6 C173.2,59.6 173.2,77.9 173.2,77.9 L236.7,77.9 L231.3,77.9 L173.1,77.9 C173.1,122.3 160.4,176.8 149,216.8 C149,216.8 95.4,194.5 86.1,140.5 C79.9,104.3 53.6,84.3 53.6,84.3 L26.6,84.3 C26.6,84.3 57.1,97.4 67.3,144.3 C78.6,196.4 114.4,225.7 143,237.5 C136.5,258.4 131.6,271.8 131.6,271.8 L131.6,304 L231.5,304 L242.2,304 L342.1,304 L342.1,271.9 C342.1,271.8 300.4,158.3 300.4,77.9 Z M143,237.3 L149.1,216.8 C147,224.2 144.9,231.1 143,237.3 Z" id="Shape" fill="#FFFFFF"></path>
            <path d="M438.3,229.7 C436.6,232.1 434.7,234 432.6,235.4 C424.5,240.9 413.7,233.1 416.5,223.7 C417.3,221 417.8,218 417.8,214.8 C417.8,202.7 409.9,190.2 401.1,188.6 C403.2,184.2 404.4,179.2 404.4,173.8 C404.4,160.9 397.5,149.9 387.6,145.2 C389,141.4 389.8,137.3 389.8,133 C389.8,115.1 377.5,103.3 361.4,104.6 C355.5,105.1 350,108 345.7,112.2 L342.8,115.1 C341.9,115.5 341.3,115.8 341.3,115.8 L329.5,84.2 C329.5,84.2 354.5,68.7 383.5,77.9 C411.6,86.8 432.2,157.9 438.2,176.4 C444.3,194.8 451.5,210.6 438.3,229.7 Z" id="Shape" fill="#9D705C"></path>
            <path d="M236.8,6 L201.3,6 L201.3,21.1 L226.6,34.6 C223.9,37.2 222.2,40.9 222.2,45 C222.2,53 228.7,59.5 236.7,59.5 C244.7,59.5 251.2,53 251.2,45 C251.2,40.9 249.5,37.2 246.8,34.6 L272.1,21.1 L272.1,6 L236.8,6 Z" id="Shape" fill="#9D705C"></path>
            <path d="M347.6,309.4 L126.1,309.4 L126.1,270.8 L126.4,269.9 C126.8,268.8 167.8,156.3 167.8,77.8 L167.8,72.3 L305.8,72.3 L305.8,77.8 C305.8,156.3 346.8,268.7 347.2,269.9 L347.5,270.8 L347.5,309.4 L347.6,309.4 Z M137,298.5 L336.6,298.5 L336.6,272.8 C332.4,261.3 296.6,160.3 294.9,83.4 L178.7,83.4 C177,160.3 141.2,261.4 137,272.8 L137,298.5 Z" id="Shape" fill="#3A3033"></path>
            <path d="M305.8,83.4 L167.8,83.4 L167.8,77.9 C167.8,77.3 167.9,72 170.3,66.6 C173.8,58.6 180.5,54.2 189.3,54.2 L284.4,54.2 C293.1,54.2 299.9,58.6 303.4,66.6 C305.8,72.1 305.9,77.4 305.9,77.9 L305.8,83.4 Z M179.6,72.4 L294,72.4 C292.9,68.9 290.3,65 284.4,65 L189.3,65 C183.3,65.1 180.8,68.9 179.6,72.4 Z" id="Shape" fill="#3A3033"></path>
            <path d="M146.5,244.9 L140.9,242.6 C126,236.4 76.2,211.1 62,145.5 C52.6,102.2 25.6,89.8 24.5,89.3 L0.8,78.8 L55.6,78.8 L57.1,79.9 C58.2,80.8 85.2,101.6 91.7,139.5 C100.4,189.9 150.8,211.5 151.3,211.7 L155.8,213.6 L146.5,244.9 Z M43.9,89.7 C54.1,99 66.7,115.6 72.6,143.1 C84.2,196.9 121.7,221.3 139.5,229.9 L142.5,219.7 C128.9,212.8 89,189 80.8,141.4 C75.8,112.5 56.9,94.3 51.7,89.7 L43.9,89.7 Z" id="Shape" fill="#3A3033"></path>
            <polygon id="Shape" fill="#3A3033" points="310.9 138.3 305.3 100.6 334.7 92.2 337.7 102.7 317.6 108.5 321.8 136.7"></polygon>
            <path d="M426.9,242.7 C421.8,242.7 416.9,240.2 413.8,236 C410.8,232 409.9,226.9 411.4,222.1 C412.1,219.8 412.4,217.3 412.4,214.8 C412.4,204.5 405.7,195 400.2,193.9 L393.2,192.6 L396.3,186.2 C398.1,182.4 399.1,178.2 399.1,173.8 C399.1,163.4 393.7,154.1 385.4,150.1 L380.8,147.9 L382.6,143.2 C383.8,140 384.5,136.5 384.5,132.9 C384.5,118.6 375.1,108.8 362.1,109.9 C357.7,110.3 353.4,112.4 349.9,115.9 L346.3,119.5 L345.4,119.9 C344.7,120.2 344.2,120.5 344.2,120.5 L338.7,123.4 L323,82 L326.8,79.6 C327.5,79.2 343.2,69.6 364.7,69.6 C371.8,69.6 378.7,70.7 385.3,72.8 C410.9,80.9 429.2,129.2 442.1,170.4 C442.6,172.1 443.1,173.6 443.5,174.8 C444,176.5 444.6,178.1 445.1,179.7 C450.6,196.2 456.3,213.3 442.8,232.9 C440.8,235.8 438.4,238.2 435.7,240 C433.1,241.8 430,242.7 426.9,242.7 Z M408.2,185.6 C416.8,190.7 423.3,202.6 423.3,214.9 C423.3,218.5 422.8,222 421.8,225.3 C421.2,227.2 421.9,228.6 422.5,229.5 C424.1,231.7 427.2,232.4 429.5,230.9 C431.1,229.8 432.5,228.4 433.8,226.6 C444.2,211.5 440,198.9 434.8,183 C434.2,181.3 433.7,179.7 433.1,178 C432.7,176.8 432.2,175.3 431.7,173.5 C425.2,153 405.5,90.5 382,83 C376.4,81.2 370.6,80.4 364.7,80.4 C352.2,80.4 341.9,84.3 336.5,86.8 L343.9,106.6 C348.9,102.3 354.9,99.7 361.1,99.2 C380.7,97.6 395.4,112.4 395.4,133.1 C395.4,136.4 395,139.6 394.2,142.7 C403.9,149.2 410,161 410,173.9 C410,177.9 409.4,181.9 408.2,185.6 Z" id="Shape" fill="#3A3033"></path>
            <path d="M236.8,65.1 C225.8,65.1 216.8,56.1 216.8,45.1 C216.8,42.1 217.5,39.2 218.7,36.6 L195.9,24.5 L195.9,0.6 L277.7,0.6 L277.7,24.5 L254.9,36.6 C256.1,39.2 256.8,42.1 256.8,45.1 C256.8,56.1 247.8,65.1 236.8,65.1 Z M206.8,17.9 L235.9,33.3 L230.5,38.5 C228.7,40.2 227.7,42.5 227.7,45 C227.7,50 231.8,54.1 236.8,54.1 C241.8,54.1 245.9,50 245.9,45 C245.9,42.5 244.9,40.2 243.1,38.5 L237.7,33.3 L266.8,17.9 L266.8,11.5 L206.8,11.5 L206.8,17.9 Z" id="Shape" fill="#3A3033"></path>
            <path d="M162.5,272.9 L152.2,269.2 C166.7,228.8 183.7,147.1 183.9,146.2 L194.6,148.4 C193.9,151.8 177.3,231.7 162.5,272.9 Z" id="Shape" fill="#3A3033"></path>
        </g>
    </g>
</svg>