<?xml version="1.0" encoding="UTF-8"?>
<svg width="218px" height="348px" viewBox="0 0 218 348" version="1.1" xmlns="http://www.w3.org/2000/svg" xmlns:xlink="http://www.w3.org/1999/xlink">
    <!-- Generator: Sketch 51 (57462) - http://www.bohemiancoding.com/sketch -->
    <title>drip brew</title>
    <desc>Created with Sketch.</desc>
    <defs></defs>
    <g id="Page-1" stroke="none" stroke-width="1" fill="none" fill-rule="evenodd">
        <g id="drip-brew" fill-rule="nonzero">
            <path d="M26.1,165.3 L37.6,178.8 L37.6,325.5 C37.6,334.8 48.1,342.4 61.2,342.4 L158.4,342.4 C171.4,342.4 182,334.8 182,325.5 L182,165.3 L26.1,165.3 Z" id="Shape" fill="#FFFFFF"></path>
            <polygon id="Shape" fill="#FFFFFF" points="108.5 133.4 27.6 133.4 108.5 227 189.4 133.4"></polygon>
            <polygon id="Shape" fill="#FFFFFF" points="27.6 133.4 12.9 117.2 204.7 117.2 189.4 133.4"></polygon>
            <polygon id="Shape" fill="#9D705C" points="41.8 149.8 174.2 149.8 108.5 227"></polygon>
            <path d="M181.9,281 L181.9,325.4 C181.9,334.7 171.4,342.3 158.3,342.3 L61.1,342.3 C48.1,342.3 37.5,334.7 37.5,325.4 L37.5,281 L181.9,281 Z" id="Shape" fill="#CD9E5D"></path>
            <path d="M129,49.8 L140.2,84.9 C142.5,92 137.2,99.3 129.7,99.3 C122.4,99.3 117.1,92.3 119,85.2 L129,49.8 Z" id="Shape" fill="#FFFFFF"></path>
            <path d="M83.3,1.8 L101.4,58.3 C105.1,69.8 96.5,81.6 84.4,81.6 C72.6,81.6 64.1,70.3 67.2,59 L83.3,1.8 Z" id="Shape" fill="#FFFFFF"></path>
            <path d="M158.4,347.8 L61.2,347.8 C44.9,347.8 32.2,338 32.2,325.4 L32.2,180.8 L14.3,159.8 L187.5,159.8 L187.5,325.5 C187.4,338 174.7,347.8 158.4,347.8 Z M37.9,170.7 L43.1,176.8 L43.1,325.5 C43.1,331.7 51.4,336.9 61.2,336.9 L158.4,336.9 C168.2,336.9 176.5,331.7 176.5,325.5 L176.5,170.7 L37.9,170.7 Z" id="Shape" fill="#3A3033"></path>
            <path d="M108.5,235.4 L15.6,128 L201.4,128 L108.5,235.4 Z M39.5,138.9 L108.5,218.7 L177.5,138.9 L39.5,138.9 Z" id="Shape" fill="#3A3033"></path>
            <path d="M191.8,138.9 L25.1,138.9 L0.5,111.7 L217.3,111.7 L191.8,138.9 Z M30,128 L187.1,128 L192.1,122.7 L25.2,122.7 L30,128 Z" id="Shape" fill="#3A3033"></path>
            <path d="M129.8,104.8 C124.6,104.8 119.8,102.4 116.6,98.3 C113.4,94.1 112.4,88.9 113.9,83.8 L123.8,48.3 L134.3,48.1 L145.5,83.2 C147.1,88.3 146.3,93.7 143.1,98 C140,102.3 135.1,104.8 129.8,104.8 Z M129.4,68.8 L124.4,86.7 C123.9,88.4 124.3,90.2 125.3,91.6 C126.4,93 128,93.8 129.8,93.8 C131.6,93.8 133.3,93 134.3,91.5 C135.4,90 135.7,88.2 135.1,86.5 L129.4,68.8 Z" id="Shape" fill="#3A3033"></path>
            <path d="M84.4,87 C77,87 70.3,83.6 65.8,77.8 C61.4,71.9 60,64.5 61.9,57.4 L77.9,0.3 L88.4,0.1 L106.5,56.6 C108.8,63.8 107.6,71.4 103.1,77.4 C98.8,83.6 91.9,87 84.4,87 Z M83.6,20.9 L72.5,60.5 C71.4,64.3 72.2,68.2 74.5,71.3 C76.9,74.4 80.4,76.2 84.3,76.2 C88.3,76.2 91.9,74.4 94.3,71.1 C96.6,67.9 97.3,63.9 96.1,60.1 L83.6,20.9 Z" id="Shape" fill="#3A3033"></path>
        </g>
    </g>
</svg>