<?xml version="1.0" encoding="utf-8"?>
<!-- Generator: Adobe Illustrator 18.0.0, SVG Export Plug-In . SVG Version: 6.00 Build 0)  -->
<!DOCTYPE svg PUBLIC "-//W3C//DTD SVG 1.1//EN" "http://www.w3.org/Graphics/SVG/1.1/DTD/svg11.dtd">
<svg version="1.1" id="Layer_1" xmlns="http://www.w3.org/2000/svg" xmlns:xlink="http://www.w3.org/1999/xlink" x="0px" y="0px"
	 width="512px" height="512px" viewBox="0 0 512 512" enable-background="new 0 0 512 512" xml:space="preserve">
<g>
	<g>
		<path fill="#FFFFFF" d="M173.1,247.3l11.5,13.5v146.7c0,9.3,10.5,16.9,23.6,16.9h97.2c13,0,23.6-7.6,23.6-16.9V247.3H173.1z"/>
	</g>
	<g>
		<polygon fill="#FFFFFF" points="255.5,215.4 174.6,215.4 255.5,309 336.4,215.4 		"/>
	</g>
	<g>
		<polygon fill="#FFFFFF" points="174.6,215.4 159.9,199.2 351.7,199.2 336.4,215.4 		"/>
	</g>
	<g>
		<polygon fill="#9D705C" points="188.8,231.8 321.2,231.8 255.5,309 		"/>
	</g>
	<g>
		<path fill="#CD9E5D" d="M328.9,363v44.4c0,9.3-10.5,16.9-23.6,16.9h-97.2c-13,0-23.6-7.6-23.6-16.9V363H328.9z"/>
	</g>
	<g>
		<path fill="#FFFFFF" d="M276,131.8l11.2,35.1c2.3,7.1-3,14.4-10.5,14.4l0,0c-7.3,0-12.6-7-10.7-14.1L276,131.8z"/>
	</g>
	<g>
		<path fill="#FFFFFF" d="M230.3,83.8l18.1,56.5c3.7,11.5-4.9,23.3-17,23.3l0,0c-11.8,0-20.3-11.3-17.2-22.6L230.3,83.8z"/>
	</g>
	<g>
		<path fill="#3A3033" d="M305.4,429.8h-97.2c-16.3,0-29-9.8-29-22.4V262.8l-17.9-21h173.2v165.7C334.4,420,321.7,429.8,305.4,429.8
			z M184.9,252.7l5.2,6.1v148.7c0,6.2,8.3,11.4,18.1,11.4h97.2c9.8,0,18.1-5.2,18.1-11.4V252.7H184.9z"/>
	</g>
	<g>
		<path fill="#3A3033" d="M255.5,317.4L162.6,210h185.8L255.5,317.4z M186.5,220.9l69,79.8l69-79.8H186.5z"/>
	</g>
	<g>
		<path fill="#3A3033" d="M338.8,220.9H172.1l-24.6-27.2h216.8L338.8,220.9z M177,210h157.1l5-5.3H172.2L177,210z"/>
	</g>
	<g>
		<path fill="#3A3033" d="M276.8,186.8c-5.2,0-10-2.4-13.2-6.5c-3.2-4.2-4.2-9.4-2.7-14.5l9.9-35.5l10.5-0.2l11.2,35.1
			c1.6,5.1,0.8,10.5-2.4,14.8C287,184.3,282.1,186.8,276.8,186.8z M276.4,150.8l-5,17.9c-0.5,1.7-0.1,3.5,0.9,4.9
			c1.1,1.4,2.7,2.2,4.5,2.2c1.8,0,3.5-0.8,4.5-2.3c1.1-1.5,1.4-3.3,0.8-5L276.4,150.8z"/>
	</g>
	<g>
		<path fill="#3A3033" d="M231.4,169c-7.4,0-14.1-3.4-18.6-9.2c-4.4-5.9-5.8-13.3-3.9-20.4l16-57.1l10.5-0.2l18.1,56.5
			c2.3,7.2,1.1,14.8-3.4,20.8C245.8,165.6,238.9,169,231.4,169z M230.6,102.9l-11.1,39.6c-1.1,3.8-0.3,7.7,2,10.8
			c2.4,3.1,5.9,4.9,9.8,4.9c4,0,7.6-1.8,10-5.1c2.3-3.2,3-7.2,1.8-11L230.6,102.9z"/>
	</g>
</g>
</svg>
