<?xml version="1.0" encoding="utf-8"?>
<!-- Generator: Adobe Illustrator 18.0.0, SVG Export Plug-In . SVG Version: 6.00 Build 0)  -->
<!DOCTYPE svg PUBLIC "-//W3C//DTD SVG 1.1//EN" "http://www.w3.org/Graphics/SVG/1.1/DTD/svg11.dtd">
<svg version="1.1" id="Layer_1" xmlns="http://www.w3.org/2000/svg" xmlns:xlink="http://www.w3.org/1999/xlink" x="0px" y="0px"
	 width="512px" height="512px" viewBox="0 0 512 512" enable-background="new 0 0 512 512" xml:space="preserve">
<g>
	<g>
		<path fill="#FFFFFF" d="M330.4,178.9L330.4,178.9c0,0-0.1-18.3-16-18.3c-15.9,0-47.6,0-47.6,0s-31.6,0-47.6,0s-16,18.3-16,18.3
			l63.5,0h-5.4l-58.2,0c0,44.4-12.7,98.9-24.1,138.9c0,0-53.6-22.3-62.9-76.3c-6.2-36.2-32.5-56.2-32.5-56.2H56.6
			c0,0,30.5,13.1,40.7,60c11.3,52.1,47.1,81.4,75.7,93.2c-6.5,20.9-11.4,34.3-11.4,34.3V405h99.9h10.7h99.9v-32.1
			C372.1,372.8,330.4,259.3,330.4,178.9z M173,338.3l6.1-20.5C177,325.2,174.9,332.1,173,338.3z"/>
	</g>
	<g>
		<path fill="#9D705C" d="M468.3,330.7c-1.7,2.4-3.6,4.3-5.7,5.7c-8.1,5.5-18.9-2.3-16.1-11.7c0.8-2.7,1.3-5.7,1.3-8.9
			c0-12.1-7.9-24.6-16.7-26.2c2.1-4.4,3.3-9.4,3.3-14.8c0-12.9-6.9-23.9-16.8-28.6c1.4-3.8,2.2-7.9,2.2-12.2
			c0-17.9-12.3-29.7-28.4-28.4c-5.9,0.5-11.4,3.4-15.7,7.6l-2.9,2.9c-0.9,0.4-1.5,0.7-1.5,0.7l-11.8-31.6c0,0,25-15.5,54-6.3
			c28.1,8.9,48.7,80,54.7,98.5C474.3,295.8,481.5,311.6,468.3,330.7z"/>
	</g>
	<g>
		<path fill="#9D705C" d="M266.8,107h-35.5v15.1l25.3,13.5c-2.7,2.6-4.4,6.3-4.4,10.4c0,8,6.5,14.5,14.5,14.5
			c8,0,14.5-6.5,14.5-14.5c0-4.1-1.7-7.8-4.4-10.4l25.3-13.5V107H266.8z"/>
	</g>
	<g>
		<path fill="#3A3033" d="M377.6,410.4H156.1v-38.6l0.3-0.9c0.4-1.1,41.4-113.6,41.4-192.1v-5.5h138v5.5c0,78.5,41,190.9,41.4,192.1
			l0.3,0.9V410.4z M167,399.5h199.6v-25.7c-4.2-11.5-40-112.5-41.7-189.4H208.7c-1.7,76.9-37.5,178-41.7,189.4V399.5z"/>
	</g>
	<g>
		<path fill="#3A3033" d="M335.8,184.4H197.8l0-5.5c0-0.6,0.1-5.9,2.5-11.3c3.5-8,10.2-12.4,19-12.4h95.1c8.7,0,15.5,4.4,19,12.4
			c2.4,5.5,2.5,10.8,2.5,11.3L335.8,184.4z M209.6,173.4H324c-1.1-3.5-3.7-7.4-9.6-7.4h-95.1C213.3,166.1,210.8,169.9,209.6,173.4z"
			/>
	</g>
	<g>
		<path fill="#3A3033" d="M176.5,345.9l-5.6-2.3c-14.9-6.2-64.7-31.5-78.9-97.1c-9.4-43.3-36.4-55.7-37.5-56.2l-23.7-10.5l54.8,0
			l1.5,1.1c1.1,0.9,28.1,21.7,34.6,59.6c8.7,50.4,59.1,72,59.6,72.2l4.5,1.9L176.5,345.9z M73.9,190.7c10.2,9.3,22.8,25.9,28.7,53.4
			c11.6,53.8,49.1,78.2,66.9,86.8l3-10.2c-13.6-6.9-53.5-30.7-61.7-78.3c-5-28.9-23.9-47.1-29.1-51.7H73.9z"/>
	</g>
	<g>
		<polygon fill="#3A3033" points="340.9,239.3 335.3,201.6 364.7,193.2 367.7,203.7 347.6,209.5 351.8,237.7 		"/>
	</g>
	<g>
		<path fill="#3A3033" d="M456.9,343.7c-5.1,0-10-2.5-13.1-6.7c-3-4-3.9-9.1-2.4-13.9c0.7-2.3,1-4.8,1-7.3
			c0-10.3-6.7-19.8-12.2-20.9l-7-1.3l3.1-6.4c1.8-3.8,2.8-8,2.8-12.4c0-10.4-5.4-19.7-13.7-23.7l-4.6-2.2l1.8-4.7
			c1.2-3.2,1.9-6.7,1.9-10.3c0-14.3-9.4-24.1-22.4-23c-4.4,0.4-8.7,2.5-12.2,6l-3.6,3.6l-0.9,0.4c-0.7,0.3-1.2,0.6-1.2,0.6l-5.5,2.9
			L353,183l3.8-2.4c0.7-0.4,16.4-10,37.9-10c7.1,0,14,1.1,20.6,3.2c25.6,8.1,43.9,56.4,56.8,97.6c0.5,1.7,1,3.2,1.4,4.4
			c0.5,1.7,1.1,3.3,1.6,4.9c5.5,16.5,11.2,33.6-2.3,53.2c-2,2.9-4.4,5.3-7.1,7.1C463.1,342.8,460,343.7,456.9,343.7z M438.2,286.6
			c8.6,5.1,15.1,17,15.1,29.3c0,3.6-0.5,7.1-1.5,10.4c-0.6,1.9,0.1,3.3,0.7,4.2c1.6,2.2,4.7,2.9,7,1.4c1.6-1.1,3-2.5,4.3-4.3
			c10.4-15.1,6.2-27.7,1-43.6c-0.6-1.7-1.1-3.3-1.7-5c-0.4-1.2-0.9-2.7-1.4-4.5c-6.5-20.5-26.2-83-49.7-90.5
			c-5.6-1.8-11.4-2.6-17.3-2.6c-12.5,0-22.8,3.9-28.2,6.4l7.4,19.8c5-4.3,11-6.9,17.2-7.4c19.6-1.6,34.3,13.2,34.3,33.9
			c0,3.3-0.4,6.5-1.2,9.6c9.7,6.5,15.8,18.3,15.8,31.2C440,278.9,439.4,282.9,438.2,286.6z"/>
	</g>
	<g>
		<path fill="#3A3033" d="M266.8,166.1c-11,0-20-9-20-20c0-3,0.7-5.9,1.9-8.5l-22.8-12.1v-23.9h81.8v23.9l-22.8,12.1
			c1.2,2.6,1.9,5.5,1.9,8.5C286.8,157.1,277.8,166.1,266.8,166.1z M236.8,118.9l29.1,15.4l-5.4,5.2c-1.8,1.7-2.8,4-2.8,6.5
			c0,5,4.1,9.1,9.1,9.1c5,0,9.1-4.1,9.1-9.1c0-2.5-1-4.8-2.8-6.5l-5.4-5.2l29.1-15.4v-6.4h-60V118.9z"/>
	</g>
	<g>
		<path fill="#3A3033" d="M192.5,373.9l-10.3-3.7c14.5-40.4,31.5-122.1,31.7-123l10.7,2.2C223.9,252.8,207.3,332.7,192.5,373.9z"/>
	</g>
</g>
</svg>
