<?xml version="1.0" encoding="UTF-8"?>
<svg width="280px" height="376px" viewBox="0 0 280 376" version="1.1" xmlns="http://www.w3.org/2000/svg" xmlns:xlink="http://www.w3.org/1999/xlink">
    <!-- Generator: Sketch 51 (57462) - http://www.bohemiancoding.com/sketch -->
    <title>electric kettle</title>
    <desc>Created with Sketch.</desc>
    <defs></defs>
    <g id="Page-1" stroke="none" stroke-width="1" fill="none" fill-rule="evenodd">
        <g id="electric-kettle" fill-rule="nonzero">
            <path d="M225.6,52.3 L225.6,58.6 L225.3,58.9 C174.5,42.4 85.1,71.9 37.7,90.3 L37.7,75.7 C37.7,62.6 46,51 58.4,46.9 C79.3,39.9 112.5,29.6 140.2,24.9 C161.1,21.4 181.3,21.2 196.9,22 C213,22.7 225.6,36.1 225.6,52.3 Z" id="Shape" fill="#95BDA6"></path>
            <path d="M100.1,34.1 L100.1,20.5 C100.1,17 102.5,14 105.9,13.2 L135.4,6.2 C140.1,5.1 144.7,8.7 144.7,13.5 L144.7,24.1" id="Shape" fill="#95BDA6"></path>
            <rect id="Rectangle-path" fill="#FFFFFF" x="121.6" y="323.7" width="51.9" height="18.9"></rect>
            <path d="M253.1,78.3 C206,11.9 6,103.5 6,103.5 C6,103.5 11,189 69.9,323.8 L228.8,323.8 C228.8,323.8 221.7,274.7 244.7,242 C279.1,193 285.6,124.2 253.1,78.3 Z M219.7,218.6 C203.6,219.8 200,192.8 200,157.4 C200,109.1 198.6,87.9 215.9,86.6 C233.2,85.3 247.7,115.5 248.1,152.8 C248.5,188.5 235.8,217.4 219.7,218.6 Z" id="Shape" fill="#9D705C"></path>
            <path d="M118.6,291.5 C112.7,291.5 107.9,286.7 107.9,280.8 L107.9,124.8 C107.9,118.9 112.7,114.1 118.6,114.1 C124.5,114.1 129.3,118.9 129.3,124.8 L129.3,280.8 C129.3,286.7 124.5,291.5 118.6,291.5 Z" id="Shape" fill="#FFFFFF"></path>
            <polygon id="Shape" fill="#9D705C" points="229.7 342.6 147.7 342.6 65.7 342.6 57.1 370 147.7 370 238.3 370"></polygon>
            <path d="M235.1,329.2 L66.4,329.2 L65,325.9 C6.3,191.7 0.8,107.3 0.6,103.8 L0.4,100.1 L3.8,98.5 C4.1,98.4 31.4,85.9 67.7,73.6 C116.6,57 157.7,48.6 189.8,48.6 C222.4,48.6 245.2,57.5 257.7,75.1 C290,120.7 286.5,192.2 249.3,245 C227.8,275.6 234.2,322.4 234.3,322.9 L235.1,329.2 Z M73.5,318.2 L222.7,318.2 C221.6,303.5 220.9,266.1 240.2,238.7 C274.8,189.5 278.3,123.3 248.6,81.4 C238.3,66.9 218.5,59.5 189.7,59.5 C123.4,59.5 30.9,98.4 11.8,106.8 C13.6,124.5 23.8,203.4 73.5,318.2 Z" id="Shape" fill="#3A3033"></path>
            <path d="M245.7,375.5 L49.7,375.5 L61.7,337.2 L233.7,337.2 L245.7,375.5 Z M64.6,364.5 L230.8,364.5 L225.6,348.1 L69.7,348.1 L64.6,364.5 Z" id="Shape" fill="#3A3033"></path>
            <path d="M218.6,224.1 C197.4,224.1 194.5,192 194.5,157.4 C194.5,153.9 194.5,150.5 194.5,147.2 C194.4,104.3 194.4,82.8 215.5,81.1 C236.6,79.5 253.1,110.8 253.6,152.7 C254.1,191.9 239.7,222.6 220.2,224 C219.6,224.1 219.1,224.1 218.6,224.1 Z M217,92.1 C216.8,92.1 216.5,92.1 216.3,92.1 C206.4,92.9 205.3,103.9 205.4,147.2 C205.4,150.5 205.4,153.9 205.4,157.4 C205.4,194.4 209.8,213.2 218.6,213.2 C218.8,213.2 219,213.2 219.2,213.2 C233.4,212.1 242.9,180.5 242.5,152.9 C242.2,117 228.8,92.1 217,92.1 Z" id="Shape" fill="#3A3033"></path>
            <path d="M118.6,297 C109.7,297 102.5,289.8 102.5,280.9 L102.5,124.9 C102.5,116 109.7,108.8 118.6,108.8 C127.5,108.8 134.7,116 134.7,124.9 L134.7,280.9 C134.8,289.7 127.5,297 118.6,297 Z M118.6,119.6 C115.7,119.6 113.4,121.9 113.4,124.8 L113.4,280.8 C113.4,283.7 115.7,286 118.6,286 C121.5,286 123.8,283.7 123.8,280.8 L123.8,124.8 C123.8,122 121.5,119.6 118.6,119.6 Z" id="Shape" fill="#3A3033"></path>
            <path d="M43.1,238.2 L32.2,238.2 L32.2,75.7 C32.2,60.3 42,46.6 56.6,41.7 C79.1,34.1 111.7,24.2 139.3,19.5 C157.2,16.5 176.7,15.5 197.1,16.5 C216.1,17.5 231,33.2 231,52.3 L231,58.6 L220.1,58.6 L220.1,52.3 C220.1,39 209.8,28.1 196.5,27.4 C176.8,26.4 158.2,27.4 141,30.3 C114.2,34.8 82.1,44.6 60,52.1 C49.9,55.5 43,65 43,75.7 L43,238.2 L43.1,238.2 Z" id="Shape" fill="#3A3033"></path>
            <rect id="Rectangle-path" fill="#3A3033" x="108" y="138.6" width="21.3" height="10.9"></rect>
            <rect id="Rectangle-path" fill="#3A3033" x="108" y="168.8" width="21.3" height="10.9"></rect>
            <rect id="Rectangle-path" fill="#3A3033" x="108" y="199.1" width="21.3" height="10.9"></rect>
            <rect id="Rectangle-path" fill="#3A3033" x="108" y="229.3" width="21.3" height="10.9"></rect>
            <rect id="Rectangle-path" fill="#3A3033" x="108" y="259.5" width="21.3" height="10.9"></rect>
            <path d="M105.5,34.1 L94.6,34.1 L94.6,20.5 C94.6,14.4 98.7,9.2 104.6,7.8 L134.1,0.8 C138,-0.1 142,0.8 145.2,3.3 C148.3,5.8 150.1,9.5 150.1,13.5 L150.1,24.1 L139.2,24.1 L139.2,13.6 C139.2,12.7 138.7,12.2 138.4,12 C138.1,11.8 137.5,11.4 136.6,11.6 L107.1,18.6 C106.2,18.8 105.5,19.7 105.5,20.6 L105.5,34.1 Z" id="Shape" fill="#3A3033"></path>
            <path d="M178.9,348.1 L116,348.1 L116,318.3 L178.9,318.3 L178.9,348.1 Z M127,337.1 L168,337.1 L168,329.1 L127,329.1 L127,337.1 Z" id="Shape" fill="#3A3033"></path>
        </g>
    </g>
</svg>