<?xml version="1.0" encoding="utf-8"?>
<!-- Generator: Adobe Illustrator 18.0.0, SVG Export Plug-In . SVG Version: 6.00 Build 0)  -->
<!DOCTYPE svg PUBLIC "-//W3C//DTD SVG 1.1//EN" "http://www.w3.org/Graphics/SVG/1.1/DTD/svg11.dtd">
<svg version="1.1" id="Layer_1" xmlns="http://www.w3.org/2000/svg" xmlns:xlink="http://www.w3.org/1999/xlink" x="0px" y="0px"
	 width="512px" height="512px" viewBox="0 0 512 512" enable-background="new 0 0 512 512" xml:space="preserve">
<g>
	<g>
		<path fill="#95BDA6" d="M341.6,120.3v6.3l-0.3,0.3c-50.8-16.5-140.2,13-187.6,31.4v-14.6c0-13.1,8.3-24.7,20.7-28.8
			c20.9-7,54.1-17.3,81.8-22c20.9-3.5,41.1-3.7,56.7-2.9C329,90.7,341.6,104.1,341.6,120.3z"/>
	</g>
	<g>
		<path fill="#95BDA6" d="M216.1,102.1V88.5c0-3.5,2.4-6.5,5.8-7.3l29.5-7c4.7-1.1,9.3,2.5,9.3,7.3v10.6"/>
	</g>
	<g>
		<rect x="237.6" y="391.7" fill="#FFFFFF" width="51.9" height="18.9"/>
	</g>
	<g>
		<path fill="#9D705C" d="M369.1,146.3C322,79.9,122,171.5,122,171.5s5,85.5,63.9,220.3h158.9c0,0-7.1-49.1,15.9-81.8
			C395.1,261,401.6,192.2,369.1,146.3z M335.7,286.6c-16.1,1.2-19.7-25.8-19.7-61.2c0-48.3-1.4-69.5,15.9-70.8
			c17.3-1.3,31.8,28.9,32.2,66.2C364.5,256.5,351.8,285.4,335.7,286.6z"/>
	</g>
	<g>
		<path fill="#FFFFFF" d="M234.6,359.5L234.6,359.5c-5.9,0-10.7-4.8-10.7-10.7v-156c0-5.9,4.8-10.7,10.7-10.7l0,0
			c5.9,0,10.7,4.8,10.7,10.7v156C245.3,354.7,240.5,359.5,234.6,359.5z"/>
	</g>
	<g>
		<polygon fill="#9D705C" points="345.7,410.6 263.7,410.6 181.7,410.6 173.1,438 263.7,438 354.3,438 		"/>
	</g>
	<g>
		<path fill="#3A3033" d="M351.1,397.2H182.4l-1.4-3.3c-58.7-134.2-64.2-218.6-64.4-222.1l-0.2-3.7l3.4-1.6
			c0.3-0.1,27.6-12.6,63.9-24.9c48.9-16.6,90-25,122.1-25c32.6,0,55.4,8.9,67.9,26.5c32.3,45.6,28.8,117.1-8.4,169.9
			c-21.5,30.6-15.1,77.4-15,77.9L351.1,397.2z M189.5,386.2h149.2c-1.1-14.7-1.8-52.1,17.5-79.5c34.6-49.2,38.1-115.4,8.4-157.3
			c-10.3-14.5-30.1-21.9-58.9-21.9c-66.3,0-158.8,38.9-177.9,47.3C129.6,192.5,139.8,271.4,189.5,386.2z"/>
	</g>
	<g>
		<path fill="#3A3033" d="M361.7,443.5h-196l12-38.3l172,0L361.7,443.5z M180.6,432.5h166.2l-5.2-16.4l-155.9,0L180.6,432.5z"/>
	</g>
	<g>
		<path fill="#3A3033" d="M334.6,292.1c-21.2,0-24.1-32.1-24.1-66.7c0-3.5,0-6.9,0-10.2c-0.1-42.9-0.1-64.4,21-66.1
			c21.1-1.6,37.6,29.7,38.1,71.6c0.5,39.2-13.9,69.9-33.4,71.3C335.6,292.1,335.1,292.1,334.6,292.1z M333,160.1c-0.2,0-0.5,0-0.7,0
			c-9.9,0.8-11,11.8-10.9,55.1c0,3.3,0,6.7,0,10.2c0,37,4.4,55.8,13.2,55.8c0.2,0,0.4,0,0.6,0c14.2-1.1,23.7-32.7,23.3-60.3
			C358.2,185,344.8,160.1,333,160.1z"/>
	</g>
	<g>
		<path fill="#3A3033" d="M234.6,365c-8.9,0-16.1-7.2-16.1-16.1v-156c0-8.9,7.2-16.1,16.1-16.1c8.9,0,16.1,7.2,16.1,16.1v156
			C250.8,357.7,243.5,365,234.6,365z M234.6,187.6c-2.9,0-5.2,2.3-5.2,5.2v156c0,2.9,2.3,5.2,5.2,5.2c2.9,0,5.2-2.3,5.2-5.2v-156
			C239.8,190,237.5,187.6,234.6,187.6z"/>
	</g>
	<g>
		<path fill="#3A3033" d="M159.1,306.2h-10.9V143.7c0-15.4,9.8-29.1,24.4-34c22.5-7.6,55.1-17.5,82.7-22.2c17.9-3,37.4-4,57.8-3
			c19,1,33.9,16.7,33.9,35.8v6.3h-10.9v-6.3c0-13.3-10.3-24.2-23.6-24.9c-19.7-1-38.3,0-55.5,2.9c-26.8,4.5-58.9,14.3-81,21.8
			c-10.1,3.4-17,12.9-17,23.6V306.2z"/>
	</g>
	<g>
		<rect x="224" y="206.6" fill="#3A3033" width="21.3" height="10.9"/>
	</g>
	<g>
		<rect x="224" y="236.8" fill="#3A3033" width="21.3" height="10.9"/>
	</g>
	<g>
		<rect x="224" y="267.1" fill="#3A3033" width="21.3" height="10.9"/>
	</g>
	<g>
		<rect x="224" y="297.3" fill="#3A3033" width="21.3" height="10.9"/>
	</g>
	<g>
		<rect x="224" y="327.5" fill="#3A3033" width="21.3" height="10.9"/>
	</g>
	<g>
		<path fill="#3A3033" d="M221.5,102.1h-10.9V88.5c0-6.1,4.1-11.3,10-12.7l29.5-7c3.9-0.9,7.9,0,11.1,2.5c3.1,2.5,4.9,6.2,4.9,10.2
			v10.6h-10.9V81.6c0-0.9-0.5-1.4-0.8-1.6c-0.3-0.2-0.9-0.6-1.8-0.4l-29.5,7c-0.9,0.2-1.6,1.1-1.6,2V102.1z"/>
	</g>
	<g>
		<path fill="#3A3033" d="M294.9,416.1h-62.9v-29.8h62.9V416.1z M243,405.1h41v-8h-41V405.1z"/>
	</g>
</g>
</svg>
