<?xml version="1.0" encoding="utf-8"?>
<!-- Generator: Adobe Illustrator 18.0.0, SVG Export Plug-In . SVG Version: 6.00 Build 0)  -->
<!DOCTYPE svg PUBLIC "-//W3C//DTD SVG 1.1//EN" "http://www.w3.org/Graphics/SVG/1.1/DTD/svg11.dtd">
<svg version="1.1" id="Layer_1" xmlns="http://www.w3.org/2000/svg" xmlns:xlink="http://www.w3.org/1999/xlink" x="0px" y="0px"
	 width="512px" height="512px" viewBox="0 0 512 512" enable-background="new 0 0 512 512" xml:space="preserve">
<g>
	<g>
		<path fill="#FFFFFF" d="M379.3,117.1v245H132.7v-245c0-13.3,10.7-24,24-24h198.7C368.6,93.1,379.3,103.9,379.3,117.1z"/>
	</g>
	<g>
		<rect x="132.7" y="398.9" fill="#FFFFFF" width="26.2" height="19.8"/>
	</g>
	<g>
		<rect x="353.1" y="399.1" fill="#FFFFFF" width="26.2" height="19.8"/>
	</g>
	<g>
		<path fill="#CDCCCC" d="M336.6,362.1v-84.9c0-28.4-22.1-52.3-50.5-53.4c-0.9,0-1.9-0.1-2.8-0.1v46.1h-15v-17.6h-24.5v17.6h-15
			l0-46.1c-1,0-2.9,0-3.8,0.1c-28.3,1.1-50.5,25-50.5,53.4v84.9H336.6z"/>
	</g>
	<g>
		<g>
			<rect x="225.9" y="292.6" fill="#FFFFFF" width="60" height="69.5"/>
		</g>
		<g>
			<path fill="#FFFFFF" d="M285.9,309.6H302c5.3,0,9.6,4.3,9.6,9.6v10c0,5.3-4.3,9.6-9.6,9.6h-16.1"/>
		</g>
	</g>
	<g>
		<path fill="#3A3033" d="M342,367.6H169v-90.4c0-31.8,24.5-57.7,55.7-58.9c1,0,3-0.1,4-0.1h5.5l0,46.1h4.1v-17.6h35.4v17.6h4.1
			v-46.1h5.5c1,0,2,0,3,0.1c31.2,1.2,55.7,27,55.7,58.9V367.6z M179.9,356.6h151.1v-79.4c0-24.5-18.8-45.3-42.4-47.7v45.9h-25.9
			v-17.6h-13.6v17.6h-25.9l0-46c-24.1,1.9-43.3,23-43.3,47.8V356.6z"/>
	</g>
	<g>
		<g>
			<path fill="#CDCCCC" d="M275,252.3h-38c-4.5,0-8.2-3.7-8.2-8.2v-40.7c0-4.5,3.7-8.2,8.2-8.2h38c4.5,0,8.2,3.7,8.2,8.2v40.7
				C283.3,248.6,279.6,252.3,275,252.3z"/>
		</g>
	</g>
	<g>
		<path fill="#9D705C" d="M132.7,195.2h246.7v-77c0-13.9-11.2-25.1-25.1-25.1H157.8c-13.9,0-25.1,11.2-25.1,25.1V195.2z"/>
	</g>
	<g>
		<g>
			<g>
				<rect x="168.1" y="121.5" fill="#FFFFFF" width="22.8" height="23.6"/>
			</g>
			<g>
				<rect x="168.1" y="145.1" fill="#FFFFFF" width="22.8" height="23.6"/>
			</g>
		</g>
		<g>
			<g>
				<rect x="322.9" y="121.5" fill="#FFFFFF" width="22.8" height="23.6"/>
			</g>
			<g>
				<rect x="322.9" y="145.1" fill="#FFFFFF" width="22.8" height="23.6"/>
			</g>
		</g>
	</g>
	<g>
		<path fill="#9D705C" d="M393.1,398.9H118.9c-10.1,0-18.4-8.2-18.4-18.4l0,0c0-10.1,8.2-18.4,18.4-18.4h274.2
			c10.1,0,18.4,8.2,18.4,18.4l0,0C411.5,390.6,403.3,398.9,393.1,398.9z"/>
	</g>
	<g>
		<path fill="#3A3033" d="M384.8,367.6H127.2V117.2c0-16.3,13.2-29.5,29.5-29.5h198.7c16.3,0,29.5,13.2,29.5,29.5V367.6z
			 M138.1,356.7h235.7V117.2c0-10.2-8.3-18.5-18.5-18.5H156.7c-10.2,0-18.5,8.3-18.5,18.5V356.7z"/>
	</g>
	<g>
		<path fill="#3A3033" d="M393.1,404.3H118.9c-13.1,0-23.8-10.7-23.8-23.8c0-13.1,10.7-23.8,23.8-23.8h274.2
			c13.1,0,23.8,10.7,23.8,23.8C416.9,393.6,406.3,404.3,393.1,404.3z M118.9,367.6c-7.1,0-12.9,5.8-12.9,12.9
			c0,7.1,5.8,12.9,12.9,12.9h274.2c7.1,0,12.9-5.8,12.9-12.9c0-7.1-5.8-12.9-12.9-12.9H118.9z"/>
	</g>
	<g>
		<path fill="#3A3033" d="M164.3,424.1h-37.1v-30.7h37.1V424.1z M138.1,413.2h15.3v-8.8h-15.3V413.2z"/>
	</g>
	<g>
		<path fill="#3A3033" d="M384.8,424.3h-37.1v-30.7h37.1V424.3z M358.6,413.4h15.3v-8.8h-15.3V413.4z"/>
	</g>
	<g>
		<g>
			<path fill="#3A3033" d="M291.4,367.6h-70.9v-80.5h70.9V367.6z M231.4,356.6h49v-58.6h-49V356.6z"/>
		</g>
		<g>
			<path fill="#3A3033" d="M302,344.3h-16.1v-10.9H302c2.3,0,4.1-1.9,4.1-4.1v-10c0-2.3-1.9-4.1-4.1-4.1h-16.1v-10.9H302
				c8.3,0,15.1,6.8,15.1,15.1v10C317.1,337.5,310.3,344.3,302,344.3z"/>
		</g>
	</g>
	<g>
		<g>
			<path fill="#3A3033" d="M268.3,257.8h-24.5c-11.3,0-20.5-9.2-20.5-20.5v-27.1c0-11.3,9.2-20.5,20.5-20.5h24.5
				c11.3,0,20.5,9.2,20.5,20.5v27.1C288.7,248.6,279.5,257.8,268.3,257.8z M243.8,200.7c-5.3,0-9.5,4.3-9.5,9.5v27.1
				c0,5.3,4.3,9.5,9.5,9.5h24.5c5.3,0,9.5-4.3,9.5-9.5v-27.1c0-5.3-4.3-9.5-9.5-9.5H243.8z"/>
		</g>
		<g>
			<path fill="#3A3033" d="M249.2,275.4h-25.9v-38h10.9c0,5.3,4.3,9.5,9.5,9.5h5.5V275.4z M234.2,264.4h4.1V257
				c-1.4-0.4-2.8-0.9-4.1-1.6V264.4z"/>
		</g>
		<g>
			<path fill="#3A3033" d="M288.7,275.4h-25.9v-28.5h5.5c5.3,0,9.5-4.3,9.5-9.5h10.9V275.4z M273.7,264.4h4.1v-9
				c-1.3,0.7-2.6,1.2-4.1,1.6V264.4z"/>
		</g>
	</g>
	<g>
		<g>
			<g>
				<path fill="#3A3033" d="M196.4,150.6h-33.7V116h33.7V150.6z M173.6,139.7h11.9V127h-11.9V139.7z"/>
			</g>
			<g>
				<path fill="#3A3033" d="M196.4,174.2h-33.7v-34.6h33.7V174.2z M173.6,163.3h11.9v-12.7h-11.9V163.3z"/>
			</g>
		</g>
		<g>
			<g>
				<path fill="#3A3033" d="M351.1,150.6h-33.7V116h33.7V150.6z M328.3,139.7h11.9V127h-11.9V139.7z"/>
			</g>
			<g>
				<path fill="#3A3033" d="M351.1,174.2h-33.7v-34.6h33.7V174.2z M328.3,163.3h11.9v-12.7h-11.9V163.3z"/>
			</g>
		</g>
	</g>
	<g>
		<g>
			<path fill="#3A3033" d="M268.3,257.8h-24.5c-11.3,0-20.5-9.2-20.5-20.5v-27.1c0-11.3,9.2-20.5,20.5-20.5h24.5
				c11.3,0,20.5,9.2,20.5,20.5v27.1C288.7,248.6,279.5,257.8,268.3,257.8z M243.8,200.7c-5.3,0-9.5,4.3-9.5,9.5v27.1
				c0,5.3,4.3,9.5,9.5,9.5h24.5c5.3,0,9.5-4.3,9.5-9.5v-27.1c0-5.3-4.3-9.5-9.5-9.5H243.8z"/>
		</g>
	</g>
	<g>
		<rect x="132.7" y="189.7" fill="#3A3033" width="246.7" height="10.9"/>
	</g>
</g>
</svg>
