<?xml version="1.0" encoding="UTF-8"?>
<svg width="306px" height="342px" viewBox="0 0 306 342" version="1.1" xmlns="http://www.w3.org/2000/svg" xmlns:xlink="http://www.w3.org/1999/xlink">
    <!-- Generator: Sketch 51 (57462) - http://www.bohemiancoding.com/sketch -->
    <title>espresso cup</title>
    <desc>Created with Sketch.</desc>
    <defs></defs>
    <g id="Page-1" stroke="none" stroke-width="1" fill="none" fill-rule="evenodd">
        <g id="espresso-cup" fill-rule="nonzero">
            <g id="Group" transform="translate(14.000000, 141.000000)" fill="#FFFFFF">
                <g transform="translate(24.000000, 0.000000)" id="Shape">
                    <path d="M161.7,163.9 C186.2,98.7 187.1,0.1 187.1,0.1 L130.1,0.1 L57.2,0.1 L0.2,0.1 C0.2,0.1 1.1,98.7 25.6,163.9 L161.7,163.9 Z"></path>
                    <path d="M241.3,89.7 L171.1,133.1 C173.5,123.5 175.5,113.6 177.3,103.7 L229.9,71.2 C239,65.6 242.6,54 238.3,44.2 C235.8,38.5 231.1,34.3 225.2,32.4 C219.3,30.5 213,31.2 207.7,34.3 L184.6,47.9 C185.5,38 186,29 186.4,21.7 L196.7,15.7 C207.3,9.5 220.2,8.1 231.9,11.9 C243.6,15.7 253.2,24.4 258.2,35.6 C266.8,55.1 259.5,78.4 241.3,89.7 Z"></path>
                </g>
                <path d="M124.5,163.8 L98.2,163.8 L-1.42108547e-14,163.8 C19.9,183.6 46.8,194.6 74.9,194.6 L98.2,194.6 L124.5,194.6 L163.8,194.6 C191.9,194.6 218.8,183.5 238.7,163.8 L124.5,163.8 Z" id="Shape"></path>
            </g>
            <g id="Group" transform="translate(0.000000, 135.000000)" fill="#3A3033">
                <g transform="translate(32.000000, 0.000000)" id="Shape">
                    <path d="M171.5,175.3 L27.8,175.3 L26.5,171.8 C16.2,144.3 8.7,108.1 4.3,64.1 C1,31.4 0.7,6.4 0.7,6.1 L0.6,0.6 L198.6,0.6 L198.5,6.1 C198.5,6.3 198.2,31.4 194.9,64.1 C190.5,108.1 183,144.3 172.7,171.8 L171.5,175.3 Z M35.4,164.4 L163.8,164.4 C183.3,109.8 186.8,32.7 187.5,11.5 L11.8,11.5 C12.4,32.7 16,109.8 35.4,164.4 Z"></path>
                    <path d="M168.5,150.8 L171.8,137.7 C174,128.7 176.1,119 177.9,108.7 L178.3,106.3 L232.9,72.5 C239.7,68.3 242.4,59.6 239.2,52.3 C237.3,48 233.9,44.9 229.4,43.5 C224.9,42.1 220.3,42.6 216.3,44.9 L184.1,63.8 L185,53.2 C185.8,44.4 186.4,35.7 186.8,27.1 L187,24.2 L199.9,16.7 C211.8,9.8 226.5,8.2 239.6,12.4 C252.8,16.7 263.6,26.4 269.2,39.1 C278.9,61.2 270.8,87.5 250.2,100.2 L168.5,150.8 Z M188.2,113.1 C187.3,118 186.3,122.9 185.3,127.5 L244.3,91 C260.2,81.1 266.6,60.8 259,43.6 C254.7,33.7 246.3,26.2 236,22.9 C225.8,19.6 214.4,20.9 205.2,26.2 L197.4,30.7 C197.2,35 196.9,39.3 196.6,43.7 L210.6,35.5 C217.3,31.6 225.3,30.7 232.6,33.1 C240,35.5 245.9,40.8 249,47.9 C254.4,60.2 249.9,74.7 238.5,81.8 L188.2,113.1 Z"></path>
                </g>
                <path d="M177.8,206.1 L89,206.1 C59.3,206.1 31.3,194.6 10.3,173.7 L0.9,164.3 L266,164.3 L256.6,173.7 C235.4,194.6 207.5,206.1 177.8,206.1 Z M28.8,175.3 C46.1,188.2 67,195.2 89,195.2 L177.8,195.2 C199.8,195.2 220.7,188.2 238,175.3 L28.8,175.3 Z" id="Shape"></path>
            </g>
            <path d="M106.8,92.9 C83.9,67.8 95.3,40.3 104.6,29.2 L113,36.2 C112.2,37.2 92.8,61.2 114.9,85.5 L106.8,92.9 Z" id="Shape" fill="#3A3033"></path>
            <path d="M145.3,121.2 C122.4,96.1 133.8,68.6 143.1,57.5 C143.9,56.5 163.3,32.5 141.2,8.3 L149.3,0.9 C172.2,26 160.8,53.5 151.5,64.6 C150.7,65.6 131.3,89.6 153.4,113.8 L145.3,121.2 Z" id="Shape" fill="#3A3033"></path>
        </g>
    </g>
</svg>