<?xml version="1.0" encoding="UTF-8"?>
<svg width="322px" height="338px" viewBox="0 0 322 338" version="1.1" xmlns="http://www.w3.org/2000/svg" xmlns:xlink="http://www.w3.org/1999/xlink">
    <!-- Generator: Sketch 51 (57462) - http://www.bohemiancoding.com/sketch -->
    <title>espresso</title>
    <desc>Created with Sketch.</desc>
    <defs></defs>
    <g id="Page-1" stroke="none" stroke-width="1" fill="none" fill-rule="evenodd">
        <g id="espresso" fill-rule="nonzero">
            <path d="M284.3,30.1 L284.3,275.1 L37.7,275.1 L37.7,30.1 C37.7,16.8 48.4,6.1 61.7,6.1 L260.4,6.1 C273.6,6.1 284.3,16.9 284.3,30.1 Z" id="Shape" fill="#FFFFFF"></path>
            <rect id="Rectangle-path" fill="#FFFFFF" x="37.7" y="311.9" width="26.2" height="19.8"></rect>
            <rect id="Rectangle-path" fill="#FFFFFF" x="258.1" y="312.1" width="26.2" height="19.8"></rect>
            <path d="M241.6,275.1 L241.6,190.2 C241.6,161.8 219.5,137.9 191.1,136.8 C190.2,136.8 189.2,136.7 188.3,136.7 L188.3,182.8 L173.3,182.8 L173.3,165.2 L148.8,165.2 L148.8,182.8 L133.8,182.8 L133.8,136.7 C132.8,136.7 130.9,136.7 130,136.8 C101.7,137.9 79.5,161.8 79.5,190.2 L79.5,275.1 L241.6,275.1 Z" id="Shape" fill="#CDCCCC"></path>
            <g id="Group" transform="translate(130.000000, 205.000000)" fill="#FFFFFF">
                <rect id="Rectangle-path" x="0.9" y="0.6" width="60" height="69.5"></rect>
                <path d="M60.9,17.6 L77,17.6 C82.3,17.6 86.6,21.9 86.6,27.2 L86.6,37.2 C86.6,42.5 82.3,46.8 77,46.8 L60.9,46.8" id="Shape"></path>
            </g>
            <path d="M247,280.6 L74,280.6 L74,190.2 C74,158.4 98.5,132.5 129.7,131.3 C130.7,131.3 132.7,131.2 133.7,131.2 L139.2,131.2 L139.2,177.3 L143.3,177.3 L143.3,159.7 L178.7,159.7 L178.7,177.3 L182.8,177.3 L182.8,131.2 L188.3,131.2 C189.3,131.2 190.3,131.2 191.3,131.3 C222.5,132.5 247,158.3 247,190.2 L247,280.6 Z M84.9,269.6 L236,269.6 L236,190.2 C236,165.7 217.2,144.9 193.6,142.5 L193.6,188.4 L167.7,188.4 L167.7,170.8 L154.1,170.8 L154.1,188.4 L128.2,188.4 L128.2,142.4 C104.1,144.3 84.9,165.4 84.9,190.2 L84.9,269.6 Z" id="Shape" fill="#3A3033"></path>
            <path d="M180,165.3 L142,165.3 C137.5,165.3 133.8,161.6 133.8,157.1 L133.8,116.4 C133.8,111.9 137.5,108.2 142,108.2 L180,108.2 C184.5,108.2 188.2,111.9 188.2,116.4 L188.2,157.1 C188.3,161.6 184.6,165.3 180,165.3 Z" id="Shape" fill="#CDCCCC"></path>
            <path d="M37.7,108.2 L284.4,108.2 L284.4,31.2 C284.4,17.3 273.2,6.1 259.3,6.1 L62.8,6.1 C48.9,6.1 37.7,17.3 37.7,31.2 L37.7,108.2 Z" id="Shape" fill="#9D705C"></path>
            <g id="Group" transform="translate(73.000000, 34.000000)" fill="#FFFFFF">
                <g id="Rectangle-path">
                    <rect x="0.1" y="0.5" width="22.8" height="23.6"></rect>
                    <rect x="0.1" y="24.1" width="22.8" height="23.6"></rect>
                </g>
                <g transform="translate(154.000000, 0.000000)" id="Rectangle-path">
                    <rect x="0.9" y="0.5" width="22.8" height="23.6"></rect>
                    <rect x="0.9" y="24.1" width="22.8" height="23.6"></rect>
                </g>
            </g>
            <path d="M298.1,311.9 L23.9,311.9 C13.8,311.9 5.5,303.7 5.5,293.5 C5.5,283.4 13.7,275.1 23.9,275.1 L298.1,275.1 C308.2,275.1 316.5,283.3 316.5,293.5 C316.5,303.6 308.3,311.9 298.1,311.9 Z" id="Shape" fill="#9D705C"></path>
            <path d="M289.8,280.6 L32.2,280.6 L32.2,30.2 C32.2,13.9 45.4,0.7 61.7,0.7 L260.4,0.7 C276.7,0.7 289.9,13.9 289.9,30.2 L289.9,280.6 L289.8,280.6 Z M43.1,269.7 L278.8,269.7 L278.8,30.2 C278.8,20 270.5,11.7 260.3,11.7 L61.7,11.7 C51.5,11.7 43.2,20 43.2,30.2 L43.2,269.7 L43.1,269.7 Z" id="Shape" fill="#3A3033"></path>
            <path d="M298.1,317.3 L23.9,317.3 C10.8,317.3 0.1,306.6 0.1,293.5 C0.1,280.4 10.8,269.7 23.9,269.7 L298.1,269.7 C311.2,269.7 321.9,280.4 321.9,293.5 C321.9,306.6 311.3,317.3 298.1,317.3 Z M23.9,280.6 C16.8,280.6 11,286.4 11,293.5 C11,300.6 16.8,306.4 23.9,306.4 L298.1,306.4 C305.2,306.4 311,300.6 311,293.5 C311,286.4 305.2,280.6 298.1,280.6 L23.9,280.6 Z" id="Shape" fill="#3A3033"></path>
            <path d="M69.3,337.1 L32.2,337.1 L32.2,306.4 L69.3,306.4 L69.3,337.1 Z M43.1,326.2 L58.4,326.2 L58.4,317.4 L43.1,317.4 L43.1,326.2 Z" id="Shape" fill="#3A3033"></path>
            <path d="M289.8,337.3 L252.7,337.3 L252.7,306.6 L289.8,306.6 L289.8,337.3 Z M263.6,326.4 L278.9,326.4 L278.9,317.6 L263.6,317.6 L263.6,326.4 Z" id="Shape" fill="#3A3033"></path>
            <g id="Group" transform="translate(125.000000, 200.000000)" fill="#3A3033">
                <path d="M71.4,80.6 L0.5,80.6 L0.5,0.1 L71.4,0.1 L71.4,80.6 Z M11.4,69.6 L60.4,69.6 L60.4,11 L11.4,11 L11.4,69.6 Z" id="Shape"></path>
                <path d="M82,57.3 L65.9,57.3 L65.9,46.4 L82,46.4 C84.3,46.4 86.1,44.5 86.1,42.3 L86.1,32.3 C86.1,30 84.2,28.2 82,28.2 L65.9,28.2 L65.9,17.3 L82,17.3 C90.3,17.3 97.1,24.1 97.1,32.4 L97.1,42.4 C97.1,50.5 90.3,57.3 82,57.3 Z" id="Shape"></path>
            </g>
            <g id="Group" transform="translate(128.000000, 102.000000)" fill="#3A3033">
                <path d="M45.3,68.8 L20.8,68.8 C9.5,68.8 0.3,59.6 0.3,48.3 L0.3,21.2 C0.3,9.9 9.5,0.7 20.8,0.7 L45.3,0.7 C56.6,0.7 65.8,9.9 65.8,21.2 L65.8,48.3 C65.7,59.6 56.5,68.8 45.3,68.8 Z M20.8,11.7 C15.5,11.7 11.3,16 11.3,21.2 L11.3,48.3 C11.3,53.6 15.6,57.8 20.8,57.8 L45.3,57.8 C50.6,57.8 54.8,53.5 54.8,48.3 L54.8,21.2 C54.8,15.9 50.5,11.7 45.3,11.7 L20.8,11.7 Z" id="Shape"></path>
                <path d="M26.2,86.4 L0.3,86.4 L0.3,48.4 L11.2,48.4 C11.2,53.7 15.5,57.9 20.7,57.9 L26.2,57.9 L26.2,86.4 Z M11.2,75.4 L15.3,75.4 L15.3,68 C13.9,67.6 12.5,67.1 11.2,66.4 L11.2,75.4 Z" id="Shape"></path>
                <path d="M65.7,86.4 L39.8,86.4 L39.8,57.9 L45.3,57.9 C50.6,57.9 54.8,53.6 54.8,48.4 L65.7,48.4 L65.7,86.4 Z M50.7,75.4 L54.8,75.4 L54.8,66.4 C53.5,67.1 52.2,67.6 50.7,68 L50.7,75.4 Z" id="Shape"></path>
            </g>
            <g id="Group" transform="translate(67.000000, 29.000000)" fill="#3A3033">
                <g id="Shape">
                    <path d="M34.4,34.6 L0.7,34.6 L0.7,0 L34.4,0 L34.4,34.6 Z M11.6,23.7 L23.5,23.7 L23.5,11 L11.6,11 L11.6,23.7 Z"></path>
                    <path d="M34.4,58.2 L0.7,58.2 L0.7,23.6 L34.4,23.6 L34.4,58.2 Z M11.6,47.3 L23.5,47.3 L23.5,34.6 L11.6,34.6 L11.6,47.3 Z"></path>
                </g>
                <g transform="translate(155.000000, 0.000000)" id="Shape">
                    <path d="M34.1,34.6 L0.4,34.6 L0.4,0 L34.1,0 L34.1,34.6 Z M11.3,23.7 L23.2,23.7 L23.2,11 L11.3,11 L11.3,23.7 Z"></path>
                    <path d="M34.1,58.2 L0.4,58.2 L0.4,23.6 L34.1,23.6 L34.1,58.2 Z M11.3,47.3 L23.2,47.3 L23.2,34.6 L11.3,34.6 L11.3,47.3 Z"></path>
                </g>
            </g>
            <path d="M173.3,170.8 L148.8,170.8 C137.5,170.8 128.3,161.6 128.3,150.3 L128.3,123.2 C128.3,111.9 137.5,102.7 148.8,102.7 L173.3,102.7 C184.6,102.7 193.8,111.9 193.8,123.2 L193.8,150.3 C193.7,161.6 184.5,170.8 173.3,170.8 Z M148.8,113.7 C143.5,113.7 139.3,118 139.3,123.2 L139.3,150.3 C139.3,155.6 143.6,159.8 148.8,159.8 L173.3,159.8 C178.6,159.8 182.8,155.5 182.8,150.3 L182.8,123.2 C182.8,117.9 178.5,113.7 173.3,113.7 L148.8,113.7 Z" id="Shape" fill="#3A3033"></path>
            <rect id="Rectangle-path" fill="#3A3033" x="37.7" y="102.7" width="246.7" height="10.9"></rect>
        </g>
    </g>
</svg>