<?xml version="1.0" encoding="utf-8"?>
<!-- Generator: Adobe Illustrator 18.0.0, SVG Export Plug-In . SVG Version: 6.00 Build 0)  -->
<!DOCTYPE svg PUBLIC "-//W3C//DTD SVG 1.1//EN" "http://www.w3.org/Graphics/SVG/1.1/DTD/svg11.dtd">
<svg version="1.1" id="Layer_1" xmlns="http://www.w3.org/2000/svg" xmlns:xlink="http://www.w3.org/1999/xlink" x="0px" y="0px"
	 width="512px" height="512px" viewBox="0 0 512 512" enable-background="new 0 0 512 512" xml:space="preserve">
<g>
	<g>
		<g>
			<g>
				<path fill="#FFFFFF" d="M302.7,389.9c24.5-65.2,25.4-163.8,25.4-163.8l-57,0h-72.9l-57,0c0,0,0.9,98.6,25.4,163.8H302.7z"/>
			</g>
			<g>
				<g>
					<path fill="#FFFFFF" d="M382.3,315.7l-70.2,43.4c2.4-9.6,4.4-19.5,6.2-29.4l52.6-32.5c9.1-5.6,12.7-17.2,8.4-27
						c-2.5-5.7-7.2-9.9-13.1-11.8c-5.9-1.9-12.2-1.2-17.5,1.9l-23.1,13.6c0.9-9.9,1.4-18.9,1.8-26.2l10.3-6
						c10.6-6.2,23.5-7.6,35.2-3.8c11.7,3.8,21.3,12.5,26.3,23.7C407.8,281.1,400.5,304.4,382.3,315.7z"/>
				</g>
			</g>
		</g>
		<g>
			<path fill="#FFFFFF" d="M241.5,389.8h-26.3l-98.2,0v0c19.9,19.8,46.8,30.8,74.9,30.8l23.3,0h26.3l39.3,0
				c28.1,0,55-11.1,74.9-30.8l0,0L241.5,389.8z"/>
		</g>
	</g>
	<g>
		<g>
			<g>
				<path fill="#3A3033" d="M306.5,395.3H162.8l-1.3-3.5c-10.3-27.5-17.8-63.7-22.2-107.7c-3.3-32.7-3.6-57.7-3.6-58l-0.1-5.5l198,0
					l-0.1,5.5c0,0.2-0.3,25.3-3.6,58c-4.4,44-11.9,80.2-22.2,107.7L306.5,395.3z M170.4,384.4h128.4c19.5-54.6,23-131.7,23.7-152.9
					l-175.7,0C147.4,252.7,151,329.8,170.4,384.4z"/>
			</g>
			<g>
				<g>
					<path fill="#3A3033" d="M303.5,370.8l3.3-13.1c2.2-9,4.3-18.7,6.1-29l0.4-2.4l54.6-33.8c6.8-4.2,9.5-12.9,6.3-20.2
						c-1.9-4.3-5.3-7.4-9.8-8.8c-4.5-1.4-9.1-0.9-13.1,1.4l-32.2,18.9l0.9-10.6c0.8-8.8,1.4-17.5,1.8-26.1l0.2-2.9l12.9-7.5
						c11.9-6.9,26.6-8.5,39.7-4.3c13.2,4.3,24,14,29.6,26.7c9.7,22.1,1.6,48.4-19,61.1L303.5,370.8z M323.2,333.1
						c-0.9,4.9-1.9,9.8-2.9,14.4l59-36.5c15.9-9.9,22.3-30.2,14.7-47.4c-4.3-9.9-12.7-17.4-23-20.7c-10.2-3.3-21.6-2-30.8,3.3
						l-7.8,4.5c-0.2,4.3-0.5,8.6-0.8,13l14-8.2c6.7-3.9,14.7-4.8,22-2.4c7.4,2.4,13.3,7.7,16.4,14.8c5.4,12.3,0.9,26.8-10.5,33.9
						L323.2,333.1z"/>
				</g>
			</g>
		</g>
		<g>
			<path fill="#3A3033" d="M280.8,426.1h-88.8c-29.7,0-57.7-11.5-78.7-32.4l-9.4-9.4l265.1,0l-9.4,9.4
				C338.4,414.6,310.5,426.1,280.8,426.1z M131.8,395.3c17.3,12.9,38.2,19.9,60.2,19.9h88.8c22,0,42.9-7,60.2-19.9L131.8,395.3z"/>
		</g>
	</g>
	<g>
		<path fill="#3A3033" d="M209.8,177.9c-22.9-25.1-11.5-52.6-2.2-63.7l8.4,7c-0.8,1-20.2,25,1.9,49.3L209.8,177.9z"/>
	</g>
	<g>
		<path fill="#3A3033" d="M248.3,206.2c-22.9-25.1-11.5-52.6-2.2-63.7c0.8-1,20.2-25-1.9-49.2l8.1-7.4c22.9,25.1,11.5,52.6,2.2,63.7
			c-0.8,1-20.2,25,1.9,49.2L248.3,206.2z"/>
	</g>
</g>
</svg>
