<?xml version="1.0" encoding="utf-8"?>
<!-- Generator: Adobe Illustrator 18.0.0, SVG Export Plug-In . SVG Version: 6.00 Build 0)  -->
<!DOCTYPE svg PUBLIC "-//W3C//DTD SVG 1.1//EN" "http://www.w3.org/Graphics/SVG/1.1/DTD/svg11.dtd">
<svg version="1.1" id="Layer_1" xmlns="http://www.w3.org/2000/svg" xmlns:xlink="http://www.w3.org/1999/xlink" x="0px" y="0px"
	 width="512px" height="512px" viewBox="0 0 512 512" enable-background="new 0 0 512 512" xml:space="preserve">
<g>
	<g>
		<polygon fill="#FFFFFF" points="219.3,157 191.8,98.4 255.9,98.4 256.1,98.4 320.2,98.4 292.7,157 278.6,157 255.9,190.4 
			233.1,157 		"/>
	</g>
	<g>
		<path fill="#CDCCCC" d="M309.6,203.4c0-30.2,15.2-46.4,15.2-46.4h-46.1L256,190.4L233.2,157h-46.1c0,0,15.2,16.2,15.2,46.4
			c0,30.2-22.8,44.3-22.8,44.3v142.8c0,12.7,10.3,23,23,23H256h53.4c12.7,0,23-10.3,23-23V247.7
			C332.4,247.7,309.6,233.7,309.6,203.4z"/>
	</g>
	<g>
		<polygon fill="#FFFFFF" points="255.7,190.4 244.8,205.9 244.8,220.4 267.2,220.4 267.2,205.4 		"/>
	</g>
	<g>
		<path fill="#FFFFFF" d="M267.2,220.4H256h-11.2l-6.1,26.8c-1.7,7.5,1.6,15.2,8.1,19.2l0,0c5.6,3.4,12.7,3.4,18.4,0l0,0
			c6.6-4,9.9-11.7,8.1-19.2L267.2,220.4z"/>
	</g>
	<g>
		<path fill="#3A3033" d="M309.4,419H202.6c-15.7,0-28.5-12.8-28.5-28.5V244.7l2.6-1.6c0.8-0.5,20.2-13,20.2-39.7
			c0-27.8-13.6-42.5-13.7-42.7l-8.7-9.2h61.6l19.9,29.1l19.9-29.1h61.6l-8.7,9.2c-0.1,0.1-13.7,15.2-13.7,42.7
			c0,26.9,20,39.5,20.2,39.7l2.6,1.6v145.9C337.9,406.3,325.1,419,309.4,419z M185,250.6v140c0,9.7,7.9,17.5,17.5,17.5h106.9
			c9.7,0,17.5-7.9,17.5-17.5v-140c-6.5-5-22.8-20.2-22.8-47.1c0-18.9,5.5-32.6,10.3-40.9h-32.8L256,200.1l-25.6-37.6h-32.8
			c4.7,8.3,10.3,22.1,10.3,40.9C207.9,230.4,191.5,245.6,185,250.6z"/>
	</g>
	<g>
		<rect x="250.5" y="268.9" fill="#3A3033" width="10.9" height="122.3"/>
	</g>
	<g>
		<path fill="#3A3033" d="M272.6,225.8h-33.3v-21.6l16.2-23.1l17.1,22.4V225.8z M250.3,214.9h11.4v-7.7l-5.8-7.6l-5.6,8V214.9z"/>
	</g>
	<g>
		<path fill="#3A3033" d="M256,274.4c-4.2,0-8.4-1.2-12-3.3c-8.6-5.2-12.9-15.3-10.7-25.1l7.1-31h31.1l7.1,31
			c2.3,9.8-2,19.9-10.7,25.1C264.4,273.2,260.2,274.4,256,274.4z M249.2,225.8l-5.2,22.5c-1.2,5.2,1.1,10.5,5.6,13.3
			c3.8,2.3,8.9,2.3,12.7,0c4.6-2.8,6.8-8.1,5.6-13.3l-5.2-22.5H249.2z"/>
	</g>
	<g>
		<circle fill="#3A3033" cx="256" cy="250.2" r="5.5"/>
	</g>
	<g>
		<path fill="#3A3033" d="M255.9,200.1l-25.6-37.6h-14.4L183.2,93h145.6l-32.6,69.5h-14.7L255.9,200.1z M222.8,151.5H236l19.9,29.1
			l19.9-29.1h13.5l22.4-47.6H200.4L222.8,151.5z"/>
	</g>
	<g>
		<polygon fill="#FFFFFF" points="332.6,121.9 315.8,157 278.8,157 256,190.4 233.2,157 196.2,157 179.4,121.9 		"/>
	</g>
	<g>
		<path fill="#3A3033" d="M256,200.1l-25.7-37.6h-37.6l-22.1-46h170.5l-22.1,46h-37.6L256,200.1z M199.7,151.5h36.5l19.9,29.1
			l19.9-29.1h36.5l11.6-24.1H188.1L199.7,151.5z"/>
	</g>
</g>
</svg>
