<?xml version="1.0" encoding="UTF-8"?>
<svg width="172px" height="326px" viewBox="0 0 172 326" version="1.1" xmlns="http://www.w3.org/2000/svg" xmlns:xlink="http://www.w3.org/1999/xlink">
    <!-- Generator: Sketch 51 (57462) - http://www.bohemiancoding.com/sketch -->
    <title>eva solo</title>
    <desc>Created with Sketch.</desc>
    <defs></defs>
    <g id="Page-1" stroke="none" stroke-width="1" fill="none" fill-rule="evenodd">
        <g id="eva-solo" fill-rule="nonzero">
            <polygon id="Shape" fill="#FFFFFF" points="49.3 64 21.8 5.4 85.9 5.4 86.1 5.4 150.2 5.4 122.7 64 108.6 64 85.9 97.4 63.1 64"></polygon>
            <path d="M139.6,110.4 C139.6,80.2 154.8,64 154.8,64 L108.7,64 L86,97.4 L63.2,64 L17.1,64 C17.1,64 32.3,80.2 32.3,110.4 C32.3,140.6 9.5,154.7 9.5,154.7 L9.5,297.5 C9.5,310.2 19.8,320.5 32.5,320.5 L86,320.5 L139.4,320.5 C152.1,320.5 162.4,310.2 162.4,297.5 L162.4,154.7 C162.4,154.7 139.6,140.7 139.6,110.4 Z" id="Shape" fill="#CDCCCC"></path>
            <polygon id="Shape" fill="#FFFFFF" points="85.7 97.4 74.8 112.9 74.8 127.4 97.2 127.4 97.2 112.4"></polygon>
            <path d="M97.2,127.4 L86,127.4 L74.8,127.4 L68.7,154.2 C67,161.7 70.3,169.4 76.8,173.4 C82.4,176.8 89.5,176.8 95.2,173.4 C101.8,169.4 105.1,161.7 103.3,154.2 L97.2,127.4 Z" id="Shape" fill="#FFFFFF"></path>
            <path d="M139.4,326 L32.6,326 C16.9,326 4.1,313.2 4.1,297.5 L4.1,151.7 L6.7,150.1 C7.5,149.6 26.9,137.1 26.9,110.4 C26.9,82.6 13.3,67.9 13.2,67.7 L4.5,58.5 L66.1,58.5 L86,87.6 L105.9,58.5 L167.5,58.5 L158.8,67.7 C158.7,67.8 145.1,82.9 145.1,110.4 C145.1,137.3 165.1,149.9 165.3,150.1 L167.9,151.7 L167.9,297.6 C167.9,313.3 155.1,326 139.4,326 Z M15,157.6 L15,297.6 C15,307.3 22.9,315.1 32.5,315.1 L139.4,315.1 C149.1,315.1 156.9,307.2 156.9,297.6 L156.9,157.6 C150.4,152.6 134.1,137.4 134.1,110.5 C134.1,91.6 139.6,77.9 144.4,69.6 L111.6,69.6 L86,107.1 L60.4,69.5 L27.6,69.5 C32.3,77.8 37.9,91.6 37.9,110.4 C37.9,137.4 21.5,152.6 15,157.6 Z" id="Shape" fill="#3A3033"></path>
            <rect id="Rectangle-path" fill="#3A3033" x="80.5" y="175.9" width="10.9" height="122.3"></rect>
            <path d="M102.6,132.8 L69.3,132.8 L69.3,111.2 L85.5,88.1 L102.6,110.5 L102.6,132.8 Z M80.3,121.9 L91.7,121.9 L91.7,114.2 L85.9,106.6 L80.3,114.6 L80.3,121.9 Z" id="Shape" fill="#3A3033"></path>
            <path d="M86,181.4 C81.8,181.4 77.6,180.2 74,178.1 C65.4,172.9 61.1,162.8 63.3,153 L70.4,122 L101.5,122 L108.6,153 C110.9,162.8 106.6,172.9 97.9,178.1 C94.4,180.2 90.2,181.4 86,181.4 Z M79.2,132.8 L74,155.3 C72.8,160.5 75.1,165.8 79.6,168.6 C83.4,170.9 88.5,170.9 92.3,168.6 C96.9,165.8 99.1,160.5 97.9,155.3 L92.7,132.8 L79.2,132.8 Z" id="Shape" fill="#3A3033"></path>
            <circle id="Oval" fill="#3A3033" cx="86" cy="157.2" r="5.5"></circle>
            <path d="M85.9,107.1 L60.3,69.5 L45.9,69.5 L13.2,0 L158.8,0 L126.2,69.5 L111.5,69.5 L85.9,107.1 Z M52.8,58.5 L66,58.5 L85.9,87.6 L105.8,58.5 L119.3,58.5 L141.7,10.9 L30.4,10.9 L52.8,58.5 Z" id="Shape" fill="#3A3033"></path>
            <polygon id="Shape" fill="#FFFFFF" points="162.6 28.9 145.8 64 108.8 64 86 97.4 63.2 64 26.2 64 9.4 28.9"></polygon>
            <path d="M86,107.1 L60.3,69.5 L22.7,69.5 L0.6,23.5 L171.1,23.5 L149,69.5 L111.4,69.5 L86,107.1 Z M29.7,58.5 L66.2,58.5 L86.1,87.6 L106,58.5 L142.5,58.5 L154.1,34.4 L18.1,34.4 L29.7,58.5 Z" id="Shape" fill="#3A3033"></path>
        </g>
    </g>
</svg>