<?xml version="1.0" encoding="UTF-8"?>
<svg width="322px" height="332px" viewBox="0 0 322 332" version="1.1" xmlns="http://www.w3.org/2000/svg" xmlns:xlink="http://www.w3.org/1999/xlink">
    <!-- Generator: Sketch 51 (57462) - http://www.bohemiancoding.com/sketch -->
    <title>fizzy water</title>
    <desc>Created with Sketch.</desc>
    <defs></defs>
    <g id="Page-1" stroke="none" stroke-width="1" fill="none" fill-rule="evenodd">
        <g id="fizzy-water" fill-rule="nonzero">
            <path d="M129.6,138.4 C108.9,107.5 107.7,58.9 107.7,58.9 C111.8,58.9 114.8,55.1 113.9,51.1 L107.9,24.7 L54,24.7 L48,51.1 C47.1,55.1 50.1,58.9 54.2,58.9 C54.2,58.9 53,107.5 32.3,138.4 C12.4,168.1 -14.4,245 30,317.4 C33.2,322.7 39,325.9 45.1,325.9 L80.8,325.9 L116.5,325.9 C122.7,325.9 128.4,322.7 131.6,317.4 C176.2,245 149.5,168.1 129.6,138.4 Z" id="Shape" fill="#FFFFFF"></path>
            <path d="M131.9,317.4 C128.7,322.7 122.9,325.9 116.8,325.9 L45.3,325.9 C39.1,325.9 33.4,322.7 30.2,317.4 C-14.1,244.9 12.6,168.1 32.5,138.4 C40.7,126.1 45.9,110.9 49.1,97.2 C49.1,97.2 49.1,97.2 49.1,97.2 L112.2,97.2 L113.1,97.3 C116.3,111 121.4,126.2 129.7,138.4 C149.5,168.1 176.2,245 131.9,317.4 Z" id="Shape" fill="#CDCCCC"></path>
            <path d="M131.9,317.4 C128.7,322.7 122.9,325.9 116.8,325.9 L45.3,325.9 C39.1,325.9 33.4,322.7 30.2,317.4 C-14.1,244.9 12.6,168.1 32.5,138.4 C40.7,126.1 45.9,110.9 49.1,97.2 C49.1,97.2 49.1,97.2 49.1,97.2 L112.2,97.2 L113.1,97.3 C116.3,111 121.4,126.2 129.7,138.4 C149.5,168.1 176.2,245 131.9,317.4 Z" id="Shape" fill="#CDCCCC"></path>
            <path d="M154.7,252.2 L122,252.2 C115.7,252.2 109.8,255.3 106.5,260.7 C100.2,271.1 90.9,277.7 80.5,277.7 C70.1,277.7 60.8,271.1 54.5,260.7 C51.2,255.3 45.3,252.2 39,252.2 L7.2,252.2 C5.2,235.7 5.8,219.8 8,205.2 L39,205.2 C45.3,205.2 51.2,202.1 54.5,196.7 C60.8,186.3 70.1,179.7 80.5,179.7 C90.9,179.7 100.2,186.3 106.5,196.7 C109.8,202.1 115.7,205.2 122,205.2 L153.9,205.2 C156.2,219.9 156.7,235.7 154.7,252.2 Z" id="Shape" fill="#9D705C"></path>
            <polygon id="Shape" fill="#9D705C" points="113.1 6.1 97.8 6.1 63 6.1 47.7 6.1 42.8 23.8 63 23.8 97.8 23.8 118 23.8"></polygon>
            <polygon id="Shape" fill="#FFFFFF" points="264.3 135.1 241.2 135.1 190.1 135.1 209.9 325.9 241.2 325.9 264.3 325.9 295.7 325.9 315.5 135.1"></polygon>
            <path d="M297.4,309.2 L312.3,164.9 C312.3,164.9 295,201 252.7,175.6 C210.4,150.2 194.4,177.8 194.4,177.8 L208,309.1 L297.4,309.1 L297.4,309.2 Z" id="Shape" fill="#CDCCCC"></path>
            <path d="M297.4,309.2 L312.3,164.9 C312.3,164.9 295,201 252.7,175.6 C210.4,150.2 194.4,177.8 194.4,177.8 L208,309.1 L297.4,309.1 L297.4,309.2 Z" id="Shape" fill="#CDCCCC"></path>
            <g id="Group" fill="#3A3033">
                <path d="M116.7,331.4 L45.2,331.4 C37.2,331.4 29.6,327.1 25.4,320.3 C-20.5,245.4 6.9,166.6 27.8,135.4 C47.3,106.2 48.7,59.3 48.7,58.8 L48.8,53.5 L112.9,53.5 L113,58.8 C113,59.3 114.4,106.2 133.9,135.4 C154.8,166.6 182.2,245.4 136.3,320.3 C132.4,327.1 124.8,331.4 116.7,331.4 Z M59.5,64.4 C58.5,78.2 54.4,115.4 37,141.5 C17.5,170.7 -8.1,244.5 34.8,314.6 C37,318.2 41,320.5 45.3,320.5 L116.8,320.5 C121,320.5 125.1,318.2 127.3,314.6 C170.3,244.4 144.7,170.7 125.1,141.5 C107.7,115.5 103.5,78.2 102.6,64.4 L59.5,64.4 Z" id="Shape"></path>
                <g transform="translate(35.000000, 0.000000)">
                    <path d="M72.7,64.4 L19.2,64.4 C15.6,64.4 12.2,62.8 9.9,59.9 C7.6,57.1 6.8,53.4 7.6,49.9 L14.8,18.3 L77,18.3 L84.2,49.9 C85,53.4 84.2,57.1 81.9,59.9 C79.7,62.8 76.3,64.4 72.7,64.4 Z M23.6,29.3 L18.4,52.4 C18.3,52.8 18.5,53 18.6,53.2 C18.7,53.4 18.9,53.5 19.3,53.5 L72.8,53.5 C73.2,53.5 73.4,53.3 73.5,53.2 C73.6,53 73.8,52.8 73.7,52.4 L68.5,29.3 L23.6,29.3 Z" id="Shape"></path>
                    <path d="M90.2,29.3 L0.6,29.3 L8.5,0.7 L82.3,0.7 L90.2,29.3 Z M15,18.3 L75.9,18.3 L74,11.5 L16.8,11.5 L15,18.3 Z" id="Shape"></path>
                    <rect id="Rectangle-path" transform="translate(28.254450, 14.950950) rotate(9.613026) translate(-28.254450, -14.950950) " x="22.8042184" y="6.00056963" width="10.9004632" height="17.9007607"></rect>
                    <rect id="Rectangle-path" transform="translate(63.714650, 14.978150) rotate(80.386974) translate(-63.714650, -14.978150) " x="54.7642696" y="9.52791838" width="17.9007607" height="10.9004632"></rect>
                    <rect id="Rectangle-path" x="40.5" y="6.1" width="10.9" height="17.7"></rect>
                </g>
            </g>
            <path d="M80.6,283.2 C68.6,283.2 57.5,276 49.9,263.6 C47.7,260 43.6,257.7 39.1,257.7 L2.4,257.7 L1.8,252.9 C-0.1,237.2 0.1,220.9 2.6,204.5 L3.3,199.8 L39,199.8 C43.5,199.8 47.6,197.6 49.8,193.9 C57.4,181.4 68.6,174.3 80.5,174.3 C92.5,174.3 103.6,181.5 111.2,193.9 C113.4,197.5 117.5,199.8 122,199.8 L158.6,199.8 L159.3,204.5 C161.8,220.8 162,237.1 160.1,252.9 L159.5,257.7 L122,257.7 C117.5,257.7 113.4,259.9 111.2,263.6 C103.7,276 92.5,283.2 80.6,283.2 Z M12.2,246.7 L39.1,246.7 C47.4,246.7 55.1,251 59.2,257.8 C64.7,266.9 72.5,272.2 80.6,272.2 C88.6,272.2 96.4,267 102,257.8 C106.2,250.9 113.9,246.7 122.1,246.7 L149.8,246.7 C150.9,234.9 150.7,222.8 149.2,210.7 L122.1,210.7 C113.8,210.7 106.1,206.4 102,199.6 C96.5,190.5 88.7,185.2 80.6,185.2 C72.6,185.2 64.8,190.4 59.2,199.6 C55.1,206.5 47.3,210.7 39.1,210.7 L12.8,210.7 C11.3,222.9 11.1,235 12.2,246.7 Z" id="Shape" fill="#3A3033"></path>
            <path d="M300.6,331.4 L205,331.4 L184.1,129.6 L321.6,129.6 L300.6,331.4 Z M214.8,320.4 L290.8,320.4 L309.4,140.5 L196.2,140.5 L214.8,320.4 Z" id="Shape" fill="#3A3033"></path>
            <path d="M300.8,331.4 L204.9,331.4 L202.4,302.9 L302.8,302.9 L300.8,331.4 Z M214.9,320.4 L290.6,320.4 L291,313.8 L214.3,313.8 L214.9,320.4 Z" id="Shape" fill="#3A3033"></path>
            <circle id="Oval" fill="#FFFFFF" cx="245.4" cy="244.4" r="7.2"></circle>
            <circle id="Oval" fill="#FFFFFF" cx="274.7" cy="219.3" r="7.2"></circle>
            <circle id="Oval" fill="#FFFFFF" cx="271.6" cy="271.2" r="4.1"></circle>
            <circle id="Oval" fill="#FFFFFF" cx="230.3" cy="203.2" r="4.8"></circle>
            <circle id="Oval" fill="#FFFFFF" cx="89.8" cy="132.4" r="5.7"></circle>
            <circle id="Oval" fill="#FFFFFF" cx="61.7" cy="297.8" r="5.9"></circle>
            <circle id="Oval" fill="#FFFFFF" cx="61.8" cy="150.5" r="3.7"></circle>
        </g>
    </g>
</svg>