<?xml version="1.0" encoding="utf-8"?>
<!-- Generator: Adobe Illustrator 18.0.0, SVG Export Plug-In . SVG Version: 6.00 Build 0)  -->
<!DOCTYPE svg PUBLIC "-//W3C//DTD SVG 1.1//EN" "http://www.w3.org/Graphics/SVG/1.1/DTD/svg11.dtd">
<svg version="1.1" id="Layer_1" xmlns="http://www.w3.org/2000/svg" xmlns:xlink="http://www.w3.org/1999/xlink" x="0px" y="0px"
	 width="512px" height="512px" viewBox="0 0 512 512" enable-background="new 0 0 512 512" xml:space="preserve">
<g>
	<g>
		<path fill="#FFFFFF" d="M224.6,228.4c-20.7-30.9-21.9-79.5-21.9-79.5c4.1,0,7.1-3.8,6.2-7.8l-6-26.4h-53.9l-6,26.4
			c-0.9,4,2.1,7.8,6.2,7.8h0c0,0-1.2,48.6-21.9,79.5c-19.9,29.7-46.7,106.6-2.3,179c3.2,5.3,9,8.5,15.1,8.5l35.7,0h35.7
			c6.2,0,11.9-3.2,15.1-8.5C271.2,335,244.5,258.1,224.6,228.4z"/>
	</g>
	<g>
		<g>
			<path fill="#CDCCCC" d="M226.9,407.4c-3.2,5.3-9,8.5-15.1,8.5h-71.5c-6.2,0-11.9-3.2-15.1-8.5c-44.3-72.5-17.6-149.3,2.3-179
				c8.2-12.3,13.4-27.5,16.6-41.2c0,0,0,0,0,0h63.1l0.9,0.1c3.2,13.7,8.3,28.9,16.6,41.1C244.5,258.1,271.2,335,226.9,407.4z"/>
		</g>
	</g>
	<g>
		<path fill="#CDCCCC" d="M226.9,407.4c-3.2,5.3-9,8.5-15.1,8.5h-71.5c-6.2,0-11.9-3.2-15.1-8.5c-44.3-72.5-17.6-149.3,2.3-179
			c8.2-12.3,13.4-27.5,16.6-41.2c0,0,0,0,0,0h63.1l0.9,0.1c3.2,13.7,8.3,28.9,16.6,41.1C244.5,258.1,271.2,335,226.9,407.4z"/>
	</g>
	<g>
		<path fill="#9D705C" d="M249.7,342.2h-32.7c-6.3,0-12.2,3.1-15.5,8.5c-6.3,10.4-15.6,17-26,17c-10.4,0-19.7-6.6-26-17
			c-3.3-5.4-9.2-8.5-15.5-8.5h-31.8c-2-16.5-1.4-32.4,0.8-47h31c6.3,0,12.2-3.1,15.5-8.5c6.3-10.4,15.6-17,26-17s19.7,6.6,26,17
			c3.3,5.4,9.2,8.5,15.5,8.5l31.9,0C251.2,309.9,251.7,325.7,249.7,342.2z"/>
	</g>
	<g>
		<polygon fill="#9D705C" points="208.1,96.1 192.8,96.1 158,96.1 142.7,96.1 137.8,113.8 158,113.8 192.8,113.8 213,113.8 		"/>
	</g>
	<g>
		<polygon fill="#FFFFFF" points="359.3,225.1 336.2,225.1 285.1,225.1 304.9,415.9 336.2,415.9 359.3,415.9 390.7,415.9 
			410.5,225.1 		"/>
	</g>
	<g>
		<path fill="#CDCCCC" d="M392.4,399.2l14.9-144.3c0,0-17.3,36.1-59.6,10.7c-42.3-25.4-58.3,2.2-58.3,2.2l13.6,131.3H392.4z"/>
	</g>
	<g>
		<path fill="#CDCCCC" d="M392.4,399.2l14.9-144.3c0,0-17.3,36.1-59.6,10.7c-42.3-25.4-58.3,2.2-58.3,2.2l13.6,131.3H392.4z"/>
	</g>
	<g>
		<g>
			<path fill="#3A3033" d="M211.7,421.4h-71.5c-8,0-15.6-4.3-19.8-11.1c-45.9-74.9-18.5-153.7,2.4-184.9
				c19.5-29.2,20.9-76.1,20.9-76.6l0.1-5.3h64.1l0.1,5.3c0,0.5,1.4,47.4,20.9,76.6c20.9,31.2,48.3,110,2.4,184.9
				C227.4,417.1,219.8,421.4,211.7,421.4z M154.5,154.4c-1,13.8-5.1,51-22.5,77.1c-19.5,29.2-45.1,103-2.2,173.1
				c2.2,3.6,6.2,5.9,10.5,5.9h71.5c4.2,0,8.3-2.3,10.5-5.9c43-70.2,17.4-143.9-2.2-173.1c-17.4-26-21.6-63.3-22.5-77.1H154.5z"/>
		</g>
		<g>
			<g>
				<path fill="#3A3033" d="M202.7,154.4h-53.5c-3.6,0-7-1.6-9.3-4.5c-2.3-2.8-3.1-6.5-2.3-10l7.2-31.6h62.2l7.2,31.6
					c0.8,3.5,0,7.2-2.3,10C209.7,152.8,206.3,154.4,202.7,154.4z M153.6,119.3l-5.2,23.1c-0.1,0.4,0.1,0.6,0.2,0.8
					c0.1,0.2,0.3,0.3,0.7,0.3h53.5c0.4,0,0.6-0.2,0.7-0.3c0.1-0.2,0.3-0.4,0.2-0.8l-5.2-23.1H153.6z"/>
			</g>
			<g>
				<path fill="#3A3033" d="M220.2,119.3h-89.6l7.9-28.6h73.8L220.2,119.3z M145,108.3h60.9l-1.9-6.8h-57.2L145,108.3z"/>
			</g>
			<g>
				
					<rect x="152.8" y="96" transform="matrix(0.986 0.167 -0.167 0.986 19.7466 -24.9575)" fill="#3A3033" width="10.9" height="17.9"/>
			</g>
			<g>
				
					<rect x="184.8" y="99.5" transform="matrix(0.167 0.986 -0.986 0.167 264.8391 -103.586)" fill="#3A3033" width="17.9" height="10.9"/>
			</g>
			<g>
				<rect x="170.5" y="96.1" fill="#3A3033" width="10.9" height="17.7"/>
			</g>
		</g>
	</g>
	<g>
		<g>
			<path fill="#3A3033" d="M175.6,373.2c-12,0-23.1-7.2-30.7-19.6c-2.2-3.6-6.3-5.9-10.8-5.9H97.4l-0.6-4.8
				c-1.9-15.7-1.7-32,0.8-48.4l0.7-4.7h35.7c4.5,0,8.6-2.2,10.8-5.9c7.6-12.5,18.8-19.6,30.7-19.6c12,0,23.1,7.2,30.7,19.6
				c2.2,3.6,6.3,5.9,10.8,5.9h36.6l0.7,4.7c2.5,16.3,2.7,32.6,0.8,48.4l-0.6,4.8h-37.5c-4.5,0-8.6,2.2-10.8,5.9
				C198.7,366,187.5,373.2,175.6,373.2z M107.2,336.7h26.9c8.3,0,16,4.3,20.1,11.1c5.5,9.1,13.3,14.4,21.4,14.4
				c8,0,15.8-5.2,21.4-14.4c4.2-6.9,11.9-11.1,20.1-11.1h27.7c1.1-11.8,0.9-23.9-0.6-36h-27.1c-8.3,0-16-4.3-20.1-11.1
				c-5.5-9.1-13.3-14.4-21.4-14.4c-8,0-15.8,5.2-21.4,14.4c-4.1,6.9-11.9,11.1-20.1,11.1h-26.3C106.3,312.9,106.1,325,107.2,336.7z"
				/>
		</g>
	</g>
	<g>
		<path fill="#3A3033" d="M395.6,421.4H300l-20.9-201.8h137.5L395.6,421.4z M309.8,410.4h76l18.6-179.9H291.2L309.8,410.4z"/>
	</g>
	<g>
		<path fill="#3A3033" d="M395.8,421.4h-95.9l-2.5-28.5h100.4L395.8,421.4z M309.9,410.4h75.7l0.4-6.6h-76.7L309.9,410.4z"/>
	</g>
	<g>
		<circle fill="#FFFFFF" cx="340.4" cy="334.4" r="7.2"/>
	</g>
	<g>
		<circle fill="#FFFFFF" cx="369.7" cy="309.3" r="7.2"/>
	</g>
	<g>
		<circle fill="#FFFFFF" cx="366.6" cy="361.2" r="4.1"/>
	</g>
	<g>
		<circle fill="#FFFFFF" cx="325.3" cy="293.2" r="4.8"/>
	</g>
	<g>
		<circle fill="#FFFFFF" cx="184.8" cy="222.4" r="5.7"/>
	</g>
	<g>
		<circle fill="#FFFFFF" cx="156.7" cy="387.8" r="5.9"/>
	</g>
	<g>
		<circle fill="#FFFFFF" cx="156.8" cy="240.5" r="3.7"/>
	</g>
</g>
</svg>
