<?xml version="1.0" encoding="utf-8"?>
<!-- Generator: Adobe Illustrator 18.0.0, SVG Export Plug-In . SVG Version: 6.00 Build 0)  -->
<!DOCTYPE svg PUBLIC "-//W3C//DTD SVG 1.1//EN" "http://www.w3.org/Graphics/SVG/1.1/DTD/svg11.dtd">
<svg version="1.1" id="Layer_1" xmlns="http://www.w3.org/2000/svg" xmlns:xlink="http://www.w3.org/1999/xlink" x="0px" y="0px"
	 width="512px" height="512px" viewBox="0 0 512 512" enable-background="new 0 0 512 512" xml:space="preserve">
<g>
	<g>
		<path fill="#FFFFFF" d="M266.1,408.7c2.9-2.7,4.7-6.5,4.7-10.8c0-3.8-1.5-7.3-3.8-9.9c2.4-2.6,3.8-6.1,3.8-9.9
			c0-8.2-6.6-14.8-14.8-14.8c-8.2,0-14.8,6.6-14.8,14.8c0,3.8,1.5,7.3,3.8,9.9c-2.4,2.6-3.8,6.1-3.8,9.9c0,4.3,1.8,8.1,4.7,10.8
			c-7.9,1.8-23.1,7.1-31.1,21.2H256h41.3C289.2,415.8,274.1,410.6,266.1,408.7z"/>
	</g>
	<g>
		<path fill="#FFFFFF" d="M303.9,177.4c-1.7-10.1-6.6-17.2-13.6-24.2c0.4-2.2,0.7-4.4,0.7-6.7c0-9.3-3.6-17.7-9.6-24
			c0.2,0.3,0.3,0.6,0.5,0.9c-1.6-3-3.7-5.9-6-8.4c-2.8-3-6.1-5-9.3-7.1c-1.7-1.1-3.5-2.3-5.1-3.7c-3-2.7-4.8-6.9-5.2-10.9
			c-0.2-1.6,0.3-9,2.8-11.3c-5,0.3-8.6,4.9-10.3,9.6c-1.7,4.7-2.2,9.8-4.5,14.2c-3.1,6-9.1,9.9-13.5,15.1c-2.2,2.6-4.1,5.6-5.4,8.7
			c0.8,0.3,1.7,0.6,2.6,0.9c-0.9-0.3-1.8-0.5-2.6-0.8c-2.7,5-4.2,10.7-4.2,16.7c0,2.3,0.2,4.5,0.7,6.7c-7,6.9-11.9,14-13.6,24.2
			H303.9z M283.5,126.9C283.5,126.9,283.5,126.9,283.5,126.9c-0.4-1-0.9-2-1.4-3C282.6,124.9,283.1,125.9,283.5,126.9z"/>
	</g>
	<g>
		<path fill="#9D705C" d="M283.5,126.9c-8.7,0.9-14.4,12.3-22,7.7c-8.8-5.3-9.6-4.7-21.9-3c-5.4,0.7-10.4-0.3-14.3-1.8
			c1.3-3.1,3.2-6.1,5.4-8.7c4.4-5.1,10.4-9.1,13.5-15.1c2.3-4.4,2.8-9.6,4.5-14.2c1.7-4.7,5.3-9.3,10.3-9.6
			c-2.5,2.2-2.9,9.6-2.8,11.3c0.4,3.9,2.2,8.2,5.2,10.9c1.6,1.4,3.3,2.6,5.1,3.7c3.2,2.1,6.6,4.1,9.3,7.1
			C279.1,118.5,281.7,122.5,283.5,126.9z"/>
	</g>
	<g>
		<path fill="#9D705C" d="M283.5,126.9c-8.7,0.9-14.4,12.3-22,7.7c-8.8-5.3-9.6-4.7-21.9-3c-5.4,0.7-10.4-0.3-14.3-1.8
			c1.3-3.1,3.2-6.1,5.4-8.7c4.4-5.1,10.4-9.1,13.5-15.1c2.3-4.4,2.8-9.6,4.5-14.2c1.7-4.7,5.3-9.3,10.3-9.6
			c-2.5,2.2-2.9,9.6-2.8,11.3c0.4,3.9,2.2,8.2,5.2,10.9c1.6,1.4,3.3,2.6,5.1,3.7c3.2,2.1,6.6,4.1,9.3,7.1
			C279.1,118.5,281.7,122.5,283.5,126.9z"/>
	</g>
	<g>
		<g>
			<path fill="#95BDA6" d="M215.7,336.5c2.6,14,14.9,24.2,29.2,24.2h5.4h11.5h5.4c14.3,0,26.5-10.1,29.2-24.2l5.1-26.8h-90.8
				L215.7,336.5z"/>
		</g>
		<g>
			<polygon fill="#CD9E5D" points="301.4,309.7 326.4,177.4 261.7,177.4 250.3,177.4 185.6,177.4 210.6,309.7 			"/>
		</g>
	</g>
	<g>
		<path fill="#3A3033" d="M267.1,366.2h-22.3c-16.9,0-31.4-12-34.5-28.6L179,171.9h154l-31.3,165.7
			C298.5,354.1,284,366.2,267.1,366.2z M192.2,182.8l28.9,152.7c2.2,11.4,12.2,19.7,23.8,19.7h22.3c11.6,0,21.6-8.3,23.8-19.7
			l28.9-152.7H192.2z"/>
	</g>
	<g>
		<path fill="#3A3033" d="M306.7,435.4H205.3l4.7-8.2c6.9-12.1,18.2-18.4,27.2-21.6c-1-2.4-1.5-5-1.5-7.6c0-3.5,0.9-6.9,2.6-9.9
			c-1.7-3-2.6-6.4-2.6-9.9c0-11.2,9.1-20.3,20.3-20.3c11.2,0,20.3,9.1,20.3,20.3c0,3.5-0.9,6.9-2.6,9.9c1.7,3,2.6,6.4,2.6,9.9
			c0,2.6-0.5,5.2-1.5,7.6c9,3.2,20.4,9.5,27.2,21.6L306.7,435.4z M226.1,424.4h59.8c-7-6.3-15.6-9.1-21-10.4L256,412l-8.9,2.1
			C241.7,415.3,233.1,418.2,226.1,424.4z M256,368.8c-5.1,0-9.3,4.2-9.3,9.3c0,2.3,0.9,4.5,2.4,6.3l3.3,3.7l-3.3,3.7
			c-1.6,1.7-2.4,3.9-2.4,6.3c0,2.6,1,5,3,6.8l6.4,6l6.4-6c1.9-1.8,3-4.2,3-6.8c0-2.3-0.9-4.5-2.4-6.3l-3.3-3.7l3.3-3.7
			c1.6-1.7,2.4-3.9,2.4-6.3C265.3,373,261.1,368.8,256,368.8z"/>
	</g>
	<g>
		<path fill="#3A3033" d="M303.9,182.8h-95.7l-5.4-6.4c1.6-9.4,5.6-17.1,13.2-25.1c-0.2-1.6-0.3-3.2-0.3-4.8
			c0-6.6,1.6-13.1,4.7-18.9l0,0c1.6-3.7,3.7-7.1,6.3-10.1c1.8-2.1,3.7-3.9,5.6-5.7c2.9-2.8,5.7-5.4,7.2-8.4c1.1-2.1,1.7-4.6,2.4-7.3
			c0.5-2,1-4.2,1.8-6.3c2.2-6.1,7.4-12.8,15.1-13.2l4,9.5c0.2-0.1,0.2-0.2,0.2-0.2c-0.7,1.1-1.3,5.3-1.2,6.9
			c0.3,2.8,1.6,5.7,3.4,7.2c1.4,1.2,3,2.3,4.4,3.2l1.3,0.9c2.9,1.9,6.2,4,9,7.1c2.2,2.4,4.2,5,5.9,7.9c6.9,7.5,10.7,17.1,10.7,27.3
			c0,1.6-0.1,3.2-0.3,4.8c7.6,8,11.5,15.7,13.2,25.1L303.9,182.8z M215.3,171.9h81.5c-1.9-5.1-5.2-9.7-10.3-14.8l-1.5-4.9
			c0.4-1.9,0.6-3.8,0.6-5.7c0-5.8-1.7-11.3-4.7-16l-2.3-1.5c-0.3-0.8-0.7-1.6-1.2-2.5l0.2-0.1c0,0,0,0-0.1-0.1l1.2-1.1L277,126l0,0
			c-1.4-2.6-3.2-5.1-5.2-7.2c-1.9-2.1-4.4-3.7-7-5.4l-1.4-0.9c-1.7-1.1-3.7-2.5-5.6-4.2c-2.5-2.2-4.5-5.2-5.7-8.6
			c-0.7,2.9-1.5,5.9-3.1,8.8c-2.4,4.7-6,8-9.4,11.3c-1.7,1.6-3.4,3.2-4.8,4.8c-1.9,2.2-3.4,4.6-4.5,7.3l-2.4-1l-0.1,0.3l2.3,1.3
			c-2.3,4.3-3.6,9.2-3.6,14.1c0,1.9,0.2,3.7,0.6,5.7l-1.5,4.9C220.4,162.2,217.2,166.8,215.3,171.9z"/>
	</g>
</g>
</svg>
