<?xml version="1.0" encoding="UTF-8"?>
<svg width="154px" height="360px" viewBox="0 0 154 360" version="1.1" xmlns="http://www.w3.org/2000/svg" xmlns:xlink="http://www.w3.org/1999/xlink">
    <!-- Generator: Sketch 51 (57462) - http://www.bohemiancoding.com/sketch -->
    <title>frappe</title>
    <desc>Created with Sketch.</desc>
    <defs></defs>
    <g id="Page-1" stroke="none" stroke-width="1" fill="none" fill-rule="evenodd">
        <g id="frappe" fill-rule="nonzero">
            <path d="M87.1,332.7 C90,330 91.8,326.2 91.8,321.9 C91.8,318.1 90.3,314.6 88,312 C90.4,309.4 91.8,305.9 91.8,302.1 C91.8,293.9 85.2,287.3 77,287.3 C68.8,287.3 62.2,293.9 62.2,302.1 C62.2,305.9 63.7,309.4 66,312 C63.6,314.6 62.2,318.1 62.2,321.9 C62.2,326.2 64,330 66.9,332.7 C59,334.5 43.8,339.8 35.8,353.9 L77,353.9 L118.3,353.9 C110.2,339.8 95.1,334.6 87.1,332.7 Z" id="Shape" fill="#FFFFFF"></path>
            <path d="M124.9,101.4 C123.2,91.3 118.3,84.2 111.3,77.2 C111.7,75 112,72.8 112,70.5 C112,61.2 108.4,52.8 102.4,46.5 C102.6,46.8 102.7,47.1 102.9,47.4 C101.3,44.4 99.2,41.5 96.9,39 C94.1,36 90.8,34 87.6,31.9 C85.9,30.8 84.1,29.6 82.5,28.2 C79.5,25.5 77.7,21.3 77.3,17.3 C77.1,15.7 77.6,8.3 80.1,6 C75.1,6.3 71.5,10.9 69.8,15.6 C68.1,20.3 67.6,25.4 65.3,29.8 C62.2,35.8 56.2,39.7 51.8,44.9 C49.6,47.5 47.7,50.5 46.4,53.6 C47.2,53.9 48.1,54.2 49,54.5 C48.1,54.2 47.2,54 46.4,53.7 C43.7,58.7 42.2,64.4 42.2,70.4 C42.2,72.7 42.4,74.9 42.9,77.1 C35.9,84 31,91.1 29.3,101.3 L124.9,101.3 L124.9,101.4 Z M104.5,50.9 C104.5,50.9 104.5,50.9 104.5,50.9 C104.1,49.9 103.6,48.9 103.1,47.9 C103.6,48.9 104.1,49.9 104.5,50.9 Z" id="Shape" fill="#FFFFFF"></path>
            <path d="M104.5,50.9 C95.8,51.8 90.1,63.2 82.5,58.6 C73.7,53.3 72.9,53.9 60.6,55.6 C55.2,56.3 50.2,55.3 46.3,53.8 C47.6,50.7 49.5,47.7 51.7,45.1 C56.1,40 62.1,36 65.2,30 C67.5,25.6 68,20.4 69.7,15.8 C71.4,11.1 75,6.5 80,6.2 C77.5,8.4 77.1,15.8 77.2,17.5 C77.6,21.4 79.4,25.7 82.4,28.4 C84,29.8 85.7,31 87.5,32.1 C90.7,34.2 94.1,36.2 96.8,39.2 C100.1,42.5 102.7,46.5 104.5,50.9 Z" id="Shape" fill="#9D705C"></path>
            <path d="M104.5,50.9 C95.8,51.8 90.1,63.2 82.5,58.6 C73.7,53.3 72.9,53.9 60.6,55.6 C55.2,56.3 50.2,55.3 46.3,53.8 C47.6,50.7 49.5,47.7 51.7,45.1 C56.1,40 62.1,36 65.2,30 C67.5,25.6 68,20.4 69.7,15.8 C71.4,11.1 75,6.5 80,6.2 C77.5,8.4 77.1,15.8 77.2,17.5 C77.6,21.4 79.4,25.7 82.4,28.4 C84,29.8 85.7,31 87.5,32.1 C90.7,34.2 94.1,36.2 96.8,39.2 C100.1,42.5 102.7,46.5 104.5,50.9 Z" id="Shape" fill="#9D705C"></path>
            <g id="Group" transform="translate(6.000000, 101.000000)">
                <path d="M30.7,159.5 C33.3,173.5 45.6,183.7 59.9,183.7 L65.3,183.7 L76.8,183.7 L82.2,183.7 C96.5,183.7 108.7,173.6 111.4,159.5 L116.5,132.7 L25.7,132.7 L30.7,159.5 Z" id="Shape" fill="#95BDA6"></path>
                <polygon id="Shape" fill="#CD9E5D" points="116.4 132.7 141.4 0.4 76.7 0.4 65.3 0.4 0.6 0.4 25.6 132.7"></polygon>
            </g>
            <path d="M88.1,290.2 L65.8,290.2 C48.9,290.2 34.4,278.2 31.3,261.6 L0,95.9 L154,95.9 L122.7,261.6 C119.5,278.1 105,290.2 88.1,290.2 Z M13.2,106.8 L42.1,259.5 C44.3,270.9 54.3,279.2 65.9,279.2 L88.2,279.2 C99.8,279.2 109.8,270.9 112,259.5 L140.9,106.8 L13.2,106.8 Z" id="Shape" fill="#3A3033"></path>
            <path d="M127.7,359.4 L26.3,359.4 L31,351.2 C37.9,339.1 49.2,332.8 58.2,329.6 C57.2,327.2 56.7,324.6 56.7,322 C56.7,318.5 57.6,315.1 59.3,312.1 C57.6,309.1 56.7,305.7 56.7,302.2 C56.7,291 65.8,281.9 77,281.9 C88.2,281.9 97.3,291 97.3,302.2 C97.3,305.7 96.4,309.1 94.7,312.1 C96.4,315.1 97.3,318.5 97.3,322 C97.3,324.6 96.8,327.2 95.8,329.6 C104.8,332.8 116.2,339.1 123,351.2 L127.7,359.4 Z M47.1,348.4 L106.9,348.4 C99.9,342.1 91.3,339.3 85.9,338 L77,336 L68.1,338.1 C62.7,339.3 54.1,342.2 47.1,348.4 Z M77,292.8 C71.9,292.8 67.7,297 67.7,302.1 C67.7,304.4 68.6,306.6 70.1,308.4 L73.4,312.1 L70.1,315.8 C68.5,317.5 67.7,319.7 67.7,322.1 C67.7,324.7 68.7,327.1 70.7,328.9 L77.1,334.9 L83.5,328.9 C85.4,327.1 86.5,324.7 86.5,322.1 C86.5,319.8 85.6,317.6 84.1,315.8 L80.8,312.1 L84.1,308.4 C85.7,306.7 86.5,304.5 86.5,302.1 C86.3,297 82.1,292.8 77,292.8 Z" id="Shape" fill="#3A3033"></path>
            <path d="M124.9,106.8 L29.2,106.8 L23.8,100.4 C25.4,91 29.4,83.3 37,75.3 C36.8,73.7 36.7,72.1 36.7,70.5 C36.7,63.9 38.3,57.4 41.4,51.6 C43,47.9 45.1,44.5 47.7,41.5 C49.5,39.4 51.4,37.6 53.3,35.8 C56.2,33 59,30.4 60.5,27.4 C61.6,25.3 62.2,22.8 62.9,20.1 C63.4,18.1 63.9,15.9 64.7,13.8 C66.9,7.7 72.1,1 79.8,0.6 L83.8,10.1 C84,10 84,9.9 84,9.9 C83.3,11 82.7,15.2 82.8,16.8 C83.1,19.6 84.4,22.5 86.2,24 C87.6,25.2 89.2,26.3 90.6,27.2 L91.9,28.1 C94.8,30 98.1,32.1 100.9,35.2 C103.1,37.6 105.1,40.2 106.8,43.1 C113.7,50.6 117.5,60.2 117.5,70.4 C117.5,72 117.4,73.6 117.2,75.2 C124.8,83.2 128.7,90.9 130.4,100.3 L124.9,106.8 Z M36.3,95.9 L117.8,95.9 C115.9,90.8 112.6,86.2 107.5,81.1 L106,76.2 C106.4,74.3 106.6,72.4 106.6,70.5 C106.6,64.7 104.9,59.2 101.9,54.5 L99.6,53 C99.3,52.2 98.9,51.4 98.4,50.5 L98.6,50.4 C98.6,50.4 98.6,50.4 98.5,50.3 L99.7,49.2 L98,50 C96.6,47.4 94.8,44.9 92.8,42.8 C90.9,40.7 88.4,39.1 85.8,37.4 L84.4,36.5 C82.7,35.4 80.7,34 78.8,32.3 C76.3,30.1 74.3,27.1 73.1,23.7 C72.4,26.6 71.6,29.6 70,32.5 C67.6,37.2 64,40.5 60.6,43.8 C58.9,45.4 57.2,47 55.8,48.6 C53.9,50.8 52.4,53.2 51.3,55.9 L48.9,54.9 L48.8,55.2 L51.1,56.5 C48.8,60.8 47.5,65.7 47.5,70.6 C47.5,72.5 47.7,74.3 48.1,76.3 L46.6,81.2 C41.4,86.2 38.2,90.8 36.3,95.9 Z" id="Shape" fill="#3A3033"></path>
        </g>
    </g>
</svg>