<?xml version="1.0" encoding="UTF-8"?>
<svg width="300px" height="374px" viewBox="0 0 300 374" version="1.1" xmlns="http://www.w3.org/2000/svg" xmlns:xlink="http://www.w3.org/1999/xlink">
    <!-- Generator: Sketch 49.3 (51167) - http://www.bohemiancoding.com/sketch -->
    <title>french-press</title>
    <desc>Created with Sketch.</desc>
    <defs></defs>
    <g id="Page-1" stroke="none" stroke-width="1" fill="none" fill-rule="evenodd">
        <g id="french-press" fill-rule="nonzero">
            <polygon id="Shape" fill="#FFFFFF" points="36.8 108.4 204 108.4 204 333.6 57.6 333.6 57.6 136.8"></polygon>
            <path d="M128.9,44.9 C58.8,44.9 43.1,82.5 43.1,82.5 L128.9,82.5 L214.7,82.5 C214.7,82.5 199,44.9 128.9,44.9 Z" id="Shape" fill="#FFFFFF"></path>
            <rect id="Rectangle-path" fill="#CD9E5D" x="57.6" y="171.5" width="146.4" height="162.1"></rect>
            <rect id="Rectangle-path" fill="#FFFFFF" x="79.6" y="294.6" width="101.8" height="16.6"></rect>
            <path d="M112.8,10.5 C107.8,13.5 103,18.3 100.8,25.9 L128.9,25.9 L157,25.9 C154.8,18.3 150,13.5 145,10.5 C135.1,4.6 122.6,4.6 112.8,10.5 Z" id="Shape" fill="#9D705C"></path>
            <path d="M227.2,123.5 L227.2,147.6 L243.2,143.4 C257.6,139.6 271.7,150.5 271.7,165.3 L271.7,198 L271.7,272.8 C271.7,287.7 257.6,298.5 243.2,294.7 L227.2,290.5 L227.2,314.6 L243,319 C268.7,326 294,306.6 294,280 L294,198 L294,158.1 C294,131.5 268.7,112.1 243,119.1 L227.2,123.5 Z" id="Shape" fill="#9D705C"></path>
            <path d="M209.5,339 L52.1,339 L52.1,138.6 L26,102.9 L209.4,102.9 L209.4,339 L209.5,339 Z M63.1,328.1 L198.5,328.1 L198.5,113.9 L47.6,113.9 L63.1,135.1 L63.1,328.1 Z" id="Shape" fill="#3A3033"></path>
            <polygon id="Shape" fill="#3A3033" points="263.5 373.4 214.2 373.4 198.9 355 152.8 355 152.8 373.4 111.3 373.4 111.3 355 65.2 355 49.9 373.4 0.5 373.4 31.3 338.3 31.3 192.5 42.3 192.5 42.3 342.5 24.7 362.5 44.7 362.5 60.1 344.1 122.2 344.1 122.2 362.5 141.8 362.5 141.8 344.1 204 344.1 219.3 362.5 239.4 362.5 221.8 342.5 221.8 192.5 232.7 192.5 232.7 338.3"></polygon>
            <path d="M222.9,88 L34.9,88 L38.1,80.4 C38.8,78.7 56.1,39.5 128.9,39.5 C201.8,39.5 219.1,78.8 219.8,80.4 L222.9,88 Z M53.2,77 L204.5,77 C196,66.9 175,50.4 128.8,50.4 C82.9,50.4 61.8,67 53.2,77 Z" id="Shape" fill="#3A3033"></path>
            <rect id="Rectangle-path" fill="#3A3033" x="123.4" y="25.9" width="10.9" height="19"></rect>
            <path d="M164.2,31.4 L93.5,31.4 L95.5,24.4 C97.8,16.5 102.6,10.2 109.9,5.8 C115.6,2.4 122.1,0.6 128.8,0.6 C135.5,0.6 142,2.4 147.7,5.8 C155,10.2 159.9,16.5 162.1,24.4 L164.2,31.4 Z M109.6,20.4 L148.2,20.4 C146.6,18.4 144.6,16.6 142.2,15.1 C138.2,12.7 133.6,11.4 128.9,11.4 C124.2,11.4 119.6,12.7 115.6,15.1 C113.2,16.7 111.2,18.4 109.6,20.4 Z" id="Shape" fill="#3A3033"></path>
            <rect id="Rectangle-path" fill="#3A3033" x="126.5" y="108.4" width="10.9" height="186.3"></rect>
            <path d="M186.9,316.7 L74.2,316.7 L74.2,289.2 L186.9,289.2 L186.9,316.7 Z M85.1,305.7 L175.9,305.7 L175.9,300.1 L85.1,300.1 L85.1,305.7 Z" id="Shape" fill="#3A3033"></path>
            <path d="M253.7,326 C249.6,326 245.6,325.4 241.6,324.4 L221.8,319 L221.8,283.6 L244.7,289.6 C246.2,290 247.7,290.2 249.1,290.2 C258.6,290.2 266.3,282.5 266.3,273 L266.3,165.4 C266.3,155.9 258.6,148.2 249.1,148.2 C247.6,148.2 246.1,148.4 244.7,148.8 L221.8,154.8 L221.8,119.4 L241.6,114 C245.6,112.9 249.7,112.4 253.7,112.4 C279,112.4 299.5,133 299.5,158.3 L299.5,280 C299.5,305.4 278.9,326 253.7,326 Z M232.7,310.6 L244.4,313.8 C247.4,314.6 250.6,315 253.7,315 C272.9,315 288.6,299.3 288.6,280 L288.6,158.2 C288.6,138.9 273,123.2 253.7,123.2 C250.6,123.2 247.5,123.6 244.4,124.4 L232.7,127.6 L232.7,140.5 L241.8,138.1 C244.2,137.5 246.6,137.2 249,137.2 C264.5,137.2 277.1,149.8 277.1,165.4 L277.1,272.9 C277.1,288.4 264.5,301.1 249,301.1 C246.6,301.1 244.1,300.8 241.8,300.2 L232.7,297.8 L232.7,310.6 Z" id="Shape" fill="#3A3033"></path>
        </g>
    </g>
</svg>