<?xml version="1.0" encoding="UTF-8"?>
<svg width="254px" height="344px" viewBox="0 0 254 344" version="1.1" xmlns="http://www.w3.org/2000/svg" xmlns:xlink="http://www.w3.org/1999/xlink">
    <!-- Generator: Sketch 51 (57462) - http://www.bohemiancoding.com/sketch -->
    <title>frozen frappe</title>
    <desc>Created with Sketch.</desc>
    <defs></defs>
    <g id="Page-1" stroke="none" stroke-width="1" fill="none" fill-rule="evenodd">
        <g id="frozen-frappe" fill-rule="nonzero">
            <polygon id="Shape" fill="#FFFFFF" points="123.7 51 149.5 5.2 166.2 14.5 139.4 62.5"></polygon>
            <rect id="Rectangle-path" fill="#CDCCCC" x="24.7" y="83.4" width="137.4" height="31.5"></rect>
            <path d="M24.7,83.4 C24.7,83.4 65.9,39.5 93.4,39.5 C120.9,39.5 162.1,83.4 162.1,83.4" id="Shape" fill="#CDCCCC"></path>
            <path d="M209.7,298.1 L181,298.1 L181,270.1 L209.7,270.1 C215.4,270.1 220.1,265.4 220.1,259.7 L220.1,193.4 C220.1,187.7 215.4,183 209.7,183 L181,183 L181,155 L209.7,155 C230.9,155 248.1,172.2 248.1,193.4 L248.1,259.7 C248.1,280.8 230.9,298.1 209.7,298.1 Z" id="Shape" fill="#FFFFFF"></path>
            <path d="M162.1,120.4 L24.7,120.4 L19.2,114.9 L19.2,83.4 L24.7,77.9 L162.1,77.9 L167.6,83.4 L167.6,114.9 L162.1,120.4 Z M30.2,109.4 L156.7,109.4 L156.7,88.9 L30.2,88.9 L30.2,109.4 Z" id="Shape" fill="#3A3033"></path>
            <g id="Group" transform="translate(5.000000, 114.000000)">
                <path d="M0.9,187 C0.9,207.5 17.5,224.1 38,224.1 L88.4,224.1 L138.8,224.1 C159.3,224.1 175.9,207.5 175.9,187 L175.9,43.6 L0.9,43.6 L0.9,187 Z" id="Shape" fill="#CD9E5D"></path>
                <path d="M175.9,34.1 C175.7,15.7 160.6,0.9 142.1,0.9 L88.3,0.9 L34.5,0.9 C16.1,0.9 1,15.7 0.7,34.1 C0.7,34.4 0.7,34.7 0.7,35 L0.7,43.5 L175.7,43.5 L175.7,35 C175.9,34.7 175.9,34.4 175.9,34.1 Z" id="Shape" fill="#CDCCCC"></path>
            </g>
            <path d="M143.8,343.6 L43,343.6 C19.5,343.6 0.4,324.5 0.4,301 L0.4,148.1 C0.7,126.8 18.3,109.5 39.6,109.5 L147.1,109.5 C168.5,109.5 186.1,126.8 186.3,148.1 L186.3,149.1 L186.3,301 C186.4,324.5 167.3,343.6 143.8,343.6 Z M39.7,120.4 C24.3,120.4 11.6,132.9 11.4,148.2 L11.4,149.1 L11.4,301 C11.4,318.5 25.6,332.7 43.1,332.7 L143.9,332.7 C161.4,332.7 175.6,318.5 175.6,301 L175.6,148.2 C175.4,132.9 162.7,120.4 147.3,120.4 L39.7,120.4 Z" id="Shape" fill="#3A3033"></path>
            <path d="M209.7,303.5 L181,303.5 L175.5,298 L175.5,270 L181,264.5 L209.7,264.5 C212.4,264.5 214.6,262.3 214.6,259.6 L214.6,193.3 C214.6,190.6 212.4,188.4 209.7,188.4 L181,188.4 L175.5,182.9 L175.5,154.9 L181,149.4 L209.7,149.4 C233.9,149.4 253.6,169.1 253.6,193.3 L253.6,259.6 C253.6,283.8 233.9,303.5 209.7,303.5 Z M186.4,292.6 L209.7,292.6 C227.9,292.6 242.7,277.8 242.7,259.7 L242.7,193.4 C242.7,175.2 227.9,160.5 209.7,160.5 L186.4,160.5 L186.4,177.6 L209.7,177.6 C218.4,177.6 225.6,184.7 225.6,193.5 L225.6,259.8 C225.6,268.5 218.5,275.7 209.7,275.7 L186.4,275.7 L186.4,292.6 Z" id="Shape" fill="#3A3033"></path>
            <path d="M158.2,87.2 C147.2,75.5 114.1,45 93.5,45 C72.9,45 39.8,75.5 28.8,87.2 L20.8,79.7 C22.5,77.8 63.9,34 93.5,34 C123.1,34 164.5,77.8 166.2,79.7 L158.2,87.2 Z" id="Shape" fill="#3A3033"></path>
            <path d="M136.2,66.9 L120.4,55.4 L118.9,48.3 L144.7,2.5 L152.1,0.4 L168.8,9.8 L170.9,17.2 L144.1,65.2 L136.2,66.9 Z M130.8,49.4 L137.7,54.4 L158.8,16.6 L151.6,12.6 L130.8,49.4 Z" id="Shape" fill="#3A3033"></path>
            <rect id="Rectangle-path" fill="#3A3033" transform="translate(74.939860, 65.945870) rotate(24.260923) translate(-74.939860, -65.945870) " x="69.4897627" y="60.4957727" width="10.9001946" height="10.9001946"></rect>
            <rect id="Rectangle-path" fill="#3A3033" transform="translate(93.409975, 57.974455) rotate(49.521747) translate(-93.409975, -57.974455) " x="87.959634" y="52.524114" width="10.9006819" height="10.9006819"></rect>
            <rect id="Rectangle-path" fill="#3A3033" transform="translate(112.931065, 65.965705) rotate(55.647280) translate(-112.931065, -65.965705) " x="107.380927" y="60.5155692" width="11.1002767" height="10.9002717"></rect>
        </g>
    </g>
</svg>