<?xml version="1.0" encoding="utf-8"?>
<!-- Generator: Adobe Illustrator 18.0.0, SVG Export Plug-In . SVG Version: 6.00 Build 0)  -->
<!DOCTYPE svg PUBLIC "-//W3C//DTD SVG 1.1//EN" "http://www.w3.org/Graphics/SVG/1.1/DTD/svg11.dtd">
<svg version="1.1" id="Layer_1" xmlns="http://www.w3.org/2000/svg" xmlns:xlink="http://www.w3.org/1999/xlink" x="0px" y="0px"
	 width="512px" height="512px" viewBox="0 0 512 512" enable-background="new 0 0 512 512" xml:space="preserve">
<g>
	<g>
		<polygon fill="#FFFFFF" points="252.7,135 278.5,89.2 295.2,98.5 268.4,146.5 		"/>
	</g>
	<g>
		<g>
			<rect x="153.7" y="167.4" fill="#CDCCCC" width="137.4" height="31.5"/>
		</g>
	</g>
	<g>
		<path fill="#CDCCCC" d="M153.7,167.4c0,0,41.2-43.9,68.7-43.9s68.7,43.9,68.7,43.9"/>
	</g>
	<g>
		<g>
			<path fill="#FFFFFF" d="M338.7,382.1h-28.7v-28h28.7c5.7,0,10.4-4.7,10.4-10.4v-66.3c0-5.7-4.7-10.4-10.4-10.4h-28.7v-28h28.7
				c21.2,0,38.4,17.2,38.4,38.4v66.3C377.1,364.8,359.9,382.1,338.7,382.1z"/>
		</g>
	</g>
	<g>
		<g>
			<path fill="#3A3033" d="M291.1,204.4H153.7l-5.5-5.5v-31.5l5.5-5.5h137.4l5.5,5.5v31.5L291.1,204.4z M159.2,193.4h126.5v-20.5
				H159.2V193.4z"/>
		</g>
	</g>
	<g>
		<g>
			<path fill="#CD9E5D" d="M134.9,385c0,20.5,16.6,37.1,37.1,37.1h50.4h50.4c20.5,0,37.1-16.6,37.1-37.1V241.6h-175V385z"/>
		</g>
		<g>
			<path fill="#CDCCCC" d="M309.9,232.1c-0.2-18.4-15.3-33.2-33.8-33.2h-53.8h-53.8c-18.4,0-33.5,14.8-33.8,33.2c0,0.3,0,0.6,0,0.9
				v8.5h175v-8.5C309.9,232.7,309.9,232.4,309.9,232.1z"/>
		</g>
	</g>
	<g>
		<path fill="#3A3033" d="M272.8,427.6H172c-23.5,0-42.6-19.1-42.6-42.6l0-152.9c0.3-21.3,17.9-38.6,39.2-38.6h107.5
			c21.4,0,39,17.3,39.2,38.6l0,1V385C315.4,408.5,296.3,427.6,272.8,427.6z M168.7,204.4c-15.4,0-28.1,12.5-28.3,27.8l0,0.9V385
			c0,17.5,14.2,31.7,31.7,31.7h100.8c17.5,0,31.7-14.2,31.7-31.7l0-152.8c-0.2-15.3-12.9-27.8-28.3-27.8H168.7z"/>
	</g>
	<g>
		<g>
			<path fill="#3A3033" d="M338.7,387.5h-28.7l-5.5-5.5v-28l5.5-5.5h28.7c2.7,0,4.9-2.2,4.9-4.9v-66.3c0-2.7-2.2-4.9-4.9-4.9h-28.7
				l-5.5-5.5v-28l5.5-5.5h28.7c24.2,0,43.9,19.7,43.9,43.9v66.3C382.6,367.8,362.9,387.5,338.7,387.5z M315.4,376.6h23.3
				c18.2,0,33-14.8,33-32.9v-66.3c0-18.2-14.8-32.9-33-32.9h-23.3v17.1h23.3c8.7,0,15.9,7.1,15.9,15.9v66.3
				c0,8.7-7.1,15.9-15.9,15.9h-23.3V376.6z"/>
		</g>
	</g>
	<g>
		<path fill="#3A3033" d="M287.2,171.2c-11-11.7-44.1-42.2-64.7-42.2s-53.7,30.5-64.7,42.2l-8-7.5c1.7-1.9,43.1-45.7,72.7-45.7
			s71,43.8,72.7,45.7L287.2,171.2z"/>
	</g>
	<g>
		<path fill="#3A3033" d="M265.2,150.9l-15.8-11.5l-1.5-7.1l25.8-45.8l7.4-2.1l16.7,9.4l2.1,7.4l-26.8,48L265.2,150.9z M259.8,133.4
			l6.9,5l21.1-37.8l-7.2-4L259.8,133.4z"/>
	</g>
	<g>
		
			<rect x="198.5" y="144.5" transform="matrix(0.9117 0.4109 -0.4109 0.9117 79.6131 -70.5666)" fill="#3A3033" width="10.9" height="10.9"/>
	</g>
	<g>
		
			<rect x="217" y="136.5" transform="matrix(0.6492 0.7607 -0.7607 0.6492 185.9768 -119.3972)" fill="#3A3033" width="10.9" height="10.9"/>
	</g>
	<g>
		
			<rect x="236.4" y="144.5" transform="matrix(0.5643 0.8256 -0.8256 0.5643 229.1974 -134.405)" fill="#3A3033" width="11.1" height="10.9"/>
	</g>
</g>
</svg>
