<?xml version="1.0" encoding="utf-8"?>
<!-- Generator: Adobe Illustrator 18.0.0, SVG Export Plug-In . SVG Version: 6.00 Build 0)  -->
<!DOCTYPE svg PUBLIC "-//W3C//DTD SVG 1.1//EN" "http://www.w3.org/Graphics/SVG/1.1/DTD/svg11.dtd">
<svg version="1.1" id="Layer_1" xmlns="http://www.w3.org/2000/svg" xmlns:xlink="http://www.w3.org/1999/xlink" x="0px" y="0px"
	 width="512px" height="512px" viewBox="0 0 512 512" enable-background="new 0 0 512 512" xml:space="preserve">
<g>
	<g>
		<g>
			<path fill="#FFFFFF" d="M317,237.6h-86.2h-28.1h-86.2c0,0-23.1,131.4,62.4,190h20.7h34.3h20.7C340,369,317,237.6,317,237.6z"/>
		</g>
		<g>
			<g>
				<path fill="#FFFFFF" d="M395.8,311c-9.6,26.5-41.2,71-100,71c5-8.9,9-18.2,12.2-27.5c21.3-1.5,47.5-12.5,62.1-52.8
					c2.1-5.9,1-12.7-3.1-17.7c-6.2-7.7-17.3-9.1-25.3-3.2l-22.5,14.3c0.7-11.9,0.7-22.8,0.2-31.8l6-4.4
					c19.7-14.7,47.3-11.2,62.8,7.9C398.3,279.2,401.2,296.1,395.8,311z"/>
			</g>
		</g>
	</g>
	<g>
		<path fill="#CD9E5D" d="M136.2,290.3c1.4,16.3,4.8,37.5,12.8,58.5c10.2,26.6,35.8,44.2,64.3,44.2h9.3c28.5,0,54.1-17.6,64.3-44.2
			c8-21,11.5-42.2,12.9-58.5H136.2z"/>
	</g>
	<g>
		<g>
			<path fill="#3A3033" d="M256.2,433.1h-79.1l-1.4-1c-36.3-24.9-59-66.6-65.6-120.8c-5-40.5,0.6-73.3,0.9-74.6l0.8-4.5h209.8
				l0.8,4.5c0.2,1.4,5.8,34.1,0.9,74.6c-6.6,54.2-29.3,95.9-65.6,120.8L256.2,433.1z M180.5,422.1h72.3
				c71.3-50.3,62.3-155.9,59.4-179.1H121.1C118.2,266.2,109.2,371.9,180.5,422.1z"/>
		</g>
		<g>
			<g>
				<path fill="#3A3033" d="M295.8,387.4h-9.3l4.6-8.1c4.6-8.1,8.5-17.1,11.8-26.6l1.2-3.4l3.6-0.3c26.9-1.9,46.2-18.5,57.3-49.2
					c1.5-4.1,0.7-8.9-2.2-12.4c-2.5-3-6.1-4.8-10-4.8c-2.8,0-5.4,0.9-7.7,2.6l-0.3,0.2l-31.6,20l0.7-10.7
					c0.6-10.3,0.7-20.8,0.2-31.1l-0.1-2.9l8.3-6.2c8.9-6.6,19.5-10.1,30.5-10.1c15.5,0,30,6.9,39.8,19c11.2,13.8,14.4,32.8,8.4,49.5
					C390.9,340.5,357.5,387.4,295.8,387.4z M312,359.6c-2.1,5.7-4.4,11.3-7,16.5c49.8-4.4,77.1-43.4,85.6-67
					c4.7-13.1,2.2-28-6.7-38.9c-7.7-9.5-19.1-15-31.3-15c-8.7,0-17,2.8-24,8l-3.7,2.7c0.2,6.3,0.3,12.6,0.1,18.9l13.5-8.6
					c4.1-3,9-4.6,14.1-4.6c7.2,0,14,3.2,18.5,8.8c5.2,6.5,6.7,15.3,4,23C360.3,344.9,333.3,357.1,312,359.6z"/>
			</g>
		</g>
	</g>
	<g>
		<path fill="#3A3033" d="M222.7,398.5h-9.3c-30.6,0-58.5-19.2-69.4-47.7c-16.9-44.2-14-88.5-13.8-90.4l1.8-28.2h172.2l1.8,28.2
			c0.1,1.8,3.1,46.2-13.9,90.4C281.1,379.3,253.2,398.5,222.7,398.5z M142.1,243.1l-1.1,18c0,0.5-2.9,43.9,13.1,85.8
			c9.3,24.3,33.1,40.7,59.2,40.7h9.3c26.1,0,49.9-16.3,59.2-40.7c16-41.8,13.2-85.3,13.2-85.7l-1.2-18H142.1z"/>
	</g>
	<g>
		<g>
			<path fill="#CD9E5D" d="M191.6,172.8c0,0,46.9-55.1,103.8-18.2c20.7,13.4,36.9,17.7,48.5,18.3c4.8,0.3,6.2,6.6,2.1,9
				C313.8,200.8,247.2,227.7,191.6,172.8z"/>
		</g>
		<g>
			<path fill="#CD9E5D" d="M163.9,153.3c0,0-10.1-55.8,49-60.9c16-1.4,30.8-5,40.6-7.9c4.4-1.3,7.9,3.6,5.4,7.4
				C245.8,111,214.4,147.6,163.9,153.3z"/>
		</g>
		<g>
			<path fill="#3A3033" d="M116.9,205.1l-6.6-8.7c2.6-2,65.6-48.7,183.4-23.8l-2.3,10.7c-58.9-12.4-103.2-5.8-130,1.9
				C132.4,193.5,117,205,116.9,205.1z"/>
		</g>
		<g>
			<path fill="#3A3033" d="M268.2,210.9c-30.4,0-57.4-11.5-80.4-34.2l-3.6-3.6l3.3-3.9c1.1-1.3,28.4-32.8,67.6-32.8
				c14.8,0,29.4,4.6,43.4,13.6c16.7,10.8,32.1,16.7,45.8,17.4c4.6,0.2,8.3,3.4,9.4,7.8c1.1,4.5-0.9,9.1-4.8,11.4
				C329.9,197.7,300.6,210.9,268.2,210.9z M199.4,172.6c20,18.2,43.1,27.3,68.8,27.3c29,0,55.6-11.6,73.4-21.7
				c-15.1-1.3-31.6-7.7-49-19c-12.1-7.9-24.7-11.9-37.4-11.9C228.5,147.3,207.5,164.8,199.4,172.6z"/>
		</g>
		<g>
			<path fill="#3A3033" d="M161.2,181.5l-10.9-0.7c0-0.6,4.7-59.3,68.8-75.9l2.7,10.6C165.3,130.1,161.3,181,161.2,181.5z"/>
		</g>
		<g>
			<path fill="#3A3033" d="M159.4,159.3l-0.9-5c-0.2-1.1-4.6-26.7,10.4-46.3c9.4-12.3,24-19.3,43.5-21c15.7-1.3,30.2-4.9,39.6-7.7
				c1-0.3,2-0.4,3-0.4c3.8,0,7.3,2.1,9.1,5.6c1.8,3.4,1.5,7.4-0.6,10.6c-14.6,21.3-47,57.8-98.9,63.7L159.4,159.3z M253.4,90.3
				c-9.8,2.8-24.3,6.3-40,7.6c-16.3,1.4-28.3,7-35.8,16.7c-8.5,11.1-9.2,25.1-8.8,32.5C212.1,140.1,239.9,109.4,253.4,90.3z"/>
		</g>
	</g>
</g>
</svg>
