<?xml version="1.0" encoding="UTF-8"?>
<svg width="296px" height="356px" viewBox="0 0 296 356" version="1.1" xmlns="http://www.w3.org/2000/svg" xmlns:xlink="http://www.w3.org/1999/xlink">
    <!-- Generator: Sketch 51 (57462) - http://www.bohemiancoding.com/sketch -->
    <title>green tea</title>
    <desc>Created with Sketch.</desc>
    <defs></defs>
    <g id="Page-1" stroke="none" stroke-width="1" fill="none" fill-rule="evenodd">
        <g id="green-tea" fill-rule="nonzero">
            <g id="Group" transform="translate(5.000000, 159.000000)" fill="#FFFFFF">
                <path d="M204,0.6 L117.8,0.6 L89.7,0.6 L3.5,0.6 C3.5,0.6 -19.6,132 65.9,190.6 L86.6,190.6 L120.9,190.6 L141.6,190.6 C227,132 204,0.6 204,0.6 Z" id="Shape"></path>
                <path d="M282.8,74 C273.2,100.5 241.6,145 182.8,145 C187.8,136.1 191.8,126.8 195,117.5 C216.3,116 242.5,105 257.1,64.7 C259.2,58.8 258.1,52 254,47 C247.8,39.3 236.7,37.9 228.7,43.8 L206.2,58.1 C206.9,46.2 206.9,35.3 206.4,26.3 L212.4,21.9 C232.1,7.2 259.7,10.7 275.2,29.8 C285.3,42.2 288.2,59.1 282.8,74 Z" id="Shape"></path>
            </g>
            <path d="M28.2,212.3 C29.6,228.6 33,249.8 41,270.8 C51.2,297.4 76.8,315 105.3,315 L114.6,315 C143.1,315 168.7,297.4 178.9,270.8 C186.9,249.8 190.4,228.6 191.8,212.3 L28.2,212.3 Z" id="Shape" fill="#CD9E5D"></path>
            <g id="Group" transform="translate(0.000000, 154.000000)" fill="#3A3033">
                <path d="M148.2,201.1 L69.1,201.1 L67.7,200.1 C31.4,175.2 8.7,133.5 2.1,79.3 C-2.9,38.8 2.7,6 3,4.7 L3.8,0.2 L213.6,0.2 L214.4,4.7 C214.6,6.1 220.2,38.8 215.3,79.3 C208.7,133.5 186,175.2 149.7,200.1 L148.2,201.1 Z M72.5,190.1 L144.8,190.1 C216.1,139.8 207.1,34.2 204.2,11 L13.1,11 C10.2,34.2 1.2,139.9 72.5,190.1 Z" id="Shape"></path>
                <path d="M187.8,155.4 L178.5,155.4 L183.1,147.3 C187.7,139.2 191.6,130.2 194.9,120.7 L196.1,117.3 L199.7,117 C226.6,115.1 245.9,98.5 257,67.8 C258.5,63.7 257.7,58.9 254.8,55.4 C252.3,52.4 248.7,50.6 244.8,50.6 C242,50.6 239.4,51.5 237.1,53.2 L236.8,53.4 L205.2,73.4 L205.9,62.7 C206.5,52.4 206.6,41.9 206.1,31.6 L206,28.7 L214.3,22.5 C223.2,15.9 233.8,12.4 244.8,12.4 C260.3,12.4 274.8,19.3 284.6,31.4 C295.8,45.2 299,64.2 293,80.9 C282.9,108.5 249.5,155.4 187.8,155.4 Z M204,127.6 C201.9,133.3 199.6,138.9 197,144.1 C246.8,139.7 274.1,100.7 282.6,77.1 C287.3,64 284.8,49.1 275.9,38.2 C268.2,28.7 256.8,23.2 244.6,23.2 C235.9,23.2 227.6,26 220.6,31.2 L216.9,33.9 C217.1,40.2 217.2,46.5 217,52.8 L230.5,44.2 C234.6,41.2 239.5,39.6 244.6,39.6 C251.8,39.6 258.6,42.8 263.1,48.4 C268.3,54.9 269.8,63.7 267.1,71.4 C252.3,112.9 225.3,125.1 204,127.6 Z" id="Shape"></path>
            </g>
            <path d="M114.7,320.5 L105.4,320.5 C74.8,320.5 46.9,301.3 36,272.8 C19.1,228.6 22,184.3 22.2,182.4 L24,154.2 L196.2,154.2 L198,182.4 C198.1,184.2 201.1,228.6 184.1,272.8 C173.1,301.3 145.2,320.5 114.7,320.5 Z M34.1,165.1 L33,183.1 C33,183.6 30.1,227 46.1,268.9 C55.4,293.2 79.2,309.6 105.3,309.6 L114.6,309.6 C140.7,309.6 164.5,293.3 173.8,268.9 C189.8,227.1 187,183.6 187,183.2 L185.8,165.2 L34.1,165.2 L34.1,165.1 Z" id="Shape" fill="#3A3033"></path>
            <g id="Group" transform="translate(2.000000, 0.000000)">
                <path d="M81.6,94.8 C81.6,94.8 128.5,39.7 185.4,76.6 C206.1,90 222.3,94.3 233.9,94.9 C238.7,95.2 240.1,101.5 236,103.9 C203.8,122.8 137.2,149.7 81.6,94.8 Z" id="Shape" fill="#CD9E5D"></path>
                <path d="M53.9,75.3 C53.9,75.3 43.8,19.5 102.9,14.4 C118.9,13 133.7,9.4 143.5,6.5 C147.9,5.2 151.4,10.1 148.9,13.9 C135.8,33 104.4,69.6 53.9,75.3 Z" id="Shape" fill="#CD9E5D"></path>
                <path d="M6.9,127.1 L0.3,118.4 C2.9,116.4 65.9,69.7 183.7,94.6 L181.4,105.3 C122.5,92.9 78.2,99.5 51.4,107.2 C22.4,115.5 7,127 6.9,127.1 Z" id="Shape" fill="#3A3033"></path>
                <path d="M158.2,132.9 C127.8,132.9 100.8,121.4 77.8,98.7 L74.2,95.1 L77.5,91.2 C78.6,89.9 105.9,58.4 145.1,58.4 C159.9,58.4 174.5,63 188.5,72 C205.2,82.8 220.6,88.7 234.3,89.4 C238.9,89.6 242.6,92.8 243.7,97.2 C244.8,101.7 242.8,106.3 238.9,108.6 C219.9,119.7 190.6,132.9 158.2,132.9 Z M89.4,94.6 C109.4,112.8 132.5,121.9 158.2,121.9 C187.2,121.9 213.8,110.3 231.6,100.2 C216.5,98.9 200,92.5 182.6,81.2 C170.5,73.3 157.9,69.3 145.2,69.3 C118.5,69.3 97.5,86.8 89.4,94.6 Z" id="Shape" fill="#3A3033"></path>
                <path d="M51.2,103.5 L40.3,102.8 C40.3,102.2 45,43.5 109.1,26.9 L111.8,37.5 C55.3,52.1 51.3,103 51.2,103.5 Z" id="Shape" fill="#3A3033"></path>
                <path d="M49.4,81.3 L48.5,76.3 C48.3,75.2 43.9,49.6 58.9,30 C68.3,17.7 82.9,10.7 102.4,9 C118.1,7.7 132.6,4.1 142,1.3 C143,1 144,0.9 145,0.9 C148.8,0.9 152.3,3 154.1,6.5 C155.9,9.9 155.6,13.9 153.5,17.1 C138.9,38.4 106.5,74.9 54.6,80.8 L49.4,81.3 Z M143.4,12.3 C133.6,15.1 119.1,18.6 103.4,19.9 C87.1,21.3 75.1,26.9 67.6,36.6 C59.1,47.7 58.4,61.7 58.8,69.1 C102.1,62.1 129.9,31.4 143.4,12.3 Z" id="Shape" fill="#3A3033"></path>
            </g>
        </g>
    </g>
</svg>