<?xml version="1.0" encoding="UTF-8"?>
<svg width="290px" height="336px" viewBox="0 0 290 336" version="1.1" xmlns="http://www.w3.org/2000/svg" xmlns:xlink="http://www.w3.org/1999/xlink">
    <!-- Generator: Sketch 49.3 (51167) - http://www.bohemiancoding.com/sketch -->
    <title>hario</title>
    <desc>Created with Sketch.</desc>
    <defs></defs>
    <g id="Page-1" stroke="none" stroke-width="1" fill="none" fill-rule="evenodd">
        <g id="hario" fill-rule="nonzero">
            <polygon id="Shape" fill="#FFFFFF" points="105.9 79 182.4 79 170.9 103.8 170.9 115.2 117.4 115.2 117.4 103.8"></polygon>
            <polygon id="Shape" fill="#FFFFFF" points="216.5 5.6 193.3 55.5 95 55.5 71.8 5.6"></polygon>
            <polygon id="Shape" fill="#9D705C" points="245 309.4 145.5 309.4 46.1 309.4 37 330.4 145.5 330.4 254.1 330.4"></polygon>
            <polygon id="Shape" fill="#9D705C" points="245 309.4 284.4 309.4 284.4 330.4 254.1 330.4"></polygon>
            <rect id="Rectangle-path" fill="#9D705C" x="250.9" y="275.2" width="33.5" height="34.2"></rect>
            <rect id="Rectangle-path" fill="#9D705C" x="78.9" y="55.5" width="132.3" height="23.5"></rect>
            <path d="M24.5,206.5 C23.2,209.9 23.7,213.5 25.7,216.5 C27.8,219.5 31,221.2 34.6,221.2 L64.4,221.2 C65,225.8 66.5,230.1 68.6,233.7 C65.6,234.8 62.8,236.8 60.5,239.4 L34.6,239.4 C25,239.4 16.1,234.7 10.7,226.8 C5.3,218.9 4.1,208.9 7.5,200 L19.1,169.5 C23.3,158.3 34.3,150.8 46.3,150.8 L85.5,150.8 C81.6,155.4 78.9,161.8 78.4,169 L46.3,169 C41.8,169 37.8,171.8 36.2,176 L24.5,206.5 Z" id="Shape" fill="#9D705C"></path>
            <path d="M222.4,233.6 C225.2,228.8 226.9,222.8 226.9,216.4 C226.9,202.4 219.1,190.7 208.8,188.4 L238.2,143.4 L191.1,143.4 L163.6,143.4 L100,143.4 C87.9,143.4 78.2,156.1 78.2,171.8 C78.2,178 79.7,183.7 82.3,188.4 C72,190.7 64.2,202.3 64.2,216.4 C64.2,222.9 65.9,228.9 68.7,233.6 C59.6,237 53,247.9 53,260.9 C53,276.6 62.8,289.3 74.8,289.3 L216.3,289.3 C228.4,289.3 238.1,276.6 238.1,260.9 C238.1,248 231.5,237.1 222.4,233.6 Z" id="Shape" fill="#FFFFFF"></path>
            <path d="M238.1,260.9 C238.1,276.6 228.3,289.3 216.3,289.3 L74.8,289.3 C62.8,289.3 53,276.6 53,260.9 C53,248 59.6,237.1 68.7,233.6 C65.9,228.8 64.2,222.8 64.2,216.4 C64.2,214.2 64.4,212 64.7,210 L226.4,210 C226.7,212.1 226.9,214.2 226.9,216.4 C226.9,222.9 225.2,228.9 222.4,233.6 C231.5,237.1 238.1,248 238.1,260.9 Z" id="Shape" fill="#CD9E5D"></path>
            <path d="M238.1,260.9 C238.1,276.6 228.3,289.3 216.3,289.3 L74.8,289.3 C62.8,289.3 53,276.6 53,260.9 C53,248 59.6,237.1 68.7,233.6 C65.9,228.8 64.2,222.8 64.2,216.4 C64.2,214.2 64.4,212 64.7,210 L226.4,210 C226.7,212.1 226.9,214.2 226.9,216.4 C226.9,222.9 225.2,228.9 222.4,233.6 C231.5,237.1 238.1,248 238.1,260.9 Z" id="Shape" fill="#CD9E5D"></path>
            <path d="M216.3,294.8 L74.8,294.8 C59.7,294.8 47.5,279.6 47.5,260.9 C47.5,248.3 52.9,237.1 61.5,231.3 C59.7,226.7 58.7,221.6 58.7,216.4 C58.7,202.7 65.3,190.7 75,185.4 C73.5,181.2 72.8,176.6 72.8,171.9 C72.8,153.2 85,138 100.1,138 L191.1,138 C206.2,138 218.4,153.2 218.4,171.9 C218.4,176.6 217.6,181.2 216.2,185.4 C225.9,190.7 232.5,202.7 232.5,216.4 C232.5,221.6 231.6,226.7 229.7,231.3 C238.2,237.2 243.7,248.3 243.7,260.9 C243.6,279.6 231.4,294.8 216.3,294.8 Z M100,148.9 C91.1,148.9 83.6,159.4 83.6,171.8 C83.6,176.9 84.8,181.7 87,185.7 L83.4,193.7 C75.5,195.5 69.6,205.2 69.6,216.3 C69.6,221.6 70.9,226.6 73.3,230.8 L70.5,238.7 C63.3,241.4 58.3,250.5 58.3,260.8 C58.3,273.2 65.8,283.7 74.7,283.7 L216.2,283.7 C225.1,283.7 232.6,273.2 232.6,260.8 C232.6,250.5 227.6,241.4 220.4,238.7 L217.6,230.8 C220,226.6 221.3,221.6 221.3,216.3 C221.3,205.1 215.3,195.4 207.5,193.7 L203.9,185.7 C206.1,181.7 207.3,176.8 207.3,171.8 C207.3,159.4 199.8,148.9 190.9,148.9 L100,148.9 Z" id="Shape" fill="#3A3033"></path>
            <path d="M254.1,335.9 L37,335.9 L32,328.3 L41.1,307.3 L46.1,304 L245,304 L250,307.3 L259.1,328.3 L254.1,335.9 Z M45.3,324.9 L245.8,324.9 L241.4,314.9 L49.7,314.9 L45.3,324.9 Z" id="Shape" fill="#3A3033"></path>
            <path d="M270.2,275.2 L259.3,275.2 L259.3,96.7 C259.3,77 243.3,60.9 223.5,60.9 L191.2,60.9 L191.2,50 L223.5,50 C249.2,50 270.2,70.9 270.2,96.7 L270.2,275.2 Z" id="Shape" fill="#3A3033"></path>
            <path d="M284.4,335.9 L254.1,335.9 L249.1,332.6 L240,311.6 L245,304 L284.4,304 L289.9,309.5 L289.9,330.5 L284.4,335.9 Z M257.7,324.9 L278.9,324.9 L278.9,314.9 L253.3,314.9 L257.7,324.9 Z" id="Shape" fill="#3A3033"></path>
            <path d="M284.4,314.9 L250.9,314.9 L245.4,309.4 L245.4,275.2 L250.9,269.7 L284.4,269.7 L289.9,275.2 L289.9,309.4 L284.4,314.9 Z M256.3,304 L278.9,304 L278.9,280.7 L256.3,280.7 L256.3,304 Z" id="Shape" fill="#3A3033"></path>
            <path d="M216.7,84.5 L73.5,84.5 L73.5,50 L216.8,50 L216.8,84.5 L216.7,84.5 Z M84.4,73.6 L205.8,73.6 L205.8,61 L84.4,61 L84.4,73.6 Z" id="Shape" fill="#3A3033"></path>
            <path d="M60.6,244.9 L34.7,244.9 C23.4,244.9 12.7,239.3 6.3,230 C-0.1,220.7 -1.6,208.7 2.4,198.1 L14,167.6 C19,154.3 32,145.3 46.3,145.3 L85.5,145.3 L89.7,154.3 C86.4,158.2 84.3,163.5 83.9,169.4 L78.4,174.5 L46.3,174.5 C44.1,174.5 42.1,175.9 41.3,178 L29.7,208.5 C29.1,210.2 29.3,212 30.3,213.5 C31.3,215 32.9,215.8 34.7,215.8 L64.5,215.8 L69.9,220.6 C70.4,224.4 71.6,228 73.4,231 L70.6,238.9 C68.4,239.7 66.4,241.2 64.7,243.1 L60.6,244.9 Z M46.2,156.3 C36.5,156.3 27.6,162.4 24.2,171.5 L12.6,202 C9.9,209.2 10.8,217.4 15.2,223.8 C19.6,230.2 26.9,234 34.6,234 L58.2,234 C59.2,233 60.3,232.2 61.4,231.4 C60.8,229.9 60.3,228.3 59.9,226.7 L34.6,226.7 C29.2,226.7 24.3,224.1 21.2,219.7 C18.1,215.2 17.5,209.7 19.4,204.7 L31,174.2 C33.4,167.9 39.5,163.7 46.2,163.7 L73.5,163.7 C74,161.2 74.8,158.7 75.7,156.4 L46.2,156.4 L46.2,156.3 Z" id="Shape" fill="#3A3033"></path>
            <path d="M176.3,120.7 L111.9,120.7 L111.9,105.1 L97.3,73.6 L191,73.6 L176.4,105.1 L176.4,120.7 L176.3,120.7 Z M122.9,109.7 L165.4,109.7 L165.4,102.6 L173.8,84.5 L114.4,84.5 L122.8,102.6 L122.8,109.7 L122.9,109.7 Z" id="Shape" fill="#3A3033"></path>
            <path d="M196.8,61 L91.5,61 L63.3,0.2 L225,0.2 L196.8,61 Z M98.4,50 L189.8,50 L207.9,11 L80.4,11 L98.4,50 Z" id="Shape" fill="#3A3033"></path>
            <polygon id="Shape" fill="#3A3033" points="213.4 191.4 204.2 185.4 228 148.9 163.5 148.9 163.5 138 248.2 138"></polygon>
            <rect id="Rectangle-path" fill="#3A3033" x="82.3" y="183" width="91.8" height="10.9"></rect>
            <rect id="Rectangle-path" fill="#3A3033" x="68.7" y="228.2" width="122.6" height="10.9"></rect>
            <path d="M41.4,46.4 L30.5,46.4 L30.5,30.2 C30.5,13.6 44,0.2 60.5,0.2 L71.8,0.2 L71.8,11.1 L60.5,11.1 C50,11.1 41.4,19.7 41.4,30.2 L41.4,46.4 Z" id="Shape" fill="#3A3033"></path>
        </g>
    </g>
</svg>