<?xml version="1.0" encoding="utf-8"?>
<!-- Generator: Adobe Illustrator 18.0.0, SVG Export Plug-In . SVG Version: 6.00 Build 0)  -->
<!DOCTYPE svg PUBLIC "-//W3C//DTD SVG 1.1//EN" "http://www.w3.org/Graphics/SVG/1.1/DTD/svg11.dtd">
<svg version="1.1" id="Layer_1" xmlns="http://www.w3.org/2000/svg" xmlns:xlink="http://www.w3.org/1999/xlink" x="0px" y="0px"
	 width="512px" height="512px" viewBox="0 0 512 512" enable-background="new 0 0 512 512" xml:space="preserve">
<g>
	<g>
		<path fill="#FFFFFF" d="M303.1,388.2H123.9c-8.3,0-15-6.7-15-15V190.6H318v182.7C318,381.5,311.3,388.2,303.1,388.2z"/>
	</g>
	<g>
		<g>
			<path fill="#FFFFFF" d="M346.9,302.8H318v-23.7h28.9c17.9,0,32.4-14.5,32.4-32.4v0c0-17.9-14.5-32.4-32.4-32.4H318v-23.7h28.9
				c31,0,56.1,25.1,56.1,56.1v0C403,277.7,377.9,302.8,346.9,302.8z"/>
		</g>
	</g>
	<g>
		<path fill="#FFFFFF" d="M171.2,227.4c0,0-8.3-25.7,12.5-51.5c22-27.3,18.1-47.1,18.1-47.1s68.2,37.3,52.8,98.6H171.2z"/>
	</g>
	<g>
		<path fill="#3A3033" d="M166,229c-0.4-1.2-9-28.8,13.4-56.7c19.8-24.6,17-42.4,17-42.6l-2.3-11.5l10.3,5.6
			c0.7,0.4,71.7,40.1,55.5,104.7l-10.6-2.7c11.1-44.2-25.4-75.6-42.2-87.4c-1.2,9.3-5.5,23.7-19.1,40.6
			c-18.6,23.1-11.8,45.5-11.5,46.4L166,229z"/>
	</g>
	<g>
		<path fill="#9D705C" d="M109,223.2v137.7c0,15.1,12.2,27.3,27.3,27.3h154.5c15.1,0,27.3-12.2,27.3-27.3V223.2H109z"/>
	</g>
	<g>
		<path fill="#3A3033" d="M290.8,393.7H136.3c-18.1,0-32.8-14.7-32.8-32.8V185.1h220v175.8C323.5,379,308.8,393.7,290.8,393.7z
			 M114.4,196v164.9c0,12,9.8,21.8,21.8,21.8h154.5c12,0,21.8-9.8,21.8-21.8V196H114.4z"/>
	</g>
	<g>
		<g>
			<path fill="#3A3033" d="M346.9,308.3h-34.3v-34.6h34.3c14.9,0,27-12.1,27-27c0-14.9-12.1-27-27-27h-34.3v-34.6h34.3
				c34,0,61.6,27.6,61.6,61.6C408.5,280.6,380.9,308.3,346.9,308.3z M323.5,297.3h23.4c27.9,0,50.7-22.7,50.7-50.7
				c0-27.9-22.7-50.7-50.7-50.7h-23.4v12.8h23.4c20.9,0,37.9,17,37.9,37.9s-17,37.9-37.9,37.9h-23.4V297.3z"/>
		</g>
	</g>
	<g>
		<path fill="#3A3033" d="M213.7,215.4l-10-4.4c20.9-47.3-5.3-74.8-5.6-75.1l7.8-7.7C207.2,129.6,237.6,161.4,213.7,215.4z"/>
	</g>
</g>
</svg>
