<?xml version="1.0" encoding="UTF-8"?>
<svg width="306px" height="276px" viewBox="0 0 306 276" version="1.1" xmlns="http://www.w3.org/2000/svg" xmlns:xlink="http://www.w3.org/1999/xlink">
    <!-- Generator: Sketch 51 (57462) - http://www.bohemiancoding.com/sketch -->
    <title>hot chocolate</title>
    <desc>Created with Sketch.</desc>
    <defs></defs>
    <g id="Page-1" stroke="none" stroke-width="1" fill="none" fill-rule="evenodd">
        <g id="hot-chocolate" fill-rule="nonzero">
            <path d="M200.1,270.2 L20.9,270.2 C12.6,270.2 5.9,263.5 5.9,255.2 L5.9,72.6 L215,72.6 L215,255.3 C215,263.5 208.3,270.2 200.1,270.2 Z" id="Shape" fill="#FFFFFF"></path>
            <path d="M243.9,184.8 L215,184.8 L215,161.1 L243.9,161.1 C261.8,161.1 276.3,146.6 276.3,128.7 C276.3,110.8 261.8,96.3 243.9,96.3 L215,96.3 L215,72.6 L243.9,72.6 C274.9,72.6 300,97.7 300,128.7 C300,159.7 274.9,184.8 243.9,184.8 Z" id="Shape" fill="#FFFFFF"></path>
            <path d="M68.2,109.4 C68.2,109.4 59.9,83.7 80.7,57.9 C102.7,30.6 98.8,10.8 98.8,10.8 C98.8,10.8 167,48.1 151.6,109.4 L68.2,109.4 Z" id="Shape" fill="#FFFFFF"></path>
            <path d="M63,111 C62.6,109.8 54,82.2 76.4,54.3 C96.2,29.7 93.4,11.9 93.4,11.7 L91.1,0.2 L101.4,5.8 C102.1,6.2 173.1,45.9 156.9,110.5 L146.3,107.8 C157.4,63.6 120.9,32.2 104.1,20.4 C102.9,29.7 98.6,44.1 85,61 C66.4,84.1 73.2,106.5 73.5,107.4 L63,111 Z" id="Shape" fill="#3A3033"></path>
            <path d="M6,105.2 L6,242.9 C6,258 18.2,270.2 33.3,270.2 L187.8,270.2 C202.9,270.2 215.1,258 215.1,242.9 L215.1,105.2 L6,105.2 Z" id="Shape" fill="#9D705C"></path>
            <path d="M187.8,275.7 L33.3,275.7 C15.2,275.7 0.5,261 0.5,242.9 L0.5,67.1 L220.5,67.1 L220.5,242.9 C220.5,261 205.8,275.7 187.8,275.7 Z M11.4,78 L11.4,242.9 C11.4,254.9 21.2,264.7 33.2,264.7 L187.7,264.7 C199.7,264.7 209.5,254.9 209.5,242.9 L209.5,78 L11.4,78 Z" id="Shape" fill="#3A3033"></path>
            <path d="M243.9,190.3 L209.6,190.3 L209.6,155.7 L243.9,155.7 C258.8,155.7 270.9,143.6 270.9,128.7 C270.9,113.8 258.8,101.7 243.9,101.7 L209.6,101.7 L209.6,67.1 L243.9,67.1 C277.9,67.1 305.5,94.7 305.5,128.7 C305.5,162.6 277.9,190.3 243.9,190.3 Z M220.5,179.3 L243.9,179.3 C271.8,179.3 294.6,156.6 294.6,128.6 C294.6,100.7 271.9,77.9 243.9,77.9 L220.5,77.9 L220.5,90.7 L243.9,90.7 C264.8,90.7 281.8,107.7 281.8,128.6 C281.8,149.5 264.8,166.5 243.9,166.5 L220.5,166.5 L220.5,179.3 Z" id="Shape" fill="#3A3033"></path>
            <path d="M110.7,97.4 L100.7,93 C121.6,45.7 95.4,18.2 95.1,17.9 L102.9,10.2 C104.2,11.6 134.6,43.4 110.7,97.4 Z" id="Shape" fill="#3A3033"></path>
        </g>
    </g>
</svg>