<?xml version="1.0" encoding="utf-8"?>
<!-- Generator: Adobe Illustrator 18.0.0, SVG Export Plug-In . SVG Version: 6.00 Build 0)  -->
<!DOCTYPE svg PUBLIC "-//W3C//DTD SVG 1.1//EN" "http://www.w3.org/Graphics/SVG/1.1/DTD/svg11.dtd">
<svg version="1.1" id="Layer_1" xmlns="http://www.w3.org/2000/svg" xmlns:xlink="http://www.w3.org/1999/xlink" x="0px" y="0px"
	 width="512px" height="512px" viewBox="0 0 512 512" enable-background="new 0 0 512 512" xml:space="preserve">
<g>
	<g>
		<g>
			<path fill="#FFFFFF" d="M379.8,310.6c41.9-14.3,36.7-61.6,36.7-61.6L305,249c0,0-5.1,47.3,36.7,61.6H379.8z"/>
		</g>
	</g>
	<g>
		<path fill="#CD9E5D" d="M207.5,322.9l58.7-76c5.9-6.1,9.6-14.5,9.6-23.7c0-18.9-15.3-34.1-34.1-34.1c-18.9,0-34.1,15.3-34.1,34.1
			l0,0c0-18.9-15.3-34.1-34.1-34.1c-18.9,0-34.1,15.3-34.1,34.1c0,7.3,2.3,14,6.2,19.6c0,0,1.4,1.9,1.9,2.4L207.5,322.9z"/>
	</g>
	<g>
		<g>
			<rect x="62.1" y="184.1" fill="#3A3033" width="51.6" height="10.9"/>
		</g>
		<g>
			<rect x="62.1" y="317" fill="#3A3033" width="51.6" height="10.9"/>
		</g>
		<g>
			<rect x="82.3" y="189.6" fill="#3A3033" width="10.9" height="132.9"/>
		</g>
	</g>
	<g>
		<path fill="#3A3033" d="M207.5,331.9L143,248.6c-0.6-0.7-2-2.6-2-2.6c-4.8-6.8-7.3-14.7-7.3-22.9c0-21.8,17.8-39.6,39.6-39.6
			c14.5,0,27.2,7.9,34.1,19.5c6.9-11.7,19.6-19.5,34.1-19.5c21.8,0,39.6,17.8,39.6,39.6c0,10.2-3.9,19.9-10.9,27.3L207.5,331.9z
			 M149.9,239.6c0,0,1.2,1.6,1.6,2l0.1,0.2l55.9,72.1l54.8-70.9c5.2-5.4,8.1-12.5,8.1-19.9c0-15.8-12.9-28.7-28.7-28.7
			S213,207.4,213,223.2H202c0-15.8-12.9-28.7-28.7-28.7c-15.8,0-28.7,12.9-28.7,28.7C144.7,229.1,146.5,234.8,149.9,239.6
			L149.9,239.6z"/>
	</g>
	<g>
		<g>
			<rect x="341.5" y="325.5" fill="#3A3033" width="41.8" height="10.9"/>
		</g>
	</g>
	<g>
		<g>
			<path fill="#3A3033" d="M380.8,316.1h-39.9l-0.9-0.3c-45.5-15.6-40.5-66.8-40.4-67.3l0.5-4.9h121.4l0.5,4.9
				c0.1,0.5,5,51.8-40.4,67.3L380.8,316.1z M342.7,305.1h36.2c15-5.4,25-16.1,29.6-31.9c2.2-7.4,2.7-14.3,2.7-18.8h-101
				c0,4.4,0.5,11.3,2.7,18.8C317.7,289,327.7,299.7,342.7,305.1z"/>
		</g>
	</g>
	<g>
		<path fill="#3A3033" d="M424.7,303.7h-24.6v-10.9h24.6c7.8,0,14.2-6.4,14.2-14.2c0-7.8-6.4-14.2-14.2-14.2h-8v-10.9h8
			c13.9,0,25.2,11.3,25.2,25.2C449.9,292.5,438.6,303.7,424.7,303.7z"/>
	</g>
	<g>
		<path fill="#3A3033" d="M400.2,228.7h-72.3c-8.5,0-15.5-6.9-15.5-15.5v-2.1c0-8.5,6.9-15.5,15.5-15.5h55.9c2.5,0,4.6-2,4.6-4.6
			c0-2.5-2-4.6-4.6-4.6H359v-10.9h24.8c8.5,0,15.5,6.9,15.5,15.5c0,8.5-6.9,15.5-15.5,15.5h-55.9c-2.5,0-4.6,2-4.6,4.6v2.1
			c0,2.5,2,4.6,4.6,4.6h72.3V228.7z"/>
	</g>
</g>
</svg>
