<?xml version="1.0" encoding="UTF-8"?>
<svg width="388px" height="162px" viewBox="0 0 388 162" version="1.1" xmlns="http://www.w3.org/2000/svg" xmlns:xlink="http://www.w3.org/1999/xlink">
    <!-- Generator: Sketch 51 (57462) - http://www.bohemiancoding.com/sketch -->
    <title>i love coffee</title>
    <desc>Created with Sketch.</desc>
    <defs></defs>
    <g id="Page-1" stroke="none" stroke-width="1" fill="none" fill-rule="evenodd">
        <g id="i-love-coffee" fill-rule="nonzero">
            <path d="M317.8,135.6 C359.7,121.3 354.5,74 354.5,74 L243,74 C243,74 237.9,121.3 279.7,135.6 L317.8,135.6 Z" id="Shape" fill="#FFFFFF"></path>
            <path d="M145.5,147.9 L204.2,71.9 C210.1,65.8 213.8,57.4 213.8,48.2 C213.8,29.3 198.5,14.1 179.7,14.1 C160.8,14.1 145.6,29.4 145.6,48.2 C145.6,29.3 130.3,14.1 111.5,14.1 C92.6,14.1 77.4,29.4 77.4,48.2 C77.4,55.5 79.7,62.2 83.6,67.8 C83.6,67.8 85,69.7 85.5,70.2 L145.5,147.9 Z" id="Shape" fill="#CD9E5D"></path>
            <g id="Group" transform="translate(0.000000, 9.000000)" fill="#3A3033">
                <rect id="Rectangle-path" x="0.1" y="0.1" width="51.6" height="10.9"></rect>
                <rect id="Rectangle-path" x="0.1" y="133" width="51.6" height="10.9"></rect>
                <rect id="Rectangle-path" x="20.3" y="5.6" width="10.9" height="132.9"></rect>
            </g>
            <path d="M145.5,156.9 L81,73.6 C80.4,72.9 79,71 79,71 C74.2,64.2 71.7,56.3 71.7,48.1 C71.7,26.3 89.5,8.5 111.3,8.5 C125.8,8.5 138.5,16.4 145.4,28 C152.3,16.3 165,8.5 179.5,8.5 C201.3,8.5 219.1,26.3 219.1,48.1 C219.1,58.3 215.2,68 208.2,75.4 L145.5,156.9 Z M87.9,64.6 C87.9,64.6 89.1,66.2 89.5,66.6 L89.6,66.8 L145.5,138.9 L200.3,68 C205.5,62.6 208.4,55.5 208.4,48.1 C208.4,32.3 195.5,19.4 179.7,19.4 C163.9,19.4 151,32.4 151,48.2 L140,48.2 C140,32.4 127.1,19.5 111.3,19.5 C95.5,19.5 82.6,32.4 82.6,48.2 C82.7,54.1 84.5,59.8 87.9,64.6 Z" id="Shape" fill="#3A3033"></path>
            <rect id="Rectangle-path" fill="#3A3033" x="279.5" y="150.5" width="41.8" height="10.9"></rect>
            <path d="M318.8,141.1 L278.9,141.1 L278,140.8 C232.5,125.2 237.5,74 237.6,73.5 L238.1,68.6 L359.5,68.6 L360,73.5 C360.1,74 365,125.3 319.6,140.8 L318.8,141.1 Z M280.7,130.1 L316.9,130.1 C331.9,124.7 341.9,114 346.5,98.2 C348.7,90.8 349.2,83.9 349.2,79.4 L248.2,79.4 C248.2,83.8 248.7,90.7 250.9,98.2 C255.7,114 265.7,124.7 280.7,130.1 Z" id="Shape" fill="#3A3033"></path>
            <path d="M362.7,128.7 L338.1,128.7 L338.1,117.8 L362.7,117.8 C370.5,117.8 376.9,111.4 376.9,103.6 C376.9,95.8 370.5,89.4 362.7,89.4 L354.7,89.4 L354.7,78.5 L362.7,78.5 C376.6,78.5 387.9,89.8 387.9,103.7 C387.9,117.5 376.6,128.7 362.7,128.7 Z" id="Shape" fill="#3A3033"></path>
            <path d="M338.2,53.7 L265.9,53.7 C257.4,53.7 250.4,46.8 250.4,38.2 L250.4,36.1 C250.4,27.6 257.3,20.6 265.9,20.6 L321.8,20.6 C324.3,20.6 326.4,18.6 326.4,16 C326.4,13.5 324.4,11.4 321.8,11.4 L297,11.4 L297,0.5 L321.8,0.5 C330.3,0.5 337.3,7.4 337.3,16 C337.3,24.5 330.4,31.5 321.8,31.5 L265.9,31.5 C263.4,31.5 261.3,33.5 261.3,36.1 L261.3,38.2 C261.3,40.7 263.3,42.8 265.9,42.8 L338.2,42.8 L338.2,53.7 Z" id="Shape" fill="#3A3033"></path>
        </g>
    </g>
</svg>