<?xml version="1.0" encoding="utf-8"?>
<!-- Generator: Adobe Illustrator 18.0.0, SVG Export Plug-In . SVG Version: 6.00 Build 0)  -->
<!DOCTYPE svg PUBLIC "-//W3C//DTD SVG 1.1//EN" "http://www.w3.org/Graphics/SVG/1.1/DTD/svg11.dtd">
<svg version="1.1" id="Layer_1" xmlns="http://www.w3.org/2000/svg" xmlns:xlink="http://www.w3.org/1999/xlink" x="0px" y="0px"
	 width="512px" height="512px" viewBox="0 0 512 512" enable-background="new 0 0 512 512" xml:space="preserve">
<g>
	<g>
		<rect x="174.8" y="404.2" fill="#9D705C" width="115.5" height="15.8"/>
	</g>
	<g>
		<path fill="#3A3033" d="M290.4,425.5H174.8l-5.5-5.5v-15.8l5.5-5.5h115.5l5.5,5.5V420L290.4,425.5z M180.3,414.5h104.6v-4.9H180.3
			V414.5z"/>
	</g>
	<g>
		<g>
			<path fill="#FFFFFF" d="M312,184.8c-12.1-32.6-35.5-61.5-79.3-61.5s-67.3,28.9-79.3,61.5H312z"/>
		</g>
		<g>
			<polygon fill="#FFFFFF" points="276,135.6 301.6,92 378.6,92 378.6,111.5 312,111.5 290.4,147.9 			"/>
		</g>
		<g>
			<polygon fill="#9D705C" points="239.2,202 226,202 133.4,202 145.5,214.1 174.8,404.2 226,404.2 239.2,404.2 290.4,404.2 
				319.7,214.1 331.8,202 			"/>
		</g>
		<g>
			<polygon fill="#FFFFFF" points="151.5,253 313.8,253 298.7,351.5 166.5,351.5 			"/>
		</g>
		<g>
			<polygon fill="#9D705C" points="133.4,202 133.4,184.8 165.3,184.8 331.8,184.8 331.8,202 			"/>
		</g>
		<g>
			<path fill="#3A3033" d="M290.4,409.6H174.8l-5.4-4.6l-29.1-188.3l-10.8-10.8l3.9-9.3h198.4l3.9,9.3l-10.8,10.8L295.8,405
				L290.4,409.6z M179.5,398.7h106.2l28.6-185.4l1.5-3l2.8-2.8h-172l2.8,2.8l1.5,3L179.5,398.7z"/>
		</g>
		<g>
			<path fill="#3A3033" d="M331.8,207.5H133.4l-5.5-5.5v-17.2l5.5-5.5h198.4l5.5,5.5V202L331.8,207.5z M138.9,196.5h187.5v-6.2
				H138.9V196.5z"/>
		</g>
		<g>
			<path fill="#3A3033" d="M312,190.3H153.3l-5.1-7.4c15.8-42.6,45-65.1,84.5-65.1c39.5,0,68.7,22.5,84.5,65.1L312,190.3z
				 M161.4,179.4h142.5c-14.6-33.6-38.6-50.6-71.3-50.6C199.9,128.8,176,145.8,161.4,179.4z"/>
		</g>
		<g>
			<g>
				<path fill="#3A3033" d="M248.3,332.2c-2.6,0-5-0.5-7.4-1.4c-6.3-2.5-11-8.4-12.8-16c-1.7-7.1-1-15.2,2.1-22.8
					c5.3-13.1,16.2-21.8,27.3-21.8c2.6,0,5,0.5,7.4,1.4c12.7,5.1,17.5,22.2,10.8,38.8C270.3,323.5,259.3,332.2,248.3,332.2z
					 M257.4,281.1c-6.4,0-13.6,6.3-17.2,15c-2.2,5.4-2.8,11.3-1.6,16.1c0.6,2.4,2.2,6.8,6.3,8.4c1,0.4,2.1,0.6,3.3,0.6
					c6.4,0,13.6-6.3,17.1-15c4.3-10.5,2.1-21.8-4.7-24.5C259.7,281.3,258.6,281.1,257.4,281.1z"/>
			</g>
			<g>
				<path fill="#3A3033" d="M243.1,330.1l-3.9-10.2c10.6-4.2,8.3-13.7,7.8-15.5c-5.6-18.3,7.3-29.1,14.9-32.2l4.2,10.1l-2.1-5l2.1,5
					c-1.3,0.6-12.7,5.9-8.7,19C262.5,317.9,250.3,327.4,243.1,330.1z"/>
			</g>
		</g>
		<g>
			<g>
				<path fill="#3A3033" d="M217,332.2C217,332.2,217,332.2,217,332.2c-11,0-22-8.8-27.3-21.8c-6.7-16.6-2-33.6,10.8-38.8
					c2.3-0.9,4.8-1.4,7.4-1.4c11,0,22,8.8,27.3,21.8c3.1,7.6,3.8,15.7,2.1,22.8c-1.9,7.6-6.5,13.5-12.8,16
					C222,331.8,219.5,332.2,217,332.2z M207.8,281.1c-1.1,0-2.2,0.2-3.3,0.6c-6.8,2.7-9,14-4.7,24.5c3.5,8.7,10.7,15,17.1,15
					c1.1,0,2.2-0.2,3.3-0.6c4.1-1.7,5.7-6,6.3-8.4c1.2-4.8,0.6-10.7-1.6-16.1C221.4,287.5,214.2,281.1,207.8,281.1z"/>
			</g>
			<g>
				<path fill="#3A3033" d="M222.2,330.1c-7.2-2.7-19.5-12.2-14.4-28.9c4-13.1-7.4-18.4-8.7-19l4.2-10.1c7.6,3.2,20.5,14,14.9,32.2
					c-3.3,11,6.6,15.1,7.8,15.5L222.2,330.1z"/>
			</g>
		</g>
		<g>
			<path fill="#3A3033" d="M303.4,357H161.8l-16.7-109.4h175L303.4,357z M171.2,346.1H294l13.4-87.6H157.8L171.2,346.1z"/>
		</g>
		<g>
			<path fill="#3A3033" d="M291.8,156.4L269,136.8l29.4-50.3h85.6v30.4h-69L291.8,156.4z M283.1,134.4l5.9,5.1l19.8-33.5h64.3v-8.5
				h-68.4L283.1,134.4z"/>
		</g>
		<g>
			<rect x="174.8" y="142.5" fill="#3A3033" width="115.5" height="10.9"/>
		</g>
	</g>
</g>
</svg>
