<?xml version="1.0" encoding="UTF-8"?>
<svg width="257px" height="340px" viewBox="0 0 257 340" version="1.1" xmlns="http://www.w3.org/2000/svg" xmlns:xlink="http://www.w3.org/1999/xlink">
    <!-- Generator: Sketch 51 (57462) - http://www.bohemiancoding.com/sketch -->
    <title>iced coffee_2</title>
    <desc>Created with Sketch.</desc>
    <defs></defs>
    <g id="Page-1" stroke="none" stroke-width="1" fill="none" fill-rule="evenodd">
        <g id="iced-coffee_2" fill-rule="nonzero">
            <rect id="Rectangle-path" fill="#9D705C" x="47.8" y="318.2" width="115.5" height="15.8"></rect>
            <path d="M163.4,339.5 L47.8,339.5 L42.3,334 L42.3,318.2 L47.8,312.7 L163.3,312.7 L168.8,318.2 L168.8,334 L163.4,339.5 Z M53.3,328.5 L157.9,328.5 L157.9,323.6 L53.3,323.6 L53.3,328.5 Z" id="Shape" fill="#3A3033"></path>
            <g id="Group">
                <path d="M185,98.8 C172.9,66.2 149.5,37.3 105.7,37.3 C61.9,37.3 38.4,66.2 26.4,98.8 L185,98.8 Z" id="Shape" fill="#FFFFFF"></path>
                <polygon id="Shape" fill="#FFFFFF" points="149 49.6 174.6 6 251.6 6 251.6 25.5 185 25.5 163.4 61.9"></polygon>
                <polygon id="Shape" fill="#9D705C" points="112.2 116 99 116 6.4 116 18.5 128.1 47.8 318.2 99 318.2 112.2 318.2 163.4 318.2 192.7 128.1 204.8 116"></polygon>
                <polygon id="Shape" fill="#FFFFFF" points="24.5 167 186.8 167 171.7 265.5 39.5 265.5"></polygon>
                <polygon id="Shape" fill="#9D705C" points="6.4 116 6.4 98.8 38.3 98.8 204.8 98.8 204.8 116"></polygon>
                <path d="M163.4,323.6 L47.8,323.6 L42.4,319 L13.3,130.7 L2.5,119.9 L6.4,110.6 L204.8,110.6 L208.7,119.9 L197.9,130.7 L168.8,319 L163.4,323.6 Z M52.5,312.7 L158.7,312.7 L187.3,127.3 L188.8,124.3 L191.6,121.5 L19.6,121.5 L22.4,124.3 L23.9,127.3 L52.5,312.7 Z" id="Shape" fill="#3A3033"></path>
                <path d="M204.8,121.5 L6.4,121.5 L0.9,116 L0.9,98.8 L6.4,93.3 L204.8,93.3 L210.3,98.8 L210.3,116 L204.8,121.5 Z M11.9,110.5 L199.4,110.5 L199.4,104.3 L11.9,104.3 L11.9,110.5 Z" id="Shape" fill="#3A3033"></path>
                <path d="M185,104.3 L26.3,104.3 L21.2,96.9 C37,54.3 66.2,31.8 105.7,31.8 C145.2,31.8 174.4,54.3 190.2,96.9 L185,104.3 Z M34.4,93.4 L176.9,93.4 C162.3,59.8 138.3,42.8 105.6,42.8 C72.9,42.8 49,59.8 34.4,93.4 Z" id="Shape" fill="#3A3033"></path>
                <g transform="translate(100.000000, 184.000000)" fill="#3A3033" id="Shape">
                    <path d="M21.3,62.2 C18.7,62.2 16.3,61.7 13.9,60.8 C7.6,58.3 2.9,52.4 1.1,44.8 C-0.6,37.7 0.1,29.6 3.2,22 C8.5,8.9 19.4,0.2 30.5,0.2 C33.1,0.2 35.5,0.7 37.9,1.6 C50.6,6.7 55.4,23.8 48.7,40.4 C43.3,53.5 32.3,62.2 21.3,62.2 Z M30.4,11.1 C24,11.1 16.8,17.4 13.2,26.1 C11,31.5 10.4,37.4 11.6,42.2 C12.2,44.6 13.8,49 17.9,50.6 C18.9,51 20,51.2 21.2,51.2 C27.6,51.2 34.8,44.9 38.3,36.2 C42.6,25.7 40.4,14.4 33.6,11.7 C32.7,11.3 31.6,11.1 30.4,11.1 Z"></path>
                    <path d="M16.1,60.1 L12.2,49.9 C22.8,45.7 20.5,36.2 20,34.4 C14.4,16.1 27.3,5.3 34.9,2.2 L39.1,12.3 L37,7.3 L39.1,12.3 C37.8,12.9 26.4,18.2 30.4,31.3 C35.5,47.9 23.3,57.4 16.1,60.1 Z"></path>
                </g>
                <g transform="translate(59.000000, 184.000000)" fill="#3A3033" id="Shape">
                    <path d="M31,62.2 C31,62.2 31,62.2 31,62.2 C20,62.2 9,53.4 3.7,40.4 C-3,23.8 1.7,6.8 14.5,1.6 C16.8,0.7 19.3,0.2 21.9,0.2 C32.9,0.2 43.9,9 49.2,22 C52.3,29.6 53,37.7 51.3,44.8 C49.4,52.4 44.8,58.3 38.5,60.8 C36,61.8 33.5,62.2 31,62.2 Z M21.8,11.1 C20.7,11.1 19.6,11.3 18.5,11.7 C11.7,14.4 9.5,25.7 13.8,36.2 C17.3,44.9 24.5,51.2 30.9,51.2 C32,51.2 33.1,51 34.2,50.6 C38.3,48.9 39.9,44.6 40.5,42.2 C41.7,37.4 41.1,31.5 38.9,26.1 C35.4,17.5 28.2,11.1 21.8,11.1 Z"></path>
                    <path d="M36.2,60.1 C29,57.4 16.7,47.9 21.8,31.2 C25.8,18.1 14.4,12.8 13.1,12.2 L17.3,2.1 C24.9,5.3 37.8,16.1 32.2,34.3 C28.9,45.3 38.8,49.4 40,49.8 L36.2,60.1 Z"></path>
                </g>
                <path d="M176.4,271 L34.8,271 L18.1,161.6 L193.1,161.6 L176.4,271 Z M44.2,260.1 L167,260.1 L180.4,172.5 L30.8,172.5 L44.2,260.1 Z" id="Shape" fill="#3A3033"></path>
                <path d="M164.8,70.4 L142,50.8 L171.4,0.5 L257,0.5 L257,30.9 L188,30.9 L164.8,70.4 Z M156.1,48.4 L162,53.5 L181.8,20 L246.1,20 L246.1,11.5 L177.7,11.5 L156.1,48.4 Z" id="Shape" fill="#3A3033"></path>
                <rect id="Rectangle-path" fill="#3A3033" x="47.8" y="56.5" width="115.5" height="10.9"></rect>
            </g>
        </g>
    </g>
</svg>