<?xml version="1.0" encoding="utf-8"?>
<!-- Generator: Adobe Illustrator 18.0.0, SVG Export Plug-In . SVG Version: 6.00 Build 0)  -->
<!DOCTYPE svg PUBLIC "-//W3C//DTD SVG 1.1//EN" "http://www.w3.org/Graphics/SVG/1.1/DTD/svg11.dtd">
<svg version="1.1" id="Layer_1" xmlns="http://www.w3.org/2000/svg" xmlns:xlink="http://www.w3.org/1999/xlink" x="0px" y="0px"
	 width="512px" height="512px" viewBox="0 0 512 512" enable-background="new 0 0 512 512" xml:space="preserve">
<g>
	<g>
		<path fill="#FFFFFF" d="M256,114.5H151.1l11,113.5c0.9,8.8,6.1,16.6,13.9,20.8l0,0c7.3,3.9,12.4,10.9,13.7,19.1l18.8,114.7H256
			h47.5l18.8-114.7c1.3-8.2,6.4-15.2,13.7-19.1l0,0c7.8-4.2,13.1-12,13.9-20.8l11-113.5H256z"/>
	</g>
	<g>
		<rect x="208.5" y="382.6" fill="#FFFFFF" width="94.9" height="14.9"/>
	</g>
	<g>
		<path fill="#CD9E5D" d="M356.9,155.9l-7,72.1c-0.9,8.8-6.1,16.6-13.9,20.8h0c-7.3,3.9-12.4,10.9-13.7,19.1l-18.8,114.7h-95
			l-18.8-114.7c-1.3-8.2-6.4-15.2-13.7-19.1l0,0c-7.8-4.2-13.1-12-13.9-20.8l-7-72.1H356.9z"/>
	</g>
	<g>
		<path fill="#CD9E5D" d="M356.9,155.9l-7,72.1c-0.9,8.8-6.1,16.6-13.9,20.8h0c-7.3,3.9-12.4,10.9-13.7,19.1l-18.8,114.7h-95
			l-18.8-114.7c-1.3-8.2-6.4-15.2-13.7-19.1l0,0c-7.8-4.2-13.1-12-13.9-20.8l-7-72.1H356.9z"/>
	</g>
	<g>
		<path fill="#3A3033" d="M308.1,388H203.9l-19.5-119.3c-1.1-6.4-5.1-12.1-10.9-15.2l-0.1-0.1c-9.4-5.1-15.6-14.4-16.7-25L145.1,109
			h221.8l-11.6,119.5c-1,10.6-7.3,20-16.7,25l-0.1,0.1c-5.7,3.1-9.8,8.7-10.9,15.2L308.1,388z M213.2,377.1h85.7l18-110.1
			c1.6-9.7,7.7-18.3,16.4-23l0.1-0.1c6.2-3.3,10.4-9.5,11-16.5L354.9,120H157.1l10.4,107.5c0.7,7,4.8,13.2,11,16.5l0.1,0.1
			c8.7,4.7,14.8,13.2,16.4,23L213.2,377.1z"/>
	</g>
	<g>
		<path fill="#3A3033" d="M308.9,403H203.1v-25.9h105.9V403z M214,392h84v-4h-84V392z"/>
	</g>
	<g>
		
			<rect x="304.2" y="170.8" transform="matrix(0.2598 -0.9657 0.9657 0.2598 57.969 437.6304)" fill="#FFFFFF" width="20.5" height="20.5"/>
	</g>
	<g>
		<polygon fill="#FFFFFF" points="294.7,210.4 262.3,234.2 238.5,201.9 270.8,178 		"/>
	</g>
	<g>
		<polygon fill="#FFFFFF" points="217,195.4 189.1,206.1 178.4,178.2 206.3,167.4 		"/>
	</g>
	<g>
		<g>
			<circle fill="#FFFFFF" cx="204.9" cy="347.6" r="49.7"/>
		</g>
		<g>
			<circle fill="#CD9E5D" cx="204.9" cy="347.6" r="33.6"/>
		</g>
		<g>
			<line fill="#FFFFFF" x1="204.9" y1="397.3" x2="204.9" y2="297.8"/>
		</g>
		<g>
			<line fill="#FFFFFF" x1="169.7" y1="382.7" x2="240.1" y2="312.4"/>
		</g>
		<g>
			<line fill="#FFFFFF" x1="155.1" y1="347.6" x2="254.6" y2="347.6"/>
		</g>
		<g>
			<line fill="#FFFFFF" x1="169.7" y1="312.4" x2="240.1" y2="382.7"/>
		</g>
	</g>
	<g>
		<g>
			<path fill="#3A3033" d="M204.9,402.8c-30.4,0-55.2-24.8-55.2-55.2c0-30.4,24.8-55.2,55.2-55.2s55.2,24.8,55.2,55.2
				C260.1,378,235.3,402.8,204.9,402.8z M204.9,303.3c-24.4,0-44.3,19.9-44.3,44.3s19.9,44.3,44.3,44.3s44.3-19.9,44.3-44.3
				S229.3,303.3,204.9,303.3z"/>
		</g>
		<g>
			<rect x="199.4" y="297.8" fill="#3A3033" width="10.9" height="99.5"/>
		</g>
		<g>
			
				<rect x="199.4" y="297.8" transform="matrix(0.7071 0.7071 -0.7071 0.7071 305.7802 -43.0669)" fill="#3A3033" width="10.9" height="99.5"/>
		</g>
		<g>
			<rect x="155.1" y="342.1" fill="#3A3033" width="99.5" height="10.9"/>
		</g>
		<g>
			
				<rect x="155.1" y="342.1" transform="matrix(0.7071 0.7071 -0.7071 0.7071 305.7796 -43.0672)" fill="#3A3033" width="99.5" height="10.9"/>
		</g>
	</g>
</g>
</svg>
