<?xml version="1.0" encoding="UTF-8"?>
<svg width="174px" height="286px" viewBox="0 0 174 286" version="1.1" xmlns="http://www.w3.org/2000/svg" xmlns:xlink="http://www.w3.org/1999/xlink">
    <!-- Generator: Sketch 51 (57462) - http://www.bohemiancoding.com/sketch -->
    <title>instant coffee</title>
    <desc>Created with Sketch.</desc>
    <defs></defs>
    <g id="Page-1" stroke="none" stroke-width="1" fill="none" fill-rule="evenodd">
        <g id="instant-coffee" fill-rule="nonzero">
            <rect id="Rectangle-path" fill="#FFFFFF" x="22.9" y="32.3" width="128.1" height="17.2"></rect>
            <path d="M164.8,25.5 L161.1,13.7 C159.7,9.1 155.5,6.1 150.7,6.1 L93.6,6.1 L80.3,6.1 L23.2,6.1 C18.4,6.1 14.2,9.2 12.8,13.7 L9.1,25.5 C8,28.9 10.6,32.3 14.1,32.3 L80.3,32.3 L93.6,32.3 L159.8,32.3 C163.4,32.3 165.9,28.9 164.8,25.5 Z" id="Shape" fill="#CD9E5D"></path>
            <path d="M155.7,164.8 C155.9,127.2 162.8,97.6 166.1,85.3 C166.7,83.3 167.3,81.3 167.9,79.2 L151.2,49.5 L104.7,49.5 L69.3,49.5 L22.8,49.5 L6.1,79.2 C6.7,81.2 7.3,83.3 7.9,85.3 C11.2,97.5 18.1,127.1 18.3,164.8 C18.1,202.4 11.2,232 7.9,244.2 C7.3,246.2 6.7,248.2 6.1,250.3 L22.8,280 L69.3,280 L104.7,280 L151.2,280 L167.9,250.3 C167.3,248.3 166.7,246.2 166.1,244.2 C162.8,232 155.9,202.4 155.7,164.8 Z" id="Shape" fill="#9D705C"></path>
            <path d="M155.7,164.8 C155.8,182.3 157.3,198 159.3,211.1 L14.7,211.1 C16.7,198 18.2,182.3 18.3,164.8 C18.2,145.4 16.3,128.2 14.1,114.4 L159.9,114.4 C157.7,128.2 155.8,145.4 155.7,164.8 Z" id="Shape" fill="#FFFFFF"></path>
            <path d="M154.4,285.5 L19.6,285.5 L0.2,250.9 L0.9,248.7 C1.5,246.7 2.1,244.7 2.7,242.7 C5.7,231.8 12.7,202.2 12.9,164.7 C12.7,127.3 5.7,97.7 2.7,86.7 C2.2,84.8 1.6,82.8 1,80.8 L0.3,78.6 L19.7,44 L154.5,44 L173.9,78.6 L173.2,80.8 C172.6,82.8 172,84.8 171.4,86.8 C168.4,97.7 161.4,127.3 161.2,164.8 C161.4,202.2 168.4,231.8 171.4,242.8 C171.9,244.7 172.5,246.7 173.1,248.7 L173.8,250.9 L154.4,285.5 Z M26,274.6 L148,274.6 L162,249.7 C161.6,248.4 161.2,247.1 160.9,245.8 C157.8,234.4 150.5,203.7 150.3,164.9 C150.5,126.1 157.8,95.4 160.9,84 C161.3,82.7 161.7,81.3 162.1,80 L148,55 L26,55 L12,79.9 C12.4,81.2 12.8,82.5 13.1,83.8 C16.2,95.2 23.5,126 23.7,164.7 C23.5,203.5 16.2,234.2 13.1,245.6 C12.7,246.9 12.3,248.3 11.9,249.6 L26,274.6 Z" id="Shape" fill="#3A3033"></path>
            <path d="M165.6,216.5 L8.4,216.5 L9.3,210.2 C11.5,195.1 12.7,179.8 12.8,164.7 C12.7,148.2 11.3,131.5 8.6,115.2 L7.6,108.9 L166.3,108.9 L165.3,115.2 C162.6,131.5 161.2,148.2 161.1,164.8 C161.2,179.8 162.4,195.1 164.6,210.2 L165.6,216.5 Z M21,205.6 L153,205.6 C151.2,192 150.3,178.3 150.2,164.8 C150.3,149.7 151.4,134.7 153.5,119.8 L20.4,119.8 C22.5,134.6 23.6,149.7 23.7,164.7 C23.7,178.3 22.8,192 21,205.6 Z" id="Shape" fill="#3A3033"></path>
            <path d="M156.5,55 L17.5,55 L17.5,26.9 L156.5,26.9 L156.5,55 Z M28.4,44 L145.6,44 L145.6,37.8 L28.4,37.8 L28.4,44 Z" id="Shape" fill="#3A3033"></path>
            <path d="M159.8,37.8 L14.2,37.8 C10.7,37.8 7.6,36.2 5.5,33.4 C3.5,30.6 2.9,27.1 3.9,23.8 L7.6,12 C9.8,5.1 16,0.5 23.2,0.5 L150.6,0.5 C157.8,0.5 164.1,5.1 166.2,12 L169.9,23.8 C170.9,27.1 170.4,30.6 168.3,33.4 C166.4,36.2 163.3,37.8 159.8,37.8 Z M159.8,26.8 L159.8,32.3 L159.8,26.8 Z M14.5,26.8 L159.6,26.8 L155.9,15.2 C155.2,12.9 153.1,11.4 150.7,11.4 L23.3,11.4 C20.9,11.4 18.8,12.9 18.1,15.2 L14.5,26.8 Z" id="Shape" fill="#3A3033"></path>
            <path d="M165.6,216.5 L8.4,216.5 L9.3,210.2 C11.5,195.1 12.7,179.8 12.8,164.7 C12.7,148.2 11.3,131.5 8.6,115.2 L7.6,108.9 L166.3,108.9 L165.3,115.2 C162.6,131.5 161.2,148.2 161.1,164.8 C161.2,179.8 162.4,195.1 164.6,210.2 L165.6,216.5 Z M21,205.6 L153,205.6 C151.2,192 150.3,178.3 150.2,164.8 C150.3,149.7 151.4,134.7 153.5,119.8 L20.4,119.8 C22.5,134.6 23.6,149.7 23.7,164.7 C23.7,178.3 22.8,192 21,205.6 Z" id="Shape" fill="#3A3033"></path>
            <g id="Group" transform="translate(50.000000, 135.000000)" fill="#3A3033">
                <path d="M36.7,54.8 C16.8,54.8 1,43.1 0.7,28.3 C0.6,20.7 4.5,13.6 11.8,8.4 C18.5,3.6 27.3,0.9 36.6,0.7 L37.3,0.7 C57.2,0.7 73,12.4 73.3,27.2 C73.4,34.8 69.5,41.9 62.2,47.1 C55.5,51.9 46.7,54.6 37.4,54.8 L36.7,54.8 Z M37.3,11.6 L36.7,11.6 C29.6,11.7 23,13.7 18.1,17.2 C13.8,20.3 11.5,24.2 11.6,28.1 C11.7,36.6 23.2,43.9 36.6,43.9 L37.2,43.9 C44.3,43.8 50.9,41.8 55.8,38.3 C60.1,35.2 62.4,31.3 62.3,27.4 C62.2,18.8 50.8,11.6 37.3,11.6 Z" id="Shape"></path>
                <path d="M21,40.8 C20.4,40.8 19.9,40.8 19.3,40.7 C8.5,39.8 2,30.4 1.7,30 L10.7,23.8 C10.7,23.8 14.7,29.4 20.3,29.8 C23.9,30.1 27.9,28.1 32,23.9 C38.4,17.3 45.3,14.1 52.6,14.3 C64,14.6 71.7,23.3 72,23.6 L63.8,30.8 C63.8,30.7 58.8,25.3 52.3,25.2 C48.1,25.1 44,27.2 39.9,31.5 C33.8,37.7 27.5,40.8 21,40.8 Z" id="Shape"></path>
            </g>
        </g>
    </g>
</svg>