<?xml version="1.0" encoding="utf-8"?>
<!-- Generator: Adobe Illustrator 18.0.0, SVG Export Plug-In . SVG Version: 6.00 Build 0)  -->
<!DOCTYPE svg PUBLIC "-//W3C//DTD SVG 1.1//EN" "http://www.w3.org/Graphics/SVG/1.1/DTD/svg11.dtd">
<svg version="1.1" id="Layer_1" xmlns="http://www.w3.org/2000/svg" xmlns:xlink="http://www.w3.org/1999/xlink" x="0px" y="0px"
	 width="512px" height="512px" viewBox="0 0 512 512" enable-background="new 0 0 512 512" xml:space="preserve">
<g>
	<g>
		<rect x="191.9" y="145.3" fill="#FFFFFF" width="128.1" height="17.2"/>
	</g>
	<g>
		<path fill="#CD9E5D" d="M333.8,138.5l-3.7-11.8c-1.4-4.6-5.6-7.6-10.4-7.6h-57.1h-13.3h-57.1c-4.8,0-9,3.1-10.4,7.6l-3.7,11.8
			c-1.1,3.4,1.5,6.8,5,6.8h66.2h13.3h66.2C332.4,145.3,334.9,141.9,333.8,138.5z"/>
	</g>
	<g>
		<path fill="#9D705C" d="M324.7,277.8c0.2-37.6,7.1-67.2,10.4-79.5c0.6-2,1.2-4,1.8-6.1l-16.7-29.7h-46.5h-35.4h-46.5l-16.7,29.7
			c0.6,2,1.2,4.1,1.8,6.1c3.3,12.2,10.2,41.8,10.4,79.5c-0.2,37.6-7.1,67.2-10.4,79.4c-0.6,2-1.2,4-1.8,6.1l16.7,29.7h46.5h35.4
			h46.5l16.7-29.7c-0.6-2-1.2-4.1-1.8-6.1C331.8,345,324.9,315.4,324.7,277.8z"/>
	</g>
	<g>
		<path fill="#FFFFFF" d="M324.7,277.8c0.1,17.5,1.6,33.2,3.6,46.3H183.7c2-13.1,3.5-28.8,3.6-46.3c-0.1-19.4-2-36.6-4.2-50.4h145.8
			C326.7,241.2,324.8,258.4,324.7,277.8z"/>
	</g>
	<g>
		<path fill="#3A3033" d="M323.4,398.5H188.6l-19.4-34.6l0.7-2.2c0.6-2,1.2-4,1.8-6c3-10.9,10-40.5,10.2-78
			c-0.2-37.4-7.2-67-10.2-78c-0.5-1.9-1.1-3.9-1.7-5.9l-0.7-2.2l19.4-34.6h134.8l19.4,34.6l-0.7,2.2c-0.6,2-1.2,4-1.8,6
			c-3,10.9-10,40.5-10.2,78c0.2,37.4,7.2,67,10.2,78c0.5,1.9,1.1,3.9,1.7,5.9l0.7,2.2L323.4,398.5z M195,387.6h122l14-24.9
			c-0.4-1.3-0.8-2.6-1.1-3.9c-3.1-11.4-10.4-42.1-10.6-80.9c0.2-38.8,7.5-69.5,10.6-80.9c0.4-1.3,0.8-2.7,1.2-4L317,168H195
			l-14,24.9c0.4,1.3,0.8,2.6,1.1,3.9c3.1,11.4,10.4,42.2,10.6,80.9c-0.2,38.8-7.5,69.5-10.6,80.9c-0.4,1.3-0.8,2.7-1.2,4L195,387.6z
			"/>
	</g>
	<g>
		<path fill="#3A3033" d="M334.6,329.5H177.4l0.9-6.3c2.2-15.1,3.4-30.4,3.5-45.5c-0.1-16.5-1.5-33.2-4.2-49.5l-1-6.3h158.7l-1,6.3
			c-2.7,16.3-4.1,33-4.2,49.6c0.1,15,1.3,30.3,3.5,45.4L334.6,329.5z M190,318.6h132c-1.8-13.6-2.7-27.3-2.8-40.8
			c0.1-15.1,1.2-30.1,3.3-45H189.4c2.1,14.8,3.2,29.9,3.3,44.9C192.7,291.3,191.8,305,190,318.6z"/>
	</g>
	<g>
		<path fill="#3A3033" d="M325.5,168h-139v-28.1h139V168z M197.4,157h117.2v-6.2H197.4V157z"/>
	</g>
	<g>
		<path fill="#3A3033" d="M328.8,150.8H183.2c-3.5,0-6.6-1.6-8.7-4.4c-2-2.8-2.6-6.3-1.6-9.6l3.7-11.8c2.2-6.9,8.4-11.5,15.6-11.5
			h127.4c7.2,0,13.5,4.6,15.6,11.5l3.7,11.8c1,3.3,0.5,6.8-1.6,9.6C335.4,149.2,332.3,150.8,328.8,150.8z M328.8,139.8v5.5V139.8
			L328.8,139.8L328.8,139.8z M183.5,139.8h145.1l-3.7-11.6c-0.7-2.3-2.8-3.8-5.2-3.8H192.3c-2.4,0-4.5,1.5-5.2,3.8L183.5,139.8z"/>
	</g>
	<g>
		<path fill="#3A3033" d="M334.6,329.5H177.4l0.9-6.3c2.2-15.1,3.4-30.4,3.5-45.5c-0.1-16.5-1.5-33.2-4.2-49.5l-1-6.3h158.7l-1,6.3
			c-2.7,16.3-4.1,33-4.2,49.6c0.1,15,1.3,30.3,3.5,45.4L334.6,329.5z M190,318.6h132c-1.8-13.6-2.7-27.3-2.8-40.8
			c0.1-15.1,1.2-30.1,3.3-45H189.4c2.1,14.8,3.2,29.9,3.3,44.9C192.7,291.3,191.8,305,190,318.6z"/>
	</g>
	<g>
		<g>
			<path fill="#3A3033" d="M255.7,302.8c-19.9,0-35.7-11.7-36-26.5c-0.1-7.6,3.8-14.7,11.1-19.9c6.7-4.8,15.5-7.5,24.8-7.7l0.7,0
				c19.9,0,35.7,11.7,36,26.5c0.1,7.6-3.8,14.7-11.1,19.9c-6.7,4.8-15.5,7.5-24.8,7.7L255.7,302.8z M256.3,259.6l-0.6,0
				c-7.1,0.1-13.7,2.1-18.6,5.6c-4.3,3.1-6.6,7-6.5,10.9c0.1,8.5,11.6,15.8,25,15.8l0.6,0c7.1-0.1,13.7-2.1,18.6-5.6
				c4.3-3.1,6.6-7,6.5-10.9C281.2,266.8,269.8,259.6,256.3,259.6z"/>
		</g>
		<g>
			<path fill="#3A3033" d="M240,288.8c-0.6,0-1.1,0-1.7-0.1c-10.8-0.9-17.3-10.3-17.6-10.7l9-6.2c0,0,4,5.6,9.6,6
				c3.6,0.3,7.6-1.7,11.7-5.9c6.4-6.6,13.3-9.8,20.6-9.6c11.4,0.3,19.1,9,19.4,9.3l-8.2,7.2c0-0.1-5-5.5-11.5-5.6
				c-4.2-0.1-8.3,2-12.4,6.3C252.8,285.7,246.5,288.8,240,288.8z"/>
		</g>
	</g>
</g>
</svg>
