<?xml version="1.0" encoding="UTF-8"?>
<svg width="372px" height="238px" viewBox="0 0 372 238" version="1.1" xmlns="http://www.w3.org/2000/svg" xmlns:xlink="http://www.w3.org/1999/xlink">
    <!-- Generator: Sketch 49.3 (51167) - http://www.bohemiancoding.com/sketch -->
    <title>kalita-wave</title>
    <desc>Created with Sketch.</desc>
    <defs></defs>
    <g id="Page-1" stroke="none" stroke-width="1" fill="none" fill-rule="evenodd">
        <g id="kalita-wave" fill-rule="nonzero">
            <path d="M301.5,5.6 L5.8,5.6 C5.8,21.5 13.1,34.7 24.4,41.4 C31.6,45.7 36.1,54.1 35.2,63.2 C35,65.6 34.9,68 34.9,70.3 C34.9,86.5 42.5,99.9 54.1,106.5 C61.5,110.7 66,119.4 65.2,128.7 C65.2,128.9 65.2,129.1 65.2,129.3 C63.5,152.4 77.3,173.9 97.7,176.6 C104.1,177.4 116.8,176.9 116.8,176.9 L190.8,176.9 C190.8,176.9 203.4,176.9 209.6,176.9 C230,176.9 246.6,158.2 246.6,135.1 C246.6,133 246.4,130.8 246,128.6 C244.4,119.4 248.6,110 255.9,105.6 C267.3,98.7 275.2,85.8 275.2,70.3 C275.2,68 275,65.6 274.5,63.3 C272.8,54 276.6,44.7 283.8,39.9 C295.7,32 303.5,22.7 301.5,5.6 Z" id="Shape" fill="#FFFFFF"></path>
            <polygon id="Shape" fill="#CDCCCC" points="175.1 210.1 134.6 210.1 60.4 210.1 77.3 232.4 134.6 232.4 175.1 232.4 232.4 232.4 249.2 210.1"></polygon>
            <path d="M239.9,176.9 L154.9,176.9 L69.9,176.9 C49.2,176.9 29.6,193.7 16.9,210 L154.9,210 L292.9,210 C280.1,193.8 260.6,176.9 239.9,176.9 Z" id="Shape" fill="#CDCCCC"></path>
            <path d="M360.6,50.5 C342,76 305.7,106.6 252,108.9 C259.3,104.5 269.2,94.4 272.4,85.9 C287.3,82.8 321.5,72.4 343.6,40.8 C347.6,35.1 343.9,26.6 337.4,26.6 L297.5,26.6 C300.8,21 302.4,14.3 301.4,5.5 L341.7,5.5 C362.3,5.6 373.7,32.6 360.6,50.5 Z" id="Shape" fill="#CDCCCC"></path>
            <path d="M304.1,215.5 L5.6,215.5 L12.5,206.7 C20.8,196.1 43,171.5 69.8,171.5 L239.8,171.5 C266.7,171.5 288.8,196.1 297.1,206.7 L304.1,215.5 Z M28.8,204.6 L281,204.6 C271.4,194.6 256.4,182.4 239.9,182.4 L69.9,182.4 C53.3,182.4 38.3,194.6 28.8,204.6 Z" id="Shape" fill="#3A3033"></path>
            <g id="Group" fill="#3A3033">
                <path d="M107.9,182.6 C103.2,182.6 99.5,182.4 96.9,182.1 C74.1,179.1 57.7,155.8 59.7,129 L59.7,128.4 C60.3,121.3 57,114.6 51.3,111.4 C37.5,103.6 29.3,88.2 29.3,70.4 C29.3,67.8 29.4,65.2 29.6,62.8 C30.2,56.1 27,49.5 21.4,46.2 C8.1,38.2 0.2,23.1 0.2,5.7 L0.2,0.2 L306.2,0.2 L306.8,5.1 C309.2,26.6 297.4,37.5 286.9,44.6 C281.4,48.3 278.6,55.5 279.9,62.5 C280.4,65.2 280.7,67.9 280.7,70.5 C280.7,87.2 272.5,102.2 258.7,110.5 C253.2,113.8 250.2,121 251.4,127.9 C251.8,130.4 252.1,132.9 252.1,135.3 C252.1,161.4 233,182.6 209.6,182.6 L116.9,182.6 C116.2,182.4 112.3,182.6 107.9,182.6 Z M11.6,11 C13,22.2 18.6,31.5 27.2,36.7 C36.4,42.2 41.7,52.8 40.6,63.7 C40.4,65.8 40.3,68 40.3,70.3 C40.3,84.1 46.5,95.9 56.8,101.8 C66.1,107.1 71.6,117.9 70.6,129.2 L70.6,129.7 C69.1,150.3 81.5,168.9 98.4,171.1 C100.5,171.4 103.8,171.5 107.9,171.5 C112.5,171.5 116.5,171.3 116.6,171.3 L116.8,171.3 L209.6,171.3 C227,171.3 241.1,155 241.1,135 C241.1,133.3 240.9,131.4 240.6,129.5 C238.6,118.1 243.7,106.6 253.1,100.9 C263.6,94.6 269.8,83.1 269.8,70.3 C269.8,68.4 269.6,66.4 269.2,64.3 C267.1,52.9 271.7,41.5 280.9,35.3 C290,29.2 296.2,22.5 296.3,11 L11.6,11 Z" id="Shape"></path>
                <rect id="Rectangle-path" x="33.3" y="46.1" width="196.6" height="10.9"></rect>
                <rect id="Rectangle-path" x="64.1" y="113.7" width="130.1" height="10.9"></rect>
            </g>
            <g id="Group" transform="translate(33.000000, 46.000000)" fill="#3A3033">
                <rect id="Rectangle-path" x="0.3" y="0.1" width="196.6" height="10.9"></rect>
                <rect id="Rectangle-path" x="31.1" y="67.7" width="130.1" height="10.9"></rect>
            </g>
            <g id="Group" transform="translate(33.000000, 46.000000)" fill="#3A3033">
                <rect id="Rectangle-path" x="0.3" y="0.1" width="196.6" height="10.9"></rect>
                <rect id="Rectangle-path" x="31.1" y="67.7" width="130.1" height="10.9"></rect>
            </g>
            <path d="M235.1,237.9 L74.5,237.9 L49.4,204.6 L260.1,204.6 L235.1,237.9 Z M80,227 L229.7,227 L238.3,215.6 L71.4,215.6 L80,227 Z" id="Shape" fill="#3A3033"></path>
            <path d="M252.2,114.3 L249.1,104.2 C255.5,100.4 264.5,91.1 267.3,83.9 L271.4,81.1 L271.3,80.5 C284.7,77.7 318,67.9 339.2,37.6 C340.2,36.2 339.9,34.5 339.4,33.4 C339.1,32.9 338.5,32 337.5,32 L297.6,32 L292.9,23.7 C295.9,18.8 296.9,13.2 296,6.1 L301.4,0 L341.7,0 C352.6,0 362.3,6.3 367.7,16.8 C373.7,28.6 372.7,43.1 365,53.6 C352.4,71 316.1,111.7 252.2,114.3 Z M276.3,90.6 C274.4,94.3 271.7,98.2 268.6,101.7 C317.4,93.7 345.7,61.7 356.3,47.3 C361.6,40.1 362.3,30.1 358.1,21.9 C354.6,15 348.7,11.1 341.9,11.1 L307.4,11.1 C307.4,14.7 306.9,18 306,21.2 L337.6,21.2 C342.5,21.2 346.8,23.9 349.2,28.5 C351.8,33.5 351.4,39.4 348.3,44 C326,75.5 292.3,86.9 276.3,90.6 Z" id="Shape" fill="#3A3033"></path>
        </g>
    </g>
</svg>