<?xml version="1.0" encoding="UTF-8"?>
<svg width="418px" height="244px" viewBox="0 0 418 244" version="1.1" xmlns="http://www.w3.org/2000/svg" xmlns:xlink="http://www.w3.org/1999/xlink">
    <!-- Generator: Sketch 51 (57462) - http://www.bohemiancoding.com/sketch -->
    <title>kettle</title>
    <desc>Created with Sketch.</desc>
    <defs></defs>
    <g id="Page-1" stroke="none" stroke-width="1" fill="none" fill-rule="evenodd">
        <g id="kettle" fill-rule="nonzero">
            <path d="M343.8,99.9 L304.5,99.9 C304.5,99.9 296.5,87.4 291.1,81.9 L285.4,81.9 C285.4,81.9 290.5,81.6 292.7,77.1 L332.7,77.1 L343.8,99.9 Z" id="Shape" fill="#FFFFFF"></path>
            <polygon id="Shape" fill="#FFFFFF" points="87.5 156.2 87.5 212.6 36.6 160.2 63.7 131.8"></polygon>
            <path d="M117.6,81.9 C98.9,102.6 87.5,130.1 87.5,160.2 L87.5,238.1 L321.3,238.1 L321.3,160.2 C321.3,130.1 309.9,102.6 291.2,81.9 L117.6,81.9 Z" id="Shape" fill="#FFFFFF"></path>
            <path d="M70.9,124.4 L29.7,167.5 L14.9,152.5 C3.4,140.9 3.5,122.2 15,110.6 C26.6,99 45.4,99 57,110.6 L70.9,124.4 Z" id="Shape" fill="#9D705C"></path>
            <path d="M204.4,37.7 C171.9,37.7 142,47.9 118.4,66.2 C111.8,71.3 115.5,81.9 123.8,81.9 L284.9,81.9 C293.2,81.9 296.9,71.3 290.3,66.2 C266.7,47.9 236.9,37.7 204.4,37.7 Z" id="Shape" fill="#9D705C"></path>
            <path d="M226.5,28 C226.5,32 225.4,35.7 223.6,38.9 C217.3,38.1 210.9,37.7 204.4,37.7 C197.9,37.7 191.5,38.1 185.2,38.9 C183.4,35.7 182.3,32 182.3,28 C182.3,15.8 192.2,5.9 204.4,5.9 C216.6,5.9 226.5,15.8 226.5,28 Z" id="Shape" fill="#9D705C"></path>
            <path d="M348.9,110.4 L332.8,77 C357.6,77 380.2,91.4 390.7,113.9 C396.3,125.9 402.9,140.6 410.3,157.6 C414.7,167.8 408.4,179.3 397.5,181.2 L396.2,181.4 C388.1,182.8 380.2,178.5 376.9,171 C361.3,136.8 348.9,110.4 348.9,110.4 Z" id="Shape" fill="#9D705C"></path>
            <path d="M93,226.1 L29,160.3 L63.7,124 L93,154 L93,226.1 Z M44.2,160.2 L82,199.1 L82,158.4 L63.7,139.7 L44.2,160.2 Z" id="Shape" fill="#3A3033"></path>
            <path d="M29.7,175.3 L11,156.3 C-2.6,142.6 -2.5,120.3 11.2,106.7 C17.8,100.1 26.7,96.4 36.1,96.4 C45.5,96.4 54.3,100.1 61,106.7 L78.6,124.3 L29.7,175.3 Z M36,107.3 C29.5,107.3 23.4,109.8 18.8,114.4 C9.4,123.8 9.4,139.1 18.7,148.6 L29.5,159.6 L63.1,124.5 L53.1,114.5 C48.6,109.9 42.5,107.3 36,107.3 Z" id="Shape" fill="#3A3033"></path>
            <rect id="Rectangle-path" fill="#3A3033" transform="translate(30.538845, 126.357265) rotate(43.707529) translate(-30.538845, -126.357265) " x="25.0886668" y="97.6063247" width="10.9003565" height="57.5018805"></rect>
            <path d="M326.7,243.6 L82,243.6 L82,160.2 C82,129.9 93.2,100.8 113.5,78.2 L115.1,76.4 L293.5,76.4 L295.1,78.2 C315.4,100.7 326.6,129.8 326.6,160.2 L326.6,243.6 L326.7,243.6 Z M93,232.6 L315.8,232.6 L315.8,160.1 C315.8,133.3 306.2,107.5 288.7,87.3 L120.1,87.3 C102.6,107.5 93,133.3 93,160.1 L93,232.6 Z" id="Shape" fill="#3A3033"></path>
            <path d="M284.9,87.4 L123.8,87.4 C117.6,87.4 112.3,83.6 110.3,77.7 C108.3,71.9 110.2,65.6 115,61.9 C140,42.5 170.9,32.3 204.3,32.3 C237.7,32.3 268.6,42.5 293.6,61.9 C298.5,65.7 300.3,71.9 298.3,77.7 C296.4,83.6 291.1,87.4 284.9,87.4 Z M204.4,43.2 C173.4,43.2 144.8,52.7 121.8,70.5 C120.1,71.8 120.5,73.5 120.7,74.1 C120.9,74.8 121.7,76.4 123.9,76.4 L285,76.4 C287.2,76.4 287.9,74.8 288.2,74.1 C288.4,73.4 288.8,71.7 287.1,70.5 C263.9,52.6 235.4,43.2 204.4,43.2 Z" id="Shape" fill="#3A3033"></path>
            <path d="M226.5,44.8 L222.9,44.3 C211,42.7 197.8,42.7 185.9,44.3 L182.3,44.8 L180.5,41.6 C178.1,37.5 176.9,32.7 176.9,28 C176.9,12.8 189.3,0.4 204.5,0.4 C219.7,0.4 232.1,12.8 232.1,28 C232.1,32.8 230.8,37.5 228.5,41.6 L226.5,44.8 Z M204.4,11.4 C195.2,11.4 187.8,18.9 187.8,28 C187.8,29.7 188.1,31.4 188.6,33 C198.9,31.9 210,31.9 220.3,33 C220.8,31.4 221.1,29.7 221.1,28 C221,18.8 213.5,11.4 204.4,11.4 Z" id="Shape" fill="#3A3033"></path>
            <path d="M393.1,187.2 C383.9,187.2 375.5,181.8 371.8,173.4 C356.6,139.5 344.2,113 344,112.7 L324.1,71.6 L332.8,71.6 C359.7,71.6 384.3,87.3 395.7,111.7 C402.2,125.7 408.8,140.5 415.3,155.6 C418.1,162 417.7,169.2 414.4,175.3 C411.1,181.4 405.2,185.6 398.4,186.8 L397.1,187 C395.7,187.1 394.4,187.2 393.1,187.2 Z M341.8,83.2 L353.8,108 C354,108.3 366.4,134.9 381.7,168.9 C383.7,173.4 388.2,176.3 393.1,176.3 C393.8,176.3 394.5,176.2 395.2,176.1 L396.5,175.9 C400,175.3 403.1,173.2 404.8,170 C406.5,166.9 406.7,163.2 405.3,159.9 C398.8,144.9 392.3,130.2 385.8,116.3 C377.5,98.5 360.8,86.2 341.8,83.2 Z" id="Shape" fill="#3A3033"></path>
            <path d="M352.5,105.3 L301.5,105.3 L299.9,102.8 C298,99.8 292.8,92 288.7,87.3 L285.4,87.3 L285.1,76.4 C285.1,76.4 287.1,76.2 287.9,74.6 L289.4,71.6 L336.2,71.6 L352.5,105.3 Z M307.5,94.4 L335.1,94.4 L329.3,82.5 L298.9,82.5 C302.2,86.6 305.5,91.5 307.5,94.4 Z" id="Shape" fill="#3A3033"></path>
        </g>
    </g>
</svg>