<?xml version="1.0" encoding="utf-8"?>
<!-- Generator: Adobe Illustrator 18.0.0, SVG Export Plug-In . SVG Version: 6.00 Build 0)  -->
<!DOCTYPE svg PUBLIC "-//W3C//DTD SVG 1.1//EN" "http://www.w3.org/Graphics/SVG/1.1/DTD/svg11.dtd">
<svg version="1.1" id="Layer_1" xmlns="http://www.w3.org/2000/svg" xmlns:xlink="http://www.w3.org/1999/xlink" x="0px" y="0px"
	 width="512px" height="512px" viewBox="0 0 512 512" enable-background="new 0 0 512 512" xml:space="preserve">
<g>
	<g>
		<g>
			<path fill="#FFFFFF" d="M390.8,233.9h-39.3c0,0-8-12.5-13.4-18l-5.7,0c0,0,5.1-0.3,7.3-4.8h40L390.8,233.9z"/>
		</g>
	</g>
	<g>
		<polygon fill="#FFFFFF" points="134.5,290.2 134.5,346.6 83.6,294.2 110.7,265.8 		"/>
	</g>
	<g>
		<path fill="#FFFFFF" d="M164.6,215.9c-18.7,20.7-30.1,48.2-30.1,78.3v77.9h233.8v-77.9c0-30.1-11.4-57.6-30.1-78.3H164.6z"/>
	</g>
	<g>
		<path fill="#9D705C" d="M117.9,258.4l-41.2,43.1l-14.8-15c-11.5-11.6-11.4-30.3,0.1-41.9l0,0c11.6-11.6,30.4-11.6,42,0
			L117.9,258.4z"/>
	</g>
	<g>
		<path fill="#9D705C" d="M251.4,171.7L251.4,171.7c-32.5,0-62.4,10.2-86,28.5c-6.6,5.1-2.9,15.7,5.4,15.7h161.1
			c8.3,0,12-10.6,5.4-15.7C313.7,181.9,283.9,171.7,251.4,171.7z"/>
	</g>
	<g>
		<path fill="#9D705C" d="M273.5,162c0,4-1.1,7.7-2.9,10.9c-6.3-0.8-12.7-1.2-19.2-1.2c-6.5,0-12.9,0.4-19.2,1.2
			c-1.8-3.2-2.9-6.9-2.9-10.9c0-12.2,9.9-22.1,22.1-22.1C263.6,139.9,273.5,149.8,273.5,162z"/>
	</g>
	<g>
		<path fill="#9D705C" d="M395.9,244.4L379.8,211l0,0c24.8,0,47.4,14.4,57.9,36.9c5.6,12,12.2,26.7,19.6,43.7
			c4.4,10.2-1.9,21.7-12.8,23.6l-1.3,0.2c-8.1,1.4-16-2.9-19.3-10.4C408.3,270.8,395.9,244.4,395.9,244.4z"/>
	</g>
	<g>
		<path fill="#3A3033" d="M140,360.1l-64-65.8l34.7-36.3l29.3,30V360.1z M91.2,294.2l37.8,38.9v-40.7l-18.3-18.7L91.2,294.2z"/>
	</g>
	<g>
		<path fill="#3A3033" d="M76.7,309.3l-18.7-19c-13.6-13.7-13.5-36,0.2-49.6c6.6-6.6,15.5-10.3,24.9-10.3s18.2,3.7,24.9,10.3
			l17.6,17.6L76.7,309.3z M83,241.3c-6.5,0-12.6,2.5-17.2,7.1c-9.4,9.4-9.4,24.7-0.1,34.2l10.8,11l33.6-35.1l-10-10
			C95.6,243.9,89.5,241.3,83,241.3z"/>
	</g>
	<g>
		
			<rect x="72.1" y="231.6" transform="matrix(0.7229 0.691 -0.691 0.7229 201.3798 18.5632)" fill="#3A3033" width="10.9" height="57.5"/>
	</g>
	<g>
		<path fill="#3A3033" d="M373.7,377.6H129v-83.4c0-30.3,11.2-59.4,31.5-82l1.6-1.8h178.4l1.6,1.8c20.3,22.5,31.5,51.6,31.5,82
			V377.6z M140,366.6h222.8v-72.5c0-26.8-9.6-52.6-27.1-72.8H167.1c-17.5,20.2-27.1,46-27.1,72.8V366.6z"/>
	</g>
	<g>
		<path fill="#3A3033" d="M331.9,221.4H170.8c-6.2,0-11.5-3.8-13.5-9.7c-2-5.8-0.1-12.1,4.7-15.8c25-19.4,55.9-29.6,89.3-29.6
			c33.4,0,64.3,10.2,89.3,29.6c4.9,3.8,6.7,10,4.7,15.8C343.4,217.6,338.1,221.4,331.9,221.4z M251.4,177.2
			c-31,0-59.6,9.5-82.6,27.3c-1.7,1.3-1.3,3-1.1,3.6c0.2,0.7,1,2.3,3.2,2.3h161.1c2.2,0,2.9-1.6,3.2-2.3c0.2-0.7,0.6-2.4-1.1-3.6
			C310.9,186.6,282.4,177.2,251.4,177.2z"/>
	</g>
	<g>
		<path fill="#3A3033" d="M273.5,178.8l-3.6-0.5c-11.9-1.6-25.1-1.6-37,0l-3.6,0.5l-1.8-3.2c-2.4-4.1-3.6-8.9-3.6-13.6
			c0-15.2,12.4-27.6,27.6-27.6c15.2,0,27.6,12.4,27.6,27.6c0,4.8-1.3,9.5-3.6,13.6L273.5,178.8z M251.4,145.4
			c-9.2,0-16.6,7.5-16.6,16.6c0,1.7,0.3,3.4,0.8,5c10.3-1.1,21.4-1.1,31.7,0c0.5-1.6,0.8-3.3,0.8-5
			C268,152.8,260.5,145.4,251.4,145.4z"/>
	</g>
	<g>
		<path fill="#3A3033" d="M440.1,321.2c-9.2,0-17.6-5.4-21.3-13.8c-15.2-33.9-27.6-60.4-27.8-60.7l-19.9-41.1h8.7
			c26.9,0,51.5,15.7,62.9,40.1c6.5,14,13.1,28.8,19.6,43.9c2.8,6.4,2.4,13.6-0.9,19.7c-3.3,6.1-9.2,10.3-16,11.5l-1.3,0.2
			C442.7,321.1,441.4,321.2,440.1,321.2z M388.8,217.2l12,24.8c0.2,0.3,12.6,26.9,27.9,60.9c2,4.5,6.5,7.4,11.4,7.4
			c0.7,0,1.4-0.1,2.1-0.2l1.3-0.2c3.5-0.6,6.6-2.7,8.3-5.9c1.7-3.1,1.9-6.8,0.5-10.1c-6.5-15-13-29.7-19.5-43.6
			C424.5,232.5,407.8,220.2,388.8,217.2z"/>
	</g>
	<g>
		<g>
			<path fill="#3A3033" d="M399.5,239.3h-51l-1.6-2.5c-1.9-3-7.1-10.8-11.2-15.5l-3.3,0l-0.3-10.9c0,0,2-0.2,2.8-1.8l1.5-3h46.8
				L399.5,239.3z M354.5,228.4h27.6l-5.8-11.9h-30.4C349.2,220.6,352.5,225.5,354.5,228.4z"/>
		</g>
	</g>
</g>
</svg>
