<?xml version="1.0" encoding="utf-8"?>
<!-- Generator: Adobe Illustrator 18.0.0, SVG Export Plug-In . SVG Version: 6.00 Build 0)  -->
<!DOCTYPE svg PUBLIC "-//W3C//DTD SVG 1.1//EN" "http://www.w3.org/Graphics/SVG/1.1/DTD/svg11.dtd">
<svg version="1.1" id="Layer_1" xmlns="http://www.w3.org/2000/svg" xmlns:xlink="http://www.w3.org/1999/xlink" x="0px" y="0px"
	 width="512px" height="512px" viewBox="0 0 512 512" enable-background="new 0 0 512 512" xml:space="preserve">
<g>
	<g>
		<circle fill="#FFFFFF" cx="245.8" cy="256" r="170.1"/>
	</g>
	<g>
		<path fill="#FFFFFF" d="M244.7,122.8c-72.5,0-131.4,58.8-131.4,131.4c0,72.5,58.8,131.4,131.4,131.4s131.4-58.8,131.4-131.4
			C376.1,181.6,317.3,122.8,244.7,122.8z M244.7,361.9c-59.5,0-107.7-48.2-107.7-107.7c0-59.5,48.2-107.7,107.7-107.7
			s107.7,48.2,107.7,107.7C352.4,313.7,304.2,361.9,244.7,361.9z"/>
	</g>
	<g>
		<circle fill="#FFFFFF" cx="245.8" cy="256" r="170.1"/>
	</g>
	<g>
		<path fill="#FFFFFF" d="M436.3,254.2c0,8.7-7,15.7-15.7,15.7h-45.5c0.6-5.1,0.9-10.4,0.9-15.7c0-5.3-0.3-10.5-0.9-15.7h45.5
			C429.3,238.5,436.3,245.5,436.3,254.2z"/>
	</g>
	<g>
		<path fill="#FFFFFF" d="M436.3,254.2c0,8.7-7,15.7-15.7,15.7h-45.5c0.6-5.1,0.9-10.4,0.9-15.7c0-5.3-0.3-10.5-0.9-15.7h45.5
			C429.3,238.5,436.3,245.5,436.3,254.2z"/>
	</g>
	<g>
		<circle fill="#9D705C" cx="244.7" cy="254.2" r="107.7"/>
	</g>
	<g>
		<path fill="#3A3033" d="M245.8,431.6C149,431.6,70.2,352.8,70.2,256c0-96.8,78.8-175.6,175.6-175.6c96.8,0,175.6,78.8,175.6,175.6
			C421.4,352.8,342.6,431.6,245.8,431.6z M245.8,91.3C155,91.3,81.1,165.2,81.1,256c0,90.8,73.9,164.7,164.7,164.7
			c90.8,0,164.7-73.9,164.7-164.7C410.4,165.2,336.6,91.3,245.8,91.3z"/>
	</g>
	<g>
		<path fill="#3A3033" d="M244.7,391c-75.4,0-136.8-61.4-136.8-136.8c0-75.4,61.4-136.8,136.8-136.8c75.4,0,136.8,61.4,136.8,136.8
			C381.5,329.6,320.2,391,244.7,391z M244.7,128.3c-69.4,0-125.9,56.5-125.9,125.9c0,69.4,56.5,125.9,125.9,125.9
			c69.4,0,125.9-56.5,125.9-125.9C370.6,184.8,314.1,128.3,244.7,128.3z M244.7,367.4c-62.4,0-113.2-50.8-113.2-113.2
			c0-62.4,50.8-113.2,113.2-113.2c30.2,0,58.7,11.8,80,33.2c21.4,21.4,33.2,49.8,33.2,80C357.9,316.6,307.1,367.4,244.7,367.4z
			 M244.7,151.9c-56.4,0-102.3,45.9-102.3,102.3c0,56.4,45.9,102.3,102.3,102.3S347,310.6,347,254.2c0-27.3-10.6-53-30-72.3
			C297.7,162.6,272,151.9,244.7,151.9z"/>
	</g>
	<g>
		<path fill="#3A3033" d="M245.8,431.6C149,431.6,70.2,352.8,70.2,256c0-96.8,78.8-175.6,175.6-175.6c96.8,0,175.6,78.8,175.6,175.6
			C421.4,352.8,342.6,431.6,245.8,431.6z M245.8,91.3C155,91.3,81.1,165.2,81.1,256c0,90.8,73.9,164.7,164.7,164.7
			c90.8,0,164.7-73.9,164.7-164.7C410.4,165.2,336.6,91.3,245.8,91.3z"/>
	</g>
	<g>
		<g>
			<path fill="#FFFFFF" d="M245.2,238.8l-3.2-2.3c-25.1-18.2-29.2-39.4-25.2-52c2.3-7.1,7.3-11.5,13.1-11.5c5.7,0,11.1,2.8,15.3,7.8
				c4.2-5,9.6-7.8,15.3-7.8c5.8,0,10.8,4.4,13.1,11.5c4.1,12.6,0,33.8-25.2,52L245.2,238.8z M229.9,183.9c-0.3,0-1.7,1-2.7,3.9
				c-2.3,7-0.8,22.3,18,37.3c18.7-15,20.2-30.4,18-37.3c-1-2.9-2.4-3.9-2.7-3.9c-4.9,0-8.2,5.4-9.5,7.7c-1.1,2.2-3.4,3.5-5.8,3.5
				s-4.7-1.3-5.8-3.5C238.1,189.2,234.8,183.9,229.9,183.9z"/>
		</g>
		<g>
			<g>
				<path fill="#FFFFFF" d="M225.7,335.9c-2.3,0-4.7-0.4-7.4-1.1c-5.2-1.4-10.2-3.4-14.9-5.9c-21-11.3-36.4-33.7-39.3-57
					c-0.3-2.8-0.5-5.7-0.5-8.6h10.9c0,2.4,0.1,4.9,0.4,7.3c2.4,19.6,15.9,39.2,33.6,48.7c4,2.1,8.2,3.8,12.6,5
					c4.3,1.2,6.8,0.9,10.4-1c5-2.6,8.2-8.2,8.2-14.1v-69.3h10.9v69.3c0,9.9-5.5,19.2-13.9,23.8C233,334.9,229.5,335.9,225.7,335.9z"
					/>
			</g>
			<g>
				<path fill="#FFFFFF" d="M264.7,335.9c-3.8,0-7.3-1-11-2.9c-8.5-4.5-13.9-13.8-13.9-23.8v-69.3h10.9v69.3
					c0,5.9,3.2,11.5,8.2,14.1c3.6,1.9,6.1,2.1,10.4,1c4.3-1.2,8.6-2.9,12.6-5c17.7-9.5,31.2-29.1,33.6-48.7c0.3-2.4,0.4-4.8,0.4-7.3
					h10.9c0,2.9-0.2,5.8-0.5,8.6c-2.9,23.4-18.3,45.7-39.3,57c-4.7,2.5-9.7,4.5-14.9,5.9C269.4,335.5,267,335.9,264.7,335.9z"/>
			</g>
		</g>
		<g>
			<g>
				<path fill="#FFFFFF" d="M231.2,304.4c-1.8,0-3.7-0.3-5.8-0.9c-3.8-1.1-7.5-2.6-11-4.6c-15.5-8.6-26.8-25.8-28.9-43.6
					c-0.3-2.2-0.4-4.4-0.4-6.6h10.9c0,1.8,0.1,3.6,0.3,5.3c1.7,14.3,11.1,28.5,23.4,35.4c2.7,1.5,5.7,2.7,8.6,3.6
					c2.6,0.7,4,0.6,6.2-0.6c3.1-1.7,5.1-5.5,5.1-9.4v-51.8h10.9v51.8c0,7.9-4.2,15.3-10.7,18.9C237,303.6,234.2,304.4,231.2,304.4z"
					/>
			</g>
			<g>
				<path fill="#FFFFFF" d="M259.2,304.4c-3,0-5.8-0.8-8.7-2.4c-6.5-3.6-10.7-11.1-10.7-18.9v-51.8h10.9v51.8c0,3.9,2.1,7.7,5.1,9.4
					c2.1,1.2,3.5,1.3,6.2,0.6c3-0.8,5.9-2,8.6-3.6c12.3-6.9,21.7-21.1,23.4-35.4c0.2-1.7,0.3-3.5,0.3-5.3h10.9
					c0,2.2-0.1,4.4-0.4,6.6c-2.1,17.9-13.4,35-28.9,43.6c-3.5,2-7.2,3.5-11,4.6C262.9,304.1,261,304.4,259.2,304.4z"/>
			</g>
		</g>
		<g>
			<g>
				<path fill="#FFFFFF" d="M236.4,271.4c-1.3,0-2.7-0.2-4.2-0.6c-2.6-0.7-5-1.7-7.4-3c-10.3-5.7-17.9-16.9-19.3-28.6
					c-0.2-1.4-0.3-2.9-0.3-4.3h10.9c0,1,0.1,2,0.2,3c1,8.2,6.5,16.3,13.7,20.3c1.6,0.9,3.3,1.6,5,2c1.3,0.3,1.6,0.3,2.4-0.2
					c1.3-0.7,2.1-2.3,2.1-4v-32h10.9v32c0,5.6-3.1,11-7.9,13.6C240.7,270.9,238.6,271.4,236.4,271.4z"/>
			</g>
			<g>
				<path fill="#FFFFFF" d="M254,271.4c-2.2,0-4.3-0.6-6.4-1.7c-4.8-2.6-7.9-7.9-7.9-13.6v-32h10.9v32c0,1.6,0.9,3.3,2.1,4
					c0.8,0.5,1.2,0.5,2.4,0.2c1.7-0.5,3.4-1.2,5-2c7.2-4,12.7-12.1,13.7-20.3c0.1-1,0.2-2,0.2-3h10.9c0,1.4-0.1,2.9-0.3,4.3
					c-1.4,11.7-9,22.9-19.3,28.6c-2.3,1.3-4.8,2.3-7.4,3C256.7,271.2,255.3,271.4,254,271.4z"/>
			</g>
		</g>
	</g>
	<g>
		<path fill="#FFFFFF" d="M436.3,254.2c0,8.7-7,15.7-15.7,15.7h-45.5c0.6-5.1,0.9-10.4,0.9-15.7c0-5.3-0.3-10.5-0.9-15.7h45.5
			C429.3,238.5,436.3,245.5,436.3,254.2z"/>
	</g>
	<g>
		<path fill="#3A3033" d="M420.7,275.3H369l0.7-6.1c0.6-4.9,0.9-10,0.9-15c0-5.1-0.3-10.1-0.9-15L369,233h51.7
			c11.7,0,21.1,9.5,21.1,21.1C441.8,265.8,432.3,275.3,420.7,275.3z M381.2,264.4h39.5c5.6,0,10.2-4.6,10.2-10.2
			s-4.6-10.2-10.2-10.2h-39.5c0.3,3.4,0.4,6.8,0.4,10.2C381.5,257.6,381.4,261,381.2,264.4z"/>
	</g>
</g>
</svg>
