<?xml version="1.0" encoding="UTF-8"?>
<svg width="138px" height="342px" viewBox="0 0 138 342" version="1.1" xmlns="http://www.w3.org/2000/svg" xmlns:xlink="http://www.w3.org/1999/xlink">
    <!-- Generator: Sketch 51 (57462) - http://www.bohemiancoding.com/sketch -->
    <title>latte_2</title>
    <desc>Created with Sketch.</desc>
    <defs></defs>
    <g id="Page-1" stroke="none" stroke-width="1" fill="none" fill-rule="evenodd">
        <g id="latte_2" fill-rule="nonzero">
            <path d="M98.5,321 C78.2,321 78.2,295.8 78.2,295.8 L78.2,256.6 L69,256.6 L59.8,256.6 L59.8,295.8 C59.8,295.8 59.8,321 39.5,321 C30.2,321 17.1,324.4 14.4,336.4 L69,336.4 L123.7,336.4 C120.9,324.4 107,321 98.5,321 Z" id="Shape" fill="#FFFFFF"></path>
            <path d="M16.1,82.9 C16.1,82.9 15.9,61 30.8,46.4 C30.8,46.4 39.9,49.8 42.5,61.6 C42.5,61.6 65.9,43.8 51.8,11.1 C51.8,11.1 89.3,28.5 100,51.3 L110.3,43.4 C110.3,43.4 128.1,65.9 119.3,83" id="Shape" fill="#FFFFFF"></path>
            <g id="Group" transform="translate(5.000000, 82.000000)">
                <rect id="Rectangle-path" fill="#FFFFFF" x="0.9" y="0.9" width="126.2" height="31.4"></rect>
                <path d="M3.2,127.1 L124.9,127.1 C126.4,121.8 127.2,116.2 127.2,110.4 L127.2,31.2 L0.9,31.2 L0.9,110.4 C0.9,116.2 1.7,121.8 3.2,127.1 Z" id="Shape" fill="#CD9E5D"></path>
                <path d="M64,173.5 C93.1,173.5 117.5,153.9 124.8,127.1 L3.2,127.1 C10.5,153.9 34.9,173.5 64,173.5 Z" id="Shape" fill="#9D705C"></path>
            </g>
            <path d="M69,262.1 C31.2,262.1 0.4,231.3 0.4,193.5 L0.4,77.4 L137.500243,77.4 L137.5,193.5 C137.6,231.3 106.8,262.1 69,262.1 Z M11.4,88.4 L11.4,193.6 C11.4,225.4 37.3,251.2 69,251.2 C100.8,251.2 126.6,225.3 126.6,193.6 L126.6,88.4 L11.4,88.4 Z" id="Shape" fill="#3A3033"></path>
            <path d="M130.6,341.9 L7.4,341.9 L8.9,335.2 C12.2,320.7 26.8,315.6 39.4,315.6 C45.5,315.6 49.5,312.8 52,306.7 C54.2,301.5 54.2,295.9 54.2,295.9 L54.2,251.2 L83.6,251.2 L83.6,295.9 C83.6,295.9 83.7,301.5 85.8,306.7 C88.3,312.8 92.3,315.6 98.4,315.6 C111.3,315.6 125.7,321.7 128.9,335.2 L130.6,341.9 Z M23.9,331 L113.8,331 C109.3,327.6 102.8,326.5 98.4,326.5 C78,326.5 72.6,306.4 72.6,295.8 L72.6,262.1 L65.1,262.1 L65.1,295.8 C65.1,306.4 59.7,326.5 39.3,326.5 C37.4,326.5 29.2,326.8 23.9,331 Z" id="Shape" fill="#3A3033"></path>
            <path d="M124.3,85.4 L114.6,80.4 C119.3,71.3 113.8,58.7 109.2,51.2 L98,59.7 L95.1,53.6 C88.9,40.4 72.3,28.9 61,22.2 C63.3,34.6 60.6,44.4 57.4,51 C52.8,60.6 46.1,65.8 45.8,66 L39,71.2 L37.2,62.8 C36.2,58.1 33.8,55.1 31.8,53.5 C21.5,66.1 21.6,82.8 21.6,82.9 L10.7,83 C10.7,82 10.7,58.6 27.1,42.5 L29.6,40.1 L32.9,41.3 C33.3,41.4 39.9,44 44.5,51.6 C49.4,44.8 54.9,31.8 46.9,13.2 L41.3,0.1 L54.2,6.1 C55.7,6.8 87.7,21.8 101.7,43.1 L111.3,35.7 L114.6,39.9 C115.5,41 134.5,65.5 124.3,85.4 Z" id="Shape" fill="#3A3033"></path>
        </g>
    </g>
</svg>