<?xml version="1.0" encoding="utf-8"?>
<!-- Generator: Adobe Illustrator 18.0.0, SVG Export Plug-In . SVG Version: 6.00 Build 0)  -->
<!DOCTYPE svg PUBLIC "-//W3C//DTD SVG 1.1//EN" "http://www.w3.org/Graphics/SVG/1.1/DTD/svg11.dtd">
<svg version="1.1" id="Layer_1" xmlns="http://www.w3.org/2000/svg" xmlns:xlink="http://www.w3.org/1999/xlink" x="0px" y="0px"
	 width="512px" height="512px" viewBox="0 0 512 512" enable-background="new 0 0 512 512" xml:space="preserve">
<g>
	<g>
		<path fill="#FFFFFF" d="M285.5,406c-20.3,0-20.3-25.2-20.3-25.2v-39.2H256h-9.2v39.2c0,0,0,25.2-20.3,25.2
			c-9.3,0-22.4,3.4-25.1,15.4H256h54.7C307.9,409.4,294,406,285.5,406z"/>
	</g>
	<g>
		<path fill="#FFFFFF" d="M203.1,167.9c0,0-0.2-21.9,14.7-36.5c0,0,9.1,3.4,11.7,15.2c0,0,23.4-17.8,9.3-50.5
			c0,0,37.5,17.4,48.2,40.2l10.3-7.9c0,0,17.8,22.5,9,39.6"/>
	</g>
	<g>
		<g>
			<rect x="192.9" y="167.9" fill="#FFFFFF" width="126.2" height="31.4"/>
		</g>
		<g>
			<path fill="#CD9E5D" d="M195.2,294.1h121.7c1.5-5.3,2.3-10.9,2.3-16.7v-79.2H192.9v79.2C192.9,283.2,193.7,288.8,195.2,294.1z"/>
		</g>
		<g>
			<path fill="#9D705C" d="M256,340.5c29.1,0,53.5-19.6,60.8-46.4H195.2C202.5,320.9,226.9,340.5,256,340.5z"/>
		</g>
	</g>
	<g>
		<path fill="#3A3033" d="M256,347.1c-37.8,0-68.6-30.8-68.6-68.6V162.4h137.1v116.1C324.6,316.3,293.8,347.1,256,347.1z
			 M198.4,173.4v105.2c0,31.8,25.9,57.6,57.6,57.6c31.8,0,57.6-25.9,57.6-57.6V173.4H198.4z"/>
	</g>
	<g>
		<path fill="#3A3033" d="M317.6,426.9H194.4l1.5-6.7c3.3-14.5,17.9-19.6,30.5-19.6c6.1,0,10.1-2.8,12.6-8.9
			c2.2-5.2,2.2-10.8,2.2-10.8v-44.7h29.4v44.7c0,0,0.1,5.6,2.2,10.8c2.5,6.1,6.5,8.9,12.6,8.9c12.9,0,27.3,6.1,30.5,19.6
			L317.6,426.9z M210.9,416h89.9c-4.5-3.4-11-4.5-15.4-4.5c-20.4,0-25.8-20.1-25.8-30.7v-33.7h-7.5v33.7c0,10.6-5.4,30.7-25.8,30.7
			C224.4,411.5,216.2,411.8,210.9,416z"/>
	</g>
	<g>
		<path fill="#3A3033" d="M311.3,170.4l-9.7-5c4.7-9.1-0.8-21.7-5.4-29.2l-11.2,8.5l-2.9-6.1c-6.2-13.2-22.8-24.7-34.1-31.4
			c2.3,12.4-0.4,22.2-3.6,28.8c-4.6,9.6-11.3,14.8-11.6,15l-6.8,5.2l-1.8-8.4c-1-4.7-3.4-7.7-5.4-9.3
			c-10.3,12.6-10.2,29.3-10.2,29.4l-10.9,0.1c0-1,0-24.4,16.4-40.5l2.5-2.4l3.3,1.2c0.4,0.1,7,2.7,11.6,10.3
			c4.9-6.8,10.4-19.8,2.4-38.4l-5.6-13.1l12.9,6c1.5,0.7,33.5,15.7,47.5,37l9.6-7.4l3.3,4.2C302.5,126,321.5,150.5,311.3,170.4z"/>
	</g>
</g>
</svg>
