<?xml version="1.0" encoding="UTF-8"?>
<svg width="372px" height="352px" viewBox="0 0 372 352" version="1.1" xmlns="http://www.w3.org/2000/svg" xmlns:xlink="http://www.w3.org/1999/xlink">
    <!-- Generator: Sketch 51 (57462) - http://www.bohemiancoding.com/sketch -->
    <title>latte</title>
    <desc>Created with Sketch.</desc>
    <defs></defs>
    <g id="Page-1" stroke="none" stroke-width="1" fill="none" fill-rule="evenodd">
        <g id="latte" fill-rule="nonzero">
            <circle id="Oval" fill="#FFFFFF" cx="175.8" cy="176" r="170.1"></circle>
            <path d="M174.7,42.8 C102.2,42.8 43.3,101.6 43.3,174.2 C43.3,246.7 102.1,305.6 174.7,305.6 C247.3,305.6 306.1,246.8 306.1,174.2 C306.1,101.6 247.3,42.8 174.7,42.8 Z M174.7,281.9 C115.2,281.9 67,233.7 67,174.2 C67,114.7 115.2,66.5 174.7,66.5 C234.2,66.5 282.4,114.7 282.4,174.2 C282.4,233.7 234.2,281.9 174.7,281.9 Z" id="Shape" fill="#FFFFFF"></path>
            <circle id="Oval" fill="#FFFFFF" cx="175.8" cy="176" r="170.1"></circle>
            <path d="M366.3,174.2 C366.3,182.9 359.3,189.9 350.6,189.9 L305.1,189.9 C305.7,184.8 306,179.5 306,174.2 C306,168.9 305.7,163.7 305.1,158.5 L350.6,158.5 C359.3,158.5 366.3,165.5 366.3,174.2 Z" id="Shape" fill="#FFFFFF"></path>
            <path d="M366.3,174.2 C366.3,182.9 359.3,189.9 350.6,189.9 L305.1,189.9 C305.7,184.8 306,179.5 306,174.2 C306,168.9 305.7,163.7 305.1,158.5 L350.6,158.5 C359.3,158.5 366.3,165.5 366.3,174.2 Z" id="Shape" fill="#FFFFFF"></path>
            <circle id="Oval" fill="#9D705C" cx="174.7" cy="174.2" r="107.7"></circle>
            <path d="M175.8,351.6 C79,351.6 0.2,272.8 0.2,176 C0.2,79.2 79,0.4 175.8,0.4 C272.6,0.4 351.4,79.2 351.4,176 C351.4,272.8 272.6,351.6 175.8,351.6 Z M175.8,11.3 C85,11.3 11.1,85.2 11.1,176 C11.1,266.8 85,340.7 175.8,340.7 C266.6,340.7 340.5,266.8 340.5,176 C340.4,85.2 266.6,11.3 175.8,11.3 Z" id="Shape" fill="#3A3033"></path>
            <path d="M174.7,311 C99.3,311 37.9,249.6 37.9,174.2 C37.9,98.8 99.3,37.4 174.7,37.4 C250.1,37.4 311.5,98.8 311.5,174.2 C311.5,249.6 250.2,311 174.7,311 Z M174.7,48.3 C105.3,48.3 48.8,104.8 48.8,174.2 C48.8,243.6 105.3,300.1 174.7,300.1 C244.1,300.1 300.6,243.6 300.6,174.2 C300.6,104.8 244.1,48.3 174.7,48.3 Z M174.7,287.4 C112.3,287.4 61.5,236.6 61.5,174.2 C61.5,111.8 112.3,61 174.7,61 C204.9,61 233.4,72.8 254.7,94.2 C276.1,115.6 287.9,144 287.9,174.2 C287.9,236.6 237.1,287.4 174.7,287.4 Z M174.7,71.9 C118.3,71.9 72.4,117.8 72.4,174.2 C72.4,230.6 118.3,276.5 174.7,276.5 C231.1,276.5 277,230.6 277,174.2 C277,146.9 266.4,121.2 247,101.9 C227.7,82.6 202,71.9 174.7,71.9 Z" id="Shape" fill="#3A3033"></path>
            <path d="M175.8,351.6 C79,351.6 0.2,272.8 0.2,176 C0.2,79.2 79,0.4 175.8,0.4 C272.6,0.4 351.4,79.2 351.4,176 C351.4,272.8 272.6,351.6 175.8,351.6 Z M175.8,11.3 C85,11.3 11.1,85.2 11.1,176 C11.1,266.8 85,340.7 175.8,340.7 C266.6,340.7 340.5,266.8 340.5,176 C340.4,85.2 266.6,11.3 175.8,11.3 Z" id="Shape" fill="#3A3033"></path>
            <g id="Group" transform="translate(93.000000, 93.000000)" fill="#FFFFFF">
                <path d="M82.2,65.8 L79,63.5 C53.9,45.3 49.8,24.1 53.8,11.5 C56.1,4.4 61.1,0 66.9,0 C72.6,0 78,2.8 82.2,7.8 C86.4,2.8 91.8,0 97.5,0 C103.3,0 108.3,4.4 110.6,11.5 C114.7,24.1 110.6,45.3 85.4,63.5 L82.2,65.8 Z M66.9,10.9 C66.6,10.9 65.2,11.9 64.2,14.8 C61.9,21.8 63.4,37.1 82.2,52.1 C100.9,37.1 102.4,21.7 100.2,14.8 C99.2,11.9 97.8,10.9 97.5,10.9 C92.6,10.9 89.3,16.3 88,18.6 C86.9,20.8 84.6,22.1 82.2,22.1 C79.8,22.1 77.5,20.8 76.4,18.6 C75.1,16.2 71.8,10.9 66.9,10.9 Z" id="Shape"></path>
                <g transform="translate(0.000000, 66.000000)" id="Shape">
                    <path d="M62.7,96.9 C60.4,96.9 58,96.5 55.3,95.8 C50.1,94.4 45.1,92.4 40.4,89.9 C19.4,78.6 4,56.2 1.1,32.9 C0.8,30.1 0.6,27.2 0.6,24.3 L11.5,24.3 C11.5,26.7 11.6,29.2 11.9,31.6 C14.3,51.2 27.8,70.8 45.5,80.3 C49.5,82.4 53.7,84.1 58.1,85.3 C62.4,86.5 64.9,86.2 68.5,84.3 C73.5,81.7 76.7,76.1 76.7,70.2 L76.7,0.9 L87.6,0.9 L87.6,70.2 C87.6,80.1 82.1,89.4 73.7,94 C70,95.9 66.5,96.9 62.7,96.9 Z"></path>
                    <path d="M101.7,96.9 C97.9,96.9 94.4,95.9 90.7,94 C82.2,89.5 76.8,80.2 76.8,70.2 L76.8,0.9 L87.7,0.9 L87.7,70.2 C87.7,76.1 90.9,81.7 95.9,84.3 C99.5,86.2 102,86.4 106.3,85.3 C110.6,84.1 114.9,82.4 118.9,80.3 C136.6,70.8 150.1,51.2 152.5,31.6 C152.8,29.2 152.9,26.8 152.9,24.3 L163.8,24.3 C163.8,27.2 163.6,30.1 163.3,32.9 C160.4,56.3 145,78.6 124,89.9 C119.3,92.4 114.3,94.4 109.1,95.8 C106.4,96.5 104,96.9 101.7,96.9 Z"></path>
                </g>
                <g transform="translate(22.000000, 58.000000)" id="Shape">
                    <path d="M46.2,73.4 C44.4,73.4 42.5,73.1 40.4,72.5 C36.6,71.4 32.9,69.9 29.4,67.9 C13.9,59.3 2.6,42.1 0.5,24.3 C0.2,22.1 0.1,19.9 0.1,17.7 L11,17.7 C11,19.5 11.1,21.3 11.3,23 C13,37.3 22.4,51.5 34.7,58.4 C37.4,59.9 40.4,61.1 43.3,62 C45.9,62.7 47.3,62.6 49.5,61.4 C52.6,59.7 54.6,55.9 54.6,52 L54.6,0.2 L65.5,0.2 L65.5,52 C65.5,59.9 61.3,67.3 54.8,70.9 C52,72.6 49.2,73.4 46.2,73.4 Z"></path>
                    <path d="M74.2,73.4 C71.2,73.4 68.4,72.6 65.5,71 C59,67.4 54.8,59.9 54.8,52.1 L54.8,0.3 L65.7,0.3 L65.7,52.1 C65.7,56 67.8,59.8 70.8,61.5 C72.9,62.7 74.3,62.8 77,62.1 C80,61.3 82.9,60.1 85.6,58.5 C97.9,51.6 107.3,37.4 109,23.1 C109.2,21.4 109.3,19.6 109.3,17.8 L120.2,17.8 C120.2,20 120.1,22.2 119.8,24.4 C117.7,42.3 106.4,59.4 90.9,68 C87.4,70 83.7,71.5 79.9,72.6 C77.9,73.1 76,73.4 74.2,73.4 Z"></path>
                </g>
                <g transform="translate(42.000000, 51.000000)" id="Shape">
                    <path d="M31.4,47.4 C30.1,47.4 28.7,47.2 27.2,46.8 C24.6,46.1 22.2,45.1 19.8,43.8 C9.5,38.1 1.9,26.9 0.5,15.2 C0.3,13.8 0.2,12.3 0.2,10.9 L11.1,10.9 C11.1,11.9 11.2,12.9 11.3,13.9 C12.3,22.1 17.8,30.2 25,34.2 C26.6,35.1 28.3,35.8 30,36.2 C31.3,36.5 31.6,36.5 32.4,36 C33.7,35.3 34.5,33.7 34.5,32 L34.5,-5.68434189e-14 L45.4,-5.68434189e-14 L45.4,32 C45.4,37.6 42.3,43 37.5,45.6 C35.7,46.9 33.6,47.4 31.4,47.4 Z"></path>
                    <path d="M49,47.4 C46.8,47.4 44.7,46.8 42.6,45.7 C37.8,43.1 34.7,37.8 34.7,32.1 L34.7,0.1 L45.6,0.1 L45.6,32.1 C45.6,33.7 46.5,35.4 47.7,36.1 C48.5,36.6 48.9,36.6 50.1,36.3 C51.8,35.8 53.5,35.1 55.1,34.3 C62.3,30.3 67.8,22.2 68.8,14 C68.9,13 69,12 69,11 L79.9,11 C79.9,12.4 79.8,13.9 79.6,15.3 C78.2,27 70.6,38.2 60.3,43.9 C58,45.2 55.5,46.2 52.9,46.9 C51.7,47.2 50.3,47.4 49,47.4 Z"></path>
                </g>
            </g>
            <path d="M366.3,174.2 C366.3,182.9 359.3,189.9 350.6,189.9 L305.1,189.9 C305.7,184.8 306,179.5 306,174.2 C306,168.9 305.7,163.7 305.1,158.5 L350.6,158.5 C359.3,158.5 366.3,165.5 366.3,174.2 Z" id="Shape" fill="#FFFFFF"></path>
            <path d="M350.7,195.3 L299,195.3 L299.7,189.2 C300.3,184.3 300.6,179.2 300.6,174.2 C300.6,169.1 300.3,164.1 299.7,159.2 L299,153 L350.7,153 C362.4,153 371.8,162.5 371.8,174.1 C371.8,185.8 362.3,195.3 350.7,195.3 Z M311.2,184.4 L350.7,184.4 C356.3,184.4 360.9,179.8 360.9,174.2 C360.9,168.6 356.3,164 350.7,164 L311.2,164 C311.5,167.4 311.6,170.8 311.6,174.2 C311.5,177.6 311.4,181 311.2,184.4 Z" id="Shape" fill="#3A3033"></path>
        </g>
    </g>
</svg>