<?xml version="1.0" encoding="UTF-8"?>
<svg width="156px" height="290px" viewBox="0 0 156 290" version="1.1" xmlns="http://www.w3.org/2000/svg" xmlns:xlink="http://www.w3.org/1999/xlink">
    <!-- Generator: Sketch 51 (57462) - http://www.bohemiancoding.com/sketch -->
    <title>milk product</title>
    <desc>Created with Sketch.</desc>
    <defs></defs>
    <g id="Page-1" stroke="none" stroke-width="1" fill="none" fill-rule="evenodd">
        <g id="milk-product" fill-rule="nonzero">
            <path d="M117.4,23.8 L38.5,23.8 C33.6,23.8 29.7,19.9 29.7,15 C29.7,10.1 33.6,6.2 38.5,6.2 L117.4,6.2 C122.3,6.2 126.2,10.1 126.2,15 C126.3,19.9 122.3,23.8 117.4,23.8 Z" id="Shape" fill="#FFFFFF"></path>
            <path d="M115.3,25.3 L85.5,25.3 L70.5,25.3 L40.7,25.3 L8.2,115 C6.8,118.9 6.1,123 6.1,127.2 L6.1,258.1 C6.1,272.3 17.6,283.8 31.8,283.8 L70.6,283.8 L85.6,283.8 L124.4,283.8 C138.6,283.8 150.1,272.3 150.1,258.1 L150.1,127.2 C150.1,123 149.4,118.9 148,115 L115.3,25.3 Z" id="Shape" fill="#FFFFFF"></path>
            <path d="M150,127.2 L150,258.1 C150,272.3 138.5,283.8 124.3,283.8 L31.7,283.8 C17.5,283.8 6,272.3 6,258.1 L6,127.2 C6,123 6.7,118.9 8.2,115 L22.3,76.1 L133.8,76.1 L147.9,115 C149.3,118.9 150,123 150,127.2 Z" id="Shape" fill="#CDCCCC"></path>
            <path d="M150,127.2 L150,258.1 C150,272.3 138.5,283.8 124.3,283.8 L31.7,283.8 C17.5,283.8 6,272.3 6,258.1 L6,127.2 C6,123 6.7,118.9 8.2,115 L22.3,76.1 L133.8,76.1 L147.9,115 C149.3,118.9 150,123 150,127.2 Z" id="Shape" fill="#CDCCCC"></path>
            <path d="M117.4,29.3 L38.5,29.3 C30.6,29.3 24.2,22.9 24.2,15 C24.2,7.1 30.6,0.7 38.5,0.7 L117.4,0.7 C125.3,0.7 131.7,7.1 131.7,15 C131.7,22.9 125.3,29.3 117.4,29.3 Z M38.6,11.7 C36.8,11.7 35.3,13.2 35.3,15 C35.3,16.8 36.8,18.3 38.6,18.3 L117.5,18.3 C119.3,18.3 120.8,16.8 120.8,15 C120.8,13.2 119.3,11.7 117.5,11.7 L38.6,11.7 Z" id="Shape" fill="#3A3033"></path>
            <path d="M124.3,289.2 L31.7,289.2 C14.5,289.2 0.6,275.2 0.6,258.1 L0.6,127.2 C0.6,122.4 1.4,117.7 3.1,113.2 L35.6,23.5 L40.7,19.9 L115.4,19.9 L120.5,23.5 L153,113.2 C154.6,117.7 155.5,122.4 155.5,127.2 L155.5,258.1 C155.5,275.3 141.5,289.2 124.3,289.2 Z M44.5,30.7 L13.3,116.8 C12.1,120.1 11.5,123.6 11.5,127.1 L11.5,258 C11.5,269.1 20.6,278.2 31.7,278.2 L124.3,278.2 C135.4,278.2 144.5,269.1 144.5,258 L144.5,127.2 C144.5,123.7 143.9,120.2 142.7,116.9 L111.5,30.8 L44.5,30.8 L44.5,30.7 Z" id="Shape" fill="#3A3033"></path>
            <rect id="Rectangle-path" fill="#3A3033" x="6" y="121.7" width="120.2" height="10.9"></rect>
        </g>
    </g>
</svg>