<?xml version="1.0" encoding="utf-8"?>
<!-- Generator: Adobe Illustrator 18.0.0, SVG Export Plug-In . SVG Version: 6.00 Build 0)  -->
<!DOCTYPE svg PUBLIC "-//W3C//DTD SVG 1.1//EN" "http://www.w3.org/Graphics/SVG/1.1/DTD/svg11.dtd">
<svg version="1.1" id="Layer_1" xmlns="http://www.w3.org/2000/svg" xmlns:xlink="http://www.w3.org/1999/xlink" x="0px" y="0px"
	 width="512px" height="512px" viewBox="0 0 512 512" enable-background="new 0 0 512 512" xml:space="preserve">
<g>
	<g>
		<path fill="#FFFFFF" d="M331.8,382.3L331.8,382.3c-6.6,5.8-15.1,8.9-23.9,8.9h-154c-8.8,0-17.3-3.2-23.9-8.9l0,0
			c-9-7.8-13.6-19.4-12.4-31.2l10.5-106.6v0l32.4-123.7h161l22.7,230.3C345.4,362.9,340.8,374.5,331.8,382.3z"/>
	</g>
	<g>
		<path fill="#FFFFFF" d="M90.5,120.8c0,0,12.4,8.5,10.7,34s-0.4,69.4,26.9,89.8l32.4-123.7H90.5z"/>
	</g>
	<g>
		<g>
			<path fill="#FFFFFF" d="M355.9,320.9h-14.6l-2.8-28l0,0c10.2-0.6,19.2-6.8,23.4-16l41.8-90.3c1.3-2.9,1.1-6.3-0.6-9l0,0
				c-1.7-2.6-4.6-4.2-7.8-4.2h-22.2c-13.1,0-25.6,5.8-34,15.9l-9.7,11.5l-4-40.4l0,0c8.4-10.2,20.9-16,34.1-16h35.8
				c13,0,25.1,6.6,32.1,17.4l0,0c7.2,11,8.2,25,2.6,37l-49.1,106.1C376.5,314.7,366.7,320.9,355.9,320.9z"/>
		</g>
	</g>
	<g>
		<path fill="#3A3033" d="M307.9,396.7h-154c-10.1,0-19.9-3.6-27.5-10.3c-10.3-8.9-15.6-22.3-14.3-35.9l10.5-106.3v-0.4l0.2-0.7
			l33.5-127.8h170.2l23.2,235.2c1.3,13.5-4,27-14.3,35.9C327.8,393.1,318,396.7,307.9,396.7z M133.5,245.5L123,351.7
			c-1,10,3,19.9,10.6,26.5c5.6,4.9,12.9,7.6,20.4,7.6h154c7.5,0,14.7-2.7,20.4-7.6c7.6-6.6,11.6-16.5,10.6-26.5l-22.2-225.4H164.7
			L133.5,245.5z"/>
	</g>
	<g>
		<path fill="#3A3033" d="M131.3,253.8l-6.5-4.9c-15.4-11.5-32.9-37.2-29.1-94.5c1.4-21.6-8-28.9-8.4-29.2l-14.5-10l17.7,0.1h77.1
			L131.3,253.8z M101.6,126.3c3.2,6.2,6,15.5,5.1,28.9c-1.4,21.5-0.6,58.6,18.4,79.3l28.4-108.2H101.6z"/>
	</g>
	<g>
		<g>
			<path fill="#3A3033" d="M355.9,326.4h-19.6l-3.8-38.6l5.7-0.3c8.2-0.5,15.4-5.4,18.8-12.8l41.8-90.3c0.6-1.2,0.5-2.6-0.3-3.7
				c-0.7-1.1-1.9-1.7-3.2-1.7h-22.2c-11.5,0-22.4,5.1-29.8,13.9l-18,21.5l-5.5-55.7l1.5-1.8c9.5-11.5,23.5-18,38.3-18h35.8
				c14.9,0,28.6,7.4,36.7,19.9c8.3,12.7,9.4,28.5,3,42.2L386,307.2C380.6,318.9,368.8,326.4,355.9,326.4z M346.3,315.5h9.7
				c8.6,0,16.5-5.1,20.2-12.9l49.1-106.1c4.8-10.3,3.9-22.2-2.3-31.7c-6.1-9.4-16.4-14.9-27.5-14.9h-35.8
				c-10.9,0-21.1,4.5-28.5,12.4l2.5,25.1l1.3-1.6c9.5-11.3,23.4-17.8,38.2-17.8h22.2c5,0,9.6,2.5,12.4,6.7c2.8,4.3,3.2,9.6,1,14.2
				L367,279.2c-4.3,9.3-12.6,16-22.5,18.3L346.3,315.5z"/>
		</g>
	</g>
	<g>
		<path fill="#3A3033" d="M211.5,371.2h-35.6c-11.4,0-22.2-5.4-29-14.6c-5.4-7.2-7.9-16.1-7-25.1l5.4-55.8l10.9,1l-5.4,55.8
			c-0.6,6.3,1.1,12.5,4.9,17.5c4.7,6.4,12.3,10.2,20.3,10.2h35.6V371.2z"/>
	</g>
	<g>
		<rect x="226.5" y="360.2" fill="#3A3033" width="15.2" height="10.9"/>
	</g>
</g>
</svg>
