<?xml version="1.0" encoding="utf-8"?>
<!-- Generator: Adobe Illustrator 18.0.0, SVG Export Plug-In . SVG Version: 6.00 Build 0)  -->
<!DOCTYPE svg PUBLIC "-//W3C//DTD SVG 1.1//EN" "http://www.w3.org/Graphics/SVG/1.1/DTD/svg11.dtd">
<svg version="1.1" id="Layer_1" xmlns="http://www.w3.org/2000/svg" xmlns:xlink="http://www.w3.org/1999/xlink" x="0px" y="0px"
	 width="512px" height="512px" viewBox="0 0 512 512" enable-background="new 0 0 512 512" xml:space="preserve">
<g>
	<g>
		<path fill="#FFFFFF" d="M295.4,134.8h-78.9c-4.9,0-8.8-3.9-8.8-8.8l0,0c0-4.9,3.9-8.8,8.8-8.8h78.9c4.9,0,8.8,3.9,8.8,8.8l0,0
			C304.3,130.9,300.3,134.8,295.4,134.8z"/>
	</g>
	<g>
		<path fill="#FFFFFF" d="M293.3,136.3h-29.8h-15h-29.8L186.2,226c-1.4,3.9-2.1,8-2.1,12.2v130.9c0,14.2,11.5,25.7,25.7,25.7h38.8
			h15h38.8c14.2,0,25.7-11.5,25.7-25.7V238.2c0-4.2-0.7-8.3-2.1-12.2L293.3,136.3z"/>
	</g>
	<g>
		<path fill="#CDCCCC" d="M328,238.2v130.9c0,14.2-11.5,25.7-25.7,25.7h-92.6c-14.2,0-25.7-11.5-25.7-25.7V238.2
			c0-4.2,0.7-8.3,2.2-12.2l14.1-38.9h111.5l14.1,38.9C327.3,229.9,328,234,328,238.2z"/>
	</g>
	<g>
		<path fill="#CDCCCC" d="M328,238.2v130.9c0,14.2-11.5,25.7-25.7,25.7h-92.6c-14.2,0-25.7-11.5-25.7-25.7V238.2
			c0-4.2,0.7-8.3,2.2-12.2l14.1-38.9h111.5l14.1,38.9C327.3,229.9,328,234,328,238.2z"/>
	</g>
	<g>
		<path fill="#3A3033" d="M295.4,140.3h-78.9c-7.9,0-14.3-6.4-14.3-14.3c0-7.9,6.4-14.3,14.3-14.3h78.9c7.9,0,14.3,6.4,14.3,14.3
			C309.7,133.9,303.3,140.3,295.4,140.3z M216.6,122.7c-1.8,0-3.3,1.5-3.3,3.3c0,1.8,1.5,3.3,3.3,3.3h78.9c1.8,0,3.3-1.5,3.3-3.3
			c0-1.8-1.5-3.3-3.3-3.3H216.6z"/>
	</g>
	<g>
		<path fill="#3A3033" d="M302.3,400.2h-92.6c-17.2,0-31.1-14-31.1-31.1V238.2c0-4.8,0.8-9.5,2.5-14l32.5-89.7l5.1-3.6h74.7l5.1,3.6
			l32.5,89.7c1.6,4.5,2.5,9.2,2.5,14v130.9C333.5,386.3,319.5,400.2,302.3,400.2z M222.5,141.7l-31.2,86.1
			c-1.2,3.3-1.8,6.8-1.8,10.3v130.9c0,11.1,9.1,20.2,20.2,20.2h92.6c11.1,0,20.2-9.1,20.2-20.2V238.2c0-3.5-0.6-7-1.8-10.3
			l-31.2-86.1H222.5z"/>
	</g>
	<g>
		<rect x="184" y="232.7" fill="#3A3033" width="120.2" height="10.9"/>
	</g>
</g>
</svg>
