<?xml version="1.0" encoding="UTF-8"?>
<svg width="368px" height="282px" viewBox="0 0 368 282" version="1.1" xmlns="http://www.w3.org/2000/svg" xmlns:xlink="http://www.w3.org/1999/xlink">
    <!-- Generator: Sketch 51 (57462) - http://www.bohemiancoding.com/sketch -->
    <title>milk pitcher</title>
    <desc>Created with Sketch.</desc>
    <defs></defs>
    <g id="Page-1" stroke="none" stroke-width="1" fill="none" fill-rule="evenodd">
        <g id="milk-pitcher" fill-rule="nonzero">
            <path d="M259.8,267.3 C253.2,273.1 244.7,276.2 235.9,276.2 L81.9,276.2 C73.1,276.2 64.6,273 58,267.3 C49,259.5 44.4,247.9 45.6,236.1 L56.1,129.5 L88.5,5.8 L249.5,5.8 L272.2,236.1 C273.4,247.9 268.8,259.5 259.8,267.3 Z" id="Shape" fill="#FFFFFF"></path>
            <path d="M18.5,5.8 C18.5,5.8 30.9,14.3 29.2,39.8 C27.5,65.3 28.8,109.2 56.1,129.6 L88.5,5.9 L18.5,5.9 L18.5,5.8 Z" id="Shape" fill="#FFFFFF"></path>
            <path d="M283.9,205.9 L269.3,205.9 L266.5,177.9 C276.7,177.3 285.7,171.1 289.9,161.9 L331.7,71.6 C333,68.7 332.8,65.3 331.1,62.6 C329.4,60 326.5,58.4 323.3,58.4 L301.1,58.4 C288,58.4 275.5,64.2 267.1,74.3 L257.4,85.8 L253.4,45.4 C261.8,35.2 274.3,29.4 287.5,29.4 L323.3,29.4 C336.3,29.4 348.4,36 355.4,46.8 C362.6,57.8 363.6,71.8 358,83.8 L308.9,189.9 C304.5,199.7 294.7,205.9 283.9,205.9 Z" id="Shape" fill="#FFFFFF"></path>
            <path d="M235.9,281.7 L81.9,281.7 C71.8,281.7 62,278.1 54.4,271.4 C44.1,262.5 38.8,249.1 40.1,235.5 L50.6,129.2 L50.6,128.8 L50.8,128.1 L84.3,0.3 L254.5,0.3 L277.7,235.5 C279,249 273.7,262.5 263.4,271.4 C255.8,278.1 246,281.7 235.9,281.7 Z M61.5,130.5 L51,236.7 C50,246.7 54,256.6 61.6,263.2 C67.2,268.1 74.5,270.8 82,270.8 L236,270.8 C243.5,270.8 250.7,268.1 256.4,263.2 C264,256.6 268,246.7 267,236.7 L244.8,11.3 L92.7,11.3 L61.5,130.5 Z" id="Shape" fill="#3A3033"></path>
            <path d="M59.3,138.8 L52.8,133.9 C37.4,122.4 19.9,96.7 23.7,39.4 C25.1,17.8 15.7,10.5 15.3,10.2 L0.8,0.2 L18.5,0.3 L95.6,0.3 L59.3,138.8 Z M29.6,11.3 C32.8,17.5 35.6,26.8 34.7,40.2 C33.3,61.7 34.1,98.8 53.1,119.5 L81.5,11.3 L29.6,11.3 Z" id="Shape" fill="#3A3033"></path>
            <path d="M283.9,211.4 L264.3,211.4 L260.5,172.8 L266.2,172.5 C274.4,172 281.6,167.1 285,159.7 L326.8,69.4 C327.4,68.2 327.3,66.8 326.5,65.7 C325.8,64.6 324.6,64 323.3,64 L301.1,64 C289.6,64 278.7,69.1 271.3,77.9 L253.3,99.4 L247.8,43.7 L249.3,41.9 C258.8,30.4 272.8,23.9 287.6,23.9 L323.4,23.9 C338.3,23.9 352,31.3 360.1,43.8 C368.4,56.5 369.5,72.3 363.1,86 L314,192.2 C308.6,203.9 296.8,211.4 283.9,211.4 Z M274.3,200.5 L284,200.5 C292.6,200.5 300.5,195.4 304.2,187.6 L353.3,81.5 C358.1,71.2 357.2,59.3 351,49.8 C344.9,40.4 334.6,34.9 323.5,34.9 L287.7,34.9 C276.8,34.9 266.6,39.4 259.2,47.3 L261.7,72.4 L263,70.8 C272.5,59.5 286.4,53 301.2,53 L323.4,53 C328.4,53 333,55.5 335.8,59.7 C338.6,64 339,69.3 336.8,73.9 L295,164.2 C290.7,173.5 282.4,180.2 272.5,182.5 L274.3,200.5 Z" id="Shape" fill="#3A3033"></path>
            <path d="M139.5,256.2 L103.9,256.2 C92.5,256.2 81.7,250.8 74.9,241.6 C69.5,234.4 67,225.5 67.9,216.5 L73.3,160.7 L84.2,161.7 L78.8,217.5 C78.2,223.8 79.9,230 83.7,235 C88.4,241.4 96,245.2 104,245.2 L139.6,245.2 L139.6,256.2 L139.5,256.2 Z" id="Shape" fill="#3A3033"></path>
            <rect id="Rectangle-path" fill="#3A3033" x="154.5" y="245.2" width="15.2" height="10.9"></rect>
        </g>
    </g>
</svg>