<?xml version="1.0" encoding="UTF-8"?>
<svg width="336px" height="358px" viewBox="0 0 336 358" version="1.1" xmlns="http://www.w3.org/2000/svg" xmlns:xlink="http://www.w3.org/1999/xlink">
    <!-- Generator: Sketch 51 (57462) - http://www.bohemiancoding.com/sketch -->
    <title>moka pot</title>
    <desc>Created with Sketch.</desc>
    <defs></defs>
    <g id="Page-1" stroke="none" stroke-width="1" fill="none" fill-rule="evenodd">
        <g id="moka-pot" fill-rule="nonzero">
            <path d="M223.9,229.2 L223.9,204 L223.8,204 L254.2,71.8 L243.8,51.4 L154,51.4 L65.6,51.4 L54.7,71.8 L13,71.8 L68.2,130.5 C68.2,130.5 85,71.8 85.1,71.8 L119.1,71.8 L85.1,71.8 C85,71.8 68.2,130.5 68.2,130.5 L85.1,204 L85.1,229.2 L84.7,229.2 L54.7,352 L108.2,352 L199.6,352 L253.1,352 L223.1,229.2 L223.9,229.2 Z" id="Shape" fill="#FFFFFF"></path>
            <path d="M168.5,6.1 L154.5,6.1 L140.5,6.1 L127.6,11.9 C132.8,25.2 136.5,51.4 136.5,51.4 L154.6,51.4 L172.7,51.4 C172.7,51.4 176.4,25.2 181.6,11.9 L168.5,6.1 Z" id="Shape" fill="#9D705C"></path>
            <path d="M243.8,51.3 L258.9,48.1 C280.6,43.4 303,51.4 317,68.6 C327.9,82.1 332.3,99.7 329.1,116.7 L310.1,215.8 C309.4,219.5 306.2,222.1 302.5,222.1 C297.6,222.1 293.9,217.6 294.9,212.8 C300.5,184 314.9,96.6 286.4,76.6 L245.1,111.2 L254.2,71.6 L243.8,51.3 Z" id="Shape" fill="#9D705C"></path>
            <path d="M113,357.4 L47.8,357.4 L80.4,223.7 L134,223.7 L113,357.4 Z M61.7,346.5 L103.6,346.5 L121.2,234.7 L89,234.7 L61.7,346.5 Z" id="Shape" fill="#3A3033"></path>
            <path d="M260.1,357.4 L195,357.4 L174,223.7 L227.5,223.7 L260.1,357.4 Z M204.3,346.5 L246.2,346.5 L218.9,234.7 L186.8,234.7 L204.3,346.5 Z" id="Shape" fill="#3A3033"></path>
            <path d="M206,357.4 L101.9,357.4 L122.9,223.7 L185.1,223.7 L206,357.4 Z M114.7,346.5 L193.3,346.5 L175.7,234.7 L132.2,234.7 L114.7,346.5 Z" id="Shape" fill="#3A3033"></path>
            <path d="M229.4,234.7 L79.6,234.7 L79.6,198.6 L229.3,198.6 L229.3,234.7 L229.4,234.7 Z M90.6,223.7 L218.5,223.7 L218.5,209.4 L90.6,209.4 L90.6,223.7 Z" id="Shape" fill="#3A3033"></path>
            <path d="M133.4,209.5 L80.8,209.5 L62.6,130.3 L63,128.9 C63,128.9 67.2,114.2 71.4,99.6 C73.5,92.3 75.6,84.9 77.2,79.4 C78,76.6 78.7,74.3 79.1,72.7 C80.1,69.4 81,66.2 85.1,66.2 L124.2,66.2 L133.4,209.5 Z M89.5,198.5 L121.8,198.5 L114,77.2 L89.3,77.2 C86.5,86.7 79.3,112.1 74,130.6 L89.5,198.5 Z" id="Shape" fill="#3A3033"></path>
            <path d="M223.8,209.5 L181.4,209.5 L175.9,203.7 L184.4,71.5 L189.9,66.4 L254.2,66.4 L259.5,73.1 L229.1,205.3 L223.8,209.5 Z M187.2,198.5 L219.5,198.5 L247.3,77.2 L195,77.2 L187.2,198.5 Z" id="Shape" fill="#3A3033"></path>
            <path d="M186.5,209.5 L122.4,209.5 L113.2,66.3 L195.7,66.3 L186.5,209.5 Z M132.7,198.5 L176.3,198.5 L184.1,77.2 L125,77.2 L132.7,198.5 Z" id="Shape" fill="#3A3033"></path>
            <path d="M70.8,141.2 L0.3,66.3 L85,66.3 L85,71.8 L90.2,73.6 C89.6,75.4 79.8,109.5 73.4,132 L70.8,141.2 Z M25.7,77.2 L65.6,119.7 C67.2,114.2 69.3,106.9 71.4,99.6 C73.5,92.3 75.6,84.9 77.2,79.4 C77.4,78.6 77.6,77.9 77.8,77.2 L25.7,77.2 Z" id="Shape" fill="#3A3033"></path>
            <path d="M254.2,77.2 L54.8,77.2 L50,69.2 L60.9,48.8 L65.7,45.9 L243.9,45.9 L248.8,48.9 L259.2,69.3 L254.2,77.2 Z M63.9,66.3 L245.3,66.3 L240.5,56.8 L68.9,56.8 L63.9,66.3 Z" id="Shape" fill="#3A3033"></path>
            <path d="M177.3,56.8 L131.7,56.8 L131,52.1 C131,51.8 127.4,26.4 122.5,13.8 L120.6,9 L139.3,0.6 L169.7,0.6 L188.4,9 L186.5,13.8 C181.6,26.4 178,51.9 178,52.1 L177.3,56.8 Z M141.1,45.9 L167.8,45.9 C168.9,38.8 171.4,25.1 174.6,14.8 L167.4,11.6 L141.6,11.6 L134.4,14.8 C137.6,25.1 140,38.8 141.1,45.9 Z" id="Shape" fill="#3A3033"></path>
            <path d="M302.5,227.6 C298.5,227.6 294.8,225.8 292.3,222.8 C289.8,219.7 288.8,215.7 289.5,211.8 C304.2,136.3 298,97 286.3,83.9 L248.6,115.5 L239.8,110.1 L248.4,72.5 L238.9,53.8 L242.6,46 L257.7,42.8 C262.1,41.8 266.7,41.4 271.2,41.4 C290.7,41.4 308.9,50.1 321.2,65.2 C333.2,80 338,99.1 334.4,117.8 L315.4,216.9 C314.3,223.1 308.9,227.6 302.5,227.6 Z M289.5,72.2 C319.9,93.6 307.1,178.4 300.2,213.9 C300,214.8 300.4,215.5 300.7,215.8 C301,216.1 301.5,216.6 302.5,216.6 C303.6,216.6 304.6,215.8 304.8,214.7 L323.8,115.6 C326.8,100.1 322.8,84.2 312.8,71.9 C302.6,59.3 287.5,52.1 271.3,52.1 C267.5,52.1 263.8,52.5 260.1,53.3 L251.9,55.1 L259.1,69.2 L259.6,72.9 L254.2,96.6 L283,72.4 L289.5,72.2 Z" id="Shape" fill="#3A3033"></path>
        </g>
    </g>
</svg>