<?xml version="1.0" encoding="utf-8"?>
<!-- Generator: Adobe Illustrator 18.0.0, SVG Export Plug-In . SVG Version: 6.00 Build 0)  -->
<!DOCTYPE svg PUBLIC "-//W3C//DTD SVG 1.1//EN" "http://www.w3.org/Graphics/SVG/1.1/DTD/svg11.dtd">
<svg version="1.1" id="Layer_1" xmlns="http://www.w3.org/2000/svg" xmlns:xlink="http://www.w3.org/1999/xlink" x="0px" y="0px"
	 width="512px" height="512px" viewBox="0 0 512 512" enable-background="new 0 0 512 512" xml:space="preserve">
<g>
	<g>
		<path fill="#FFFFFF" d="M311.9,306.2V281h-0.1l30.4-132.2l0,0l-10.4-20.4H242h-88.4l-10.9,20.4H101l55.2,58.7
			c0,0,16.8-58.7,16.9-58.7h34l0,0h-34c-0.1,0-16.9,58.7-16.9,58.7l16.9,73.5h0v25.2h-0.4l-30,122.8h53.5h91.4h53.5l-30-122.8H311.9
			z"/>
	</g>
	<g>
		<path fill="#9D705C" d="M256.5,83.1h-14h-14l-12.9,5.8c5.2,13.3,8.9,39.5,8.9,39.5h18.1h18.1c0,0,3.7-26.2,8.9-39.5L256.5,83.1z"
			/>
	</g>
	<g>
		<path fill="#9D705C" d="M331.8,128.3l15.1-3.2c21.7-4.7,44.1,3.3,58.1,20.5h0c10.9,13.5,15.3,31.1,12.1,48.1l-19,99.1
			c-0.7,3.7-3.9,6.3-7.6,6.3l0,0c-4.9,0-8.6-4.5-7.6-9.3c5.6-28.8,20-116.2-8.5-136.2l0,0l-41.3,34.6l9.1-39.6L331.8,128.3z"/>
	</g>
	<g>
		<path fill="#3A3033" d="M201,434.4h-65.2l32.6-133.7H222L201,434.4z M149.7,423.5h41.9l17.6-111.8H177L149.7,423.5z"/>
	</g>
	<g>
		<path fill="#3A3033" d="M348.1,434.4H283l-21-133.7h53.5L348.1,434.4z M292.3,423.5h41.9l-27.3-111.8h-32.1L292.3,423.5z"/>
	</g>
	<g>
		<path fill="#3A3033" d="M294,434.4H189.9l21-133.7h62.2L294,434.4z M202.7,423.5h78.6l-17.6-111.8h-43.5L202.7,423.5z"/>
	</g>
	<g>
		<path fill="#3A3033" d="M317.4,311.7H167.6v-36.1h149.7V311.7z M178.6,300.7h127.9v-14.3H178.6V300.7z"/>
	</g>
	<g>
		<path fill="#3A3033" d="M221.4,286.5h-52.6l-18.2-79.2l0.4-1.4c0,0,4.2-14.7,8.4-29.3c2.1-7.3,4.2-14.7,5.8-20.2
			c0.8-2.8,1.5-5.1,1.9-6.7c1-3.3,1.9-6.5,6-6.5h39.1L221.4,286.5z M177.5,275.5h32.3l-7.8-121.3h-24.7c-2.8,9.5-10,34.9-15.3,53.4
			L177.5,275.5z"/>
	</g>
	<g>
		<path fill="#3A3033" d="M311.8,286.5h-42.4l-5.5-5.8l8.5-132.2l5.5-5.1h64.3l5.3,6.7l-30.4,132.2L311.8,286.5z M275.2,275.5h32.3
			l27.8-121.3H283L275.2,275.5z"/>
	</g>
	<g>
		<path fill="#3A3033" d="M274.5,286.5h-64.1l-9.2-143.2h82.5L274.5,286.5z M220.7,275.5h43.6l7.8-121.3h-59.1L220.7,275.5z"/>
	</g>
	<g>
		<path fill="#3A3033" d="M158.8,218.2l-70.5-74.9h84.7v5.5l5.2,1.8c-0.6,1.8-10.4,35.9-16.8,58.4L158.8,218.2z M113.7,154.2
			l39.9,42.5c1.6-5.5,3.7-12.8,5.8-20.1c2.1-7.3,4.2-14.7,5.8-20.2c0.2-0.8,0.4-1.5,0.6-2.2H113.7z"/>
	</g>
	<g>
		<path fill="#3A3033" d="M342.2,154.2H142.8l-4.8-8l10.9-20.4l4.8-2.9h178.2l4.9,3l10.4,20.4L342.2,154.2z M151.9,143.3h181.4
			l-4.8-9.5H156.9L151.9,143.3z"/>
	</g>
	<g>
		<path fill="#3A3033" d="M265.3,133.8h-45.6l-0.7-4.7c0-0.3-3.6-25.7-8.5-38.3l-1.9-4.8l18.7-8.4h30.4l18.7,8.4l-1.9,4.8
			c-4.9,12.6-8.5,38.1-8.5,38.3L265.3,133.8z M229.1,122.9h26.7c1.1-7.1,3.6-20.8,6.8-31.1l-7.2-3.2h-25.8l-7.2,3.2
			C225.6,102.1,228,115.8,229.1,122.9z"/>
	</g>
	<g>
		<path fill="#3A3033" d="M390.5,304.6c-4,0-7.7-1.8-10.2-4.8c-2.5-3.1-3.5-7.1-2.8-11c14.7-75.5,8.5-114.8-3.2-127.9l-37.7,31.6
			l-8.8-5.4l8.6-37.6l-9.5-18.7l3.7-7.8l15.1-3.2c4.4-1,9-1.4,13.5-1.4c19.5,0,37.7,8.7,50,23.8c12,14.8,16.8,33.9,13.2,52.6
			l-19,99.1C402.3,300.1,396.9,304.6,390.5,304.6z M377.5,149.2c30.4,21.4,17.6,106.2,10.7,141.7c-0.2,0.9,0.2,1.6,0.5,1.9
			c0.3,0.3,0.8,0.8,1.8,0.8c1.1,0,2.1-0.8,2.3-1.9l19-99.1c3-15.5-1-31.4-11-43.7c-10.2-12.6-25.3-19.8-41.5-19.8
			c-3.8,0-7.5,0.4-11.2,1.2l-8.2,1.8l7.2,14.1l0.5,3.7l-5.4,23.7l28.8-24.2L377.5,149.2z"/>
	</g>
</g>
</svg>
