<?xml version="1.0" encoding="UTF-8"?>
<svg width="145px" height="348px" viewBox="0 0 145 348" version="1.1" xmlns="http://www.w3.org/2000/svg" xmlns:xlink="http://www.w3.org/1999/xlink">
    <!-- Generator: Sketch 49.3 (51167) - http://www.bohemiancoding.com/sketch -->
    <title>nitrous</title>
    <desc>Created with Sketch.</desc>
    <defs></defs>
    <g id="Page-1" stroke="none" stroke-width="1" fill="none" fill-rule="evenodd">
        <g id="nitrous" fill-rule="nonzero">
            <g id="Group">
                <path d="M119.8,128 L138.5,27 L81.5,27 L64.6,27 L7.6,27 L26.3,128 C27.7,135.3 25.6,142.7 21.1,148.6 C14.3,157.4 10.3,168 10.3,179.4 C10.3,201.5 25.3,220.5 46.8,229.2 C53.7,234 62.5,244.3 62.5,265.5 C62.5,300.4 62.5,320.3 62.5,320.3 L73.2,320.3 L83.9,320.3 C83.9,320.3 83.9,300.4 83.9,265.5 C83.9,257.5 85.2,249.3 88.7,242.1 C90.4,238.5 92.7,235.1 95.7,232.4 C99.8,228.6 105.2,226.9 109.8,224 C114.2,221.3 118.2,218 121.7,214.3 C128.5,207.1 133.4,198 135.2,188.2 C135.7,185.3 136,182.4 136,179.5 C136,168.1 132,157.5 125.2,148.7 C120.5,142.7 118.5,135.3 119.8,128 Z" id="Shape" fill="#FFFFFF"></path>
                <path d="M119.8,128 L138.5,27 L81.5,27 L64.6,27 L7.6,27 L26.3,128 C27.7,135.3 25.6,142.7 21.1,148.6 C14.3,157.4 10.3,168 10.3,179.4 C10.3,201.5 25.3,220.5 46.8,229.2 C53.7,234 62.5,244.3 62.5,265.5 C62.5,300.4 62.5,320.3 62.5,320.3 L73.2,320.3 L83.9,320.3 C83.9,320.3 83.9,300.4 83.9,265.5 C83.9,257.5 85.2,249.3 88.7,242.1 C90.4,238.5 92.7,235.1 95.7,232.4 C99.8,228.6 105.2,226.9 109.8,224 C114.2,221.3 118.2,218 121.7,214.3 C128.5,207.1 133.4,198 135.2,188.2 C135.7,185.3 136,182.4 136,179.5 C136,168.1 132,157.5 125.2,148.7 C120.5,142.7 118.5,135.3 119.8,128 Z" id="Shape" fill="#FFFFFF"></path>
                <polygon id="Shape" fill="#FFFFFF" points="30 342.1 62.4 320.2 83.8 320.2 113.1 342.1"></polygon>
                <path d="M119.8,128 L129.5,75.6 L16.5,75.6 L26.2,128 C27.6,135.3 25.5,142.7 21,148.6 C14.2,157.4 10.2,168 10.2,179.4 C10.2,201.5 25.2,220.5 46.7,229.2 C46.7,229.2 46.7,229.2 46.7,229.2 C47.7,229.7 72.4,240.3 97.7,229.2 C99,228.6 100.3,228.3 101.5,228.3 C104.2,226.8 107,225.6 109.6,224 C114,221.3 118,218 121.5,214.3 C128.3,207.1 133.2,198 135,188.2 C135.5,185.3 135.8,182.4 135.8,179.5 C135.8,168.1 131.8,157.5 125,148.7 C120.5,142.7 118.5,135.3 119.8,128 Z" id="Shape" fill="#CD9E5D"></path>
                <path d="M7.5,27 C7.5,27 41,5.9 73,5.9 C105,5.9 138.5,27 138.5,27 L129.4,76.5 L16.7,76.5 L7.5,27 Z" id="Shape" fill="#FFFFFF"></path>
                <path d="M89.2,325.7 L57,325.7 L57,265.5 C57,247.4 50.1,238.4 44.1,234 C20.2,224.1 4.7,202.7 4.7,179.4 C4.7,167.1 8.8,155.3 16.7,145.3 C20.4,140.6 21.9,134.7 20.8,129 L0.9,21.6 L145,21.6 L125.2,129 C124.2,134.6 125.7,140.5 129.3,145.3 C137.1,155.4 141.3,167.2 141.3,179.4 C141.3,182.7 141,185.9 140.4,189.1 C138.5,199.7 133.3,209.7 125.5,218 C121.6,222.1 117.3,225.7 112.5,228.6 C110.6,229.8 108.7,230.7 106.9,231.7 C104,233.2 101.3,234.5 99.2,236.4 C96.9,238.5 95,241.2 93.5,244.4 C90.7,250.3 89.2,257.4 89.2,265.5 L89.2,325.7 Z M67.9,314.8 L78.3,314.8 L78.3,265.5 C78.3,255.8 80.1,247.1 83.6,239.7 C85.8,235.2 88.5,231.3 91.8,228.3 C95,225.4 98.5,223.6 101.9,221.9 C103.6,221 105.2,220.2 106.7,219.3 C110.7,216.8 114.3,213.9 117.5,210.5 C123.9,203.8 128,195.7 129.6,187.2 C130.1,184.7 130.3,182.1 130.3,179.5 C130.3,169.7 127,160.2 120.6,152.1 C115,144.9 112.7,135.8 114.3,127.1 L131.8,32.6 L14.1,32.6 L31.6,127.1 C33.2,135.8 30.9,144.9 25.3,152.1 C19,160.2 15.6,169.7 15.6,179.5 C15.6,198.6 28.6,216.1 48.7,224.2 L49.3,224.4 L49.8,224.8 C58.1,230.5 67.9,242.3 67.9,265.6 L67.9,314.8 Z" id="Shape" fill="#3A3033"></path>
                <path d="M89.2,325.7 L57,325.7 L57,265.5 C57,247.4 50.1,238.4 44.1,234 C20.2,224.1 4.7,202.7 4.7,179.4 C4.7,167.1 8.8,155.3 16.7,145.3 C20.4,140.6 21.9,134.7 20.8,129 L0.9,21.6 L145,21.6 L125.2,129 C124.2,134.6 125.7,140.5 129.3,145.3 C137.1,155.4 141.3,167.2 141.3,179.4 C141.3,182.7 141,185.9 140.4,189.1 C138.5,199.7 133.3,209.7 125.5,218 C121.6,222.1 117.3,225.7 112.5,228.6 C110.6,229.8 108.7,230.7 106.9,231.7 C104,233.2 101.3,234.5 99.2,236.4 C96.9,238.5 95,241.2 93.5,244.4 C90.7,250.3 89.2,257.4 89.2,265.5 L89.2,325.7 Z M67.9,314.8 L78.3,314.8 L78.3,265.5 C78.3,255.8 80.1,247.1 83.6,239.7 C85.8,235.2 88.5,231.3 91.8,228.3 C95,225.4 98.5,223.6 101.9,221.9 C103.6,221 105.2,220.2 106.7,219.3 C110.7,216.8 114.3,213.9 117.5,210.5 C123.9,203.8 128,195.7 129.6,187.2 C130.1,184.7 130.3,182.1 130.3,179.5 C130.3,169.7 127,160.2 120.6,152.1 C115,144.9 112.7,135.8 114.3,127.1 L131.8,32.6 L14.1,32.6 L31.6,127.1 C33.2,135.8 30.9,144.9 25.3,152.1 C19,160.2 15.6,169.7 15.6,179.5 C15.6,198.6 28.6,216.1 48.7,224.2 L49.3,224.4 L49.8,224.8 C58.1,230.5 67.9,242.3 67.9,265.6 L67.9,314.8 Z" id="Shape" fill="#3A3033"></path>
                <path d="M73,239.7 C57.3,239.7 45.5,234.6 44.5,234.2 C20.3,224.4 4.7,202.9 4.7,179.4 C4.7,167.1 8.8,155.3 16.7,145.3 C20.4,140.6 21.9,134.6 20.8,129.1 L0.9,21.7 L145,21.7 L125.2,129 C124.2,134.6 125.7,140.5 129.4,145.2 C137.2,155.3 141.4,167.1 141.4,179.3 C141.4,182.6 141.1,185.9 140.5,189 C138.6,199.6 133.4,209.5 125.6,217.8 C121.8,221.9 117.4,225.4 112.6,228.4 C110.7,229.6 108.8,230.5 107,231.5 C106.1,232 105.1,232.4 104.2,232.9 L103.1,233.5 L101.9,233.6 C101.3,233.6 100.6,233.8 100,234.1 C91.6,237.8 82.5,239.7 73,239.7 Z M49.8,224.5 C52.5,225.6 61.5,228.7 73,228.7 C81,228.7 88.6,227.2 95.5,224.1 C97,223.5 98.4,223 99.9,222.8 C100.6,222.4 101.3,222.1 102,221.7 C103.7,220.8 105.3,220 106.8,219.1 C110.8,216.6 114.4,213.7 117.6,210.3 C124,203.5 128.2,195.5 129.7,187 C130.2,184.5 130.4,181.9 130.4,179.2 C130.4,169.4 127.1,159.9 120.7,151.8 C115.1,144.6 112.8,135.5 114.4,126.8 L131.9,32.3 L14.1,32.3 L31.6,126.8 C33.2,135.5 30.9,144.5 25.3,151.7 C19,159.8 15.6,169.3 15.6,179.1 C15.6,197.9 28.2,215.2 47.7,223.5 L48.9,223.5 L49.8,224.5 Z" id="Shape" fill="#3A3033"></path>
                <path d="M73,239.7 C57.3,239.7 45.5,234.6 44.5,234.2 C20.3,224.4 4.7,202.9 4.7,179.4 C4.7,167.1 8.8,155.3 16.7,145.3 C20.4,140.6 21.9,134.6 20.8,129.1 L0.9,21.7 L145,21.7 L125.2,129 C124.2,134.6 125.7,140.5 129.4,145.2 C137.2,155.3 141.4,167.1 141.4,179.3 C141.4,182.6 141.1,185.9 140.5,189 C138.6,199.6 133.4,209.5 125.6,217.8 C121.8,221.9 117.4,225.4 112.6,228.4 C110.7,229.6 108.8,230.5 107,231.5 C106.1,232 105.1,232.4 104.2,232.9 L103.1,233.5 L101.9,233.6 C101.3,233.6 100.6,233.8 100,234.1 C91.6,237.8 82.5,239.7 73,239.7 Z M49.8,224.5 C52.5,225.6 61.5,228.7 73,228.7 C81,228.7 88.6,227.2 95.5,224.1 C97,223.5 98.4,223 99.9,222.8 C100.6,222.4 101.3,222.1 102,221.7 C103.7,220.8 105.3,220 106.8,219.1 C110.8,216.6 114.4,213.7 117.6,210.3 C124,203.5 128.2,195.5 129.7,187 C130.2,184.5 130.4,181.9 130.4,179.2 C130.4,169.4 127.1,159.9 120.7,151.8 C115.1,144.6 112.8,135.5 114.4,126.8 L131.9,32.3 L14.1,32.3 L31.6,126.8 C33.2,135.5 30.9,144.5 25.3,151.7 C19,159.8 15.6,169.3 15.6,179.1 C15.6,197.9 28.2,215.2 47.7,223.5 L48.9,223.5 L49.8,224.5 Z" id="Shape" fill="#3A3033"></path>
                <path d="M129.6,347.6 L12.2,347.6 L60.8,314.7 L85.6,314.7 L129.6,347.6 Z M47.9,336.7 L96.7,336.7 L82,325.7 L64.2,325.7 L47.9,336.7 Z" id="Shape" fill="#3A3033"></path>
                <path d="M133.9,81.9 L12.1,81.9 L1.5,24.3 L4.6,22.3 C6,21.4 39.8,0.3 73,0.3 C106.2,0.3 140,21.4 141.4,22.3 L144.5,24.3 L133.9,81.9 Z M21.2,71 L124.8,71 L132.4,29.8 C123.6,24.8 97.5,11.4 73,11.4 C48.4,11.4 22.4,24.8 13.6,29.8 L21.2,71 Z" id="Shape" fill="#3A3033"></path>
            </g>
            <rect id="Rectangle-path" fill="#FFFFFF" transform="translate(93.099750, 145.391980) rotate(-14.040412) translate(-93.099750, -145.391980) " x="82.4000241" y="134.692254" width="21.3994518" height="21.3994518"></rect>
            <rect id="Rectangle-path" fill="#FFFFFF" transform="translate(55.753825, 111.230375) rotate(17.530745) translate(-55.753825, -111.230375) " x="42.3046072" y="97.7811572" width="26.8984356" height="26.8984356"></rect>
        </g>
    </g>
</svg>