<?xml version="1.0" encoding="utf-8"?>
<!-- Generator: Adobe Illustrator 18.0.0, SVG Export Plug-In . SVG Version: 6.00 Build 0)  -->
<!DOCTYPE svg PUBLIC "-//W3C//DTD SVG 1.1//EN" "http://www.w3.org/Graphics/SVG/1.1/DTD/svg11.dtd">
<svg version="1.1" id="Layer_1" xmlns="http://www.w3.org/2000/svg" xmlns:xlink="http://www.w3.org/1999/xlink" x="0px" y="0px"
	 width="512px" height="512px" viewBox="0 0 512 512" enable-background="new 0 0 512 512" xml:space="preserve">
<g>
	<g>
		<path fill="#FFFFFF" d="M304.9,136.4h-44.1h-10h-44.1c-24.4,83.6-23.9,213.1-23.9,213.1h68h10h68
			C328.9,349.5,329.4,220,304.9,136.4z"/>
	</g>
	<g>
		<path fill="#FFFFFF" d="M255.9,114.7c-31,0-49,13.5-49,13.5v8.1h44h10h44v-8.1C304.9,128.3,287.9,114.7,255.9,114.7z"/>
	</g>
	<g>
		<path fill="#FFFFFF" d="M304.9,128.2v8.1h-98.1v-8.1c0,0,14.9-11.2,40.9-13.2c2.6-0.2,5.3-0.3,8.1-0.3c2.8,0,5.6,0.1,8.2,0.3
			C290.8,117,304.9,128.2,304.9,128.2z"/>
	</g>
	<g>
		<path fill="#FFFFFF" d="M130.4,143.5h15.3c0,0,5.4,81.3,41.3,101.8l-4,91.5c-20,0-71.2-46.1-52.6-161.7c4.6-28.5-12-31.6-12-31.6
			H130.4z"/>
	</g>
	<g>
		<path fill="#9D705C" d="M267.2,78.7L264,115c-2.6-0.2-5.3-0.3-8.2-0.3c-2.8,0-5.5,0.1-8.1,0.3l-3.2-36.3H267.2z"/>
	</g>
	<g>
		<g>
			<path fill="#9D705C" d="M347.6,327.6h-19.1l-0.8-22.2h9c3.7,0,7.1-1.9,9-5C368.1,263.9,369,211,367.7,184
				c-0.2-4.3-3.8-7.7-8.1-7.7l0,0c-1.7,0-3.3,0.5-4.6,1.5l-36.3,25.3l-3.8-23.6l28.4-20.1c4.8-3.4,10.5-5.2,16.4-5.2h16.8
				c5.5,0,10.2,4.1,10.9,9.6l0,0c0.5,4.2,12.8,103.3-31.4,159.9l0,0C354,326.1,350.9,327.6,347.6,327.6z"/>
		</g>
	</g>
	<g>
		<rect x="182.9" y="349.5" fill="#9D705C" width="146" height="70.1"/>
	</g>
	<g>
		<rect x="192.7" y="419.6" fill="#9D705C" width="126.4" height="13.7"/>
	</g>
	<g>
		<path fill="#3A3033" d="M334.4,425.1h-157V344h157V425.1z M188.3,414.1h135.1v-59.2H188.3V414.1z"/>
	</g>
	<g>
		<path fill="#3A3033" d="M324.5,438.7H187.2v-24.6h137.3V438.7z M198.2,427.8h115.4v-2.7H198.2V427.8z"/>
	</g>
	<g>
		<path fill="#3A3033" d="M334.3,354.9H177.4l0-5.4c0-1.3-0.2-131.2,24.2-214.6l1.2-3.9H309l1.2,3.9
			c24.4,83.4,24.2,213.3,24.2,214.6L334.3,354.9z M188.4,344h135c-0.3-24.9-2.5-130-22.6-202.1h-89.9C190.9,214,188.6,319,188.4,344
			z"/>
	</g>
	<g>
		<path fill="#3A3033" d="M310.4,141.9h-109v-16.3l2.2-1.6c0.8-0.6,19.8-14.6,52.3-14.6c33.5,0,51.7,14.1,52.4,14.7l2.1,1.6V141.9z
			 M212.8,130.9h86.3c-5.5-3.4-20.3-10.7-43.2-10.7C233.6,120.2,218.6,127.5,212.8,130.9z"/>
	</g>
	<g>
		<path fill="#3A3033" d="M310.4,141.9h-109v-16.3l2.2-1.6c0.7-0.5,16.5-12.2,43.8-14.3c5.9-0.5,11.9-0.4,17.2,0
			c28.1,2.1,43.2,13.9,43.9,14.4l2.1,1.6V141.9z M212.8,130.9h86.3c-4.9-3-17-9.1-35.5-10.4c-4.8-0.4-10.1-0.4-15.5,0
			C230.1,121.9,217.9,127.9,212.8,130.9z"/>
	</g>
	<g>
		<path fill="#3A3033" d="M242.8,120.9l-4.2-47.7h34.6l-4.2,47.6l-5.4-0.4c-4.7-0.4-10.1-0.4-15.4,0L242.8,120.9z M250.5,84.2
			l2.2,25.1c2.1-0.1,4.3-0.1,6.3,0l2.2-25.1H250.5z"/>
	</g>
	<g>
		<g>
			<path fill="#3A3033" d="M347.6,333.1h-24.3l-1.1-33.1h14.7c1.8,0,3.4-0.9,4.4-2.4c21.3-35,22.4-86.1,21.1-113.4
				c-0.1-1.4-1.2-2.5-2.6-2.5c-0.5,0-1.1,0.2-1.5,0.5l-43.5,30.3l-5.8-35.5l31.2-22.1c5.8-4.1,12.5-6.2,19.6-6.2h16.8
				c8.3,0,15.3,6.2,16.3,14.4c0.6,4.3,13.1,105.6-32.5,163.9C357.2,330.9,352.6,333.1,347.6,333.1z M333.9,322.2h13.8
				c1.6,0,3.1-0.7,4-2c22.1-28.3,29.2-68.1,31.3-96.6c2.4-32.2-0.9-58.1-1.1-59.2c-0.4-2.8-2.7-4.8-5.5-4.8h-16.8
				c-4.8,0-9.4,1.5-13.3,4.2L320.8,182l1.9,11.7l29.2-20.4c2.3-1.6,5-2.4,7.7-2.4c7.2,0,13.2,5.7,13.5,12.9
				c1.3,28.6,0.2,82.1-22.7,119.6c-2.9,4.7-8.1,7.6-13.7,7.6h-3.4L333.9,322.2z"/>
		</g>
	</g>
	<g>
		<path fill="#3A3033" d="M188.2,342.3H183c-9.6,0-21.5-7.2-31.9-19.4c-8.2-9.6-19.2-26.8-25.4-54.6c-6.1-27.3-6.4-58.9-0.7-94.1
			c3.6-22.4-7.3-25.3-7.7-25.4l1.1-10.8h32.4l0.3,5.1c0,0.2,1.4,20.2,7.1,42.4c7.3,28.4,18.1,47.4,31.5,55l2.9,1.7L188.2,342.3z
			 M132.9,148.9c3.7,6.8,4.7,15.8,2.9,27c-4.6,28.4-11.4,98.7,23.7,139.9c6.6,7.7,13.2,12.4,18.4,14.4l3.5-81.9
			c-30.6-20.8-38.9-81.1-40.7-99.3H132.9z"/>
	</g>
</g>
</svg>
