<?xml version="1.0" encoding="UTF-8"?>
<svg width="278px" height="366px" viewBox="0 0 278 366" version="1.1" xmlns="http://www.w3.org/2000/svg" xmlns:xlink="http://www.w3.org/1999/xlink">
    <!-- Generator: Sketch 51 (57462) - http://www.bohemiancoding.com/sketch -->
    <title>percolator</title>
    <desc>Created with Sketch.</desc>
    <defs></defs>
    <g id="Page-1" stroke="none" stroke-width="1" fill="none" fill-rule="evenodd">
        <g id="percolator" fill-rule="nonzero">
            <path d="M187.9,63.4 L143.8,63.4 L133.8,63.4 L89.7,63.4 C65.3,147 65.799225,276.5 65.799225,276.5 L133.8,276.5 L143.8,276.5 L211.8,276.5 C211.9,276.5 212.4,147 187.9,63.4 Z" id="Shape" fill="#FFFFFF"></path>
            <path d="M138.9,41.7 C107.9,41.7 89.9,55.2 89.9,55.2 L89.9,63.3 L133.9,63.3 L143.9,63.3 L187.9,63.3 L187.9,55.2 C187.9,55.3 170.9,41.7 138.9,41.7 Z" id="Shape" fill="#FFFFFF"></path>
            <path d="M187.9,55.2 L187.9,63.3 L89.8,63.3 L89.8,55.2 C89.8,55.2 104.7,44 130.7,42 C133.3,41.8 136,41.7 138.8,41.7 C141.6,41.7 144.4,41.8 147,42 C173.8,44 187.9,55.2 187.9,55.2 Z" id="Shape" fill="#FFFFFF"></path>
            <path d="M13.4,70.5 L28.7,70.5 C28.7,70.5 34.1,151.8 70,172.3 L66,263.8 C46,263.8 -5.2,217.7 13.4,102.1 C18,73.6 1.4,70.5 1.4,70.5 L13.4,70.5 Z" id="Shape" fill="#FFFFFF"></path>
            <path d="M150.2,5.7 L147,42 C144.4,41.8 141.7,41.7 138.8,41.7 C136,41.7 133.3,41.8 130.7,42 L127.5,5.7 L150.2,5.7 Z" id="Shape" fill="#9D705C"></path>
            <path d="M230.6,254.6 L211.5,254.6 L210.7,232.4 L219.7,232.4 C223.4,232.4 226.8,230.5 228.7,227.4 C251.1,190.9 252,138 250.7,111 C250.5,106.7 246.9,103.3 242.6,103.3 C240.9,103.3 239.3,103.8 238,104.8 L201.7,130.1 L197.9,106.5 L226.3,86.4 C231.1,83 236.8,81.2 242.7,81.2 L259.5,81.2 C265,81.2 269.7,85.3 270.4,90.8 C270.9,95 283.2,194.1 239,250.7 C237,253.1 233.9,254.6 230.6,254.6 Z" id="Shape" fill="#9D705C"></path>
            <rect id="Rectangle-path" fill="#9D705C" x="65.9" y="276.5" width="146" height="70.1"></rect>
            <rect id="Rectangle-path" fill="#9D705C" x="75.7" y="346.6" width="126.4" height="13.7"></rect>
            <path d="M217.4,352.1 L60.4,352.1 L60.4,271 L217.4,271 L217.4,352.1 Z M71.3,341.1 L206.4,341.1 L206.4,281.9 L71.3,281.9 L71.3,341.1 Z" id="Shape" fill="#3A3033"></path>
            <path d="M207.5,365.7 L70.2,365.7 L70.2,341.1 L207.5,341.1 L207.5,365.7 Z M81.2,354.8 L196.6,354.8 L196.6,352.1 L81.2,352.1 L81.2,354.8 Z" id="Shape" fill="#3A3033"></path>
            <path d="M217.3,281.9 L60.399948,281.9 L60.4,276.5 C60.4,275.2 60.2,145.3 84.6,61.9 L85.8,58 L192,58 L193.2,61.9 C217.6,145.3 217.4,275.2 217.4,276.5 L217.3,281.9 Z M71.4,271 L206.4,271 C206.1,246.1 203.9,141 183.8,68.9 L93.9,68.9 C73.9,141 71.6,246 71.4,271 Z" id="Shape" fill="#3A3033"></path>
            <path d="M193.4,68.9 L84.4,68.9 L84.4,52.6 L86.6,51 C87.4,50.4 106.4,36.4 138.9,36.4 C172.4,36.4 190.6,50.5 191.3,51.1 L193.4,52.7 L193.4,68.9 Z M95.8,57.9 L182.1,57.9 C176.6,54.5 161.8,47.2 138.9,47.2 C116.6,47.2 101.6,54.5 95.8,57.9 Z" id="Shape" fill="#3A3033"></path>
            <path d="M193.4,68.9 L84.4,68.9 L84.4,52.6 L86.6,51 C87.3,50.5 103.1,38.8 130.4,36.7 C136.3,36.2 142.3,36.3 147.6,36.7 C175.7,38.8 190.8,50.6 191.5,51.1 L193.6,52.7 L193.6,68.9 L193.4,68.9 Z M95.8,57.9 L182.1,57.9 C177.2,54.9 165.1,48.8 146.6,47.5 C141.8,47.1 136.5,47.1 131.1,47.5 C113.1,48.9 100.9,54.9 95.8,57.9 Z" id="Shape" fill="#3A3033"></path>
            <path d="M125.8,47.9 L121.6,0.2 L156.2,0.2 L152,47.8 L146.6,47.4 C141.9,47 136.5,47 131.2,47.4 L125.8,47.9 Z M133.5,11.2 L135.7,36.3 C137.8,36.2 140,36.2 142,36.3 L144.2,11.2 L133.5,11.2 Z" id="Shape" fill="#3A3033"></path>
            <path d="M230.6,260.1 L206.3,260.1 L205.2,227 L219.9,227 C221.7,227 223.3,226.1 224.3,224.6 C245.6,189.6 246.7,138.5 245.4,111.2 C245.3,109.8 244.2,108.7 242.8,108.7 C242.3,108.7 241.7,108.9 241.3,109.2 L197.8,139.5 L192,104 L223.2,81.9 C229,77.8 235.7,75.7 242.8,75.7 L259.6,75.7 C267.9,75.7 274.9,81.9 275.9,90.1 C276.5,94.4 289,195.7 243.4,254 C240.2,257.9 235.6,260.1 230.6,260.1 Z M216.9,249.2 L230.7,249.2 C232.3,249.2 233.8,248.5 234.7,247.2 C256.8,218.9 263.9,179.1 266,150.6 C268.4,118.4 265.1,92.5 264.9,91.4 C264.5,88.6 262.2,86.6 259.4,86.6 L242.6,86.6 C237.8,86.6 233.2,88.1 229.3,90.8 L203.8,109 L205.7,120.7 L234.9,100.3 C237.2,98.7 239.9,97.9 242.6,97.9 C249.8,97.9 255.8,103.6 256.1,110.8 C257.4,139.4 256.3,192.9 233.4,230.4 C230.5,235.1 225.3,238 219.7,238 L216.3,238 L216.9,249.2 Z" id="Shape" fill="#3A3033"></path>
            <path d="M71.2,269.3 L66,269.3 C56.4,269.3 44.5,262.1 34.1,249.9 C25.9,240.3 14.9,223.1 8.7,195.3 C2.6,168 2.3,136.4 8,101.2 C11.6,78.8 0.7,75.9 0.3,75.8 L1.4,65 L33.8,65 L34.1,70.1 C34.1,70.3 35.5,90.3 41.2,112.5 C48.5,140.9 59.3,159.9 72.7,167.5 L75.6,169.2 L71.2,269.3 Z M15.9,75.9 C19.6,82.7 20.6,91.7 18.8,102.9 C14.2,131.3 7.4,201.6 42.5,242.8 C49.1,250.5 55.7,255.2 60.9,257.2 L64.4,175.3 C33.8,154.5 25.5,94.2 23.7,76 L15.9,76 L15.9,75.9 Z" id="Shape" fill="#3A3033"></path>
        </g>
    </g>
</svg>