<?xml version="1.0" encoding="UTF-8"?>
<svg width="386px" height="298px" viewBox="0 0 386 298" version="1.1" xmlns="http://www.w3.org/2000/svg" xmlns:xlink="http://www.w3.org/1999/xlink">
    <!-- Generator: Sketch 51 (57462) - http://www.bohemiancoding.com/sketch -->
    <title>porcelain teapot</title>
    <desc>Created with Sketch.</desc>
    <defs></defs>
    <g id="Page-1" stroke="none" stroke-width="1" fill="none" fill-rule="evenodd">
        <g id="porcelain-teapot" fill-rule="nonzero">
            <path d="M239.9,51.5 C220.5,51.8 205.1,43.3 196.4,37 C191.6,33.5 185.1,33.5 180.3,37 C171.6,43.3 156.2,51.8 136.8,51.5 C105.8,51.1 114.1,71.5 114.1,71.5 L188.3,71.5 L262.5,71.5 C262.5,71.5 270.9,51.1 239.9,51.5 Z" id="Shape" fill="#FFFFFF"></path>
            <circle id="Oval" fill="#FFFFFF" cx="188.8" cy="20" r="14.3"></circle>
            <path d="M271.9,115.3 L263.6,111.7 L188.9,111.7 L114.2,111.7 L105.9,115.3 C100,117.8 94.8,121.8 90.7,126.9 C82.2,137.5 69.5,157.7 69.5,183.4 C69.5,222.1 104.3,272.9 133.4,292.3 L189,292.3 L244.6,292.3 C273.7,272.9 308.5,222.2 308.5,183.4 C308.5,157.6 295.8,137.5 287.3,126.9 C283,121.9 277.8,117.9 271.9,115.3 Z" id="Shape" fill="#FFFFFF"></path>
            <rect id="Rectangle-path" fill="#CD9E5D" x="114.1" y="71.5" width="149.5" height="40.3"></rect>
            <path d="M379.2,156.2 C378.8,160.9 378.1,165.5 377.4,170.1 C376.7,174.7 375.6,179.2 374.3,183.7 C370.7,196.6 364,209 354.4,218.4 C348.3,224.4 341.6,228.9 334.9,231.9 C324.6,236.7 313.1,239.3 301.7,239.8 C299.7,239.9 297.9,240 296.3,240 C294.7,240 293.4,240 292.3,240 C291.4,240 290.7,240 290.2,240 C292.4,236.2 294.5,232.3 296.4,228.3 C297.6,228.2 299,228 300.6,227.9 C302.4,227.7 304.4,227.3 306.6,227 C307.7,226.8 308.8,226.5 309.9,226.3 C311.1,226.1 312.2,225.8 313.4,225.4 C318.2,224.1 323.5,222.2 328.7,219.4 C333.9,216.6 339,212.7 343.4,207.8 C356.1,193.6 359.9,173.9 359.9,155.4 C359.9,141.5 358.7,124.8 347.9,114.7 C345.5,112.5 343,110.6 340.2,109 C337.4,107.5 334.5,106.3 331.6,105.5 C328.6,104.8 325.7,104.2 322.8,104.1 C317,103.8 311.6,104.8 307,106.5 C298.5,109.8 292.5,116 288.3,123.9 C288.2,124.1 288.1,124.3 288,124.5 C287.9,124.7 287.8,125.1 287.6,125.4 C287.4,125.9 287.2,126.3 287,126.8 C287,126.7 286.9,126.7 286.9,126.6 C282.9,121.7 277.8,117.9 272,115.4 L263.7,111.8 L262.7,111.8 C262.7,111.7 262.8,111.7 262.8,111.6 C272.9,98.1 282,87.1 298.8,81.9 C306.8,79.5 315.8,78.5 325.1,79.6 C329.7,80.1 334.4,81.3 339,82.8 C343.6,84.4 348.1,86.6 352.4,89.3 C356.7,92 360.6,95.4 364.2,99.3 C367.8,103.1 370.7,107.6 373.2,112.4 C379.9,125.8 380.6,141.2 379.2,156.2 Z" id="Shape" fill="#CD9E5D"></path>
            <path d="M76.8,218.4 C6.9,210.1 5.4,156 16.7,122.7 C29,86.7 3,75.1 3,75.1 L26.1,75.1 C36.2,78 49,88.1 45.4,109 C41.8,129.9 38.7,161.5 58.6,170.4 C63,172.4 67.1,172 70.3,171.1 C69.7,175 69.3,179.2 69.3,183.4 C69.3,194.5 72.1,206.5 76.8,218.4 Z" id="Shape" fill="#CD9E5D"></path>
            <path d="M269,117.2 L108.6,117.2 L108.6,66 L269,66 L269,117.2 Z M119.5,106.3 L258.1,106.3 L258.1,76.9 L119.5,76.9 L119.5,106.3 Z" id="Shape" fill="#3A3033"></path>
            <path d="M266.2,76.9 L110.4,76.9 L109,73.5 C107.5,69.9 106.2,62.1 110.5,55.7 C114.8,49.2 123.4,46 135.8,46 L137.5,46 C154.7,46 168.5,38.7 176.9,32.5 C180.2,30.1 184.1,28.8 188.2,28.8 C192.3,28.8 196.2,30.1 199.5,32.5 C208,38.7 221.7,46 238.9,46 L240.6,46 C253.1,46 261.6,49.3 265.9,55.7 C270.2,62.1 268.9,69.9 267.4,73.5 L266.2,76.9 Z M118.5,66 L258.1,66 C258.1,64.6 257.9,63.1 257,61.8 C254.9,58.7 249.1,57 240.8,57 L239.1,57 C218.9,57 203,48.5 193.2,41.4 C190.4,39.3 186.3,39.3 183.5,41.4 C173.7,48.5 157.8,57 137.6,57 L135.9,57 C127.6,57 121.8,58.7 119.7,61.8 C118.7,63.1 118.5,64.6 118.5,66 Z" id="Shape" fill="#3A3033"></path>
            <path d="M188.8,39.8 C177.9,39.8 169,30.9 169,20 C169,9.1 177.9,0.2 188.8,0.2 C199.7,0.2 208.6,9.1 208.6,20 C208.6,30.9 199.7,39.8 188.8,39.8 Z M188.8,11.1 C183.9,11.1 180,15.1 180,19.9 C180,24.8 184,28.7 188.8,28.7 C193.7,28.7 197.6,24.7 197.6,19.9 C197.6,15.1 193.7,11.1 188.8,11.1 Z" id="Shape" fill="#3A3033"></path>
            <path d="M246.1,297.8 L131.5,297.8 L130.1,296.9 C98.8,276 63.8,223.1 63.8,183.5 C63.8,155.6 77.8,134 86.2,123.5 C90.8,117.8 96.8,113.2 103.5,110.3 L112.9,106.3 L264.6,106.3 L274,110.3 C280.7,113.2 286.7,117.7 291.3,123.5 C299.7,133.9 313.7,155.6 313.7,183.5 C313.7,223.1 278.7,276.1 247.4,296.9 L246.1,297.8 Z M134.9,286.9 L242.7,286.9 C270.8,267.3 302.8,218.6 302.8,183.5 C302.8,159 290.3,139.7 282.8,130.4 C279.3,126.1 274.8,122.6 269.7,120.4 L262.4,117.3 L115.2,117.3 L107.9,120.4 C102.8,122.6 98.3,126 94.8,130.4 C87.3,139.7 74.8,159 74.8,183.5 C74.8,218.6 106.8,267.3 134.9,286.9 Z" id="Shape" fill="#3A3033"></path>
            <path d="M294.9,245.5 L280.8,245.5 L285.6,237.3 C287.7,233.6 289.7,229.8 291.6,226 L292.9,223.3 L295.9,223 C297.2,222.9 298.6,222.7 300.1,222.5 C301.1,222.4 302.3,222.2 303.5,222 C304.2,221.9 304.9,221.8 305.6,221.7 L308.8,221 C309.9,220.8 310.9,220.5 311.9,220.3 L312.1,220.2 C317,218.9 321.8,217.1 326.1,214.7 C330.9,212.1 335.5,208.5 339.3,204.3 C349.3,193.2 354.4,176.8 354.4,155.6 C354.4,142.2 353.2,127.3 344.1,119 C341.9,117 339.7,115.3 337.5,114.1 C335,112.8 332.5,111.8 330,111.1 C327.1,110.4 324.7,110 322.4,109.9 C321.8,109.9 321.2,109.9 320.6,109.9 C316.5,109.9 312.4,110.6 308.8,112 C302.1,114.6 296.9,119.4 293,126.8 C292.9,127 292.8,127.1 292.8,127.2 L292,129.1 L288.5,137.5 L282.5,130.3 C279.1,126.1 274.7,122.8 269.7,120.7 L262.4,117.6 L253.7,117.6 L257.7,109.7 C257.8,109.4 258,109.1 258.3,108.7 C269.2,94.1 278.9,82.6 297.1,77 C306.2,74.2 316,73.4 325.6,74.5 C330.3,75 335.2,76.2 340.6,77.9 C345.6,79.7 350.5,82 355.2,85 C359.8,88 364.2,91.6 368.1,95.9 C371.8,99.9 375.1,104.7 377.9,110.2 C384.4,122.8 386.5,137.7 384.7,157.1 C384.3,161.4 383.7,166.1 382.8,171.3 C382,176.1 380.9,180.9 379.5,185.6 C375.5,200.1 368.1,212.9 358.2,222.7 C352,228.8 344.7,233.8 337.2,237.3 C326.5,242.3 314.3,245.2 302,245.7 L299.9,245.8 C298.7,245.9 297.6,245.9 296.6,245.9 C296,245.5 295.4,245.5 294.9,245.5 Z M300,233.5 C299.8,233.8 299.7,234.1 299.5,234.5 L301.5,234.4 C312.4,233.9 323.1,231.4 332.6,227 C339,224.1 345.2,219.8 350.5,214.6 C358.9,206.3 365.5,194.9 368.9,182.3 C370.2,178 371.2,173.7 371.9,169.3 C372.7,164.3 373.3,159.9 373.7,155.8 C375.3,138.6 373.5,125.5 368,114.9 C365.6,110.3 362.9,106.3 359.9,103.1 C356.6,99.5 352.9,96.5 349.1,94 C345.2,91.5 341,89.5 336.9,88 C332.4,86.5 328.2,85.5 324.2,85.1 C316,84.1 307.8,84.9 300.1,87.2 C287.3,91.2 279.5,98.9 271.3,109.3 L274,110.4 C278.2,112.2 282.1,114.6 285.6,117.6 C290.5,110 297,104.6 304.9,101.6 C310.5,99.5 316.6,98.5 322.9,98.8 C325.8,98.9 329,99.4 332.8,100.4 C336.2,101.4 339.5,102.7 342.7,104.4 C345.8,106.1 348.8,108.3 351.6,110.9 C363.7,122.1 365.4,139.8 365.4,155.6 C365.4,179.6 359.4,198.5 347.5,211.7 C342.8,217 337.3,221.3 331.3,224.5 C326.2,227.3 320.7,229.4 314.9,230.9 C313.6,231.3 312.3,231.6 311,231.8 L307.4,232.6 C306.6,232.7 305.9,232.8 305.2,233 C303.8,233.2 302.5,233.4 301.3,233.6 C300.9,233.4 300.5,233.4 300,233.5 Z" id="Shape" fill="#3A3033"></path>
            <path d="M76.2,223.9 C47.8,220.5 27.6,209.6 16.1,191.5 C4.5,173.1 2.8,146.8 11.5,121.1 C21.9,90.4 1.6,80.6 0.7,80.2 L3,69.8 L26.1,69.8 L27.6,70 C40.8,73.8 54.9,86.5 50.8,110.1 C45.3,142 48.6,160.1 60.8,165.5 C63.3,166.6 66,166.7 68.7,165.9 L75.6,172 C75,175.8 74.7,179.6 74.7,183.5 C74.7,193.3 77.1,204.4 81.8,216.5 L76.2,223.9 Z M17.8,80.6 C24.6,89.7 28.8,104.1 21.9,124.5 C19,133 10.8,162.4 25.4,185.6 C33.8,199 48.4,207.7 68.7,211.6 C65.5,201.6 63.9,192.1 63.9,183.4 C63.9,181.4 64,179.3 64.1,177.3 C61.5,177.2 58.9,176.5 56.4,175.4 C30.4,163.9 37.7,121.9 40,108.1 C43.4,88.1 29.6,82 25.3,80.6 L17.8,80.6 Z" id="Shape" fill="#3A3033"></path>
        </g>
    </g>
</svg>