<?xml version="1.0" encoding="utf-8"?>
<!-- Generator: Adobe Illustrator 18.0.0, SVG Export Plug-In . SVG Version: 6.00 Build 0)  -->
<!DOCTYPE svg PUBLIC "-//W3C//DTD SVG 1.1//EN" "http://www.w3.org/Graphics/SVG/1.1/DTD/svg11.dtd">
<svg version="1.1" id="Layer_1" xmlns="http://www.w3.org/2000/svg" xmlns:xlink="http://www.w3.org/1999/xlink" x="0px" y="0px"
	 width="512px" height="512px" viewBox="0 0 512 512" enable-background="new 0 0 512 512" xml:space="preserve">
<g>
	<g>
		<path fill="#FFFFFF" d="M302.9,158.5c-19.4,0.3-34.8-8.2-43.5-14.5c-4.8-3.5-11.3-3.5-16.1,0c-8.7,6.3-24.1,14.8-43.5,14.5
			c-31-0.4-22.7,20-22.7,20h74.2h74.2C325.5,178.5,333.9,158.1,302.9,158.5z"/>
	</g>
	<g>
		<circle fill="#FFFFFF" cx="251.8" cy="127" r="14.3"/>
	</g>
	<g>
		<path fill="#FFFFFF" d="M334.9,222.3l-8.3-3.6h-74.7h-74.7l-8.3,3.6c-5.9,2.5-11.1,6.5-15.2,11.6c-8.5,10.6-21.2,30.8-21.2,56.5
			c0,38.7,34.8,89.5,63.9,108.9h55.6h55.6c29.1-19.4,63.9-70.1,63.9-108.9c0-25.8-12.7-45.9-21.2-56.5
			C346,228.9,340.8,224.9,334.9,222.3z"/>
	</g>
	<g>
		<rect x="177.1" y="178.5" fill="#CD9E5D" width="149.5" height="40.3"/>
	</g>
	<g>
		<path fill="#CD9E5D" d="M442.2,263.2c-0.4,4.7-1.1,9.3-1.8,13.9c-0.7,4.6-1.8,9.1-3.1,13.6c-3.6,12.9-10.3,25.3-19.9,34.7
			c-6.1,6-12.8,10.5-19.5,13.5c-10.3,4.8-21.8,7.4-33.2,7.9c-2,0.1-3.8,0.2-5.4,0.2c-1.6,0-2.9,0-4,0c-0.9,0-1.6,0-2.1,0
			c2.2-3.8,4.3-7.7,6.2-11.7c1.2-0.1,2.6-0.3,4.2-0.4c1.8-0.2,3.8-0.6,6-0.9c1.1-0.2,2.2-0.5,3.3-0.7c1.2-0.2,2.3-0.5,3.5-0.9
			c4.8-1.3,10.1-3.2,15.3-6c5.2-2.8,10.3-6.7,14.7-11.6c12.7-14.2,16.5-33.9,16.5-52.4c0-13.9-1.2-30.6-12-40.7
			c-2.4-2.2-4.9-4.1-7.7-5.7c-2.8-1.5-5.7-2.7-8.6-3.5c-3-0.7-5.9-1.3-8.8-1.4c-5.8-0.3-11.2,0.7-15.8,2.4
			c-8.5,3.3-14.5,9.5-18.7,17.4c-0.1,0.2-0.2,0.4-0.3,0.6c-0.1,0.2-0.2,0.6-0.4,0.9c-0.2,0.5-0.4,0.9-0.6,1.4c0-0.1-0.1-0.1-0.1-0.2
			c-4-4.9-9.1-8.7-14.9-11.2l-8.3-3.6h-1c0-0.1,0.1-0.1,0.1-0.2c10.1-13.5,19.2-24.5,36-29.7c8-2.4,17-3.4,26.3-2.3
			c4.6,0.5,9.3,1.7,13.9,3.2c4.6,1.6,9.1,3.8,13.4,6.5c4.3,2.7,8.2,6.1,11.8,10c3.6,3.8,6.5,8.3,9,13.1
			C442.9,232.8,443.6,248.2,442.2,263.2z"/>
	</g>
	<g>
		<path fill="#CD9E5D" d="M139.8,325.4c-69.9-8.3-71.4-62.4-60.1-95.7C92,193.7,66,182.1,66,182.1h23.1c10.1,2.9,22.9,13,19.3,33.9
			c-3.6,20.9-6.7,52.5,13.2,61.4c4.4,2,8.5,1.6,11.7,0.7c-0.6,3.9-1,8.1-1,12.3C132.3,301.5,135.1,313.5,139.8,325.4z"/>
	</g>
	<g>
		<path fill="#3A3033" d="M332,224.2H171.6V173H332V224.2z M182.5,213.3h138.6v-29.4H182.5V213.3z"/>
	</g>
	<g>
		<path fill="#3A3033" d="M329.2,183.9H173.4l-1.4-3.4c-1.5-3.6-2.8-11.4,1.5-17.8c4.3-6.5,12.9-9.7,25.3-9.7l1.7,0
			c17.2,0,31-7.3,39.4-13.5c3.3-2.4,7.2-3.7,11.3-3.7c4.1,0,8,1.3,11.3,3.7c8.5,6.2,22.2,13.5,39.4,13.5l1.7,0
			c12.5,0,21,3.3,25.3,9.7c4.3,6.4,3,14.2,1.5,17.8L329.2,183.9z M181.5,173h139.6c0-1.4-0.2-2.9-1.1-4.2c-2.1-3.1-7.9-4.8-16.2-4.8
			l-1.7,0c-20.2,0-36.1-8.5-45.9-15.6c-2.8-2.1-6.9-2.1-9.7,0c-9.8,7.1-25.7,15.6-45.9,15.6l-1.7,0c-8.3,0-14.1,1.7-16.2,4.8
			C181.7,170.1,181.5,171.6,181.5,173z"/>
	</g>
	<g>
		<path fill="#3A3033" d="M251.8,146.8c-10.9,0-19.8-8.9-19.8-19.8s8.9-19.8,19.8-19.8c10.9,0,19.8,8.9,19.8,19.8
			S262.7,146.8,251.8,146.8z M251.8,118.1c-4.9,0-8.8,4-8.8,8.8c0,4.9,4,8.8,8.8,8.8c4.9,0,8.8-4,8.8-8.8
			C260.6,122.1,256.7,118.1,251.8,118.1z"/>
	</g>
	<g>
		<path fill="#3A3033" d="M309.1,404.8H194.5l-1.4-0.9c-31.3-20.9-66.3-73.8-66.3-113.4c0-27.9,14-49.5,22.4-60
			c4.6-5.7,10.6-10.3,17.3-13.2l9.4-4h151.7l9.4,4c6.7,2.9,12.7,7.4,17.3,13.2c8.4,10.4,22.4,32.1,22.4,60
			c0,39.6-35,92.6-66.3,113.4L309.1,404.8z M197.9,393.9h107.8c28.1-19.6,60.1-68.3,60.1-103.4c0-24.5-12.5-43.8-20-53.1
			c-3.5-4.3-8-7.8-13.1-10l-7.3-3.1H178.2l-7.3,3.1c-5.1,2.2-9.6,5.6-13.1,10c-7.5,9.3-20,28.6-20,53.1
			C137.8,325.6,169.8,374.3,197.9,393.9z"/>
	</g>
	<g>
		<path fill="#3A3033" d="M357.9,352.5l-14.1,0l4.8-8.2c2.1-3.7,4.1-7.5,6-11.3l1.3-2.7l3-0.3c1.3-0.1,2.7-0.3,4.2-0.5
			c1-0.1,2.2-0.3,3.4-0.5c0.7-0.1,1.4-0.2,2.1-0.3l3.2-0.7c1.1-0.2,2.1-0.5,3.1-0.7l0.2-0.1c4.9-1.3,9.7-3.1,14-5.5
			c4.8-2.6,9.4-6.2,13.2-10.4c10-11.1,15.1-27.5,15.1-48.7c0-13.4-1.2-28.3-10.3-36.6c-2.2-2-4.4-3.7-6.6-4.9c-2.5-1.3-5-2.3-7.5-3
			c-2.9-0.7-5.3-1.1-7.6-1.2c-0.6,0-1.2,0-1.8,0c-4.1,0-8.2,0.7-11.8,2.1c-6.7,2.6-11.9,7.4-15.8,14.8c-0.1,0.2-0.2,0.3-0.2,0.4
			l-0.8,1.9l-3.5,8.4l-6-7.2c-3.4-4.2-7.8-7.5-12.8-9.6l-7.3-3.1h-8.7l4-7.9c0.1-0.3,0.3-0.6,0.6-1c10.9-14.6,20.6-26.1,38.8-31.7
			c9.1-2.8,18.9-3.6,28.5-2.5c4.7,0.5,9.6,1.7,15,3.4c5,1.8,9.9,4.1,14.6,7.1c4.6,3,9,6.6,12.9,10.9c3.7,4,7,8.8,9.8,14.3
			c6.5,12.6,8.6,27.5,6.8,46.9c-0.4,4.3-1,9-1.9,14.2c-0.8,4.8-1.9,9.6-3.3,14.3c-4,14.5-11.4,27.3-21.3,37.1
			c-6.2,6.1-13.5,11.1-21,14.6c-10.7,5-22.9,7.9-35.2,8.4l-2.1,0.1c-1.2,0.1-2.3,0.1-3.3,0.1C359,352.5,358.4,352.5,357.9,352.5z
			 M363,340.5c-0.2,0.3-0.3,0.6-0.5,1l2-0.1c10.9-0.5,21.6-3,31.1-7.4c6.4-2.9,12.6-7.2,17.9-12.4c8.4-8.3,15-19.7,18.4-32.3
			c1.3-4.3,2.3-8.6,3-13c0.8-5,1.4-9.4,1.8-13.5c1.6-17.2-0.2-30.3-5.7-40.9c-2.4-4.6-5.1-8.6-8.1-11.8c-3.3-3.6-7-6.6-10.8-9.1
			c-3.9-2.5-8.1-4.5-12.2-6c-4.5-1.5-8.7-2.5-12.7-2.9c-8.2-1-16.4-0.2-24.1,2.1c-12.8,4-20.6,11.7-28.8,22.1l2.7,1.1
			c4.2,1.8,8.1,4.2,11.6,7.2c4.9-7.6,11.4-13,19.3-16c5.6-2.1,11.7-3.1,18-2.8c2.9,0.1,6.1,0.6,9.9,1.6c3.4,1,6.7,2.3,9.9,4
			c3.1,1.7,6.1,3.9,8.9,6.5c12.1,11.2,13.8,28.9,13.8,44.7c0,24-6,42.9-17.9,56.1c-4.7,5.3-10.2,9.6-16.2,12.8
			c-5.1,2.8-10.6,4.9-16.4,6.4c-1.3,0.4-2.6,0.7-3.9,0.9l-3.6,0.8c-0.8,0.1-1.5,0.2-2.2,0.4c-1.4,0.2-2.7,0.4-3.9,0.6
			C363.9,340.4,363.5,340.4,363,340.5z"/>
	</g>
	<g>
		<path fill="#3A3033" d="M139.2,330.9c-28.4-3.4-48.6-14.3-60.1-32.4c-11.6-18.4-13.3-44.7-4.6-70.4c10.4-30.7-9.9-40.5-10.8-40.9
			l2.3-10.4h23.1l1.5,0.2c13.2,3.8,27.3,16.5,23.2,40.1c-5.5,31.9-2.2,50,10,55.4c2.5,1.1,5.2,1.2,7.9,0.4l6.9,6.1
			c-0.6,3.8-0.9,7.6-0.9,11.5c0,9.8,2.4,20.9,7.1,33L139.2,330.9z M80.8,187.6c6.8,9.1,11,23.5,4.1,43.9
			c-2.9,8.5-11.1,37.9,3.5,61.1c8.4,13.4,23,22.1,43.3,26c-3.2-10-4.8-19.5-4.8-28.2c0-2,0.1-4.1,0.2-6.1c-2.6-0.1-5.2-0.8-7.7-1.9
			c-26-11.5-18.7-53.5-16.4-67.3c3.4-20-10.4-26.1-14.7-27.5H80.8z"/>
	</g>
</g>
</svg>
