<?xml version="1.0" encoding="UTF-8"?>
<svg width="330px" height="330px" viewBox="0 0 330 330" version="1.1" xmlns="http://www.w3.org/2000/svg" xmlns:xlink="http://www.w3.org/1999/xlink">
    <!-- Generator: Sketch 51 (57462) - http://www.bohemiancoding.com/sketch -->
    <title>portafilter</title>
    <desc>Created with Sketch.</desc>
    <defs></defs>
    <g id="Page-1" stroke="none" stroke-width="1" fill="none" fill-rule="evenodd">
        <g id="portafilter" fill-rule="nonzero">
            <path d="M169.2,186.5 L83.3,274.3 C78.4,279.3 75.3,285.5 74.7,291.7 L74.1,297.4 C73.2,306.1 67.4,315.1 58.5,320.2 C55.2,322.1 51.6,323.2 48.1,323.7 L46.4,323.9 C44.4,324.2 42.4,324.3 40.5,324.3 C30.6,324.3 21.7,320.9 15.4,314.6 C7.8,307 4.5,295.9 6.1,283.6 L6.4,281.5 C7.5,272.8 13.6,263.9 22.6,259.1 C26,257.3 29.6,256.2 33,255.9 L38.4,255.4 C44.5,254.8 50.8,251.7 55.8,246.8 L143.6,160.9 L146.2,163.5 L166.7,184 L169.2,186.5 Z" id="Shape" fill="#9D705C"></path>
            <g id="Group">
                <g transform="translate(142.000000, 7.000000)" fill="#FFFFFF">
                    <circle id="Oval" cx="90.2" cy="91.8" r="72.6"></circle>
                    <circle id="Oval" cx="90.2" cy="91.8" r="55.2"></circle>
                    <polyline id="Shape" points="162.7 95.4 180.9 113.6 154.1 155.7 114.1 180.5 99 165.4"></polyline>
                    <polyline id="Shape" points="85.6 18.3 67.4 0.1 26.3 25.8 0.5 66.9 15.6 82"></polyline>
                </g>
                <polyline id="Shape" fill="#FFFFFF" points="170.1 139.4 146.1 163.4 166.5 183.9 190.6 159.9"></polyline>
                <g transform="translate(135.000000, 0.000000)" fill="#3A3033" id="Shape">
                    <path d="M97.2,176.9 C76.3,176.9 56.7,168.8 42,154 C27.3,139.3 19.1,119.6 19.1,98.8 C19.1,78 27.2,58.3 42,43.6 C56.7,28.9 76.4,20.7 97.2,20.7 C118.1,20.7 137.7,28.8 152.4,43.6 C167.1,58.3 175.3,78 175.3,98.8 C175.3,119.6 167.2,139.3 152.4,154 C137.6,168.7 118,176.9 97.2,176.9 Z M97.2,31.6 C79.3,31.6 62.4,38.6 49.7,51.3 C37,64 30,80.9 30,98.8 C30,116.7 37,133.6 49.7,146.3 C62.4,159 79.2,166 97.2,166 C115.1,166 132,159 144.7,146.3 C157.4,133.6 164.4,116.8 164.4,98.8 C164.4,80.9 157.4,64 144.7,51.3 C132,38.6 115.1,31.6 97.2,31.6 Z"></path>
                    <path d="M97.2,159.5 C81,159.5 65.8,153.2 54.3,141.7 C30.6,118 30.6,79.6 54.3,55.9 C65.8,44.4 81,38.1 97.2,38.1 C113.4,38.1 128.6,44.4 140.1,55.9 C151.6,67.4 157.9,82.6 157.9,98.8 C157.9,115 151.6,130.2 140.1,141.7 C128.6,153.1 113.4,159.5 97.2,159.5 Z M97.2,49.1 C83.9,49.1 71.4,54.3 62,63.7 C42.6,83.1 42.6,114.6 62,134 C71.4,143.4 83.9,148.6 97.2,148.6 C110.5,148.6 123,143.4 132.4,134 C141.8,124.6 147,112.1 147,98.8 C147,85.5 141.8,73 132.4,63.6 C122.9,54.2 110.4,49.1 97.2,49.1 Z"></path>
                    <polygon points="120.3 194.4 102.1 176.3 109.9 168.5 121.9 180.5 157.2 158.7 180.9 121.4 165.8 106.3 173.5 98.5 194.9 119.9 165 166.7"></polygon>
                    <polygon points="18.7 92.9 0.6 74.7 29.3 28.9 75.2 0.1 96.4 21.4 88.7 29.2 73.6 14 37.3 36.8 14.5 73.1 26.5 85.1"></polygon>
                </g>
                <polygon id="Shape" fill="#3A3033" points="166.5 191.7 138.3 163.4 166.2 135.5 174 143.3 153.8 163.4 166.5 176.2 186.7 156 194.4 163.8"></polygon>
                <path d="M40.4,329.9 C29,329.9 18.8,325.9 11.5,318.6 C2.8,309.9 -1.2,296.9 0.6,283 L0.9,280.9 C2.3,270.2 9.6,260 19.9,254.4 C23.8,252.3 28,251 32.4,250.5 L37.8,250 C42.7,249.5 47.8,247 51.9,242.9 L143.6,153.2 L176.9,186.5 L87.2,278.1 C83.2,282.2 80.6,287.3 80.1,292.2 L79.5,297.9 C78.4,308.7 71.4,319 61.2,324.9 C57.4,327.1 53.2,328.5 48.8,329.1 L47.1,329.3 C44.8,329.7 42.5,329.9 40.4,329.9 Z M143.4,168.5 L59.5,250.6 C53.6,256.4 46.3,260 38.8,260.7 L33.4,261.2 C30.4,261.5 27.6,262.3 25,263.8 C17.8,267.7 12.6,274.9 11.6,282.1 L11.3,284.2 C9.9,294.9 12.7,304.3 19,310.7 C24.2,315.9 31.7,318.8 40.2,318.8 C40.2,318.8 40.2,318.8 40.2,318.8 C41.9,318.8 43.7,318.7 45.5,318.5 L47.2,318.3 C50.2,317.9 53,317 55.6,315.5 C62.7,311.4 67.8,304.1 68.5,296.9 L69.1,291.2 C69.8,283.8 73.4,276.4 79.3,270.5 L161.4,186.6 L143.4,168.5 Z" id="Shape" fill="#3A3033"></path>
                <circle id="Oval" fill="#3A3033" cx="231.8" cy="98.5" r="6.3"></circle>
                <circle id="Oval" fill="#3A3033" cx="211" cy="77.6" r="6.3"></circle>
                <circle id="Oval" fill="#3A3033" cx="252.4" cy="119" r="6.3"></circle>
                <circle id="Oval" fill="#3A3033" cx="231.7" cy="69" r="6.3"></circle>
                <circle id="Oval" fill="#3A3033" cx="231.7" cy="127.6" r="6.3"></circle>
                <path d="M208.7,98.3 C208.7,101.8 205.9,104.6 202.4,104.6 C198.9,104.6 196.1,101.8 196.1,98.3 C196.1,94.8 198.9,92 202.4,92 C205.9,92 208.7,94.8 208.7,98.3 Z" id="Shape" fill="#3A3033"></path>
                <path d="M267.2,98.3 C267.2,101.8 264.4,104.6 260.9,104.6 C257.4,104.6 254.6,101.8 254.6,98.3 C254.6,94.8 257.4,92 260.9,92 C264.4,92 267.2,94.9 267.2,98.3 Z" id="Shape" fill="#3A3033"></path>
                <circle id="Oval" fill="#3A3033" cx="252.5" cy="77.8" r="6.3"></circle>
                <circle id="Oval" fill="#3A3033" cx="212.7" cy="117.5" r="6.3"></circle>
            </g>
        </g>
    </g>
</svg>