<?xml version="1.0" encoding="utf-8"?>
<!-- Generator: Adobe Illustrator 18.0.0, SVG Export Plug-In . SVG Version: 6.00 Build 0)  -->
<!DOCTYPE svg PUBLIC "-//W3C//DTD SVG 1.1//EN" "http://www.w3.org/Graphics/SVG/1.1/DTD/svg11.dtd">
<svg version="1.1" id="Layer_1" xmlns="http://www.w3.org/2000/svg" xmlns:xlink="http://www.w3.org/1999/xlink" x="0px" y="0px"
	 width="512px" height="512px" viewBox="0 0 512 512" enable-background="new 0 0 512 512" xml:space="preserve">
<g>
	<g>
		<g>
			<path fill="#9D705C" d="M260.2,277.5l-85.9,87.8c-4.9,5-8,11.2-8.6,17.4l-0.6,5.7c-0.9,8.7-6.7,17.7-15.6,22.8
				c-3.3,1.9-6.9,3-10.4,3.5l-1.7,0.2c-2,0.3-4,0.4-5.9,0.4c-9.9,0-18.8-3.4-25.1-9.7c-7.6-7.6-10.9-18.7-9.3-31l0.3-2.1
				c1.1-8.7,7.2-17.6,16.2-22.4c3.4-1.8,7-2.9,10.4-3.2l5.4-0.5c6.1-0.6,12.4-3.7,17.4-8.6l87.8-85.9l2.6,2.6l20.5,20.5L260.2,277.5
				z"/>
		</g>
	</g>
	<g>
		<g>
			<g>
				<circle fill="#FFFFFF" cx="323.2" cy="189.8" r="72.6"/>
			</g>
			<g>
				<circle fill="#FFFFFF" cx="323.2" cy="189.8" r="55.2"/>
			</g>
			<g>
				<polyline fill="#FFFFFF" points="395.7,193.4 413.9,211.6 387.1,253.7 347.1,278.5 332,263.4 				"/>
			</g>
			<g>
				<polyline fill="#FFFFFF" points="318.6,116.3 300.4,98.1 259.3,123.8 233.5,164.9 248.6,180 				"/>
			</g>
		</g>
		<g>
			<polyline fill="#FFFFFF" points="261.1,230.4 237.1,254.4 257.5,274.9 281.6,250.9 			"/>
		</g>
		<g>
			<g>
				<path fill="#3A3033" d="M323.2,267.9c-20.9,0-40.5-8.1-55.2-22.9c-14.7-14.7-22.9-34.4-22.9-55.2s8.1-40.5,22.9-55.2
					c14.7-14.7,34.4-22.9,55.2-22.9c20.9,0,40.5,8.1,55.2,22.9c14.7,14.7,22.9,34.4,22.9,55.2s-8.1,40.5-22.9,55.2
					C363.6,259.7,344,267.9,323.2,267.9z M323.2,122.6c-17.9,0-34.8,7-47.5,19.7C263,155,256,171.9,256,189.8
					c0,17.9,7,34.8,19.7,47.5c12.7,12.7,29.5,19.7,47.5,19.7c17.9,0,34.8-7,47.5-19.7c12.7-12.7,19.7-29.5,19.7-47.5
					c0-17.9-7-34.8-19.7-47.5C358,129.6,341.1,122.6,323.2,122.6z"/>
			</g>
			<g>
				<path fill="#3A3033" d="M323.2,250.5c-16.2,0-31.4-6.3-42.9-17.8c-23.7-23.7-23.7-62.1,0-85.8c11.5-11.5,26.7-17.8,42.9-17.8
					c16.2,0,31.4,6.3,42.9,17.8c11.5,11.5,17.8,26.7,17.8,42.9c0,16.2-6.3,31.4-17.8,42.9C354.6,244.1,339.4,250.5,323.2,250.5z
					 M323.2,140.1c-13.3,0-25.8,5.2-35.2,14.6c-19.4,19.4-19.4,50.9,0,70.3c9.4,9.4,21.9,14.6,35.2,14.6c13.3,0,25.8-5.2,35.2-14.6
					c9.4-9.4,14.6-21.9,14.6-35.2c0-13.3-5.2-25.8-14.6-35.2C348.9,145.2,336.4,140.1,323.2,140.1z"/>
			</g>
			<g>
				<polygon fill="#3A3033" points="346.3,285.4 328.1,267.3 335.9,259.5 347.9,271.5 383.2,249.7 406.9,212.4 391.8,197.3 
					399.5,189.5 420.9,210.9 391,257.7 				"/>
			</g>
			<g>
				<polygon fill="#3A3033" points="244.7,183.9 226.6,165.7 255.3,119.9 301.2,91.1 322.4,112.4 314.7,120.2 299.6,105 
					263.3,127.8 240.5,164.1 252.5,176.1 				"/>
			</g>
		</g>
		<g>
			<polygon fill="#3A3033" points="257.5,282.7 229.3,254.4 257.2,226.5 265,234.3 244.8,254.4 257.5,267.2 277.7,247 285.4,254.8 
							"/>
		</g>
		<g>
			<path fill="#3A3033" d="M131.4,420.9L131.4,420.9c-11.4,0-21.6-4-28.9-11.3c-8.7-8.7-12.7-21.7-10.9-35.6l0.3-2.1
				c1.4-10.7,8.7-20.9,19-26.5c3.9-2.1,8.1-3.4,12.5-3.9l5.4-0.5c4.9-0.5,10-3,14.1-7.1l91.7-89.7l33.3,33.3l-89.7,91.6
				c-4,4.1-6.6,9.2-7.1,14.1l-0.6,5.7c-1.1,10.8-8.1,21.1-18.3,27c-3.8,2.2-8,3.6-12.4,4.2l-1.7,0.2
				C135.8,420.7,133.5,420.9,131.4,420.9z M234.4,259.5l-83.9,82.1c-5.9,5.8-13.2,9.4-20.7,10.1l-5.4,0.5c-3,0.3-5.8,1.1-8.4,2.6
				c-7.2,3.9-12.4,11.1-13.4,18.3l-0.3,2.1c-1.4,10.7,1.4,20.1,7.7,26.5c5.2,5.2,12.7,8.1,21.2,8.1c0,0,0,0,0,0
				c1.7,0,3.5-0.1,5.3-0.3l1.7-0.2c3-0.4,5.8-1.3,8.4-2.8c7.1-4.1,12.2-11.4,12.9-18.6l0.6-5.7c0.7-7.4,4.3-14.8,10.2-20.7
				l82.1-83.9L234.4,259.5z"/>
		</g>
		<g>
			<circle fill="#3A3033" cx="322.8" cy="189.5" r="6.3"/>
		</g>
		<g>
			<circle fill="#3A3033" cx="302" cy="168.6" r="6.3"/>
		</g>
		<g>
			<circle fill="#3A3033" cx="343.4" cy="210" r="6.3"/>
		</g>
		<g>
			<circle fill="#3A3033" cx="322.7" cy="160" r="6.3"/>
		</g>
		<g>
			<circle fill="#3A3033" cx="322.7" cy="218.6" r="6.3"/>
		</g>
		<g>
			<path fill="#3A3033" d="M299.7,189.3c0,3.5-2.8,6.3-6.3,6.3c-3.5,0-6.3-2.8-6.3-6.3c0-3.5,2.8-6.3,6.3-6.3
				C296.9,183,299.7,185.8,299.7,189.3z"/>
		</g>
		<g>
			<path fill="#3A3033" d="M358.2,189.3c0,3.5-2.8,6.3-6.3,6.3c-3.5,0-6.3-2.8-6.3-6.3c0-3.5,2.8-6.3,6.3-6.3
				C355.4,183,358.2,185.9,358.2,189.3z"/>
		</g>
		<g>
			<circle fill="#3A3033" cx="343.5" cy="168.8" r="6.3"/>
		</g>
		<g>
			<circle fill="#3A3033" cx="303.7" cy="208.5" r="6.3"/>
		</g>
	</g>
</g>
</svg>
