<?xml version="1.0" encoding="UTF-8"?>
<svg width="331px" height="314px" viewBox="0 0 331 314" version="1.1" xmlns="http://www.w3.org/2000/svg" xmlns:xlink="http://www.w3.org/1999/xlink">
    <!-- Generator: Sketch 51 (57462) - http://www.bohemiancoding.com/sketch -->
    <title>sack of coffee beans</title>
    <desc>Created with Sketch.</desc>
    <defs></defs>
    <g id="Page-1" stroke="none" stroke-width="1" fill="none" fill-rule="evenodd">
        <g id="sack-of-coffee-beans" fill-rule="nonzero">
            <path d="M243.6,157 C243.6,157.4 243.6,157.7 243.6,158.1 C243.3,196.3 234.9,235 229.3,256.6 C218.3,254.1 204.3,251 188,247.3 C154.1,239.7 138,263.1 132.5,274.1 L30.9,274.1 C30.9,274.1 12.1,215.6 11.6,158.1 C11.6,157.7 11.6,157.4 11.6,157 C11.6,156.6 11.6,156.3 11.6,155.9 C12.1,98.4 30.9,39.9 30.9,39.9 L224.3,39.9 C224.3,39.9 243.1,98.4 243.6,155.9 C243.6,156.3 243.6,156.6 243.6,157 Z" id="Shape" fill="#CD9E5D"></path>
            <path d="M243.6,157 C243.6,157.4 243.6,157.7 243.6,158.1 C243.5,168.1 242.9,178.2 241.9,188 L236,194 C236,194 192,209.5 119.6,209.5 C58.2,209.5 23.4,198.4 14.2,195 C12.7,183 11.8,170.5 11.7,158.1 C11.7,157.7 11.7,157.4 11.7,157 C11.7,156.6 11.7,156.3 11.7,155.9 C11.8,143.1 12.8,130.3 14.3,118 L16.2,116.1 C16.2,116.1 60.2,100.6 132.6,100.6 C205,100.6 240.5,116.1 240.5,116.1 L240.8,116.4 C242.4,129.1 243.5,142.5 243.6,155.9 C243.6,156.3 243.6,156.6 243.6,157 Z" id="Shape" fill="#FFFFFF"></path>
            <path d="M243.6,157 C243.6,157.4 243.6,157.7 243.6,158.1 C243.5,168.1 242.9,178.2 241.9,188 L236,194 C236,194 192,209.5 119.6,209.5 C58.2,209.5 23.4,198.4 14.2,195 C12.7,183 11.8,170.5 11.7,158.1 C11.7,157.7 11.7,157.4 11.7,157 C11.7,156.6 11.7,156.3 11.7,155.9 C11.8,143.1 12.8,130.3 14.3,118 L16.2,116.1 C16.2,116.1 60.2,100.6 132.6,100.6 C205,100.6 240.5,116.1 240.5,116.1 L240.8,116.4 C242.4,129.1 243.5,142.5 243.6,155.9 C243.6,156.3 243.6,156.6 243.6,157 Z" id="Shape" fill="#FFFFFF"></path>
            <path d="M132.7,5.5 L127.2,5.5 L7,5.5 C7,5.5 9.4,26.8 30.9,40 L127.2,40 L132.7,40 L229,40 C250.5,26.8 252.9,5.5 252.9,5.5 L132.7,5.5 Z" id="Shape" fill="#CD9E5D"></path>
            <path d="M248.5,308.5 L7,308.5 C7,308.5 9.4,287.2 30.9,274 L132.3,274 C130.7,277.2 129.9,279.4 129.9,279.4 L248.3,306.1 L250,298.6 L248.5,308.5 Z" id="Shape" fill="#CD9E5D"></path>
            <path d="M130,279.5 C130,279.5 144,237.4 187.9,247.3 C231.8,257.2 258.2,263.1 258.2,263.1 L248.5,306.2 L130,279.5 Z" id="Shape" fill="#CDCCCC"></path>
            <rect id="Rectangle-path" fill="#CDCCCC" transform="translate(288.384330, 283.638095) rotate(12.697852) translate(-288.384330, -283.638095) " x="254.385821" y="270.188685" width="67.9970178" height="26.8988203"></rect>
            <g id="Group" fill="#3A3033">
                <path d="M135.7,279.5 L26.9,279.5 L25.7,275.7 C24.9,273.4 7.8,219.3 6.3,163.5 L6.2,163.5 L6.2,158 L6.2,156.9 L6.2,155.8 L6.2,150.3 L6.3,150.3 C7.8,94.5 25,40.5 25.7,38.1 L26.9,34.3 L228.2,34.3 L229.4,38.1 C230.2,40.4 247.3,94.5 248.8,150.3 L248.9,150.3 L248.9,155.8 L248.9,156.8 L248.9,157.9 L248.9,163.4 L248.8,163.4 C247.8,201.1 239.4,238.4 234.4,257.8 L233.1,262.9 L186.6,252.4 C182.6,251.5 178.6,251 174.9,251 C153.1,251 141.8,266.9 137.1,276.3 L135.7,279.5 Z M35,268.6 L129.1,268.6 C135,258.2 149.1,240.3 175.1,240.3 C179.6,240.3 184.3,240.9 189.2,241.9 L225.3,250.1 C230.5,229.1 237.9,193.3 238.2,158.1 L238.2,157.4 L238.2,157 L238.2,156.6 L238.2,156 C237.8,108.3 224.4,59.2 220.3,45.4 L35,45.4 C30.9,59.2 17.5,108.2 17.1,156 L17.1,156.7 L17.1,157.1 L17.1,157.5 L17.1,158.1 C17.5,205.8 30.9,254.8 35,268.6 Z" id="Shape"></path>
                <path d="M230.6,45.4 L29.4,45.4 L28.1,44.6 C4.6,30.2 1.8,7.1 1.6,6.1 L0.9,0 L259,0 L258.3,6.1 C258.2,7.1 255.4,30.2 231.8,44.6 L230.6,45.4 Z M32.5,34.5 L227.5,34.5 C238.8,27.1 243.8,17.2 246,11 L14,11 C16.1,17.2 21.1,27 32.5,34.5 Z" id="Shape"></path>
                <path d="M253.1,314 L0.9,314 L1.6,307.9 C1.7,306.9 4.5,283.8 28.1,269.4 L29.4,268.6 L141.2,268.6 L137.7,275.6 L244.3,299.6 L244.8,297.4 L255.5,299.5 L253.1,314 Z M14,303.1 L209.8,303.1 L122.9,283.5 L124.2,279.5 L32.5,279.5 C21.1,287 16.1,296.8 14,303.1 Z" id="Shape"></path>
            </g>
            <path d="M119.6,215 C57.4,215 21.8,203.6 12.3,200.2 L9.2,199 L8.8,195.7 C7.4,184.6 6.6,173.8 6.3,163.6 L6.2,163.6 L6.2,158.1 L6.2,157 L6.2,155.9 L6.2,150.4 L6.3,150.4 C6.6,139.9 7.4,128.8 8.9,117.3 L9.1,115.5 L13.2,111.3 L14.4,110.9 C16.2,110.3 60.1,95.1 132.6,95.1 C205.3,95.1 241.2,110.4 242.7,111.1 L243.9,111.6 L246,114.1 L246.2,115.7 C247.8,127.8 248.7,139.4 249,150.4 L249.1,150.4 L249.1,155.9 L249.1,156.9 L249.1,158 L249.1,163.5 L249,163.5 C248.8,171.5 248.2,179.9 247.4,188.5 L247.2,190.4 L239.1,198.7 L237.9,199.1 C236,199.8 192.1,215 119.6,215 Z M19.2,191 C31.6,195.1 64.8,204.1 119.6,204.1 C183.9,204.1 225.6,191.7 233,189.3 L236.6,185.6 C237.5,176 238,166.8 238.1,158.1 L238.1,157.4 L238.1,157.1 L238.1,156.7 L238.1,156.1 C238,144.8 237.2,132.8 235.7,120.3 C226.4,116.9 192,106.2 132.6,106.2 C69.2,106.2 27.7,118.3 19.5,120.9 C18,133.2 17.3,145.1 17.2,156.1 L17.2,156.8 L17.2,157.2 L17.2,157.6 L17.2,158.2 C17.2,168.5 17.9,179.5 19.2,191 Z" id="Shape" fill="#3A3033"></path>
            <path d="M252.6,312.7 L122.9,283.5 L124.8,277.8 C129.1,264.8 145.1,240.3 175,240.3 C179.5,240.3 184.2,240.9 189.1,241.9 L264.7,258.9 L252.6,312.7 Z M137.7,275.6 L244.3,299.6 L251.6,267.2 L186.7,252.6 C182.7,251.7 178.7,251.2 175,251.2 C153.5,251.2 142.3,266.9 137.7,275.6 Z" id="Shape" fill="#3A3033"></path>
            <path d="M322.7,310.8 L245.7,293.4 L254,256.4 L331,273.8 L322.7,310.8 Z M258.8,285.2 L314.5,297.7 L318,282.1 L262.3,269.6 L258.8,285.2 Z" id="Shape" fill="#3A3033"></path>
            <g id="Group" transform="translate(90.000000, 127.000000)" fill="#3A3033">
                <path d="M42.3,63.1 C18.9,63.1 0.3,49.5 0.1,32.2 C-0.2,14.8 18.8,0.4 42.3,5.68434189e-14 L43.2,5.68434189e-14 C66.6,5.68434189e-14 85.2,13.6 85.4,30.9 C85.7,48.3 66.7,62.7 43.2,63.1 L42.3,63.1 Z M43.2,11 L42.5,11 C25.3,11.3 10.9,20.9 11.1,32.1 C11.3,43.2 25.3,52.2 42.4,52.2 L43.1,52.2 C60.3,51.9 74.7,42.3 74.5,31.1 C74.3,20 60.2,11 43.2,11 Z" id="Shape"></path>
                <path d="M23.4,46.2 C22.8,46.2 22.1,46.2 21.5,46.1 C9,45.1 1.4,34.2 1.1,33.7 L10.1,27.5 C10.1,27.5 15.2,34.6 22.5,35.2 C27.3,35.6 32.3,33 37.5,27.7 C44.9,20 53,16.2 61.6,16.5 C74.8,16.8 83.8,26.9 84.1,27.4 L75.9,34.6 L80,31 L75.9,34.6 C75.8,34.5 69.6,27.6 61.2,27.5 C55.8,27.4 50.6,30.1 45.4,35.4 C38.3,42.6 31,46.2 23.4,46.2 Z" id="Shape"></path>
            </g>
            <path d="M119.6,215 C57.4,215 21.8,203.6 12.3,200.2 L9.2,199 L8.8,195.7 C7.4,184.6 6.6,173.8 6.3,163.6 L6.2,163.6 L6.2,158.1 L6.2,157 L6.2,155.9 L6.2,150.4 L6.3,150.4 C6.6,139.9 7.4,128.8 8.9,117.3 L9.1,115.5 L13.2,111.3 L14.4,110.9 C16.2,110.3 60.1,95.1 132.6,95.1 C205.3,95.1 241.2,110.4 242.7,111.1 L243.9,111.6 L246,114.1 L246.2,115.7 C247.8,127.8 248.7,139.4 249,150.4 L249.1,150.4 L249.1,155.9 L249.1,156.9 L249.1,158 L249.1,163.5 L249,163.5 C248.8,171.5 248.2,179.9 247.4,188.5 L247.2,190.4 L239.1,198.7 L237.9,199.1 C236,199.8 192.1,215 119.6,215 Z M19.2,191 C31.6,195.1 64.8,204.1 119.6,204.1 C183.9,204.1 225.6,191.7 233,189.3 L236.6,185.6 C237.5,176 238,166.8 238.1,158.1 L238.1,157.4 L238.1,157.1 L238.1,156.7 L238.1,156.1 C238,144.8 237.2,132.8 235.7,120.3 C226.4,116.9 192,106.2 132.6,106.2 C69.2,106.2 27.7,118.3 19.5,120.9 C18,133.2 17.3,145.1 17.2,156.1 L17.2,156.8 L17.2,157.2 L17.2,157.6 L17.2,158.2 C17.2,168.5 17.9,179.5 19.2,191 Z" id="Shape" fill="#3A3033"></path>
        </g>
    </g>
</svg>