<?xml version="1.0" encoding="utf-8"?>
<!-- Generator: Adobe Illustrator 18.0.0, SVG Export Plug-In . SVG Version: 6.00 Build 0)  -->
<!DOCTYPE svg PUBLIC "-//W3C//DTD SVG 1.1//EN" "http://www.w3.org/Graphics/SVG/1.1/DTD/svg11.dtd">
<svg version="1.1" id="Layer_1" xmlns="http://www.w3.org/2000/svg" xmlns:xlink="http://www.w3.org/1999/xlink" x="0px" y="0px"
	 width="512px" height="512px" viewBox="0 0 512 512" enable-background="new 0 0 512 512" xml:space="preserve">
<g>
	<g>
		<path fill="#CD9E5D" d="M333.6,256c0,0.4,0,0.7,0,1.1h0c-0.3,38.2-8.7,76.9-14.3,98.5c-11-2.5-25-5.6-41.3-9.3
			c-33.9-7.6-50,15.8-55.5,26.8H120.9c0,0-18.8-58.5-19.3-116h0c0-0.4,0-0.7,0-1.1c0-0.4,0-0.7,0-1.1h0c0.5-57.5,19.3-116,19.3-116
			h193.4c0,0,18.8,58.5,19.3,116h0C333.6,255.3,333.6,255.6,333.6,256z"/>
	</g>
	<g>
		<g>
			<path fill="#FFFFFF" d="M333.6,256c0,0.4,0,0.7,0,1.1h0c-0.1,10-0.7,20.1-1.7,29.9l-5.9,6c0,0-44,15.5-116.4,15.5
				c-61.4,0-96.2-11.1-105.4-14.5c-1.5-12-2.4-24.5-2.5-36.9h0c0-0.4,0-0.7,0-1.1c0-0.4,0-0.7,0-1.1h0c0.1-12.8,1.1-25.6,2.6-37.9
				l1.9-1.9c0,0,44-15.5,116.4-15.5c72.4,0,107.9,15.5,107.9,15.5l0.3,0.3c1.6,12.7,2.7,26.1,2.8,39.5h0
				C333.6,255.3,333.6,255.6,333.6,256z"/>
		</g>
	</g>
	<g>
		<path fill="#FFFFFF" d="M333.6,256c0,0.4,0,0.7,0,1.1h0c-0.1,10-0.7,20.1-1.7,29.9l-5.9,6c0,0-44,15.5-116.4,15.5
			c-61.4,0-96.2-11.1-105.4-14.5c-1.5-12-2.4-24.5-2.5-36.9h0c0-0.4,0-0.7,0-1.1c0-0.4,0-0.7,0-1.1h0c0.1-12.8,1.1-25.6,2.6-37.9
			l1.9-1.9c0,0,44-15.5,116.4-15.5c72.4,0,107.9,15.5,107.9,15.5l0.3,0.3c1.6,12.7,2.7,26.1,2.8,39.5h0
			C333.6,255.3,333.6,255.6,333.6,256z"/>
	</g>
	<g>
		<path fill="#CD9E5D" d="M222.7,104.5h-5.5H97c0,0,2.4,21.3,23.9,34.5h96.3h5.5h96.3c21.5-13.2,23.9-34.5,23.9-34.5H222.7z"/>
	</g>
	<g>
		<path fill="#CD9E5D" d="M338.5,407.5H97c0,0,2.4-21.3,23.9-34.5h101.4c-1.6,3.2-2.4,5.4-2.4,5.4l118.4,26.7l1.7-7.5L338.5,407.5z"
			/>
	</g>
	<g>
		<path fill="#CDCCCC" d="M220,378.5c0,0,14-42.1,57.9-32.2c43.9,9.9,70.3,15.8,70.3,15.8l-9.7,43.1L220,378.5z"/>
	</g>
	<g>
		
			<rect x="344.4" y="369.2" transform="matrix(0.9755 0.2198 -0.2198 0.9755 93.3616 -73.8093)" fill="#CDCCCC" width="68" height="26.9"/>
	</g>
	<g>
		<g>
			<path fill="#3A3033" d="M225.7,378.5H116.9l-1.2-3.8c-0.8-2.3-17.9-56.4-19.4-112.2h-0.1l0-5.5l0-1.1l0-1.1v-5.5h0.1
				c1.5-55.8,18.7-109.8,19.4-112.2l1.2-3.8h201.3l1.2,3.8c0.8,2.3,17.9,56.4,19.4,112.2h0.1l0,5.5l0,1l0,1.1v5.5h-0.1
				c-1,37.7-9.4,75-14.4,94.4l-1.3,5.1l-46.5-10.5c-4-0.9-8-1.4-11.7-1.4c-21.8,0-33.1,15.9-37.8,25.3L225.7,378.5z M125,367.6h94.1
				c5.9-10.4,20-28.3,46-28.3c4.5,0,9.2,0.6,14.1,1.6l36.1,8.2c5.2-21,12.6-56.8,12.9-92l0-0.7l0-0.4l0-0.4l0-0.6
				c-0.4-47.7-13.8-96.8-17.9-110.6H125c-4.1,13.8-17.5,62.8-17.9,110.6l0,0.7l0,0.4l0,0.4l0,0.6C107.5,304.8,120.9,353.8,125,367.6
				z"/>
		</g>
		<g>
			<path fill="#3A3033" d="M320.6,144.4H119.4l-1.3-0.8c-23.5-14.4-26.3-37.5-26.5-38.5L90.9,99h258.1l-0.7,6.1
				c-0.1,1-2.9,24.1-26.5,38.5L320.6,144.4z M122.5,133.5h195c11.3-7.4,16.3-17.3,18.5-23.5H104C106.1,116.2,111.1,126,122.5,133.5z
				"/>
		</g>
		<g>
			<path fill="#3A3033" d="M343.1,413H90.9l0.7-6.1c0.1-1,2.9-24.1,26.5-38.5l1.3-0.8h111.8l-3.5,7l106.6,24l0.5-2.2l10.7,2.1
				L343.1,413z M104,402.1h195.8l-86.9-19.6l1.3-4h-91.7C111.1,386,106.1,395.8,104,402.1z"/>
		</g>
	</g>
	<g>
		<g>
			<path fill="#3A3033" d="M209.6,314c-62.2,0-97.8-11.4-107.3-14.8l-3.1-1.2l-0.4-3.3c-1.4-11.1-2.2-21.9-2.5-32.1h-0.1l0-5.5
				l0-1.1l0-1.1v-5.5h0.1c0.3-10.5,1.1-21.6,2.6-33.1l0.2-1.8l4.1-4.2l1.2-0.4c1.8-0.6,45.7-15.8,118.2-15.8
				c72.7,0,108.6,15.3,110.1,16l1.2,0.5l2.1,2.5l0.2,1.6c1.6,12.1,2.5,23.7,2.8,34.7h0.1l0,5.5l0,1l0,1.1v5.5h-0.1
				c-0.2,8-0.8,16.4-1.6,25l-0.2,1.9l-8.1,8.3l-1.2,0.4C326,298.8,282.1,314,209.6,314z M109.2,290c12.4,4.1,45.6,13.1,100.4,13.1
				c64.3,0,106-12.4,113.4-14.8l3.6-3.7c0.9-9.6,1.4-18.8,1.5-27.5l0-0.7l0-0.3l0-0.4l0-0.6c-0.1-11.3-0.9-23.3-2.4-35.8
				c-9.3-3.4-43.7-14.1-103.1-14.1c-63.4,0-104.9,12.1-113.1,14.7c-1.5,12.3-2.2,24.2-2.3,35.2l0,0.7l0,0.4l0,0.4l0,0.6
				C107.2,267.5,107.9,278.5,109.2,290z"/>
		</g>
	</g>
	<g>
		<path fill="#3A3033" d="M342.6,411.7l-129.7-29.2l1.9-5.7c4.3-13,20.3-37.5,50.2-37.5c4.5,0,9.2,0.6,14.1,1.6l75.6,17L342.6,411.7
			z M227.7,374.6l106.6,24l7.3-32.4l-64.9-14.6c-4-0.9-8-1.4-11.7-1.4C243.5,350.2,232.3,365.9,227.7,374.6z"/>
	</g>
	<g>
		<path fill="#3A3033" d="M412.7,409.8l-77-17.4l8.3-37l77,17.4L412.7,409.8z M348.8,384.2l55.7,12.5l3.5-15.6l-55.7-12.5
			L348.8,384.2z"/>
	</g>
	<g>
		<g>
			<path fill="#3A3033" d="M222.3,289.1c-23.4,0-42-13.6-42.2-30.9c-0.3-17.4,18.7-31.8,42.2-32.2l0.9,0c23.4,0,42,13.6,42.2,30.9
				c0.3,17.4-18.7,31.8-42.2,32.2L222.3,289.1z M223.2,237l-0.7,0c-17.2,0.3-31.6,9.9-31.4,21.1c0.2,11.1,14.2,20.1,31.3,20.1l0.7,0
				c17.2-0.3,31.6-9.9,31.4-21.1C254.3,246,240.2,237,223.2,237z"/>
		</g>
		<g>
			<path fill="#3A3033" d="M203.4,272.2c-0.6,0-1.3,0-1.9-0.1c-12.5-1-20.1-11.9-20.4-12.4l9-6.2c0,0,5.1,7.1,12.4,7.7
				c4.8,0.4,9.8-2.2,15-7.5c7.4-7.7,15.5-11.5,24.1-11.2c13.2,0.3,22.2,10.4,22.5,10.9l-8.2,7.2l4.1-3.6l-4.1,3.6
				c-0.1-0.1-6.3-7-14.7-7.1c-5.4-0.1-10.6,2.6-15.8,7.9C218.3,268.6,211,272.2,203.4,272.2z"/>
		</g>
	</g>
	<g>
		<path fill="#3A3033" d="M209.6,314c-62.2,0-97.8-11.4-107.3-14.8l-3.1-1.2l-0.4-3.3c-1.4-11.1-2.2-21.9-2.5-32.1h-0.1l0-5.5l0-1.1
			l0-1.1v-5.5h0.1c0.3-10.5,1.1-21.6,2.6-33.1l0.2-1.8l4.1-4.2l1.2-0.4c1.8-0.6,45.7-15.8,118.2-15.8c72.7,0,108.6,15.3,110.1,16
			l1.2,0.5l2.1,2.5l0.2,1.6c1.6,12.1,2.5,23.7,2.8,34.7h0.1l0,5.5l0,1l0,1.1v5.5h-0.1c-0.2,8-0.8,16.4-1.6,25l-0.2,1.9l-8.1,8.3
			l-1.2,0.4C326,298.8,282.1,314,209.6,314z M109.2,290c12.4,4.1,45.6,13.1,100.4,13.1c64.3,0,106-12.4,113.4-14.8l3.6-3.7
			c0.9-9.6,1.4-18.8,1.5-27.5l0-0.7l0-0.3l0-0.4l0-0.6c-0.1-11.3-0.9-23.3-2.4-35.8c-9.3-3.4-43.7-14.1-103.1-14.1
			c-63.4,0-104.9,12.1-113.1,14.7c-1.5,12.3-2.2,24.2-2.3,35.2l0,0.7l0,0.4l0,0.4l0,0.6C107.2,267.5,107.9,278.5,109.2,290z"/>
	</g>
</g>
</svg>
