<?xml version="1.0" encoding="utf-8"?>
<!-- Generator: Adobe Illustrator 18.0.0, SVG Export Plug-In . SVG Version: 6.00 Build 0)  -->
<!DOCTYPE svg PUBLIC "-//W3C//DTD SVG 1.1//EN" "http://www.w3.org/Graphics/SVG/1.1/DTD/svg11.dtd">
<svg version="1.1" id="Layer_1" xmlns="http://www.w3.org/2000/svg" xmlns:xlink="http://www.w3.org/1999/xlink" x="0px" y="0px"
	 width="512px" height="512px" viewBox="0 0 512 512" enable-background="new 0 0 512 512" xml:space="preserve">
<g>
	<polygon fill="#CDCCCC" points="420.1,213.9 420.1,173.9 384.9,182.6 256.4,184.7 256.4,184.7 127.1,182.6 91.9,173.9 91.9,213.9 
		91.9,305 91.9,338.1 127.1,326.9 256.4,326.9 256.4,326.9 384.9,326.9 420.1,338.1 420.1,305 	"/>
</g>
<g>
	<g>
		<g>
			<path fill="#3A3033" d="M174.1,275.8h-0.9c-9.3,0-16.8-7.5-16.8-16.8v-2.3h10.9v2.3c0,3.2,2.6,5.9,5.9,5.9h0.9
				c3.2,0,5.9-2.6,5.9-5.9v-6.4c0-3.2-2.6-5.9-5.9-5.9h-0.9c-9.3,0-16.8-7.5-16.8-16.8v-8.1c0-9.3,7.5-16.8,16.8-16.8
				c9.3,0,16.8,7.5,16.8,16.8v1.5h-10.9v-1.5c0-3.2-2.6-5.9-5.9-5.9c-3.2,0-5.9,2.6-5.9,5.9v8.1c0,3.2,2.6,5.9,5.9,5.9h0.9
				c9.3,0,16.8,7.5,16.8,16.8v6.4C190.9,268.3,183.4,275.8,174.1,275.8z"/>
		</g>
		<g>
			<path fill="#3A3033" d="M218.4,275.8c-8.9,0-16.1-7.2-16.1-16.1v-17h10.9v17c0,2.8,2.3,5.2,5.2,5.2c2.8,0,5.2-2.3,5.2-5.2v-17
				h10.9v17C234.5,268.6,227.3,275.8,218.4,275.8z"/>
		</g>
		<g>
			<path fill="#3A3033" d="M261,275.8h-2.3c-9,0-16.3-7.3-16.3-16.3v-4.8c0-9,7.3-16.3,16.3-16.3h2.3c9,0,16.3,7.3,16.3,16.3v4.8
				C277.3,268.5,270,275.8,261,275.8z M258.8,249.5c-2.9,0-5.3,2.4-5.3,5.3v4.8c0,2.9,2.4,5.3,5.3,5.3h2.3c2.9,0,5.3-2.4,5.3-5.3
				v-4.8c0-2.9-2.4-5.3-5.3-5.3H258.8z"/>
		</g>
		<g>
			<path fill="#3A3033" d="M319.9,275.8h-17.4c-9.6,0-17.4-7.8-17.4-17.4v-2.5c0-9.6,7.8-17.4,17.4-17.4h17.4V275.8z M302.5,249.5
				c-3.6,0-6.4,2.9-6.4,6.4v2.5c0,3.6,2.9,6.4,6.4,6.4h6.5v-15.4H302.5z"/>
		</g>
		<g>
			<path fill="#3A3033" d="M259.2,307.2c-10,0-18.1-8.1-18.1-18.1v-2.5H252v2.5c0,4,3.2,7.2,7.2,7.2c4,0,7.2-3.2,7.2-7.2v-30.7h10.9
				v30.7C277.3,299.1,269.2,307.2,259.2,307.2z"/>
		</g>
		<g>
			<rect x="330.5" y="238.1" fill="#3A3033" width="10.9" height="38.2"/>
		</g>
		<g>
			<polygon fill="#3A3033" points="338.6,256.6 333.3,247 347.4,239.2 361.4,239.2 361.4,250.2 350.3,250.2 			"/>
		</g>
	</g>
	<g>
		<g>
			<rect x="118.7" y="182.4" fill="#3A3033" width="10.9" height="144.2"/>
		</g>
		<g>
			<rect x="379.5" y="182.4" fill="#3A3033" width="10.9" height="144.2"/>
		</g>
		<g>
			<rect x="384.9" y="248.9" fill="#3A3033" width="35.2" height="10.9"/>
		</g>
		<g>
			
				<rect x="397.1" y="179.4" transform="matrix(0.2085 0.978 -0.978 0.2085 511.6699 -237.4355)" fill="#3A3033" width="10.9" height="36"/>
		</g>
		<g>
			
				<rect x="397.1" y="198.3" transform="matrix(0.1248 0.9922 -0.9922 0.1248 566.5831 -210.3522)" fill="#3A3033" width="10.9" height="35.5"/>
		</g>
		<g>
			
				<rect x="397.1" y="217.1" transform="matrix(6.738400e-02 0.9977 -0.9977 6.738400e-02 609.6476 -182.6631)" fill="#3A3033" width="10.9" height="35.3"/>
		</g>
		<g>
			
				<rect x="384.5" y="307.6" transform="matrix(0.978 0.2085 -0.2085 0.978 74.1501 -77.0631)" fill="#3A3033" width="36" height="10.9"/>
		</g>
		<g>
			
				<rect x="384.8" y="287.2" transform="matrix(0.9922 0.1248 -0.1248 0.9922 39.6878 -47.9602)" fill="#3A3033" width="35.5" height="10.9"/>
		</g>
		<g>
			
				<rect x="384.9" y="268.5" transform="matrix(0.9977 6.733823e-02 -6.733823e-02 0.9977 19.3591 -26.4841)" fill="#3A3033" width="35.3" height="10.9"/>
		</g>
		<g>
			<path fill="#3A3033" d="M86.4,345.3V166.7l41.4,10.3l128.7,2l127.8-2l41.4-10.3v178.6l-41.5-13.2l-256.2,0L86.4,345.3z
				 M126.2,321.2l259.6,0l28.9,9.2V180.7l-29,7.2l-0.6,0l-128.6,2l-130.1-2l-29-7.2v149.7L126.2,321.2z"/>
		</g>
		<g>
			<rect x="91.9" y="248.9" fill="#3A3033" width="35.2" height="10.9"/>
		</g>
		<g>
			
				<rect x="91.5" y="191.9" transform="matrix(0.978 0.2085 -0.2085 0.978 43.5758 -18.4886)" fill="#3A3033" width="36" height="10.9"/>
		</g>
		<g>
			
				<rect x="91.7" y="210.5" transform="matrix(0.9922 0.1248 -0.1248 0.9922 27.8193 -11.9756)" fill="#3A3033" width="35.5" height="10.9"/>
		</g>
		<g>
			
				<rect x="91.8" y="229.3" transform="matrix(0.9977 6.733134e-02 -6.733134e-02 0.9977 16.056 -6.8379)" fill="#3A3033" width="35.3" height="10.9"/>
		</g>
		<g>
			
				<rect x="104" y="295.1" transform="matrix(0.2085 0.978 -0.978 0.2085 392.8665 140.754)" fill="#3A3033" width="10.9" height="36"/>
		</g>
		<g>
			
				<rect x="104" y="275" transform="matrix(0.1248 0.9922 -0.9922 0.1248 386.2132 147.5491)" fill="#3A3033" width="10.9" height="35.5"/>
		</g>
		<g>
			
				<rect x="104" y="256.3" transform="matrix(6.738293e-02 0.9977 -0.9977 6.738293e-02 375.3918 146.2452)" fill="#3A3033" width="10.9" height="35.3"/>
		</g>
	</g>
</g>
</svg>
