<?xml version="1.0" encoding="utf-8"?>
<!-- Generator: Adobe Illustrator 18.0.0, SVG Export Plug-In . SVG Version: 6.00 Build 0)  -->
<!DOCTYPE svg PUBLIC "-//W3C//DTD SVG 1.1//EN" "http://www.w3.org/Graphics/SVG/1.1/DTD/svg11.dtd">
<svg version="1.1" id="Layer_1" xmlns="http://www.w3.org/2000/svg" xmlns:xlink="http://www.w3.org/1999/xlink" x="0px" y="0px"
	 width="512px" height="512px" viewBox="0 0 512 512" enable-background="new 0 0 512 512" xml:space="preserve">
<g>
	<g>
		<polygon fill="#FFFFFF" points="127.8,165.4 127.8,132.2 156.4,106.3 156.4,165.4 		"/>
	</g>
	<g>
		<polygon fill="#FFFFFF" points="183.2,233.9 142.1,233.9 101,233.9 70,388.9 82.1,410.5 142.1,410.5 202.1,410.5 214.2,388.9 		
			"/>
	</g>
	<g>
		<polygon fill="#95BDA6" points="214.2,388.9 202.1,410.5 82.1,410.5 70,388.9 87.9,299.4 196.3,299.4 		"/>
	</g>
	<g>
		<polygon fill="#95BDA6" points="214.2,388.9 202.1,410.5 82.1,410.5 70,388.9 87.9,299.4 196.3,299.4 		"/>
	</g>
	<g>
		<path fill="#3A3033" d="M161.9,170.8h-39.6v-41.1L161.9,94V170.8z M133.2,159.9H151v-41.3l-17.7,16V159.9z"/>
	</g>
	<g>
		<rect x="101" y="165.4" fill="#9D705C" width="82.2" height="68.6"/>
	</g>
	<g>
		<path fill="#3A3033" d="M188.7,239.4H95.5v-79.5h93.1V239.4z M106.5,228.5h71.2v-57.6h-71.2V228.5z"/>
	</g>
	<g>
		<path fill="#3A3033" d="M205.3,416H78.9l-14.6-26.2l0.4-2l31.9-159.3h91.1l32.3,161.3L205.3,416z M85.3,405h113.6l9.5-17
			l-29.7-148.6h-73.2L75.8,388L85.3,405z"/>
	</g>
	<g>
		<rect x="117" y="165.4" fill="#3A3033" width="10.9" height="54.4"/>
	</g>
	<g>
		<rect x="137.1" y="165.4" fill="#3A3033" width="10.9" height="54.4"/>
	</g>
	<g>
		<rect x="157.1" y="165.4" fill="#3A3033" width="10.9" height="54.4"/>
	</g>
	<g>
		<rect x="102.1" y="382.3" fill="#3A3033" width="112.1" height="10.9"/>
	</g>
	<g>
		<g>
			<path fill="#FFFFFF" d="M386.2,398.1l-0.2,0.3c-5.5,8.7-15,14.1-25.4,14.1h-76c-10.9,0-21-5.9-26.2-15.5l0,0
				c-2.8-5.2-4.1-11.1-3.6-17c2.1-25.4,8.4-50.4,12.8-97.3c5-52.7-24-76.6-24-76.6s35.5-20.4,69.1,11.4s64.2,11.4,64.2,11.4l0,0
				c-3.5,19.8-3.3,40,0.5,59.5c6,30.7,12.4,68.7,13.3,92.6C390.9,387,389.4,393,386.2,398.1z"/>
		</g>
		<g>
			<path fill="#FFFFFF" d="M388.6,356.6l-2.8-20.1h0C386.9,343.4,387.8,350.1,388.6,356.6z"/>
		</g>
		<g>
			<g>
				<path fill="#FFFFFF" d="M440.8,275.3l-20.4,58.6c-4.7,13.6-17.5,22.6-31.9,22.6l0,0l-2.8-20.1h0c7.5,0,14.2-4.8,16.7-11.9
					l19.4-55.6c0.5-1.5,0.3-3.2-0.5-4.5l0,0c-1-1.6-2.7-2.5-4.5-2.5h-25.2L377.1,277c-0.5,0.5-1.4,0.2-1.5-0.6l-1.1-25.6v0l8.8-9
					h33.7c8.8,0,16.9,4.6,21.5,12l0,0C442.5,260.3,443.3,268.2,440.8,275.3z"/>
			</g>
		</g>
	</g>
	<g>
		<g>
			<path fill="#3A3033" d="M360.6,418h-76c-12.9,0-24.8-7-31-18.3c-3.4-6.1-4.8-13.1-4.2-20.1c1-11.5,2.7-22.8,4.8-36
				c2.6-16.6,5.6-35.5,8-61.4c4.6-48.9-20.9-71-22-71.9l-6-5.1l6.8-3.9c0.5-0.3,12.4-6.9,29.2-6.9c16.9,0,32.4,6.4,46.2,19
				c9.7,8.9,22.3,13.4,37.2,13.4c12.3,0,21.4-3.1,21.5-3.1l8.8-3l-1.6,9.1c-3.4,19.3-3.2,38.6,0.5,57.5
				c4.5,23.2,12.3,66.3,13.4,93.5c0.3,7.2-1.6,14.2-5.3,20.2l-0.2,0.3C384.1,411.8,372.9,418,360.6,418z M253.1,208.1
				c8.8,10.6,23.7,35,20,75.2c-2.5,26.3-5.5,45.3-8.1,62.1c-2,12.9-3.8,24.1-4.7,35.1c-0.4,4.9,0.6,9.7,2.9,13.9
				c4.3,7.8,12.5,12.7,21.4,12.7h76c8.5,0,16.2-4.3,20.7-11.5l0.2-0.3c2.6-4.2,3.9-9,3.7-14c-1-26.5-8.7-68.9-13.2-91.8
				c-3.4-17.5-4-35.4-1.7-53.2c-4.4,0.8-10.1,1.6-16.6,1.6c-17.5,0-32.9-5.6-44.6-16.3c-11.7-10.7-24.8-16.2-38.9-16.2
				C263.2,205.4,257.3,206.7,253.1,208.1z"/>
		</g>
		<g>
			<path fill="#3A3033" d="M383.1,357.3l-3.7-26.3h11l0.7,4.6c1.1,7.1,2,13.9,2.8,20.3L383.1,357.3z"/>
		</g>
		<g>
			<g>
				<path fill="#3A3033" d="M388.6,362h-4.8l-4.3-31h6.3c5.2,0,9.8-3.3,11.6-8.2l19.3-55.4H394l-12.9,13.4c-1.2,1.2-2.9,1.9-4.6,1.9
					c-3.4,0-6.2-2.7-6.3-6.1l-1.1-25.9v-2.2l12-12.3h36c10.6,0,20.6,5.6,26.1,14.6c4.8,7.9,5.8,17.4,2.8,26.1l-20.4,58.6
					C420.1,351.5,405.2,362,388.6,362z M391.9,341.1l1.3,9.6c10-1.7,18.6-8.7,22-18.6l20.4-58.6c2-5.6,1.3-11.7-1.8-16.8
					c-3.6-5.8-10-9.4-16.8-9.4h-31.4l-5.6,5.7l0.6,12.5l8.6-9h27.6c3.7,0,7.3,2,9.2,5.2c1.7,2.8,2,6.1,1,9.2l-19.4,55.6
					C405.1,333.7,399.1,339.1,391.9,341.1z"/>
			</g>
		</g>
	</g>
	<g>
		<path fill="#3A3033" d="M288.1,330.1l-10.7-2.3c13.8-62.8,1.9-91.4,1.7-91.7l10-4.4C289.8,233,302.7,263.8,288.1,330.1z"/>
	</g>
</g>
</svg>
