<?xml version="1.0" encoding="UTF-8"?>
<svg width="340px" height="180px" viewBox="0 0 340 180" version="1.1" xmlns="http://www.w3.org/2000/svg" xmlns:xlink="http://www.w3.org/1999/xlink">
    <!-- Generator: Sketch 51 (57462) - http://www.bohemiancoding.com/sketch -->
    <title>sugar</title>
    <desc>Created with Sketch.</desc>
    <defs></defs>
    <g id="Page-1" stroke="none" stroke-width="1" fill="none" fill-rule="evenodd">
        <g id="sugar" fill-rule="nonzero">
            <polygon id="Shape" fill="#CDCCCC" points="334.1 47.9 334.1 7.9 298.9 16.6 170.4 18.7 170.4 18.7 41.1 16.6 5.9 7.9 5.9 47.9 5.9 139 5.9 172.1 41.1 160.9 170.4 160.9 170.4 160.9 298.9 160.9 334.1 172.1 334.1 139"></polygon>
            <g id="Group" fill="#3A3033">
                <g transform="translate(70.000000, 39.000000)">
                    <path d="M18.1,70.8 L17.2,70.8 C7.9,70.8 0.4,63.3 0.4,54 L0.4,51.7 L11.3,51.7 L11.3,54 C11.3,57.2 13.9,59.9 17.2,59.9 L18.1,59.9 C21.3,59.9 24,57.3 24,54 L24,47.6 C24,44.4 21.4,41.7 18.1,41.7 L17.2,41.7 C7.9,41.7 0.4,34.2 0.4,24.9 L0.4,16.8 C0.4,7.5 7.9,-2.84217094e-14 17.2,-2.84217094e-14 C26.5,-2.84217094e-14 34,7.5 34,16.8 L34,18.3 L23.1,18.3 L23.1,16.8 C23.1,13.6 20.5,10.9 17.2,10.9 C14,10.9 11.3,13.5 11.3,16.8 L11.3,24.9 C11.3,28.1 13.9,30.8 17.2,30.8 L18.1,30.8 C27.4,30.8 34.9,38.3 34.9,47.6 L34.9,54 C34.9,63.3 27.4,70.8 18.1,70.8 Z" id="Shape"></path>
                    <path d="M62.4,70.8 C53.5,70.8 46.3,63.6 46.3,54.7 L46.3,37.7 L57.2,37.7 L57.2,54.7 C57.2,57.5 59.5,59.9 62.4,59.9 C65.2,59.9 67.6,57.6 67.6,54.7 L67.6,37.7 L78.5,37.7 L78.5,54.7 C78.5,63.6 71.3,70.8 62.4,70.8 Z" id="Shape"></path>
                    <path d="M105,70.8 L102.7,70.8 C93.7,70.8 86.4,63.5 86.4,54.5 L86.4,49.7 C86.4,40.7 93.7,33.4 102.7,33.4 L105,33.4 C114,33.4 121.3,40.7 121.3,49.7 L121.3,54.5 C121.3,63.5 114,70.8 105,70.8 Z M102.8,44.5 C99.9,44.5 97.5,46.9 97.5,49.8 L97.5,54.6 C97.5,57.5 99.9,59.9 102.8,59.9 L105.1,59.9 C108,59.9 110.4,57.5 110.4,54.6 L110.4,49.8 C110.4,46.9 108,44.5 105.1,44.5 L102.8,44.5 Z" id="Shape"></path>
                    <path d="M163.9,70.8 L146.5,70.8 C136.9,70.8 129.1,63 129.1,53.4 L129.1,50.9 C129.1,41.3 136.9,33.5 146.5,33.5 L163.9,33.5 L163.9,70.8 Z M146.5,44.5 C142.9,44.5 140.1,47.4 140.1,50.9 L140.1,53.4 C140.1,57 143,59.8 146.5,59.8 L153,59.8 L153,44.4 L146.5,44.4 L146.5,44.5 Z" id="Shape"></path>
                    <path d="M103.2,102.2 C93.2,102.2 85.1,94.1 85.1,84.1 L85.1,81.6 L96,81.6 L96,84.1 C96,88.1 99.2,91.3 103.2,91.3 C107.2,91.3 110.4,88.1 110.4,84.1 L110.4,53.4 L121.3,53.4 L121.3,84.1 C121.3,94.1 113.2,102.2 103.2,102.2 Z" id="Shape"></path>
                    <rect id="Rectangle-path" x="174.5" y="33.1" width="10.9" height="38.2"></rect>
                    <polygon id="Shape" points="182.6 51.6 177.3 42 191.4 34.2 205.4 34.2 205.4 45.2 194.3 45.2"></polygon>
                </g>
                <g>
                    <rect id="Rectangle-path" x="32.7" y="16.4" width="10.9" height="144.2"></rect>
                    <rect id="Rectangle-path" x="293.5" y="16.4" width="10.9" height="144.2"></rect>
                    <rect id="Rectangle-path" x="298.9" y="82.9" width="35.2" height="10.9"></rect>
                    <rect id="Rectangle-path" transform="translate(316.544375, 31.416300) rotate(77.965270) translate(-316.544375, -31.416300) " x="311.094494" y="13.4166938" width="10.8997616" height="35.9992125"></rect>
                    <rect id="Rectangle-path" transform="translate(316.456530, 50.020950) rotate(82.830923) translate(-316.456530, -50.020950) " x="311.006432" y="32.2706316" width="10.9001955" height="35.5006369"></rect>
                    <rect id="Rectangle-path" transform="translate(316.562954, 68.779429) rotate(86.136149) translate(-316.562954, -68.779429) " x="311.113102" y="51.1299065" width="10.8997051" height="35.299045"></rect>
                    <rect id="Rectangle-path" transform="translate(316.524175, 147.021050) rotate(12.034730) translate(-316.524175, -147.021050) " x="298.524569" y="141.571169" width="35.9992125" height="10.8997616"></rect>
                    <rect id="Rectangle-path" transform="translate(316.575190, 126.645370) rotate(7.169077) translate(-316.575190, -126.645370) " x="298.824872" y="121.195272" width="35.5006369" height="10.9001955"></rect>
                    <rect id="Rectangle-path" transform="translate(316.535927, 107.942819) rotate(3.861235) translate(-316.535927, -107.942819) " x="298.886459" y="102.492984" width="35.2989362" height="10.8996715"></rect>
                    <path d="M0.4,179.3 L0.4,0.7 L41.8,11 L170.5,13 L298.3,11 L339.7,0.7 L339.7,179.3 L298.2,166.1 L42,166.1 L0.4,179.3 Z M40.2,155.2 L299.8,155.2 L328.7,164.4 L328.7,14.7 L299.7,21.9 L299.1,21.9 L170.5,23.9 L40.4,21.9 L11.4,14.7 L11.4,164.4 L40.2,155.2 Z" id="Shape"></path>
                    <rect id="Rectangle-path" x="5.9" y="82.9" width="35.2" height="10.9"></rect>
                    <rect id="Rectangle-path" transform="translate(23.519325, 31.350450) rotate(12.034730) translate(-23.519325, -31.350450) " x="5.51971875" y="25.9005692" width="35.9992125" height="10.8997616"></rect>
                    <rect id="Rectangle-path" transform="translate(23.465030, 49.949350) rotate(7.169077) translate(-23.465030, -49.949350) " x="5.71471157" y="44.4992522" width="35.5006369" height="10.9001955"></rect>
                    <rect id="Rectangle-path" transform="translate(23.448233, 68.741590) rotate(3.860841) translate(-23.448233, -68.741590) " x="5.79877304" y="63.2917569" width="35.2989198" height="10.8996665"></rect>
                    <rect id="Rectangle-path" transform="translate(23.475025, 147.077450) rotate(77.965270) translate(-23.475025, -147.077450) " x="18.0251442" y="129.077844" width="10.8997616" height="35.9992125"></rect>
                    <rect id="Rectangle-path" transform="translate(23.406010, 126.680590) rotate(82.830923) translate(-23.406010, -126.680590) " x="17.9559122" y="108.930272" width="10.9001955" height="35.5006369"></rect>
                    <rect id="Rectangle-path" transform="translate(23.446947, 107.903019) rotate(86.136210) translate(-23.446947, -107.903019) " x="17.9970945" y="90.2534974" width="10.8997043" height="35.2990425"></rect>
                </g>
            </g>
        </g>
    </g>
</svg>