<?xml version="1.0" encoding="UTF-8"?>
<svg width="384px" height="324px" viewBox="0 0 384 324" version="1.1" xmlns="http://www.w3.org/2000/svg" xmlns:xlink="http://www.w3.org/1999/xlink">
    <!-- Generator: Sketch 51 (57462) - http://www.bohemiancoding.com/sketch -->
    <title>sugar and milk</title>
    <desc>Created with Sketch.</desc>
    <defs></defs>
    <g id="Page-1" stroke="none" stroke-width="1" fill="none" fill-rule="evenodd">
        <g id="sugar-and-milk" fill-rule="nonzero">
            <polygon id="Shape" fill="#FFFFFF" points="63.8 71.4 63.8 38.2 92.4 12.3 92.4 71.4"></polygon>
            <polygon id="Shape" fill="#FFFFFF" points="119.2 139.9 78.1 139.9 37 139.9 6 294.9 18.1 316.5 78.1 316.5 138.1 316.5 150.2 294.9"></polygon>
            <polygon id="Shape" fill="#95BDA6" points="150.2 294.9 138.1 316.5 18.1 316.5 6 294.9 23.9 205.4 132.3 205.4"></polygon>
            <polygon id="Shape" fill="#95BDA6" points="150.2 294.9 138.1 316.5 18.1 316.5 6 294.9 23.9 205.4 132.3 205.4"></polygon>
            <path d="M97.9,76.8 L58.3,76.8 L58.3,35.7 L97.9,0 L97.9,76.8 Z M69.2,65.9 L87,65.9 L87,24.6 L69.3,40.6 L69.3,65.9 L69.2,65.9 Z" id="Shape" fill="#3A3033"></path>
            <rect id="Rectangle-path" fill="#9D705C" x="37" y="71.4" width="82.2" height="68.6"></rect>
            <path d="M124.7,145.4 L31.5,145.4 L31.5,65.9 L124.6,65.9 L124.6,145.4 L124.7,145.4 Z M42.5,134.5 L113.7,134.5 L113.7,76.9 L42.5,76.9 L42.5,134.5 Z" id="Shape" fill="#3A3033"></path>
            <path d="M141.3,322 L14.9,322 L0.3,295.8 L0.7,293.8 L32.6,134.5 L123.7,134.5 L156,295.8 L141.3,322 Z M21.3,311 L134.9,311 L144.4,294 L114.7,145.4 L41.5,145.4 L11.8,294 L21.3,311 Z" id="Shape" fill="#3A3033"></path>
            <rect id="Rectangle-path" fill="#3A3033" x="53" y="71.4" width="10.9" height="54.4"></rect>
            <rect id="Rectangle-path" fill="#3A3033" x="73.1" y="71.4" width="10.9" height="54.4"></rect>
            <rect id="Rectangle-path" fill="#3A3033" x="93.1" y="71.4" width="10.9" height="54.4"></rect>
            <rect id="Rectangle-path" fill="#3A3033" x="38.1" y="288.3" width="112.1" height="10.9"></rect>
            <g id="Group" transform="translate(179.000000, 105.000000)" fill="#FFFFFF">
                <path d="M143.2,199.1 L143,199.4 C137.5,208.1 128,213.5 117.6,213.5 L41.6,213.5 C30.7,213.5 20.6,207.6 15.4,198 C12.6,192.8 11.3,186.9 11.8,181 C13.9,155.6 20.2,130.6 24.6,83.7 C29.6,31 0.6,7.1 0.6,7.1 C0.6,7.1 36.1,-13.3 69.7,18.5 C103.3,50.3 133.9,29.9 133.9,29.9 C130.4,49.7 130.6,69.9 134.4,89.4 C140.4,120.1 146.8,158.1 147.7,182 C147.9,188 146.4,194 143.2,199.1 Z" id="Shape"></path>
                <path d="M145.6,157.6 L142.8,137.5 C143.9,144.4 144.8,151.1 145.6,157.6 Z" id="Shape"></path>
                <path d="M197.8,76.3 L177.4,134.9 C172.7,148.5 159.9,157.5 145.5,157.5 L142.7,137.4 C150.2,137.4 156.9,132.6 159.4,125.5 L178.8,69.9 C179.3,68.4 179.1,66.7 178.3,65.4 C177.3,63.8 175.6,62.9 173.8,62.9 L148.6,62.9 L134.1,78 C133.6,78.5 132.7,78.2 132.6,77.4 L131.5,51.8 L140.3,42.8 L174,42.8 C182.8,42.8 190.9,47.4 195.5,54.8 C199.5,61.3 200.3,69.2 197.8,76.3 Z" id="Shape"></path>
            </g>
            <g id="Group" transform="translate(170.000000, 100.000000)" fill="#3A3033">
                <path d="M126.6,224 L50.6,224 C37.7,224 25.8,217 19.6,205.7 C16.2,199.6 14.8,192.6 15.4,185.6 C16.4,174.1 18.1,162.8 20.2,149.6 C22.8,133 25.8,114.1 28.2,88.2 C32.8,39.3 7.3,17.2 6.2,16.3 L0.2,11.2 L7,7.3 C7.5,7 19.4,0.4 36.2,0.4 C53.1,0.4 68.6,6.8 82.4,19.4 C92.1,28.3 104.7,32.8 119.6,32.8 C131.9,32.8 141,29.7 141.1,29.7 L149.9,26.7 L148.3,35.8 C144.9,55.1 145.1,74.4 148.8,93.3 C153.3,116.5 161.1,159.6 162.2,186.8 C162.5,194 160.6,201 156.9,207 L156.7,207.3 C150.1,217.8 138.9,224 126.6,224 Z M19.1,14.1 C27.9,24.7 42.8,49.1 39.1,89.3 C36.6,115.6 33.6,134.6 31,151.4 C29,164.3 27.2,175.5 26.3,186.5 C25.9,191.4 26.9,196.2 29.2,200.4 C33.5,208.2 41.7,213.1 50.6,213.1 L126.6,213.1 C135.1,213.1 142.8,208.8 147.3,201.6 L147.5,201.3 C150.1,197.1 151.4,192.3 151.2,187.3 C150.2,160.8 142.5,118.4 138,95.5 C134.6,78 134,60.1 136.3,42.3 C131.9,43.1 126.2,43.9 119.7,43.9 C102.2,43.9 86.8,38.3 75.1,27.6 C63.4,16.9 50.3,11.4 36.2,11.4 C29.2,11.4 23.3,12.7 19.1,14.1 Z" id="Shape"></path>
                <path d="M149.1,163.3 L145.4,137 L156.4,137 L157.1,141.6 C158.2,148.7 159.1,155.5 159.9,161.9 L149.1,163.3 Z" id="Shape"></path>
                <path d="M154.6,168 L149.8,168 L145.5,137 L151.8,137 C157,137 161.6,133.7 163.4,128.8 L182.7,73.4 L160,73.4 L147.1,86.8 C145.9,88 144.2,88.7 142.5,88.7 C139.1,88.7 136.3,86 136.2,82.6 L135.1,56.7 L135.1,54.5 L147.1,42.2 L183.1,42.2 C193.7,42.2 203.7,47.8 209.2,56.8 C214,64.7 215,74.2 212,82.9 L191.6,141.5 C186.1,157.5 171.2,168 154.6,168 Z M157.9,147.1 L159.2,156.7 C169.2,155 177.8,148 181.2,138.1 L201.6,79.5 C203.6,73.9 202.9,67.8 199.8,62.7 C196.2,56.9 189.8,53.3 183,53.3 L151.6,53.3 L146,59 L146.6,71.5 L155.2,62.5 L182.8,62.5 C186.5,62.5 190.1,64.5 192,67.7 C193.7,70.5 194,73.8 193,76.9 L173.6,132.5 C171.1,139.7 165.1,145.1 157.9,147.1 Z" id="Shape"></path>
            </g>
            <path d="M224.1,236.1 L213.4,233.8 C227.2,171 215.3,142.4 215.1,142.1 L225.1,137.7 C225.8,139 238.7,169.8 224.1,236.1 Z" id="Shape" fill="#3A3033"></path>
        </g>
    </g>
</svg>