<?xml version="1.0" encoding="UTF-8"?>
<svg width="278px" height="352px" viewBox="0 0 278 352" version="1.1" xmlns="http://www.w3.org/2000/svg" xmlns:xlink="http://www.w3.org/1999/xlink">
    <!-- Generator: Sketch 49.3 (51167) - http://www.bohemiancoding.com/sketch -->
    <title>syphon</title>
    <desc>Created with Sketch.</desc>
    <defs></defs>
    <g id="Page-1" stroke="none" stroke-width="1" fill="none" fill-rule="evenodd">
        <g id="syphon" fill-rule="nonzero">
            <polygon id="Shape" fill="#FFFFFF" points="199.7 99.1 166.1 140.1 77.1 140.1 43.6 99.1"></polygon>
            <path d="M223,266.5 C223,282.2 210.3,295 194.5,295 L48.7,295 C40.8,295 33.7,291.8 28.6,286.7 C23.4,281.5 20.3,274.4 20.3,266.6 C20.3,257.5 24.7,249 32,243.6 L73.3,213.4 C74.3,212.7 75.2,212 76.1,211.2 L167.2,211.2 C168.1,212 169,212.7 170,213.4 L211.4,243.6 C215.1,246.3 218,249.8 220,253.7 C221.9,257.5 223,261.9 223,266.5 Z" id="Shape" fill="#FFFFFF"></path>
            <polygon id="Shape" fill="#FFFFFF" points="11.7 25.1 113.3 25.1 130.3 25.1 231.8 25.1 138.1 140.1 105 140.1"></polygon>
            <rect id="Rectangle-path" fill="#FFFFFF" x="103.8" y="25.1" width="34.4" height="48.8"></rect>
            <polygon id="Shape" fill="#FFFFFF" points="125 320 122.3 320 74 320 81.9 346.4 122.3 346.4 125 346.4 165.4 346.4 173.2 320"></polygon>
            <polygon id="Shape" fill="#FFFFFF" points="192.3 5.6 121.6 5.6 120.6 5.6 49.9 5.6 36.2 25.1 120.6 25.1 121.6 25.1 206 25.1"></polygon>
            <rect id="Rectangle-path" fill="#FFFFFF" x="112.7" y="211.1" width="15.7" height="63.4"></rect>
            <path d="M183.2,140.1 L106.4,140.1 L95.3,140.1 L57.9,140.1 C101.2,179.200129 56.1,211.000469 56.1,211.000469 L93.4,211.000234 L103.2,211.000234 L185,211.000469 C185,211.100234 139.9,179.300129 183.2,140.1 Z" id="Shape" fill="#9D705C"></path>
            <path d="M223,266.5 C223,282.2 210.3,295 194.5,295 L48.7,295 C40.8,295 33.7,291.8 28.6,286.7 C23.4,281.5 20.3,274.4 20.3,266.6 C20.3,265.7 20.4,264.7 20.4,263.8 L222.9,263.8 C223,264.6 223,265.5 223,266.5 Z" id="Shape" fill="#CDCCCC"></path>
            <path d="M223,266.5 C223,282.2 210.3,295 194.5,295 L48.7,295 C40.8,295 33.7,291.8 28.6,286.7 C23.4,281.5 20.3,274.4 20.3,266.6 C20.3,265.7 20.4,264.7 20.4,263.8 L222.9,263.8 C223,264.6 223,265.5 223,266.5 Z" id="Shape" fill="#CDCCCC"></path>
            <polygon id="Shape" fill="#CD9E5D" points="199.7 64.6 138.1 140.1 105 140.1 43.7 64.6"></polygon>
            <path d="M166.1,145.6 L77.1,145.6 L72.9,143.6 L39.4,102.5 L43.6,93.6 L199.7,93.6 L203.9,102.5 L170.3,143.6 L166.1,145.6 Z M79.7,134.7 L163.5,134.7 L188.1,104.6 L55.1,104.6 L79.7,134.7 Z" id="Shape" fill="#3A3033"></path>
            <path d="M194.6,300.4 L48.7,300.4 C39.7,300.4 31.1,296.9 24.7,290.5 C18.3,284.1 14.7,275.5 14.7,266.5 C14.7,255.7 19.9,245.5 28.6,239.1 L69.9,208.9 C70.7,208.3 71.5,207.7 72.4,206.9 L76,205.6 L167.1,205.6 L170.7,207 C171.5,207.7 172.3,208.3 173.1,208.9 L214.5,239.1 C218.8,242.2 222.3,246.4 224.7,251.2 C227.1,255.9 228.4,261.2 228.4,266.6 C228.5,285.2 213.3,300.4 194.6,300.4 Z M78,216.5 C77.5,216.9 76.9,217.3 76.4,217.7 L35.1,247.8 C29.2,252.1 25.6,259.1 25.6,266.4 C25.6,272.5 28,278.3 32.3,282.7 C36.7,287 42.5,289.4 48.6,289.4 L194.4,289.4 C207.1,289.4 217.4,279.1 217.4,266.4 C217.4,262.8 216.5,259.2 214.9,256 C213.3,252.8 210.9,249.9 208,247.8 L166.6,217.6 C166.1,217.2 165.6,216.8 165.1,216.4 L78,216.4 L78,216.5 Z" id="Shape" fill="#3A3033"></path>
            <path d="M185,216.5 L56.1,216.5 L52.9,206.6 C53.1,206.5 70.1,194.2 71.1,176.7 C71.7,165.9 66,154.9 54.2,144.2 L57.9,134.7 L183.2,134.7 L186.9,144.2 C175,154.9 169.3,165.9 170,176.7 C171,194.1 188,206.5 188.2,206.6 L185,216.5 Z M69.8,205.6 L171.3,205.6 C165.7,199 159.7,189.3 159,177.4 C158.3,166.5 162.2,155.8 170.4,145.6 L70.6,145.6 C78.9,155.8 82.7,166.5 82,177.4 C81.4,189.3 75.4,199 69.8,205.6 Z" id="Shape" fill="#3A3033"></path>
            <path d="M140.7,145.6 L102.4,145.6 L0.3,19.6 L243.4,19.6 L140.7,145.6 Z M107.6,134.7 L135.5,134.7 L220.3,30.6 L23.2,30.6 L107.6,134.7 Z" id="Shape" fill="#3A3033"></path>
            <path d="M138.1,145.6 L105,145.6 L100.8,143.6 L67.5,102.5 L71.7,93.6 L171.6,93.6 L175.8,102.5 L142.4,143.6 L138.1,145.6 Z M107.6,134.7 L135.5,134.7 L160,104.6 L83.1,104.6 L107.6,134.7 Z" id="Shape" fill="#3A3033"></path>
            <path d="M248.2,351.8 L5.5,351.8 L5.5,340.9 L248.3,340.9 C258.5,340.9 266.9,332.6 266.9,322.3 L266.9,247.2 C266.9,241.5 264.2,236 259.6,232.5 L217.6,199.5 C206.8,191 193.4,186.4 179.7,186.4 L168.4,186.4 L168.4,175.5 L179.7,175.5 C195.8,175.5 211.7,181 224.4,191 L266.3,224 C273.5,229.5 277.8,238.3 277.8,247.4 L277.8,322.5 C277.7,338.6 264.5,351.8 248.2,351.8 Z" id="Shape" fill="#3A3033"></path>
            <path d="M138.2,79.4 L103.8,79.4 L98.3,73.9 L98.3,25.1 L103.8,19.6 L138.2,19.6 L143.7,25.1 L143.7,73.9 L138.2,79.4 Z M109.3,68.4 L132.7,68.4 L132.7,30.6 L109.3,30.6 L109.3,68.4 Z" id="Shape" fill="#3A3033"></path>
            <path d="M165.4,351.8 L81.9,351.8 L76.7,347.9 L68.9,321.5 L74.1,314.5 L173.3,314.5 L178.5,321.5 L170.7,347.9 L165.4,351.8 Z M86,340.9 L161.4,340.9 L166,325.5 L81.5,325.5 L86,340.9 Z" id="Shape" fill="#3A3033"></path>
            <path d="M216.5,30.6 L25.7,30.6 L47,0.2 L195.1,0.2 L216.5,30.6 Z M46.7,19.6 L195.5,19.6 L189.5,11.1 L52.7,11.1 L46.7,19.6 Z" id="Shape" fill="#3A3033"></path>
            <path d="M133.9,279.9 L107.2,279.9 L107.2,205.6 L133.9,205.6 L133.9,279.9 Z M118.2,269 L123,269 L123,216.5 L118.2,216.5 L118.2,269 Z" id="Shape" fill="#3A3033"></path>
        </g>
    </g>
</svg>