<?xml version="1.0" encoding="UTF-8"?>
<svg width="214px" height="328px" viewBox="0 0 214 328" version="1.1" xmlns="http://www.w3.org/2000/svg" xmlns:xlink="http://www.w3.org/1999/xlink">
    <!-- Generator: Sketch 51 (57462) - http://www.bohemiancoding.com/sketch -->
    <title>take away</title>
    <desc>Created with Sketch.</desc>
    <defs></defs>
    <g id="Page-1" stroke="none" stroke-width="1" fill="none" fill-rule="evenodd">
        <g id="take-away" fill-rule="nonzero">
            <polygon id="Shape" fill="#9D705C" points="112.8 139.5 112.8 139.5 107 139.5 101.2 139.5 101.2 139.5 42.9 139.5 42.9 173.2 67.3 302.6 101.2 302.6 112.8 302.6 146.7 302.6 171.1 173.2 171.1 139.5"></polygon>
            <polygon id="Shape" fill="#9D705C" points="171.1 139.6 171.1 173.3 153.8 265 146.7 302.6 67.3 302.6 60.2 265 42.9 173.3 42.9 139.6"></polygon>
            <polygon id="Shape" fill="#FFFFFF" points="171.1 172.5 171.1 173.3 153.8 265 60.2 265 42.9 173.3 42.9 172.5"></polygon>
            <rect id="Rectangle-path" fill="#9D705C" x="67.2" y="302.6" width="79.5" height="19.5"></rect>
            <path d="M174.5,5.9 L39.5,5.9 L6.3,72.3 L6.3,139.6 L207.7,139.6 L207.7,72.3 L174.5,5.9 Z M156.1,51 C156.1,62.1 147.1,71.1 136,71.1 L78,71.1 C66.9,71.1 57.9,62.1 57.9,51 L57.9,49.6 C57.9,38.5 66.9,29.5 78,29.5 L136,29.5 C147.1,29.5 156.1,38.5 156.1,49.6 L156.1,51 Z" id="Shape" fill="#CDCCCC"></path>
            <path d="M16.4,145 L6.3,145 L0.8,139.5 L0.8,72.3 L1.4,69.9 L34.6,3.5 L39.5,0.5 L174.5,0.5 L179.4,3.5 L212.6,69.9 L213.2,72.3 L213.2,139.5 L207.7,145 L16.4,145 Z M11.8,134.1 L202.3,134.1 L202.3,73.6 L171.2,11.4 L42.9,11.4 L11.8,73.7 L11.8,134.1 Z" id="Shape" fill="#3A3033"></path>
            <path d="M146.7,308.1 L67.4,308.1 L62,303.6 L37.5,174.2 L37.4,173.2 L37.4,139.5 L42.9,134 L171.2,134 L176.7,139.5 L176.7,173.2 L176.6,174.2 L152,303.6 L146.7,308.1 Z M71.9,297.1 L142.2,297.1 L165.7,172.7 L165.7,145 L48.4,145 L48.4,172.7 L71.9,297.1 Z" id="Shape" fill="#3A3033"></path>
            <path d="M146.7,308.1 L67.4,308.1 L62,303.6 L37.5,174.3 L37.4,173.3 L37.4,139.6 L42.9,134.1 L171.2,134.1 L176.7,139.6 L176.7,173.3 L176.6,174.3 L152,303.6 L146.7,308.1 Z M71.8,297.1 L142.1,297.1 L165.6,172.7 L165.6,145 L48.3,145 L48.3,172.7 L71.8,297.1 Z" id="Shape" fill="#3A3033"></path>
            <path d="M136,76.6 L78,76.6 C63.9,76.6 52.4,65.1 52.4,51 L52.4,49.6 C52.4,35.5 63.9,24 78,24 L136,24 C150.1,24 161.6,35.5 161.6,49.6 L161.6,51 C161.6,65.1 150.1,76.6 136,76.6 Z M78,35 C69.9,35 63.3,41.6 63.3,49.7 L63.3,51.1 C63.3,59.2 69.9,65.8 78,65.8 L136,65.8 C144.1,65.8 150.7,59.2 150.7,51.1 L150.7,49.7 C150.7,41.6 144.1,35 136,35 L78,35 Z" id="Shape" fill="#3A3033"></path>
            <rect id="Rectangle-path" fill="#3A3033" x="44.4" y="98.3" width="125.3" height="10.9"></rect>
            <path d="M146.8,327.6 L67.3,327.6 L61.8,322.1 L61.8,302.6 L67.3,297.1 L146.8,297.1 L152.3,302.6 L152.3,322.1 L146.8,327.6 Z M72.7,316.7 L141.3,316.7 L141.3,308.1 L72.7,308.1 L72.7,316.7 Z" id="Shape" fill="#3A3033"></path>
            <g id="Group" transform="translate(79.000000, 181.000000)" fill="#3A3033">
                <path d="M28.2,73.6 C13.2,73.6 1.2,57.8 0.9,37.7 C0.8,28.4 3.2,19.5 7.8,12.6 C12.8,5.2 19.8,1.1 27.4,0.9 L27.7,0.9 C42.7,0.9 54.7,16.7 55,36.8 C55.3,57.2 43.6,73.3 28.5,73.5 L28.2,73.6 Z M27.8,11.9 C23.7,12 19.9,14.4 17,18.8 C13.6,23.8 11.8,30.4 11.9,37.5 C12.1,51.1 19.6,62.6 28.3,62.6 L28.4,62.6 C37.1,62.5 44.4,50.7 44.2,37 C43.9,23.4 36.4,11.9 27.8,11.9 Z" id="Shape"></path>
                <path d="M30.4,72.6 L24.2,63.6 C24.2,63.6 29.8,59.6 30.2,54 C30.5,50.3 28.5,46.4 24.3,42.3 C17.7,35.9 14.5,29 14.7,21.7 C15,10.3 23.7,2.6 24,2.3 L31.2,10.5 C31.1,10.5 25.7,15.5 25.6,22 C25.5,26.1 27.6,30.3 31.9,34.4 C38.6,40.9 41.7,47.8 41.1,54.9 C40.1,65.8 30.8,72.3 30.4,72.6 Z" id="Shape"></path>
            </g>
            <path d="M153.8,270.5 L60.2,270.5 L54.8,266 L37.4,174.3 L37.3,172.5 L42.8,167 L171.1,167 L176.6,172.5 L176.6,173.3 L176.5,174.3 L159.2,266 L153.8,270.5 Z M64.7,259.5 L149.2,259.5 L164.6,177.9 L49.3,177.9 L64.7,259.5 Z" id="Shape" fill="#3A3033"></path>
        </g>
    </g>
</svg>