<?xml version="1.0" encoding="utf-8"?>
<!-- Generator: Adobe Illustrator 18.0.0, SVG Export Plug-In . SVG Version: 6.00 Build 0)  -->
<!DOCTYPE svg PUBLIC "-//W3C//DTD SVG 1.1//EN" "http://www.w3.org/Graphics/SVG/1.1/DTD/svg11.dtd">
<svg version="1.1" id="Layer_1" xmlns="http://www.w3.org/2000/svg" xmlns:xlink="http://www.w3.org/1999/xlink" x="0px" y="0px"
	 width="512px" height="512px" viewBox="0 0 512 512" enable-background="new 0 0 512 512" xml:space="preserve">
<g>
	<g>
		<polygon fill="#9D705C" points="261.8,231.5 261.8,231.5 256,231.5 250.2,231.5 250.2,231.5 191.9,231.5 191.9,265.2 216.3,394.6 
			250.2,394.6 261.8,394.6 295.7,394.6 320.1,265.2 320.1,231.5 		"/>
	</g>
	<g>
		<polygon fill="#9D705C" points="320.1,231.6 320.1,265.3 302.8,357 295.7,394.6 216.3,394.6 209.2,357 191.9,265.3 191.9,231.6 		
			"/>
	</g>
	<g>
		<polygon fill="#FFFFFF" points="320.1,264.5 320.1,265.3 302.8,357 209.2,357 191.9,265.3 191.9,264.5 		"/>
	</g>
	<g>
		<rect x="216.2" y="394.6" fill="#9D705C" width="79.5" height="19.5"/>
	</g>
	<g>
		<path fill="#CDCCCC" d="M323.5,97.9h-135l-33.2,66.4v67.3h201.4v-67.3L323.5,97.9z M305.1,143c0,11.1-9,20.1-20.1,20.1h-58
			c-11.1,0-20.1-9-20.1-20.1v-1.4c0-11.1,9-20.1,20.1-20.1h58c11.1,0,20.1,9,20.1,20.1V143z"/>
	</g>
	<g>
		<path fill="#3A3033" d="M165.4,237h-10.1l-5.5-5.5v-67.2l0.6-2.4l33.2-66.4l4.9-3h135l4.9,3l33.2,66.4l0.6,2.4v67.2l-5.5,5.5
			L165.4,237z M160.8,226.1l190.5,0v-60.5l-31.1-62.2H191.9l-31.1,62.3V226.1z"/>
	</g>
	<g>
		<path fill="#3A3033" d="M295.7,400.1h-79.3l-5.4-4.5l-24.5-129.4l-0.1-1v-33.7l5.5-5.5l128.3,0l5.5,5.5v33.7l-0.1,1L301,395.6
			L295.7,400.1z M220.9,389.1h70.3l23.5-124.4V237l-117.3,0v27.7L220.9,389.1z"/>
	</g>
	<g>
		<path fill="#3A3033" d="M295.7,400.1h-79.3l-5.4-4.5l-24.5-129.3l-0.1-1v-33.7l5.5-5.5h128.3l5.5,5.5v33.7l-0.1,1L301,395.6
			L295.7,400.1z M220.8,389.1h70.3l23.5-124.4V237H197.3v27.7L220.8,389.1z"/>
	</g>
	<g>
		<path fill="#3A3033" d="M285,168.6h-58c-14.1,0-25.6-11.5-25.6-25.6v-1.4c0-14.1,11.5-25.6,25.6-25.6h58
			c14.1,0,25.6,11.5,25.6,25.6v1.4C310.6,157.1,299.1,168.6,285,168.6z M227,127c-8.1,0-14.7,6.6-14.7,14.7v1.4
			c0,8.1,6.6,14.7,14.7,14.7h58c8.1,0,14.7-6.6,14.7-14.7v-1.4c0-8.1-6.6-14.7-14.7-14.7H227z"/>
	</g>
	<g>
		<rect x="193.4" y="190.3" fill="#3A3033" width="125.3" height="10.9"/>
	</g>
	<g>
		<path fill="#3A3033" d="M295.8,419.6h-79.5l-5.5-5.5v-19.5l5.5-5.5h79.5l5.5,5.5v19.5L295.8,419.6z M221.7,408.7h68.6v-8.6h-68.6
			V408.7z"/>
	</g>
	<g>
		<g>
			<path fill="#3A3033" d="M256.2,346.6c-15,0-27-15.8-27.3-35.9c-0.1-9.3,2.3-18.2,6.9-25.1c5-7.4,12-11.5,19.6-11.7l0.3,0
				c15,0,27,15.8,27.3,35.9c0.3,20.4-11.4,36.5-26.5,36.7L256.2,346.6z M255.8,284.9c-4.1,0.1-7.9,2.5-10.8,6.9
				c-3.4,5-5.2,11.6-5.1,18.7c0.2,13.6,7.7,25.1,16.4,25.1l0.1,0c8.7-0.1,16-11.9,15.8-25.6C271.9,296.4,264.4,284.9,255.8,284.9z"
				/>
		</g>
		<g>
			<path fill="#3A3033" d="M258.4,345.6l-6.2-9c0,0,5.6-4,6-9.6c0.3-3.7-1.7-7.6-5.9-11.7c-6.6-6.4-9.8-13.3-9.6-20.6
				c0.3-11.4,9-19.1,9.3-19.4l7.2,8.2c-0.1,0-5.5,5-5.6,11.5c-0.1,4.1,2,8.3,6.3,12.4c6.7,6.5,9.8,13.4,9.2,20.5
				C268.1,338.8,258.8,345.3,258.4,345.6z"/>
		</g>
	</g>
	<g>
		<path fill="#3A3033" d="M302.8,362.5h-93.6l-5.4-4.5l-17.4-91.7l-0.1-1.8l5.5-5.5h128.3l5.5,5.5v0.8l-0.1,1L308.2,358L302.8,362.5
			z M213.7,351.5h84.5l15.4-81.6H198.3L213.7,351.5z"/>
	</g>
</g>
</svg>
