<?xml version="1.0" encoding="utf-8"?>
<!-- Generator: Adobe Illustrator 18.0.0, SVG Export Plug-In . SVG Version: 6.00 Build 0)  -->
<!DOCTYPE svg PUBLIC "-//W3C//DTD SVG 1.1//EN" "http://www.w3.org/Graphics/SVG/1.1/DTD/svg11.dtd">
<svg version="1.1" id="Layer_1" xmlns="http://www.w3.org/2000/svg" xmlns:xlink="http://www.w3.org/1999/xlink" x="0px" y="0px"
	 width="512px" height="512px" viewBox="0 0 512 512" enable-background="new 0 0 512 512" xml:space="preserve">
<g>
	<g>
		<polygon fill="#FFFFFF" points="133.1,211.1 151,211.1 168.8,211.1 185.3,187.5 185.3,133.7 151,133.7 116.6,133.7 116.6,187.5 		
			"/>
	</g>
	<g>
		<polygon fill="#FFFFFF" points="330.7,226.3 330.7,226.3 294.4,226.3 318.5,262.6 330.7,262.6 342.9,262.6 367.1,226.3 		"/>
	</g>
	<g>
		<polygon fill="#FFFFFF" points="294.4,226.3 266.1,262.6 318.5,262.6 		"/>
	</g>
	<g>
		<polygon fill="#FFFFFF" points="367.1,226.3 395.4,262.6 342.9,262.6 		"/>
	</g>
	<g>
		<rect x="266.1" y="262.6" fill="#FFFFFF" width="129.2" height="111.6"/>
	</g>
	<g>
		<rect x="266.1" y="328.1" fill="#9D705C" width="129.2" height="46.2"/>
	</g>
	<g>
		<path fill="#3A3033" d="M171.7,216.6h-41.4l-19.1-27.4v-61h79.6v61L171.7,216.6z M136,205.7h30l13.9-19.9v-46.6h-57.8v46.6
			L136,205.7z"/>
	</g>
	<g>
		<path fill="#3A3033" d="M342.9,268.1h-24.4l-4.6-2.4l-24.2-36.3l4.6-8.5h72.7l4.6,8.5l-24.2,36.3L342.9,268.1z M321.5,257.2H340
			l16.9-25.4h-52.3L321.5,257.2z"/>
	</g>
	<g>
		<path fill="#3A3033" d="M318.5,268.1h-52.4l-4.3-8.8l28.2-36.3l8.9,0.3l24.2,36.3L318.5,268.1z M277.3,257.2h31L294,235.6
			L277.3,257.2z"/>
	</g>
	<g>
		<path fill="#3A3033" d="M395.4,268.1h-52.4l-4.6-8.5l24.2-36.3l8.9-0.3l28.2,36.3L395.4,268.1z M353.1,257.2h31l-16.7-21.5
			L353.1,257.2z"/>
	</g>
	<g>
		<path fill="#3A3033" d="M395.4,379.7H266.1l-5.5-5.5V262.6l5.5-5.5h129.2l5.5,5.5v111.6L395.4,379.7z M271.6,368.8h118.3V268.1
			H271.6V368.8z"/>
	</g>
	<g>
		<rect x="318.5" y="236.5" fill="#3A3033" width="24.4" height="10.9"/>
	</g>
	<g>
		<path fill="#3A3033" d="M195.4,383.7c-27.5,0-49.9-22.4-49.9-49.9V191.7h10.9v142.1c0,21.5,17.5,38.9,38.9,38.9
			c21.5,0,38.9-17.5,38.9-38.9V178.1c0-27.5,22.4-49.9,49.9-49.9h2.2c27.5,0,49.9,22.4,49.9,49.9v63.8h-10.9v-63.8
			c0-21.5-17.5-38.9-38.9-38.9h-2.2c-21.5,0-38.9,17.5-38.9,38.9v155.7C245.2,361.4,222.9,383.7,195.4,383.7z"/>
	</g>
</g>
</svg>
