<?xml version="1.0" encoding="utf-8"?>
<!-- Generator: Adobe Illustrator 18.0.0, SVG Export Plug-In . SVG Version: 6.00 Build 0)  -->
<!DOCTYPE svg PUBLIC "-//W3C//DTD SVG 1.1//EN" "http://www.w3.org/Graphics/SVG/1.1/DTD/svg11.dtd">
<svg version="1.1" id="Layer_1" xmlns="http://www.w3.org/2000/svg" xmlns:xlink="http://www.w3.org/1999/xlink" x="0px" y="0px"
	 width="512px" height="512px" viewBox="0 0 512 512" enable-background="new 0 0 512 512" xml:space="preserve">
<g>
	<g>
		<path fill="#FFFFFF" d="M411.8,321.2c0,0.2,0.1,0.5,0.1,0.7h-83.2c0,0,2.9,48.8,31.1,62.4v22.2H184.8
			c-24.8-19.2-40.3-45.8-40.3-75.4c0-1.1,0-2.2,0.1-3.2c0-1,0.1-1.9,0.1-2.9c0-0.3,0-0.5,0.1-0.8c0.1-0.8,0.1-1.6,0.2-2.4
			c0-0.2,0-0.4,0.1-0.6c0.1-1,0.2-1.9,0.4-2.9c0.2-1.1,0.3-2.1,0.5-3.1c0.5-2.8,1.2-5.6,2.1-8.4c0.2-0.6,0.3-1.2,0.5-1.7
			c0-0.3,0.1-0.5,0.2-0.7c0.2-0.6,0.4-1.2,0.6-1.9c0.4-1.1,0.8-2.2,1.3-3.3c0.6-1.5,1.2-2.9,1.9-4.3c0.4-0.8,0.8-1.6,1.2-2.4
			c0.4-0.8,0.8-1.6,1.2-2.4c0.4-0.8,0.9-1.6,1.3-2.3c0.5-0.8,0.9-1.6,1.4-2.3c0.9-1.5,1.9-3.1,2.9-4.6c0.5-0.7,1-1.5,1.6-2.2
			c0.5-0.7,1.1-1.5,1.6-2.2c0.5-0.7,1.1-1.4,1.7-2.1c3.3-4,6.9-7.9,10.9-11.6c0.7-0.7,1.4-1.3,2.2-2c0.9-0.7,1.7-1.5,2.6-2.2
			c0.7-0.6,1.5-1.2,2.3-1.9c1.6-1.3,3.2-2.5,4.9-3.7c0.6-0.5,1.3-0.9,1.9-1.3c1.2-0.8,2.4-1.6,3.6-2.4c0.6-0.4,1.3-0.8,1.9-1.2
			c0.8-0.5,1.7-1,2.5-1.5c1.2-0.7,2.5-1.4,3.7-2.1c0.5-0.3,1-0.6,1.5-0.8c1.1-0.6,2.2-1.2,3.4-1.7c1.4-0.7,2.9-1.4,4.4-2.1
			c0.1-0.1,0.3-0.1,0.5-0.2c1.3-0.6,2.7-1.2,4-1.7c1.9-0.8,3.9-1.6,5.8-2.3c0.9-0.3,1.8-0.7,2.7-1c0.6-0.2,1.3-0.5,1.9-0.7
			c1.4-0.5,2.9-0.9,4.4-1.4c1.6-0.5,3.2-0.9,4.8-1.4c1.4-0.4,2.8-0.7,4.2-1.1c0.6-0.1,1.1-0.3,1.7-0.4c1.8-0.4,3.6-0.8,5.4-1.1
			c1.4-0.3,2.8-0.5,4.2-0.8c0.1,0,0.3,0,0.4-0.1c1.6-0.3,3.3-0.5,5-0.7c1.6-0.2,3.3-0.4,5-0.6c0.4,0,0.9-0.1,1.3-0.1
			c1.2-0.1,2.4-0.2,3.6-0.3c0.6,0,1.2-0.1,1.9-0.1c1.5-0.1,3-0.2,4.5-0.2h0.3c1.8-0.1,3.6-0.1,5.5-0.1c1.8,0,3.6,0,5.4,0.1h0.4
			c1.5,0,3,0.1,4.5,0.2c0.6,0,1.2,0.1,1.9,0.1c1.2,0.1,2.4,0.2,3.6,0.3c0.5,0,0.9,0.1,1.3,0.1c1.7,0.2,3.3,0.4,5,0.6
			c1.7,0.2,3.3,0.5,4.9,0.7c1.4,0.2,2.8,0.5,4.2,0.8c0.7,0.1,1.4,0.3,2.2,0.4c1.2,0.2,2.4,0.5,3.6,0.8c0.6,0.1,1.2,0.3,1.7,0.4
			c1.4,0.3,2.8,0.7,4.2,1.1c1.5,0.4,2.9,0.8,4.4,1.2c1.6,0.5,3.2,1,4.8,1.5c0.7,0.2,1.3,0.4,1.9,0.7c0.9,0.3,1.8,0.6,2.7,1
			c0.5,0.2,0.9,0.3,1.3,0.5c1.4,0.5,2.9,1.1,4.3,1.7c1.6,0.6,3.1,1.3,4.6,2c1.5,0.7,3,1.4,4.5,2.2c1.5,0.7,2.9,1.5,4.4,2.3
			c1.4,0.8,2.8,1.6,4.2,2.4c2.8,1.6,5.5,3.3,8,5.1c0.6,0.4,1.3,0.9,1.9,1.3c1.7,1.2,3.3,2.4,4.9,3.7c0.8,0.6,1.5,1.2,2.3,1.9
			c0.9,0.7,1.7,1.5,2.6,2.2c0.8,0.7,1.5,1.3,2.2,2c4.3,4,8.2,8.2,11.7,12.6c0.6,0.7,1.1,1.4,1.7,2.1c0.7,1,1.4,1.9,2.1,2.9
			c0.6,0.9,1.2,1.8,1.8,2.7c1.6,2.4,3,4.9,4.3,7.4c0.3,0.5,0.6,1.1,0.9,1.7c1.4,2.6,2.5,5.3,3.6,8c0.4,0.9,0.7,1.9,1.1,2.9
			c0.3,0.8,0.5,1.6,0.8,2.4c0.2,0.5,0.3,0.9,0.5,1.4c0.8,2.8,1.5,5.6,2.1,8.4c0.2,1,0.4,2.1,0.5,3.1
			C411.6,319.2,411.7,320.2,411.8,321.2z"/>
	</g>
	<g>
		<path fill="#FFFFFF" d="M411.9,321.9h-83.2c0,0,2.9,48.8,31.1,62.4v22.2H184.8c-24.8-19.2-40.3-45.8-40.3-75.4
			c0-1.1,0-2.2,0.1-3.2c0-1,0.1-1.9,0.1-2.9c0-0.3,0-0.5,0.1-0.8c0.1-0.8,0.1-1.6,0.2-2.4c0-0.2,0-0.4,0.1-0.6
			c0.1-1,0.2-1.9,0.4-2.9c0.2-1.1,0.3-2.1,0.5-3.1c0.5-2.8,1.2-5.6,2.1-8.4c0.2-0.6,0.3-1.2,0.5-1.7c0-0.3,0.1-0.5,0.2-0.7
			c0.2-0.6,0.4-1.2,0.6-1.9c0.4-1.1,0.8-2.2,1.3-3.3c0.6-1.5,1.2-2.9,1.9-4.3c0.4-0.8,0.8-1.6,1.2-2.4c0.4-0.8,0.8-1.6,1.2-2.4
			c0.4-0.8,0.9-1.6,1.3-2.3c0.5-0.8,0.9-1.6,1.4-2.3c0.9-1.5,1.9-3.1,2.9-4.6c0.5-0.7,1-1.5,1.6-2.2c0.5-0.7,1.1-1.5,1.6-2.2
			c0.5-0.7,1.1-1.4,1.7-2.1c3.3-4,6.9-7.9,10.9-11.6c0.7-0.7,1.4-1.3,2.2-2c0.9-0.7,1.7-1.5,2.6-2.2c0.7-0.6,1.5-1.2,2.3-1.9
			c1.6-1.3,3.2-2.5,4.9-3.7c0.6-0.5,1.3-0.9,1.9-1.3c1.2-0.8,2.4-1.6,3.6-2.4c0.6-0.4,1.3-0.8,1.9-1.2c0.8-0.5,1.7-1,2.5-1.5
			c1.2-0.7,2.5-1.4,3.7-2.1c0.5-0.3,1-0.6,1.5-0.8c1.1-0.6,2.2-1.2,3.4-1.7c1.4-0.7,2.9-1.4,4.4-2.1c0.1-0.1,0.3-0.1,0.5-0.2
			c1.3-0.6,2.7-1.2,4-1.7c1.9-0.8,3.9-1.6,5.8-2.3c0.9-0.3,1.8-0.7,2.7-1c0.6-0.2,1.3-0.5,1.9-0.7c1.4-0.5,2.9-0.9,4.4-1.4
			c1.6-0.5,3.2-0.9,4.8-1.4c1.4-0.4,2.8-0.7,4.2-1.1c0.6-0.1,1.1-0.3,1.7-0.4c1.8-0.4,3.6-0.8,5.4-1.1c1.4-0.3,2.8-0.5,4.2-0.8
			c0.1,0,0.3,0,0.4-0.1c1.6-0.3,3.3-0.5,5-0.7c1.6-0.2,3.3-0.4,5-0.6c0.4,0,0.9-0.1,1.3-0.1c1.2-0.1,2.4-0.2,3.6-0.3
			c0.6,0,1.2-0.1,1.9-0.1c1.5-0.1,3-0.2,4.5-0.2h0.3c1.8-0.1,3.6-0.1,5.5-0.1c1.8,0,3.6,0,5.4,0.1h0.4c1.5,0,3,0.1,4.5,0.2
			c0.6,0,1.2,0.1,1.9,0.1c1.2,0.1,2.4,0.2,3.6,0.3c0.5,0,0.9,0.1,1.3,0.1c1.7,0.2,3.3,0.4,5,0.6c1.7,0.2,3.3,0.5,4.9,0.7
			c1.4,0.2,2.8,0.5,4.2,0.8c0.7,0.1,1.4,0.3,2.2,0.4c1.2,0.2,2.4,0.5,3.6,0.8c0.6,0.1,1.2,0.3,1.7,0.4c1.4,0.3,2.8,0.7,4.2,1.1
			c1.5,0.4,2.9,0.8,4.4,1.2c1.6,0.5,3.2,1,4.8,1.5c0.7,0.2,1.3,0.4,1.9,0.7c0.9,0.3,1.8,0.6,2.7,1c0.5,0.2,0.9,0.3,1.3,0.5
			c1.4,0.5,2.9,1.1,4.3,1.7c1.6,0.6,3.1,1.3,4.6,2c1.5,0.7,3,1.4,4.5,2.2c1.5,0.7,2.9,1.5,4.4,2.3c1.4,0.8,2.8,1.6,4.2,2.4
			c2.8,1.6,5.5,3.3,8,5.1c0.6,0.4,1.3,0.9,1.9,1.3c1.7,1.2,3.3,2.4,4.9,3.7c0.8,0.6,1.5,1.2,2.3,1.9c0.9,0.7,1.7,1.5,2.6,2.2
			c0.8,0.7,1.5,1.3,2.2,2c4.3,4,8.2,8.2,11.7,12.6c0.6,0.7,1.1,1.4,1.7,2.1c0.7,1,1.4,1.9,2.1,2.9c0.6,0.9,1.2,1.8,1.8,2.7
			c1.6,2.4,3,4.9,4.3,7.4c0.3,0.5,0.6,1.1,0.9,1.7c1.4,2.6,2.5,5.3,3.6,8c0.4,0.9,0.7,1.9,1.1,2.9c0.3,0.8,0.5,1.6,0.8,2.4
			c0.2,0.5,0.3,0.9,0.5,1.4c0.8,2.8,1.5,5.6,2.1,8.4c0.2,1,0.4,2.1,0.5,3.1c0.1,0.9,0.3,1.9,0.4,2.9
			C411.9,321.4,411.9,321.6,411.9,321.9z"/>
	</g>
	<g>
		<path fill="#FFFFFF" d="M162.8,384.2L162.8,384.2c0,0-53.4-12.8-95.4-106.6h35.1c0,0,0,0,43.1,40.3c0,0.1,0,0.2,0,0.3
			c-0.1,0.9-0.3,1.9-0.4,2.9c0,0.2-0.1,0.4-0.1,0.6c-0.1,0.8-0.2,1.6-0.2,2.4c0,0.2,0,0.5-0.1,0.8c-0.1,1-0.1,1.9-0.1,2.9
			c0,1.1-0.1,2.1-0.1,3.2C144.6,350.4,151.2,368.6,162.8,384.2z"/>
	</g>
	<g>
		<g>
			<path fill="#FFFFFF" d="M401.7,321.9h-27.4h-45.5c0,0,2.9,48.9,31.1,62.4h14.4h27.4h14.4c28.2-13.5,31.1-62.4,31.1-62.4H401.7z"
				/>
		</g>
		<g>
			<rect x="359.9" y="384.2" fill="#FFFFFF" width="56.3" height="22.2"/>
		</g>
	</g>
	<g>
		<path fill="#CD9E5D" d="M358.6,246.5c0,0-35.2,24.1-80.1,24.1c-44.9,0-80.1-24.1-80.1-24.1c22.4-13.2,50.1-21,80.1-21
			C308.6,225.5,336.3,233.3,358.6,246.5z"/>
	</g>
	<g>
		<circle fill="#CD9E5D" cx="278.5" cy="208.7" r="14.9"/>
	</g>
	<g>
		<path fill="#3A3033" d="M365.4,411.9H182.9l-1.5-1.1c-27.3-21.1-42.4-49.4-42.4-79.7c0-1.2,0-2.3,0.1-3.5c0-0.9,0.1-2,0.2-3.1
			l0.1-0.9c0.1-0.7,0.1-1.5,0.2-2.2c0-0.3,0.1-0.7,0.1-1c0.1-1,0.2-1.9,0.4-2.9c0.2-1.2,0.4-2.3,0.6-3.4c0.6-2.9,1.3-5.9,2.2-8.9
			c0.1-0.5,0.3-1.1,0.5-1.7c0.1-0.4,0.2-0.7,0.3-1c0.2-0.6,0.4-1.2,0.6-1.8c0.5-1.3,0.9-2.5,1.4-3.6c0.6-1.6,1.3-3.1,2-4.6
			c0.4-0.9,0.8-1.7,1.2-2.6c0.4-0.8,0.9-1.7,1.3-2.5c0.4-0.7,0.9-1.6,1.4-2.5c0.5-0.9,1-1.7,1.5-2.5c0.8-1.4,1.8-2.9,3.1-4.7
			l0.5-0.7c0.4-0.6,0.8-1.1,1.2-1.7c0.6-0.8,1.1-1.5,1.7-2.3c0.5-0.6,0.9-1.2,1.4-1.8l0.3-0.4c3.5-4.3,7.4-8.4,11.4-12.2
			c0.7-0.7,1.5-1.4,2.3-2.1c0.9-0.8,1.8-1.5,2.7-2.3c0.8-0.6,1.6-1.3,2.4-2c1.7-1.3,3.4-2.6,5.1-3.8c0.6-0.5,1.3-0.9,2-1.4
			c1.2-0.9,2.5-1.7,3.7-2.5c0.6-0.4,1.3-0.9,2.1-1.3c0.8-0.5,1.7-1.1,2.6-1.6c1.2-0.7,2.6-1.5,3.9-2.2c0.5-0.3,1.1-0.6,1.7-0.9
			c1-0.5,2.2-1.1,3.4-1.7c1.4-0.7,3-1.5,4.6-2.2c0.1,0,0.3-0.2,0.6-0.3c1.3-0.6,2.7-1.2,4.1-1.8c1.7-0.7,3.6-1.5,6-2.4
			c1-0.4,1.9-0.7,2.9-1c0.4-0.2,1-0.4,1.6-0.6l0.3-0.1c1.5-0.5,3-1,4.6-1.4c1.6-0.5,3.3-1,4.9-1.4c1.4-0.4,2.9-0.8,4.4-1.1
			c0.6-0.1,1.2-0.3,1.9-0.4c1.8-0.4,3.7-0.8,5.5-1.1c1.4-0.3,2.8-0.5,4.3-0.8l0.5-0.1c1.7-0.3,3.4-0.5,5.1-0.7
			c1.7-0.2,3.4-0.4,5.1-0.6c0.4,0,0.9-0.1,1.4-0.1c1.2-0.1,2.4-0.2,3.6-0.3c0.3,0,0.7,0,1.1-0.1l0.8,0c1.6-0.1,3.2-0.2,4.8-0.2
			l0.4,0c3.7-0.1,7.4-0.1,11.1,0h0.3c1.7,0.1,3.3,0.1,4.8,0.2l0.9,0.1c0.3,0,0.7,0,1,0.1c1.2,0.1,2.4,0.2,3.6,0.3
			c0.5,0,1,0.1,1.5,0.1c1.7,0.2,3.4,0.4,5.1,0.6c1.7,0.2,3.4,0.5,5.1,0.7c1.5,0.3,2.9,0.5,4.3,0.8c0.8,0.1,1.5,0.3,2.2,0.4
			c1.3,0.2,2.5,0.5,3.8,0.8c0.5,0.1,1.2,0.3,1.8,0.4c1.4,0.3,2.9,0.7,4.3,1.1c1.5,0.4,3,0.8,4.5,1.3c2,0.6,3.6,1.1,5.1,1.6
			c0.6,0.2,1.3,0.4,2,0.7c0.8,0.3,1.8,0.6,2.7,1c0.5,0.2,0.9,0.4,1.4,0.5c1.5,0.6,3,1.1,4.4,1.8c1.6,0.6,3.1,1.3,4.7,2
			c1.6,0.8,3.2,1.5,4.7,2.2c1.5,0.8,3,1.5,4.5,2.4c1.5,0.8,3,1.6,4.4,2.5c2.9,1.7,5.7,3.5,8.3,5.3c0.7,0.5,1.4,0.9,2.1,1.4
			c1.7,1.2,3.4,2.5,5.1,3.8c0.8,0.6,1.6,1.3,2.4,2c0.9,0.7,1.8,1.5,2.6,2.2c0.6,0.5,1.1,1,1.6,1.4l0.7,0.7
			c4.5,4.2,8.6,8.6,12.3,13.3c0.6,0.7,1.2,1.5,1.8,2.3c0.7,1,1.5,2,2.2,3.1c0.6,0.9,1.2,1.8,1.9,2.8c1.7,2.7,3.2,5.2,4.6,7.8
			c0.3,0.5,0.6,1.2,1,1.9c1.3,2.6,2.6,5.5,3.8,8.5c0.4,1,0.8,2,1.1,3.1c0.3,0.7,0.6,1.6,0.8,2.5c0.2,0.5,0.4,1.1,0.5,1.6
			c0.9,2.9,1.6,5.9,2.2,8.8c0.2,1,0.4,2.2,0.6,3.3c0.2,1,0.3,2,0.4,3c0.1,0.3,0.1,0.6,0.1,0.9l0.6,6h-83.1
			c1.7,12.7,7.8,42.6,27.4,52l3.1,1.5V411.9z M186.7,401h167.7v-13.5c-27.9-16.5-31-63.3-31.1-65.3l-0.3-5.8h82.6c0,0,0-0.1,0-0.1
			c-0.5-2.7-1.2-5.4-1.9-7.9l-0.1-0.2c-0.1-0.3-0.2-0.6-0.3-0.9l-0.1-0.3c-0.2-0.7-0.4-1.4-0.7-2c-0.3-1-0.7-1.8-1-2.7
			c-1-2.7-2.1-5.2-3.4-7.6c-0.3-0.6-0.5-1-0.8-1.5c-1.3-2.4-2.6-4.7-4.2-7.1c-0.5-0.8-1.1-1.7-1.7-2.5c-0.7-1-1.3-1.9-2-2.8
			c-0.5-0.7-1-1.4-1.6-2c-3.3-4.2-7.1-8.2-11.1-12l-0.7-0.6c-0.5-0.4-0.9-0.8-1.4-1.2c-0.8-0.7-1.6-1.4-2.5-2.1
			c-0.7-0.6-1.4-1.2-2.2-1.7c-1.5-1.2-3.1-2.4-4.7-3.5c-0.6-0.4-1.1-0.8-1.6-1.1l-0.2-0.1c-2.4-1.7-5-3.3-7.7-4.9
			c-1.4-0.8-2.7-1.6-4.1-2.3c-1.4-0.7-2.7-1.5-4.2-2.2c-1.5-0.7-2.9-1.4-4.4-2.1c-1.4-0.6-2.9-1.3-4.4-1.9c-1.4-0.6-2.8-1.1-4.2-1.7
			c-0.5-0.2-0.8-0.3-1.3-0.5c-0.9-0.3-1.7-0.6-2.6-0.9c-0.7-0.3-1.3-0.5-1.9-0.6c-1.4-0.5-2.9-0.9-4.7-1.5c-1.4-0.4-2.8-0.8-4.2-1.2
			c-1.4-0.4-2.8-0.7-4.1-1c-0.6-0.1-1.1-0.3-1.6-0.4c-1.3-0.3-2.4-0.5-3.6-0.8c-0.7-0.1-1.3-0.3-2-0.4l-0.2,0
			c-1.3-0.3-2.6-0.5-4-0.7c-1.6-0.3-3.2-0.5-4.8-0.7c-1.6-0.2-3.2-0.4-4.8-0.6c-0.4,0-0.7-0.1-1.1-0.1l-0.3,0
			c-1.1-0.1-2.3-0.2-3.5-0.3l-0.8-0.1c-0.3,0-0.7,0-1-0.1c-1.3-0.1-2.8-0.2-4.2-0.2l-0.3,0l-0.1,0c-3.5-0.1-7-0.1-10.5,0l-0.6,0
			c-1.3,0-2.7,0.1-4.2,0.2c-0.3,0-0.6,0-0.9,0.1c-0.3,0-0.5,0-0.8,0.1c-1.2,0.1-2.3,0.2-3.5,0.3l-0.3,0c-0.3,0-0.7,0.1-1,0.1
			c-1.7,0.2-3.3,0.4-4.9,0.6c-1.6,0.2-3.2,0.4-4.8,0.7l-0.4,0.1c-1.3,0.2-2.7,0.5-4,0.7c-1.8,0.3-3.6,0.7-5.2,1.1
			c-0.7,0.1-1.1,0.3-1.6,0.4c-1.5,0.3-2.8,0.7-4.2,1c-1.6,0.4-3.1,0.9-4.6,1.3c-1.4,0.4-2.8,0.9-4.2,1.3l-0.4,0.1
			c-0.5,0.2-1,0.3-1.4,0.5c-1,0.3-1.9,0.7-2.7,1c-2.2,0.8-4,1.5-5.6,2.2c-1.4,0.6-2.7,1.1-3.9,1.7l-0.4,0.2c-1.4,0.7-2.8,1.3-4.2,2
			c-1.1,0.6-2.2,1.1-3.3,1.7c-0.6,0.3-1,0.5-1.4,0.8c-1.3,0.7-2.5,1.4-3.7,2.1c-0.8,0.5-1.7,1-2.4,1.5c-0.7,0.4-1.3,0.8-1.8,1.2
			c-1.2,0.8-2.3,1.5-3.4,2.3l-0.2,0.1c-0.5,0.4-1.1,0.7-1.6,1.1c-1.6,1.2-3.2,2.3-4.7,3.6c-0.7,0.6-1.5,1.2-2.2,1.8
			c-0.9,0.7-1.7,1.4-2.5,2.2c-0.7,0.6-1.4,1.2-2,1.8c-3.7,3.5-7.2,7.2-10.4,11l-0.3,0.3c-0.4,0.5-0.9,1.1-1.3,1.6
			c-0.5,0.7-1,1.4-1.6,2.1c-0.4,0.5-0.7,1-1.1,1.5l-0.5,0.7c-1.1,1.6-1.9,2.9-2.7,4.2c-0.5,0.8-0.9,1.5-1.3,2.2
			c-0.4,0.7-0.8,1.4-1.2,2.1c-0.4,0.8-0.8,1.5-1.2,2.3c-0.4,0.8-0.8,1.5-1.1,2.2l-0.1,0.2c-0.6,1.2-1.1,2.5-1.7,3.9
			c-0.5,1.1-0.9,2.2-1.2,3.2c-0.2,0.5-0.4,1-0.5,1.6l-0.3,1c-0.2,0.4-0.3,0.8-0.4,1.3c-0.8,2.7-1.5,5.3-2,8c-0.2,1-0.4,2-0.5,2.9
			c-0.1,0.8-0.3,1.7-0.3,2.6l-0.1,0.7c-0.1,0.7-0.2,1.5-0.2,2.2l-0.1,0.8c-0.1,0.8-0.1,1.7-0.1,2.6c0,1.1-0.1,2.1-0.1,3.1
			C150,357.4,163,382.1,186.7,401z"/>
	</g>
	<g>
		<path fill="#3A3033" d="M365.4,411.9H182.9l-1.5-1.1c-27.3-21.1-42.4-49.4-42.4-79.7c0-1.2,0-2.3,0.1-3.5c0-0.9,0.1-2,0.2-3.1
			l0.1-0.9c0.1-0.7,0.1-1.5,0.2-2.2c0-0.3,0.1-0.7,0.1-1c0.1-1,0.2-1.9,0.4-2.9c0.2-1.2,0.4-2.3,0.6-3.4c0.6-2.9,1.3-5.9,2.2-8.9
			c0.1-0.5,0.3-1.1,0.5-1.7c0.1-0.4,0.2-0.7,0.3-1c0.2-0.6,0.4-1.2,0.6-1.8c0.5-1.3,0.9-2.5,1.4-3.6c0.6-1.6,1.3-3.1,2-4.6
			c0.4-0.9,0.8-1.7,1.2-2.6c0.4-0.8,0.9-1.7,1.3-2.5c0.4-0.7,0.9-1.6,1.4-2.5c0.5-0.9,1-1.7,1.5-2.5c0.8-1.4,1.8-2.9,3.1-4.7
			l0.5-0.7c0.4-0.6,0.8-1.1,1.2-1.7c0.6-0.8,1.1-1.5,1.7-2.3c0.5-0.6,0.9-1.2,1.4-1.8l0.3-0.4c3.5-4.3,7.4-8.4,11.4-12.2
			c0.7-0.7,1.5-1.4,2.3-2.1c0.9-0.8,1.8-1.5,2.7-2.3c0.8-0.6,1.6-1.3,2.4-2c1.7-1.3,3.4-2.6,5.1-3.8c0.6-0.5,1.3-0.9,2-1.4
			c1.2-0.9,2.5-1.7,3.7-2.5c0.6-0.4,1.3-0.9,2.1-1.3c0.8-0.5,1.7-1.1,2.6-1.6c1.2-0.7,2.6-1.5,3.9-2.2c0.5-0.3,1.1-0.6,1.7-0.9
			c1-0.5,2.2-1.1,3.4-1.7c1.4-0.7,3-1.5,4.6-2.2c0.1,0,0.3-0.2,0.6-0.3c1.3-0.6,2.7-1.2,4.1-1.8c1.7-0.7,3.6-1.5,6-2.4
			c1-0.4,1.9-0.7,2.9-1c0.4-0.2,1-0.4,1.6-0.6l0.3-0.1c1.5-0.5,3-1,4.6-1.4c1.6-0.5,3.3-1,4.9-1.4c1.4-0.4,2.9-0.8,4.4-1.1
			c0.6-0.1,1.2-0.3,1.9-0.4c1.8-0.4,3.7-0.8,5.5-1.1c1.4-0.3,2.8-0.5,4.3-0.8l0.5-0.1c1.7-0.3,3.4-0.5,5.1-0.7
			c1.7-0.2,3.4-0.4,5.1-0.6c0.4,0,0.9-0.1,1.4-0.1c1.2-0.1,2.4-0.2,3.6-0.3c0.3,0,0.7,0,1.1-0.1l0.8,0c1.6-0.1,3.2-0.2,4.8-0.2
			l0.4,0c3.7-0.1,7.4-0.1,11.1,0h0.3c1.7,0.1,3.3,0.1,4.8,0.2l0.9,0.1c0.3,0,0.7,0,1,0.1c1.2,0.1,2.4,0.2,3.6,0.3
			c0.5,0,1,0.1,1.5,0.1c1.7,0.2,3.4,0.4,5.1,0.6c1.7,0.2,3.4,0.5,5.1,0.7c1.5,0.3,2.9,0.5,4.3,0.8c0.8,0.1,1.5,0.3,2.2,0.4
			c1.3,0.2,2.5,0.5,3.8,0.8c0.5,0.1,1.2,0.3,1.8,0.4c1.4,0.3,2.9,0.7,4.3,1.1c1.5,0.4,3,0.8,4.5,1.3c2,0.6,3.6,1.1,5.1,1.6
			c0.6,0.2,1.3,0.4,2,0.7c0.8,0.3,1.8,0.6,2.7,1c0.5,0.2,0.9,0.4,1.4,0.5c1.5,0.6,3,1.1,4.4,1.8c1.6,0.6,3.1,1.3,4.7,2
			c1.6,0.8,3.2,1.5,4.7,2.2c1.5,0.8,3,1.5,4.5,2.4c1.5,0.8,3,1.6,4.4,2.5c2.9,1.7,5.7,3.5,8.3,5.3c0.7,0.5,1.4,0.9,2.1,1.4
			c1.7,1.2,3.4,2.5,5.1,3.8c0.8,0.6,1.6,1.3,2.4,2c0.9,0.7,1.8,1.5,2.6,2.2c0.6,0.5,1.1,1,1.6,1.4l0.7,0.7
			c4.5,4.2,8.6,8.6,12.3,13.3c0.6,0.7,1.2,1.5,1.8,2.3c0.7,1,1.5,2,2.2,3.1c0.6,0.9,1.2,1.8,1.9,2.8c1.7,2.7,3.2,5.2,4.6,7.8
			c0.3,0.5,0.6,1.2,1,1.9c1.3,2.6,2.6,5.5,3.8,8.5c0.4,1,0.8,2,1.1,3.1c0.3,0.7,0.6,1.6,0.8,2.5c0.2,0.5,0.4,1.1,0.5,1.6
			c0.9,2.9,1.6,5.9,2.2,8.8c0.2,1,0.4,2.2,0.6,3.3c0.2,1,0.3,2,0.4,3c0.1,0.3,0.1,0.6,0.1,0.9l0.6,6h-83.1
			c1.7,12.7,7.8,42.6,27.4,52l3.1,1.5V411.9z M186.7,401h167.7v-13.5c-27.9-16.5-31-63.3-31.1-65.3l-0.3-5.8h82.6c0,0,0-0.1,0-0.1
			c-0.5-2.7-1.2-5.4-1.9-7.9l-0.1-0.2c-0.1-0.3-0.2-0.6-0.3-0.9l-0.1-0.3c-0.2-0.7-0.4-1.4-0.7-2c-0.3-1-0.7-1.8-1-2.7
			c-1-2.7-2.1-5.2-3.4-7.6c-0.3-0.6-0.5-1-0.8-1.5c-1.3-2.4-2.6-4.7-4.2-7.1c-0.5-0.8-1.1-1.7-1.7-2.5c-0.7-1-1.3-1.9-2-2.8
			c-0.5-0.7-1-1.4-1.6-2c-3.3-4.2-7.1-8.2-11.1-12l-0.7-0.6c-0.5-0.4-0.9-0.8-1.4-1.2c-0.8-0.7-1.6-1.4-2.5-2.1
			c-0.7-0.6-1.4-1.2-2.2-1.7c-1.5-1.2-3.1-2.4-4.7-3.5c-0.6-0.4-1.1-0.8-1.6-1.1l-0.2-0.1c-2.4-1.7-5-3.3-7.7-4.9
			c-1.4-0.8-2.7-1.6-4.1-2.3c-1.4-0.7-2.7-1.5-4.2-2.2c-1.5-0.7-2.9-1.4-4.4-2.1c-1.4-0.6-2.9-1.3-4.4-1.9c-1.4-0.6-2.8-1.1-4.2-1.7
			c-0.5-0.2-0.8-0.3-1.3-0.5c-0.9-0.3-1.7-0.6-2.6-0.9c-0.7-0.3-1.3-0.5-1.9-0.6c-1.4-0.5-2.9-0.9-4.7-1.5c-1.4-0.4-2.8-0.8-4.2-1.2
			c-1.4-0.4-2.8-0.7-4.1-1c-0.6-0.1-1.1-0.3-1.6-0.4c-1.3-0.3-2.4-0.5-3.6-0.8c-0.7-0.1-1.3-0.3-2-0.4l-0.2,0
			c-1.3-0.3-2.6-0.5-4-0.7c-1.6-0.3-3.2-0.5-4.8-0.7c-1.6-0.2-3.2-0.4-4.8-0.6c-0.4,0-0.7-0.1-1.1-0.1l-0.3,0
			c-1.1-0.1-2.3-0.2-3.5-0.3l-0.8-0.1c-0.3,0-0.7,0-1-0.1c-1.3-0.1-2.8-0.2-4.2-0.2l-0.3,0l-0.1,0c-3.5-0.1-7-0.1-10.5,0l-0.6,0
			c-1.3,0-2.7,0.1-4.2,0.2c-0.3,0-0.6,0-0.9,0.1c-0.3,0-0.5,0-0.8,0.1c-1.2,0.1-2.3,0.2-3.5,0.3l-0.3,0c-0.3,0-0.7,0.1-1,0.1
			c-1.7,0.2-3.3,0.4-4.9,0.6c-1.6,0.2-3.2,0.4-4.8,0.7l-0.4,0.1c-1.3,0.2-2.7,0.5-4,0.7c-1.8,0.3-3.6,0.7-5.2,1.1
			c-0.7,0.1-1.1,0.3-1.6,0.4c-1.5,0.3-2.8,0.7-4.2,1c-1.6,0.4-3.1,0.9-4.6,1.3c-1.4,0.4-2.8,0.9-4.2,1.3l-0.4,0.1
			c-0.5,0.2-1,0.3-1.4,0.5c-1,0.3-1.9,0.7-2.7,1c-2.2,0.8-4,1.5-5.6,2.2c-1.4,0.6-2.7,1.1-3.9,1.7l-0.4,0.2c-1.4,0.7-2.8,1.3-4.2,2
			c-1.1,0.6-2.2,1.1-3.3,1.7c-0.6,0.3-1,0.5-1.4,0.8c-1.3,0.7-2.5,1.4-3.7,2.1c-0.8,0.5-1.7,1-2.4,1.5c-0.7,0.4-1.3,0.8-1.8,1.2
			c-1.2,0.8-2.3,1.5-3.4,2.3l-0.2,0.1c-0.5,0.4-1.1,0.7-1.6,1.1c-1.6,1.2-3.2,2.3-4.7,3.6c-0.7,0.6-1.5,1.2-2.2,1.8
			c-0.9,0.7-1.7,1.4-2.5,2.2c-0.7,0.6-1.4,1.2-2,1.8c-3.7,3.5-7.2,7.2-10.4,11l-0.3,0.3c-0.4,0.5-0.9,1.1-1.3,1.6
			c-0.5,0.7-1,1.4-1.6,2.1c-0.4,0.5-0.7,1-1.1,1.5l-0.5,0.7c-1.1,1.6-1.9,2.9-2.7,4.2c-0.5,0.8-0.9,1.5-1.3,2.2
			c-0.4,0.7-0.8,1.4-1.2,2.1c-0.4,0.8-0.8,1.5-1.2,2.3c-0.4,0.8-0.8,1.5-1.1,2.2l-0.1,0.2c-0.6,1.2-1.1,2.5-1.7,3.9
			c-0.5,1.1-0.9,2.2-1.2,3.2c-0.2,0.5-0.4,1-0.5,1.6l-0.3,1c-0.2,0.4-0.3,0.8-0.4,1.3c-0.8,2.7-1.5,5.3-2,8c-0.2,1-0.4,2-0.5,2.9
			c-0.1,0.8-0.3,1.7-0.3,2.6l-0.1,0.7c-0.1,0.7-0.2,1.5-0.2,2.2l-0.1,0.8c-0.1,0.8-0.1,1.7-0.1,2.6c0,1.1-0.1,2.1-0.1,3.1
			C150,357.4,163,382.1,186.7,401z"/>
	</g>
	<g>
		<path fill="#3A3033" d="M168.3,391.2l-6.7-1.6C159.2,389,105,375,62.4,279.8l-3.4-7.7h45.7l47,44l-0.7,2.8c0,0.1,0,0.1,0,0.2
			c-0.1,0.8-0.3,1.7-0.3,2.5l-0.1,0.7c-0.1,0.7-0.2,1.5-0.2,2.2l-0.1,0.8c-0.1,0.8-0.1,1.7-0.1,2.6c0,1.1-0.1,2.1-0.1,3.1
			c0,17.6,5.9,34.8,17.2,49.9l1.1,1.5V391.2z M75.9,283.1c20.1,42.1,42.3,65.7,57.7,78.2c5.7,4.6,10.9,8.1,15.3,10.7
			c-6.4-12.9-9.8-26.8-9.8-40.9c0-1.2,0-2.3,0.1-3.5c0-0.9,0.1-2,0.2-3.1l0.1-0.9c0.1-0.7,0.1-1.5,0.2-2.2c0-0.3,0.1-0.7,0.1-1
			c0-0.1,0-0.2,0-0.3l-39.4-36.9H75.9z"/>
	</g>
	<g>
		<path fill="#3A3033" d="M278.5,276.1c-46.1,0-81.7-24-83.2-25.1l-7.1-4.9l7.4-4.4c24.1-14.2,52.8-21.7,82.9-21.7
			c30.1,0,58.8,7.5,82.9,21.7l7.4,4.4l-7.1,4.9C360.2,252,324.5,276.1,278.5,276.1z M209.4,246.7c12.6,6.8,38.7,18.5,69.1,18.5
			c30.4,0,56.5-11.7,69-18.5c-20.6-10.3-44.3-15.7-69-15.7C253.7,231,230.1,236.4,209.4,246.7z"/>
	</g>
	<g>
		<path fill="#3A3033" d="M278.5,229.1c-11.2,0-20.4-9.2-20.4-20.4c0-11.2,9.2-20.4,20.4-20.4c11.2,0,20.4,9.2,20.4,20.4
			C298.9,220,289.7,229.1,278.5,229.1z M278.5,199.2c-5.2,0-9.5,4.2-9.5,9.5s4.2,9.5,9.5,9.5c5.2,0,9.5-4.2,9.5-9.5
			S283.7,199.2,278.5,199.2z"/>
	</g>
	<g>
		<path fill="#3A3033" d="M364.1,246.5h-10.9v-60.8c0-41.2-33.5-74.7-74.7-74.7c-41.2,0-74.7,33.5-74.7,74.7v60.8h-10.9v-60.8
			c0-47.2,38.4-85.6,85.6-85.6c47.2,0,85.6,38.4,85.6,85.6V246.5z"/>
	</g>
	<g>
		<g>
			<path fill="#3A3033" d="M417.4,389.7h-58.7l-1.1-0.5c-30.8-14.7-34.1-64.9-34.2-67l-0.3-5.8h130.1l-0.3,5.8
				c-0.1,2.1-3.5,52.3-34.2,67L417.4,389.7z M361.2,378.8h53.6c18.7-9.9,24.6-39,26.3-51.4H334.9
				C336.6,339.8,342.5,368.9,361.2,378.8z"/>
		</g>
		<g>
			<path fill="#3A3033" d="M421.7,411.9h-67.3v-33.1h67.3V411.9z M365.4,401h45.4v-11.3h-45.4V401z"/>
		</g>
	</g>
</g>
</svg>
