<?xml version="1.0" encoding="utf-8"?>
<!-- Generator: Adobe Illustrator 18.0.0, SVG Export Plug-In . SVG Version: 6.00 Build 0)  -->
<!DOCTYPE svg PUBLIC "-//W3C//DTD SVG 1.1//EN" "http://www.w3.org/Graphics/SVG/1.1/DTD/svg11.dtd">
<svg version="1.1" id="Layer_1" xmlns="http://www.w3.org/2000/svg" xmlns:xlink="http://www.w3.org/1999/xlink" x="0px" y="0px"
	 width="512px" height="512px" viewBox="0 0 512 512" enable-background="new 0 0 512 512" xml:space="preserve">
<g>
	<g>
		<path fill="#FFFFFF" d="M243.9,378.2H94.1c0,0,13.7,28.3,39.4,28.3h110.4h110.4c25.7,0,39.4-28.3,39.4-28.3H243.9z"/>
	</g>
	<g>
		<path fill="#FFFFFF" d="M177.2,378.2h133.3c27.3-18.1,43.6-49.4,43.6-82.6v-50H133.6v50C133.6,328.9,149.9,360.2,177.2,378.2z"/>
	</g>
	<g>
		<g>
			<path fill="#FFFFFF" d="M421.1,293.7c0,26.5-21.6,48.1-48.1,48.1h-30c3.6-7.1,6.4-14.5,8.3-22.3H373c14.2,0,25.7-11.5,25.7-25.7
				c0-14.2-11.5-25.7-25.7-25.7h-18.9v-22.3H373C399.5,245.7,421.1,267.2,421.1,293.7z"/>
		</g>
	</g>
	<g>
		<path fill="#3A3033" d="M354.3,412H133.5c-28.8,0-43.7-30.1-44.3-31.4l-3.8-7.8h317l-3.8,7.8C398,381.9,383.1,412,354.3,412z
			 M104,383.7c5.6,7.4,15.6,17.4,29.5,17.4h220.8c13.9,0,24-10,29.5-17.4H104z"/>
	</g>
	<g>
		<g>
			<path fill="#3A3033" d="M312.2,383.7H175.6l-1.4-0.9c-28.8-19.1-46.1-51.6-46.1-87.2v-55.5h231.5v55.5
				c0,35.5-17.2,68.1-46.1,87.2L312.2,383.7z M178.9,372.8h130c25-17.1,39.8-45.9,39.8-77.1v-44.5H139.1v44.5
				C139.1,326.9,154,355.6,178.9,372.8z"/>
		</g>
		<g>
			<rect x="196.2" y="245.7" fill="#3A3033" width="10.9" height="53.1"/>
		</g>
		<g>
			<path fill="#3A3033" d="M231.5,344h-59.6v-45.3l14.3-20.5h31l14.3,20.5V344z M182.9,333.1h37.7v-30.9l-9.1-13h-19.6l-9.1,13
				V333.1z"/>
		</g>
		<g>
			<g>
				<path fill="#3A3033" d="M373,347.3h-39l4.1-8c3.4-6.7,6.1-13.8,7.8-21.1l1-4.2h26c11.2,0,20.3-9.1,20.3-20.3
					c0-11.2-9.1-20.3-20.3-20.3h-24.3v-33.3H373c29.5,0,53.5,24,53.5,53.5C426.6,323.3,402.6,347.3,373,347.3z M351.6,336.4H373
					c23.5,0,42.6-19.1,42.6-42.6c0-23.5-19.1-42.6-42.6-42.6h-13.4v11.4H373c17.2,0,31.2,14,31.2,31.2c0,17.2-14,31.2-31.2,31.2
					h-17.5C354.4,328.8,353.1,332.6,351.6,336.4z"/>
			</g>
		</g>
		<g>
			<path fill="#3A3033" d="M284.5,214.8l-8.4-7c29.2-34.9,1.5-63.3,0.3-64.5l7.7-7.7C296.8,148.1,313,180.8,284.5,214.8z"/>
		</g>
		<g>
			<path fill="#3A3033" d="M255.7,179.2c-12.6-12.6-28.8-45.3-0.3-79.2l8.4,7c-29.2,34.9-1.5,63.3-0.3,64.5L255.7,179.2z"/>
		</g>
		<g>
			<path fill="#3A3033" d="M212.4,215.1c-12.6-12.6-28.8-45.3-0.3-79.2l8.4,7c-29,34.7-1.5,63.3-0.3,64.5L212.4,215.1z"/>
		</g>
	</g>
</g>
</svg>
