<?xml version="1.0" encoding="UTF-8"?>
<svg width="395px" height="312px" viewBox="0 0 395 312" version="1.1" xmlns="http://www.w3.org/2000/svg" xmlns:xlink="http://www.w3.org/1999/xlink">
    <!-- Generator: Sketch 50.2 (55047) - http://www.bohemiancoding.com/sketch -->
    <title>tea ceremony</title>
    <desc>Created with Sketch.</desc>
    <defs></defs>
    <g id="Page-1" stroke="none" stroke-width="1" fill="none" fill-rule="evenodd">
        <g id="tea-ceremony" fill-rule="nonzero">
            <path d="M352.8,221.2 C352.8,221.4 352.9,221.7 352.9,221.9 L269.7,221.9 C269.7,221.9 272.6,270.7 300.8,284.3 L300.8,306.5 L125.8,306.5 C101,287.3 85.5,260.7 85.5,231.1 C85.5,230 85.5,228.9 85.6,227.9 C85.6,226.9 85.7,226 85.7,225 C85.7,224.7 85.7,224.5 85.8,224.2 C85.9,223.4 85.9,222.6 86,221.8 C86,221.6 86,221.4 86.1,221.2 C86.2,220.2 86.3,219.3 86.5,218.3 C86.7,217.2 86.8,216.2 87,215.2 C87.5,212.4 88.2,209.6 89.1,206.8 C89.3,206.2 89.4,205.6 89.6,205.1 C89.6,204.8 89.7,204.6 89.8,204.4 C90,203.8 90.2,203.2 90.4,202.5 C90.8,201.4 91.2,200.3 91.7,199.2 C92.3,197.7 92.9,196.3 93.6,194.9 C94,194.1 94.4,193.3 94.8,192.5 C95.2,191.7 95.6,190.9 96,190.1 C96.4,189.3 96.9,188.5 97.3,187.8 C97.8,187 98.2,186.2 98.7,185.5 C99.6,184 100.6,182.4 101.6,180.9 C102.1,180.2 102.6,179.4 103.2,178.7 C103.7,178 104.3,177.2 104.8,176.5 C105.3,175.8 105.9,175.1 106.5,174.4 C109.8,170.4 113.4,166.5 117.4,162.8 C118.1,162.1 118.8,161.5 119.6,160.8 C120.5,160.1 121.3,159.3 122.2,158.6 C122.9,158 123.7,157.4 124.5,156.7 C126.1,155.4 127.7,154.2 129.4,153 C130,152.5 130.7,152.1 131.3,151.7 C132.5,150.9 133.7,150.1 134.9,149.3 C135.5,148.9 136.2,148.5 136.8,148.1 C137.6,147.6 138.5,147.1 139.3,146.6 C140.5,145.9 141.8,145.2 143,144.5 C143.5,144.2 144,143.9 144.5,143.7 C145.6,143.1 146.7,142.5 147.9,142 C149.3,141.3 150.8,140.6 152.3,139.9 C152.4,139.8 152.6,139.8 152.8,139.7 C154.1,139.1 155.5,138.5 156.8,138 C158.7,137.2 160.7,136.4 162.6,135.7 C163.5,135.4 164.4,135 165.3,134.7 C165.9,134.5 166.6,134.2 167.2,134 C168.6,133.5 170.1,133.1 171.6,132.6 C173.2,132.1 174.8,131.7 176.4,131.2 C177.8,130.8 179.2,130.5 180.6,130.1 C181.2,130 181.7,129.8 182.3,129.7 C184.1,129.3 185.9,128.9 187.7,128.6 C189.1,128.3 190.5,128.1 191.9,127.8 C192,127.8 192.2,127.8 192.3,127.7 C193.9,127.4 195.6,127.2 197.3,127 C198.9,126.8 200.6,126.6 202.3,126.4 C202.7,126.4 203.2,126.3 203.6,126.3 C204.8,126.2 206,126.1 207.2,126 C207.8,126 208.4,125.9 209.1,125.9 C210.6,125.8 212.1,125.7 213.6,125.7 L213.9,125.7 C215.7,125.6 217.5,125.6 219.4,125.6 C221.2,125.6 223,125.6 224.8,125.7 L225.2,125.7 C226.7,125.7 228.2,125.8 229.7,125.9 C230.3,125.9 230.9,126 231.6,126 C232.8,126.1 234,126.2 235.2,126.3 C235.7,126.3 236.1,126.4 236.5,126.4 C238.2,126.6 239.8,126.8 241.5,127 C243.2,127.2 244.8,127.5 246.4,127.7 C247.8,127.9 249.2,128.2 250.6,128.5 C251.3,128.6 252,128.8 252.8,128.9 C254,129.1 255.2,129.4 256.4,129.7 C257,129.8 257.6,130 258.1,130.1 C259.5,130.4 260.9,130.8 262.3,131.2 C263.8,131.6 265.2,132 266.7,132.4 C268.3,132.9 269.9,133.4 271.5,133.9 C272.2,134.1 272.8,134.3 273.4,134.6 C274.3,134.9 275.2,135.2 276.1,135.6 C276.6,135.8 277,135.9 277.4,136.1 C278.8,136.6 280.3,137.2 281.7,137.8 C283.3,138.4 284.8,139.1 286.3,139.8 C287.8,140.5 289.3,141.2 290.8,142 C292.3,142.7 293.7,143.5 295.2,144.3 C296.6,145.1 298,145.9 299.4,146.7 C302.2,148.3 304.9,150 307.4,151.8 C308,152.2 308.7,152.7 309.3,153.1 C311,154.3 312.6,155.5 314.2,156.8 C315,157.4 315.7,158 316.5,158.7 C317.4,159.4 318.2,160.2 319.1,160.9 C319.9,161.6 320.6,162.2 321.3,162.9 C325.6,166.9 329.5,171.1 333,175.5 C333.6,176.2 334.1,176.9 334.7,177.6 C335.4,178.6 336.1,179.5 336.8,180.5 C337.4,181.4 338,182.3 338.6,183.2 C340.2,185.6 341.6,188.1 342.9,190.6 C343.2,191.1 343.5,191.7 343.8,192.3 C345.2,194.9 346.3,197.6 347.4,200.3 C347.8,201.2 348.1,202.2 348.5,203.2 C348.8,204 349,204.8 349.3,205.6 C349.5,206.1 349.6,206.5 349.8,207 C350.6,209.8 351.3,212.6 351.9,215.4 C352.1,216.4 352.3,217.5 352.4,218.5 C352.6,219.2 352.7,220.2 352.8,221.2 Z" id="Shape" fill="#FFFFFF"></path>
            <path d="M352.9,221.9 L269.7,221.9 C269.7,221.9 272.6,270.7 300.8,284.3 L300.8,306.5 L125.8,306.5 C101,287.3 85.5,260.7 85.5,231.1 C85.5,230 85.5,228.9 85.6,227.9 C85.6,226.9 85.7,226 85.7,225 C85.7,224.7 85.7,224.5 85.8,224.2 C85.9,223.4 85.9,222.6 86,221.8 C86,221.6 86,221.4 86.1,221.2 C86.2,220.2 86.3,219.3 86.5,218.3 C86.7,217.2 86.8,216.2 87,215.2 C87.5,212.4 88.2,209.6 89.1,206.8 C89.3,206.2 89.4,205.6 89.6,205.1 C89.6,204.8 89.7,204.6 89.8,204.4 C90,203.8 90.2,203.2 90.4,202.5 C90.8,201.4 91.2,200.3 91.7,199.2 C92.3,197.7 92.9,196.3 93.6,194.9 C94,194.1 94.4,193.3 94.8,192.5 C95.2,191.7 95.6,190.9 96,190.1 C96.4,189.3 96.9,188.5 97.3,187.8 C97.8,187 98.2,186.2 98.7,185.5 C99.6,184 100.6,182.4 101.6,180.9 C102.1,180.2 102.6,179.4 103.2,178.7 C103.7,178 104.3,177.2 104.8,176.5 C105.3,175.8 105.9,175.1 106.5,174.4 C109.8,170.4 113.4,166.5 117.4,162.8 C118.1,162.1 118.8,161.5 119.6,160.8 C120.5,160.1 121.3,159.3 122.2,158.6 C122.9,158 123.7,157.4 124.5,156.7 C126.1,155.4 127.7,154.2 129.4,153 C130,152.5 130.7,152.1 131.3,151.7 C132.5,150.9 133.7,150.1 134.9,149.3 C135.5,148.9 136.2,148.5 136.8,148.1 C137.6,147.6 138.5,147.1 139.3,146.6 C140.5,145.9 141.8,145.2 143,144.5 C143.5,144.2 144,143.9 144.5,143.7 C145.6,143.1 146.7,142.5 147.9,142 C149.3,141.3 150.8,140.6 152.3,139.9 C152.4,139.8 152.6,139.8 152.8,139.7 C154.1,139.1 155.5,138.5 156.8,138 C158.7,137.2 160.7,136.4 162.6,135.7 C163.5,135.4 164.4,135 165.3,134.7 C165.9,134.5 166.6,134.2 167.2,134 C168.6,133.5 170.1,133.1 171.6,132.6 C173.2,132.1 174.8,131.7 176.4,131.2 C177.8,130.8 179.2,130.5 180.6,130.1 C181.2,130 181.7,129.8 182.3,129.7 C184.1,129.3 185.9,128.9 187.7,128.6 C189.1,128.3 190.5,128.1 191.9,127.8 C192,127.8 192.2,127.8 192.3,127.7 C193.9,127.4 195.6,127.2 197.3,127 C198.9,126.8 200.6,126.6 202.3,126.4 C202.7,126.4 203.2,126.3 203.6,126.3 C204.8,126.2 206,126.1 207.2,126 C207.8,126 208.4,125.9 209.1,125.9 C210.6,125.8 212.1,125.7 213.6,125.7 L213.9,125.7 C215.7,125.6 217.5,125.6 219.4,125.6 C221.2,125.6 223,125.6 224.8,125.7 L225.2,125.7 C226.7,125.7 228.2,125.8 229.7,125.9 C230.3,125.9 230.9,126 231.6,126 C232.8,126.1 234,126.2 235.2,126.3 C235.7,126.3 236.1,126.4 236.5,126.4 C238.2,126.6 239.8,126.8 241.5,127 C243.2,127.2 244.8,127.5 246.4,127.7 C247.8,127.9 249.2,128.2 250.6,128.5 C251.3,128.6 252,128.8 252.8,128.9 C254,129.1 255.2,129.4 256.4,129.7 C257,129.8 257.6,130 258.1,130.1 C259.5,130.4 260.9,130.8 262.3,131.2 C263.8,131.6 265.2,132 266.7,132.4 C268.3,132.9 269.9,133.4 271.5,133.9 C272.2,134.1 272.8,134.3 273.4,134.6 C274.3,134.9 275.2,135.2 276.1,135.6 C276.6,135.8 277,135.9 277.4,136.1 C278.8,136.6 280.3,137.2 281.7,137.8 C283.3,138.4 284.8,139.1 286.3,139.8 C287.8,140.5 289.3,141.2 290.8,142 C292.3,142.7 293.7,143.5 295.2,144.3 C296.6,145.1 298,145.9 299.4,146.7 C302.2,148.3 304.9,150 307.4,151.8 C308,152.2 308.7,152.7 309.3,153.1 C311,154.3 312.6,155.5 314.2,156.8 C315,157.4 315.7,158 316.5,158.7 C317.4,159.4 318.2,160.2 319.1,160.9 C319.9,161.6 320.6,162.2 321.3,162.9 C325.6,166.9 329.5,171.1 333,175.5 C333.6,176.2 334.1,176.9 334.7,177.6 C335.4,178.6 336.1,179.5 336.8,180.5 C337.4,181.4 338,182.3 338.6,183.2 C340.2,185.6 341.6,188.1 342.9,190.6 C343.2,191.1 343.5,191.7 343.8,192.3 C345.2,194.9 346.3,197.6 347.4,200.3 C347.8,201.2 348.1,202.2 348.5,203.2 C348.8,204 349,204.8 349.3,205.6 C349.5,206.1 349.6,206.5 349.8,207 C350.6,209.8 351.3,212.6 351.9,215.4 C352.1,216.4 352.3,217.5 352.4,218.5 C352.5,219.4 352.7,220.4 352.8,221.4 C352.9,221.4 352.9,221.6 352.9,221.9 Z" id="Shape" fill="#FFFFFF"></path>
            <path d="M103.8,284.2 C103.8,284.2 50.4,271.4 8.4,177.6 L43.5,177.6 C43.5,177.6 43.5,177.6 86.6,217.9 C86.6,218 86.6,218.1 86.6,218.2 C86.5,219.1 86.3,220.1 86.2,221.1 C86.2,221.3 86.1,221.5 86.1,221.7 C86,222.5 85.9,223.3 85.9,224.1 C85.9,224.3 85.9,224.6 85.8,224.9 C85.7,225.9 85.7,226.8 85.7,227.8 C85.7,228.9 85.6,229.9 85.6,231 C85.6,250.4 92.2,268.6 103.8,284.2 Z" id="Shape" fill="#FFFFFF"></path>
            <g id="Group" transform="translate(269.000000, 221.000000)" fill="#FFFFFF">
                <path d="M73.7,0.9 L46.3,0.9 L0.8,0.9 C0.8,0.9 3.7,49.8 31.9,63.3 L46.3,63.3 L73.7,63.3 L88.1,63.3 C116.3,49.8 119.2,0.9 119.2,0.9 L73.7,0.9 Z" id="Shape"></path>
                <rect id="Rectangle-path" x="31.9" y="63.2" width="56.3" height="22.2"></rect>
            </g>
            <path d="M299.6,146.5 C299.6,146.5 264.4,170.6 219.5,170.6 C174.6,170.6 139.4,146.5 139.4,146.5 C161.8,133.3 189.5,125.5 219.5,125.5 C249.6,125.5 277.3,133.3 299.6,146.5 Z" id="Shape" fill="#CD9E5D"></path>
            <circle id="Oval" fill="#CD9E5D" cx="219.5" cy="108.7" r="14.9"></circle>
            <path d="M306.4,311.9 L123.9,311.9 L122.4,310.8 C95.1,289.7 80,261.4 80,231.1 C80,229.9 80,228.8 80.1,227.6 C80.1,226.7 80.2,225.6 80.3,224.5 L80.4,223.6 C80.5,222.9 80.5,222.1 80.6,221.4 C80.6,221.1 80.7,220.7 80.7,220.4 C80.8,219.4 80.9,218.5 81.1,217.5 C81.3,216.3 81.5,215.2 81.7,214.1 C82.3,211.2 83,208.2 83.9,205.2 C84,204.7 84.2,204.1 84.4,203.5 C84.5,203.1 84.6,202.8 84.7,202.5 C84.9,201.9 85.1,201.3 85.3,200.7 C85.8,199.4 86.2,198.2 86.7,197.1 C87.3,195.5 88,194 88.7,192.5 C89.1,191.6 89.5,190.8 89.9,189.9 C90.3,189.1 90.8,188.2 91.2,187.4 C91.6,186.7 92.1,185.8 92.6,184.9 C93.1,184 93.6,183.2 94.1,182.4 C94.9,181 95.9,179.5 97.2,177.7 L97.7,177 C98.1,176.4 98.5,175.9 98.9,175.3 C99.5,174.5 100,173.8 100.6,173 C101.1,172.4 101.5,171.8 102,171.2 L102.3,170.8 C105.8,166.5 109.7,162.4 113.7,158.6 C114.4,157.9 115.2,157.2 116,156.5 C116.9,155.7 117.8,155 118.7,154.2 C119.5,153.6 120.3,152.9 121.1,152.2 C122.8,150.9 124.5,149.6 126.2,148.4 C126.8,147.9 127.5,147.5 128.2,147 C129.4,146.1 130.7,145.3 131.9,144.5 C132.5,144.1 133.2,143.6 134,143.2 C134.8,142.7 135.7,142.1 136.6,141.6 C137.8,140.9 139.2,140.1 140.5,139.4 C141,139.1 141.6,138.8 142.2,138.5 C143.2,138 144.4,137.4 145.6,136.8 C147,136.1 148.6,135.3 150.2,134.6 C150.3,134.6 150.5,134.4 150.8,134.3 C152.1,133.7 153.5,133.1 154.9,132.5 C156.6,131.8 158.5,131 160.9,130.1 C161.9,129.7 162.8,129.4 163.8,129.1 C164.2,128.9 164.8,128.7 165.4,128.5 L165.7,128.4 C167.2,127.9 168.7,127.4 170.3,127 C171.9,126.5 173.6,126 175.2,125.6 C176.6,125.2 178.1,124.8 179.6,124.5 C180.2,124.4 180.8,124.2 181.5,124.1 C183.3,123.7 185.2,123.3 187,123 C188.4,122.7 189.8,122.5 191.3,122.2 L191.8,122.1 C193.5,121.8 195.2,121.6 196.9,121.4 C198.6,121.2 200.3,121 202,120.8 C202.4,120.8 202.9,120.7 203.4,120.7 C204.6,120.6 205.8,120.5 207,120.4 C207.3,120.4 207.7,120.4 208.1,120.3 L208.9,120.3 C210.5,120.2 212.1,120.1 213.7,120.1 L214.1,120.1 C217.8,120 221.5,120 225.2,120.1 L225.5,120.1 C227.2,120.2 228.8,120.2 230.3,120.3 L231.2,120.4 C231.5,120.4 231.9,120.4 232.2,120.5 C233.4,120.6 234.6,120.7 235.8,120.8 C236.3,120.8 236.8,120.9 237.3,120.9 C239,121.1 240.7,121.3 242.4,121.5 C244.1,121.7 245.8,122 247.5,122.2 C249,122.5 250.4,122.7 251.8,123 C252.6,123.1 253.3,123.3 254,123.4 C255.3,123.6 256.5,123.9 257.8,124.2 C258.3,124.3 259,124.5 259.6,124.6 C261,124.9 262.5,125.3 263.9,125.7 C265.4,126.1 266.9,126.5 268.4,127 C270.4,127.6 272,128.1 273.5,128.6 C274.1,128.8 274.8,129 275.5,129.3 C276.3,129.6 277.3,129.9 278.2,130.3 C278.7,130.5 279.1,130.7 279.6,130.8 C281.1,131.4 282.6,131.9 284,132.6 C285.6,133.2 287.1,133.9 288.7,134.6 C290.3,135.4 291.9,136.1 293.4,136.8 C294.9,137.6 296.4,138.3 297.9,139.2 C299.4,140 300.9,140.8 302.3,141.7 C305.2,143.4 308,145.2 310.6,147 C311.3,147.5 312,147.9 312.7,148.4 C314.4,149.6 316.1,150.9 317.8,152.2 C318.6,152.8 319.4,153.5 320.2,154.2 C321.1,154.9 322,155.7 322.8,156.4 C323.4,156.9 323.9,157.4 324.4,157.8 L325.1,158.5 C329.6,162.7 333.7,167.1 337.4,171.8 C338,172.5 338.6,173.3 339.2,174.1 C339.9,175.1 340.7,176.1 341.4,177.2 C342,178.1 342.6,179 343.3,180 C345,182.7 346.5,185.2 347.9,187.8 C348.2,188.3 348.5,189 348.9,189.7 C350.2,192.3 351.5,195.2 352.7,198.2 C353.1,199.2 353.5,200.2 353.8,201.3 C354.1,202 354.4,202.9 354.6,203.8 C354.8,204.3 355,204.9 355.1,205.4 C356,208.3 356.7,211.3 357.3,214.2 C357.5,215.2 357.7,216.4 357.9,217.5 C358.1,218.5 358.2,219.5 358.3,220.5 C358.4,220.8 358.4,221.1 358.4,221.4 L359,227.4 L275.9,227.4 C277.6,240.1 283.7,270 303.3,279.4 L306.4,280.9 L306.4,311.9 Z M127.7,301 L295.4,301 L295.4,287.5 C267.5,271 264.4,224.2 264.3,222.2 L264,216.4 L346.6,216.4 C346.6,216.4 346.6,216.3 346.6,216.3 C346.1,213.6 345.4,210.9 344.7,208.4 L344.6,208.2 C344.5,207.9 344.4,207.6 344.3,207.3 L344.2,207 C344,206.3 343.8,205.6 343.5,205 C343.2,204 342.8,203.2 342.5,202.3 C341.5,199.6 340.4,197.1 339.1,194.7 C338.8,194.1 338.6,193.7 338.3,193.2 C337,190.8 335.7,188.5 334.1,186.1 C333.6,185.3 333,184.4 332.4,183.6 C331.7,182.6 331.1,181.7 330.4,180.8 C329.9,180.1 329.4,179.4 328.8,178.8 C325.5,174.6 321.7,170.6 317.7,166.8 L317,166.2 C316.5,165.8 316.1,165.4 315.6,165 C314.8,164.3 314,163.6 313.1,162.9 C312.4,162.3 311.7,161.7 310.9,161.2 C309.4,160 307.8,158.8 306.2,157.7 C305.6,157.3 305.1,156.9 304.6,156.6 L304.4,156.5 C302,154.8 299.4,153.2 296.7,151.6 C295.3,150.8 294,150 292.6,149.3 C291.2,148.6 289.9,147.8 288.4,147.1 C286.9,146.4 285.5,145.7 284,145 C282.6,144.4 281.1,143.7 279.6,143.1 C278.2,142.5 276.8,142 275.4,141.4 C274.9,141.2 274.6,141.1 274.1,140.9 C273.2,140.6 272.4,140.3 271.5,140 C270.8,139.7 270.2,139.5 269.6,139.4 C268.2,138.9 266.7,138.5 264.9,137.9 C263.5,137.5 262.1,137.1 260.7,136.7 C259.3,136.3 257.9,136 256.6,135.7 C256,135.6 255.5,135.4 255,135.3 C253.7,135 252.6,134.8 251.4,134.5 C250.7,134.4 250.1,134.2 249.4,134.1 L249.2,134.1 C247.9,133.8 246.6,133.6 245.2,133.4 C243.6,133.1 242,132.9 240.4,132.7 C238.8,132.5 237.2,132.3 235.6,132.1 C235.2,132.1 234.9,132 234.5,132 L234.2,132 C233.1,131.9 231.9,131.8 230.7,131.7 L229.9,131.6 C229.6,131.6 229.2,131.6 228.9,131.5 C227.6,131.4 226.1,131.3 224.7,131.3 L224.4,131.3 L224.3,131.3 C220.8,131.2 217.3,131.2 213.8,131.3 L213.2,131.3 C211.9,131.3 210.5,131.4 209,131.5 C208.7,131.5 208.4,131.5 208.1,131.6 C207.8,131.6 207.6,131.6 207.3,131.7 C206.1,131.8 205,131.9 203.8,132 L203.5,132 C203.2,132 202.8,132.1 202.5,132.1 C200.8,132.3 199.2,132.5 197.6,132.7 C196,132.9 194.4,133.1 192.8,133.4 L192.4,133.5 C191.1,133.7 189.7,134 188.4,134.2 C186.6,134.5 184.8,134.9 183.2,135.3 C182.5,135.4 182.1,135.6 181.6,135.7 C180.1,136 178.8,136.4 177.4,136.7 C175.8,137.1 174.3,137.6 172.8,138 C171.4,138.4 170,138.9 168.6,139.3 L168.2,139.4 C167.7,139.6 167.2,139.7 166.8,139.9 C165.8,140.2 164.9,140.6 164.1,140.9 C161.9,141.7 160.1,142.4 158.5,143.1 C157.1,143.7 155.8,144.2 154.6,144.8 L154.2,145 C152.8,145.7 151.4,146.3 150,147 C148.9,147.6 147.8,148.1 146.7,148.7 C146.1,149 145.7,149.2 145.3,149.5 C144,150.2 142.8,150.9 141.6,151.6 C140.8,152.1 139.9,152.6 139.2,153.1 C138.5,153.5 137.9,153.9 137.4,154.3 C136.2,155.1 135.1,155.8 134,156.6 L133.8,156.7 C133.3,157.1 132.7,157.4 132.2,157.8 C130.6,159 129,160.1 127.5,161.4 C126.8,162 126,162.6 125.3,163.2 C124.4,163.9 123.6,164.6 122.8,165.4 C122.1,166 121.4,166.6 120.8,167.2 C117.1,170.7 113.6,174.4 110.4,178.2 L110.1,178.5 C109.7,179 109.2,179.6 108.8,180.1 C108.3,180.8 107.8,181.5 107.2,182.2 C106.8,182.7 106.5,183.2 106.1,183.7 L105.6,184.4 C104.5,186 103.7,187.3 102.9,188.6 C102.4,189.4 102,190.1 101.6,190.8 C101.2,191.5 100.8,192.2 100.4,192.9 C100,193.7 99.6,194.4 99.2,195.2 C98.8,196 98.4,196.7 98.1,197.4 L98,197.6 C97.4,198.8 96.9,200.1 96.3,201.5 C95.8,202.6 95.4,203.7 95.1,204.7 C94.9,205.2 94.7,205.7 94.6,206.3 L94.3,207.3 C94.1,207.7 94,208.1 93.9,208.6 C93.1,211.3 92.4,213.9 91.9,216.6 C91.7,217.6 91.5,218.6 91.4,219.5 C91.3,220.3 91.1,221.2 91.1,222.1 L91,222.8 C90.9,223.5 90.8,224.3 90.8,225 L90.7,225.8 C90.6,226.6 90.6,227.5 90.6,228.4 C90.6,229.5 90.5,230.5 90.5,231.5 C91,257.4 104,282.1 127.7,301 Z" id="Shape" fill="#3A3033"></path>
            <path d="M306.4,311.9 L123.9,311.9 L122.4,310.8 C95.1,289.7 80,261.4 80,231.1 C80,229.9 80,228.8 80.1,227.6 C80.1,226.7 80.2,225.6 80.3,224.5 L80.4,223.6 C80.5,222.9 80.5,222.1 80.6,221.4 C80.6,221.1 80.7,220.7 80.7,220.4 C80.8,219.4 80.9,218.5 81.1,217.5 C81.3,216.3 81.5,215.2 81.7,214.1 C82.3,211.2 83,208.2 83.9,205.2 C84,204.7 84.2,204.1 84.4,203.5 C84.5,203.1 84.6,202.8 84.7,202.5 C84.9,201.9 85.1,201.3 85.3,200.7 C85.8,199.4 86.2,198.2 86.7,197.1 C87.3,195.5 88,194 88.7,192.5 C89.1,191.6 89.5,190.8 89.9,189.9 C90.3,189.1 90.8,188.2 91.2,187.4 C91.6,186.7 92.1,185.8 92.6,184.9 C93.1,184 93.6,183.2 94.1,182.4 C94.9,181 95.9,179.5 97.2,177.7 L97.7,177 C98.1,176.4 98.5,175.9 98.9,175.3 C99.5,174.5 100,173.8 100.6,173 C101.1,172.4 101.5,171.8 102,171.2 L102.3,170.8 C105.8,166.5 109.7,162.4 113.7,158.6 C114.4,157.9 115.2,157.2 116,156.5 C116.9,155.7 117.8,155 118.7,154.2 C119.5,153.6 120.3,152.9 121.1,152.2 C122.8,150.9 124.5,149.6 126.2,148.4 C126.8,147.9 127.5,147.5 128.2,147 C129.4,146.1 130.7,145.3 131.9,144.5 C132.5,144.1 133.2,143.6 134,143.2 C134.8,142.7 135.7,142.1 136.6,141.6 C137.8,140.9 139.2,140.1 140.5,139.4 C141,139.1 141.6,138.8 142.2,138.5 C143.2,138 144.4,137.4 145.6,136.8 C147,136.1 148.6,135.3 150.2,134.6 C150.3,134.6 150.5,134.4 150.8,134.3 C152.1,133.7 153.5,133.1 154.9,132.5 C156.6,131.8 158.5,131 160.9,130.1 C161.9,129.7 162.8,129.4 163.8,129.1 C164.2,128.9 164.8,128.7 165.4,128.5 L165.7,128.4 C167.2,127.9 168.7,127.4 170.3,127 C171.9,126.5 173.6,126 175.2,125.6 C176.6,125.2 178.1,124.8 179.6,124.5 C180.2,124.4 180.8,124.2 181.5,124.1 C183.3,123.7 185.2,123.3 187,123 C188.4,122.7 189.8,122.5 191.3,122.2 L191.8,122.1 C193.5,121.8 195.2,121.6 196.9,121.4 C198.6,121.2 200.3,121 202,120.8 C202.4,120.8 202.9,120.7 203.4,120.7 C204.6,120.6 205.8,120.5 207,120.4 C207.3,120.4 207.7,120.4 208.1,120.3 L208.9,120.3 C210.5,120.2 212.1,120.1 213.7,120.1 L214.1,120.1 C217.8,120 221.5,120 225.2,120.1 L225.5,120.1 C227.2,120.2 228.8,120.2 230.3,120.3 L231.2,120.4 C231.5,120.4 231.9,120.4 232.2,120.5 C233.4,120.6 234.6,120.7 235.8,120.8 C236.3,120.8 236.8,120.9 237.3,120.9 C239,121.1 240.7,121.3 242.4,121.5 C244.1,121.7 245.8,122 247.5,122.2 C249,122.5 250.4,122.7 251.8,123 C252.6,123.1 253.3,123.3 254,123.4 C255.3,123.6 256.5,123.9 257.8,124.2 C258.3,124.3 259,124.5 259.6,124.6 C261,124.9 262.5,125.3 263.9,125.7 C265.4,126.1 266.9,126.5 268.4,127 C270.4,127.6 272,128.1 273.5,128.6 C274.1,128.8 274.8,129 275.5,129.3 C276.3,129.6 277.3,129.9 278.2,130.3 C278.7,130.5 279.1,130.7 279.6,130.8 C281.1,131.4 282.6,131.9 284,132.6 C285.6,133.2 287.1,133.9 288.7,134.6 C290.3,135.4 291.9,136.1 293.4,136.8 C294.9,137.6 296.4,138.3 297.9,139.2 C299.4,140 300.9,140.8 302.3,141.7 C305.2,143.4 308,145.2 310.6,147 C311.3,147.5 312,147.9 312.7,148.4 C314.4,149.6 316.1,150.9 317.8,152.2 C318.6,152.8 319.4,153.5 320.2,154.2 C321.1,154.9 322,155.7 322.8,156.4 C323.4,156.9 323.9,157.4 324.4,157.8 L325.1,158.5 C329.6,162.7 333.7,167.1 337.4,171.8 C338,172.5 338.6,173.3 339.2,174.1 C339.9,175.1 340.7,176.1 341.4,177.2 C342,178.1 342.6,179 343.3,180 C345,182.7 346.5,185.2 347.9,187.8 C348.2,188.3 348.5,189 348.9,189.7 C350.2,192.3 351.5,195.2 352.7,198.2 C353.1,199.2 353.5,200.2 353.8,201.3 C354.1,202 354.4,202.9 354.6,203.8 C354.8,204.3 355,204.9 355.1,205.4 C356,208.3 356.7,211.3 357.3,214.2 C357.5,215.2 357.7,216.4 357.9,217.5 C358.1,218.5 358.2,219.5 358.3,220.5 C358.4,220.8 358.4,221.1 358.4,221.4 L359,227.4 L275.9,227.4 C277.6,240.1 283.7,270 303.3,279.4 L306.4,280.9 L306.4,311.9 Z M127.7,301 L295.4,301 L295.4,287.5 C267.5,271 264.4,224.2 264.3,222.2 L264,216.4 L346.6,216.4 C346.6,216.4 346.6,216.3 346.6,216.3 C346.1,213.6 345.4,210.9 344.7,208.4 L344.6,208.2 C344.5,207.9 344.4,207.6 344.3,207.3 L344.2,207 C344,206.3 343.8,205.6 343.5,205 C343.2,204 342.8,203.2 342.5,202.3 C341.5,199.6 340.4,197.1 339.1,194.7 C338.8,194.1 338.6,193.7 338.3,193.2 C337,190.8 335.7,188.5 334.1,186.1 C333.6,185.3 333,184.4 332.4,183.6 C331.7,182.6 331.1,181.7 330.4,180.8 C329.9,180.1 329.4,179.4 328.8,178.8 C325.5,174.6 321.7,170.6 317.7,166.8 L317,166.2 C316.5,165.8 316.1,165.4 315.6,165 C314.8,164.3 314,163.6 313.1,162.9 C312.4,162.3 311.7,161.7 310.9,161.2 C309.4,160 307.8,158.8 306.2,157.7 C305.6,157.3 305.1,156.9 304.6,156.6 L304.4,156.5 C302,154.8 299.4,153.2 296.7,151.6 C295.3,150.8 294,150 292.6,149.3 C291.2,148.6 289.9,147.8 288.4,147.1 C286.9,146.4 285.5,145.7 284,145 C282.6,144.4 281.1,143.7 279.6,143.1 C278.2,142.5 276.8,142 275.4,141.4 C274.9,141.2 274.6,141.1 274.1,140.9 C273.2,140.6 272.4,140.3 271.5,140 C270.8,139.7 270.2,139.5 269.6,139.4 C268.2,138.9 266.7,138.5 264.9,137.9 C263.5,137.5 262.1,137.1 260.7,136.7 C259.3,136.3 257.9,136 256.6,135.7 C256,135.6 255.5,135.4 255,135.3 C253.7,135 252.6,134.8 251.4,134.5 C250.7,134.4 250.1,134.2 249.4,134.1 L249.2,134.1 C247.9,133.8 246.6,133.6 245.2,133.4 C243.6,133.1 242,132.9 240.4,132.7 C238.8,132.5 237.2,132.3 235.6,132.1 C235.2,132.1 234.9,132 234.5,132 L234.2,132 C233.1,131.9 231.9,131.8 230.7,131.7 L229.9,131.6 C229.6,131.6 229.2,131.6 228.9,131.5 C227.6,131.4 226.1,131.3 224.7,131.3 L224.4,131.3 L224.3,131.3 C220.8,131.2 217.3,131.2 213.8,131.3 L213.2,131.3 C211.9,131.3 210.5,131.4 209,131.5 C208.7,131.5 208.4,131.5 208.1,131.6 C207.8,131.6 207.6,131.6 207.3,131.7 C206.1,131.8 205,131.9 203.8,132 L203.5,132 C203.2,132 202.8,132.1 202.5,132.1 C200.8,132.3 199.2,132.5 197.6,132.7 C196,132.9 194.4,133.1 192.8,133.4 L192.4,133.5 C191.1,133.7 189.7,134 188.4,134.2 C186.6,134.5 184.8,134.9 183.2,135.3 C182.5,135.4 182.1,135.6 181.6,135.7 C180.1,136 178.8,136.4 177.4,136.7 C175.8,137.1 174.3,137.6 172.8,138 C171.4,138.4 170,138.9 168.6,139.3 L168.2,139.4 C167.7,139.6 167.2,139.7 166.8,139.9 C165.8,140.2 164.9,140.6 164.1,140.9 C161.9,141.7 160.1,142.4 158.5,143.1 C157.1,143.7 155.8,144.2 154.6,144.8 L154.2,145 C152.8,145.7 151.4,146.3 150,147 C148.9,147.6 147.8,148.1 146.7,148.7 C146.1,149 145.7,149.2 145.3,149.5 C144,150.2 142.8,150.9 141.6,151.6 C140.8,152.1 139.9,152.6 139.2,153.1 C138.5,153.5 137.9,153.9 137.4,154.3 C136.2,155.1 135.1,155.8 134,156.6 L133.8,156.7 C133.3,157.1 132.7,157.4 132.2,157.8 C130.6,159 129,160.1 127.5,161.4 C126.8,162 126,162.6 125.3,163.2 C124.4,163.9 123.6,164.6 122.8,165.4 C122.1,166 121.4,166.6 120.8,167.2 C117.1,170.7 113.6,174.4 110.4,178.2 L110.1,178.5 C109.7,179 109.2,179.6 108.8,180.1 C108.3,180.8 107.8,181.5 107.2,182.2 C106.8,182.7 106.5,183.2 106.1,183.7 L105.6,184.4 C104.5,186 103.7,187.3 102.9,188.6 C102.4,189.4 102,190.1 101.6,190.8 C101.2,191.5 100.8,192.2 100.4,192.9 C100,193.7 99.6,194.4 99.2,195.2 C98.8,196 98.4,196.7 98.1,197.4 L98,197.6 C97.4,198.8 96.9,200.1 96.3,201.5 C95.8,202.6 95.4,203.7 95.1,204.7 C94.9,205.2 94.7,205.7 94.6,206.3 L94.3,207.3 C94.1,207.7 94,208.1 93.9,208.6 C93.1,211.3 92.4,213.9 91.9,216.6 C91.7,217.6 91.5,218.6 91.4,219.5 C91.3,220.3 91.1,221.2 91.1,222.1 L91,222.8 C90.9,223.5 90.8,224.3 90.8,225 L90.7,225.8 C90.6,226.6 90.6,227.5 90.6,228.4 C90.6,229.5 90.5,230.5 90.5,231.5 C91,257.4 104,282.1 127.7,301 Z" id="Shape" fill="#3A3033"></path>
            <path d="M109.3,291.2 L102.6,289.6 C100.2,289 46,275 3.4,179.8 L0,172.1 L45.7,172.1 L92.7,216.1 L92,218.9 C92,219 92,219 92,219.1 C91.9,219.9 91.7,220.8 91.7,221.6 L91.6,222.3 C91.5,223 91.4,223.8 91.4,224.5 L91.3,225.3 C91.2,226.1 91.2,227 91.2,227.9 C91.2,229 91.1,230 91.1,231 C91.1,248.6 97,265.8 108.3,280.9 L109.4,282.4 L109.4,291.2 L109.3,291.2 Z M16.9,183.1 C37,225.2 59.2,248.8 74.6,261.3 C80.3,265.9 85.5,269.4 89.9,272 C83.5,259.1 80.1,245.2 80.1,231.1 C80.1,229.9 80.1,228.8 80.2,227.6 C80.2,226.7 80.3,225.6 80.4,224.5 L80.5,223.6 C80.6,222.9 80.6,222.1 80.7,221.4 C80.7,221.1 80.8,220.7 80.8,220.4 C80.8,220.3 80.8,220.2 80.8,220.1 L41.4,183.2 L16.9,183.2 L16.9,183.1 Z" id="Shape" fill="#3A3033"></path>
            <path d="M219.5,176.1 C173.4,176.1 137.8,152.1 136.3,151 L129.2,146.1 L136.6,141.7 C160.7,127.5 189.4,120 219.5,120 C249.6,120 278.3,127.5 302.4,141.7 L309.8,146.1 L302.7,151 C301.2,152 265.5,176.1 219.5,176.1 Z M150.4,146.7 C163,153.5 189.1,165.2 219.5,165.2 C249.9,165.2 276,153.5 288.5,146.7 C267.9,136.4 244.2,131 219.5,131 C194.7,131 171.1,136.4 150.4,146.7 Z" id="Shape" fill="#3A3033"></path>
            <path d="M219.5,129.1 C208.3,129.1 199.1,119.9 199.1,108.7 C199.1,97.5 208.3,88.3 219.5,88.3 C230.7,88.3 239.9,97.5 239.9,108.7 C239.9,120 230.7,129.1 219.5,129.1 Z M219.5,99.2 C214.3,99.2 210,103.4 210,108.7 C210,114 214.2,118.2 219.5,118.2 C224.7,118.2 229,114 229,108.7 C229,103.4 224.7,99.2 219.5,99.2 Z" id="Shape" fill="#3A3033"></path>
            <path d="M305.1,146.5 L294.2,146.5 L294.2,85.7 C294.2,44.5 260.7,11 219.5,11 C178.3,11 144.8,44.5 144.8,85.7 L144.8,146.5 L133.9,146.5 L133.9,85.7 C133.9,38.5 172.3,0.1 219.5,0.1 C266.7,0.1 305.1,38.5 305.1,85.7 L305.1,146.5 Z" id="Shape" fill="#3A3033"></path>
            <g id="Group" transform="translate(264.000000, 216.000000)" fill="#3A3033">
                <path d="M94.4,73.7 L35.7,73.7 L34.6,73.2 C3.8,58.5 0.5,8.3 0.4,6.2 L0.1,0.4 L130.2,0.4 L129.9,6.2 C129.8,8.3 126.4,58.5 95.7,73.2 L94.4,73.7 Z M38.2,62.8 L91.8,62.8 C110.5,52.9 116.4,23.8 118.1,11.4 L11.9,11.4 C13.6,23.8 19.5,52.9 38.2,62.8 Z" id="Shape"></path>
                <path d="M98.7,95.9 L31.4,95.9 L31.4,62.8 L98.7,62.8 L98.7,95.9 Z M42.4,85 L87.8,85 L87.8,73.7 L42.4,73.7 L42.4,85 Z" id="Shape"></path>
            </g>
        </g>
    </g>
</svg>