<?xml version="1.0" encoding="UTF-8"?>
<svg width="342px" height="312px" viewBox="0 0 342 312" version="1.1" xmlns="http://www.w3.org/2000/svg" xmlns:xlink="http://www.w3.org/1999/xlink">
    <!-- Generator: Sketch 51 (57462) - http://www.bohemiancoding.com/sketch -->
    <title>tea bag cup</title>
    <desc>Created with Sketch.</desc>
    <defs></defs>
    <g id="Page-1" stroke="none" stroke-width="1" fill="none" fill-rule="evenodd">
        <g id="tea-bag-cup" fill-rule="nonzero">
            <path d="M158.9,278.2 L9.1,278.2 C9.1,278.2 22.8,306.5 48.5,306.5 L158.9,306.5 L269.3,306.5 C295,306.5 308.7,278.2 308.7,278.2 L158.9,278.2 Z" id="Shape" fill="#FFFFFF"></path>
            <path d="M92.2,278.2 L225.5,278.2 C252.8,260.1 269.1,228.8 269.1,195.6 L269.1,145.6 L48.6,145.6 L48.6,195.6 C48.6,228.9 64.9,260.2 92.2,278.2 Z" id="Shape" fill="#FFFFFF"></path>
            <path d="M336.1,193.7 C336.1,220.2 314.5,241.8 288,241.8 L258,241.8 C261.6,234.7 264.4,227.3 266.3,219.5 L288,219.5 C302.2,219.5 313.7,208 313.7,193.8 C313.7,179.6 302.2,168.1 288,168.1 L269.1,168.1 L269.1,145.8 L288,145.8 C314.5,145.7 336.1,167.2 336.1,193.7 Z" id="Shape" fill="#FFFFFF"></path>
            <path d="M269.3,312 L48.5,312 C19.7,312 4.8,281.9 4.2,280.6 L0.4,272.8 L317.4,272.8 L313.6,280.6 C313,281.9 298.1,312 269.3,312 Z M19,283.7 C24.6,291.1 34.6,301.1 48.5,301.1 L269.3,301.1 C283.2,301.1 293.3,291.1 298.8,283.7 L19,283.7 Z" id="Shape" fill="#3A3033"></path>
            <g id="Group" transform="translate(43.000000, 0.000000)" fill="#3A3033">
                <path d="M184.2,283.7 L47.6,283.7 L46.2,282.8 C17.4,263.7 0.1,231.2 0.1,195.6 L0.1,140.1 L231.6,140.1 L231.6,195.6 C231.6,231.1 214.4,263.7 185.5,282.8 L184.2,283.7 Z M50.9,272.8 L180.9,272.8 C205.9,255.7 220.7,226.9 220.7,195.7 L220.7,151.2 L11.1,151.2 L11.1,195.7 C11.1,226.9 26,255.6 50.9,272.8 Z" id="Shape"></path>
                <rect id="Rectangle-path" x="68.2" y="145.7" width="10.9" height="53.1"></rect>
                <path d="M103.5,244 L43.9,244 L43.9,198.7 L58.2,178.2 L89.2,178.2 L103.5,198.7 L103.5,244 Z M54.9,233.1 L92.6,233.1 L92.6,202.2 L83.5,189.2 L63.9,189.2 L54.8,202.2 L54.8,233.1 L54.9,233.1 Z" id="Shape"></path>
                <path d="M245,247.3 L206,247.3 L210.1,239.3 C213.5,232.6 216.2,225.5 217.9,218.2 L218.9,214 L244.9,214 C256.1,214 265.2,204.9 265.2,193.7 C265.2,182.5 256.1,173.4 244.9,173.4 L220.6,173.4 L220.6,140.1 L245,140.1 C274.5,140.1 298.5,164.1 298.5,193.6 C298.6,223.3 274.6,247.3 245,247.3 Z M223.6,236.4 L245,236.4 C268.5,236.4 287.6,217.3 287.6,193.8 C287.6,170.3 268.5,151.2 245,151.2 L231.6,151.2 L231.6,162.6 L245,162.6 C262.2,162.6 276.2,176.6 276.2,193.8 C276.2,211 262.2,225 245,225 L227.5,225 C226.4,228.8 225.1,232.6 223.6,236.4 Z" id="Shape"></path>
                <path d="M156.5,114.8 L148.1,107.8 C177.3,72.9 149.6,44.5 148.4,43.3 L156.1,35.6 C168.8,48.1 185,80.8 156.5,114.8 Z" id="Shape"></path>
                <path d="M127.7,79.2 C115.1,66.6 98.9,33.9 127.4,-1.42108547e-14 L135.8,7 C106.6,41.9 134.3,70.3 135.5,71.5 L127.7,79.2 Z" id="Shape"></path>
                <path d="M84.4,115.1 C71.8,102.5 55.6,69.8 84.1,35.9 L92.5,42.9 C63.5,77.6 91,106.2 92.2,107.4 L84.4,115.1 Z" id="Shape"></path>
            </g>
        </g>
    </g>
</svg>