<?xml version="1.0" encoding="utf-8"?>
<!-- Generator: Adobe Illustrator 18.0.0, SVG Export Plug-In . SVG Version: 6.00 Build 0)  -->
<!DOCTYPE svg PUBLIC "-//W3C//DTD SVG 1.1//EN" "http://www.w3.org/Graphics/SVG/1.1/DTD/svg11.dtd">
<svg version="1.1" id="Layer_1" xmlns="http://www.w3.org/2000/svg" xmlns:xlink="http://www.w3.org/1999/xlink" x="0px" y="0px"
	 width="512px" height="512px" viewBox="0 0 512 512" enable-background="new 0 0 512 512" xml:space="preserve">
<g>
	<g>
		<circle fill="#FFFFFF" cx="205" cy="323.1" r="23.1"/>
	</g>
	<g>
		<g>
			<path fill="#95BDA6" d="M429.4,227.6L429.4,227.6c1.9-5.3,1.7-10.7-0.6-15.2l-1.7-3.3l-1.7-3.3c-2.3-4.5-6.6-7.8-12-9.3l0,0
				c-5.1-1.4-10.9-1.2-16.4,0.7c-23.2,8-44.8,23.1-60.2,35.8c-19.8,16.3-41.5,30.7-64.6,42.6L240,293.3l5.3,10.3l5.3,10.3l32.2-17.8
				c23.1-11.9,47.5-21,72.3-27.6c19.3-5.1,44.2-13.9,64.2-28C424.1,237.2,427.6,232.6,429.4,227.6z"/>
		</g>
		<g>
			<circle fill="#FFFFFF" cx="442.8" cy="201.1" r="17"/>
		</g>
	</g>
	<g>
		<rect x="52.2" y="265.2" fill="#FFFFFF" width="152.1" height="27"/>
	</g>
	<g>
		<path fill="#FFFFFF" d="M204.3,292.1h-76.1H52.2c0,0,34.9,16.7,16.5,47.8c-18.4,31.1-12.1,61.7,10,77.9h49.6h49.6
			c22-16.2,28.4-46.9,10-77.9C169.4,308.8,204.3,292.1,204.3,292.1z"/>
	</g>
	<g>
		<path fill="#3A3033" d="M209.8,297.6H46.7v-37.9h163.1V297.6z M57.7,286.7h141.2v-16H57.7V286.7z"/>
	</g>
	<g>
		<path fill="#3A3033" d="M177.9,423.3H78.7l-3.2-1.1C49.6,403.2,45,369,64,337.1c4.4-7.4,5.6-14.4,3.7-20.8
			C64,304.1,50,297.1,49.8,297.1l2.4-10.4h152.1l2.4,10.4c-0.1,0.1-14.2,7-17.9,19.3c-1.9,6.4-0.7,13.4,3.7,20.8
			c19,31.9,14.4,66.1-11.4,85.1L177.9,423.3z M80.5,412.3H176c19.8-15.7,22.7-43.4,7.1-69.6c-6-10.2-7.6-20.1-4.8-29.6
			c1.9-6.3,5.6-11.5,9.5-15.5H68.7c3.9,4,7.6,9.2,9.5,15.5c2.9,9.5,1.3,19.4-4.8,29.6C57.8,368.9,60.7,396.6,80.5,412.3z"/>
	</g>
	<g>
		<path fill="#FFFFFF" d="M204.3,292.1h-76.1H52.2c0,0,34.9,16.7,16.5,47.8c-18.4,31.1-12.1,61.7,10,77.9h49.6h49.6
			c22-16.2,28.4-46.9,10-77.9C169.4,308.8,204.3,292.1,204.3,292.1z"/>
	</g>
	<g>
		<path fill="#3A3033" d="M177.9,423.3H78.7l-3.2-1.1C49.6,403.2,45,369,64,337.1c4.4-7.4,5.6-14.4,3.7-20.8
			C64,304.1,50,297.1,49.8,297.1l2.4-10.4h152.1l2.4,10.4c-0.1,0.1-14.2,7-17.9,19.3c-1.9,6.4-0.7,13.4,3.7,20.8
			c19,31.9,14.4,66.1-11.4,85.1L177.9,423.3z M80.5,412.3H176c19.8-15.7,22.7-43.4,7.1-69.6c-6-10.2-7.6-20.1-4.8-29.6
			c1.9-6.3,5.6-11.5,9.5-15.5H68.7c3.9,4,7.6,9.2,9.5,15.5c2.9,9.5,1.3,19.4-4.8,29.6C57.8,368.9,60.7,396.6,80.5,412.3z"/>
	</g>
	<g>
		<path fill="#3A3033" d="M118.8,160.6c-25.8-30.8-11.1-60.4,0.3-71.8l7.7,7.7c-1,1.1-25.4,26.4,0.3,57.1L118.8,160.6z"/>
	</g>
	<g>
		<path fill="#3A3033" d="M142.3,192.8l-8.4-7c25.9-30.9,1.4-56,0.3-57.1l7.7-7.7C153.4,132.4,168.1,162,142.3,192.8z"/>
	</g>
	<g>
		<path fill="#3A3033" d="M101.1,238.4c-25.8-30.8-11.1-60.4,0.3-71.8l7.7,7.7c-1,1.1-25.4,26.4,0.3,57.1L101.1,238.4z"/>
	</g>
	<g>
		<g>
			<path fill="#3A3033" d="M248.2,321.4l-15.6-30.4l36.9-20.4c22.4-11.5,43.8-25.6,63.8-42c14.7-12.1,37.4-28.3,61.9-36.7
				c6.5-2.2,13.5-2.5,19.7-0.8c6.9,1.9,12.4,6.2,15.4,12.1l3.4,6.6c3,5.9,3.3,12.8,0.8,19.6c-2.2,6-6.5,11.5-12.1,15.5
				c-21.2,15-47.6,23.9-66,28.8c-25,6.6-49,15.8-71.2,27.2L248.2,321.4z M247.3,295.5l5.6,10.9l27.3-15.1
				c23.1-11.8,47.8-21.3,73.5-28.1c17.5-4.7,42.6-13.1,62.5-27.2c3.8-2.7,6.7-6.4,8.2-10.4c1.4-3.8,1.3-7.7-0.3-10.8l-3.4-6.6
				c-1.6-3.1-4.7-5.5-8.6-6.6c-4.1-1.1-8.8-0.9-13.2,0.6c-23,7.9-44.5,23.3-58.5,34.8c-20.6,16.9-42.7,31.5-65.6,43.2L247.3,295.5z"
				/>
		</g>
		<g>
			<path fill="#3A3033" d="M442.8,223.6c-8.5,0-16.2-4.7-20-12.2c-5.7-11-1.3-24.6,9.8-30.3c3.2-1.6,6.7-2.5,10.2-2.5
				c8.5,0,16.2,4.7,20,12.2c5.7,11,1.3,24.6-9.8,30.3C449.9,222.7,446.3,223.6,442.8,223.6z M442.8,189.5c-1.8,0-3.6,0.4-5.3,1.3
				c-5.7,2.9-7.9,9.9-5,15.5c2,3.9,5.9,6.3,10.3,6.3c1.8,0,3.6-0.4,5.3-1.3c5.7-2.9,7.9-9.9,5-15.5
				C451.1,191.9,447.1,189.5,442.8,189.5z"/>
		</g>
	</g>
	<g>
		<path fill="#3A3033" d="M230.5,331l-8-5.5c0.8-6.1-1.7-12.3-6.5-16.2l0.7-9.1l20.7-11.7l7.6,2.3l10.6,20.6l-2.3,7.3L230.5,331z
			 M228.1,306.3c2.4,3.3,4,7,4.8,10.9l10.3-5.6l-5.5-10.8L228.1,306.3z"/>
	</g>
	<g>
		<path fill="#3A3033" d="M205,351.7c-1.6,0-3.2-0.1-4.8-0.4c-7.5-1.3-14.1-5.4-18.5-11.7c-4.4-6.2-6.1-13.8-4.9-21.3
			c2.4-13.8,14.2-23.8,28.2-23.8c1.6,0,3.2,0.1,4.8,0.4c7.5,1.3,14.1,5.4,18.5,11.7c4.4,6.2,6.1,13.8,4.9,21.3
			C230.8,341.7,219,351.7,205,351.7z M204.9,305.5c-8.6,0-15.9,6.2-17.4,14.7c-0.8,4.6,0.3,9.3,3,13.2c2.7,3.8,6.8,6.4,11.4,7.2
			c1,0.2,2,0.3,3,0.3c8.6,0,15.9-6.2,17.4-14.7c0.8-4.6-0.3-9.3-3-13.2c-2.7-3.8-6.8-6.4-11.4-7.2
			C207,305.6,205.9,305.5,204.9,305.5z"/>
	</g>
</g>
</svg>
