<?xml version="1.0" encoding="UTF-8"?>
<svg width="420px" height="336px" viewBox="0 0 420 336" version="1.1" xmlns="http://www.w3.org/2000/svg" xmlns:xlink="http://www.w3.org/1999/xlink">
    <!-- Generator: Sketch 51 (57462) - http://www.bohemiancoding.com/sketch -->
    <title>turkish gezve</title>
    <desc>Created with Sketch.</desc>
    <defs></defs>
    <g id="Page-1" stroke="none" stroke-width="1" fill="none" fill-rule="evenodd">
        <g id="turkish-gezve" fill-rule="nonzero">
            <circle id="Oval" fill="#FFFFFF" cx="159" cy="235.1" r="23.1"></circle>
            <g id="Group" transform="translate(194.000000, 96.000000)">
                <path d="M189.4,43.6 C191.3,38.3 191.1,32.9 188.8,28.4 L187.1,25.1 L185.4,21.8 C183.1,17.3 178.8,14 173.4,12.5 C168.3,11.1 162.5,11.3 157,13.2 C133.8,21.2 112.2,36.3 96.8,49 C77,65.3 55.3,79.7 32.2,91.6 L0,109.3 L5.3,119.6 L10.6,129.9 L42.8,112.1 C65.9,100.2 90.3,91.1 115.1,84.5 C134.4,79.4 159.3,70.6 179.3,56.5 C184.1,53.2 187.6,48.6 189.4,43.6 Z" id="Shape" fill="#95BDA6"></path>
                <circle id="Oval" fill="#FFFFFF" cx="202.8" cy="17.1" r="17"></circle>
            </g>
            <rect id="Rectangle-path" fill="#FFFFFF" x="6.2" y="177.2" width="152.1" height="27"></rect>
            <path d="M158.3,204.1 L82.2,204.1 L6.2,204.1 C6.2,204.1 41.1,220.8 22.7,251.9 C4.3,283 10.6,313.6 32.7,329.8 L82.3,329.8 L131.9,329.8 C153.9,313.6 160.3,282.9 141.9,251.9 C123.4,220.8 158.3,204.1 158.3,204.1 Z" id="Shape" fill="#FFFFFF"></path>
            <path d="M163.8,209.6 L0.7,209.6 L0.7,171.7 L163.8,171.7 L163.8,209.6 Z M11.7,198.7 L152.9,198.7 L152.9,182.7 L11.7,182.7 L11.7,198.7 Z" id="Shape" fill="#3A3033"></path>
            <path d="M131.9,335.3 L32.7,335.3 L29.5,334.2 C3.6,315.2 -1,281 18,249.1 C22.4,241.7 23.6,234.7 21.7,228.3 C18,216.1 4,209.1 3.8,209.1 L6.2,198.7 L158.3,198.7 L160.7,209.1 C160.6,209.2 146.5,216.1 142.8,228.4 C140.9,234.8 142.1,241.8 146.5,249.2 C165.5,281.1 160.9,315.3 135.1,334.3 L131.9,335.3 Z M34.5,324.3 L130,324.3 C149.8,308.6 152.7,280.9 137.1,254.7 C131.1,244.5 129.5,234.6 132.3,225.1 C134.2,218.8 137.9,213.6 141.8,209.6 L22.7,209.6 C26.6,213.6 30.3,218.8 32.2,225.1 C35.1,234.6 33.5,244.5 27.4,254.7 C11.8,280.9 14.7,308.6 34.5,324.3 Z" id="Shape" fill="#3A3033"></path>
            <path d="M158.3,204.1 L82.2,204.1 L6.2,204.1 C6.2,204.1 41.1,220.8 22.7,251.9 C4.3,283 10.6,313.6 32.7,329.8 L82.3,329.8 L131.9,329.8 C153.9,313.6 160.3,282.9 141.9,251.9 C123.4,220.8 158.3,204.1 158.3,204.1 Z" id="Shape" fill="#FFFFFF"></path>
            <path d="M131.9,335.3 L32.7,335.3 L29.5,334.2 C3.6,315.2 -1,281 18,249.1 C22.4,241.7 23.6,234.7 21.7,228.3 C18,216.1 4,209.1 3.8,209.1 L6.2,198.7 L158.3,198.7 L160.7,209.1 C160.6,209.2 146.5,216.1 142.8,228.4 C140.9,234.8 142.1,241.8 146.5,249.2 C165.5,281.1 160.9,315.3 135.1,334.3 L131.9,335.3 Z M34.5,324.3 L130,324.3 C149.8,308.6 152.7,280.9 137.1,254.7 C131.1,244.5 129.5,234.6 132.3,225.1 C134.2,218.8 137.9,213.6 141.8,209.6 L22.7,209.6 C26.6,213.6 30.3,218.8 32.2,225.1 C35.1,234.6 33.5,244.5 27.4,254.7 C11.8,280.9 14.7,308.6 34.5,324.3 Z" id="Shape" fill="#3A3033"></path>
            <path d="M72.8,72.6 C47,41.8 61.7,12.2 73.1,0.8 L80.8,8.5 C79.8,9.6 55.4,34.9 81.1,65.6 L72.8,72.6 Z" id="Shape" fill="#3A3033"></path>
            <path d="M96.3,104.8 L87.9,97.8 C113.8,66.9 89.3,41.8 88.2,40.7 L95.9,33 C107.4,44.4 122.1,74 96.3,104.8 Z" id="Shape" fill="#3A3033"></path>
            <path d="M55.1,150.4 C29.3,119.6 44,90 55.4,78.6 L63.1,86.3 C62.1,87.4 37.7,112.7 63.4,143.4 L55.1,150.4 Z" id="Shape" fill="#3A3033"></path>
            <g id="Group" transform="translate(186.000000, 90.000000)" fill="#3A3033">
                <path d="M16.2,143.4 L0.6,113 L37.5,92.6 C59.9,81.1 81.3,67 101.3,50.6 C116,38.5 138.7,22.3 163.2,13.9 C169.7,11.7 176.7,11.4 182.9,13.1 C189.8,15 195.3,19.3 198.3,25.2 L201.7,31.8 C204.7,37.7 205,44.6 202.5,51.4 C200.3,57.4 196,62.9 190.4,66.9 C169.2,81.9 142.8,90.8 124.4,95.7 C99.4,102.3 75.4,111.5 53.2,122.9 L16.2,143.4 Z M15.3,117.5 L20.9,128.4 L48.2,113.3 C71.3,101.5 96,92 121.7,85.2 C139.2,80.5 164.3,72.1 184.2,58 C188,55.3 190.9,51.6 192.4,47.6 C193.8,43.8 193.7,39.9 192.1,36.8 L188.7,30.2 C187.1,27.1 184,24.7 180.1,23.6 C176,22.5 171.3,22.7 166.9,24.2 C143.9,32.1 122.4,47.5 108.4,59 C87.8,75.9 65.7,90.5 42.8,102.2 L15.3,117.5 Z" id="Shape"></path>
                <path d="M210.8,45.6 C202.3,45.6 194.6,40.9 190.8,33.4 C185.1,22.4 189.5,8.8 200.6,3.1 C203.8,1.5 207.3,0.6 210.8,0.6 C219.3,0.6 227,5.3 230.8,12.8 C236.5,23.8 232.1,37.4 221,43.1 C217.9,44.7 214.3,45.6 210.8,45.6 Z M210.8,11.5 C209,11.5 207.2,11.9 205.5,12.8 C199.8,15.7 197.6,22.7 200.5,28.3 C202.5,32.2 206.4,34.6 210.8,34.6 C212.6,34.6 214.4,34.2 216.1,33.3 C221.8,30.4 224,23.4 221.1,17.8 C219.1,13.9 215.1,11.5 210.8,11.5 Z" id="Shape"></path>
            </g>
            <path d="M184.5,243 L176.5,237.5 C177.3,231.4 174.8,225.2 170,221.3 L170.7,212.2 L191.4,200.5 L199,202.8 L209.6,223.4 L207.3,230.7 L184.5,243 Z M182.1,218.3 C184.5,221.6 186.1,225.3 186.9,229.2 L197.2,223.6 L191.7,212.8 L182.1,218.3 Z" id="Shape" fill="#3A3033"></path>
            <path d="M159,263.7 C157.4,263.7 155.8,263.6 154.2,263.3 C146.7,262 140.1,257.9 135.7,251.6 C131.3,245.4 129.6,237.8 130.8,230.3 C133.2,216.5 145,206.5 159,206.5 C160.6,206.5 162.2,206.6 163.8,206.9 C171.3,208.2 177.9,212.3 182.3,218.6 C186.7,224.8 188.4,232.4 187.2,239.9 C184.8,253.7 173,263.7 159,263.7 Z M158.9,217.5 C150.3,217.5 143,223.7 141.5,232.2 C140.7,236.8 141.8,241.5 144.5,245.4 C147.2,249.2 151.3,251.8 155.9,252.6 C156.9,252.8 157.9,252.9 158.9,252.9 C167.5,252.9 174.8,246.7 176.3,238.2 C177.1,233.6 176,228.9 173.3,225 C170.6,221.2 166.5,218.6 161.9,217.8 C161,217.6 159.9,217.5 158.9,217.5 Z" id="Shape" fill="#3A3033"></path>
        </g>
    </g>
</svg>