<?xml version="1.0" encoding="UTF-8"?>
<svg width="266px" height="328px" viewBox="0 0 266 328" version="1.1" xmlns="http://www.w3.org/2000/svg" xmlns:xlink="http://www.w3.org/1999/xlink">
    <!-- Generator: Sketch 51 (57462) - http://www.bohemiancoding.com/sketch -->
    <title>vacuum pot</title>
    <desc>Created with Sketch.</desc>
    <defs></defs>
    <g id="Page-1" stroke="none" stroke-width="1" fill="none" fill-rule="evenodd">
        <g id="vacuum-pot" fill-rule="nonzero">
            <path d="M176.6,59.8 C175.4,56.8 173.9,54.1 172.3,51.4 C172,51 171.8,50.5 171.6,50.1 C166.4,41.3 162.9,32.7 166.8,23.3 C169.8,16.6 175.3,10.5 181.2,6.2 C181.2,6.2 181.1,6.2 181.1,6.2 C180.8,6.2 32,6.2 26.8,6.2 C26.6995533,6.2 26.6995533,6.2 26.6995533,6.2 C32.6,10.5 38.1,16.6 41.1,23.3 C45,32.7 41.5,41.3 36.3,50.1 C36,50.5 35.8,51 35.6,51.4 C34,54.1 32.5,56.8 31.3,59.8 C30.1,62.7 29.2,65.7 28.5,68.8 C27.4,73.4 26.7,78.2 26.7,83.2 C26.6,109.9 43.3,133 67.8,144.6 L68.1,144.6 L139.7,144.6 L140,144.6 C164.5,133 181.2,109.8 181.1,83.2 C181.1,78.2 180.4,73.5 179.3,68.8 C178.7,65.7 177.7,62.7 176.6,59.8 Z" id="Shape" fill="#FFFFFF"></path>
            <path d="M181.2,83.1 C181.3,109.8 164.6,132.9 140.1,144.5 L67.8,144.5 C43.3,132.9 26.6,109.7 26.7,83.1 C26.7,78.1 27.4,73.4 28.5,68.7 C29.2,65.6 30.1,62.6 31.3,59.7 C32,57.8 32.9,56.1 33.9,54.3 L174,54.3 C175,56 175.8,57.8 176.6,59.7 C177.8,62.6 178.7,65.6 179.4,68.7 C180.5,73.4 181.2,78.2 181.2,83.1 Z" id="Shape" fill="#9D705C"></path>
            <path d="M181.2,83.1 C181.3,109.8 164.6,132.9 140.1,144.5 L67.8,144.5 C43.3,132.9 26.6,109.7 26.7,83.1 C26.7,78.1 27.4,73.4 28.5,68.7 C29.2,65.6 30.1,62.6 31.3,59.7 C32,57.8 32.9,56.1 33.9,54.3 L174,54.3 C175,56 175.8,57.8 176.6,59.7 C177.8,62.6 178.7,65.6 179.4,68.7 C180.5,73.4 181.2,78.2 181.2,83.1 Z" id="Shape" fill="#CD9E5D"></path>
            <polygon id="Shape" fill="#9D705C" points="69.8 202.7 69.8 167 262.8 167 225.8 188.1 166.3 188.1 139.6 181.2 139.6 202.7"></polygon>
            <polygon id="Shape" fill="#9D705C" points="69.8 167 52.3 144.5 155 144.5 139 167"></polygon>
            <path d="M138.3,202.7 L104,202.7 L69.7,202.7 L18.6,249.9 C10.5,257.4 5.9,267.9 5.9,279 L5.9,282.4 C5.9,288.6 7.4,294.8 10.2,300.4 C17,313.7 30.6,322 45.5,322 L104,322 L162.5,322 C177.4,322 191,313.6 197.8,300.4 C200.6,294.8 202.1,288.7 202.1,282.4 L202.1,279 C202.1,268 197.5,257.4 189.4,249.9 L138.3,202.7 Z" id="Shape" fill="#FFFFFF"></path>
            <rect id="Rectangle-path" fill="#FFFFFF" x="85.7" y="202.4" width="38.9" height="99.9"></rect>
            <path d="M202.1,278.9 L202.1,282.3 C202.1,288.6 200.6,294.7 197.8,300.3 C191,313.6 177.4,321.9 162.5,321.9 L45.5,321.9 C38,321.9 30.9,319.8 24.8,316.1 C18.7,312.4 13.6,307 10.2,300.3 C7.4,294.7 5.9,288.6 5.9,282.3 L5.9,278.9 C5.9,273.9 6.8,269.1 8.6,264.6 L199.3,264.6 C201.1,269.1 202.1,274 202.1,278.9 Z" id="Shape" fill="#CDCCCC"></path>
            <path d="M162.5,327.4 L45.5,327.4 C28.5,327.4 13.1,318 5.4,302.8 C2.2,296.5 0.5,289.4 0.5,282.3 L0.5,278.9 C0.5,266.4 5.8,254.3 15,245.8 L66.1,198.6 L69.8,197.1 L138.3,197.1 L142,198.6 L193.1,245.8 C202.3,254.3 207.6,266.4 207.6,278.9 L207.6,282.3 C207.6,289.4 205.9,296.4 202.7,302.8 C194.9,317.9 179.5,327.4 162.5,327.4 Z M71.9,208.2 L22.4,253.9 C15.4,260.3 11.4,269.5 11.4,279 L11.4,282.4 C11.4,287.8 12.7,293.1 15.1,297.9 C21,309.4 32.6,316.5 45.5,316.5 L162.5,316.5 C175.4,316.5 187,309.4 192.9,297.9 C195.3,293.1 196.6,287.8 196.6,282.4 L196.6,279 C196.6,269.5 192.6,260.4 185.6,253.9 L136.1,208.2 L71.9,208.2 Z" id="Shape" fill="#3A3033"></path>
            <path d="M139.6,208.2 L69.8,208.2 L64.3,202.7 L64.3,167 L69.8,161.5 L262.8,161.5 L265.5,171.7 L228.5,192.9 L225.8,193.6 L166.3,193.6 L164.9,193.4 L145,188.3 L145,202.7 L139.6,208.2 Z M75.2,197.2 L134.1,197.2 L134.1,181.2 L140.9,175.9 L166.9,182.6 L224.2,182.6 L242.1,172.4 L75.1,172.4 L75.1,197.2 L75.2,197.2 Z" id="Shape" fill="#3A3033"></path>
            <path d="M139,172.4 L69.8,172.4 L65.5,170.3 L48,147.9 L52.3,139.1 L155,139.1 L159.4,147.7 L143.4,170.1 L139,172.4 Z M72.4,161.5 L136.1,161.5 L144.3,150 L63.4,150 L72.4,161.5 Z" id="Shape" fill="#3A3033"></path>
            <path d="M140,150 L67.7,150 L65.4,149.5 C38,136.5 21.1,111.1 21.2,83.1 C21.2,77.9 21.9,72.7 23.2,67.4 C24,64.1 25,60.8 26.2,57.7 C27.5,54.4 29.2,51.3 30.8,48.6 L31,48.2 C31.2,47.9 31.3,47.6 31.5,47.3 C36.3,39.2 38.9,32.4 36,25.4 C33.6,20.1 29,14.6 23.4,10.6 L26.6,0.7 L181,0.7 L184.3,10.6 C178.7,14.6 174.1,20 171.7,25.5 C168.9,32.4 171.4,39.2 176.3,47.3 C176.5,47.6 176.7,47.9 176.8,48.2 L177.1,48.7 C178.7,51.4 180.4,54.5 181.7,57.8 C182.9,60.9 184,64.2 184.7,67.6 C186,72.7 186.6,78 186.6,83.2 C186.7,111.2 169.7,136.6 142.3,149.6 L140,150 Z M69,139.1 L138.8,139.1 C161.6,127.8 175.8,106.5 175.7,83.1 C175.7,78.8 175.1,74.4 174.1,70 C173.4,67.1 172.6,64.3 171.5,61.7 C170.4,59 169,56.4 167.6,54 L167.2,53.3 C167.1,53.1 167,52.9 166.9,52.7 C161.6,43.7 156.8,32.9 161.7,21 C163.2,17.7 165.2,14.5 167.6,11.5 L40.2,11.5 C42.6,14.5 44.6,17.7 46,20.9 C51,33 46.2,43.8 40.9,52.8 C40.8,53 40.7,53.2 40.6,53.4 L40.2,54.1 C38.8,56.5 37.3,59.1 36.3,61.8 C35.3,64.4 34.4,67.2 33.7,70 C32.6,74.4 32,78.8 32,83.1 C32,106.5 46.1,127.8 69,139.1 Z" id="Shape" fill="#3A3033"></path>
            <path d="M124.6,307.8 L85.7,307.8 L80.2,302.3 L80.2,202.4 L85.7,196.9 L124.6,196.9 L130.1,202.4 L130.1,302.3 L124.6,307.8 Z M91.1,296.8 L119.1,296.8 L119.1,207.8 L91.1,207.8 L91.1,296.8 Z" id="Shape" fill="#3A3033"></path>
            <rect id="Rectangle-path" fill="#3A3033" x="104" y="218.5" width="20.6" height="10.9"></rect>
            <rect id="Rectangle-path" fill="#3A3033" x="104" y="238.8" width="20.6" height="10.9"></rect>
            <rect id="Rectangle-path" fill="#3A3033" x="104" y="259.1" width="20.6" height="10.9"></rect>
            <rect id="Rectangle-path" fill="#3A3033" x="104" y="279.4" width="20.6" height="10.9"></rect>
        </g>
    </g>
</svg>