<?xml version="1.0" encoding="utf-8"?>
<!-- Generator: Adobe Illustrator 18.0.0, SVG Export Plug-In . SVG Version: 6.00 Build 0)  -->
<!DOCTYPE svg PUBLIC "-//W3C//DTD SVG 1.1//EN" "http://www.w3.org/Graphics/SVG/1.1/DTD/svg11.dtd">
<svg version="1.1" id="Layer_1" xmlns="http://www.w3.org/2000/svg" xmlns:xlink="http://www.w3.org/1999/xlink" x="0px" y="0px"
	 width="512px" height="512px" viewBox="0 0 512 512" enable-background="new 0 0 512 512" xml:space="preserve">
<g>
	<g>
		<path fill="#FFFFFF" d="M299.6,151.8c-1.2-3-2.7-5.7-4.3-8.4c-0.3-0.4-0.5-0.9-0.7-1.3c-5.2-8.8-8.7-17.4-4.8-26.8
			c3-6.7,8.5-12.8,14.4-17.1c0,0-0.1,0-0.1,0c-0.3,0-149.1,0-154.3,0c-0.1,0-0.1,0-0.1,0c5.9,4.3,11.4,10.4,14.4,17.1
			c3.9,9.4,0.4,18-4.8,26.8c-0.3,0.4-0.5,0.9-0.7,1.3c-1.6,2.7-3.1,5.4-4.3,8.4c-1.2,2.9-2.1,5.9-2.8,9c-1.1,4.6-1.8,9.4-1.8,14.4
			c-0.1,26.7,16.6,49.8,41.1,61.4h0.3h71.6h0.3c24.5-11.6,41.2-34.8,41.1-61.4c0-5-0.7-9.7-1.8-14.4
			C301.7,157.7,300.7,154.7,299.6,151.8z"/>
	</g>
	<g>
		<path fill="#9D705C" d="M304.2,175.1c0.1,26.7-16.6,49.8-41.1,61.4h-72.3c-24.5-11.6-41.2-34.8-41.1-61.4c0-5,0.7-9.7,1.8-14.4
			c0.7-3.1,1.6-6.1,2.8-9c0.7-1.9,1.6-3.6,2.6-5.4H297c1,1.7,1.8,3.5,2.6,5.4c1.2,2.9,2.1,5.9,2.8,9
			C303.5,165.4,304.2,170.2,304.2,175.1z"/>
	</g>
	<g>
		<path fill="#CD9E5D" d="M304.2,175.1c0.1,26.7-16.6,49.8-41.1,61.4h-72.3c-24.5-11.6-41.2-34.8-41.1-61.4c0-5,0.7-9.7,1.8-14.4
			c0.7-3.1,1.6-6.1,2.8-9c0.7-1.9,1.6-3.6,2.6-5.4H297c1,1.7,1.8,3.5,2.6,5.4c1.2,2.9,2.1,5.9,2.8,9
			C303.5,165.4,304.2,170.2,304.2,175.1z"/>
	</g>
	<g>
		<polygon fill="#9D705C" points="192.8,294.7 192.8,259 385.8,259 348.8,280.1 289.3,280.1 262.6,273.2 262.6,294.7 		"/>
	</g>
	<g>
		<polygon fill="#9D705C" points="192.8,259 175.3,236.5 278,236.5 262,259 		"/>
	</g>
	<g>
		<path fill="#FFFFFF" d="M261.3,294.7H227h-34.3l-51.1,47.2c-8.1,7.5-12.7,18-12.7,29.1v3.4c0,6.2,1.5,12.4,4.3,18l0,0
			c6.8,13.3,20.4,21.6,35.3,21.6H227h58.5c14.9,0,28.5-8.4,35.3-21.6v0c2.8-5.6,4.3-11.7,4.3-18v-3.4c0-11-4.6-21.6-12.7-29.1
			L261.3,294.7z"/>
	</g>
	<g>
		<rect x="208.7" y="294.4" fill="#FFFFFF" width="38.9" height="99.9"/>
	</g>
	<g>
		<path fill="#CDCCCC" d="M325.1,370.9v3.4c0,6.3-1.5,12.4-4.3,18c-6.8,13.3-20.4,21.6-35.3,21.6h-117c-7.5,0-14.6-2.1-20.7-5.8
			c-6.1-3.7-11.2-9.1-14.6-15.8c-2.8-5.6-4.3-11.7-4.3-18v-3.4c0-5,0.9-9.8,2.7-14.3h190.7C324.1,361.1,325.1,366,325.1,370.9z"/>
	</g>
	<g>
		<path fill="#3A3033" d="M285.5,419.4h-117c-17,0-32.4-9.4-40.1-24.6c-3.2-6.3-4.9-13.4-4.9-20.5v-3.4c0-12.5,5.3-24.6,14.5-33.1
			l51.1-47.2l3.7-1.5h68.5l3.7,1.5l51.1,47.2c9.2,8.5,14.5,20.6,14.5,33.1v3.4c0,7.1-1.7,14.1-4.9,20.5
			C317.9,409.9,302.5,419.4,285.5,419.4z M194.9,300.2l-49.5,45.7c-7,6.4-11,15.6-11,25.1v3.4c0,5.4,1.3,10.7,3.7,15.5
			c5.9,11.5,17.5,18.6,30.4,18.6h117c12.9,0,24.5-7.1,30.4-18.6c2.4-4.8,3.7-10.1,3.7-15.5v-3.4c0-9.5-4-18.6-11-25.1l-49.5-45.7
			H194.9z"/>
	</g>
	<g>
		<path fill="#3A3033" d="M262.6,300.2h-69.8l-5.5-5.5V259l5.5-5.5h193l2.7,10.2l-37,21.2l-2.7,0.7h-59.5l-1.4-0.2l-19.9-5.1v14.4
			L262.6,300.2z M198.2,289.2h58.9v-16l6.8-5.3l26,6.7h57.3l17.9-10.2h-167V289.2z"/>
	</g>
	<g>
		<path fill="#3A3033" d="M262,264.4h-69.2l-4.3-2.1L171,239.9l4.3-8.8H278l4.4,8.6l-16,22.4L262,264.4z M195.4,253.5h63.7l8.2-11.5
			h-80.9L195.4,253.5z"/>
	</g>
	<g>
		<path fill="#3A3033" d="M263,242h-72.3l-2.3-0.5c-27.4-13-44.3-38.4-44.2-66.4c0-5.2,0.7-10.4,2-15.7c0.8-3.3,1.8-6.6,3-9.7
			c1.3-3.3,3-6.4,4.6-9.1l0.2-0.4c0.2-0.3,0.3-0.6,0.5-0.9c4.8-8.1,7.4-14.9,4.5-21.9c-2.4-5.3-7-10.8-12.6-14.8l3.2-9.9H304
			l3.3,9.9c-5.6,4-10.2,9.4-12.6,14.9c-2.8,6.9-0.3,13.7,4.6,21.8c0.2,0.3,0.4,0.6,0.5,0.9l0.3,0.5c1.6,2.7,3.3,5.8,4.6,9.1
			c1.2,3.1,2.3,6.4,3,9.8c1.3,5.1,1.9,10.4,1.9,15.6c0.1,28-16.9,53.4-44.3,66.4L263,242z M192,231.1h69.8
			c22.8-11.3,37-32.6,36.9-56c0-4.3-0.6-8.7-1.6-13.1c-0.7-2.9-1.5-5.7-2.6-8.3c-1.1-2.7-2.5-5.3-3.9-7.7l-0.4-0.7
			c-0.1-0.2-0.2-0.4-0.3-0.6c-5.3-9-10.1-19.8-5.2-31.7c1.5-3.3,3.5-6.5,5.9-9.5H163.2c2.4,3,4.4,6.2,5.8,9.4
			c5,12.1,0.2,22.9-5.1,31.9c-0.1,0.2-0.2,0.4-0.3,0.6l-0.4,0.7c-1.4,2.4-2.9,5-3.9,7.7c-1,2.6-1.9,5.4-2.6,8.2
			c-1.1,4.4-1.7,8.8-1.7,13.1C155,198.5,169.1,219.8,192,231.1z"/>
	</g>
	<g>
		<path fill="#3A3033" d="M247.6,399.8h-38.9l-5.5-5.5v-99.9l5.5-5.5h38.9l5.5,5.5v99.9L247.6,399.8z M214.1,388.8h28v-89h-28V388.8
			z"/>
	</g>
	<g>
		<rect x="227" y="310.5" fill="#3A3033" width="20.6" height="10.9"/>
	</g>
	<g>
		<rect x="227" y="330.8" fill="#3A3033" width="20.6" height="10.9"/>
	</g>
	<g>
		<rect x="227" y="351.1" fill="#3A3033" width="20.6" height="10.9"/>
	</g>
	<g>
		<rect x="227" y="371.4" fill="#3A3033" width="20.6" height="10.9"/>
	</g>
</g>
</svg>
