<?xml version="1.0" encoding="utf-8"?>
<!-- Generator: Adobe Illustrator 18.0.0, SVG Export Plug-In . SVG Version: 6.00 Build 0)  -->
<!DOCTYPE svg PUBLIC "-//W3C//DTD SVG 1.1//EN" "http://www.w3.org/Graphics/SVG/1.1/DTD/svg11.dtd">
<svg version="1.1" id="Layer_1" xmlns="http://www.w3.org/2000/svg" xmlns:xlink="http://www.w3.org/1999/xlink" x="0px" y="0px"
	 width="512px" height="512px" viewBox="0 0 512 512" enable-background="new 0 0 512 512" xml:space="preserve">
<g>
	<g>
		<g>
			<rect x="118.1" y="414.7" fill="#9D705C" width="40.1" height="18.2"/>
		</g>
		<g>
			<rect x="353.8" y="414.7" fill="#9D705C" width="40.1" height="18.2"/>
		</g>
	</g>
	<g>
		<rect x="95.8" y="79" fill="#CDCCCC" width="320.3" height="335.7"/>
	</g>
	<g>
		<path fill="#95BDA6" d="M227.5,268.5v110.9H123.9V268.9c0,0,20.1-6.1,50.7-6.1S227.5,268.5,227.5,268.5z"/>
	</g>
	<g>
		<polygon fill="#FFFFFF" points="179.9,318.9 171.5,318.9 148.8,318.9 161.5,379.3 171.5,379.3 179.9,379.3 189.9,379.3 
			202.7,318.9 		"/>
	</g>
	<g>
		<rect x="295.9" y="121.4" fill="#9D705C" width="80.6" height="56.7"/>
	</g>
	<g>
		<rect x="295.9" y="178.1" fill="#9D705C" width="40.3" height="29.2"/>
	</g>
	<g>
		<rect x="336.2" y="178.1" fill="#9D705C" width="40.3" height="29.2"/>
	</g>
	<g>
		<rect x="295.9" y="207.3" fill="#9D705C" width="40.3" height="29.2"/>
	</g>
	<g>
		<rect x="336.2" y="207.3" fill="#9D705C" width="40.3" height="29.2"/>
	</g>
	<g>
		<rect x="295.9" y="236.5" fill="#9D705C" width="40.3" height="29.2"/>
	</g>
	<g>
		<rect x="336.2" y="236.5" fill="#9D705C" width="40.3" height="29.2"/>
	</g>
	<g>
		<rect x="295.9" y="265.7" fill="#9D705C" width="40.3" height="29.2"/>
	</g>
	<g>
		<rect x="336.2" y="265.7" fill="#9D705C" width="40.3" height="29.2"/>
	</g>
	<g>
		<rect x="295.9" y="121.4" fill="#FFFFFF" width="80.6" height="56.7"/>
	</g>
	<g>
		<path fill="#3A3033" d="M421.6,420.2H90.4V73.6h331.3V420.2z M101.3,409.3h309.4V84.5H101.3V409.3z"/>
	</g>
	<g>
		<g>
			<path fill="#3A3033" d="M163.7,438.4h-51.1v-29.2h51.1V438.4z M123.6,427.5h29.2v-7.3h-29.2V427.5z"/>
		</g>
		<g>
			<path fill="#3A3033" d="M399.4,438.4h-51.1v-29.2h51.1V438.4z M359.2,427.5h29.2v-7.3h-29.2V427.5z"/>
		</g>
	</g>
	<g>
		<path fill="#3A3033" d="M261.5,420.2H90.4V273.8l3.3-1.4c1.4-0.6,36-15,84-15c28.2,0,55.3,5,80.3,15l3.5,1.4V420.2z M101.3,409.3
			h149.2V281.1c-22.8-8.5-47.3-12.9-72.8-12.9c-37.5,0-66.8,9.4-76.4,12.9V409.3z"/>
	</g>
	<g>
		<rect x="250.5" y="80" fill="#3A3033" width="10.9" height="236.1"/>
	</g>
	<g>
		<path fill="#3A3033" d="M382,300.3h-91.5V115.9H382V300.3z M301.4,289.4h69.7V126.8h-69.7V289.4z"/>
	</g>
	<g>
		<rect x="295.9" y="352.3" fill="#9D705C" width="23.8" height="23.8"/>
	</g>
	<g>
		<path fill="#3A3033" d="M325.2,381.6h-34.8v-34.8h34.8V381.6z M301.4,370.7h12.9v-12.9h-12.9V370.7z"/>
	</g>
	<g>
		<path fill="#3A3033" d="M379.3,381.6h-88.8V329h88.8V381.6z M301.4,370.7h67v-30.8h-67V370.7z"/>
	</g>
	<g>
		<path fill="#3A3033" d="M382,183.5h-91.5v-67.6H382V183.5z M301.4,172.6h69.7v-45.8h-69.7V172.6z"/>
	</g>
	<g>
		<path fill="#3A3033" d="M341.7,212.7h-51.2v-40.1h51.2V212.7z M301.4,201.8h29.4v-18.3h-29.4V201.8z"/>
	</g>
	<g>
		<path fill="#3A3033" d="M382,212.7h-51.2v-40.1H382V212.7z M341.7,201.8h29.4v-18.3h-29.4V201.8z"/>
	</g>
	<g>
		<path fill="#3A3033" d="M341.7,241.9h-51.2v-40.1h51.2V241.9z M301.4,231h29.4v-18.3h-29.4V231z"/>
	</g>
	<g>
		<path fill="#3A3033" d="M382,241.9h-51.2v-40.1H382V241.9z M341.7,231h29.4v-18.3h-29.4V231z"/>
	</g>
	<g>
		<path fill="#3A3033" d="M341.7,271.1h-51.2V231h51.2V271.1z M301.4,260.2h29.4v-18.3h-29.4V260.2z"/>
	</g>
	<g>
		<path fill="#3A3033" d="M382,271.1h-51.2V231H382V271.1z M341.7,260.2h29.4v-18.3h-29.4V260.2z"/>
	</g>
	<g>
		<path fill="#3A3033" d="M341.7,300.3h-51.2v-40.1h51.2V300.3z M301.4,289.4h29.4v-18.3h-29.4V289.4z"/>
	</g>
	<g>
		<path fill="#3A3033" d="M382,300.3h-51.2v-40.1H382V300.3z M341.7,289.4h29.4v-18.3h-29.4V289.4z"/>
	</g>
	<g>
		<path fill="#3A3033" d="M233,384.8H118.4V264.9l3.9-1.2c0.9-0.3,21.2-6.3,52.3-6.3c31,0,53.3,5.6,54.3,5.8l4.1,1V384.8z
			 M129.4,373.9h92.7v-101c-7.7-1.6-25.4-4.6-47.4-4.6c-21.8,0-38.1,3.2-45.2,4.9V373.9z"/>
	</g>
	<g>
		<path fill="#3A3033" d="M175.7,300.3c-36.3,0-55.4-25.9-56.2-27l8.8-6.4c0.7,0.9,16.8,22.5,47.4,22.5c31.8,0,47.2-20.7,47.4-20.9
			l8.9,6.4C231.2,276,213.1,300.3,175.7,300.3z"/>
	</g>
	<g>
		<path fill="#3A3033" d="M194.3,384.8h-37.2L142,313.4h67.4L194.3,384.8z M166,373.9h19.5l10.5-49.5h-40.4L166,373.9z"/>
	</g>
	<g>
		<rect x="170.2" y="294.9" fill="#3A3033" width="10.9" height="13.5"/>
	</g>
	<g>
		<rect x="131.7" y="121.4" fill="#FFFFFF" width="86.7" height="100.5"/>
	</g>
	<g>
		<path fill="#3A3033" d="M223.9,227.3h-97.7V115.9h97.7V227.3z M137.2,216.4H213v-89.6h-75.8V216.4z"/>
	</g>
</g>
</svg>
