<?xml version="1.0" encoding="utf-8"?>
<!-- Generator: Adobe Illustrator 18.0.0, SVG Export Plug-In . SVG Version: 6.00 Build 0)  -->
<!DOCTYPE svg PUBLIC "-//W3C//DTD SVG 1.1//EN" "http://www.w3.org/Graphics/SVG/1.1/DTD/svg11.dtd">
<svg version="1.1" id="Layer_1" xmlns="http://www.w3.org/2000/svg" xmlns:xlink="http://www.w3.org/1999/xlink" x="0px" y="0px"
	 width="512px" height="512px" viewBox="0 0 512 512" enable-background="new 0 0 512 512" xml:space="preserve">
<g>
	<g>
		<polygon fill="#FFFFFF" points="256,218.5 171.8,218.5 200.1,403.8 256,403.8 311.9,403.8 340.2,218.5 		"/>
	</g>
	<g>
		<polygon fill="#FFFFFF" points="256,218.5 197.4,218.5 201.7,240.7 256,240.7 310.3,240.7 314.6,218.5 		"/>
	</g>
	<g>
		<polygon fill="#FFFFFF" points="256,108.2 180.3,108.2 180.3,179.1 256,179.1 331.7,179.1 331.7,108.2 		"/>
	</g>
	<g>
		<polygon fill="#CD9E5D" points="181.5,282.3 200.1,403.8 311.9,403.8 330.5,282.3 		"/>
	</g>
	<g>
		<polygon fill="#95BDA6" points="194.8,369.2 200.1,403.8 311.9,403.8 317.2,369.2 		"/>
	</g>
	<g>
		<path fill="#3A3033" d="M316.6,409.3H195.4l-30-196.2h181.2L316.6,409.3z M204.8,398.4h102.4L333.9,224H178.1L204.8,398.4z"/>
	</g>
	<g>
		<path fill="#3A3033" d="M314.8,246.2H197.2l-6.4-33.1h130.4L314.8,246.2z M206.2,235.3h99.6L308,224H204L206.2,235.3z"/>
	</g>
	<g>
		<rect x="152.5" y="193.6" fill="#3A3033" width="207" height="10.9"/>
	</g>
	<g>
		<path fill="#3A3033" d="M337.2,184.6H174.8v-81.9h162.4V184.6z M185.7,173.6h140.6v-60H185.7V173.6z"/>
	</g>
	<g>
		<rect x="160.7" y="102.7" fill="#3A3033" width="190.6" height="10.9"/>
	</g>
</g>
</svg>
