<?xml version="1.0" encoding="UTF-8"?>
<svg width="208px" height="308px" viewBox="0 0 208 308" version="1.1" xmlns="http://www.w3.org/2000/svg" xmlns:xlink="http://www.w3.org/1999/xlink">
    <!-- Generator: Sketch 51 (57462) - http://www.bohemiancoding.com/sketch -->
    <title>vietnamese hot</title>
    <desc>Created with Sketch.</desc>
    <defs></defs>
    <g id="Page-1" stroke="none" stroke-width="1" fill="none" fill-rule="evenodd">
        <g id="vietnamese-hot" fill-rule="nonzero">
            <polygon id="Shape" fill="#FFFFFF" points="104 116.5 19.8 116.5 48.1 301.8 104 301.8 159.9 301.8 188.2 116.5"></polygon>
            <polygon id="Shape" fill="#FFFFFF" points="104 116.5 45.4 116.5 49.7 138.7 104 138.7 158.3 138.7 162.6 116.5"></polygon>
            <polygon id="Shape" fill="#FFFFFF" points="104 6.2 28.3 6.2 28.3 77.1 104 77.1 179.7 77.1 179.7 6.2"></polygon>
            <polygon id="Shape" fill="#CD9E5D" points="29.5 180.3 48.1 301.8 159.9 301.8 178.5 180.3"></polygon>
            <polygon id="Shape" fill="#95BDA6" points="42.8 267.2 48.1 301.8 159.9 301.8 165.2 267.2"></polygon>
            <path d="M164.6,307.3 L43.4,307.3 L13.4,111.1 L194.6,111.1 L164.6,307.3 Z M52.8,296.4 L155.2,296.4 L181.9,122 L26.1,122 L52.8,296.4 Z" id="Shape" fill="#3A3033"></path>
            <path d="M162.8,144.2 L45.2,144.2 L38.8,111.1 L169.2,111.1 L162.8,144.2 Z M54.2,133.3 L153.8,133.3 L156,122 L52,122 L54.2,133.3 Z" id="Shape" fill="#3A3033"></path>
            <rect id="Rectangle-path" fill="#3A3033" x="0.5" y="91.6" width="207" height="10.9"></rect>
            <path d="M185.2,82.6 L22.8,82.6 L22.8,0.7 L185.2,0.7 L185.2,82.6 Z M33.7,71.6 L174.3,71.6 L174.3,11.6 L33.7,11.6 L33.7,71.6 Z" id="Shape" fill="#3A3033"></path>
            <rect id="Rectangle-path" fill="#3A3033" x="8.7" y="0.7" width="190.6" height="10.9"></rect>
        </g>
    </g>
</svg>