<?xml version="1.0" encoding="utf-8"?>
<!-- Generator: Adobe Illustrator 18.0.0, SVG Export Plug-In . SVG Version: 6.00 Build 0)  -->
<!DOCTYPE svg PUBLIC "-//W3C//DTD SVG 1.1//EN" "http://www.w3.org/Graphics/SVG/1.1/DTD/svg11.dtd">
<svg version="1.1" id="Layer_1" xmlns="http://www.w3.org/2000/svg" xmlns:xlink="http://www.w3.org/1999/xlink" x="0px" y="0px"
	 width="512px" height="512px" viewBox="0 0 512 512" enable-background="new 0 0 512 512" xml:space="preserve">
<g>
	<g>
		<path fill="#9D705C" d="M356.1,182.4v23.7h62.6c0,0,0.9,79-62.6,87.8v22.7c0,0,87.1,5.2,87.1-134.3H356.1z"/>
	</g>
	<g>
		<path fill="#FFFFFF" d="M290.7,159.9c-11.5,0-30.2,0-47.9,0c0,0,26.1,0,2.7,0c-17.6,0-36.4,0-47.9,0c-26.8,0-30.4,22.5-30.4,22.5
			h78.2h-2.7h78.2C321.1,182.4,317.4,159.9,290.7,159.9z"/>
	</g>
	<g>
		<path fill="#FFFFFF" d="M299.7,338.9H188.6c-20.9,0-37.8-16.9-37.8-37.8l0-118.6h186.8v118.6C337.5,321.9,320.6,338.9,299.7,338.9
			z"/>
	</g>
	<g>
		<rect x="142.1" y="385.8" fill="#FFFFFF" width="204" height="20.4"/>
	</g>
	<g>
		<path fill="#FFFFFF" d="M64.8,148.9h21.9c0,0,25.9,17.3,25.9,67.4c0,36.3,38.2,29.5,38.2,29.5l0,45.9c0,0-69.2-17.2-64.1-77.1
			C91.6,155.7,64.8,148.9,64.8,148.9z"/>
	</g>
	<g>
		<path fill="#FFFFFF" d="M211.8,159.9c0-17.2,13.9-31.1,31.1-31.1s31.1,13.9,31.1,31.1H211.8z"/>
	</g>
	<g>
		<circle fill="#FFFFFF" cx="242.8" cy="117.3" r="11.5"/>
	</g>
	<g>
		<path fill="#3A3033" d="M327.5,187.9H160.8l1-6.3c1.5-9.4,10.9-27.1,35.8-27.1h93.1c24.8,0,34.3,17.7,35.8,27.1L327.5,187.9z
			 M245.5,177h67.8c-2.9-5.2-9.2-11.6-22.6-11.6h-93.1c-13.4,0-19.7,6.4-22.6,11.6H245.5z"/>
	</g>
	<g>
		<path fill="#3A3033" d="M268.6,344.3h-48.9c-41,0-74.4-33.4-74.4-74.4v-93H343v93C343,311,309.6,344.3,268.6,344.3z M156.2,187.9
			v82c0,35,28.5,63.5,63.5,63.5h48.9c35,0,63.5-28.5,63.5-63.5v-82H156.2z"/>
	</g>
	<g>
		<g>
			<path fill="#FFFFFF" d="M316,385.8H172.3c31.6-26.5,7.7-59,6.8-60.2c10.3,8.3,23.4,13.2,37.6,13.2h55.8
				c13.4,0,25.8-4.4,35.8-11.8C303.8,333.7,287.8,362.1,316,385.8z"/>
		</g>
		<g>
			<path fill="#3A3033" d="M316,391.3H172.3l-3.5-9.7c27-22.7,8.2-49.7,5.9-52.8l7.8-7.5c9.8,7.9,21.6,12,34.2,12h55.8
				c11.8,0,23.1-3.7,32.5-10.7l7.8,7.4c-4.6,6.9-17.6,31.1,6.7,51.6L316,391.3z M185.1,380.4h118.1c-10.9-14.5-10.1-29.5-6.8-40.5
				c-7.5,3-15.6,4.5-23.9,4.5h-55.8c-8.6,0-17.1-1.7-24.9-4.9C195.2,350.6,196.1,365.7,185.1,380.4z"/>
		</g>
	</g>
	<g>
		<path fill="#3A3033" d="M351.6,411.7h-215v-31.3h215V411.7z M147.6,400.7h193.1v-9.4H147.6V400.7z"/>
	</g>
	<g>
		<path fill="#3A3033" d="M149.5,296.9c-0.7-0.2-73.6-19.1-68.3-82.9c4.4-52.6-17.6-59.8-17.8-59.9l1.4-10.7h21.9l3,0.9
			c1.2,0.8,28.3,19.6,28.3,71.9c0,16.3,8.7,24.5,25.7,24.5c3.5,0,6-0.4,6.1-0.4l6.4,5.4v45.9L149.5,296.9z M80.5,154.4
			C87.9,164,94.9,182,92.1,215c-3.7,43.8,36.7,63.1,53.2,69.1v-32.4c-6.2,0.2-16-0.6-24.3-6c-6.4-4.2-13.9-12.6-13.9-29.5
			c0-40.5-17.4-57.8-22.3-61.9H80.5z"/>
	</g>
	<g>
		<path fill="#3A3033" d="M273.9,165.4h-62.1l-5.5-5.5c0-20.1,16.4-36.5,36.5-36.5c20.1,0,36.5,16.4,36.5,36.5L273.9,165.4z
			 M217.8,154.4h50c-2.5-11.5-12.8-20.1-25-20.1C230.6,134.3,220.3,142.9,217.8,154.4z"/>
	</g>
	<g>
		<path fill="#3A3033" d="M242.8,134.3c-9.4,0-17-7.6-17-17c0-9.4,7.6-17,17-17c9.4,0,17,7.6,17,17
			C259.8,126.7,252.2,134.3,242.8,134.3z M242.8,111.3c-3.3,0-6,2.7-6,6c0,3.3,2.7,6,6,6c3.3,0,6-2.7,6-6
			C248.9,114,246.2,111.3,242.8,111.3z"/>
	</g>
	<g>
		<path fill="#3A3033" d="M357.3,322.2L357.3,322.2c-1,0-1.5,0-1.5,0l-5.1-0.3l0-5.1l0-27.5l4.7-0.7c48.8-6.7,56.5-59.7,57.7-76.9
			h-62.4V177h98v5.5c0,56.2-13.8,96.6-40.9,120C386.4,320.8,363.7,322.2,357.3,322.2z M361.6,298.6l0,12.4c7.9-0.8,23.9-3.9,39-16.9
			c23.8-20.5,36.2-56.2,37.1-106.2h-76.1v12.8h62.5l0.1,5.4C424.2,206.9,424.4,286.1,361.6,298.6z"/>
	</g>
	<g>
		<rect x="326.1" y="302.6" fill="#3A3033" width="30" height="10.9"/>
	</g>
	<g>
		<rect x="337.5" y="188.7" fill="#3A3033" width="18.6" height="10.9"/>
	</g>
	<g>
		<path fill="#3A3033" d="M205,313.5c-11.8-0.8-21.5-8-28.1-20.8c-4.1-8-6.3-17.2-6.3-26.7V237h10.9v28.9c0,7.8,1.8,15.3,5.1,21.7
			c4.8,9.3,11.3,14.3,19.1,14.9L205,313.5z"/>
	</g>
	<g>
		<rect x="170.6" y="213.1" fill="#3A3033" width="10.9" height="11.2"/>
	</g>
</g>
</svg>
