<?xml version="1.0" encoding="UTF-8"?>
<svg width="386px" height="312px" viewBox="0 0 386 312" version="1.1" xmlns="http://www.w3.org/2000/svg" xmlns:xlink="http://www.w3.org/1999/xlink">
    <!-- Generator: Sketch 51 (57462) - http://www.bohemiancoding.com/sketch -->
    <title>vintage coffee pot</title>
    <desc>Created with Sketch.</desc>
    <defs></defs>
    <g id="Page-1" stroke="none" stroke-width="1" fill="none" fill-rule="evenodd">
        <g id="vintage-coffee-pot" fill-rule="nonzero">
            <path d="M293.1,82.4 L293.1,106.1 L355.7,106.1 C355.7,106.1 356.6,185.1 293.1,193.9 L293.1,216.6 C293.1,216.6 380.2,221.8 380.2,82.3 L293.1,82.3 L293.1,82.4 Z" id="Shape" fill="#9D705C"></path>
            <path d="M227.7,59.9 C216.2,59.9 197.5,59.9 179.8,59.9 C179.8,59.9 205.9,59.9 182.5,59.9 C164.9,59.9 146.1,59.9 134.6,59.9 C107.8,59.9 104.2,82.4 104.2,82.4 L182.4,82.4 L179.7,82.4 L257.9,82.4 C258.1,82.4 254.4,59.9 227.7,59.9 Z" id="Shape" fill="#FFFFFF"></path>
            <path d="M236.7,238.9 L125.6,238.9 C104.7,238.9 87.8,222 87.8,201.1 L87.8,82.5 L274.6,82.5 L274.6,201.1 C274.5,221.9 257.6,238.9 236.7,238.9 Z" id="Shape" fill="#FFFFFF"></path>
            <rect id="Rectangle-path" fill="#FFFFFF" x="79.1" y="285.8" width="204" height="20.4"></rect>
            <path d="M1.8,48.9 L23.7,48.9 C23.7,48.9 49.6,66.2 49.6,116.3 C49.6,152.6 87.8,145.8 87.8,145.8 L87.8,191.7 C87.8,191.7 18.6,174.5 23.7,114.6 C28.6,55.7 1.8,48.9 1.8,48.9 Z" id="Shape" fill="#FFFFFF"></path>
            <path d="M148.8,59.9 C148.8,42.7 162.7,28.8 179.9,28.8 C197.1,28.8 211,42.7 211,59.9 L148.8,59.9 Z" id="Shape" fill="#FFFFFF"></path>
            <circle id="Oval" fill="#FFFFFF" cx="179.8" cy="17.3" r="11.5"></circle>
            <path d="M264.5,87.9 L97.8,87.9 L98.8,81.6 C100.3,72.2 109.7,54.5 134.6,54.5 L227.7,54.5 C252.5,54.5 262,72.2 263.5,81.6 L264.5,87.9 Z M182.5,77 L250.3,77 C247.4,71.8 241.1,65.4 227.7,65.4 L134.6,65.4 C121.2,65.4 114.9,71.8 112,77 L182.5,77 Z" id="Shape" fill="#3A3033"></path>
            <path d="M205.6,244.3 L156.7,244.3 C115.7,244.3 82.3,210.9 82.3,169.9 L82.3,76.9 L280,76.9 L280,169.9 C280,211 246.6,244.3 205.6,244.3 Z M93.2,87.9 L93.2,169.9 C93.2,204.9 121.7,233.4 156.7,233.4 L205.6,233.4 C240.6,233.4 269.1,204.9 269.1,169.9 L269.1,87.9 L93.2,87.9 Z" id="Shape" fill="#3A3033"></path>
            <g id="Group" transform="translate(105.000000, 221.000000)">
                <path d="M148,64.8 L4.3,64.8 C35.9,38.3 12,5.8 11.1,4.6 C21.4,12.9 34.5,17.8 48.7,17.8 L104.5,17.8 C117.9,17.8 130.3,13.4 140.3,6 C135.8,12.7 119.8,41.1 148,64.8 Z" id="Shape" fill="#FFFFFF"></path>
                <path d="M148,70.3 L4.3,70.3 L0.8,60.6 C27.8,37.9 9,10.9 6.7,7.8 L14.5,0.3 C24.3,8.2 36.1,12.3 48.7,12.3 L104.5,12.3 C116.3,12.3 127.6,8.6 137,1.6 L144.8,9 C140.2,15.9 127.2,40.1 151.5,60.6 L148,70.3 Z M17.1,59.4 L135.2,59.4 C124.3,44.9 125.1,29.9 128.4,18.9 C120.9,21.9 112.8,23.4 104.5,23.4 L48.7,23.4 C40.1,23.4 31.6,21.7 23.8,18.5 C27.2,29.6 28.1,44.7 17.1,59.4 Z" id="Shape" fill="#3A3033"></path>
            </g>
            <path d="M288.6,311.7 L73.6,311.7 L73.6,280.4 L288.6,280.4 L288.6,311.7 Z M84.6,300.7 L277.7,300.7 L277.7,291.3 L84.6,291.3 L84.6,300.7 Z" id="Shape" fill="#3A3033"></path>
            <path d="M86.5,196.9 C85.8,196.7 12.9,177.8 18.2,114 C22.6,61.4 0.6,54.2 0.4,54.1 L1.8,43.4 L23.7,43.4 L26.7,44.3 C27.9,45.1 55,63.9 55,116.2 C55,132.5 63.7,140.7 80.7,140.7 C84.2,140.7 86.7,140.3 86.8,140.3 L93.2,145.7 L93.2,191.6 L86.5,196.9 Z M17.5,54.4 C24.9,64 31.9,82 29.1,115 C25.4,158.8 65.8,178.1 82.3,184.1 L82.3,151.7 C76.1,151.9 66.3,151.1 58,145.7 C51.6,141.5 44.1,133.1 44.1,116.2 C44.1,75.7 26.7,58.4 21.8,54.3 L17.5,54.3 L17.5,54.4 Z" id="Shape" fill="#3A3033"></path>
            <path d="M210.9,65.4 L148.8,65.4 L143.3,59.9 C143.3,39.8 159.7,23.4 179.8,23.4 C199.9,23.4 216.3,39.8 216.3,59.9 L210.9,65.4 Z M154.8,54.4 L204.8,54.4 C202.3,42.9 192,34.3 179.8,34.3 C167.6,34.3 157.3,42.9 154.8,54.4 Z" id="Shape" fill="#3A3033"></path>
            <path d="M179.8,34.3 C170.4,34.3 162.8,26.7 162.8,17.3 C162.8,7.9 170.4,0.3 179.8,0.3 C189.2,0.3 196.8,7.9 196.8,17.3 C196.8,26.7 189.2,34.3 179.8,34.3 Z M179.8,11.3 C176.5,11.3 173.8,14 173.8,17.3 C173.8,20.6 176.5,23.3 179.8,23.3 C183.1,23.3 185.8,20.6 185.8,17.3 C185.9,14 183.2,11.3 179.8,11.3 Z" id="Shape" fill="#3A3033"></path>
            <path d="M294.3,222.2 C293.3,222.2 292.8,222.2 292.8,222.2 L287.7,221.9 L287.7,216.8 L287.7,189.3 L292.4,188.6 C341.2,181.9 348.9,128.9 350.1,111.7 L287.7,111.7 L287.7,77 L385.7,77 L385.7,82.5 C385.7,138.7 371.9,179.1 344.8,202.5 C323.4,220.8 300.7,222.2 294.3,222.2 Z M298.6,198.6 L298.6,211 C306.5,210.2 322.5,207.1 337.6,194.1 C361.4,173.6 373.8,137.9 374.7,87.9 L298.6,87.9 L298.6,100.7 L361.1,100.7 L361.2,106.1 C361.2,106.9 361.4,186.1 298.6,198.6 Z" id="Shape" fill="#3A3033"></path>
            <rect id="Rectangle-path" fill="#3A3033" x="263.1" y="202.6" width="30" height="10.9"></rect>
            <rect id="Rectangle-path" fill="#3A3033" x="274.5" y="88.7" width="18.6" height="10.9"></rect>
            <path d="M142,213.5 C130.2,212.7 120.5,205.5 113.9,192.7 C109.8,184.7 107.6,175.5 107.6,166 L107.6,137 L118.5,137 L118.5,165.9 C118.5,173.7 120.3,181.2 123.6,187.6 C128.4,196.9 134.9,201.9 142.7,202.5 L142,213.5 Z" id="Shape" fill="#3A3033"></path>
            <rect id="Rectangle-path" fill="#3A3033" x="107.6" y="113.1" width="10.9" height="11.2"></rect>
        </g>
    </g>
</svg>