<?xml version="1.0" encoding="utf-8"?>
<!-- Generator: Adobe Illustrator 18.0.0, SVG Export Plug-In . SVG Version: 6.00 Build 0)  -->
<!DOCTYPE svg PUBLIC "-//W3C//DTD SVG 1.1//EN" "http://www.w3.org/Graphics/SVG/1.1/DTD/svg11.dtd">
<svg version="1.1" id="Layer_1" xmlns="http://www.w3.org/2000/svg" xmlns:xlink="http://www.w3.org/1999/xlink" x="0px" y="0px"
	 width="512px" height="512px" viewBox="0 0 512 512" enable-background="new 0 0 512 512" xml:space="preserve">
<g>
	<g>
		<circle fill="#CDCCCC" cx="256" cy="360.8" r="23"/>
	</g>
	<g>
		<g>
			<path fill="#CDCCCC" d="M295.4,302.6c-11.9-7-25.5-10.7-39.4-10.7c-13.9,0-27.5,3.7-39.4,10.7l-14.2-24.1
				C218.6,269,237.1,264,256,264c18.9,0,37.4,5,53.6,14.6L295.4,302.6z"/>
		</g>
	</g>
	<g>
		<g>
			<path fill="#CDCCCC" d="M179.6,246l-14.7-23.8c27.3-16.9,58.8-25.8,91.1-25.8c0,0,0,0,0,0c32.3,0,63.8,8.9,91.1,25.8L332.4,246
				c-22.9-14.1-49.3-21.6-76.4-21.6c0,0,0,0,0,0C228.9,224.4,202.5,231.8,179.6,246z"/>
		</g>
	</g>
	<g>
		<g>
			<path fill="#CDCCCC" d="M209.5,280.6"/>
		</g>
	</g>
	<g>
		<g>
			<path fill="#CDCCCC" d="M302.5,290.6"/>
		</g>
	</g>
	<g>
		<g>
			<path fill="#CDCCCC" d="M142.1,189l-14.9-23.6c38.5-24.3,83.1-37.1,128.8-37.1c45.7,0,90.3,12.8,128.8,37.1L369.9,189
				c-34.1-21.5-73.4-32.8-113.9-32.8C215.6,156.1,176.2,167.5,142.1,189z"/>
		</g>
	</g>
	<g>
		<path fill="#CDCCCC" d="M172.2,224.1"/>
	</g>
	<g>
		<g>
			<path fill="#CDCCCC" d="M209.5,280.6"/>
		</g>
	</g>
	<g>
		<g>
			<path fill="#CDCCCC" d="M302.5,290.6"/>
		</g>
	</g>
	<g>
		<g>
			<path fill="#CDCCCC" d="M339.8,234.1"/>
		</g>
	</g>
	<g>
		<circle fill="#CDCCCC" cx="256" cy="360.8" r="23"/>
	</g>
</g>
<g>
	<g>
		<circle fill="#9D705C" cx="256" cy="360.8" r="23"/>
	</g>
	<g>
		<g>
			<path fill="#3A3033" d="M297.4,310.1l-4.7-2.8c-11.1-6.5-23.7-9.9-36.6-9.9c-12.9,0-25.6,3.4-36.6,9.9l-4.7,2.8l-19.8-33.5
				l4.7-2.8c17-10,36.5-15.3,56.3-15.3c19.8,0,39.3,5.3,56.4,15.3l4.7,2.8L297.4,310.1z M256,286.5c13,0,25.8,3,37.4,8.8l8.6-14.7
				c-14.2-7.3-30-11.2-46-11.2c-16.1,0-31.9,3.8-46,11.2l8.7,14.7C230.2,289.5,243,286.5,256,286.5z"/>
		</g>
	</g>
	<g>
		<g>
			<path fill="#3A3033" d="M177.8,253.5l-20.4-33.1l4.7-2.9c28.2-17.4,60.7-26.6,94-26.6c33.3,0,65.8,9.2,94,26.6l4.7,2.9
				l-20.4,33.1l-4.6-2.9c-22-13.6-47.4-20.8-73.5-20.8c-26.1,0-51.5,7.2-73.5,20.8L177.8,253.5z M172.5,224.1l8.9,14.5
				c22.6-12.9,48.3-19.7,74.6-19.7c26.3,0,52,6.8,74.6,19.7l8.9-14.5c-25.3-14.5-54.1-22.2-83.5-22.2
				C226.5,201.9,197.8,209.5,172.5,224.1z"/>
		</g>
	</g>
	<g>
		<g>
			<path fill="#3A3033" d="M140.4,196.5l-20.7-32.9l4.6-2.9c39.4-24.9,84.9-38,131.7-38c46.8,0,92.3,13.1,131.7,38l4.6,2.9
				l-20.7,32.9l-4.6-2.9c-33.2-20.9-71.5-32-110.9-32c-39.4,0-77.8,11.1-111,32L140.4,196.5z M134.8,167.1l9.1,14.4
				c33.8-20.2,72.5-30.8,112.1-30.8c39.6,0,78.3,10.6,112.1,30.8l9.1-14.4c-36.6-21.9-78.3-33.4-121.2-33.4
				C213.1,133.7,171.4,145.2,134.8,167.1z"/>
		</g>
	</g>
	<g>
		<path fill="#3A3033" d="M256,389.3c-15.7,0-28.5-12.8-28.5-28.5c0-15.7,12.8-28.5,28.5-28.5s28.5,12.8,28.5,28.5
			C284.5,376.5,271.7,389.3,256,389.3z M256,343.2c-9.7,0-17.6,7.9-17.6,17.6c0,9.7,7.9,17.6,17.6,17.6s17.6-7.9,17.6-17.6
			C273.6,351.1,265.7,343.2,256,343.2z"/>
	</g>
</g>
</svg>
