<?xml version="1.0" encoding="UTF-8"?>
<svg width="274px" height="268px" viewBox="0 0 274 268" version="1.1" xmlns="http://www.w3.org/2000/svg" xmlns:xlink="http://www.w3.org/1999/xlink">
    <!-- Generator: Sketch 51 (57462) - http://www.bohemiancoding.com/sketch -->
    <title>wifi</title>
    <desc>Created with Sketch.</desc>
    <defs></defs>
    <g id="Page-1" stroke="none" stroke-width="1" fill="none" fill-rule="evenodd">
        <g id="wifi" fill-rule="nonzero">
            <g id="Group" transform="translate(8.000000, 6.000000)" fill="#CDCCCC">
                <circle id="Oval" cx="129" cy="232.8" r="23"></circle>
                <path d="M168.4,174.6 C156.5,167.6 142.9,163.9 129,163.9 C115.1,163.9 101.5,167.6 89.6,174.6 L75.4,150.5 C91.6,141 110.1,136 129,136 C147.9,136 166.4,141 182.6,150.6 L168.4,174.6 Z" id="Shape"></path>
                <path d="M52.6,118 L37.9,94.2 C65.2,77.3 96.7,68.4 129,68.4 C129,68.4 129,68.4 129,68.4 C161.3,68.4 192.8,77.3 220.1,94.2 L205.4,118 C182.5,103.9 156.1,96.4 129,96.4 C129,96.4 129,96.4 129,96.4 C101.9,96.4 75.5,103.8 52.6,118 Z" id="Shape"></path>
                <path d="M15.1,61 L0.2,37.4 C38.7,13.1 83.3,0.3 129,0.3 C174.7,0.3 219.3,13.1 257.8,37.4 L242.9,61 C208.8,39.5 169.5,28.2 129,28.2 C88.6,28.1 49.2,39.5 15.1,61 Z" id="Shape"></path>
                <circle id="Oval" cx="129" cy="232.8" r="23"></circle>
            </g>
            <g id="Group">
                <circle id="Oval" fill="#9D705C" cx="137" cy="238.8" r="23"></circle>
                <path d="M178.4,188.1 L173.7,185.3 C162.6,178.8 150,175.4 137.1,175.4 C124.2,175.4 111.5,178.8 100.5,185.3 L95.8,188.1 L76,154.6 L80.7,151.8 C97.7,141.8 117.2,136.5 137,136.5 C156.8,136.5 176.3,141.8 193.4,151.8 L198.1,154.6 L178.4,188.1 Z M137,164.5 C150,164.5 162.8,167.5 174.4,173.3 L183,158.6 C168.8,151.3 153,147.4 137,147.4 C120.9,147.4 105.1,151.2 91,158.6 L99.7,173.3 C111.2,167.5 124,164.5 137,164.5 Z" id="Shape" fill="#3A3033"></path>
                <path d="M58.8,131.5 L38.4,98.4 L43.1,95.5 C71.3,78.1 103.8,68.9 137.1,68.9 C170.4,68.9 202.9,78.1 231.1,95.5 L235.8,98.4 L215.4,131.5 L210.8,128.6 C188.8,115 163.4,107.8 137.3,107.8 C111.2,107.8 85.8,115 63.8,128.6 L58.8,131.5 Z M53.5,102.1 L62.4,116.6 C85,103.7 110.7,96.9 137,96.9 C163.3,96.9 189,103.7 211.6,116.6 L220.5,102.1 C195.2,87.6 166.4,79.9 137,79.9 C107.5,79.9 78.8,87.5 53.5,102.1 Z" id="Shape" fill="#3A3033"></path>
                <path d="M21.4,74.5 L0.7,41.6 L5.3,38.7 C44.7,13.8 90.2,0.7 137,0.7 C183.8,0.7 229.3,13.8 268.7,38.7 L273.3,41.6 L252.6,74.5 L248,71.6 C214.8,50.7 176.5,39.6 137.1,39.6 C97.7,39.6 59.3,50.7 26.1,71.6 L21.4,74.5 Z M15.8,45.1 L24.9,59.5 C58.7,39.3 97.4,28.7 137,28.7 C176.6,28.7 215.3,39.3 249.1,59.5 L258.2,45.1 C221.6,23.2 179.9,11.7 137,11.7 C94.1,11.7 52.4,23.2 15.8,45.1 Z" id="Shape" fill="#3A3033"></path>
                <path d="M137,267.3 C121.3,267.3 108.5,254.5 108.5,238.8 C108.5,223.1 121.3,210.3 137,210.3 C152.7,210.3 165.5,223.1 165.5,238.8 C165.5,254.5 152.7,267.3 137,267.3 Z M137,221.2 C127.3,221.2 119.4,229.1 119.4,238.8 C119.4,248.5 127.3,256.4 137,256.4 C146.7,256.4 154.6,248.5 154.6,238.8 C154.6,229.1 146.7,221.2 137,221.2 Z" id="Shape" fill="#3A3033"></path>
            </g>
        </g>
    </g>
</svg>