<?xml version="1.0" encoding="UTF-8"?>
<svg width="11px" height="20px" viewBox="0 0 11 20" version="1.1" xmlns="http://www.w3.org/2000/svg" xmlns:xlink="http://www.w3.org/1999/xlink">
    <!-- Generator: Sketch 49.3 (51167) - http://www.bohemiancoding.com/sketch -->
    <title>Oval</title>
    <desc>Created with Sketch.</desc>
    <defs></defs>
    <g id="Symbols" stroke="none" stroke-width="1" fill="none" fill-rule="evenodd">
        <g id="icon-/-brew-method-/-siphon" transform="translate(-5.000000, 0.000000)" stroke="#666666" stroke-width="2">
            <path d="M10.5,19 C8.56700338,19 7,17.4329966 7,15.5 C7,13.5670034 8.56700338,12 10.5,12 C12.4329966,12 14,13.5670034 14,15.5 C14,17.4329966 12.4329966,19 10.5,19 Z M10.8639512,11.9064112 C8.67344338,11.7906121 7,8.77176718 7,6.5 C7,5.99087705 6.77711684,1 7,1 C7.25842948,1 9.19069414,1 10.5,1 C12.4329966,1 13.7669581,1 14,1 C14.1198849,1 14,4.03207044 14,6.8749648 C14,9.65087072 11.9275846,11.9626392 10.8639512,11.9064112 Z" id="Oval"></path>
        </g>
    </g>
</svg>