<?xml version="1.0" encoding="UTF-8"?>
<svg width="18px" height="18px" viewBox="0 0 18 18" version="1.1" xmlns="http://www.w3.org/2000/svg" xmlns:xlink="http://www.w3.org/1999/xlink">
    <!-- Generator: Sketch 49.3 (51167) - http://www.bohemiancoding.com/sketch -->
    <title>Shape</title>
    <desc>Created with Sketch.</desc>
    <defs></defs>
    <g id="Symbols" stroke="none" stroke-width="1" fill="none" fill-rule="evenodd">
        <g id="icon-/-brew-method-/-clover" transform="translate(-1.000000, -1.000000)" fill="#FFFFFF" fill-rule="nonzero">
            <path d="M17.9375864,5.27698138 C17.5077577,4.95696506 17.0127566,4.79473457 16.4664486,4.79473457 C15.9354553,4.79473457 15.3645083,4.94493546 14.7464575,5.24920219 C15.3681317,3.98715716 15.3614647,2.92029116 14.7222533,2.06164834 C14.1977338,1.35721628 13.5478456,1 12.7905123,1 C11.8290623,1 10.9430268,1.58964359 10.356765,1.97980842 C10.2357927,2.06034393 10.0928385,2.15551786 9.99930719,2.20890223 C9.90577585,2.15546955 9.7628217,2.06034393 9.64180103,1.97980842 C9.05549094,1.58964359 8.16945542,1 7.20810205,1 C6.45081706,1 5.80088053,1.35721628 5.27640935,2.06169665 C4.63719801,2.92033947 4.63048269,3.98710884 5.2521569,5.24920219 C4.63410606,4.94493546 4.0632557,4.79478288 3.53221412,4.79478288 C2.98585776,4.79478288 2.49090499,4.95701337 2.06102799,5.27702969 C1.20364128,5.91537142 0.855604206,6.76406204 1.05445493,7.73150268 C1.2095353,8.4859856 1.65434059,9.15437717 1.97918807,9.64246969 C2.05967527,9.76349036 2.15489751,9.9064445 2.20828188,9.99997584 C2.1548492,10.0935072 2.05972358,10.2365096 1.97918807,10.3574337 C1.6543889,10.8455262 1.2095353,11.5139178 1.05445493,12.268449 C0.855604206,13.2358413 1.20368959,14.0845803 2.06102799,14.722922 C2.49076005,15.0428417 2.98571283,15.2050722 3.5321175,15.2051688 C4.06335232,15.2051205 4.63420268,15.0549679 5.25210859,14.7507495 C4.63048269,16.0127945 4.6371497,17.0796605 5.27636103,17.938255 C5.80083222,18.6427354 6.45076875,19 7.20805374,19 C8.10322016,19 8.5382641,18.4889594 9.12157887,18.1035292 L10.812789,18.1034325 C11.3961521,18.4888145 11.8953459,18.9999034 12.790464,18.9999034 C13.5477973,18.9999034 14.1976855,18.6426388 14.7221567,17.9381584 C15.3613681,17.0795639 15.3680834,16.0127462 14.7463608,14.7506529 C15.3644117,15.0549679 15.9353104,15.2051205 16.4663519,15.2051205 C17.0127083,15.2051205 17.5076611,15.04289 17.9374898,14.7228737 C18.7948765,14.0845803 19.1429135,13.2358413 18.9440628,12.268449 C18.7889825,11.5139661 18.3441772,10.8455262 18.0193297,10.3574337 C17.9387942,10.236413 17.8436685,10.0934589 17.7902359,9.99992753 C17.8436202,9.9064445 17.9387942,9.76344204 18.0193297,9.64246969 C18.3442255,9.15442548 18.9441594,8.67902499 18.9441594,7.73145437 C18.9441594,6.78388375 18.7949248,5.91532311 17.9375864,5.27698138 Z M16.5278249,11.0318665 C17.2246582,12.0789961 17.7155275,13.0097244 16.659481,13.7959458 C16.4214334,13.973192 16.1568099,14.0593018 15.8504864,14.0593018 C15.0214287,14.0593018 13.9348286,13.4427647 12.6208025,12.2269125 C12.2132892,11.7882336 11.8282431,11.417306 11.5463976,11.1458199 C11.442148,11.0454168 11.352148,10.9587388 11.2847901,10.8913809 L10.6666357,11.5095789 C10.7340811,11.5770243 10.8208902,11.6671117 10.9214244,11.7714925 C11.1928668,12.0532505 11.5636633,12.4382092 12.0022111,12.845504 C12.7459895,13.6493844 13.2707782,14.3779516 13.5620652,15.0110986 C13.9228082,15.7953093 13.9258242,16.4080436 13.5712881,16.8842698 C13.2664945,17.2936627 12.9241536,17.4927205 12.5247705,17.4927205 C11.9192485,17.4927205 11.2764851,17.0649692 10.8072088,16.7526137 C10.452017,16.5162272 10.2376168,16.373556 9.99943813,16.373556 C9.76121572,16.373556 9.54685926,16.5162709 9.19166747,16.7526137 C8.72239118,17.0649692 8.0796715,17.4927205 7.47406206,17.4927205 C7.07467891,17.4927205 6.73233801,17.2936627 6.42754446,16.8842698 C6.07300832,16.4079999 6.07602435,15.795353 6.43672367,15.0111424 C6.72796696,14.378039 7.2526682,13.6495155 7.99644664,12.8456788 C8.43508184,12.4382966 8.80583459,12.0533817 9.077277,11.7716236 C9.17785494,11.6671991 9.26470777,11.5770243 9.33215312,11.5095789 L8.71399876,10.8913809 C8.64664083,10.9587388 8.55659713,11.0454168 8.45239122,11.1458199 C8.17045827,11.4173497 7.78536847,11.788321 7.37785517,12.2270436 C6.0637854,13.4428521 4.97736009,14.0593018 4.14860838,14.0593018 C4.14856467,14.0593018 4.14838982,14.0593018 4.14834611,14.0593018 C3.84189156,14.0592581 3.57726799,13.9731046 3.33926414,13.7959458 C2.28317394,13.0097244 2.77408694,12.0789523 3.47092026,11.0318228 C3.70730683,10.676631 3.84997801,10.4622746 3.84997801,10.2240521 C3.84997801,9.98587345 3.70730683,9.77147328 3.47092026,9.41628148 C2.77395581,8.36915194 2.28304281,7.43842355 3.33913301,6.65215848 C3.57718057,6.47491226 3.84180414,6.38880251 4.14812756,6.38880251 C4.97718525,6.38880251 6.0637854,7.00529588 7.37776775,8.22114808 C7.78514992,8.65978328 8.1701523,9.03062345 8.45199782,9.30210957 C8.55633486,9.40260009 8.64642227,9.4893655 8.71382392,9.55681085 L9.33202199,8.93861277 C9.26462035,8.87121113 9.17785494,8.78112372 9.07736442,8.67683039 C8.80592201,8.39502858 8.43503813,8.00998249 7.99640293,7.60260032 C7.25262449,6.79871989 6.72787954,6.07015272 6.43659254,5.43704935 C6.07584951,4.65288238 6.07283348,4.04014813 6.42741333,3.56387815 C6.73220688,3.1544853 7.07450407,2.95547124 7.47393092,2.95547124 C8.07945294,2.95547124 8.72221634,3.38322252 9.19153634,3.69557799 C9.54672813,3.93196455 9.7611283,4.07463574 9.999307,4.07463574 C10.2375294,4.07463574 10.4519296,3.93196455 10.8070777,3.69557799 C11.2763977,3.38322252 11.9191173,2.95547124 12.5246831,2.95547124 C12.9241099,2.95547124 13.2664071,3.1544853 13.5712007,3.56387815 C13.9257368,4.04014813 13.9227208,4.65283867 13.5620215,5.43704935 C13.2707782,6.07015272 12.7460332,6.79867618 12.0022548,7.60255661 C11.5635321,8.00998249 11.1927794,8.39494116 10.921337,8.67674297 C10.8208465,8.78108001 10.7340374,8.87116742 10.666592,8.93861277 L11.2847464,9.55681085 C11.352148,9.48940921 11.4422354,9.40260009 11.5465725,9.30210957 C11.828418,9.03062345 12.2134204,8.65978328 12.6208025,8.22114808 C13.9348723,7.00533959 15.0214725,6.38880251 15.8504427,6.38880251 C16.1567661,6.38880251 16.4213897,6.47495597 16.6594373,6.65215848 C17.7155275,7.43842355 17.2246582,8.36915194 16.5277812,9.41628148 C16.2914383,9.77147328 16.1487671,9.98582974 16.1487671,10.2240084 C16.1487671,10.4622308 16.291482,10.6766747 16.5278249,11.0318665 Z" id="Shape"></path>
        </g>
    </g>
</svg>