<?xml version="1.0" encoding="UTF-8"?>
<svg width="16px" height="16px" viewBox="0 0 16 16" version="1.1" xmlns="http://www.w3.org/2000/svg" xmlns:xlink="http://www.w3.org/1999/xlink">
    <!-- Generator: Sketch 49.3 (51167) - http://www.bohemiancoding.com/sketch -->
    <title>Cafe Logo</title>
    <desc>Created with Sketch.</desc>
    <defs></defs>
    <g id="01.01-Map-LocationDetail" stroke="none" stroke-width="1" fill="none" fill-rule="evenodd">
        <g id="01.01.01-Map-LocationDetail-Cafe" transform="translate(-975.000000, -375.000000)" fill="#FFFFFF" fill-rule="nonzero">
            <g id="Detail-Location" transform="translate(929.000000, 125.000000)">
                <g id="Location-Type" transform="translate(20.000000, 210.000000)">
                    <g id="Component-/-Brew-Method" transform="translate(0.000000, 25.000000)">
                        <g id="Content" transform="translate(26.000000, 13.000000)">
                            <g id="Cafe-Logo" transform="translate(0.000000, 2.000000)">
                                <path d="M13.7780695,7.89509696 L12.683998,7.89509696 L12.741797,6.53052535 C12.7483403,6.37587642 12.698259,6.22490735 12.6032974,6.11290718 C12.5083358,6.00090701 12.3766312,5.9375 12.2390543,5.9375 L1.16638321,5.9375 C1.02872248,5.9375 0.897101703,6.00090701 0.802140124,6.11290718 C0.707178544,6.22500171 0.657097217,6.37587642 0.663640506,6.53052535 L0.887118992,11.8034973 C0.942317508,13.106549 1.65192881,14.2029618 2.64894151,14.7010654 L0.503329925,14.7010654 C0.225407918,14.7010654 0,14.954599 0,15.2671993 C0,15.5797997 0.225407918,15.8333333 0.503329925,15.8333333 L12.9730771,15.8333333 C13.2509992,15.8333333 13.4764071,15.5797997 13.4764071,15.2671993 C13.4764071,14.954599 13.2509992,14.7010654 12.9730771,14.7010654 L10.7565799,14.7010654 C11.56476,14.2972231 12.1835203,13.5002008 12.4184076,12.5185245 L13.7780695,12.5185245 C14.9113168,12.5185245 15.8333333,11.4814614 15.8333333,10.2068107 C15.8333333,8.93216007 14.9113168,7.89509696 13.7780695,7.89509696 Z M9.54825256,13.8565822 L3.85726888,13.8565822 C2.80564489,13.8565822 1.94268573,12.9310475 1.89260441,11.7495258 L1.69429242,7.06957926 L11.7111451,7.06957926 L11.512917,11.7495258 C11.4628357,12.9310475 10.5998766,13.8565822 9.54825256,13.8565822 Z M13.7780695,11.3862565 L12.5361029,11.3862565 L12.6360978,9.02613831 C12.6435638,9.02651573 12.650946,9.02736493 12.6584959,9.02736493 L13.7780695,9.02736493 C14.3563117,9.02736493 14.8266735,9.55641714 14.8266735,10.2068107 C14.8266735,10.8572043 14.3563117,11.3862565 13.7780695,11.3862565 Z" id="Shape"></path>
                                <path d="M6.0855135,5.86133807 C6.14783246,5.91290225 6.21620116,5.9375 6.2837242,5.9375 C6.41720906,5.9375 6.5472462,5.84147766 6.62010344,5.66892897 C6.72984464,5.40901271 6.6683063,5.07384554 6.48271551,4.92024624 C6.26570505,4.74059154 6.11569721,4.40915958 6.07120226,4.01104039 C6.02488588,3.59652269 6.10223164,3.18364484 6.27793466,2.90678346 C6.27949588,2.90432368 6.28105711,2.90186391 6.28255328,2.89931303 C6.32503165,2.8298927 6.36751002,2.76165671 6.40959808,2.69396734 C6.77063168,2.11327815 7.14402499,1.51300186 7.2512292,0.639326101 C7.28778791,0.341784387 7.14513085,0.0590924271 6.93273902,0.00798376153 C6.72028213,-0.0431249041 6.51842857,0.15648131 6.4819349,0.454023025 C6.41174477,1.02578414 6.13794469,1.46608393 5.82095069,1.97589514 C5.77821211,2.04458665 5.73514829,2.11391587 5.69208446,2.18424723 C5.36481238,2.7024399 5.21825225,3.44802514 5.30002149,4.17985386 C5.38055475,4.90193458 5.66690968,5.51478305 6.0855135,5.86133807 Z" id="Shape"></path>
                                <path d="M7.36730916,4.6270604 C7.49700456,5.09178178 7.72837436,5.51741956 8.01886326,5.82553321 C8.08996332,5.90096731 8.17363355,5.9375 8.25671455,5.9375 C8.37508371,5.9375 8.49214347,5.86334136 8.56939767,5.7222213 C8.70092623,5.48216232 8.66766764,5.13915585 8.4950896,4.95612796 C8.32067842,4.77109578 8.17651421,4.50698536 8.09965283,4.23139583 C7.94651928,3.68267657 8.09160006,3.1358705 8.58484851,2.40293901 C8.93452199,1.88328193 9.15803543,1.27124541 9.23116505,0.632788741 C9.26527474,0.334696528 9.11934286,0.0544606957 8.90506065,0.00690441976 C8.6908439,-0.0406518562 8.48945921,0.162510012 8.45528405,0.460693328 C8.40624727,0.888790916 8.25691096,1.29083277 8.01139972,1.65570419 C7.75377659,2.038432 6.96997376,3.20319634 7.36730916,4.6270604 Z" id="Shape"></path>
                            </g>
                        </g>
                    </g>
                </g>
            </g>
        </g>
    </g>
</svg>