<?xml version="1.0" encoding="UTF-8"?>
<svg width="20px" height="31px" viewBox="0 0 20 31" version="1.1" xmlns="http://www.w3.org/2000/svg" xmlns:xlink="http://www.w3.org/1999/xlink">
    <!-- Generator: Sketch 49.3 (51167) - http://www.bohemiancoding.com/sketch -->
    <title>Cafe Map Icon</title>
    <desc>Created with Sketch.</desc>
    <defs>
        <filter x="-27.9%" y="-111.6%" width="155.8%" height="323.2%" filterUnits="objectBoundingBox" id="filter-1">
            <feGaussianBlur stdDeviation="1.11607143" in="SourceGraphic"></feGaussianBlur>
        </filter>
    </defs>
    <g id="Symbols" stroke="none" stroke-width="1" fill="none" fill-rule="evenodd">
        <g id="Component-/-Map-/-Cafe-Placemarker">
            <g id="Cafe-Map-Icon">
                <ellipse id="Shadow" fill-opacity="0.437301857" fill="#342C0C" filter="url(#filter-1)" cx="10" cy="27.5" rx="6" ry="1.5"></ellipse>
                <path d="M10,27.5530149 C10.0483866,27.5530149 20,15.5228475 20,10 C20,4.4771525 15.5228475,0 10,0 C4.4771525,0 0,4.4771525 0,10 C0,15.5228475 9.95161342,27.5530149 10,27.5530149 Z" id="Oval-Copy" fill="#543729"></path>
                <g id="Cafe-Logo" transform="translate(4.000000, 4.000000)" fill="#FFFFFF" fill-rule="nonzero">
                    <path d="M10.4423263,5.98365243 L9.61313532,5.98365243 L9.65694092,4.94945079 C9.66190004,4.83224318 9.62394367,4.71782452 9.55197279,4.63294018 C9.48000191,4.54805584 9.38018364,4.5 9.27591487,4.5 L0.883995698,4.5 C0.779663352,4.5 0.679908659,4.54805584 0.607937778,4.63294018 C0.535966897,4.71789603 0.498010522,4.83224318 0.502969647,4.94945079 L0.672342815,8.94580846 C0.714177479,9.9333845 1.25198815,10.76435 2.00761883,11.1418601 L0.381471101,11.1418601 C0.170835475,11.1418601 0,11.3340119 0,11.57093 C0,11.8078482 0.170835475,12 0.381471101,12 L9.83222689,12 C10.0428625,12 10.213698,11.8078482 10.213698,11.57093 C10.213698,11.3340119 10.0428625,11.1418601 9.83222689,11.1418601 L8.15235532,11.1418601 C8.76487075,10.8357902 9.23382589,10.2317312 9.41184574,9.48772383 L10.4423263,9.48772383 C11.3012085,9.48772383 12,8.70173916 12,7.73568813 C12,6.7696371 11.3012085,5.98365243 10.4423263,5.98365243 Z M7.23657036,10.5018307 L2.92340378,10.5018307 C2.1263835,10.5018307 1.47235129,9.80037281 1.43439492,8.90490379 L1.2840953,5.35799691 L8.87581526,5.35799691 L8.72557923,8.90490379 C8.68762285,9.80037281 8.03359065,10.5018307 7.23657036,10.5018307 Z M10.4423263,8.6295839 L9.5010464,8.6295839 L9.57683199,6.84086272 C9.58249048,6.84114876 9.58808539,6.84179237 9.59380745,6.84179237 L10.4423263,6.84179237 C10.8805731,6.84179237 11.2370578,7.24275825 11.2370578,7.73568813 C11.2370578,8.22861801 10.8805731,8.6295839 10.4423263,8.6295839 Z" id="Shape"></path>
                    <path d="M4.61217866,4.44227727 C4.65940986,4.48135749 4.71122614,4.5 4.7624015,4.5 C4.86356897,4.5 4.96212344,4.42722517 5.01734155,4.29645143 C5.10051383,4.09946227 5.05387425,3.84544083 4.91321597,3.72902873 C4.74874488,3.59286937 4.63505473,3.34167884 4.60133224,3.0399464 C4.5662293,2.72578562 4.62484924,2.41286767 4.75801363,2.20303589 C4.75919688,2.20117163 4.76038012,2.19930738 4.76151407,2.19737409 C4.7937082,2.14476079 4.82590233,2.09304509 4.85780065,2.04174367 C5.13142611,1.60164239 5.41441894,1.14669615 5.49566844,0.484541887 C5.5233761,0.259036588 5.41525707,0.0447858395 5.25428641,0.00605085085 C5.09326645,-0.0326841378 4.9402827,0.118596362 4.91262435,0.344101661 C4.85942761,0.777436401 4.65191598,1.11113729 4.41166789,1.49752053 C4.37927655,1.54958146 4.3466387,1.60212571 4.31400085,1.65542948 C4.06596307,2.04816498 3.95488592,2.61324011 4.01685839,3.16788924 C4.07789412,3.71515042 4.29492102,4.17962505 4.61217866,4.44227727 Z" id="Shape"></path>
                    <path d="M5.58364483,3.50682472 C5.6819403,3.85903461 5.85729425,4.18162325 6.07745426,4.41514096 C6.13134062,4.47231206 6.19475385,4.5 6.2577205,4.5 C6.34743186,4.5 6.43615084,4.44379556 6.49470139,4.33684141 C6.5943862,4.15490197 6.56917969,3.89493917 6.4383837,3.7562233 C6.30619838,3.61598838 6.19693709,3.41582048 6.13868425,3.20695263 C6.02262514,2.79108119 6.1325811,2.37665975 6.50641151,1.82117483 C6.7714272,1.42732946 6.94082685,0.963470206 6.9962514,0.479587256 C7.02210296,0.253664737 6.91150196,0.0412754746 6.74909859,0.00523282339 C6.58674485,-0.0308098278 6.43411646,0.123165483 6.40821528,0.349157049 C6.37105056,0.673609957 6.25786936,0.978315359 6.07179768,1.25484949 C5.87654647,1.54491688 5.28250643,2.42768565 5.58364483,3.50682472 Z" id="Shape"></path>
                </g>
            </g>
        </g>
    </g>
</svg>