<?xml version="1.0" encoding="UTF-8"?>
<svg width="237px" height="50px" viewBox="0 0 237 50" version="1.1" xmlns="http://www.w3.org/2000/svg" xmlns:xlink="http://www.w3.org/1999/xlink">
    <!-- Generator: Sketch 49.3 (51167) - http://www.bohemiancoding.com/sketch -->
    <title>Facebook-SignIn</title>
    <desc>Created with Sketch.</desc>
    <defs>
        <rect id="path-1" x="0" y="0" width="235" height="47" rx="2"></rect>
        <filter x="-1.3%" y="-4.3%" width="102.6%" height="112.8%" filterUnits="objectBoundingBox" id="filter-2">
            <feOffset dx="0" dy="1" in="SourceAlpha" result="shadowOffsetOuter1"></feOffset>
            <feGaussianBlur stdDeviation="0.5" in="shadowOffsetOuter1" result="shadowBlurOuter1"></feGaussianBlur>
            <feColorMatrix values="0 0 0 0 0   0 0 0 0 0   0 0 0 0 0  0 0 0 0.24 0" type="matrix" in="shadowBlurOuter1" result="shadowMatrixOuter1"></feColorMatrix>
            <feOffset dx="0" dy="0" in="SourceAlpha" result="shadowOffsetOuter2"></feOffset>
            <feGaussianBlur stdDeviation="0.5" in="shadowOffsetOuter2" result="shadowBlurOuter2"></feGaussianBlur>
            <feColorMatrix values="0 0 0 0 0   0 0 0 0 0   0 0 0 0 0  0 0 0 0.12 0" type="matrix" in="shadowBlurOuter2" result="shadowMatrixOuter2"></feColorMatrix>
            <feMerge>
                <feMergeNode in="shadowMatrixOuter1"></feMergeNode>
                <feMergeNode in="shadowMatrixOuter2"></feMergeNode>
            </feMerge>
        </filter>
        <polygon id="path-3" points="7.92134831e-06 0.00831741573 21.1415242 0.00831741573 21.1415242 21.15 7.92134831e-06 21.15"></polygon>
    </defs>
    <g id="00.00-Home" stroke="none" stroke-width="1" fill="none" fill-rule="evenodd">
        <g id="00.01-Home-Login" transform="translate(-602.000000, -384.000000)">
            <g id="Login">
                <g id="Social-Logins" transform="translate(603.000000, 268.000000)">
                    <g id="Facebook-SignIn" transform="translate(0.000000, 117.000000)">
                        <g id="button">
                            <g id="button-bg">
                                <use fill="black" fill-opacity="1" filter="url(#filter-2)" xlink:href="#path-1"></use>
                                <use fill="#3C5A99" fill-rule="evenodd" xlink:href="#path-1"></use>
                            </g>
                        </g>
                        <path d="M66.0512939,26.362915 C66.0512939,26.1273019 66.016488,25.9171274 65.946875,25.7323853 C65.877262,25.5476431 65.7500864,25.3776294 65.5653442,25.2223389 C65.3806021,25.0670484 65.1262508,24.9184537 64.8022827,24.7765503 C64.4783146,24.6346469 64.0619817,24.4860522 63.5532715,24.3307617 C62.9963677,24.1647615 62.4823103,23.9746674 62.011084,23.7604736 C61.5398577,23.5462799 61.1342343,23.2972833 60.7942017,23.0134766 C60.454169,22.7296698 60.1877695,22.4030292 59.9949951,22.0335449 C59.8022207,21.6640607 59.705835,21.2410343 59.705835,20.7644531 C59.705835,20.2932268 59.8062368,19.8594909 60.0070435,19.4632324 C60.2078501,19.0669739 60.4903139,18.724269 60.8544434,18.4351074 C61.2185728,18.1459458 61.6549861,17.9210457 62.1636963,17.7604004 C62.6724065,17.5997551 63.2346568,17.5194336 63.8504639,17.5194336 C64.5091097,17.5194336 65.1008112,17.6144807 65.6255859,17.8045776 C66.1503607,17.9946746 66.5934674,18.253042 66.9549194,18.5796875 C67.3163714,18.906333 67.5934805,19.2851826 67.7862549,19.7162476 C67.9790293,20.1473125 68.075415,20.6064836 68.075415,21.0937744 L66.0512939,21.0937744 C66.0512939,20.8099677 66.0071171,20.5489229 65.9187622,20.3106323 C65.8304073,20.0723417 65.6951995,19.8661833 65.5131348,19.6921509 C65.3310701,19.5181184 65.1008152,19.3829106 64.8223633,19.2865234 C64.5439114,19.1901362 64.2145934,19.1419434 63.8343994,19.1419434 C63.4756248,19.1419434 63.1650485,19.1821041 62.9026611,19.2624268 C62.6402738,19.3427494 62.4220671,19.4551995 62.2480347,19.5997803 C62.0740022,19.7443611 61.9454879,19.9157135 61.8624878,20.1138428 C61.7794877,20.311972 61.7379883,20.5261626 61.7379883,20.7564209 C61.7379883,21.1901633 61.942808,21.5516099 62.3524536,21.8407715 C62.7620992,22.1299331 63.3872679,22.3976713 64.2279785,22.6439941 C64.8866244,22.8367685 65.4569068,23.0509591 65.9388428,23.2865723 C66.4207788,23.5221854 66.8210474,23.7885849 67.1396606,24.0857788 C67.4582739,24.3829727 67.6952222,24.7176454 67.8505127,25.0898071 C68.0058032,25.4619688 68.0834473,25.8809791 68.0834473,26.3468506 C68.0834473,26.8394963 67.9857228,27.282603 67.790271,27.6761841 C67.5948192,28.0697652 67.3163714,28.4044379 66.9549194,28.6802124 C66.5934674,28.9559869 66.1557155,29.1675001 65.6416504,29.3147583 C65.1275853,29.4620165 64.5546256,29.5356445 63.9227539,29.5356445 C63.3604952,29.5356445 62.8062771,29.4593391 62.260083,29.3067261 C61.7138889,29.154113 61.2239279,28.9238581 60.7901855,28.6159546 C60.3564431,28.308051 60.0070448,27.9238467 59.74198,27.4633301 C59.4769152,27.0028135 59.3443848,26.4619823 59.3443848,25.8408203 L61.3765381,25.8408203 C61.3765381,26.2103046 61.4421339,26.5275744 61.5733276,26.7926392 C61.7045213,27.057704 61.8839059,27.2745719 62.1114868,27.4432495 C62.3390677,27.6119271 62.6081446,27.7350867 62.9187256,27.8127319 C63.2293066,27.8903772 63.5639793,27.9291992 63.9227539,27.9291992 C64.6295934,27.9291992 65.1610537,27.7859593 65.5171509,27.4994751 C65.873248,27.2129909 66.0512939,26.8341414 66.0512939,26.362915 Z M72.0112061,29.375 L70.059375,29.375 L70.059375,20.6841309 L72.0112061,20.6841309 L72.0112061,29.375 Z M69.9388916,18.4270752 C69.9388916,18.1272039 70.0339387,17.8782074 70.2240356,17.6800781 C70.4141326,17.4819489 70.6858869,17.3828857 71.0393066,17.3828857 C71.3927264,17.3828857 71.6658193,17.4819489 71.8585937,17.6800781 C72.0513682,17.8782074 72.1477539,18.1272039 72.1477539,18.4270752 C72.1477539,18.7215916 72.0513682,18.9665721 71.8585937,19.1620239 C71.6658193,19.3574757 71.3927264,19.4552002 71.0393066,19.4552002 C70.6858869,19.4552002 70.4141326,19.3574757 70.2240356,19.1620239 C70.0339387,18.9665721 69.9388916,18.7215916 69.9388916,18.4270752 Z M74.0513916,24.9653076 C74.0513916,24.3066617 74.1317131,23.7042508 74.2923584,23.1580566 C74.4530037,22.6118625 74.6845973,22.1433206 74.987146,21.752417 C75.2896947,21.3615133 75.6551574,21.0589692 76.0835449,20.8447754 C76.5119325,20.6305816 76.9938613,20.5234863 77.5293457,20.5234863 C78.0541205,20.5234863 78.506598,20.6131786 78.886792,20.7925659 C79.266986,20.9719532 79.5936266,21.2276432 79.8667236,21.5596436 L79.9550781,20.6841309 L81.7141357,20.6841309 L81.7141357,29.1340332 C81.7141357,29.7177113 81.61775,30.2371234 81.4249756,30.6922852 C81.2322012,31.1474469 80.9631243,31.5303126 80.6177368,31.8408936 C80.2723493,32.1514745 79.8573551,32.3884228 79.3727417,32.5517456 C78.8881283,32.7150684 78.3566679,32.7967285 77.7783447,32.7967285 C77.5373767,32.7967285 77.2696385,32.7712934 76.9751221,32.7204224 C76.6806056,32.6695513 76.3834162,32.5865525 76.0835449,32.4714233 C75.7836736,32.3562942 75.4971937,32.2076995 75.2240967,32.0256348 C74.9509996,31.8435701 74.7180674,31.6213473 74.525293,31.35896 L75.448999,30.1862549 C75.7702897,30.5664488 76.1196881,30.8395418 76.4972046,31.005542 C76.8747211,31.1715422 77.2642802,31.254541 77.6658936,31.254541 C78.3138297,31.254541 78.8252097,31.0791725 79.2000488,30.7284302 C79.5748879,30.3776879 79.7623047,29.8622918 79.7623047,29.1822266 L79.7623047,28.595874 C79.4892076,28.9011002 79.1679218,29.1340324 78.7984375,29.2946777 C78.4289532,29.4553231 78.0005721,29.5356445 77.5132812,29.5356445 C76.9831516,29.5356445 76.5052389,29.4245332 76.0795288,29.2023071 C75.6538187,28.9800811 75.2896947,28.6735208 74.987146,28.2826172 C74.6845973,27.8917135 74.4530037,27.4271877 74.2923584,26.8890259 C74.1317131,26.350864 74.0513916,25.765856 74.0513916,25.1339844 L74.0513916,24.9653076 Z M75.9951904,25.1339844 C75.9951904,25.5195332 76.0340125,25.8823184 76.1116577,26.2223511 C76.189303,26.5623837 76.3111238,26.8609118 76.477124,27.1179443 C76.6431242,27.3749769 76.85196,27.5771192 77.1036377,27.7243774 C77.3553154,27.8716357 77.6578596,27.9452637 78.0112793,27.9452637 C78.4503765,27.9452637 78.8091457,27.852894 79.0875977,27.6681519 C79.3660496,27.4834097 79.5909497,27.2384293 79.7623047,26.9332031 L79.7623047,23.1098633 C79.5909497,22.8046371 79.3647109,22.5636728 79.0835815,22.3869629 C78.8024522,22.210253 78.4503765,22.1218994 78.0273438,22.1218994 C77.673924,22.1218994 77.3687025,22.1968661 77.1116699,22.3468018 C76.8546374,22.4967374 76.6444629,22.7002184 76.4811401,22.957251 C76.3178174,23.2142835 76.1959965,23.515489 76.1156738,23.8608765 C76.0353512,24.2062639 75.9951904,24.574404 75.9951904,24.9653076 L75.9951904,25.1339844 Z M85.7864746,20.6841309 L85.8427002,21.6881592 C86.1479263,21.3186749 86.5147277,21.032195 86.9431152,20.8287109 C87.3715028,20.6252268 87.8480768,20.5234863 88.3728516,20.5234863 C88.7905294,20.5234863 89.169379,20.58105 89.5094116,20.6961792 C89.8494442,20.8113084 90.1399402,20.9973864 90.3809082,21.2544189 C90.6218762,21.5114515 90.8079543,21.8461242 90.9391479,22.2584473 C91.0703416,22.6707703 91.1359375,23.1714407 91.1359375,23.7604736 L91.1359375,29.375 L89.1841064,29.375 L89.1841064,23.7444092 C89.1841064,23.4445379 89.1506392,23.1915253 89.0837036,22.9853638 C89.0167681,22.7792023 88.9190436,22.6118659 88.7905273,22.4833496 C88.6620111,22.3548333 88.5027068,22.2624637 88.3126099,22.2062378 C88.1225129,22.1500119 87.9043062,22.1218994 87.6579834,22.1218994 C87.2563701,22.1218994 86.9069717,22.2182852 86.6097778,22.4110596 C86.312584,22.603834 86.0756356,22.86354 85.8989258,23.1901855 L85.8989258,29.375 L83.9470947,29.375 L83.9470947,20.6841309 L85.7864746,20.6841309 Z M99.8107422,29.375 L97.8589111,29.375 L97.8589111,20.6841309 L99.8107422,20.6841309 L99.8107422,29.375 Z M97.7384277,18.4270752 C97.7384277,18.1272039 97.8334748,17.8782074 98.0235718,17.6800781 C98.2136688,17.4819489 98.485423,17.3828857 98.8388428,17.3828857 C99.1922625,17.3828857 99.4653555,17.4819489 99.6581299,17.6800781 C99.8509043,17.8782074 99.94729,18.1272039 99.94729,18.4270752 C99.94729,18.7215916 99.8509043,18.9665721 99.6581299,19.1620239 C99.4653555,19.3574757 99.1922625,19.4552002 98.8388428,19.4552002 C98.485423,19.4552002 98.2136688,19.3574757 98.0235718,19.1620239 C97.8334748,18.9665721 97.7384277,18.7215916 97.7384277,18.4270752 Z M104.003564,20.6841309 L104.05979,21.6881592 C104.365016,21.3186749 104.731818,21.032195 105.160205,20.8287109 C105.588593,20.6252268 106.065167,20.5234863 106.589941,20.5234863 C107.007619,20.5234863 107.386469,20.58105 107.726501,20.6961792 C108.066534,20.8113084 108.35703,20.9973864 108.597998,21.2544189 C108.838966,21.5114515 109.025044,21.8461242 109.156238,22.2584473 C109.287431,22.6707703 109.353027,23.1714407 109.353027,23.7604736 L109.353027,29.375 L107.401196,29.375 L107.401196,23.7444092 C107.401196,23.4445379 107.367729,23.1915253 107.300793,22.9853638 C107.233858,22.7792023 107.136133,22.6118659 107.007617,22.4833496 C106.879101,22.3548333 106.719797,22.2624637 106.5297,22.2062378 C106.339603,22.1500119 106.121396,22.1218994 105.875073,22.1218994 C105.47346,22.1218994 105.124062,22.2182852 104.826868,22.4110596 C104.529674,22.603834 104.292725,22.86354 104.116016,23.1901855 L104.116016,29.375 L102.164185,29.375 L102.164185,20.6841309 L104.003564,20.6841309 Z M123.586133,26.6842041 L124.967676,20.6841309 L126.871313,20.6841309 L124.501807,29.375 L122.895361,29.375 L121.031885,23.4070557 L119.200537,29.375 L117.594092,29.375 L115.216553,20.6841309 L117.12019,20.6841309 L118.52583,26.6199463 L120.308984,20.6841309 L121.778882,20.6841309 L123.586133,26.6842041 Z M130.509912,29.375 L128.558081,29.375 L128.558081,20.6841309 L130.509912,20.6841309 L130.509912,29.375 Z M128.437598,18.4270752 C128.437598,18.1272039 128.532645,17.8782074 128.722742,17.6800781 C128.912839,17.4819489 129.184593,17.3828857 129.538013,17.3828857 C129.891432,17.3828857 130.164525,17.4819489 130.3573,17.6800781 C130.550074,17.8782074 130.64646,18.1272039 130.64646,18.4270752 C130.64646,18.7215916 130.550074,18.9665721 130.3573,19.1620239 C130.164525,19.3574757 129.891432,19.4552002 129.538013,19.4552002 C129.184593,19.4552002 128.912839,19.3574757 128.722742,19.1620239 C128.532645,18.9665721 128.437598,18.7215916 128.437598,18.4270752 Z M135.33728,18.5716553 L135.33728,20.6841309 L136.871436,20.6841309 L136.871436,22.1299316 L135.33728,22.1299316 L135.33728,26.9813965 C135.33728,27.1795257 135.358699,27.3401687 135.401538,27.4633301 C135.444377,27.5864915 135.505957,27.6815386 135.586279,27.7484741 C135.666602,27.8154097 135.761649,27.8609252 135.871423,27.885022 C135.981198,27.9091188 136.103019,27.921167 136.23689,27.921167 C136.370761,27.921167 136.500614,27.9117962 136.626453,27.8930542 C136.752291,27.8743122 136.850016,27.8569093 136.919629,27.8408447 L136.919629,29.3509033 C136.764338,29.3937421 136.583615,29.4352415 136.377454,29.4754028 C136.171292,29.5155642 135.923634,29.5356445 135.634473,29.5356445 C135.313182,29.5356445 135.014654,29.4928064 134.738879,29.4071289 C134.463105,29.3214514 134.224818,29.1822275 134.024011,28.9894531 C133.823205,28.7966787 133.666578,28.5450048 133.554126,28.2344238 C133.441674,27.9238428 133.385449,27.5436546 133.385449,27.0938477 L133.385449,22.1299316 L131.955713,22.1299316 L131.955713,20.6841309 L133.385449,20.6841309 L133.385449,18.5716553 L135.33728,18.5716553 Z M140.542163,21.6319336 C140.842034,21.2838687 141.195449,21.0121144 141.602417,20.8166626 C142.009385,20.6212108 142.461863,20.5234863 142.959863,20.5234863 C143.382896,20.5234863 143.768439,20.5823887 144.116504,20.7001953 C144.464569,20.8180019 144.761758,21.0067573 145.008081,21.2664673 C145.254404,21.5261772 145.444498,21.8635274 145.578369,22.2785278 C145.71224,22.6935283 145.779175,23.1955374 145.779175,23.7845703 L145.779175,29.375 L143.827344,29.375 L143.827344,23.7685059 C143.827344,23.1687633 143.697491,22.7443982 143.437781,22.4953979 C143.178071,22.2463977 142.796544,22.1218994 142.293188,22.1218994 C141.88622,22.1218994 141.536822,22.2156078 141.244983,22.4030273 C140.953144,22.5904469 140.718873,22.8447982 140.542163,23.1660889 L140.542163,29.375 L138.590332,29.375 L138.590332,17.0375 L140.542163,17.0375 L140.542163,21.6319336 Z M159.28938,24.4191162 L154.582495,24.4191162 L154.582495,29.375 L152.550342,29.375 L152.550342,17.6800781 L159.980151,17.6800781 L159.980151,19.3186523 L154.582495,19.3186523 L154.582495,22.7966064 L159.28938,22.7966064 L159.28938,24.4191162 Z M166.574609,29.375 C166.521061,29.273258 166.476884,29.1527758 166.442078,29.0135498 C166.407271,28.8743238 166.376481,28.7243905 166.349707,28.5637451 C166.221191,28.6976162 166.077951,28.8234532 165.919983,28.9412598 C165.762015,29.0590663 165.587985,29.1621456 165.397888,29.2505005 C165.207791,29.3388554 165.001633,29.4084674 164.779407,29.4593384 C164.557181,29.5102094 164.320232,29.5356445 164.068555,29.5356445 C163.634812,29.5356445 163.235882,29.4700487 162.871753,29.338855 C162.507624,29.2076613 162.195708,29.0255993 161.935999,28.7926636 C161.676289,28.5597278 161.472808,28.2852962 161.325549,27.9693604 C161.178291,27.6534245 161.104663,27.3107196 161.104663,26.9412354 C161.104663,26.4753639 161.193017,26.063047 161.369727,25.7042725 C161.546436,25.3454979 161.803465,25.0456311 162.14082,24.8046631 C162.478176,24.5636951 162.891831,24.3802944 163.381799,24.2544556 C163.871768,24.1286167 164.430002,24.0656982 165.056519,24.0656982 L166.285449,24.0656982 L166.285449,23.4954102 C166.285449,23.0456032 166.159612,22.6854953 165.907935,22.4150757 C165.656257,22.144656 165.273391,22.0094482 164.759326,22.0094482 C164.529068,22.0094482 164.320232,22.0402381 164.132812,22.1018188 C163.945393,22.1633996 163.786089,22.2463984 163.654895,22.3508179 C163.523701,22.4552373 163.421961,22.5797356 163.34967,22.7243164 C163.27738,22.8688972 163.241235,23.0241854 163.241235,23.1901855 L161.289404,23.1901855 C161.289404,22.8474755 161.373742,22.5168188 161.542419,22.1982056 C161.711097,21.8795923 161.950723,21.5957898 162.261304,21.3467896 C162.571885,21.0977893 162.948057,20.8983243 163.389832,20.7483887 C163.831606,20.598453 164.325583,20.5234863 164.871777,20.5234863 C165.359068,20.5234863 165.808868,20.5864048 166.221191,20.7122437 C166.633514,20.8380825 166.989606,21.0254992 167.289478,21.2744995 C167.589349,21.5234998 167.822281,21.8340761 167.988281,22.2062378 C168.154281,22.5783995 168.23728,23.0134741 168.23728,23.5114746 L168.23728,27.3669434 C168.23728,28.1487507 168.347053,28.7725807 168.566602,29.2384521 L168.566602,29.375 L166.574609,29.375 Z M164.430005,27.9693604 C164.654908,27.9693604 164.865083,27.9399091 165.060535,27.8810059 C165.255986,27.8221026 165.432694,27.7444585 165.590662,27.6480713 C165.74863,27.5516841 165.886515,27.4405727 166.004321,27.3147339 C166.122128,27.188895 166.215836,27.0617194 166.285449,26.9332031 L166.285449,25.2946289 L165.233228,25.2946289 C164.510324,25.2946289 163.966815,25.4204659 163.602686,25.6721436 C163.238556,25.9238212 163.056494,26.2799131 163.056494,26.7404297 C163.056494,26.9171396 163.085945,27.0804599 163.144849,27.2303955 C163.203752,27.3803312 163.292106,27.5101842 163.409912,27.6199585 C163.527719,27.7297328 163.670959,27.815409 163.839636,27.8769897 C164.008314,27.9385705 164.205101,27.9693604 164.430005,27.9693604 Z M174.108838,27.9773926 C174.344451,27.9773926 174.565335,27.9412479 174.771497,27.8689575 C174.977658,27.7966671 175.157043,27.6949266 175.309656,27.5637329 C175.462269,27.4325392 175.585428,27.2759124 175.679138,27.0938477 C175.772848,26.9117829 175.825057,26.7136567 175.835767,26.4994629 L177.675146,26.4994629 C177.659082,26.9171408 177.556003,27.3107159 177.365906,27.6802002 C177.175809,28.0496845 176.921457,28.372309 176.602844,28.6480835 C176.284231,28.923858 175.913414,29.1407259 175.490381,29.2986938 C175.067348,29.4566618 174.614871,29.5356445 174.132935,29.5356445 C173.463579,29.5356445 172.881248,29.4205171 172.385925,29.1902588 C171.890602,28.9600005 171.478285,28.6467468 171.148962,28.2504883 C170.819639,27.8542298 170.574659,27.3910427 170.414014,26.8609131 C170.253368,26.3307835 170.173047,25.7685332 170.173047,25.1741455 L170.173047,24.8930176 C170.173047,24.2986298 170.253368,23.7363796 170.414014,23.20625 C170.574659,22.6761204 170.819639,22.2115946 171.148962,21.8126587 C171.478285,21.4137228 171.889263,21.0991304 172.381909,20.8688721 C172.874555,20.6386138 173.455547,20.5234863 174.124902,20.5234863 C174.649677,20.5234863 175.12759,20.6038078 175.558655,20.7644531 C175.98972,20.9250985 176.359198,21.1499986 176.667102,21.4391602 C176.975006,21.7283218 177.21597,22.073704 177.390002,22.4753174 C177.564035,22.8769307 177.659082,23.3186988 177.675146,23.8006348 L175.835767,23.8006348 C175.825057,23.5703765 175.778203,23.3508311 175.695203,23.1419922 C175.612203,22.9331533 175.497075,22.7510913 175.349817,22.5958008 C175.202559,22.4405103 175.024513,22.3173507 174.815674,22.2263184 C174.606835,22.135286 174.371225,22.0897705 174.108838,22.0897705 C173.712579,22.0897705 173.385939,22.1714307 173.128906,22.3347534 C172.871874,22.4980762 172.668393,22.7109281 172.518457,22.9733154 C172.368521,23.2357028 172.265442,23.5355696 172.209216,23.8729248 C172.15299,24.21028 172.124878,24.5503075 172.124878,24.8930176 L172.124878,25.1741455 C172.124878,25.5275652 172.15299,25.8716088 172.209216,26.2062866 C172.265442,26.5409644 172.368521,26.8394925 172.518457,27.1018799 C172.668393,27.3642673 172.870535,27.5757804 173.12489,27.7364258 C173.379245,27.8970711 173.707225,27.9773926 174.108838,27.9773926 Z M183.233447,29.5356445 C182.590866,29.5356445 182.012551,29.4285492 181.498486,29.2143555 C180.984421,29.0001617 180.548008,28.7056497 180.189233,28.3308105 C179.830459,27.9559714 179.554688,27.511526 179.361914,26.9974609 C179.16914,26.4833959 179.072754,25.9291778 179.072754,25.33479 L179.072754,25.013501 C179.072754,24.3280809 179.174494,23.7082669 179.377979,23.1540405 C179.581463,22.5998141 179.85991,22.1285949 180.21333,21.7403687 C180.56675,21.3521424 180.983083,21.0522756 181.462341,20.8407593 C181.9416,20.6292429 182.456996,20.5234863 183.008545,20.5234863 C183.640417,20.5234863 184.18928,20.6292429 184.655151,20.8407593 C185.121023,21.0522756 185.506566,21.3481264 185.811792,21.7283203 C186.117018,22.1085143 186.344596,22.5609918 186.494531,23.0857666 C186.644467,23.6105414 186.719434,24.1861785 186.719434,24.8126953 L186.719434,25.6480469 L181.040649,25.6480469 C181.067424,25.9854021 181.138374,26.2959784 181.253503,26.5797852 C181.368633,26.8635919 181.525259,27.1085724 181.723389,27.3147339 C181.921518,27.5208954 182.155789,27.682877 182.426208,27.8006836 C182.696628,27.9184902 183.003188,27.9773926 183.345898,27.9773926 C183.827834,27.9773926 184.246845,27.8810068 184.602942,27.6882324 C184.959039,27.495458 185.268277,27.2303972 185.530664,26.893042 L186.582886,27.8970703 C186.44366,28.1059092 186.270969,28.3080516 186.064807,28.5035034 C185.858646,28.6989552 185.617681,28.8729851 185.341907,29.0255981 C185.066132,29.1782112 184.754217,29.3013708 184.406152,29.3950806 C184.058087,29.4887903 183.66719,29.5356445 183.233447,29.5356445 Z M183.000513,22.0897705 C182.465028,22.0897705 182.032631,22.2771873 181.703308,22.6520264 C181.373985,23.0268655 181.163811,23.548955 181.072778,24.2183105 L184.791699,24.2183105 L184.791699,24.0737305 C184.775635,23.8166979 184.734135,23.5690401 184.6672,23.3307495 C184.600264,23.0924589 184.497185,22.8809457 184.357959,22.6962036 C184.218733,22.5114615 184.03801,22.3642055 183.815784,22.2544312 C183.593558,22.1446568 183.321803,22.0897705 183.000513,22.0897705 Z M196.117139,25.1179199 C196.117139,25.7605013 196.043511,26.3522027 195.896252,26.893042 C195.748994,27.4338813 195.533465,27.8997458 195.249658,28.2906494 C194.965851,28.6815531 194.612437,28.9867746 194.189404,29.2063232 C193.766372,29.4258719 193.279088,29.5356445 192.727539,29.5356445 C192.197409,29.5356445 191.7369,29.4405975 191.345996,29.2505005 C190.955092,29.0604035 190.623097,28.7886492 190.35,28.4352295 L190.253613,29.375 L188.486523,29.375 L188.486523,17.0375 L190.438354,17.0375 L190.438354,21.5194824 C190.711452,21.1981918 191.034076,20.9518726 191.406238,20.7805176 C191.778399,20.6091626 192.213474,20.5234863 192.711475,20.5234863 C193.273733,20.5234863 193.766372,20.6319203 194.189404,20.8487915 C194.612437,21.0656627 194.96719,21.3695456 195.253674,21.7604492 C195.540158,22.1513529 195.755688,22.618556 195.900269,23.1620728 C196.044849,23.7055895 196.117139,24.301307 196.117139,24.9492432 L196.117139,25.1179199 Z M194.165308,24.9492432 C194.165308,24.5690492 194.134518,24.2076026 194.072937,23.8648926 C194.011356,23.5221825 193.9056,23.2223157 193.755664,22.9652832 C193.605728,22.7082507 193.406263,22.5034309 193.157263,22.3508179 C192.908263,22.1982048 192.596348,22.1218994 192.221509,22.1218994 C191.766347,22.1218994 191.394191,22.2223012 191.105029,22.4231079 C190.815868,22.6239146 190.593645,22.8929915 190.438354,23.2303467 L190.438354,26.8127197 C190.593645,27.1500749 190.817206,27.4231679 191.109045,27.6320068 C191.400884,27.8408458 191.777057,27.9452637 192.237573,27.9452637 C192.596348,27.9452637 192.898892,27.8716357 193.145215,27.7243774 C193.391538,27.5771192 193.591003,27.3763156 193.743616,27.1219604 C193.896229,26.8676053 194.004663,26.5690772 194.068921,26.2263672 C194.133179,25.8836571 194.165308,25.5141784 194.165308,25.1179199 L194.165308,24.9492432 Z M197.643262,24.9492432 C197.643262,24.3173715 197.735631,23.7323635 197.920374,23.1942017 C198.105116,22.6560398 198.370176,22.1888366 198.715564,21.7925781 C199.060951,21.3963196 199.482639,21.0857433 199.98064,20.8608398 C200.47864,20.6359364 201.043568,20.5234863 201.675439,20.5234863 C202.312666,20.5234863 202.882948,20.6359364 203.386304,20.8608398 C203.889659,21.0857433 204.314024,21.3963196 204.659412,21.7925781 C205.004799,22.1888366 205.268521,22.6560398 205.450586,23.1942017 C205.632651,23.7323635 205.723682,24.3173715 205.723682,24.9492432 L205.723682,25.1179199 C205.723682,25.7497916 205.632651,26.3361382 205.450586,26.8769775 C205.268521,27.4178168 205.004799,27.88502 204.659412,28.2786011 C204.314024,28.6721821 203.890998,28.9800811 203.39032,29.2023071 C202.889642,29.4245332 202.323376,29.5356445 201.691504,29.5356445 C201.054277,29.5356445 200.485334,29.4245332 199.984656,29.2023071 C199.483978,28.9800811 199.060951,28.6721821 198.715564,28.2786011 C198.370176,27.88502 198.105116,27.4178168 197.920374,26.8769775 C197.735631,26.3361382 197.643262,25.7497916 197.643262,25.1179199 L197.643262,24.9492432 Z M199.595093,25.1179199 C199.595093,25.5088236 199.635254,25.8783023 199.715576,26.2263672 C199.795899,26.5744321 199.921736,26.8783149 200.093091,27.1380249 C200.264446,27.3977349 200.482652,27.6025546 200.747717,27.7524902 C201.012782,27.9024259 201.327374,27.9773926 201.691504,27.9773926 C202.050278,27.9773926 202.362193,27.9024259 202.627258,27.7524902 C202.892323,27.6025546 203.109191,27.3977349 203.277869,27.1380249 C203.446546,26.8783149 203.572383,26.5744321 203.655383,26.2263672 C203.738383,25.8783023 203.779883,25.5088236 203.779883,25.1179199 L203.779883,24.9492432 C203.779883,24.5636944 203.738383,24.1982317 203.655383,23.8528442 C203.572383,23.5074568 203.445208,23.2049126 203.273853,22.9452026 C203.102498,22.6854927 202.884291,22.4779956 202.619226,22.3227051 C202.354161,22.1674146 202.039569,22.0897705 201.675439,22.0897705 C201.31131,22.0897705 200.999395,22.1674146 200.739685,22.3227051 C200.479975,22.4779956 200.264446,22.6854927 200.093091,22.9452026 C199.921736,23.2049126 199.795899,23.5074568 199.715576,23.8528442 C199.635254,24.1982317 199.595093,24.5636944 199.595093,24.9492432 L199.595093,25.1179199 Z M207.265869,24.9492432 C207.265869,24.3173715 207.358239,23.7323635 207.542981,23.1942017 C207.727723,22.6560398 207.992784,22.1888366 208.338171,21.7925781 C208.683559,21.3963196 209.105247,21.0857433 209.603247,20.8608398 C210.101248,20.6359364 210.666175,20.5234863 211.298047,20.5234863 C211.935273,20.5234863 212.505556,20.6359364 213.008911,20.8608398 C213.512267,21.0857433 213.936632,21.3963196 214.282019,21.7925781 C214.627407,22.1888366 214.891129,22.6560398 215.073193,23.1942017 C215.255258,23.7323635 215.346289,24.3173715 215.346289,24.9492432 L215.346289,25.1179199 C215.346289,25.7497916 215.255258,26.3361382 215.073193,26.8769775 C214.891129,27.4178168 214.627407,27.88502 214.282019,28.2786011 C213.936632,28.6721821 213.513605,28.9800811 213.012927,29.2023071 C212.512249,29.4245332 211.945983,29.5356445 211.314111,29.5356445 C210.676885,29.5356445 210.107941,29.4245332 209.607263,29.2023071 C209.106585,28.9800811 208.683559,28.6721821 208.338171,28.2786011 C207.992784,27.88502 207.727723,27.4178168 207.542981,26.8769775 C207.358239,26.3361382 207.265869,25.7497916 207.265869,25.1179199 L207.265869,24.9492432 Z M209.2177,25.1179199 C209.2177,25.5088236 209.257861,25.8783023 209.338184,26.2263672 C209.418506,26.5744321 209.544343,26.8783149 209.715698,27.1380249 C209.887053,27.3977349 210.10526,27.6025546 210.370325,27.7524902 C210.63539,27.9024259 210.949982,27.9773926 211.314111,27.9773926 C211.672886,27.9773926 211.984801,27.9024259 212.249866,27.7524902 C212.514931,27.6025546 212.731798,27.3977349 212.900476,27.1380249 C213.069154,26.8783149 213.194991,26.5744321 213.277991,26.2263672 C213.360991,25.8783023 213.40249,25.5088236 213.40249,25.1179199 L213.40249,24.9492432 C213.40249,24.5636944 213.360991,24.1982317 213.277991,23.8528442 C213.194991,23.5074568 213.067815,23.2049126 212.89646,22.9452026 C212.725105,22.6854927 212.506898,22.4779956 212.241833,22.3227051 C211.976769,22.1674146 211.662176,22.0897705 211.298047,22.0897705 C210.933917,22.0897705 210.622002,22.1674146 210.362292,22.3227051 C210.102583,22.4779956 209.887053,22.6854927 209.715698,22.9452026 C209.544343,23.2049126 209.418506,23.5074568 209.338184,23.8528442 C209.257861,24.1982317 209.2177,24.5636944 209.2177,24.9492432 L209.2177,25.1179199 Z M220.077271,25.6480469 L219.20979,26.539624 L219.20979,29.375 L217.257959,29.375 L217.257959,17.0375 L219.20979,17.0375 L219.20979,24.1540527 L219.820239,23.3909912 L222.221875,20.6841309 L224.567285,20.6841309 L221.33833,24.306665 L224.912671,29.375 L222.655615,29.375 L220.077271,25.6480469 Z" id="Sign-in-with-Faceboo" fill="#FFFFFF"></path>
                        <rect id="button-bg-copy" fill="#FFFFFF" x="1.175" y="1.175" width="44.65" height="44.65" rx="1"></rect>
                        <g id="Page-1" transform="translate(12.925000, 12.925000)">
                            <g id="Group-3">
                                <mask id="mask-4" fill="white">
                                    <use xlink:href="#path-3"></use>
                                </mask>
                                <g id="Clip-2"></g>
                                <path d="M19.9747175,21.15 C20.6190399,21.15 21.1415321,20.6275079 21.1415321,19.9831854 L21.1415321,1.17521124 C21.1415321,0.530651124 20.6190399,0.00831741573 19.9747175,0.00831741573 L1.16682253,0.00831741573 C0.522262416,0.00831741573 7.92134831e-06,0.530651124 7.92134831e-06,1.17521124 L7.92134831e-06,19.9831854 C7.92134831e-06,20.6275079 0.522262416,21.15 1.16682253,21.15 L19.9747175,21.15 Z" id="Fill-1" fill="#3C5A99" mask="url(#mask-4)"></path>
                            </g>
                            <path d="M14.5914648,21.15 L14.5914648,12.998277 L17.3468289,12.998277 L17.7593433,9.82134897 L14.5914648,9.82134897 L14.5914648,7.79302079 C14.5914648,6.87322598 14.848631,6.24643731 16.1768733,6.24643731 L17.8709302,6.2456486 L17.8709302,3.40423821 C17.5778655,3.36559137 16.5723121,3.27906977 15.4024359,3.27906977 C12.9599918,3.27906977 11.2879346,4.75955926 11.2879346,7.47848283 L11.2879346,9.82134897 L8.5255814,9.82134897 L8.5255814,12.998277 L11.2879346,12.998277 L11.2879346,21.15 L14.5914648,21.15 Z" id="Fill-4" fill="#FEFEFE"></path>
                        </g>
                    </g>
                </g>
            </g>
        </g>
    </g>
</svg>