<?xml version="1.0" encoding="UTF-8"?>
<svg width="230px" height="52px" viewBox="0 0 230 52" version="1.1" xmlns="http://www.w3.org/2000/svg" xmlns:xlink="http://www.w3.org/1999/xlink">
    <!-- Generator: Sketch 47 (45396) - http://www.bohemiancoding.com/sketch -->
    <title>Group 3</title>
    <desc>Created with Sketch.</desc>
    <defs></defs>
    <g id="Page-1" stroke="none" stroke-width="1" fill="none" fill-rule="evenodd">
        <g id="Artboard-1" transform="translate(-85.000000, -344.000000)">
            <g id="Group-3" transform="translate(85.000000, 344.000000)">
                <rect id="Rectangle-3" fill="#DF4930" x="0" y="0" width="230" height="52" rx="8"></rect>
                <path d="M21.5241538,19 L26.0624615,19 L26.0624615,19.081 C26.0624615,19.6072632 25.1546154,19.6887368 24.5232308,19.81 C24.3261538,19.81 23.8918462,19.8502632 23.7736923,19.9312632 C24.9178462,20.539 25.1153846,21.5512632 25.1153846,23.0092632 C25.1153846,24.7102632 24.484,25.6012632 23.7736923,26.2085263 C23.3790769,26.6135263 23.0241538,26.8967895 23.0241538,27.3017895 C23.0241538,27.7067895 23.4972308,28.1117895 24.01,28.5977895 C24.8781538,29.3675263 26.0624615,30.4200526 26.0624615,32.2020526 C26.0624615,34.0650526 25.2732308,35.4013158 23.7736923,36.1307895 C22.5898462,36.7380526 21.3270769,36.8190526 20.8138462,36.8190526 C20.7353846,36.8190526 20.6956923,36.7783158 20.6564615,36.7783158 C20.6564615,36.7783158 20.6167692,36.8190526 20.5775385,36.8190526 C19.8275385,36.8190526 16,36.6163158 16,33.0523158 C16,29.5697895 20.1432308,29.2865263 21.406,29.2865263 L21.4456923,29.2865263 C20.7353846,28.2737895 20.8535385,27.2615263 20.8535385,27.2615263 L20.5775385,27.2615263 C20.1035385,27.2615263 19.1966154,27.1805263 18.4073846,26.6542632 C17.4206154,26.0465263 16.9470769,24.9532632 16.9470769,23.4142632 C16.9470769,19.162 21.4849231,19 21.5241538,19 L21.5241538,19 Z M21.3667692,30.2177895 L21.0506154,30.2177895 C20.1824615,30.2585263 19.3932308,30.6227895 18.8015385,31.1490526 C18.2495385,31.6757895 17.9333846,32.3640526 17.9730769,33.0523158 C18.0912308,34.4700526 19.5515385,35.2800526 21.3667692,35.1583158 C23.1418462,35.0370526 24.3653846,33.9840526 24.2472308,32.5663158 C24.1683077,31.1897895 23.0633846,30.2177895 21.3667692,30.2177895 L21.3667692,30.2177895 Z M20.6564615,20.2552632 C20.5378462,20.2552632 20.4196923,20.2552632 20.2613846,20.296 C19.7486154,20.4575263 19.354,20.9032632 19.1176923,21.5512632 C18.9201538,22.1992632 18.8804615,22.8875263 19.078,23.6975263 C19.4329231,25.0745263 20.4196923,26.0867895 21.406,26.0867895 C21.5241538,26.0867895 21.6427692,26.0867895 21.7609231,26.0465263 C22.8658462,25.7225263 23.5369231,24.0622632 23.0633846,22.4422632 C22.5898462,20.7412632 21.8398462,20.2552632 20.6564615,20.2552632 L20.6564615,20.2552632 Z M33.6778462,25.9655263 L33.6778462,27.8687895 L30.7184615,27.8687895 L30.7184615,30.9065263 L28.864,30.9065263 L28.864,27.8687895 L25.9046154,27.8687895 L25.9046154,25.9655263 L28.864,25.9655263 L28.864,22.9282632 L30.7184615,22.9282632 L30.7184615,25.9655263 L33.6778462,25.9655263 L33.6778462,25.9655263 Z" id="Imported-Layers" fill="#FFFFFF"></path>
                <text id="Login-With-Google" font-family="HelveticaNeue-Bold, Helvetica Neue" font-size="16" font-weight="bold" fill="#FFFFFF">
                    <tspan x="54" y="32">Login With Google</tspan>
                </text>
            </g>
        </g>
    </g>
</svg>