<?xml version="1.0" encoding="UTF-8"?>
<svg width="237px" height="50px" viewBox="0 0 237 50" version="1.1" xmlns="http://www.w3.org/2000/svg" xmlns:xlink="http://www.w3.org/1999/xlink">
    <!-- Generator: Sketch 49.3 (51167) - http://www.bohemiancoding.com/sketch -->
    <title>Google-SignIn</title>
    <desc>Created with Sketch.</desc>
    <defs>
        <rect id="path-1" x="0" y="0" width="235" height="47" rx="2"></rect>
        <filter x="-1.3%" y="-4.3%" width="102.6%" height="112.8%" filterUnits="objectBoundingBox" id="filter-2">
            <feOffset dx="0" dy="1" in="SourceAlpha" result="shadowOffsetOuter1"></feOffset>
            <feGaussianBlur stdDeviation="0.5" in="shadowOffsetOuter1" result="shadowBlurOuter1"></feGaussianBlur>
            <feColorMatrix values="0 0 0 0 0   0 0 0 0 0   0 0 0 0 0  0 0 0 0.24 0" type="matrix" in="shadowBlurOuter1" result="shadowMatrixOuter1"></feColorMatrix>
            <feOffset dx="0" dy="0" in="SourceAlpha" result="shadowOffsetOuter2"></feOffset>
            <feGaussianBlur stdDeviation="0.5" in="shadowOffsetOuter2" result="shadowBlurOuter2"></feGaussianBlur>
            <feColorMatrix values="0 0 0 0 0   0 0 0 0 0   0 0 0 0 0  0 0 0 0.12 0" type="matrix" in="shadowBlurOuter2" result="shadowMatrixOuter2"></feColorMatrix>
            <feMerge>
                <feMergeNode in="shadowMatrixOuter1"></feMergeNode>
                <feMergeNode in="shadowMatrixOuter2"></feMergeNode>
            </feMerge>
        </filter>
    </defs>
    <g id="00.00-Home" stroke="none" stroke-width="1" fill="none" fill-rule="evenodd">
        <g id="00.01-Home-Login" transform="translate(-602.000000, -267.000000)">
            <g id="Login">
                <g id="Social-Logins" transform="translate(603.000000, 268.000000)">
                    <g id="Google-SignIn">
                        <g id="button">
                            <g id="button-bg">
                                <use fill="black" fill-opacity="1" filter="url(#filter-2)" xlink:href="#path-1"></use>
                                <use fill="#4285F4" fill-rule="evenodd" xlink:href="#path-1"></use>
                            </g>
                        </g>
                        <path d="M66.0512939,26.362915 C66.0512939,26.1273019 66.016488,25.9171274 65.946875,25.7323853 C65.877262,25.5476431 65.7500864,25.3776294 65.5653442,25.2223389 C65.3806021,25.0670484 65.1262508,24.9184537 64.8022827,24.7765503 C64.4783146,24.6346469 64.0619817,24.4860522 63.5532715,24.3307617 C62.9963677,24.1647615 62.4823103,23.9746674 62.011084,23.7604736 C61.5398577,23.5462799 61.1342343,23.2972833 60.7942017,23.0134766 C60.454169,22.7296698 60.1877695,22.4030292 59.9949951,22.0335449 C59.8022207,21.6640607 59.705835,21.2410343 59.705835,20.7644531 C59.705835,20.2932268 59.8062368,19.8594909 60.0070435,19.4632324 C60.2078501,19.0669739 60.4903139,18.724269 60.8544434,18.4351074 C61.2185728,18.1459458 61.6549861,17.9210457 62.1636963,17.7604004 C62.6724065,17.5997551 63.2346568,17.5194336 63.8504639,17.5194336 C64.5091097,17.5194336 65.1008112,17.6144807 65.6255859,17.8045776 C66.1503607,17.9946746 66.5934674,18.253042 66.9549194,18.5796875 C67.3163714,18.906333 67.5934805,19.2851826 67.7862549,19.7162476 C67.9790293,20.1473125 68.075415,20.6064836 68.075415,21.0937744 L66.0512939,21.0937744 C66.0512939,20.8099677 66.0071171,20.5489229 65.9187622,20.3106323 C65.8304073,20.0723417 65.6951995,19.8661833 65.5131348,19.6921509 C65.3310701,19.5181184 65.1008152,19.3829106 64.8223633,19.2865234 C64.5439114,19.1901362 64.2145934,19.1419434 63.8343994,19.1419434 C63.4756248,19.1419434 63.1650485,19.1821041 62.9026611,19.2624268 C62.6402738,19.3427494 62.4220671,19.4551995 62.2480347,19.5997803 C62.0740022,19.7443611 61.9454879,19.9157135 61.8624878,20.1138428 C61.7794877,20.311972 61.7379883,20.5261626 61.7379883,20.7564209 C61.7379883,21.1901633 61.942808,21.5516099 62.3524536,21.8407715 C62.7620992,22.1299331 63.3872679,22.3976713 64.2279785,22.6439941 C64.8866244,22.8367685 65.4569068,23.0509591 65.9388428,23.2865723 C66.4207788,23.5221854 66.8210474,23.7885849 67.1396606,24.0857788 C67.4582739,24.3829727 67.6952222,24.7176454 67.8505127,25.0898071 C68.0058032,25.4619688 68.0834473,25.8809791 68.0834473,26.3468506 C68.0834473,26.8394963 67.9857228,27.282603 67.790271,27.6761841 C67.5948192,28.0697652 67.3163714,28.4044379 66.9549194,28.6802124 C66.5934674,28.9559869 66.1557155,29.1675001 65.6416504,29.3147583 C65.1275853,29.4620165 64.5546256,29.5356445 63.9227539,29.5356445 C63.3604952,29.5356445 62.8062771,29.4593391 62.260083,29.3067261 C61.7138889,29.154113 61.2239279,28.9238581 60.7901855,28.6159546 C60.3564431,28.308051 60.0070448,27.9238467 59.74198,27.4633301 C59.4769152,27.0028135 59.3443848,26.4619823 59.3443848,25.8408203 L61.3765381,25.8408203 C61.3765381,26.2103046 61.4421339,26.5275744 61.5733276,26.7926392 C61.7045213,27.057704 61.8839059,27.2745719 62.1114868,27.4432495 C62.3390677,27.6119271 62.6081446,27.7350867 62.9187256,27.8127319 C63.2293066,27.8903772 63.5639793,27.9291992 63.9227539,27.9291992 C64.6295934,27.9291992 65.1610537,27.7859593 65.5171509,27.4994751 C65.873248,27.2129909 66.0512939,26.8341414 66.0512939,26.362915 Z M72.0112061,29.375 L70.059375,29.375 L70.059375,20.6841309 L72.0112061,20.6841309 L72.0112061,29.375 Z M69.9388916,18.4270752 C69.9388916,18.1272039 70.0339387,17.8782074 70.2240356,17.6800781 C70.4141326,17.4819489 70.6858869,17.3828857 71.0393066,17.3828857 C71.3927264,17.3828857 71.6658193,17.4819489 71.8585938,17.6800781 C72.0513682,17.8782074 72.1477539,18.1272039 72.1477539,18.4270752 C72.1477539,18.7215916 72.0513682,18.9665721 71.8585938,19.1620239 C71.6658193,19.3574757 71.3927264,19.4552002 71.0393066,19.4552002 C70.6858869,19.4552002 70.4141326,19.3574757 70.2240356,19.1620239 C70.0339387,18.9665721 69.9388916,18.7215916 69.9388916,18.4270752 Z M74.0513916,24.9653076 C74.0513916,24.3066617 74.1317131,23.7042508 74.2923584,23.1580566 C74.4530037,22.6118625 74.6845973,22.1433206 74.987146,21.752417 C75.2896947,21.3615133 75.6551574,21.0589692 76.0835449,20.8447754 C76.5119325,20.6305816 76.9938613,20.5234863 77.5293457,20.5234863 C78.0541205,20.5234863 78.506598,20.6131786 78.886792,20.7925659 C79.266986,20.9719532 79.5936266,21.2276432 79.8667236,21.5596436 L79.9550781,20.6841309 L81.7141357,20.6841309 L81.7141357,29.1340332 C81.7141357,29.7177113 81.61775,30.2371234 81.4249756,30.6922852 C81.2322012,31.1474469 80.9631243,31.5303126 80.6177368,31.8408936 C80.2723493,32.1514745 79.8573551,32.3884228 79.3727417,32.5517456 C78.8881283,32.7150684 78.3566679,32.7967285 77.7783447,32.7967285 C77.5373767,32.7967285 77.2696385,32.7712934 76.9751221,32.7204224 C76.6806056,32.6695513 76.3834162,32.5865525 76.0835449,32.4714233 C75.7836736,32.3562942 75.4971937,32.2076995 75.2240967,32.0256348 C74.9509996,31.8435701 74.7180674,31.6213473 74.525293,31.35896 L75.448999,30.1862549 C75.7702897,30.5664488 76.1196881,30.8395418 76.4972046,31.005542 C76.8747211,31.1715422 77.2642802,31.254541 77.6658936,31.254541 C78.3138297,31.254541 78.8252097,31.0791725 79.2000488,30.7284302 C79.5748879,30.3776879 79.7623047,29.8622918 79.7623047,29.1822266 L79.7623047,28.595874 C79.4892076,28.9011002 79.1679218,29.1340324 78.7984375,29.2946777 C78.4289532,29.4553231 78.0005721,29.5356445 77.5132813,29.5356445 C76.9831516,29.5356445 76.5052389,29.4245332 76.0795288,29.2023071 C75.6538187,28.9800811 75.2896947,28.6735208 74.987146,28.2826172 C74.6845973,27.8917135 74.4530037,27.4271877 74.2923584,26.8890259 C74.1317131,26.350864 74.0513916,25.765856 74.0513916,25.1339844 L74.0513916,24.9653076 Z M75.9951904,25.1339844 C75.9951904,25.5195332 76.0340125,25.8823184 76.1116577,26.2223511 C76.189303,26.5623837 76.3111238,26.8609118 76.477124,27.1179443 C76.6431242,27.3749769 76.85196,27.5771192 77.1036377,27.7243774 C77.3553154,27.8716357 77.6578596,27.9452637 78.0112793,27.9452637 C78.4503765,27.9452637 78.8091457,27.852894 79.0875977,27.6681519 C79.3660496,27.4834097 79.5909497,27.2384293 79.7623047,26.9332031 L79.7623047,23.1098633 C79.5909497,22.8046371 79.3647109,22.5636728 79.0835815,22.3869629 C78.8024522,22.210253 78.4503765,22.1218994 78.0273438,22.1218994 C77.673924,22.1218994 77.3687025,22.1968661 77.1116699,22.3468018 C76.8546374,22.4967374 76.6444629,22.7002184 76.4811401,22.957251 C76.3178174,23.2142835 76.1959965,23.515489 76.1156738,23.8608765 C76.0353512,24.2062639 75.9951904,24.574404 75.9951904,24.9653076 L75.9951904,25.1339844 Z M85.7864746,20.6841309 L85.8427002,21.6881592 C86.1479263,21.3186749 86.5147277,21.032195 86.9431152,20.8287109 C87.3715028,20.6252268 87.8480768,20.5234863 88.3728516,20.5234863 C88.7905294,20.5234863 89.169379,20.58105 89.5094116,20.6961792 C89.8494442,20.8113084 90.1399402,20.9973864 90.3809082,21.2544189 C90.6218762,21.5114515 90.8079543,21.8461242 90.9391479,22.2584473 C91.0703416,22.6707703 91.1359375,23.1714407 91.1359375,23.7604736 L91.1359375,29.375 L89.1841064,29.375 L89.1841064,23.7444092 C89.1841064,23.4445379 89.1506392,23.1915253 89.0837036,22.9853638 C89.0167681,22.7792023 88.9190436,22.6118659 88.7905273,22.4833496 C88.6620111,22.3548333 88.5027068,22.2624637 88.3126099,22.2062378 C88.1225129,22.1500119 87.9043062,22.1218994 87.6579834,22.1218994 C87.2563701,22.1218994 86.9069717,22.2182852 86.6097778,22.4110596 C86.312584,22.603834 86.0756356,22.86354 85.8989258,23.1901855 L85.8989258,29.375 L83.9470947,29.375 L83.9470947,20.6841309 L85.7864746,20.6841309 Z M99.8107422,29.375 L97.8589111,29.375 L97.8589111,20.6841309 L99.8107422,20.6841309 L99.8107422,29.375 Z M97.7384277,18.4270752 C97.7384277,18.1272039 97.8334748,17.8782074 98.0235718,17.6800781 C98.2136688,17.4819489 98.485423,17.3828857 98.8388428,17.3828857 C99.1922625,17.3828857 99.4653555,17.4819489 99.6581299,17.6800781 C99.8509043,17.8782074 99.94729,18.1272039 99.94729,18.4270752 C99.94729,18.7215916 99.8509043,18.9665721 99.6581299,19.1620239 C99.4653555,19.3574757 99.1922625,19.4552002 98.8388428,19.4552002 C98.485423,19.4552002 98.2136688,19.3574757 98.0235718,19.1620239 C97.8334748,18.9665721 97.7384277,18.7215916 97.7384277,18.4270752 Z M104.003564,20.6841309 L104.05979,21.6881592 C104.365016,21.3186749 104.731818,21.032195 105.160205,20.8287109 C105.588593,20.6252268 106.065167,20.5234863 106.589941,20.5234863 C107.007619,20.5234863 107.386469,20.58105 107.726501,20.6961792 C108.066534,20.8113084 108.35703,20.9973864 108.597998,21.2544189 C108.838966,21.5114515 109.025044,21.8461242 109.156238,22.2584473 C109.287431,22.6707703 109.353027,23.1714407 109.353027,23.7604736 L109.353027,29.375 L107.401196,29.375 L107.401196,23.7444092 C107.401196,23.4445379 107.367729,23.1915253 107.300793,22.9853638 C107.233858,22.7792023 107.136133,22.6118659 107.007617,22.4833496 C106.879101,22.3548333 106.719797,22.2624637 106.5297,22.2062378 C106.339603,22.1500119 106.121396,22.1218994 105.875073,22.1218994 C105.47346,22.1218994 105.124062,22.2182852 104.826868,22.4110596 C104.529674,22.603834 104.292725,22.86354 104.116016,23.1901855 L104.116016,29.375 L102.164185,29.375 L102.164185,20.6841309 L104.003564,20.6841309 Z M123.586133,26.6842041 L124.967676,20.6841309 L126.871313,20.6841309 L124.501807,29.375 L122.895361,29.375 L121.031885,23.4070557 L119.200537,29.375 L117.594092,29.375 L115.216553,20.6841309 L117.12019,20.6841309 L118.52583,26.6199463 L120.308984,20.6841309 L121.778882,20.6841309 L123.586133,26.6842041 Z M130.509912,29.375 L128.558081,29.375 L128.558081,20.6841309 L130.509912,20.6841309 L130.509912,29.375 Z M128.437598,18.4270752 C128.437598,18.1272039 128.532645,17.8782074 128.722742,17.6800781 C128.912839,17.4819489 129.184593,17.3828857 129.538013,17.3828857 C129.891432,17.3828857 130.164525,17.4819489 130.3573,17.6800781 C130.550074,17.8782074 130.64646,18.1272039 130.64646,18.4270752 C130.64646,18.7215916 130.550074,18.9665721 130.3573,19.1620239 C130.164525,19.3574757 129.891432,19.4552002 129.538013,19.4552002 C129.184593,19.4552002 128.912839,19.3574757 128.722742,19.1620239 C128.532645,18.9665721 128.437598,18.7215916 128.437598,18.4270752 Z M135.33728,18.5716553 L135.33728,20.6841309 L136.871436,20.6841309 L136.871436,22.1299316 L135.33728,22.1299316 L135.33728,26.9813965 C135.33728,27.1795257 135.358699,27.3401687 135.401538,27.4633301 C135.444377,27.5864915 135.505957,27.6815386 135.586279,27.7484741 C135.666602,27.8154097 135.761649,27.8609252 135.871423,27.885022 C135.981198,27.9091188 136.103019,27.921167 136.23689,27.921167 C136.370761,27.921167 136.500614,27.9117962 136.626453,27.8930542 C136.752291,27.8743122 136.850016,27.8569093 136.919629,27.8408447 L136.919629,29.3509033 C136.764338,29.3937421 136.583615,29.4352415 136.377454,29.4754028 C136.171292,29.5155642 135.923634,29.5356445 135.634473,29.5356445 C135.313182,29.5356445 135.014654,29.4928064 134.738879,29.4071289 C134.463105,29.3214514 134.224818,29.1822275 134.024011,28.9894531 C133.823205,28.7966787 133.666578,28.5450048 133.554126,28.2344238 C133.441674,27.9238428 133.385449,27.5436546 133.385449,27.0938477 L133.385449,22.1299316 L131.955713,22.1299316 L131.955713,20.6841309 L133.385449,20.6841309 L133.385449,18.5716553 L135.33728,18.5716553 Z M140.542163,21.6319336 C140.842034,21.2838687 141.195449,21.0121144 141.602417,20.8166626 C142.009385,20.6212108 142.461863,20.5234863 142.959863,20.5234863 C143.382896,20.5234863 143.768439,20.5823887 144.116504,20.7001953 C144.464569,20.8180019 144.761758,21.0067573 145.008081,21.2664673 C145.254404,21.5261772 145.444498,21.8635274 145.578369,22.2785278 C145.71224,22.6935283 145.779175,23.1955374 145.779175,23.7845703 L145.779175,29.375 L143.827344,29.375 L143.827344,23.7685059 C143.827344,23.1687633 143.697491,22.7443982 143.437781,22.4953979 C143.178071,22.2463977 142.796544,22.1218994 142.293188,22.1218994 C141.88622,22.1218994 141.536822,22.2156078 141.244983,22.4030273 C140.953144,22.5904469 140.718873,22.8447982 140.542163,23.1660889 L140.542163,29.375 L138.590332,29.375 L138.590332,17.0375 L140.542163,17.0375 L140.542163,21.6319336 Z M161.514307,27.8569092 C161.391145,28.0175545 161.219793,28.1956004 161.000244,28.3910522 C160.780696,28.5865041 160.498232,28.7685661 160.152844,28.9372437 C159.807457,29.1059213 159.392463,29.2478225 158.907849,29.3629517 C158.423236,29.4780808 157.854292,29.5356445 157.201001,29.5356445 C156.467387,29.5356445 155.794026,29.4098076 155.180896,29.1581299 C154.567766,28.9064522 154.041661,28.5423282 153.602563,28.0657471 C153.163466,27.5891659 152.8221,27.0028192 152.578455,26.3066895 C152.334809,25.6105597 152.212988,24.8153772 152.212988,23.9211182 L152.212988,23.1500244 C152.212988,22.2611202 152.322761,21.4672764 152.54231,20.7684692 C152.761858,20.069662 153.077789,19.4792993 153.490112,18.9973633 C153.902435,18.5154273 154.405783,18.1486259 155.000171,17.8969482 C155.594559,17.6452706 156.269259,17.5194336 157.024292,17.5194336 C157.736486,17.5194336 158.357639,17.6118033 158.887769,17.7965454 C159.417898,17.9812875 159.865021,18.2396549 160.22915,18.5716553 C160.59328,18.9036556 160.87976,19.2985695 161.088599,19.7564087 C161.297438,20.2142479 161.436661,20.716257 161.506274,21.2624512 L159.514282,21.2624512 C159.466089,20.957225 159.385767,20.6760999 159.273315,20.4190674 C159.160864,20.1620348 159.006914,19.9398121 158.811462,19.7523926 C158.616011,19.564973 158.375046,19.417717 158.088562,19.3106201 C157.802078,19.2035232 157.460712,19.1499756 157.064453,19.1499756 C156.587872,19.1499756 156.174216,19.2383292 155.823474,19.4150391 C155.472732,19.5917489 155.180897,19.8501163 154.947961,20.1901489 C154.715026,20.5301816 154.540996,20.9478532 154.425867,21.4431763 C154.310738,21.9384994 154.253174,22.5020883 154.253174,23.13396 L154.253174,23.9211182 C154.253174,24.5636995 154.322786,25.1326432 154.462012,25.6279663 C154.601238,26.1232894 154.800703,26.5396223 155.060413,26.8769775 C155.320123,27.2143327 155.636054,27.4713614 156.008215,27.6480713 C156.380377,27.8247812 156.802065,27.9131348 157.273291,27.9131348 C157.621356,27.9131348 157.919884,27.890377 158.168884,27.8448608 C158.417885,27.7993447 158.628059,27.7417809 158.799414,27.672168 C158.970769,27.602555 159.111332,27.5262496 159.221106,27.4432495 C159.33088,27.3602494 159.420573,27.2812667 159.490186,27.2062988 L159.490186,24.9171143 L157.080518,24.9171143 L157.080518,23.3749268 L161.514307,23.3749268 L161.514307,27.8569092 Z M163.450073,24.9492432 C163.450073,24.3173715 163.542443,23.7323635 163.727185,23.1942017 C163.911927,22.6560398 164.176988,22.1888366 164.522375,21.7925781 C164.867763,21.3963196 165.289451,21.0857433 165.787451,20.8608398 C166.285452,20.6359364 166.850379,20.5234863 167.482251,20.5234863 C168.119477,20.5234863 168.68976,20.6359364 169.193115,20.8608398 C169.696471,21.0857433 170.120836,21.3963196 170.466223,21.7925781 C170.811611,22.1888366 171.075333,22.6560398 171.257397,23.1942017 C171.439462,23.7323635 171.530493,24.3173715 171.530493,24.9492432 L171.530493,25.1179199 C171.530493,25.7497916 171.439462,26.3361382 171.257397,26.8769775 C171.075333,27.4178168 170.811611,27.88502 170.466223,28.2786011 C170.120836,28.6721821 169.697809,28.9800811 169.197131,29.2023071 C168.696453,29.4245332 168.130187,29.5356445 167.498315,29.5356445 C166.861089,29.5356445 166.292145,29.4245332 165.791467,29.2023071 C165.290789,28.9800811 164.867763,28.6721821 164.522375,28.2786011 C164.176988,27.88502 163.911927,27.4178168 163.727185,26.8769775 C163.542443,26.3361382 163.450073,25.7497916 163.450073,25.1179199 L163.450073,24.9492432 Z M165.401904,25.1179199 C165.401904,25.5088236 165.442065,25.8783023 165.522388,26.2263672 C165.60271,26.5744321 165.728547,26.8783149 165.899902,27.1380249 C166.071257,27.3977349 166.289464,27.6025546 166.554529,27.7524902 C166.819594,27.9024259 167.134186,27.9773926 167.498315,27.9773926 C167.85709,27.9773926 168.169005,27.9024259 168.43407,27.7524902 C168.699135,27.6025546 168.916003,27.3977349 169.08468,27.1380249 C169.253358,26.8783149 169.379195,26.5744321 169.462195,26.2263672 C169.545195,25.8783023 169.586694,25.5088236 169.586694,25.1179199 L169.586694,24.9492432 C169.586694,24.5636944 169.545195,24.1982317 169.462195,23.8528442 C169.379195,23.5074568 169.252019,23.2049126 169.080664,22.9452026 C168.909309,22.6854927 168.691102,22.4779956 168.426038,22.3227051 C168.160973,22.1674146 167.84638,22.0897705 167.482251,22.0897705 C167.118122,22.0897705 166.806207,22.1674146 166.546497,22.3227051 C166.286787,22.4779956 166.071257,22.6854927 165.899902,22.9452026 C165.728547,23.2049126 165.60271,23.5074568 165.522388,23.8528442 C165.442065,24.1982317 165.401904,24.5636944 165.401904,24.9492432 L165.401904,25.1179199 Z M173.072681,24.9492432 C173.072681,24.3173715 173.16505,23.7323635 173.349792,23.1942017 C173.534535,22.6560398 173.799595,22.1888366 174.144983,21.7925781 C174.49037,21.3963196 174.912058,21.0857433 175.410059,20.8608398 C175.908059,20.6359364 176.472987,20.5234863 177.104858,20.5234863 C177.742085,20.5234863 178.312367,20.6359364 178.815723,20.8608398 C179.319078,21.0857433 179.743443,21.3963196 180.088831,21.7925781 C180.434218,22.1888366 180.69794,22.6560398 180.880005,23.1942017 C181.06207,23.7323635 181.153101,24.3173715 181.153101,24.9492432 L181.153101,25.1179199 C181.153101,25.7497916 181.06207,26.3361382 180.880005,26.8769775 C180.69794,27.4178168 180.434218,27.88502 180.088831,28.2786011 C179.743443,28.6721821 179.320417,28.9800811 178.819739,29.2023071 C178.319061,29.4245332 177.752795,29.5356445 177.120923,29.5356445 C176.483696,29.5356445 175.914753,29.4245332 175.414075,29.2023071 C174.913397,28.9800811 174.49037,28.6721821 174.144983,28.2786011 C173.799595,27.88502 173.534535,27.4178168 173.349792,26.8769775 C173.16505,26.3361382 173.072681,25.7497916 173.072681,25.1179199 L173.072681,24.9492432 Z M175.024512,25.1179199 C175.024512,25.5088236 175.064672,25.8783023 175.144995,26.2263672 C175.225318,26.5744321 175.351155,26.8783149 175.52251,27.1380249 C175.693865,27.3977349 175.912071,27.6025546 176.177136,27.7524902 C176.442201,27.9024259 176.756793,27.9773926 177.120923,27.9773926 C177.479697,27.9773926 177.791612,27.9024259 178.056677,27.7524902 C178.321742,27.6025546 178.53861,27.3977349 178.707288,27.1380249 C178.875965,26.8783149 179.001802,26.5744321 179.084802,26.2263672 C179.167802,25.8783023 179.209302,25.5088236 179.209302,25.1179199 L179.209302,24.9492432 C179.209302,24.5636944 179.167802,24.1982317 179.084802,23.8528442 C179.001802,23.5074568 178.874627,23.2049126 178.703271,22.9452026 C178.531916,22.6854927 178.31371,22.4779956 178.048645,22.3227051 C177.78358,22.1674146 177.468988,22.0897705 177.104858,22.0897705 C176.740729,22.0897705 176.428814,22.1674146 176.169104,22.3227051 C175.909394,22.4779956 175.693865,22.6854927 175.52251,22.9452026 C175.351155,23.2049126 175.225318,23.5074568 175.144995,23.8528442 C175.064672,24.1982317 175.024512,24.5636944 175.024512,24.9492432 L175.024512,25.1179199 Z M182.719385,24.9653076 C182.719385,24.3066617 182.799706,23.7042508 182.960352,23.1580566 C183.120997,22.6118625 183.35259,22.1433206 183.655139,21.752417 C183.957688,21.3615133 184.323151,21.0589692 184.751538,20.8447754 C185.179926,20.6305816 185.661854,20.5234863 186.197339,20.5234863 C186.722114,20.5234863 187.174591,20.6131786 187.554785,20.7925659 C187.934979,20.9719532 188.26162,21.2276432 188.534717,21.5596436 L188.623071,20.6841309 L190.382129,20.6841309 L190.382129,29.1340332 C190.382129,29.7177113 190.285743,30.2371234 190.092969,30.6922852 C189.900194,31.1474469 189.631117,31.5303126 189.28573,31.8408936 C188.940343,32.1514745 188.525348,32.3884228 188.040735,32.5517456 C187.556121,32.7150684 187.024661,32.7967285 186.446338,32.7967285 C186.20537,32.7967285 185.937632,32.7712934 185.643115,32.7204224 C185.348599,32.6695513 185.051409,32.5865525 184.751538,32.4714233 C184.451667,32.3562942 184.165187,32.2076995 183.89209,32.0256348 C183.618993,31.8435701 183.386061,31.6213473 183.193286,31.35896 L184.116992,30.1862549 C184.438283,30.5664488 184.787681,30.8395418 185.165198,31.005542 C185.542714,31.1715422 185.932273,31.254541 186.333887,31.254541 C186.981823,31.254541 187.493203,31.0791725 187.868042,30.7284302 C188.242881,30.3776879 188.430298,29.8622918 188.430298,29.1822266 L188.430298,28.595874 C188.157201,28.9011002 187.835915,29.1340324 187.466431,29.2946777 C187.096946,29.4553231 186.668565,29.5356445 186.181274,29.5356445 C185.651145,29.5356445 185.173232,29.4245332 184.747522,29.2023071 C184.321812,28.9800811 183.957688,28.6735208 183.655139,28.2826172 C183.35259,27.8917135 183.120997,27.4271877 182.960352,26.8890259 C182.799706,26.350864 182.719385,25.765856 182.719385,25.1339844 L182.719385,24.9653076 Z M184.663184,25.1339844 C184.663184,25.5195332 184.702006,25.8823184 184.779651,26.2223511 C184.857296,26.5623837 184.979117,26.8609118 185.145117,27.1179443 C185.311117,27.3749769 185.519953,27.5771192 185.771631,27.7243774 C186.023309,27.8716357 186.325853,27.9452637 186.679272,27.9452637 C187.11837,27.9452637 187.477139,27.852894 187.755591,27.6681519 C188.034043,27.4834097 188.258943,27.2384293 188.430298,26.9332031 L188.430298,23.1098633 C188.258943,22.8046371 188.032704,22.5636728 187.751575,22.3869629 C187.470445,22.210253 187.11837,22.1218994 186.695337,22.1218994 C186.341917,22.1218994 186.036696,22.1968661 185.779663,22.3468018 C185.522631,22.4967374 185.312456,22.7002184 185.149133,22.957251 C184.985811,23.2142835 184.86399,23.515489 184.783667,23.8608765 C184.703344,24.2062639 184.663184,24.574404 184.663184,24.9653076 L184.663184,25.1339844 Z M194.719531,29.375 L192.7677,29.375 L192.7677,17.0375 L194.719531,17.0375 L194.719531,29.375 Z M200.928442,29.5356445 C200.285861,29.5356445 199.707547,29.4285492 199.193481,29.2143555 C198.679416,29.0001617 198.243003,28.7056497 197.884229,28.3308105 C197.525454,27.9559714 197.249684,27.511526 197.056909,26.9974609 C196.864135,26.4833959 196.767749,25.9291778 196.767749,25.33479 L196.767749,25.013501 C196.767749,24.3280809 196.86949,23.7082669 197.072974,23.1540405 C197.276458,22.5998141 197.554905,22.1285949 197.908325,21.7403687 C198.261745,21.3521424 198.678078,21.0522756 199.157336,20.8407593 C199.636595,20.6292429 200.151991,20.5234863 200.70354,20.5234863 C201.335412,20.5234863 201.884275,20.6292429 202.350146,20.8407593 C202.816018,21.0522756 203.201561,21.3481264 203.506787,21.7283203 C203.812013,22.1085143 204.039591,22.5609918 204.189526,23.0857666 C204.339462,23.6105414 204.414429,24.1861785 204.414429,24.8126953 L204.414429,25.6480469 L198.735645,25.6480469 C198.762419,25.9854021 198.833369,26.2959784 198.948499,26.5797852 C199.063628,26.8635919 199.220255,27.1085724 199.418384,27.3147339 C199.616513,27.5208954 199.850784,27.682877 200.121204,27.8006836 C200.391623,27.9184902 200.698184,27.9773926 201.040894,27.9773926 C201.52283,27.9773926 201.94184,27.8810068 202.297937,27.6882324 C202.654034,27.495458 202.963272,27.2303972 203.225659,26.893042 L204.277881,27.8970703 C204.138655,28.1059092 203.965964,28.3080516 203.759802,28.5035034 C203.553641,28.6989552 203.312676,28.8729851 203.036902,29.0255981 C202.761127,29.1782112 202.449212,29.3013708 202.101147,29.3950806 C201.753083,29.4887903 201.362185,29.5356445 200.928442,29.5356445 Z M200.695508,22.0897705 C200.160023,22.0897705 199.727626,22.2771873 199.398303,22.6520264 C199.06898,23.0268655 198.858806,23.548955 198.767773,24.2183105 L202.486694,24.2183105 L202.486694,24.0737305 C202.47063,23.8166979 202.42913,23.5690401 202.362195,23.3307495 C202.295259,23.0924589 202.19218,22.8809457 202.052954,22.6962036 C201.913728,22.5114615 201.733005,22.3642055 201.510779,22.2544312 C201.288553,22.1446568 201.016798,22.0897705 200.695508,22.0897705 Z" id="Sign-in-with-Google" fill="#FFFFFF"></path>
                        <rect id="button-bg-copy" fill="#FFFFFF" x="1.175" y="1.175" width="44.65" height="44.65" rx="1"></rect>
                        <g id="logo_googleg_48dp" transform="translate(12.925000, 12.925000)">
                            <path d="M20.727,10.8153409 C20.727,10.0654773 20.6597045,9.34445455 20.5347273,8.65227273 L10.575,8.65227273 L10.575,12.742875 L16.2662727,12.742875 C16.021125,14.06475 15.2760682,15.1847386 14.1560795,15.9346023 L14.1560795,18.5879659 L17.5737273,18.5879659 C19.5733636,16.7469545 20.727,14.0359091 20.727,10.8153409 L20.727,10.8153409 Z" id="Shape" fill="#4285F4"></path>
                            <path d="M10.575,21.15 C13.43025,21.15 15.8240455,20.2030568 17.5737273,18.5879659 L14.1560795,15.9346023 C13.2091364,16.5691023 11.9978182,16.9440341 10.575,16.9440341 C7.82069318,16.9440341 5.48938636,15.0837955 4.65780682,12.58425 L1.12479545,12.58425 L1.12479545,15.3241364 C2.86486364,18.7802386 6.44113636,21.15 10.575,21.15 L10.575,21.15 Z" id="Shape" fill="#34A853"></path>
                            <path d="M4.65780682,12.58425 C4.44630682,11.94975 4.32613636,11.2719886 4.32613636,10.575 C4.32613636,9.87801136 4.44630682,9.20025 4.65780682,8.56575 L4.65780682,5.82586364 L1.12479545,5.82586364 C0.408579545,7.25348864 0,8.86857955 0,10.575 C0,12.2814205 0.408579545,13.8965114 1.12479545,15.3241364 L4.65780682,12.58425 L4.65780682,12.58425 Z" id="Shape" fill="#FBBC05"></path>
                            <path d="M10.575,4.20596591 C12.1276023,4.20596591 13.5215795,4.73952273 14.6175341,5.78740909 L17.6506364,2.75430682 C15.8192386,1.04788636 13.4254432,0 10.575,0 C6.44113636,0 2.86486364,2.36976136 1.12479545,5.82586364 L4.65780682,8.56575 C5.48938636,6.06620455 7.82069318,4.20596591 10.575,4.20596591 L10.575,4.20596591 Z" id="Shape" fill="#EA4335"></path>
                            <polygon id="Shape" points="0 0 21.15 0 21.15 21.15 0 21.15"></polygon>
                        </g>
                    </g>
                </g>
            </g>
        </g>
    </g>
</svg>