<?xml version="1.0" encoding="UTF-8"?>
<svg width="159px" height="30px" viewBox="0 0 159 30" version="1.1" xmlns="http://www.w3.org/2000/svg" xmlns:xlink="http://www.w3.org/1999/xlink">
    <!-- Generator: Sketch 49.3 (51167) - http://www.bohemiancoding.com/sketch -->
    <title>roast</title>
    <desc>Created with Sketch.</desc>
    <defs></defs>
    <g id="00.00-Home" stroke="none" stroke-width="1" fill="none" fill-rule="evenodd">
        <g transform="translate(-640.000000, -23.000000)" fill="#342C0C" id="Header">
            <g>
                <g id="roast" transform="translate(640.000000, 23.000000)">
                    <path d="M17.9576471,29.5833333 L13.3435294,21.25 L6.65098039,21.25 L6.65098039,29.5833333 L0.0831372549,29.5833333 L0.0831372549,0.416666667 L12.72,0.416666667 C20.3270588,0.416666667 24.6501961,4.08333333 24.6501961,10.5416667 C24.6501961,15.0416667 22.7380392,18.2916667 19.2047059,19.9583333 L25.3984314,29.5833333 L17.9576471,29.5833333 Z M6.65098039,15.75 L12.72,15.75 C16.3364706,15.75 18.414902,14.0833333 18.414902,10.75 C18.414902,7.5 16.3364706,5.875 12.72,5.875 L6.65098039,5.875 L6.65098039,15.75 Z M47.8870588,0.208333333 C56.7827451,0.208333333 63.5168627,6.54166667 63.5168627,15 C63.5168627,23.4166667 56.7827451,29.875 47.8870588,29.875 C38.9913725,29.875 32.2572549,23.4583333 32.2572549,15 C32.2572549,6.5 38.9913725,0.208333333 47.8870588,0.208333333 Z M47.9701961,5.95833333 C43.065098,5.95833333 38.9913725,9.875 38.9913725,15 C38.9913725,20.125 43.1066667,24.125 47.9701961,24.125 C52.8337255,24.125 56.7827451,20.125 56.7827451,15 C56.7827451,9.875 52.8337255,5.95833333 47.9701961,5.95833333 Z M90.4117647,23.9166667 L76.9435294,23.9166667 L74.6572549,29.5833333 L67.8815686,29.5833333 L80.5184314,0.416666667 L87.2941176,0.416666667 L99.7231373,29.5833333 L92.6980392,29.5833333 L90.4117647,23.9166667 Z M88.2917647,18.625 L83.7192157,7.29166667 L79.105098,18.625 L88.2917647,18.625 Z M117.389804,0.125 C121.463529,0.125 125.537255,1.375 128.447059,3.29166667 L125.911373,8.75 C122.835294,6.91666667 119.177255,5.75 116.849412,5.75 C114.646275,5.75 113.149804,6.54166667 113.149804,8.125 C113.149804,13.5 128.654902,10.5 128.613333,21 C128.613333,26.7083333 123.666667,29.7916667 117.223529,29.7916667 C112.443137,29.7916667 107.662745,27.9583333 104.378824,25.1666667 L106.997647,19.7916667 C109.990588,22.4583333 114.230588,24.1666667 117.306667,24.1666667 C120.008627,24.1666667 121.629804,23.1666667 121.629804,21.375 C121.629804,15.875 106.124706,19.0833333 106.124706,8.75 C106.124706,3.45833333 110.655686,0.125 117.389804,0.125 Z M158.833725,6 L149.938039,6 L149.938039,29.5833333 L143.370196,29.5833333 L143.370196,6 L134.516078,6 L134.516078,0.416666667 L158.833725,0.416666667 L158.833725,6 Z"></path>
                </g>
            </g>
        </g>
    </g>
</svg>