<?xml version="1.0" encoding="UTF-8"?>
<svg width="16px" height="13px" viewBox="0 0 16 13" version="1.1" xmlns="http://www.w3.org/2000/svg" xmlns:xlink="http://www.w3.org/1999/xlink">
    <!-- Generator: Sketch 49.3 (51167) - http://www.bohemiancoding.com/sketch -->
    <title>Shape</title>
    <desc>Created with Sketch.</desc>
    <defs></defs>
    <g id="Symbols" stroke="none" stroke-width="1" fill="none" fill-rule="evenodd">
        <g id="Component-/-Map-/-Roaster-Placemarker" transform="translate(-3.000000, -6.000000)" fill="#FFFFFF" fill-rule="nonzero">
            <g id="Roaster-Coffee-Icon">
                <path d="M15.5719752,6 C14.3904855,6 13.2864146,6.35531028 12.3791795,7.02750611 C11.5758651,7.62266269 10.9804556,8.44558471 10.7456377,9.28526814 C10.4768859,10.2462346 10.6952586,11.1145073 11.3285237,11.6875262 C11.1105621,12.0702556 10.9079704,12.4652557 10.7475036,12.8483962 C10.6001297,12.4817957 10.4038947,12.1534934 10.1819799,11.8609277 C10.49662,11.3609949 10.5401997,10.7502471 10.2930163,10.1243507 C10.0602541,9.53501316 9.58884734,8.99159558 8.96557586,8.59412876 C8.29328516,8.16541615 7.50170381,7.93882085 6.67644152,7.93882085 C5.61746824,7.93882085 4.53110744,8.32079127 3.53484713,9.04342945 L3,9.43140867 L3.63762937,9.60465208 C4.68948696,9.89041832 5.52898064,10.701386 6.26964524,11.4168768 C7.02580625,12.1473581 7.74006372,12.8372957 8.56750816,12.8375171 C8.56763466,12.8375171 8.56776117,12.8375171 8.56788767,12.8375171 C8.97506345,12.8375171 9.36421281,12.6747733 9.75377329,12.3420435 C10.1275844,12.8690475 10.3934899,13.5151525 10.3934899,14.3008515 L10.3934899,18.317265 L11.025996,18.317265 C11.025996,18.317265 11.0265653,14.4343735 11.0265653,14.2254568 C11.0265653,13.7207169 11.3226413,12.9767001 11.8501514,12.0470426 C12.241894,12.2585843 12.6079569,12.3618409 12.964469,12.3618409 C14.1270151,12.3618409 14.883018,11.2494841 15.6834228,10.0718527 C16.3978384,9.02069085 17.2075727,7.8292708 18.4123702,7.21226113 L19,6.91131474 L18.3971901,6.64199366 C17.4435923,6.21600082 16.4930622,6 15.5719752,6 Z M8.56788767,12.2049794 C8.56782442,12.2049794 8.56776117,12.2049794 8.56766629,12.2049794 C7.99572268,12.2048213 7.39949083,11.6288296 6.70911046,10.9619152 C6.05563682,10.3306425 5.33062673,9.63023695 4.4224429,9.21825413 C5.1607356,8.78859275 5.91667523,8.57132692 6.67644152,8.57132692 C8.20163503,8.57132692 9.35434571,9.46948554 9.70472245,10.3566702 C9.79545544,10.5864596 9.88925609,10.9668804 9.7360315,11.3476491 C9.16861031,10.7715625 8.54407381,10.3779224 8.15543046,10.1329844 C8.04176912,10.0613215 7.94360418,9.99946237 7.87804492,9.9528783 L7.51150766,10.4683391 C7.59139317,10.5251698 7.69651568,10.5914248 7.81817822,10.6680845 C8.21852294,10.9204228 8.82601339,11.3034369 9.3504558,11.8547608 C9.07727643,12.0899266 8.82041571,12.2049794 8.56788767,12.2049794 Z M15.1602454,9.7162894 C14.4261272,10.7964516 13.7921032,11.7293032 12.9644373,11.7293032 C12.7216815,11.7293032 12.4616899,11.6547308 12.1739313,11.5027079 C12.2022043,11.4571991 12.2307619,11.4114373 12.2600153,11.3652011 C12.8866707,10.374412 13.5230667,9.5721729 13.5294234,9.56417169 L13.034519,9.17031017 C12.9802816,9.23846269 12.3125766,10.0825737 11.6621706,11.1280746 C11.2796626,10.7159969 11.1667286,10.1280192 11.3547727,9.45560203 C11.5524941,8.74864999 12.0630846,8.04884528 12.7557103,7.53569311 C13.3118097,7.12367866 14.2518718,6.63247444 15.5719752,6.63247444 C16.2189657,6.63247444 16.8853741,6.75198646 17.5599734,6.98851211 C16.52532,7.70782963 15.8060341,8.76613879 15.1602454,9.7162894 Z" id="Shape"></path>
            </g>
        </g>
    </g>
</svg>