<?xml version="1.0" encoding="UTF-8"?>
<svg width="20px" height="31px" viewBox="0 0 20 31" version="1.1" xmlns="http://www.w3.org/2000/svg" xmlns:xlink="http://www.w3.org/1999/xlink">
    <!-- Generator: Sketch 49.3 (51167) - http://www.bohemiancoding.com/sketch -->
    <title>Roaster Coffee Icon</title>
    <desc>Created with Sketch.</desc>
    <defs>
        <filter x="-27.9%" y="-111.6%" width="155.8%" height="323.2%" filterUnits="objectBoundingBox" id="filter-1">
            <feGaussianBlur stdDeviation="1.11607143" in="SourceGraphic"></feGaussianBlur>
        </filter>
    </defs>
    <g id="Symbols" stroke="none" stroke-width="1" fill="none" fill-rule="evenodd">
        <g id="Component-/-Map-/-Roaster-Placemarker">
            <g id="Roaster-Coffee-Icon">
                <ellipse id="Shadow" fill-opacity="0.437301857" fill="#342C0C" filter="url(#filter-1)" cx="10" cy="27.5" rx="6" ry="1.5"></ellipse>
                <path d="M10,27.5530149 C10.0483866,27.5530149 20,15.5228475 20,10 C20,4.4771525 15.5228475,0 10,0 C4.4771525,0 0,4.4771525 0,10 C0,15.5228475 9.95161342,27.5530149 10,27.5530149 Z" id="Oval-Copy" fill="#E8635F"></path>
                <path d="M14.7862268,6 C13.6785802,6 12.6435137,6.33310339 11.7929808,6.96328698 C11.0398736,7.52124627 10.4816771,8.29273567 10.2615353,9.07993888 C10.0095805,9.98084495 10.2143049,10.7948506 10.8079909,11.3320558 C10.6036519,11.6908646 10.4137222,12.0611772 10.2632846,12.4203714 C10.1251216,12.0766835 9.94115124,11.7689001 9.73310616,11.4946197 C10.0280813,11.0259327 10.0689372,10.4533566 9.83720282,9.86657877 C9.61898823,9.31407484 9.17704438,8.80462085 8.59272737,8.43199571 C7.96245484,8.03007764 7.22034732,7.81764455 6.44666393,7.81764455 C5.45387647,7.81764455 4.43541322,8.17574181 3.50141919,8.85321511 L3,9.21694563 L3.59777753,9.37936133 C4.58389402,9.64726718 5.37091935,10.4075494 6.06529242,11.078322 C6.77419336,11.7631482 7.44380974,12.4099647 8.2195389,12.4101723 C8.2196575,12.4101723 8.21977609,12.4101723 8.21989469,12.4101723 C8.60162198,12.4101723 8.96644951,12.2576 9.33166246,11.9456658 C9.68211036,12.4397321 9.93139681,13.0454554 9.93139681,13.7820483 L9.93139681,17.547436 L10.5243712,17.547436 C10.5243712,17.547436 10.5249049,13.9072252 10.5249049,13.7113657 C10.5249049,13.2381721 10.8024763,12.5406563 11.2970169,11.6691025 C11.6642757,11.8674228 12.0074596,11.9642259 12.3416897,11.9642259 C13.4315767,11.9642259 14.1403294,10.9213914 14.8907089,9.8173619 C15.5604735,8.83189768 16.3195994,7.71494137 17.4490971,7.13649481 L18,6.85435757 L17.4348657,6.60186906 C16.5408678,6.20250077 15.6497458,6 14.7862268,6 Z M8.21989469,11.8171682 C8.21983539,11.8171682 8.21977609,11.8171682 8.21968715,11.8171682 C7.68349001,11.8170199 7.12452266,11.2770278 6.47729106,10.6517955 C5.86465951,10.0599774 5.18496256,9.40334714 4.33354022,9.01711324 C5.02568963,8.61430571 5.73438303,8.41061899 6.44666393,8.41061899 C7.87653284,8.41061899 8.95719911,9.25264269 9.2856773,10.0843783 C9.37073948,10.2998059 9.45867759,10.6564504 9.31502953,11.013421 C8.78307216,10.4733399 8.1975692,10.1043022 7.83321606,9.87467288 C7.72665855,9.80748887 7.63462892,9.74949597 7.57316712,9.7058234 L7.22953843,10.1890679 C7.3044311,10.2423467 7.40298345,10.3044607 7.51704209,10.3763293 C7.89236526,10.6128964 8.46188756,10.9719721 8.95355231,11.4888382 C8.69744665,11.7093061 8.45663973,11.8171682 8.21989469,11.8171682 Z M14.4002301,9.48402132 C13.7119943,10.4966734 13.1175967,11.3712218 12.34166,11.3712218 C12.1140764,11.3712218 11.8703343,11.3013101 11.6005606,11.1587887 C11.6270665,11.1161242 11.6538393,11.0732225 11.6812644,11.029876 C12.2687538,10.1010112 12.865375,9.34891209 12.8713344,9.34141096 L12.4073616,8.97216578 C12.356514,9.03605878 11.7305406,9.82741281 11.1207849,10.8075699 C10.7621836,10.4212471 10.6563081,9.87001803 10.8325994,9.2396269 C11.0179632,8.57685937 11.4966418,7.92079245 12.1459784,7.43971229 C12.6673216,7.05344874 13.5486298,6.59294479 14.7862268,6.59294479 C15.3927803,6.59294479 16.0175382,6.70498731 16.6499751,6.9267301 C15.6799875,7.60109028 15.005657,8.59325511 14.4002301,9.48402132 Z" id="Shape" fill="#FFFFFF" fill-rule="nonzero"></path>
            </g>
        </g>
    </g>
</svg>