<?xml version="1.0" encoding="UTF-8"?>
<svg width="15px" height="14px" viewBox="0 0 15 14" version="1.1" xmlns="http://www.w3.org/2000/svg" xmlns:xlink="http://www.w3.org/1999/xlink">
    <!-- Generator: Sketch 49.3 (51167) - http://www.bohemiancoding.com/sketch -->
    <title>coffee tree</title>
    <desc>Created with Sketch.</desc>
    <defs></defs>
    <g id="Page-1" stroke="none" stroke-width="1" fill="none" fill-rule="evenodd">
        <g id="Group" transform="translate(-4.000000, -1.000000)" fill-rule="nonzero">
            <g id="coffee-tree" transform="translate(4.000000, 1.000000)">
                <path d="M11.1905488,10.5187919 C12.1280488,10.2087248 13.0792683,10.147651 14.4329268,10.0630872 C14.7301829,10.0442953 14.8536585,9.66845638 14.6295732,9.46644295 C13.660061,8.60671141 12.7088415,8.17449664 11.3414634,7.88791946 C11.2271341,7.86442953 11.1631098,7.73288591 11.2179878,7.6295302 C11.3689024,7.32416107 11.464939,6.99530201 11.5015244,6.65704698 C11.5198171,6.50201342 11.3597561,6.39865772 11.2317073,6.47852349 C10.4634146,6.96241611 9.55335366,7.41342282 8.74390244,7.74228188 C8.94512195,7.47919463 9.12804878,7.20671141 9.28353659,6.93892617 C9.75914634,6.1261745 10.1158537,5.1114094 9.88719512,4.17651007 C9.88262195,4.16711409 9.88262195,4.15771812 9.87804878,4.14832215 C9.84146341,4.00268456 9.65853659,3.96040268 9.56707317,4.07785235 C9.52591463,4.1295302 9.4847561,4.18120805 9.44359756,4.23288591 C9.33841463,4.36442953 9.12804878,4.28926174 9.12804878,4.11543624 C9.12804878,3.59395973 8.98628049,3.08657718 8.74847561,2.56979866 C8.67530488,2.41006711 8.44207317,2.43825503 8.41006098,2.61208054 C8.39634146,2.68724832 8.38262195,2.76241611 8.36890244,2.83288591 C8.34146341,2.99261745 8.14481707,3.03959732 8.05335366,2.91275168 C7.39481707,1.99194631 6.31097561,0.953691275 5.19969512,0.310067114 C5.05335366,0.225503356 4.88414634,0.375838926 4.94817073,0.53557047 C5.27286585,1.37651007 5.39176829,2.06711409 5.45121951,3.34026846 C5.46036585,3.5 5.27743902,3.59395973 5.15853659,3.49060403 C5.08536585,3.42483221 5.00762195,3.36375839 4.92987805,3.30268456 C4.77896341,3.1852349 4.5777439,3.3590604 4.66463415,3.53288591 C4.91615854,4.04496644 5.20884146,4.62281879 5.42835366,5.16308725 C5.49695122,5.32751678 5.31402439,5.48255034 5.16768293,5.3885906 C5.16310976,5.38389262 5.15853659,5.38389262 5.15396341,5.37919463 C4.98932927,5.27114094 4.80182927,5.47315436 4.91158537,5.63758389 C5.27286585,6.16845638 5.57926829,6.72281879 5.74847561,7.71879195 C5.75304878,7.75167785 5.76676829,7.78456376 5.78963415,7.80805369 L6.71341463,8.89798658 C6.72256098,8.90738255 6.72713415,8.91677852 6.73628049,8.93087248 L7.7652439,10.842953 C7.77896341,10.866443 7.79268293,10.8852349 7.81554878,10.8993289 C8.44664634,11.3832215 9.07317073,11.8671141 9.70426829,12.3510067 C9.9054878,12.5060403 10.0015244,12.5765101 10.2118902,12.7127517 C10.3582317,12.8067114 10.5320122,12.6563758 10.472561,12.4919463 C10.3856707,12.252349 10.2942073,12.0127517 10.2027439,11.7778523 C10.1478659,11.6322148 10.285061,11.4818792 10.4314024,11.538255 C10.6189024,11.6087248 10.7972561,11.6697987 11.0121951,11.7590604 C11.1768293,11.8295302 11.2957317,11.890604 11.625,11.9610738 C11.7987805,11.9986577 11.9131098,11.7872483 11.7896341,11.6557047 C11.5426829,11.3879195 11.3140244,11.1013423 11.1036585,10.8006711 C11.0304878,10.6973154 11.0762195,10.5563758 11.1905488,10.5187919 Z" id="Shape" fill="#FFFFFF"></path>
                <path d="M0.0411585366,13.9718121 L0.00457317073,13.4597315 C0.0365853659,13.4597315 3.08231707,13.1919463 5.58841463,9.95503356 C8.23170732,6.53959732 6.58536585,3.12885906 6.57164634,3.09597315 L7.0152439,2.86107383 C7.03353659,2.89865772 7.48170732,3.81006711 7.5777439,5.18657718 C7.66920732,6.45033557 7.46341463,8.36241611 5.97713415,10.2791946 C3.33384146,13.6946309 0.173780488,13.9624161 0.0411585366,13.9718121 Z" id="Shape" fill="#000000"></path>
                <path d="M7.16158537,9.51812081 L6.91920732,9.06711409 C7.70121951,8.62550336 8.47865854,7.8033557 9.06402439,6.80738255 C9.43445122,6.17315436 9.83231707,5.24295302 9.66310976,4.35503356 L9.63567073,4.39261745 C9.52134146,4.53825503 9.33384146,4.58993289 9.16006098,4.52885906 C8.98628049,4.46308725 8.87652439,4.3033557 8.87652439,4.11543624 C8.87652439,3.73020134 8.78963415,3.3261745 8.61128049,2.88926174 C8.57926829,3.05838926 8.45121951,3.18993289 8.29115854,3.22751678 C8.12652439,3.26979866 7.9527439,3.20402685 7.85213415,3.05838926 C7.21189024,2.16107383 6.20579268,1.2261745 5.25457317,0.634228188 C5.53353659,1.41879195 5.64786585,2.11409396 5.7027439,3.3261745 C5.71189024,3.5 5.61585366,3.66442953 5.46493902,3.73959732 C5.3277439,3.81006711 5.16310976,3.79597315 5.03506098,3.7114094 C5.24542683,4.13892617 5.47865854,4.61342282 5.66158537,5.05973154 C5.7347561,5.23825503 5.68445122,5.44026846 5.54268293,5.56241611 C5.45579268,5.63758389 5.34603659,5.67516779 5.24085366,5.66577181 C5.60213415,6.2295302 5.85823171,6.80268456 6.00914634,7.71879195 L5.5152439,7.8033557 C5.35060976,6.78389262 5.0304878,6.24362416 4.71493902,5.77852349 C4.59603659,5.60469799 4.61432927,5.37919463 4.75609756,5.22416107 C4.85670732,5.11610738 4.99847561,5.06912752 5.13567073,5.09261745 C4.96189024,4.67919463 4.75152439,4.25637584 4.54573171,3.84295302 L4.44512195,3.6409396 C4.35365854,3.45771812 4.39939024,3.23691275 4.55487805,3.10536913 C4.71036585,2.9738255 4.92987805,2.96912752 5.08536585,3.09127517 C5.12195122,3.11946309 5.15853659,3.15234899 5.19969512,3.18053691 C5.1402439,2.03422819 5.02134146,1.39530201 4.72408537,0.620134228 C4.6554878,0.446308725 4.70121951,0.248993289 4.8429878,0.126845638 C4.98018293,0.00469798658 5.1722561,-0.0187919463 5.33231707,0.0751677852 C6.36128049,0.671812081 7.43140244,1.63489933 8.16310976,2.60738255 C8.16768293,2.5885906 8.1722561,2.56979866 8.1722561,2.54630872 C8.20884146,2.35838926 8.35060976,2.21744966 8.53810976,2.19395973 C8.72560976,2.1704698 8.90396341,2.26912752 8.98170732,2.44295302 C9.2195122,2.95973154 9.35213415,3.43892617 9.37957317,3.89932886 C9.4847561,3.77248322 9.64481707,3.7114094 9.80487805,3.74899329 C9.96493902,3.78657718 10.0884146,3.90872483 10.125,4.06845638 L10.1341463,4.10134228 C10.3993902,5.19127517 9.9375,6.31409396 9.50304878,7.05637584 C8.86737805,8.14161074 8.01676829,9.03422819 7.16158537,9.51812081 Z" id="Shape" fill="#000000"></path>
                <path d="M10.2987805,12.9946309 C10.2210366,12.9946309 10.1432927,12.9711409 10.070122,12.9288591 C9.85060976,12.7879195 9.75,12.7127517 9.54878049,12.5577181 L7.63262195,11.0825503 L7.93445122,10.6691275 L9.85060976,12.1442953 C9.97865854,12.242953 10.0609756,12.3040268 10.1615854,12.3744966 C10.097561,12.2053691 10.0335366,12.0362416 9.9695122,11.8718121 C9.9054878,11.7073826 9.94207317,11.5288591 10.0609756,11.4020134 C10.179878,11.2751678 10.3582317,11.2375839 10.5182927,11.2939597 C10.5731707,11.3127517 10.6280488,11.3362416 10.6829268,11.3550336 C10.8155488,11.4020134 10.9481707,11.4536913 11.1036585,11.5194631 C11.1310976,11.5288591 11.1539634,11.538255 11.1768293,11.552349 C11.2591463,11.5852349 11.3323171,11.6181208 11.4420732,11.6510067 C11.25,11.4302013 11.0670732,11.195302 10.8978659,10.9510067 C10.8155488,10.833557 10.7972561,10.6879195 10.8384146,10.5516779 C10.8795732,10.4154362 10.9847561,10.3120805 11.117378,10.2697987 C12.1006098,9.94563758 13.1204268,9.88456376 14.4146341,9.80469799 C14.4603659,9.8 14.4786585,9.77181208 14.4832317,9.74832215 C14.4878049,9.7295302 14.4969512,9.69194631 14.4603659,9.6590604 C13.5503049,8.8557047 12.6631098,8.42818792 11.2911585,8.14161074 C11.1585366,8.11342282 11.0487805,8.02416107 10.9893293,7.89731544 C10.929878,7.7704698 10.929878,7.6295302 10.9939024,7.50738255 C11.1082317,7.27718121 11.1859756,7.02818792 11.2271341,6.77449664 C10.5045732,7.21610738 9.63567073,7.64832215 8.83079268,7.97718121 L8.64786585,7.49798658 C9.47560976,7.16442953 10.367378,6.71342282 11.089939,6.26241611 C11.2317073,6.17315436 11.4054878,6.17315436 11.5472561,6.26711409 C11.6890244,6.36107383 11.7621951,6.52080537 11.7439024,6.69463087 C11.7073171,7.02818792 11.6158537,7.35234899 11.4786585,7.65771812 C12.8734756,7.96308725 13.8384146,8.43288591 14.7896341,9.2738255 C14.9679878,9.43355705 15.0365854,9.68724832 14.9634146,9.91744966 C14.8856707,10.147651 14.6844512,10.3073826 14.4466463,10.3214765 C13.2301829,10.3966443 12.2606707,10.4577181 11.3597561,10.7348993 C11.5472561,10.9932886 11.7484756,11.2422819 11.9634146,11.4771812 C12.0960366,11.6181208 12.1189024,11.8295302 12.027439,11.9986577 C11.9359756,12.1677852 11.7484756,12.257047 11.5609756,12.2147651 C11.2591463,12.1489933 11.117378,12.0879195 10.9801829,12.0315436 L10.9115854,12.0033557 C10.7652439,11.9422819 10.632622,11.895302 10.5091463,11.8483221 C10.5,11.8436242 10.4954268,11.8436242 10.4862805,11.8389262 C10.5594512,12.0268456 10.6280488,12.2147651 10.6966463,12.4026846 C10.7606707,12.5812081 10.7103659,12.7785235 10.5640244,12.9006711 C10.4908537,12.961745 10.3948171,12.9946309 10.2987805,12.9946309 Z" id="Shape" fill="#000000"></path>
                <path d="M7.9527439,10.0771812 L7.75152439,9.60738255 C7.83841463,9.56979866 9.94207317,8.63959732 12.4070122,8.94496644 L12.347561,9.45704698 C10.0243902,9.16577181 7.97560976,10.0677852 7.9527439,10.0771812 Z" id="Shape" fill="#000000"></path>
                <path d="M6.79573171,7.21610738 C7.29878049,7.72818792 7.19817073,8.57852349 6.58993902,8.94966443 C6.17835366,9.2033557 5.63414634,9.13758389 5.29115854,8.7852349 C4.78810976,8.27315436 4.88871951,7.42281879 5.49695122,7.05167785 C5.90853659,6.79798658 6.4527439,6.86845638 6.79573171,7.21610738 Z" id="Shape" fill="#FFFFFF"></path>
                <path d="M6.12347561,9.50402685 C6.62195122,10.0114094 6.52134146,10.857047 5.91768293,11.2281879 C5.50609756,11.4818792 4.96646341,11.4114094 4.62804878,11.0684564 C4.12957317,10.5610738 4.23018293,9.71543624 4.83384146,9.3442953 C5.24542683,9.09060403 5.7804878,9.15637584 6.12347561,9.50402685 Z" id="Shape" fill="#FFFFFF"></path>
                <path d="M7.89786585,11.0355705 C8.38262195,11.533557 8.28658537,12.3557047 7.69664634,12.7174497 C7.29420732,12.961745 6.77286585,12.8959732 6.43902439,12.5577181 C5.95426829,12.0597315 6.05030488,11.2375839 6.6402439,10.8758389 C7.04268293,10.6315436 7.56402439,10.6973154 7.89786585,11.0355705 Z" id="Shape" fill="#FFFFFF"></path>
                <ellipse id="Oval" fill="#FFFFFF" transform="translate(7.527060, 9.561495) rotate(-38.026247) translate(-7.527060, -9.561495) " cx="7.52706037" cy="9.56149497" rx="1.06551004" ry="1.06640418"></ellipse>
                <path d="M4.65091463,7.88322148 C5.14939024,8.39060403 5.04878049,9.23624161 4.44512195,9.60738255 C4.03353659,9.86107383 3.49390244,9.79060403 3.1554878,9.44765101 C2.6570122,8.94026846 2.75762195,8.09463087 3.36128049,7.72348993 C3.77286585,7.46979866 4.3125,7.54026846 4.65091463,7.88322148 Z" id="Shape" fill="#FFFFFF"></path>
                <path d="M3.92378049,10.0724832 C4.4222561,10.5798658 4.32164634,11.4255034 3.7179878,11.7966443 C3.30640244,12.0503356 2.76676829,11.9798658 2.42835366,11.6369128 C1.92987805,11.1295302 2.0304878,10.2838926 2.63414634,9.91275168 C3.04573171,9.6590604 3.58079268,9.72483221 3.92378049,10.0724832 Z" id="Shape" fill="#FFFFFF"></path>
                <path d="M5.87652439,11.8389262 C6.375,12.3463087 6.27439024,13.1919463 5.67073171,13.5630872 C5.25914634,13.8167785 4.7195122,13.7463087 4.38109756,13.4033557 C3.88262195,12.8959732 3.98323171,12.0503356 4.58689024,11.6791946 C4.99847561,11.4255034 5.53353659,11.4912752 5.87652439,11.8389262 Z" id="Shape" fill="#FFFFFF"></path>
                <path d="M6.04573171,9.35838926 C5.69817073,9.35838926 5.3597561,9.21744966 5.11737805,8.96845638 C4.82469512,8.66778523 4.68292683,8.25436242 4.73323171,7.83624161 C4.78353659,7.41812081 5.01676829,7.05167785 5.37347561,6.83087248 C5.57469512,6.70872483 5.80792683,6.64295302 6.04573171,6.64295302 C6.39329268,6.64295302 6.73170732,6.78389262 6.97408537,7.03288591 C7.26676829,7.33355705 7.40853659,7.74697987 7.35823171,8.16510067 C7.30792683,8.58322148 7.07469512,8.94966443 6.7179878,9.1704698 C6.51219512,9.29731544 6.28353659,9.35838926 6.04573171,9.35838926 Z M6.04115854,7.15503356 C5.89481707,7.15503356 5.74847561,7.19731544 5.625,7.27248322 C5.40091463,7.40872483 5.25457317,7.63892617 5.22713415,7.89731544 C5.19512195,8.16040268 5.2820122,8.41409396 5.4695122,8.60201342 C5.62042683,8.75704698 5.83079268,8.84161074 6.04573171,8.84161074 C6.19207317,8.84161074 6.33841463,8.79932886 6.46189024,8.72416107 C6.68597561,8.58791946 6.83231707,8.35771812 6.8597561,8.09932886 C6.89176829,7.83624161 6.80487805,7.58255034 6.61737805,7.39463087 C6.46646341,7.2442953 6.25609756,7.15503356 6.04115854,7.15503356 Z" id="Shape" fill="#3A3033"></path>
                <path d="M7.17073171,13.1214765 C6.83231707,13.1214765 6.50304878,12.9805369 6.2652439,12.7409396 C5.97713415,12.4496644 5.83993902,12.0456376 5.8902439,11.6369128 C5.94054878,11.2281879 6.16463415,10.8711409 6.51219512,10.6597315 C6.70884146,10.5375839 6.93292683,10.4765101 7.16615854,10.4765101 C7.50457317,10.4765101 7.83384146,10.6174497 8.07164634,10.857047 C8.3597561,11.1483221 8.49695122,11.552349 8.44664634,11.9610738 C8.39634146,12.3697987 8.1722561,12.7268456 7.82469512,12.938255 C7.62804878,13.0557047 7.40396341,13.1214765 7.17073171,13.1214765 Z M7.16615854,10.9838926 C7.02439024,10.9838926 6.88719512,11.0214765 6.76829268,11.0966443 C6.55335366,11.2281879 6.41615854,11.4442953 6.38414634,11.6979866 C6.35213415,11.9469799 6.43902439,12.1959732 6.61280488,12.3744966 C6.75457317,12.5201342 6.96036585,12.604698 7.16615854,12.604698 C7.30792683,12.604698 7.44512195,12.5671141 7.56402439,12.4919463 C7.77896341,12.3604027 7.91615854,12.1442953 7.94817073,11.890604 C7.98018293,11.6416107 7.89329268,11.3926174 7.7195122,11.214094 C7.5777439,11.0684564 7.37652439,10.9838926 7.16615854,10.9838926 Z" id="Shape" fill="#3A3033"></path>
                <path d="M7.50457317,10.8946309 C7.10670732,10.8946309 6.73628049,10.7114094 6.49390244,10.3919463 C6.05487805,9.81879195 6.16463415,8.97315436 6.73628049,8.51744966 C6.9695122,8.3295302 7.26219512,8.2261745 7.55487805,8.2261745 C7.9527439,8.2261745 8.32317073,8.40939597 8.56554878,8.72885906 C9.00457317,9.30201342 8.89481707,10.142953 8.32317073,10.6033557 C8.08993902,10.7912752 7.7972561,10.8946309 7.50457317,10.8946309 Z M7.55487805,8.73825503 C7.36737805,8.73825503 7.19359756,8.79932886 7.04268293,8.92147651 C6.69054878,9.20805369 6.61737805,9.72483221 6.88719512,10.0771812 C7.03353659,10.2697987 7.25762195,10.3825503 7.50457317,10.3825503 C7.69207317,10.3825503 7.86585366,10.3214765 8.01676829,10.1993289 C8.36890244,9.91275168 8.44207317,9.39597315 8.1722561,9.04362416 C8.02591463,8.85100671 7.7972561,8.73825503 7.55487805,8.73825503 Z" id="Shape" fill="#3A3033"></path>
                <path d="M5.37804878,11.6369128 C5.0304878,11.6369128 4.69664634,11.4959732 4.45426829,11.2469799 C4.16158537,10.9463087 4.01981707,10.5375839 4.07012195,10.1194631 C4.12042683,9.70134228 4.35365854,9.33959732 4.70579268,9.11879195 C4.9070122,8.9966443 5.13567073,8.93087248 5.37347561,8.93087248 C5.72103659,8.93087248 6.05487805,9.07181208 6.2972561,9.32080537 C6.58993902,9.62147651 6.73170732,10.0302013 6.68140244,10.4483221 C6.63109756,10.866443 6.39786585,11.2281879 6.04573171,11.4489933 C5.8445122,11.5711409 5.61128049,11.6369128 5.37804878,11.6369128 Z M5.37347561,9.44765101 C5.22713415,9.44765101 5.08536585,9.4852349 4.96189024,9.56510067 C4.74237805,9.70134228 4.59603659,9.92684564 4.56402439,10.1852349 C4.5320122,10.4436242 4.61890244,10.6973154 4.80182927,10.8852349 C4.9527439,11.0355705 5.15853659,11.1248322 5.37347561,11.1248322 C5.51981707,11.1248322 5.66158537,11.0872483 5.78506098,11.0073826 C6.00457317,10.8711409 6.15091463,10.6456376 6.18292683,10.3872483 C6.21493902,10.1288591 6.12804878,9.87516779 5.94512195,9.68724832 C5.79878049,9.53221477 5.58841463,9.44765101 5.37347561,9.44765101 Z" id="Shape" fill="#3A3033"></path>
                <path d="M3.9054878,10.0161074 C3.55792683,10.0161074 3.22408537,9.87516779 2.98170732,9.6261745 C2.68902439,9.32550336 2.5472561,8.91677852 2.59756098,8.49865772 C2.64786585,8.08053691 2.88109756,7.71879195 3.23323171,7.49798658 C3.43445122,7.37583893 3.66310976,7.31006711 3.90091463,7.31006711 C4.24847561,7.31006711 4.58231707,7.45100671 4.82469512,7.7 C5.11737805,8.00067114 5.25914634,8.40939597 5.20884146,8.82751678 C5.15853659,9.24563758 4.92530488,9.60738255 4.57317073,9.82818792 C4.37195122,9.95033557 4.14329268,10.0161074 3.9054878,10.0161074 Z M3.90091463,7.82684564 C3.75457317,7.82684564 3.61280488,7.86442953 3.48932927,7.9442953 C3.26981707,8.08053691 3.12347561,8.30604027 3.09146341,8.56442953 C3.05945122,8.82281879 3.14634146,9.07651007 3.32926829,9.26442953 C3.48018293,9.4147651 3.68597561,9.50402685 3.90091463,9.50402685 C4.0472561,9.50402685 4.18902439,9.46644295 4.3125,9.38657718 C4.5320122,9.25033557 4.67835366,9.02483221 4.71036585,8.76644295 C4.74237805,8.50805369 4.6554878,8.25436242 4.47256098,8.06644295 C4.32621951,7.91610738 4.11585366,7.82684564 3.90091463,7.82684564 Z" id="Shape" fill="#3A3033"></path>
                <path d="M3.17835366,12.2053691 C2.83079268,12.2053691 2.49695122,12.0644295 2.25457317,11.8154362 C1.96189024,11.5147651 1.82012195,11.1060403 1.87042683,10.6879195 C1.92073171,10.2697987 2.15396341,9.90805369 2.50609756,9.68724832 C2.70731707,9.56510067 2.93597561,9.49932886 3.17378049,9.49932886 C3.52134146,9.49932886 3.85518293,9.64026846 4.09756098,9.88926174 C4.3902439,10.1899329 4.5320122,10.5986577 4.48170732,11.0167785 C4.43140244,11.4348993 4.19817073,11.7966443 3.84603659,12.0174497 C3.64481707,12.1395973 3.41158537,12.2053691 3.17835366,12.2053691 Z M3.17378049,10.0161074 C3.02743902,10.0161074 2.88567073,10.0536913 2.76219512,10.133557 C2.54268293,10.2697987 2.39634146,10.495302 2.36432927,10.7536913 C2.33231707,11.0120805 2.41920732,11.2657718 2.60213415,11.4536913 C2.75304878,11.6040268 2.95884146,11.6932886 3.17378049,11.6932886 C3.32012195,11.6932886 3.46189024,11.6557047 3.58536585,11.5758389 C3.80487805,11.4395973 3.95121951,11.214094 3.98323171,10.9557047 C4.0152439,10.6973154 3.92835366,10.4436242 3.74542683,10.2557047 C3.5945122,10.1053691 3.38871951,10.0161074 3.17378049,10.0161074 Z" id="Shape" fill="#3A3033"></path>
                <path d="M5.13109756,13.9718121 C4.78353659,13.9718121 4.44969512,13.8308725 4.20731707,13.5818792 C3.91463415,13.2812081 3.77286585,12.8724832 3.82317073,12.4543624 C3.87347561,12.0362416 4.10670732,11.6744966 4.45884146,11.4536913 C4.66006098,11.3315436 4.88871951,11.2657718 5.12652439,11.2657718 C5.47408537,11.2657718 5.80792683,11.4067114 6.05030488,11.6557047 C6.3429878,11.9563758 6.4847561,12.3651007 6.43445122,12.7832215 C6.38414634,13.2013423 6.15091463,13.5630872 5.79878049,13.7838926 C5.59756098,13.9060403 5.36432927,13.9718121 5.13109756,13.9718121 Z M5.12652439,11.7825503 C4.98018293,11.7825503 4.83841463,11.8201342 4.71493902,11.9 C4.49542683,12.0362416 4.34908537,12.261745 4.31707317,12.5201342 C4.28506098,12.7785235 4.37195122,13.0322148 4.55487805,13.2201342 C4.70579268,13.3704698 4.91158537,13.4597315 5.12652439,13.4597315 C5.27286585,13.4597315 5.41463415,13.4221477 5.53810976,13.3422819 C5.75762195,13.2060403 5.90396341,12.9805369 5.93597561,12.7221477 C5.9679878,12.4637584 5.88109756,12.2100671 5.69817073,12.0221477 C5.5472561,11.8718121 5.34146341,11.7825503 5.12652439,11.7825503 Z" id="Shape" fill="#3A3033"></path>
            </g>
        </g>
    </g>
</svg>