<?xml version="1.0" encoding="UTF-8" standalone="no"?>
<svg width="340px" height="72px" viewBox="0 0 340 72" version="1.1" xmlns="http://www.w3.org/2000/svg" xmlns:xlink="http://www.w3.org/1999/xlink">
    <!-- Generator: Sketch 39.1 (31720) - http://www.bohemiancoding.com/sketch -->
    <title>ServerSideUp-BW</title>
    <desc>Created with Sketch.</desc>
    <defs></defs>
    <g id="02.00.00-Category" stroke="none" stroke-width="1" fill="none" fill-rule="evenodd">
        <g id="HD_02.00.00-ServerSideUp_Category" transform="translate(-128.000000, -26.000000)">
            <g id="Header">
                <g id="ServerSideUp-BW" transform="translate(128.000000, 26.000000)">
                    <g id="Group">
                        <g id="Layer_1" transform="translate(0.000000, 13.655172)">
                            <g id="Up" transform="translate(246.391279, 1.862069)" fill="#64DD17">
                                <path d="M24.4240732,29.8862069 C22.1506374,31.8103448 18.7097617,32.7724138 14.1321681,32.7724138 C4.82337042,32.7724138 0.184332628,28.5827586 0.184332628,20.2344828 L0.184332628,0.279310345 L3.28726519,0.279310345 L3.28726519,20.2344828 C3.28726519,26.6896552 6.91247353,29.9172414 14.1321681,29.9172414 C21.3825848,29.9172414 24.977071,26.7517241 24.977071,20.4206897 L24.977071,0.279310345 L28.0800036,0.279310345 L28.0800036,20.3586207 C28.0800036,24.7034483 26.8511194,27.8689655 24.4240732,29.8862069 L24.4240732,29.8862069 Z" id="Shape"></path>
                                <path d="M55.0232893,29.8551724 C52.9034641,32.2758621 49.8926979,33.4551724 45.9909906,33.4551724 C42.1814496,33.4551724 39.1706834,32.2137931 37.020136,29.7 L37.020136,40.437931 L33.9172035,40.437931 L33.9172035,9.24827586 L37.020136,9.24827586 L37.020136,12.4758621 C39.1706834,9.96206897 42.1507275,8.72068966 45.9602685,8.72068966 C49.8005316,8.72068966 52.8112978,9.9 54.9925672,12.2275862 C57.0202261,14.4310345 58.0340556,17.3793103 58.0340556,21.0103448 C58.0340556,24.7034483 57.0202261,27.6517241 55.0232893,29.8551724 L55.0232893,29.8551724 Z M46.2367674,11.6068966 C43.4103338,11.6068966 41.1676202,12.4758621 39.5086265,14.1827586 C37.8496329,15.9206897 37.020136,18.1551724 37.020136,20.8862069 C37.020136,27.3103448 40.0616244,30.537931 46.1753232,30.537931 C49.0017568,30.537931 51.1830263,29.6068966 52.7498536,27.7758621 C54.2245146,26.0689655 54.9618451,23.8344828 54.9618451,21.0413793 C54.9618451,18.1862069 54.1937925,15.9206897 52.6269652,14.1827586 C51.0908599,12.4758621 48.9403126,11.6068966 46.2367674,11.6068966 L46.2367674,11.6068966 Z" id="Shape"></path>
                            </g>
                            <g id="ServerSide" fill="#FFFFFF">
                                <path d="M3.47159782,11.9172414 C3.47159782,12.8172414 3.77881887,13.562069 4.42398306,14.1827586 C5.00770305,14.7724138 5.74503356,15.0827586 6.63597459,15.0827586 L14.992387,15.0827586 C15.9140502,15.0827586 16.7128249,15.237931 17.4194333,15.5482759 C18.1260417,15.8586207 18.801928,16.3241379 19.4778143,17.0068966 C20.1537006,17.6896552 20.6145322,18.3724138 20.8910311,19.0862069 C21.1675301,19.8 21.3211406,20.637931 21.3211406,21.5689655 L21.3211406,27.7758621 C21.3211406,28.737931 21.1982522,29.5448276 20.9217532,30.2586207 C20.6452543,30.9724138 20.1844227,31.6551724 19.5392585,32.337931 C18.8940943,32.9896552 18.1874859,33.4862069 17.4808775,33.7655172 C16.7742691,34.0448276 15.9754944,34.2 15.0538313,34.2 L6.39019776,34.2 C5.46853462,34.2 4.6697599,34.0448276 3.96315149,33.7655172 C3.25654309,33.4862069 2.58065679,33.0206897 1.90477049,32.3689655 C1.25960629,31.7172414 0.79877472,31.0344828 0.522275778,30.3206897 C0.245776837,29.6068966 0.122888418,28.7689655 0.122888418,27.837931 C0.122888418,27.4034483 0.276498941,27 0.583719987,26.6896552 C0.890941033,26.3793103 1.25960629,26.2241379 1.72043786,26.2241379 C2.15054732,26.2241379 2.51921258,26.3793103 2.79571152,26.6896552 C3.07221046,27 3.22582098,27.3724138 3.22582098,27.837931 C3.22582098,28.737931 3.53304203,29.4827586 4.17820623,30.1034483 C4.79264832,30.7241379 5.59142304,31.0655172 6.51308618,31.0655172 L14.8694986,31.0655172 C15.8218839,31.0655172 16.5899365,30.7551724 17.2043786,30.1034483 C17.8188207,29.4827586 18.1567638,28.7068966 18.1567638,27.8068966 L18.1567638,21.5689655 C18.1567638,20.6689655 17.8495428,19.9241379 17.2043786,19.2724138 C16.8664354,18.9310345 16.5284923,18.6827586 16.1905491,18.5275862 C15.852606,18.3724138 15.4532186,18.3103448 14.992387,18.3103448 L6.60525249,18.3103448 C5.68358935,18.3103448 4.88481463,18.1551724 4.17820623,17.8758621 C3.47159782,17.5965517 2.79571152,17.1310345 2.11982522,16.4482759 C1.47466102,15.7965517 1.01382945,15.0827586 0.73733051,14.3689655 C0.460831569,13.6551724 0.337943151,12.8172414 0.337943151,11.8862069 L0.337943151,5.92758621 C0.337943151,5.18275862 0.491553674,4.43793103 0.829496824,3.75517241 C1.16743997,3.07241379 1.56682733,2.42068966 2.08910311,1.89310345 C2.61137889,1.33448276 3.19509888,0.9 3.84026307,0.589655172 C4.48542727,0.279310345 5.13059147,0.124137931 5.77575566,0.124137931 L14.8080544,0.124137931 C15.7297176,0.124137931 16.5284923,0.279310345 17.2351007,0.55862069 C17.9417091,0.837931034 18.6175954,1.30344828 19.2934817,1.9862069 C19.969368,2.66896552 20.3994775,3.35172414 20.6759764,4.06551724 C20.9524753,4.77931034 21.0753638,5.61724138 21.0753638,6.54827586 C21.0753638,6.98275862 20.9217532,7.3862069 20.6145322,7.69655172 C20.3073111,8.00689655 19.9386459,8.16206897 19.4778143,8.16206897 C19.0477049,8.16206897 18.6790396,8.00689655 18.4025407,7.69655172 C18.1260417,7.3862069 17.9724312,7.0137931 17.9724312,6.54827586 C17.9724312,5.64827586 17.6652101,4.90344828 17.0200459,4.28275862 C16.3748818,3.63103448 15.6068291,3.28965517 14.7773323,3.28965517 L6.75886301,3.28965517 C5.83719987,3.28965517 5.06914726,3.6 4.42398306,4.22068966 C3.77881887,4.84137931 3.47159782,5.61724138 3.47159782,6.51724138 L3.47159782,11.9172414 L3.47159782,11.9172414 Z" id="Shape"></path>
                                <path d="M48.7252579,22.2517241 C48.7252579,22.6862069 48.5716474,23.0586207 48.2951484,23.3689655 C48.0186495,23.6793103 47.6499842,23.8034483 47.1584306,23.8034483 L32.012433,23.8034483 L32.012433,27.5896552 C32.012433,28.4896552 32.319654,29.2344828 32.9340961,29.8551724 C33.5485382,30.4758621 34.2858687,30.7862069 35.1768098,30.7862069 L45.1922159,30.7862069 C45.6223253,30.7862069 46.0217127,30.9413793 46.3289337,31.2206897 C46.6361548,31.5310345 46.7897653,31.8724138 46.7897653,32.3068966 C46.7897653,32.7413793 46.6361548,33.1137931 46.3289337,33.4241379 C46.0217127,33.7344828 45.6530474,33.8896552 45.1922159,33.8896552 L35.1768098,33.8896552 C34.2858687,33.8896552 33.487094,33.7344828 32.7190414,33.4241379 C31.9509888,33.1137931 31.2751025,32.6793103 30.7221046,32.0896552 C30.1691067,31.5310345 29.7082751,30.8482759 29.4010541,30.0724138 C29.0938331,29.2965517 28.9402225,28.4586207 28.9402225,27.5275862 L28.9402225,16.262069 C28.9402225,15.5172414 29.0938331,14.7724138 29.4317762,14.0896552 C29.7697194,13.4068966 30.1691067,12.7862069 30.6913825,12.2275862 C31.2136583,11.6689655 31.7973783,11.2344828 32.4118204,10.9241379 C33.0569845,10.6137931 33.7021487,10.4586207 34.3473129,10.4586207 L42.7037254,10.4586207 C43.4410559,10.4586207 44.1783864,10.6137931 44.9157169,10.9551724 C45.6223253,11.2965517 46.2674895,11.7310345 46.8512095,12.2586207 C47.4042074,12.7862069 47.865039,13.437931 48.2029821,14.1517241 C48.5409253,14.8655172 48.7252579,15.6103448 48.7252579,16.3862069 L48.7252579,22.2517241 L48.7252579,22.2517241 Z M32.0431551,20.7 L45.6223253,20.7 L45.6223253,16.3862069 C45.6223253,16.0758621 45.530159,15.7344828 45.3765485,15.3931034 C45.1922159,15.0517241 44.9771611,14.7413793 44.7313843,14.4931034 C44.4548854,14.2137931 44.1476643,13.9965517 43.8097212,13.8413793 C43.471778,13.6862069 43.1338349,13.5931034 42.7651696,13.5931034 L34.9003108,13.5931034 C34.5623677,13.5931034 34.2244245,13.6862069 33.8557593,13.8413793 C33.5178161,13.9965517 33.2105951,14.2137931 32.9340961,14.4931034 C32.6575972,14.7724138 32.4425425,15.0827586 32.2889319,15.3931034 C32.1045993,15.7344828 32.0431551,16.0448276 32.0431551,16.3862069 L32.0431551,20.7 L32.0431551,20.7 Z" id="Shape"></path>
                                <path d="M63.5025902,13.5310345 C62.5809271,13.5310345 61.8743187,13.7482759 61.3520429,14.1517241 C60.8297671,14.5551724 60.3996576,15.0206897 60.0924366,15.5172414 C59.7544934,16.0758621 59.5087166,16.7275862 59.3551061,17.4724138 L59.3551061,32.3689655 C59.3551061,32.8034483 59.2014956,33.1758621 58.9249966,33.4862069 C58.6484977,33.7965517 58.2798324,33.9517241 57.849723,33.9517241 C57.4196135,33.9517241 57.0202261,33.7965517 56.7130051,33.4862069 C56.405784,33.1758621 56.2521735,32.8034483 56.2521735,32.337931 L56.2521735,12.2275862 C56.2521735,11.7931034 56.405784,11.3896552 56.7437272,11.0793103 C57.0816703,10.7689655 57.4503356,10.6137931 57.8804451,10.6137931 C58.2798324,10.6137931 58.6177756,10.7689655 58.9249966,11.1103448 C59.2322177,11.4517241 59.3551061,11.7931034 59.3551061,12.1344828 L59.3551061,12.4137931 C59.5394387,12.2275862 59.7852156,12.0103448 60.0924366,11.762069 C60.3996576,11.5137931 60.7376008,11.2965517 61.106266,11.1103448 C61.4749313,10.9241379 61.8743187,10.737931 62.3351502,10.6137931 C62.7652597,10.4586207 63.2260913,10.3965517 63.6562007,10.3965517 L67.7422406,10.3965517 C68.1723501,10.3965517 68.5717375,10.5517241 68.8789585,10.862069 C69.1861796,11.1724138 69.3397901,11.5448276 69.3397901,11.9793103 C69.3397901,12.4448276 69.1861796,12.7862069 68.8789585,13.0965517 C68.5717375,13.3758621 68.2030722,13.5310345 67.7422406,13.5310345 L63.5025902,13.5310345 L63.5025902,13.5310345 Z" id="Shape"></path>
                                <path d="M87.6501644,33.0517241 C87.4965539,33.3931034 87.2814992,33.6413793 87.0050002,33.7655172 C86.7285013,33.8896552 86.4212802,33.9517241 86.0833371,33.9517241 C85.7146718,33.9517241 85.3767287,33.8896552 85.0387855,33.7344828 C84.7315645,33.5793103 84.4857876,33.362069 84.3321771,33.0517241 L75.6378215,13.0034483 C75.5456552,12.7862069 75.484211,12.537931 75.484211,12.2896552 C75.484211,11.8862069 75.6070994,11.5137931 75.8835984,11.1724138 C76.1600973,10.8310345 76.4980405,10.6758621 76.9281499,10.6758621 C77.235371,10.6758621 77.542592,10.7689655 77.819091,10.9241379 C78.0955899,11.0793103 78.3106446,11.3275862 78.4642551,11.637931 L85.9297266,28.862069 L93.395198,11.637931 C93.5488085,11.3275862 93.7638632,11.0793103 94.0403622,10.9241379 C94.3168611,10.7689655 94.6240822,10.6758621 94.9313032,10.6758621 C95.3614127,10.6758621 95.7300779,10.8310345 95.9758548,11.1724138 C96.2523537,11.5137931 96.3752421,11.8862069 96.3752421,12.2896552 C96.3752421,12.537931 96.3137979,12.7862069 96.2216316,13.0034483 L87.6501644,33.0517241 L87.6501644,33.0517241 Z" id="Shape"></path>
                                <path d="M123.011307,22.2517241 C123.011307,22.6862069 122.857696,23.0586207 122.581197,23.3689655 C122.304698,23.6793103 121.936033,23.8034483 121.444479,23.8034483 L106.298482,23.8034483 L106.298482,27.5896552 C106.298482,28.4896552 106.605703,29.2344828 107.220145,29.8551724 C107.834587,30.4758621 108.571918,30.7862069 109.462859,30.7862069 L119.478265,30.7862069 C119.908374,30.7862069 120.307762,30.9413793 120.614983,31.2206897 C120.922204,31.5310345 121.075814,31.8724138 121.075814,32.3068966 C121.075814,32.7413793 120.922204,33.1137931 120.614983,33.4241379 C120.307762,33.7344828 119.939096,33.8896552 119.478265,33.8896552 L109.462859,33.8896552 C108.571918,33.8896552 107.773143,33.7344828 107.00509,33.4241379 C106.237038,33.1137931 105.561151,32.6793103 105.008154,32.0896552 C104.455156,31.5310345 103.994324,30.8482759 103.687103,30.0724138 C103.379882,29.2965517 103.226271,28.4586207 103.226271,27.5275862 L103.226271,16.262069 C103.226271,15.5172414 103.379882,14.7724138 103.717825,14.0896552 C104.055768,13.4068966 104.455156,12.7862069 104.977431,12.2275862 C105.499707,11.6689655 106.083427,11.2344828 106.697869,10.9241379 C107.343033,10.6137931 107.988198,10.4586207 108.633362,10.4586207 L116.989774,10.4586207 C117.727105,10.4586207 118.464435,10.6137931 119.201766,10.9551724 C119.908374,11.2965517 120.553538,11.7310345 121.137258,12.2586207 C121.690256,12.7862069 122.151088,13.437931 122.489031,14.1517241 C122.826974,14.8655172 123.011307,15.6103448 123.011307,16.3862069 L123.011307,22.2517241 L123.011307,22.2517241 Z M106.298482,20.7 L119.877652,20.7 L119.877652,16.3862069 C119.877652,16.0758621 119.785486,15.7344828 119.631875,15.3931034 C119.447543,15.0517241 119.232488,14.7413793 118.986711,14.4931034 C118.710212,14.2137931 118.402991,13.9965517 118.065048,13.8413793 C117.727105,13.6862069 117.389162,13.5931034 117.020496,13.5931034 L109.155638,13.5931034 C108.817694,13.5931034 108.479751,13.6862069 108.111086,13.8413793 C107.773143,13.9965517 107.465922,14.2137931 107.189423,14.4931034 C106.912924,14.7724138 106.697869,15.0827586 106.544259,15.3931034 C106.359926,15.7344828 106.298482,16.0448276 106.298482,16.3862069 L106.298482,20.7 L106.298482,20.7 Z" id="Shape"></path>
                                <path d="M137.757917,13.5310345 C136.836254,13.5310345 136.129645,13.7482759 135.60737,14.1517241 C135.085094,14.5551724 134.654984,15.0206897 134.347763,15.5172414 C134.00982,16.0758621 133.764043,16.7275862 133.610433,17.4724138 L133.610433,32.3689655 C133.610433,32.8034483 133.456822,33.1758621 133.180323,33.4862069 C132.903824,33.7965517 132.535159,33.9517241 132.10505,33.9517241 C131.67494,33.9517241 131.275553,33.7965517 130.968332,33.4862069 C130.661111,33.1758621 130.5075,32.8034483 130.5075,32.337931 L130.5075,12.2275862 C130.5075,11.7931034 130.661111,11.3896552 130.999054,11.0793103 C131.336997,10.7689655 131.705662,10.6137931 132.135772,10.6137931 C132.535159,10.6137931 132.873102,10.7689655 133.180323,11.1103448 C133.487544,11.4517241 133.610433,11.7931034 133.610433,12.1344828 L133.610433,12.4137931 C133.794766,12.2275862 134.040542,12.0103448 134.347763,11.762069 C134.654984,11.5137931 134.992928,11.2965517 135.361593,11.1103448 C135.730258,10.9241379 136.129645,10.737931 136.590477,10.6137931 C137.020587,10.4586207 137.481418,10.3965517 137.911528,10.3965517 L141.936123,10.3965517 C142.366233,10.3965517 142.76562,10.5517241 143.072841,10.862069 C143.380062,11.1724138 143.533673,11.5448276 143.533673,11.9793103 C143.533673,12.4448276 143.380062,12.7862069 143.072841,13.0965517 C142.76562,13.3758621 142.396955,13.5310345 141.936123,13.5310345 L137.757917,13.5310345 L137.757917,13.5310345 Z" id="Shape"></path>
                                <path d="M154.532186,11.9172414 C154.532186,12.8172414 154.839407,13.562069 155.484571,14.1827586 C156.068291,14.7724138 156.805622,15.0827586 157.696563,15.0827586 L166.052975,15.0827586 C166.974638,15.0827586 167.773413,15.237931 168.480022,15.5482759 C169.18663,15.8586207 169.862516,16.3241379 170.538403,17.0068966 C171.214289,17.6896552 171.675121,18.3724138 171.951619,19.0862069 C172.228118,19.8 172.381729,20.637931 172.381729,21.5689655 L172.381729,27.7758621 C172.381729,28.737931 172.25884,29.5448276 171.982342,30.2586207 C171.705843,30.9724138 171.245011,31.6551724 170.599847,32.337931 C169.954683,32.9896552 169.248074,33.4862069 168.541466,33.7655172 C167.834857,34.0448276 167.036083,34.2 166.11442,34.2 L157.450786,34.2 C156.529123,34.2 155.730348,34.0448276 155.02374,33.7655172 C154.317131,33.4862069 153.641245,33.0206897 152.965359,32.3689655 C152.320195,31.7172414 151.859363,31.0344828 151.582864,30.3206897 C151.306365,29.6068966 151.183477,28.7689655 151.183477,27.837931 C151.183477,27.4034483 151.337087,27 151.644308,26.6896552 C151.951529,26.3793103 152.320195,26.2241379 152.781026,26.2241379 C153.211136,26.2241379 153.579801,26.3793103 153.8563,26.6896552 C154.132799,27 154.286409,27.3724138 154.286409,27.837931 C154.286409,28.737931 154.59363,29.4827586 155.238795,30.1034483 C155.853237,30.7241379 156.652011,31.0655172 157.573674,31.0655172 L165.930087,31.0655172 C166.882472,31.0655172 167.650525,30.7551724 168.295689,30.1034483 C168.910131,29.4827586 169.248074,28.7068966 169.248074,27.8068966 L169.248074,21.5689655 C169.248074,20.6689655 168.940853,19.9241379 168.295689,19.2724138 C167.957746,18.9310345 167.619803,18.6827586 167.28186,18.5275862 C166.943916,18.3724138 166.544529,18.3103448 166.083697,18.3103448 L157.665841,18.3103448 C156.744178,18.3103448 155.945403,18.1551724 155.238795,17.8758621 C154.532186,17.5965517 153.8563,17.1310345 153.180414,16.4482759 C152.535249,15.7965517 152.074418,15.0827586 151.797919,14.3689655 C151.52142,13.6551724 151.398531,12.8172414 151.398531,11.8862069 L151.398531,5.92758621 C151.398531,5.18275862 151.552142,4.43793103 151.890085,3.75517241 C152.228028,3.07241379 152.627416,2.42068966 153.149691,1.89310345 C153.671967,1.33448276 154.255687,0.9 154.900851,0.589655172 C155.546016,0.279310345 156.19118,0.124137931 156.836344,0.124137931 L165.899365,0.124137931 C166.821028,0.124137931 167.619803,0.279310345 168.326411,0.55862069 C169.03302,0.837931034 169.708906,1.30344828 170.384792,1.9862069 C171.060678,2.66896552 171.490788,3.35172414 171.767287,4.06551724 C172.043786,4.77931034 172.166674,5.61724138 172.166674,6.54827586 C172.166674,6.98275862 172.013064,7.3862069 171.705843,7.69655172 C171.398622,8.00689655 171.029956,8.16206897 170.569125,8.16206897 C170.139015,8.16206897 169.77035,8.00689655 169.493851,7.69655172 C169.217352,7.3862069 169.063742,7.0137931 169.063742,6.54827586 C169.063742,5.64827586 168.756521,4.90344828 168.111356,4.28275862 C167.466192,3.63103448 166.69814,3.28965517 165.868643,3.28965517 L157.819451,3.28965517 C156.897788,3.28965517 156.129736,3.6 155.484571,4.22068966 C154.839407,4.84137931 154.532186,5.61724138 154.532186,6.51724138 L154.532186,11.9172414 L154.532186,11.9172414 Z" id="Shape"></path>
                                <path d="M181.997748,3.72413793 C182.520023,3.72413793 182.980855,3.91034483 183.34952,4.28275862 C183.718186,4.65517241 183.902518,5.15172414 183.902518,5.71034483 C183.902518,6.23793103 183.718186,6.70344828 183.34952,7.07586207 C182.980855,7.44827586 182.520023,7.63448276 181.997748,7.63448276 C181.475472,7.63448276 181.01464,7.44827586 180.615253,7.07586207 C180.215866,6.70344828 180.031533,6.23793103 180.031533,5.71034483 C180.031533,5.15172414 180.215866,4.65517241 180.584531,4.28275862 C180.953196,3.94137931 181.414028,3.72413793 181.997748,3.72413793 L181.997748,3.72413793 Z M183.503131,32.337931 C183.503131,32.7724138 183.34952,33.1758621 183.042299,33.4862069 C182.735078,33.7965517 182.366413,33.9517241 181.936303,33.9517241 C181.506194,33.9517241 181.137529,33.7965517 180.830308,33.4862069 C180.523087,33.1758621 180.369476,32.8034483 180.369476,32.337931 L180.369476,12.2896552 C180.369476,11.8551724 180.523087,11.4517241 180.830308,11.1413793 C181.137529,10.8310345 181.506194,10.6758621 181.936303,10.6758621 C182.366413,10.6758621 182.735078,10.8310345 183.042299,11.1413793 C183.34952,11.4517241 183.503131,11.8241379 183.503131,12.2896552 L183.503131,32.337931 L183.503131,32.337931 Z" id="Shape"></path>
                                <path d="M191.583044,17.2551724 C191.583044,16.262069 191.736655,15.362069 192.074598,14.5241379 C192.412541,13.6862069 192.842651,12.9724138 193.426371,12.3827586 C194.010091,11.7931034 194.685977,11.3275862 195.484752,10.9862069 C196.252804,10.6448276 197.113023,10.4896552 197.973242,10.4896552 L204.179107,10.4896552 C204.609217,10.4896552 205.070048,10.5517241 205.500158,10.7068966 C205.930267,10.862069 206.360377,11.0172414 206.729042,11.2034483 C207.097707,11.3896552 207.43565,11.6068966 207.742871,11.8241379 C208.050092,12.0724138 208.295869,12.2586207 208.480202,12.4448276 L208.480202,1.83103448 C208.480202,1.48965517 208.633812,1.14827586 208.910311,0.806896552 C209.18681,0.465517241 209.524753,0.310344828 209.954863,0.310344828 C210.384972,0.310344828 210.78436,0.465517241 211.091581,0.775862069 C211.429524,1.0862069 211.583134,1.45862069 211.583134,1.92413793 L211.583134,32.3068966 C211.583134,32.7413793 211.429524,33.1448276 211.091581,33.4551724 C210.753638,33.7655172 210.384972,33.9206897 209.954863,33.9206897 C209.555475,33.9206897 209.217532,33.7655172 208.910311,33.4241379 C208.633812,33.0827586 208.480202,32.7413793 208.480202,32.4 L208.480202,32.1517241 C208.295869,32.337931 208.050092,32.5551724 207.742871,32.8034483 C207.43565,33.0517241 207.097707,33.2689655 206.729042,33.4551724 C206.360377,33.6413793 205.930267,33.7965517 205.500158,33.9517241 C205.070048,34.1068966 204.609217,34.1689655 204.179107,34.1689655 L197.973242,34.1689655 C197.082301,34.1689655 196.252804,34.0137931 195.484752,33.6724138 C194.685977,33.3310345 194.010091,32.8655172 193.426371,32.2758621 C192.842651,31.6862069 192.381819,30.9724138 192.074598,30.1344828 C191.736655,29.3275862 191.583044,28.3965517 191.583044,27.3724138 L191.583044,17.2551724 L191.583044,17.2551724 Z M208.44948,16.6965517 C208.44948,16.262069 208.326591,15.8275862 208.050092,15.4551724 C207.773593,15.0827586 207.466372,14.7413793 207.066985,14.462069 C206.667598,14.1827586 206.237488,13.9655172 205.745935,13.8103448 C205.254381,13.6551724 204.793549,13.562069 204.36344,13.562069 L197.973242,13.6241379 C197.051579,13.6241379 196.283526,13.9344828 195.638362,14.5551724 C194.993198,15.1758621 194.685977,15.9517241 194.685977,16.8517241 L194.685977,27.8068966 C194.685977,28.737931 194.993198,29.4827586 195.638362,30.1034483 C196.283526,30.7241379 197.051579,31.0344828 197.973242,31.0344828 L204.36344,31.0344828 C204.793549,31.0344828 205.254381,30.9413793 205.745935,30.7862069 C206.237488,30.6310345 206.667598,30.4137931 207.066985,30.1344828 C207.466372,29.8551724 207.773593,29.5137931 208.050092,29.1413793 C208.326591,28.7689655 208.44948,28.3655172 208.44948,27.9 L208.44948,16.6965517 L208.44948,16.6965517 Z" id="Shape"></path>
                                <path d="M239.017974,22.2517241 C239.017974,22.6862069 238.864363,23.0586207 238.587864,23.3689655 C238.311365,23.6793103 237.9427,23.8034483 237.451146,23.8034483 L222.305149,23.8034483 L222.305149,27.5896552 C222.305149,28.4896552 222.61237,29.2344828 223.226812,29.8551724 C223.841254,30.4758621 224.578585,30.7862069 225.469526,30.7862069 L235.484932,30.7862069 C235.915041,30.7862069 236.314429,30.9413793 236.62165,31.2206897 C236.928871,31.5310345 237.082481,31.8724138 237.082481,32.3068966 C237.082481,32.7413793 236.928871,33.1137931 236.62165,33.4241379 C236.314429,33.7344828 235.945763,33.8896552 235.484932,33.8896552 L225.469526,33.8896552 C224.578585,33.8896552 223.77981,33.7344828 223.011757,33.4241379 C222.243705,33.1137931 221.567818,32.6793103 221.01482,32.0896552 C220.461823,31.5310345 220.000991,30.8482759 219.69377,30.0724138 C219.386549,29.2965517 219.232938,28.4586207 219.232938,27.5275862 L219.232938,16.262069 C219.232938,15.5172414 219.386549,14.7724138 219.724492,14.0896552 C220.062435,13.4068966 220.461823,12.7862069 220.984098,12.2275862 C221.506374,11.6689655 222.090094,11.2344828 222.704536,10.9241379 C223.3497,10.6137931 223.994865,10.4586207 224.640029,10.4586207 L232.996441,10.4586207 C233.733772,10.4586207 234.471102,10.6137931 235.208433,10.9551724 C235.915041,11.2965517 236.560205,11.7310345 237.143925,12.2586207 C237.727645,12.7862069 238.157755,13.437931 238.495698,14.1517241 C238.833641,14.8655172 239.017974,15.6103448 239.017974,16.3862069 L239.017974,22.2517241 L239.017974,22.2517241 Z M222.305149,20.7 L235.884319,20.7 L235.884319,16.3862069 C235.884319,16.0758621 235.792153,15.7344828 235.638542,15.3931034 C235.45421,15.0517241 235.239155,14.7413793 234.993378,14.4931034 C234.716879,14.2137931 234.409658,13.9965517 234.071715,13.8413793 C233.733772,13.6862069 233.395829,13.5931034 233.027163,13.5931034 L225.193027,13.5931034 C224.855084,13.5931034 224.51714,13.6862069 224.148475,13.8413793 C223.810532,13.9965517 223.503311,14.2137931 223.226812,14.4931034 C222.950313,14.7724138 222.735258,15.0827586 222.581648,15.3931034 C222.397315,15.7344828 222.335871,16.0448276 222.335871,16.3862069 L222.335871,20.7 L222.305149,20.7 Z" id="Shape"></path>
                            </g>
                        </g>
                        <g id="SSU-Square" transform="translate(308.449930, 0.000000)" fill="#404042">
                            <g id="Group">
                                <g>
                                    <ellipse id="Oval" cx="15.6068291" cy="23.3068966" rx="4.33181675" ry="4.37586207"></ellipse>
                                    <ellipse id="Oval" cx="15.6068291" cy="36.0310345" rx="4.33181675" ry="4.37586207"></ellipse>
                                    <polyline id="Shape" points="0.0921663138 15.8586207 15.6682733 0.155172414 31.2443804 15.9206897 27.8342268 19.3344828 15.6068291 7.23103448 3.56376413 19.3965517"></polyline>
                                    <ellipse id="Oval" cx="15.7297176" cy="48.5689655" rx="4.33181675" ry="4.37586207"></ellipse>
                                    <polyline id="Shape" points="31.2443804 56.0172414 15.6682733 71.7206897 0.0921663138 55.9551724 3.50231992 52.5413793 15.7297176 64.6448276 27.7727826 52.5103448"></polyline>
                                </g>
                            </g>
                        </g>
                    </g>
                </g>
            </g>
        </g>
    </g>
</svg>