<?xml version="1.0" encoding="UTF-8"?>
<svg width="22px" height="15px" viewBox="0 0 22 15" version="1.1" xmlns="http://www.w3.org/2000/svg" xmlns:xlink="http://www.w3.org/1999/xlink">
    <!-- Generator: Sketch 49.3 (51167) - http://www.bohemiancoding.com/sketch -->
    <title>Fill 186</title>
    <desc>Created with Sketch.</desc>
    <defs></defs>
    <g id="Symbols" stroke="none" stroke-width="1" fill="none" fill-rule="evenodd">
        <g id="Component-/-Notification-/-Success" transform="translate(-23.000000, -18.000000)" fill="#00C853">
            <g id="Compontent-/-Notification-/-Success">
                <g id="Icon" transform="translate(23.000000, 18.000000)">
                    <path d="M21.5400952,2.64827586 L9.49247619,14.5448276 C9.20804762,14.8241379 8.81519048,15 8.38095238,15 C7.9472381,15 7.55438095,14.8241379 7.26995238,14.5448276 L0.460428571,7.82068966 C0.176,7.54137931 0,7.15344828 0,6.72413793 C0,5.86551724 0.704,5.17241379 1.57142857,5.17241379 C2.00566667,5.17241379 2.39852381,5.34827586 2.68295238,5.62758621 L8.38095238,11.2551724 L19.3175714,0.455172414 C19.602,0.175862069 19.9948571,0 20.4285714,0 C21.2965238,0 22,0.693103448 22,1.55172414 C22,1.98103448 21.8245238,2.36896552 21.5400952,2.64827586" id="Fill-186"></path>
                </g>
            </g>
        </g>
    </g>
</svg>