<?xml version="1.0" encoding="UTF-8"?>
<svg width="237px" height="50px" viewBox="0 0 237 50" version="1.1" xmlns="http://www.w3.org/2000/svg" xmlns:xlink="http://www.w3.org/1999/xlink">
    <!-- Generator: Sketch 49.3 (51167) - http://www.bohemiancoding.com/sketch -->
    <title>Twitter-SignIn</title>
    <desc>Created with Sketch.</desc>
    <defs>
        <rect id="path-1" x="0" y="0" width="235" height="47" rx="2"></rect>
        <filter x="-1.3%" y="-4.3%" width="102.6%" height="112.8%" filterUnits="objectBoundingBox" id="filter-2">
            <feOffset dx="0" dy="1" in="SourceAlpha" result="shadowOffsetOuter1"></feOffset>
            <feGaussianBlur stdDeviation="0.5" in="shadowOffsetOuter1" result="shadowBlurOuter1"></feGaussianBlur>
            <feColorMatrix values="0 0 0 0 0   0 0 0 0 0   0 0 0 0 0  0 0 0 0.24 0" type="matrix" in="shadowBlurOuter1" result="shadowMatrixOuter1"></feColorMatrix>
            <feOffset dx="0" dy="0" in="SourceAlpha" result="shadowOffsetOuter2"></feOffset>
            <feGaussianBlur stdDeviation="0.5" in="shadowOffsetOuter2" result="shadowBlurOuter2"></feGaussianBlur>
            <feColorMatrix values="0 0 0 0 0   0 0 0 0 0   0 0 0 0 0  0 0 0 0.12 0" type="matrix" in="shadowBlurOuter2" result="shadowMatrixOuter2"></feColorMatrix>
            <feMerge>
                <feMergeNode in="shadowMatrixOuter1"></feMergeNode>
                <feMergeNode in="shadowMatrixOuter2"></feMergeNode>
            </feMerge>
        </filter>
    </defs>
    <g id="00.00-Home" stroke="none" stroke-width="1" fill="none" fill-rule="evenodd">
        <g id="00.01-Home-Login" transform="translate(-602.000000, -326.000000)">
            <g id="Login">
                <g id="Social-Logins" transform="translate(603.000000, 268.000000)">
                    <g id="Twitter-SignIn" transform="translate(0.000000, 59.000000)">
                        <g id="button">
                            <g id="button-bg">
                                <use fill="black" fill-opacity="1" filter="url(#filter-2)" xlink:href="#path-1"></use>
                                <use fill="#4591C2" fill-rule="evenodd" xlink:href="#path-1"></use>
                            </g>
                        </g>
                        <path d="M66.0512939,26.362915 C66.0512939,26.1273019 66.016488,25.9171274 65.946875,25.7323853 C65.877262,25.5476431 65.7500864,25.3776294 65.5653442,25.2223389 C65.3806021,25.0670484 65.1262508,24.9184537 64.8022827,24.7765503 C64.4783146,24.6346469 64.0619817,24.4860522 63.5532715,24.3307617 C62.9963677,24.1647615 62.4823103,23.9746674 62.011084,23.7604736 C61.5398577,23.5462799 61.1342343,23.2972833 60.7942017,23.0134766 C60.454169,22.7296698 60.1877695,22.4030292 59.9949951,22.0335449 C59.8022207,21.6640607 59.705835,21.2410343 59.705835,20.7644531 C59.705835,20.2932268 59.8062368,19.8594909 60.0070435,19.4632324 C60.2078501,19.0669739 60.4903139,18.724269 60.8544434,18.4351074 C61.2185728,18.1459458 61.6549861,17.9210457 62.1636963,17.7604004 C62.6724065,17.5997551 63.2346568,17.5194336 63.8504639,17.5194336 C64.5091097,17.5194336 65.1008112,17.6144807 65.6255859,17.8045776 C66.1503607,17.9946746 66.5934674,18.253042 66.9549194,18.5796875 C67.3163714,18.906333 67.5934805,19.2851826 67.7862549,19.7162476 C67.9790293,20.1473125 68.075415,20.6064836 68.075415,21.0937744 L66.0512939,21.0937744 C66.0512939,20.8099677 66.0071171,20.5489229 65.9187622,20.3106323 C65.8304073,20.0723417 65.6951995,19.8661833 65.5131348,19.6921509 C65.3310701,19.5181184 65.1008152,19.3829106 64.8223633,19.2865234 C64.5439114,19.1901362 64.2145934,19.1419434 63.8343994,19.1419434 C63.4756248,19.1419434 63.1650485,19.1821041 62.9026611,19.2624268 C62.6402738,19.3427494 62.4220671,19.4551995 62.2480347,19.5997803 C62.0740022,19.7443611 61.9454879,19.9157135 61.8624878,20.1138428 C61.7794877,20.311972 61.7379883,20.5261626 61.7379883,20.7564209 C61.7379883,21.1901633 61.942808,21.5516099 62.3524536,21.8407715 C62.7620992,22.1299331 63.3872679,22.3976713 64.2279785,22.6439941 C64.8866244,22.8367685 65.4569068,23.0509591 65.9388428,23.2865723 C66.4207788,23.5221854 66.8210474,23.7885849 67.1396606,24.0857788 C67.4582739,24.3829727 67.6952222,24.7176454 67.8505127,25.0898071 C68.0058032,25.4619688 68.0834473,25.8809791 68.0834473,26.3468506 C68.0834473,26.8394963 67.9857228,27.282603 67.790271,27.6761841 C67.5948192,28.0697652 67.3163714,28.4044379 66.9549194,28.6802124 C66.5934674,28.9559869 66.1557155,29.1675001 65.6416504,29.3147583 C65.1275853,29.4620165 64.5546256,29.5356445 63.9227539,29.5356445 C63.3604952,29.5356445 62.8062771,29.4593391 62.260083,29.3067261 C61.7138889,29.154113 61.2239279,28.9238581 60.7901855,28.6159546 C60.3564431,28.308051 60.0070448,27.9238467 59.74198,27.4633301 C59.4769152,27.0028135 59.3443848,26.4619823 59.3443848,25.8408203 L61.3765381,25.8408203 C61.3765381,26.2103046 61.4421339,26.5275744 61.5733276,26.7926392 C61.7045213,27.057704 61.8839059,27.2745719 62.1114868,27.4432495 C62.3390677,27.6119271 62.6081446,27.7350867 62.9187256,27.8127319 C63.2293066,27.8903772 63.5639793,27.9291992 63.9227539,27.9291992 C64.6295934,27.9291992 65.1610537,27.7859593 65.5171509,27.4994751 C65.873248,27.2129909 66.0512939,26.8341414 66.0512939,26.362915 Z M72.0112061,29.375 L70.059375,29.375 L70.059375,20.6841309 L72.0112061,20.6841309 L72.0112061,29.375 Z M69.9388916,18.4270752 C69.9388916,18.1272039 70.0339387,17.8782074 70.2240356,17.6800781 C70.4141326,17.4819489 70.6858869,17.3828857 71.0393066,17.3828857 C71.3927264,17.3828857 71.6658193,17.4819489 71.8585938,17.6800781 C72.0513682,17.8782074 72.1477539,18.1272039 72.1477539,18.4270752 C72.1477539,18.7215916 72.0513682,18.9665721 71.8585938,19.1620239 C71.6658193,19.3574757 71.3927264,19.4552002 71.0393066,19.4552002 C70.6858869,19.4552002 70.4141326,19.3574757 70.2240356,19.1620239 C70.0339387,18.9665721 69.9388916,18.7215916 69.9388916,18.4270752 Z M74.0513916,24.9653076 C74.0513916,24.3066617 74.1317131,23.7042508 74.2923584,23.1580566 C74.4530037,22.6118625 74.6845973,22.1433206 74.987146,21.752417 C75.2896947,21.3615133 75.6551574,21.0589692 76.0835449,20.8447754 C76.5119325,20.6305816 76.9938613,20.5234863 77.5293457,20.5234863 C78.0541205,20.5234863 78.506598,20.6131786 78.886792,20.7925659 C79.266986,20.9719532 79.5936266,21.2276432 79.8667236,21.5596436 L79.9550781,20.6841309 L81.7141357,20.6841309 L81.7141357,29.1340332 C81.7141357,29.7177113 81.61775,30.2371234 81.4249756,30.6922852 C81.2322012,31.1474469 80.9631243,31.5303126 80.6177368,31.8408936 C80.2723493,32.1514745 79.8573551,32.3884228 79.3727417,32.5517456 C78.8881283,32.7150684 78.3566679,32.7967285 77.7783447,32.7967285 C77.5373767,32.7967285 77.2696385,32.7712934 76.9751221,32.7204224 C76.6806056,32.6695513 76.3834162,32.5865525 76.0835449,32.4714233 C75.7836736,32.3562942 75.4971937,32.2076995 75.2240967,32.0256348 C74.9509996,31.8435701 74.7180674,31.6213473 74.525293,31.35896 L75.448999,30.1862549 C75.7702897,30.5664488 76.1196881,30.8395418 76.4972046,31.005542 C76.8747211,31.1715422 77.2642802,31.254541 77.6658936,31.254541 C78.3138297,31.254541 78.8252097,31.0791725 79.2000488,30.7284302 C79.5748879,30.3776879 79.7623047,29.8622918 79.7623047,29.1822266 L79.7623047,28.595874 C79.4892076,28.9011002 79.1679218,29.1340324 78.7984375,29.2946777 C78.4289532,29.4553231 78.0005721,29.5356445 77.5132813,29.5356445 C76.9831516,29.5356445 76.5052389,29.4245332 76.0795288,29.2023071 C75.6538187,28.9800811 75.2896947,28.6735208 74.987146,28.2826172 C74.6845973,27.8917135 74.4530037,27.4271877 74.2923584,26.8890259 C74.1317131,26.350864 74.0513916,25.765856 74.0513916,25.1339844 L74.0513916,24.9653076 Z M75.9951904,25.1339844 C75.9951904,25.5195332 76.0340125,25.8823184 76.1116577,26.2223511 C76.189303,26.5623837 76.3111238,26.8609118 76.477124,27.1179443 C76.6431242,27.3749769 76.85196,27.5771192 77.1036377,27.7243774 C77.3553154,27.8716357 77.6578596,27.9452637 78.0112793,27.9452637 C78.4503765,27.9452637 78.8091457,27.852894 79.0875977,27.6681519 C79.3660496,27.4834097 79.5909497,27.2384293 79.7623047,26.9332031 L79.7623047,23.1098633 C79.5909497,22.8046371 79.3647109,22.5636728 79.0835815,22.3869629 C78.8024522,22.210253 78.4503765,22.1218994 78.0273438,22.1218994 C77.673924,22.1218994 77.3687025,22.1968661 77.1116699,22.3468018 C76.8546374,22.4967374 76.6444629,22.7002184 76.4811401,22.957251 C76.3178174,23.2142835 76.1959965,23.515489 76.1156738,23.8608765 C76.0353512,24.2062639 75.9951904,24.574404 75.9951904,24.9653076 L75.9951904,25.1339844 Z M85.7864746,20.6841309 L85.8427002,21.6881592 C86.1479263,21.3186749 86.5147277,21.032195 86.9431152,20.8287109 C87.3715028,20.6252268 87.8480768,20.5234863 88.3728516,20.5234863 C88.7905294,20.5234863 89.169379,20.58105 89.5094116,20.6961792 C89.8494442,20.8113084 90.1399402,20.9973864 90.3809082,21.2544189 C90.6218762,21.5114515 90.8079543,21.8461242 90.9391479,22.2584473 C91.0703416,22.6707703 91.1359375,23.1714407 91.1359375,23.7604736 L91.1359375,29.375 L89.1841064,29.375 L89.1841064,23.7444092 C89.1841064,23.4445379 89.1506392,23.1915253 89.0837036,22.9853638 C89.0167681,22.7792023 88.9190436,22.6118659 88.7905273,22.4833496 C88.6620111,22.3548333 88.5027068,22.2624637 88.3126099,22.2062378 C88.1225129,22.1500119 87.9043062,22.1218994 87.6579834,22.1218994 C87.2563701,22.1218994 86.9069717,22.2182852 86.6097778,22.4110596 C86.312584,22.603834 86.0756356,22.86354 85.8989258,23.1901855 L85.8989258,29.375 L83.9470947,29.375 L83.9470947,20.6841309 L85.7864746,20.6841309 Z M99.8107422,29.375 L97.8589111,29.375 L97.8589111,20.6841309 L99.8107422,20.6841309 L99.8107422,29.375 Z M97.7384277,18.4270752 C97.7384277,18.1272039 97.8334748,17.8782074 98.0235718,17.6800781 C98.2136688,17.4819489 98.485423,17.3828857 98.8388428,17.3828857 C99.1922625,17.3828857 99.4653555,17.4819489 99.6581299,17.6800781 C99.8509043,17.8782074 99.94729,18.1272039 99.94729,18.4270752 C99.94729,18.7215916 99.8509043,18.9665721 99.6581299,19.1620239 C99.4653555,19.3574757 99.1922625,19.4552002 98.8388428,19.4552002 C98.485423,19.4552002 98.2136688,19.3574757 98.0235718,19.1620239 C97.8334748,18.9665721 97.7384277,18.7215916 97.7384277,18.4270752 Z M104.003564,20.6841309 L104.05979,21.6881592 C104.365016,21.3186749 104.731818,21.032195 105.160205,20.8287109 C105.588593,20.6252268 106.065167,20.5234863 106.589941,20.5234863 C107.007619,20.5234863 107.386469,20.58105 107.726501,20.6961792 C108.066534,20.8113084 108.35703,20.9973864 108.597998,21.2544189 C108.838966,21.5114515 109.025044,21.8461242 109.156238,22.2584473 C109.287431,22.6707703 109.353027,23.1714407 109.353027,23.7604736 L109.353027,29.375 L107.401196,29.375 L107.401196,23.7444092 C107.401196,23.4445379 107.367729,23.1915253 107.300793,22.9853638 C107.233858,22.7792023 107.136133,22.6118659 107.007617,22.4833496 C106.879101,22.3548333 106.719797,22.2624637 106.5297,22.2062378 C106.339603,22.1500119 106.121396,22.1218994 105.875073,22.1218994 C105.47346,22.1218994 105.124062,22.2182852 104.826868,22.4110596 C104.529674,22.603834 104.292725,22.86354 104.116016,23.1901855 L104.116016,29.375 L102.164185,29.375 L102.164185,20.6841309 L104.003564,20.6841309 Z M123.586133,26.6842041 L124.967676,20.6841309 L126.871313,20.6841309 L124.501807,29.375 L122.895361,29.375 L121.031885,23.4070557 L119.200537,29.375 L117.594092,29.375 L115.216553,20.6841309 L117.12019,20.6841309 L118.52583,26.6199463 L120.308984,20.6841309 L121.778882,20.6841309 L123.586133,26.6842041 Z M130.509912,29.375 L128.558081,29.375 L128.558081,20.6841309 L130.509912,20.6841309 L130.509912,29.375 Z M128.437598,18.4270752 C128.437598,18.1272039 128.532645,17.8782074 128.722742,17.6800781 C128.912839,17.4819489 129.184593,17.3828857 129.538013,17.3828857 C129.891432,17.3828857 130.164525,17.4819489 130.3573,17.6800781 C130.550074,17.8782074 130.64646,18.1272039 130.64646,18.4270752 C130.64646,18.7215916 130.550074,18.9665721 130.3573,19.1620239 C130.164525,19.3574757 129.891432,19.4552002 129.538013,19.4552002 C129.184593,19.4552002 128.912839,19.3574757 128.722742,19.1620239 C128.532645,18.9665721 128.437598,18.7215916 128.437598,18.4270752 Z M135.33728,18.5716553 L135.33728,20.6841309 L136.871436,20.6841309 L136.871436,22.1299316 L135.33728,22.1299316 L135.33728,26.9813965 C135.33728,27.1795257 135.358699,27.3401687 135.401538,27.4633301 C135.444377,27.5864915 135.505957,27.6815386 135.586279,27.7484741 C135.666602,27.8154097 135.761649,27.8609252 135.871423,27.885022 C135.981198,27.9091188 136.103019,27.921167 136.23689,27.921167 C136.370761,27.921167 136.500614,27.9117962 136.626453,27.8930542 C136.752291,27.8743122 136.850016,27.8569093 136.919629,27.8408447 L136.919629,29.3509033 C136.764338,29.3937421 136.583615,29.4352415 136.377454,29.4754028 C136.171292,29.5155642 135.923634,29.5356445 135.634473,29.5356445 C135.313182,29.5356445 135.014654,29.4928064 134.738879,29.4071289 C134.463105,29.3214514 134.224818,29.1822275 134.024011,28.9894531 C133.823205,28.7966787 133.666578,28.5450048 133.554126,28.2344238 C133.441674,27.9238428 133.385449,27.5436546 133.385449,27.0938477 L133.385449,22.1299316 L131.955713,22.1299316 L131.955713,20.6841309 L133.385449,20.6841309 L133.385449,18.5716553 L135.33728,18.5716553 Z M140.542163,21.6319336 C140.842034,21.2838687 141.195449,21.0121144 141.602417,20.8166626 C142.009385,20.6212108 142.461863,20.5234863 142.959863,20.5234863 C143.382896,20.5234863 143.768439,20.5823887 144.116504,20.7001953 C144.464569,20.8180019 144.761758,21.0067573 145.008081,21.2664673 C145.254404,21.5261772 145.444498,21.8635274 145.578369,22.2785278 C145.71224,22.6935283 145.779175,23.1955374 145.779175,23.7845703 L145.779175,29.375 L143.827344,29.375 L143.827344,23.7685059 C143.827344,23.1687633 143.697491,22.7443982 143.437781,22.4953979 C143.178071,22.2463977 142.796544,22.1218994 142.293188,22.1218994 C141.88622,22.1218994 141.536822,22.2156078 141.244983,22.4030273 C140.953144,22.5904469 140.718873,22.8447982 140.542163,23.1660889 L140.542163,29.375 L138.590332,29.375 L138.590332,17.0375 L140.542163,17.0375 L140.542163,21.6319336 Z M160.518311,19.3186523 L156.87168,19.3186523 L156.87168,29.375 L154.855591,29.375 L154.855591,19.3186523 L151.241089,19.3186523 L151.241089,17.6800781 L160.518311,17.6800781 L160.518311,19.3186523 Z M169.377856,26.6842041 L170.759399,20.6841309 L172.663037,20.6841309 L170.29353,29.375 L168.687085,29.375 L166.823608,23.4070557 L164.992261,29.375 L163.385815,29.375 L161.008276,20.6841309 L162.911914,20.6841309 L164.317554,26.6199463 L166.100708,20.6841309 L167.570605,20.6841309 L169.377856,26.6842041 Z M176.301636,29.375 L174.349805,29.375 L174.349805,20.6841309 L176.301636,20.6841309 L176.301636,29.375 Z M174.229321,18.4270752 C174.229321,18.1272039 174.324368,17.8782074 174.514465,17.6800781 C174.704562,17.4819489 174.976317,17.3828857 175.329736,17.3828857 C175.683156,17.3828857 175.956249,17.4819489 176.149023,17.6800781 C176.341798,17.8782074 176.438184,18.1272039 176.438184,18.4270752 C176.438184,18.7215916 176.341798,18.9665721 176.149023,19.1620239 C175.956249,19.3574757 175.683156,19.4552002 175.329736,19.4552002 C174.976317,19.4552002 174.704562,19.3574757 174.514465,19.1620239 C174.324368,18.9665721 174.229321,18.7215916 174.229321,18.4270752 Z M181.129004,18.5716553 L181.129004,20.6841309 L182.663159,20.6841309 L182.663159,22.1299316 L181.129004,22.1299316 L181.129004,26.9813965 C181.129004,27.1795257 181.150423,27.3401687 181.193262,27.4633301 C181.2361,27.5864915 181.29768,27.6815386 181.378003,27.7484741 C181.458326,27.8154097 181.553373,27.8609252 181.663147,27.885022 C181.772921,27.9091188 181.894742,27.921167 182.028613,27.921167 C182.162484,27.921167 182.292337,27.9117962 182.418176,27.8930542 C182.544015,27.8743122 182.64174,27.8569093 182.711353,27.8408447 L182.711353,29.3509033 C182.556062,29.3937421 182.375339,29.4352415 182.169177,29.4754028 C181.963016,29.5155642 181.715358,29.5356445 181.426196,29.5356445 C181.104906,29.5356445 180.806378,29.4928064 180.530603,29.4071289 C180.254829,29.3214514 180.016542,29.1822275 179.815735,28.9894531 C179.614928,28.7966787 179.458301,28.5450048 179.34585,28.2344238 C179.233398,27.9238428 179.177173,27.5436546 179.177173,27.0938477 L179.177173,22.1299316 L177.747437,22.1299316 L177.747437,20.6841309 L179.177173,20.6841309 L179.177173,18.5716553 L181.129004,18.5716553 Z M186.855981,18.5716553 L186.855981,20.6841309 L188.390137,20.6841309 L188.390137,22.1299316 L186.855981,22.1299316 L186.855981,26.9813965 C186.855981,27.1795257 186.877401,27.3401687 186.920239,27.4633301 C186.963078,27.5864915 187.024658,27.6815386 187.10498,27.7484741 C187.185303,27.8154097 187.28035,27.8609252 187.390125,27.885022 C187.499899,27.9091188 187.62172,27.921167 187.755591,27.921167 C187.889462,27.921167 188.019315,27.9117962 188.145154,27.8930542 C188.270993,27.8743122 188.368717,27.8569093 188.43833,27.8408447 L188.43833,29.3509033 C188.28304,29.3937421 188.102316,29.4352415 187.896155,29.4754028 C187.689993,29.5155642 187.442335,29.5356445 187.153174,29.5356445 C186.831883,29.5356445 186.533355,29.4928064 186.257581,29.4071289 C185.981806,29.3214514 185.743519,29.1822275 185.542712,28.9894531 C185.341906,28.7966787 185.185279,28.5450048 185.072827,28.2344238 C184.960375,27.9238428 184.90415,27.5436546 184.90415,27.0938477 L184.90415,22.1299316 L183.474414,22.1299316 L183.474414,20.6841309 L184.90415,20.6841309 L184.90415,18.5716553 L186.855981,18.5716553 Z M193.964502,29.5356445 C193.321921,29.5356445 192.743606,29.4285492 192.229541,29.2143555 C191.715476,29.0001617 191.279063,28.7056497 190.920288,28.3308105 C190.561514,27.9559714 190.285743,27.511526 190.092969,26.9974609 C189.900194,26.4833959 189.803809,25.9291778 189.803809,25.33479 L189.803809,25.013501 C189.803809,24.3280809 189.905549,23.7082669 190.109033,23.1540405 C190.312517,22.5998141 190.590965,22.1285949 190.944385,21.7403687 C191.297805,21.3521424 191.714137,21.0522756 192.193396,20.8407593 C192.672655,20.6292429 193.188051,20.5234863 193.7396,20.5234863 C194.371471,20.5234863 194.920335,20.6292429 195.386206,20.8407593 C195.852078,21.0522756 196.237621,21.3481264 196.542847,21.7283203 C196.848073,22.1085143 197.07565,22.5609918 197.225586,23.0857666 C197.375522,23.6105414 197.450488,24.1861785 197.450488,24.8126953 L197.450488,25.6480469 L191.771704,25.6480469 C191.798478,25.9854021 191.869429,26.2959784 191.984558,26.5797852 C192.099687,26.8635919 192.256314,27.1085724 192.454443,27.3147339 C192.652573,27.5208954 192.886844,27.682877 193.157263,27.8006836 C193.427683,27.9184902 193.734243,27.9773926 194.076953,27.9773926 C194.558889,27.9773926 194.977899,27.8810068 195.333997,27.6882324 C195.690094,27.495458 195.999331,27.2303972 196.261719,26.893042 L197.31394,27.8970703 C197.174714,28.1059092 197.002023,28.3080516 196.795862,28.5035034 C196.5897,28.6989552 196.348736,28.8729851 196.072961,29.0255981 C195.797187,29.1782112 195.485272,29.3013708 195.137207,29.3950806 C194.789142,29.4887903 194.398244,29.5356445 193.964502,29.5356445 Z M193.731567,22.0897705 C193.196083,22.0897705 192.763686,22.2771873 192.434363,22.6520264 C192.10504,23.0268655 191.894865,23.548955 191.803833,24.2183105 L195.522754,24.2183105 L195.522754,24.0737305 C195.506689,23.8166979 195.46519,23.5690401 195.398254,23.3307495 C195.331319,23.0924589 195.22824,22.8809457 195.089014,22.6962036 C194.949788,22.5114615 194.769064,22.3642055 194.546838,22.2544312 C194.324612,22.1446568 194.052858,22.0897705 193.731567,22.0897705 Z M203.771851,22.4672852 C203.643334,22.4458658 203.513481,22.4298015 203.382288,22.4190918 C203.251094,22.4083821 203.115886,22.4030273 202.97666,22.4030273 C202.505434,22.4030273 202.122568,22.4940583 201.828052,22.676123 C201.533535,22.8581878 201.31399,23.1098617 201.169409,23.4311523 L201.169409,29.375 L199.217578,29.375 L199.217578,20.6841309 L201.081055,20.6841309 L201.129248,21.6560303 C201.348797,21.3026105 201.620551,21.0255015 201.944519,20.8246948 C202.268487,20.6238882 202.650014,20.5234863 203.089111,20.5234863 C203.201563,20.5234863 203.328739,20.5355345 203.470642,20.5596313 C203.612545,20.5837281 203.715625,20.6091633 203.779883,20.6359375 L203.771851,22.4672852 Z" id="Sign-in-with-Twitter" fill="#FFFFFF"></path>
                        <rect id="button-bg-copy" fill="#FFFFFF" x="1.175" y="1.175" width="44.65" height="44.65" rx="1"></rect>
                        <path d="M27.3106352,15.2760355 C28.9913992,15.2462934 29.8859781,15.8609652 30.7402398,16.6375668 C31.4656188,16.5747777 32.4081156,16.1716059 32.9633031,15.8907074 C33.1434086,15.7915668 33.3231836,15.6924262 33.5032891,15.5932855 C33.1860391,16.4491996 32.7560992,17.1200512 32.0951617,17.628973 C31.9484336,17.7446371 31.8030273,17.8966527 31.6189563,17.9693559 C31.6189563,17.9726605 31.6189563,17.9759652 31.6189563,17.9792699 C32.5604617,17.9693559 33.3370633,17.5430512 34.075,17.3150277 C34.075,17.3183324 34.075,17.3216371 34.075,17.3249418 C33.6873602,17.9396137 33.1629063,18.5641996 32.6034227,19.0136371 C32.3777125,19.1920902 32.1516719,19.3705434 31.9259617,19.5523012 C31.9381891,20.5470121 31.9114211,21.4987621 31.7247063,22.3381527 C30.6410992,27.2092621 27.7699867,30.5139496 23.2247195,31.9316605 C21.5925344,32.4405824 18.9550633,32.6487777 17.0849406,32.1828168 C16.1576453,31.9547934 15.319907,31.693723 14.5337219,31.3500355 C14.0971727,31.1583637 13.6926789,30.953473 13.3060305,30.7188402 C13.1788,30.6395277 13.0519,30.5635199 12.925,30.4842074 C13.3466781,30.4974262 13.840068,30.6130902 14.3116469,30.5370824 C14.738282,30.467684 15.1566555,30.4875121 15.5499133,30.4015902 C16.5317359,30.1867855 17.403182,29.8992777 18.154007,29.4597543 C18.5181836,29.2482543 19.0703969,28.997098 19.3291539,28.6897621 C18.8417125,28.6996762 18.3998758,28.5873168 18.037682,28.458434 C16.6338508,27.9627309 15.816932,27.0506371 15.2855383,25.6824965 C15.7108516,25.7287621 16.9358992,25.8411215 17.2224156,25.5998793 C16.6870563,25.5701371 16.1721859,25.2594965 15.8040438,25.0281684 C14.6751625,24.3209652 13.7541461,23.1378871 13.7610859,21.3136996 C13.9091359,21.383098 14.0575164,21.4558012 14.2055664,21.5251996 C14.4891086,21.6441684 14.7776078,21.7069574 15.1160078,21.7796605 C15.2591008,21.806098 15.5446258,21.8920199 15.7088688,21.8292309 C15.7019289,21.8292309 15.6946586,21.8292309 15.6877188,21.8292309 C15.4692789,21.5780746 15.1133641,21.4062309 14.8936023,21.1352465 C14.1692148,20.2330668 13.490432,18.8484027 13.9197109,17.1993637 C14.0287656,16.7796684 14.2016008,16.4095434 14.3856719,16.0691605 C14.3926117,16.0724652 14.399882,16.0757699 14.4068219,16.0790746 C14.4910914,16.254223 14.6791281,16.3864105 14.7984273,16.5318168 C15.1685523,16.9911684 15.6249297,17.4042543 16.0898992,17.7677699 C17.6744969,19.0070277 19.1014609,19.7671059 21.3932617,20.3322074 C21.9745563,20.474309 22.6467297,20.5833637 23.3410445,20.5866684 C23.146068,20.0182621 23.2085266,19.099559 23.3621945,18.5476762 C23.7485125,17.1663168 24.5872422,16.1683012 25.8182383,15.6362465 C26.1123555,15.5073637 26.4388586,15.4148324 26.7812242,15.3388246 C26.9576945,15.3189965 27.1341648,15.2991684 27.3106352,15.2760355" id="Fill-18" fill="#4591C2"></path>
                    </g>
                </g>
            </g>
        </g>
    </g>
</svg>