<?xml version="1.0" encoding="UTF-8"?>
<svg width="230px" height="52px" viewBox="0 0 230 52" version="1.1" xmlns="http://www.w3.org/2000/svg" xmlns:xlink="http://www.w3.org/1999/xlink">
    <!-- Generator: Sketch 47 (45396) - http://www.bohemiancoding.com/sketch -->
    <title>Group</title>
    <desc>Created with Sketch.</desc>
    <defs></defs>
    <g id="Page-1" stroke="none" stroke-width="1" fill="none" fill-rule="evenodd">
        <g id="Artboard-1" transform="translate(-85.000000, -267.000000)">
            <g id="Group" transform="translate(85.000000, 267.000000)">
                <rect id="Rectangle-3" fill="#64CCF1" x="0" y="0" width="230" height="52" rx="8"></rect>
                <path d="M31.4921569,23.0658333 L31.4921569,23.5904048 C31.4921569,29.0546905 27.4682353,35.3058333 20.1411765,35.3058333 C17.8541176,35.3058333 15.7788235,34.650119 14,33.4698333 C14.2964706,33.5135476 14.6352941,33.5135476 14.9741176,33.5135476 C16.8376471,33.5135476 18.5741176,32.8578333 19.9294118,31.7649762 C18.1929412,31.7212619 16.7105882,30.5409762 16.2023529,28.8794286 C16.4141176,28.9672619 16.6682353,28.9672619 16.9223529,28.9672619 C17.3035294,28.9672619 17.6423529,28.9235476 17.9811765,28.8357143 C16.16,28.4426905 14.8047059,26.7811429 14.8047059,24.7706905 L14.8047059,24.7269762 C15.3129412,25.0325714 15.9482353,25.2078333 16.5835294,25.2515476 C15.5247059,24.5084048 14.8047059,23.2402857 14.8047059,21.7977143 C14.8047059,21.0545714 15.0164706,20.3551429 15.3552941,19.7431429 C17.3458824,22.2348571 20.2682353,23.896 23.6141176,24.0275476 C23.5294118,23.7648571 23.4870588,23.4151429 23.4870588,23.1095476 C23.4870588,20.836 25.2658824,19 27.5105882,19 C28.6541176,19 29.6709804,19.4808571 30.3909804,20.268119 C31.3223529,20.0928571 32.1698039,19.7431429 32.9317647,19.306 C32.6356863,20.268119 32,21.0545714 31.1956863,21.5791429 C32,21.4484048 32.7623529,21.2294286 33.4827451,20.9234286 C32.9317647,21.754 32.2541176,22.4534286 31.4921569,23.0658333" id="Imported-Layers" fill="#FFFFFF"></path>
                <text id="Login-With-Twitter" font-family="HelveticaNeue-Bold, Helvetica Neue" font-size="16" font-weight="bold" fill="#FFFFFF">
                    <tspan x="54" y="32">Login With Twitter</tspan>
                </text>
            </g>
        </g>
    </g>
</svg>